%TF.GenerationSoftware,KiCad,Pcbnew,(5.1.8-0-10_14)*%
%TF.CreationDate,2020-11-19T20:53:49+01:00*%
%TF.ProjectId,Tank_Sender,54616e6b-5f53-4656-9e64-65722e6b6963,rev?*%
%TF.SameCoordinates,Original*%
%TF.FileFunction,Copper,L2,Bot*%
%TF.FilePolarity,Positive*%
%FSLAX46Y46*%
G04 Gerber Fmt 4.6, Leading zero omitted, Abs format (unit mm)*
G04 Created by KiCad (PCBNEW (5.1.8-0-10_14)) date 2020-11-19 20:53:49*
%MOMM*%
%LPD*%
G01*
G04 APERTURE LIST*
%TA.AperFunction,Profile*%
%ADD10C,0.050000*%
%TD*%
%TA.AperFunction,ComponentPad*%
%ADD11O,3.600000X1.800000*%
%TD*%
%TA.AperFunction,ComponentPad*%
%ADD12O,1.700000X1.700000*%
%TD*%
%TA.AperFunction,ComponentPad*%
%ADD13R,1.700000X1.700000*%
%TD*%
%TA.AperFunction,Conductor*%
%ADD14C,1.000000*%
%TD*%
%TA.AperFunction,Conductor*%
%ADD15C,0.254000*%
%TD*%
%TA.AperFunction,Conductor*%
%ADD16C,0.100000*%
%TD*%
G04 APERTURE END LIST*
D10*
X119000000Y-76000000D02*
X119000000Y-91000000D01*
X140000000Y-76000000D02*
X119000000Y-76000000D01*
X140000000Y-91000000D02*
X140000000Y-76000000D01*
X119000000Y-91000000D02*
X140000000Y-91000000D01*
D11*
%TO.P,J103,2*%
%TO.N,Net-(C104-Pad1)*%
X123800000Y-79890000D03*
%TO.P,J103,1*%
%TO.N,GND*%
%TA.AperFunction,ComponentPad*%
G36*
G01*
X125350000Y-84600000D02*
X122250000Y-84600000D01*
G75*
G02*
X122000000Y-84350000I0J250000D01*
G01*
X122000000Y-83050000D01*
G75*
G02*
X122250000Y-82800000I250000J0D01*
G01*
X125350000Y-82800000D01*
G75*
G02*
X125600000Y-83050000I0J-250000D01*
G01*
X125600000Y-84350000D01*
G75*
G02*
X125350000Y-84600000I-250000J0D01*
G01*
G37*
%TD.AperFunction*%
%TD*%
D12*
%TO.P,J102,2*%
%TO.N,Net-(C104-Pad1)*%
X121820000Y-89200000D03*
D13*
%TO.P,J102,1*%
%TO.N,GND*%
X124360000Y-89200000D03*
%TD*%
D12*
%TO.P,J101,4*%
%TO.N,GND*%
X129440000Y-89200000D03*
%TO.P,J101,3*%
%TO.N,Net-(C104-Pad1)*%
X131980000Y-89200000D03*
%TO.P,J101,2*%
%TO.N,Net-(J101-Pad2)*%
X134520000Y-89200000D03*
D13*
%TO.P,J101,1*%
%TO.N,Net-(C101-Pad1)*%
X137060000Y-89200000D03*
%TD*%
D14*
%TO.N,Net-(C104-Pad1)*%
X131980000Y-89200000D02*
X130080000Y-87300000D01*
X121820000Y-89200000D02*
X121820000Y-88320000D01*
X122840000Y-87300000D02*
X130080000Y-87300000D01*
X121820000Y-88320000D02*
X122840000Y-87300000D01*
%TD*%
D15*
%TO.N,GND*%
X139340000Y-90340000D02*
X138475010Y-90340000D01*
X138499502Y-90294180D01*
X138535812Y-90174482D01*
X138548072Y-90050000D01*
X138548072Y-88350000D01*
X138535812Y-88225518D01*
X138499502Y-88105820D01*
X138440537Y-87995506D01*
X138361185Y-87898815D01*
X138264494Y-87819463D01*
X138154180Y-87760498D01*
X138034482Y-87724188D01*
X137910000Y-87711928D01*
X136210000Y-87711928D01*
X136085518Y-87724188D01*
X135965820Y-87760498D01*
X135855506Y-87819463D01*
X135758815Y-87898815D01*
X135679463Y-87995506D01*
X135620498Y-88105820D01*
X135598487Y-88178380D01*
X135466632Y-88046525D01*
X135223411Y-87884010D01*
X134953158Y-87772068D01*
X134666260Y-87715000D01*
X134373740Y-87715000D01*
X134086842Y-87772068D01*
X133816589Y-87884010D01*
X133573368Y-88046525D01*
X133366525Y-88253368D01*
X133250000Y-88427760D01*
X133133475Y-88253368D01*
X132926632Y-88046525D01*
X132683411Y-87884010D01*
X132413158Y-87772068D01*
X132126260Y-87715000D01*
X132100132Y-87715000D01*
X130921996Y-86536865D01*
X130886449Y-86493551D01*
X130713623Y-86351716D01*
X130516447Y-86246324D01*
X130302499Y-86181423D01*
X130135752Y-86165000D01*
X130135751Y-86165000D01*
X130080000Y-86159509D01*
X130024249Y-86165000D01*
X122895752Y-86165000D01*
X122840000Y-86159509D01*
X122784248Y-86165000D01*
X122617501Y-86181423D01*
X122403553Y-86246324D01*
X122206377Y-86351716D01*
X122033551Y-86493551D01*
X121998008Y-86536860D01*
X121056860Y-87478009D01*
X121013552Y-87513551D01*
X120871717Y-87686377D01*
X120766324Y-87883553D01*
X120711845Y-88063144D01*
X120701423Y-88097502D01*
X120688207Y-88231686D01*
X120666525Y-88253368D01*
X120504010Y-88496589D01*
X120392068Y-88766842D01*
X120335000Y-89053740D01*
X120335000Y-89346260D01*
X120392068Y-89633158D01*
X120504010Y-89903411D01*
X120666525Y-90146632D01*
X120859893Y-90340000D01*
X119660000Y-90340000D01*
X119660000Y-84600000D01*
X121361928Y-84600000D01*
X121374188Y-84724482D01*
X121410498Y-84844180D01*
X121469463Y-84954494D01*
X121548815Y-85051185D01*
X121645506Y-85130537D01*
X121755820Y-85189502D01*
X121875518Y-85225812D01*
X122000000Y-85238072D01*
X123514250Y-85235000D01*
X123673000Y-85076250D01*
X123673000Y-83827000D01*
X123927000Y-83827000D01*
X123927000Y-85076250D01*
X124085750Y-85235000D01*
X125600000Y-85238072D01*
X125724482Y-85225812D01*
X125844180Y-85189502D01*
X125954494Y-85130537D01*
X126051185Y-85051185D01*
X126130537Y-84954494D01*
X126189502Y-84844180D01*
X126225812Y-84724482D01*
X126238072Y-84600000D01*
X126235000Y-83985750D01*
X126076250Y-83827000D01*
X123927000Y-83827000D01*
X123673000Y-83827000D01*
X121523750Y-83827000D01*
X121365000Y-83985750D01*
X121361928Y-84600000D01*
X119660000Y-84600000D01*
X119660000Y-82800000D01*
X121361928Y-82800000D01*
X121365000Y-83414250D01*
X121523750Y-83573000D01*
X123673000Y-83573000D01*
X123673000Y-82323750D01*
X123927000Y-82323750D01*
X123927000Y-83573000D01*
X126076250Y-83573000D01*
X126235000Y-83414250D01*
X126238072Y-82800000D01*
X126225812Y-82675518D01*
X126189502Y-82555820D01*
X126130537Y-82445506D01*
X126051185Y-82348815D01*
X125954494Y-82269463D01*
X125844180Y-82210498D01*
X125724482Y-82174188D01*
X125600000Y-82161928D01*
X124085750Y-82165000D01*
X123927000Y-82323750D01*
X123673000Y-82323750D01*
X123514250Y-82165000D01*
X122000000Y-82161928D01*
X121875518Y-82174188D01*
X121755820Y-82210498D01*
X121645506Y-82269463D01*
X121548815Y-82348815D01*
X121469463Y-82445506D01*
X121410498Y-82555820D01*
X121374188Y-82675518D01*
X121361928Y-82800000D01*
X119660000Y-82800000D01*
X119660000Y-79890000D01*
X121357573Y-79890000D01*
X121387210Y-80190913D01*
X121474983Y-80480261D01*
X121617519Y-80746927D01*
X121809339Y-80980661D01*
X122043073Y-81172481D01*
X122309739Y-81315017D01*
X122599087Y-81402790D01*
X122824592Y-81425000D01*
X124775408Y-81425000D01*
X125000913Y-81402790D01*
X125290261Y-81315017D01*
X125556927Y-81172481D01*
X125790661Y-80980661D01*
X125982481Y-80746927D01*
X126125017Y-80480261D01*
X126212790Y-80190913D01*
X126242427Y-79890000D01*
X126212790Y-79589087D01*
X126125017Y-79299739D01*
X125982481Y-79033073D01*
X125790661Y-78799339D01*
X125556927Y-78607519D01*
X125290261Y-78464983D01*
X125000913Y-78377210D01*
X124775408Y-78355000D01*
X122824592Y-78355000D01*
X122599087Y-78377210D01*
X122309739Y-78464983D01*
X122043073Y-78607519D01*
X121809339Y-78799339D01*
X121617519Y-79033073D01*
X121474983Y-79299739D01*
X121387210Y-79589087D01*
X121357573Y-79890000D01*
X119660000Y-79890000D01*
X119660000Y-76660000D01*
X139340001Y-76660000D01*
X139340000Y-90340000D01*
%TA.AperFunction,Conductor*%
D16*
G36*
X139340000Y-90340000D02*
G01*
X138475010Y-90340000D01*
X138499502Y-90294180D01*
X138535812Y-90174482D01*
X138548072Y-90050000D01*
X138548072Y-88350000D01*
X138535812Y-88225518D01*
X138499502Y-88105820D01*
X138440537Y-87995506D01*
X138361185Y-87898815D01*
X138264494Y-87819463D01*
X138154180Y-87760498D01*
X138034482Y-87724188D01*
X137910000Y-87711928D01*
X136210000Y-87711928D01*
X136085518Y-87724188D01*
X135965820Y-87760498D01*
X135855506Y-87819463D01*
X135758815Y-87898815D01*
X135679463Y-87995506D01*
X135620498Y-88105820D01*
X135598487Y-88178380D01*
X135466632Y-88046525D01*
X135223411Y-87884010D01*
X134953158Y-87772068D01*
X134666260Y-87715000D01*
X134373740Y-87715000D01*
X134086842Y-87772068D01*
X133816589Y-87884010D01*
X133573368Y-88046525D01*
X133366525Y-88253368D01*
X133250000Y-88427760D01*
X133133475Y-88253368D01*
X132926632Y-88046525D01*
X132683411Y-87884010D01*
X132413158Y-87772068D01*
X132126260Y-87715000D01*
X132100132Y-87715000D01*
X130921996Y-86536865D01*
X130886449Y-86493551D01*
X130713623Y-86351716D01*
X130516447Y-86246324D01*
X130302499Y-86181423D01*
X130135752Y-86165000D01*
X130135751Y-86165000D01*
X130080000Y-86159509D01*
X130024249Y-86165000D01*
X122895752Y-86165000D01*
X122840000Y-86159509D01*
X122784248Y-86165000D01*
X122617501Y-86181423D01*
X122403553Y-86246324D01*
X122206377Y-86351716D01*
X122033551Y-86493551D01*
X121998008Y-86536860D01*
X121056860Y-87478009D01*
X121013552Y-87513551D01*
X120871717Y-87686377D01*
X120766324Y-87883553D01*
X120711845Y-88063144D01*
X120701423Y-88097502D01*
X120688207Y-88231686D01*
X120666525Y-88253368D01*
X120504010Y-88496589D01*
X120392068Y-88766842D01*
X120335000Y-89053740D01*
X120335000Y-89346260D01*
X120392068Y-89633158D01*
X120504010Y-89903411D01*
X120666525Y-90146632D01*
X120859893Y-90340000D01*
X119660000Y-90340000D01*
X119660000Y-84600000D01*
X121361928Y-84600000D01*
X121374188Y-84724482D01*
X121410498Y-84844180D01*
X121469463Y-84954494D01*
X121548815Y-85051185D01*
X121645506Y-85130537D01*
X121755820Y-85189502D01*
X121875518Y-85225812D01*
X122000000Y-85238072D01*
X123514250Y-85235000D01*
X123673000Y-85076250D01*
X123673000Y-83827000D01*
X123927000Y-83827000D01*
X123927000Y-85076250D01*
X124085750Y-85235000D01*
X125600000Y-85238072D01*
X125724482Y-85225812D01*
X125844180Y-85189502D01*
X125954494Y-85130537D01*
X126051185Y-85051185D01*
X126130537Y-84954494D01*
X126189502Y-84844180D01*
X126225812Y-84724482D01*
X126238072Y-84600000D01*
X126235000Y-83985750D01*
X126076250Y-83827000D01*
X123927000Y-83827000D01*
X123673000Y-83827000D01*
X121523750Y-83827000D01*
X121365000Y-83985750D01*
X121361928Y-84600000D01*
X119660000Y-84600000D01*
X119660000Y-82800000D01*
X121361928Y-82800000D01*
X121365000Y-83414250D01*
X121523750Y-83573000D01*
X123673000Y-83573000D01*
X123673000Y-82323750D01*
X123927000Y-82323750D01*
X123927000Y-83573000D01*
X126076250Y-83573000D01*
X126235000Y-83414250D01*
X126238072Y-82800000D01*
X126225812Y-82675518D01*
X126189502Y-82555820D01*
X126130537Y-82445506D01*
X126051185Y-82348815D01*
X125954494Y-82269463D01*
X125844180Y-82210498D01*
X125724482Y-82174188D01*
X125600000Y-82161928D01*
X124085750Y-82165000D01*
X123927000Y-82323750D01*
X123673000Y-82323750D01*
X123514250Y-82165000D01*
X122000000Y-82161928D01*
X121875518Y-82174188D01*
X121755820Y-82210498D01*
X121645506Y-82269463D01*
X121548815Y-82348815D01*
X121469463Y-82445506D01*
X121410498Y-82555820D01*
X121374188Y-82675518D01*
X121361928Y-82800000D01*
X119660000Y-82800000D01*
X119660000Y-79890000D01*
X121357573Y-79890000D01*
X121387210Y-80190913D01*
X121474983Y-80480261D01*
X121617519Y-80746927D01*
X121809339Y-80980661D01*
X122043073Y-81172481D01*
X122309739Y-81315017D01*
X122599087Y-81402790D01*
X122824592Y-81425000D01*
X124775408Y-81425000D01*
X125000913Y-81402790D01*
X125290261Y-81315017D01*
X125556927Y-81172481D01*
X125790661Y-80980661D01*
X125982481Y-80746927D01*
X126125017Y-80480261D01*
X126212790Y-80190913D01*
X126242427Y-79890000D01*
X126212790Y-79589087D01*
X126125017Y-79299739D01*
X125982481Y-79033073D01*
X125790661Y-78799339D01*
X125556927Y-78607519D01*
X125290261Y-78464983D01*
X125000913Y-78377210D01*
X124775408Y-78355000D01*
X122824592Y-78355000D01*
X122599087Y-78377210D01*
X122309739Y-78464983D01*
X122043073Y-78607519D01*
X121809339Y-78799339D01*
X121617519Y-79033073D01*
X121474983Y-79299739D01*
X121387210Y-79589087D01*
X121357573Y-79890000D01*
X119660000Y-79890000D01*
X119660000Y-76660000D01*
X139340001Y-76660000D01*
X139340000Y-90340000D01*
G37*
%TD.AperFunction*%
D15*
X128095843Y-88568748D02*
X127998519Y-88843109D01*
X128119186Y-89073000D01*
X129313000Y-89073000D01*
X129313000Y-89053000D01*
X129567000Y-89053000D01*
X129567000Y-89073000D01*
X129587000Y-89073000D01*
X129587000Y-89327000D01*
X129567000Y-89327000D01*
X129567000Y-89347000D01*
X129313000Y-89347000D01*
X129313000Y-89327000D01*
X128119186Y-89327000D01*
X127998519Y-89556891D01*
X128095843Y-89831252D01*
X128244822Y-90081355D01*
X128439731Y-90297588D01*
X128496592Y-90340000D01*
X125775010Y-90340000D01*
X125799502Y-90294180D01*
X125835812Y-90174482D01*
X125848072Y-90050000D01*
X125845000Y-89485750D01*
X125686250Y-89327000D01*
X124487000Y-89327000D01*
X124487000Y-89347000D01*
X124233000Y-89347000D01*
X124233000Y-89327000D01*
X124213000Y-89327000D01*
X124213000Y-89073000D01*
X124233000Y-89073000D01*
X124233000Y-89053000D01*
X124487000Y-89053000D01*
X124487000Y-89073000D01*
X125686250Y-89073000D01*
X125845000Y-88914250D01*
X125847609Y-88435000D01*
X128175513Y-88435000D01*
X128095843Y-88568748D01*
%TA.AperFunction,Conductor*%
D16*
G36*
X128095843Y-88568748D02*
G01*
X127998519Y-88843109D01*
X128119186Y-89073000D01*
X129313000Y-89073000D01*
X129313000Y-89053000D01*
X129567000Y-89053000D01*
X129567000Y-89073000D01*
X129587000Y-89073000D01*
X129587000Y-89327000D01*
X129567000Y-89327000D01*
X129567000Y-89347000D01*
X129313000Y-89347000D01*
X129313000Y-89327000D01*
X128119186Y-89327000D01*
X127998519Y-89556891D01*
X128095843Y-89831252D01*
X128244822Y-90081355D01*
X128439731Y-90297588D01*
X128496592Y-90340000D01*
X125775010Y-90340000D01*
X125799502Y-90294180D01*
X125835812Y-90174482D01*
X125848072Y-90050000D01*
X125845000Y-89485750D01*
X125686250Y-89327000D01*
X124487000Y-89327000D01*
X124487000Y-89347000D01*
X124233000Y-89347000D01*
X124233000Y-89327000D01*
X124213000Y-89327000D01*
X124213000Y-89073000D01*
X124233000Y-89073000D01*
X124233000Y-89053000D01*
X124487000Y-89053000D01*
X124487000Y-89073000D01*
X125686250Y-89073000D01*
X125845000Y-88914250D01*
X125847609Y-88435000D01*
X128175513Y-88435000D01*
X128095843Y-88568748D01*
G37*
%TD.AperFunction*%
%TD*%
M02*
