%TF.GenerationSoftware,KiCad,Pcbnew,(5.1.8-0-10_14)*%
%TF.CreationDate,2020-11-19T20:53:49+01:00*%
%TF.ProjectId,Tank_Sender,54616e6b-5f53-4656-9e64-65722e6b6963,rev?*%
%TF.SameCoordinates,Original*%
%TF.FileFunction,Legend,Top*%
%TF.FilePolarity,Positive*%
%FSLAX46Y46*%
G04 Gerber Fmt 4.6, Leading zero omitted, Abs format (unit mm)*
G04 Created by KiCad (PCBNEW (5.1.8-0-10_14)) date 2020-11-19 20:53:49*
%MOMM*%
%LPD*%
G01*
G04 APERTURE LIST*
%ADD10C,0.150000*%
%TA.AperFunction,Profile*%
%ADD11C,0.050000*%
%TD*%
%ADD12C,0.120000*%
G04 APERTURE END LIST*
D10*
X119600000Y-87283333D02*
X119700000Y-87316666D01*
X119866666Y-87316666D01*
X119933333Y-87283333D01*
X119966666Y-87250000D01*
X120000000Y-87183333D01*
X120000000Y-87116666D01*
X119966666Y-87050000D01*
X119933333Y-87016666D01*
X119866666Y-86983333D01*
X119733333Y-86950000D01*
X119666666Y-86916666D01*
X119633333Y-86883333D01*
X119600000Y-86816666D01*
X119600000Y-86750000D01*
X119633333Y-86683333D01*
X119666666Y-86650000D01*
X119733333Y-86616666D01*
X119900000Y-86616666D01*
X120000000Y-86650000D01*
X120566666Y-87283333D02*
X120500000Y-87316666D01*
X120366666Y-87316666D01*
X120300000Y-87283333D01*
X120266666Y-87216666D01*
X120266666Y-86950000D01*
X120300000Y-86883333D01*
X120366666Y-86850000D01*
X120500000Y-86850000D01*
X120566666Y-86883333D01*
X120600000Y-86950000D01*
X120600000Y-87016666D01*
X120266666Y-87083333D01*
X120900000Y-86850000D02*
X120900000Y-87316666D01*
X120900000Y-86916666D02*
X120933333Y-86883333D01*
X121000000Y-86850000D01*
X121100000Y-86850000D01*
X121166666Y-86883333D01*
X121200000Y-86950000D01*
X121200000Y-87316666D01*
X121833333Y-87316666D02*
X121833333Y-86616666D01*
X121833333Y-87283333D02*
X121766666Y-87316666D01*
X121633333Y-87316666D01*
X121566666Y-87283333D01*
X121533333Y-87250000D01*
X121500000Y-87183333D01*
X121500000Y-86983333D01*
X121533333Y-86916666D01*
X121566666Y-86883333D01*
X121633333Y-86850000D01*
X121766666Y-86850000D01*
X121833333Y-86883333D01*
X122433333Y-87283333D02*
X122366666Y-87316666D01*
X122233333Y-87316666D01*
X122166666Y-87283333D01*
X122133333Y-87216666D01*
X122133333Y-86950000D01*
X122166666Y-86883333D01*
X122233333Y-86850000D01*
X122366666Y-86850000D01*
X122433333Y-86883333D01*
X122466666Y-86950000D01*
X122466666Y-87016666D01*
X122133333Y-87083333D01*
X122766666Y-87316666D02*
X122766666Y-86850000D01*
X122766666Y-86983333D02*
X122800000Y-86916666D01*
X122833333Y-86883333D01*
X122900000Y-86850000D01*
X122966666Y-86850000D01*
X123200000Y-87050000D02*
X123733333Y-87050000D01*
X124033333Y-86683333D02*
X124066666Y-86650000D01*
X124133333Y-86616666D01*
X124300000Y-86616666D01*
X124366666Y-86650000D01*
X124400000Y-86683333D01*
X124433333Y-86750000D01*
X124433333Y-86816666D01*
X124400000Y-86916666D01*
X124000000Y-87316666D01*
X124433333Y-87316666D01*
X124666666Y-86616666D02*
X124833333Y-87316666D01*
X124966666Y-86816666D01*
X125100000Y-87316666D01*
X125266666Y-86616666D01*
X125533333Y-87316666D02*
X125533333Y-86850000D01*
X125533333Y-86616666D02*
X125500000Y-86650000D01*
X125533333Y-86683333D01*
X125566666Y-86650000D01*
X125533333Y-86616666D01*
X125533333Y-86683333D01*
X125866666Y-87316666D02*
X125866666Y-86850000D01*
X125866666Y-86983333D02*
X125900000Y-86916666D01*
X125933333Y-86883333D01*
X126000000Y-86850000D01*
X126066666Y-86850000D01*
X126566666Y-87283333D02*
X126500000Y-87316666D01*
X126366666Y-87316666D01*
X126300000Y-87283333D01*
X126266666Y-87216666D01*
X126266666Y-86950000D01*
X126300000Y-86883333D01*
X126366666Y-86850000D01*
X126500000Y-86850000D01*
X126566666Y-86883333D01*
X126600000Y-86950000D01*
X126600000Y-87016666D01*
X126266666Y-87083333D01*
X133016666Y-76783333D02*
X133050000Y-76750000D01*
X133116666Y-76716666D01*
X133283333Y-76716666D01*
X133350000Y-76750000D01*
X133383333Y-76783333D01*
X133416666Y-76850000D01*
X133416666Y-76916666D01*
X133383333Y-77016666D01*
X132983333Y-77416666D01*
X133416666Y-77416666D01*
X134016666Y-76950000D02*
X134016666Y-77416666D01*
X133850000Y-76683333D02*
X133683333Y-77183333D01*
X134116666Y-77183333D01*
X134516666Y-76716666D02*
X134583333Y-76716666D01*
X134650000Y-76750000D01*
X134683333Y-76783333D01*
X134716666Y-76850000D01*
X134750000Y-76983333D01*
X134750000Y-77150000D01*
X134716666Y-77283333D01*
X134683333Y-77350000D01*
X134650000Y-77383333D01*
X134583333Y-77416666D01*
X134516666Y-77416666D01*
X134450000Y-77383333D01*
X134416666Y-77350000D01*
X134383333Y-77283333D01*
X134350000Y-77150000D01*
X134350000Y-76983333D01*
X134383333Y-76850000D01*
X134416666Y-76783333D01*
X134450000Y-76750000D01*
X134516666Y-76716666D01*
X135050000Y-77150000D02*
X135583333Y-77150000D01*
X136016666Y-77016666D02*
X135950000Y-76983333D01*
X135916666Y-76950000D01*
X135883333Y-76883333D01*
X135883333Y-76850000D01*
X135916666Y-76783333D01*
X135950000Y-76750000D01*
X136016666Y-76716666D01*
X136150000Y-76716666D01*
X136216666Y-76750000D01*
X136250000Y-76783333D01*
X136283333Y-76850000D01*
X136283333Y-76883333D01*
X136250000Y-76950000D01*
X136216666Y-76983333D01*
X136150000Y-77016666D01*
X136016666Y-77016666D01*
X135950000Y-77050000D01*
X135916666Y-77083333D01*
X135883333Y-77150000D01*
X135883333Y-77283333D01*
X135916666Y-77350000D01*
X135950000Y-77383333D01*
X136016666Y-77416666D01*
X136150000Y-77416666D01*
X136216666Y-77383333D01*
X136250000Y-77350000D01*
X136283333Y-77283333D01*
X136283333Y-77150000D01*
X136250000Y-77083333D01*
X136216666Y-77050000D01*
X136150000Y-77016666D01*
X136716666Y-76716666D02*
X136783333Y-76716666D01*
X136850000Y-76750000D01*
X136883333Y-76783333D01*
X136916666Y-76850000D01*
X136950000Y-76983333D01*
X136950000Y-77150000D01*
X136916666Y-77283333D01*
X136883333Y-77350000D01*
X136850000Y-77383333D01*
X136783333Y-77416666D01*
X136716666Y-77416666D01*
X136650000Y-77383333D01*
X136616666Y-77350000D01*
X136583333Y-77283333D01*
X136550000Y-77150000D01*
X136550000Y-76983333D01*
X136583333Y-76850000D01*
X136616666Y-76783333D01*
X136650000Y-76750000D01*
X136716666Y-76716666D01*
X137916666Y-76716666D02*
X138050000Y-76716666D01*
X138116666Y-76750000D01*
X138183333Y-76816666D01*
X138216666Y-76950000D01*
X138216666Y-77183333D01*
X138183333Y-77316666D01*
X138116666Y-77383333D01*
X138050000Y-77416666D01*
X137916666Y-77416666D01*
X137850000Y-77383333D01*
X137783333Y-77316666D01*
X137750000Y-77183333D01*
X137750000Y-76950000D01*
X137783333Y-76816666D01*
X137850000Y-76750000D01*
X137916666Y-76716666D01*
X138516666Y-77416666D02*
X138516666Y-76716666D01*
X138816666Y-77416666D02*
X138816666Y-77050000D01*
X138783333Y-76983333D01*
X138716666Y-76950000D01*
X138616666Y-76950000D01*
X138550000Y-76983333D01*
X138516666Y-77016666D01*
X139150000Y-77416666D02*
X139150000Y-76950000D01*
X139150000Y-77016666D02*
X139183333Y-76983333D01*
X139250000Y-76950000D01*
X139350000Y-76950000D01*
X139416666Y-76983333D01*
X139450000Y-77050000D01*
X139450000Y-77416666D01*
X139450000Y-77050000D02*
X139483333Y-76983333D01*
X139550000Y-76950000D01*
X139650000Y-76950000D01*
X139716666Y-76983333D01*
X139750000Y-77050000D01*
X139750000Y-77416666D01*
X133250000Y-77916666D02*
X133316666Y-77916666D01*
X133383333Y-77950000D01*
X133416666Y-77983333D01*
X133450000Y-78050000D01*
X133483333Y-78183333D01*
X133483333Y-78350000D01*
X133450000Y-78483333D01*
X133416666Y-78550000D01*
X133383333Y-78583333D01*
X133316666Y-78616666D01*
X133250000Y-78616666D01*
X133183333Y-78583333D01*
X133150000Y-78550000D01*
X133116666Y-78483333D01*
X133083333Y-78350000D01*
X133083333Y-78183333D01*
X133116666Y-78050000D01*
X133150000Y-77983333D01*
X133183333Y-77950000D01*
X133250000Y-77916666D01*
X133783333Y-78350000D02*
X134316666Y-78350000D01*
X135016666Y-78616666D02*
X134616666Y-78616666D01*
X134816666Y-78616666D02*
X134816666Y-77916666D01*
X134750000Y-78016666D01*
X134683333Y-78083333D01*
X134616666Y-78116666D01*
X135250000Y-77916666D02*
X135683333Y-77916666D01*
X135450000Y-78183333D01*
X135550000Y-78183333D01*
X135616666Y-78216666D01*
X135650000Y-78250000D01*
X135683333Y-78316666D01*
X135683333Y-78483333D01*
X135650000Y-78550000D01*
X135616666Y-78583333D01*
X135550000Y-78616666D01*
X135350000Y-78616666D01*
X135283333Y-78583333D01*
X135250000Y-78550000D01*
X136116666Y-77916666D02*
X136183333Y-77916666D01*
X136250000Y-77950000D01*
X136283333Y-77983333D01*
X136316666Y-78050000D01*
X136350000Y-78183333D01*
X136350000Y-78350000D01*
X136316666Y-78483333D01*
X136283333Y-78550000D01*
X136250000Y-78583333D01*
X136183333Y-78616666D01*
X136116666Y-78616666D01*
X136050000Y-78583333D01*
X136016666Y-78550000D01*
X135983333Y-78483333D01*
X135950000Y-78350000D01*
X135950000Y-78183333D01*
X135983333Y-78050000D01*
X136016666Y-77983333D01*
X136050000Y-77950000D01*
X136116666Y-77916666D01*
X137316666Y-77916666D02*
X137450000Y-77916666D01*
X137516666Y-77950000D01*
X137583333Y-78016666D01*
X137616666Y-78150000D01*
X137616666Y-78383333D01*
X137583333Y-78516666D01*
X137516666Y-78583333D01*
X137450000Y-78616666D01*
X137316666Y-78616666D01*
X137250000Y-78583333D01*
X137183333Y-78516666D01*
X137150000Y-78383333D01*
X137150000Y-78150000D01*
X137183333Y-78016666D01*
X137250000Y-77950000D01*
X137316666Y-77916666D01*
X137916666Y-78616666D02*
X137916666Y-77916666D01*
X138216666Y-78616666D02*
X138216666Y-78250000D01*
X138183333Y-78183333D01*
X138116666Y-78150000D01*
X138016666Y-78150000D01*
X137950000Y-78183333D01*
X137916666Y-78216666D01*
X138550000Y-78616666D02*
X138550000Y-78150000D01*
X138550000Y-78216666D02*
X138583333Y-78183333D01*
X138650000Y-78150000D01*
X138750000Y-78150000D01*
X138816666Y-78183333D01*
X138850000Y-78250000D01*
X138850000Y-78616666D01*
X138850000Y-78250000D02*
X138883333Y-78183333D01*
X138950000Y-78150000D01*
X139050000Y-78150000D01*
X139116666Y-78183333D01*
X139150000Y-78250000D01*
X139150000Y-78616666D01*
X133233333Y-79116666D02*
X133633333Y-79116666D01*
X133433333Y-79816666D02*
X133433333Y-79116666D01*
X134166666Y-79816666D02*
X134166666Y-79450000D01*
X134133333Y-79383333D01*
X134066666Y-79350000D01*
X133933333Y-79350000D01*
X133866666Y-79383333D01*
X134166666Y-79783333D02*
X134100000Y-79816666D01*
X133933333Y-79816666D01*
X133866666Y-79783333D01*
X133833333Y-79716666D01*
X133833333Y-79650000D01*
X133866666Y-79583333D01*
X133933333Y-79550000D01*
X134100000Y-79550000D01*
X134166666Y-79516666D01*
X134500000Y-79350000D02*
X134500000Y-79816666D01*
X134500000Y-79416666D02*
X134533333Y-79383333D01*
X134600000Y-79350000D01*
X134700000Y-79350000D01*
X134766666Y-79383333D01*
X134800000Y-79450000D01*
X134800000Y-79816666D01*
X135133333Y-79816666D02*
X135133333Y-79116666D01*
X135200000Y-79550000D02*
X135400000Y-79816666D01*
X135400000Y-79350000D02*
X135133333Y-79616666D01*
X136200000Y-79783333D02*
X136300000Y-79816666D01*
X136466666Y-79816666D01*
X136533333Y-79783333D01*
X136566666Y-79750000D01*
X136600000Y-79683333D01*
X136600000Y-79616666D01*
X136566666Y-79550000D01*
X136533333Y-79516666D01*
X136466666Y-79483333D01*
X136333333Y-79450000D01*
X136266666Y-79416666D01*
X136233333Y-79383333D01*
X136200000Y-79316666D01*
X136200000Y-79250000D01*
X136233333Y-79183333D01*
X136266666Y-79150000D01*
X136333333Y-79116666D01*
X136500000Y-79116666D01*
X136600000Y-79150000D01*
X137166666Y-79783333D02*
X137100000Y-79816666D01*
X136966666Y-79816666D01*
X136900000Y-79783333D01*
X136866666Y-79716666D01*
X136866666Y-79450000D01*
X136900000Y-79383333D01*
X136966666Y-79350000D01*
X137100000Y-79350000D01*
X137166666Y-79383333D01*
X137200000Y-79450000D01*
X137200000Y-79516666D01*
X136866666Y-79583333D01*
X137500000Y-79350000D02*
X137500000Y-79816666D01*
X137500000Y-79416666D02*
X137533333Y-79383333D01*
X137600000Y-79350000D01*
X137700000Y-79350000D01*
X137766666Y-79383333D01*
X137800000Y-79450000D01*
X137800000Y-79816666D01*
X138433333Y-79816666D02*
X138433333Y-79116666D01*
X138433333Y-79783333D02*
X138366666Y-79816666D01*
X138233333Y-79816666D01*
X138166666Y-79783333D01*
X138133333Y-79750000D01*
X138100000Y-79683333D01*
X138100000Y-79483333D01*
X138133333Y-79416666D01*
X138166666Y-79383333D01*
X138233333Y-79350000D01*
X138366666Y-79350000D01*
X138433333Y-79383333D01*
X139033333Y-79783333D02*
X138966666Y-79816666D01*
X138833333Y-79816666D01*
X138766666Y-79783333D01*
X138733333Y-79716666D01*
X138733333Y-79450000D01*
X138766666Y-79383333D01*
X138833333Y-79350000D01*
X138966666Y-79350000D01*
X139033333Y-79383333D01*
X139066666Y-79450000D01*
X139066666Y-79516666D01*
X138733333Y-79583333D01*
X139366666Y-79816666D02*
X139366666Y-79350000D01*
X139366666Y-79483333D02*
X139400000Y-79416666D01*
X139433333Y-79383333D01*
X139500000Y-79350000D01*
X139566666Y-79350000D01*
D11*
X119000000Y-76000000D02*
X119000000Y-91000000D01*
X140000000Y-76000000D02*
X119000000Y-76000000D01*
X140000000Y-91000000D02*
X140000000Y-76000000D01*
X119000000Y-91000000D02*
X140000000Y-91000000D01*
D12*
%TO.C,U101*%
X135520000Y-83760000D02*
X136450000Y-83760000D01*
X138680000Y-83760000D02*
X137750000Y-83760000D01*
X138680000Y-83760000D02*
X138680000Y-81600000D01*
X135520000Y-83760000D02*
X135520000Y-82300000D01*
%TO.C,R102*%
X133727064Y-82510000D02*
X132272936Y-82510000D01*
X133727064Y-80690000D02*
X132272936Y-80690000D01*
%TO.C,R101*%
X132290000Y-85727064D02*
X132290000Y-84272936D01*
X134110000Y-85727064D02*
X134110000Y-84272936D01*
%TO.C,J103*%
X126049845Y-79140353D02*
G75*
G03*
X126050000Y-80640000I1700155J-749647D01*
G01*
X126049845Y-82950353D02*
G75*
G03*
X126050000Y-84450000I1700155J-749647D01*
G01*
X119440000Y-86410000D02*
X126910000Y-86410000D01*
X126910000Y-86410000D02*
X126910000Y-77180000D01*
X126910000Y-77180000D02*
X119440000Y-77180000D01*
X119440000Y-77180000D02*
X119440000Y-86410000D01*
X126050000Y-84450000D02*
X126050000Y-85200000D01*
X126050000Y-85200000D02*
X121750000Y-85200000D01*
X121750000Y-85200000D02*
X121750000Y-84450000D01*
X121750000Y-84450000D02*
X121400000Y-84450000D01*
X121400000Y-84450000D02*
X121400000Y-84950000D01*
X121400000Y-84950000D02*
X120400000Y-85200000D01*
X120400000Y-85200000D02*
X120400000Y-82200000D01*
X120400000Y-82200000D02*
X121400000Y-82450000D01*
X121400000Y-82450000D02*
X121400000Y-82950000D01*
X121400000Y-82950000D02*
X121750000Y-82950000D01*
X121750000Y-82950000D02*
X121750000Y-82200000D01*
X121750000Y-82200000D02*
X126050000Y-82200000D01*
X126050000Y-82200000D02*
X126050000Y-82950000D01*
X126050000Y-80640000D02*
X126050000Y-81390000D01*
X126050000Y-81390000D02*
X121750000Y-81390000D01*
X121750000Y-81390000D02*
X121750000Y-80640000D01*
X121750000Y-80640000D02*
X121400000Y-80640000D01*
X121400000Y-80640000D02*
X121400000Y-81140000D01*
X121400000Y-81140000D02*
X120400000Y-81390000D01*
X120400000Y-81390000D02*
X120400000Y-78390000D01*
X120400000Y-78390000D02*
X121400000Y-78640000D01*
X121400000Y-78640000D02*
X121400000Y-79140000D01*
X121400000Y-79140000D02*
X121750000Y-79140000D01*
X121750000Y-79140000D02*
X121750000Y-78390000D01*
X121750000Y-78390000D02*
X126050000Y-78390000D01*
X126050000Y-78390000D02*
X126050000Y-79140000D01*
X120300000Y-86800000D02*
X119050000Y-86800000D01*
X119050000Y-86800000D02*
X119050000Y-84800000D01*
%TO.C,J102*%
X120490000Y-87870000D02*
X120490000Y-90530000D01*
X123090000Y-87870000D02*
X120490000Y-87870000D01*
X123090000Y-90530000D02*
X120490000Y-90530000D01*
X123090000Y-87870000D02*
X123090000Y-90530000D01*
X124360000Y-87870000D02*
X125690000Y-87870000D01*
X125690000Y-87870000D02*
X125690000Y-89200000D01*
%TO.C,J101*%
X128110000Y-87870000D02*
X128110000Y-90530000D01*
X135790000Y-87870000D02*
X128110000Y-87870000D01*
X135790000Y-90530000D02*
X128110000Y-90530000D01*
X135790000Y-87870000D02*
X135790000Y-90530000D01*
X137060000Y-87870000D02*
X138390000Y-87870000D01*
X138390000Y-87870000D02*
X138390000Y-89200000D01*
%TO.C,FB101*%
X130600378Y-77040000D02*
X131399622Y-77040000D01*
X130600378Y-78160000D02*
X131399622Y-78160000D01*
%TO.C,D101*%
X130500000Y-82450000D02*
X130500000Y-80750000D01*
X130500000Y-80750000D02*
X127950000Y-80750000D01*
X130500000Y-82450000D02*
X127950000Y-82450000D01*
%TO.C,C104*%
X128910000Y-78059420D02*
X128910000Y-78340580D01*
X127890000Y-78059420D02*
X127890000Y-78340580D01*
%TO.C,C103*%
X130307836Y-79560000D02*
X130092164Y-79560000D01*
X130307836Y-78840000D02*
X130092164Y-78840000D01*
%TO.C,C102*%
X128988748Y-85090000D02*
X130411252Y-85090000D01*
X128988748Y-86910000D02*
X130411252Y-86910000D01*
%TO.C,C101*%
X137411252Y-87010000D02*
X135988748Y-87010000D01*
X137411252Y-85190000D02*
X135988748Y-85190000D01*
%TD*%
M02*
