%TF.GenerationSoftware,KiCad,Pcbnew,(5.1.8-0-10_14)*%
%TF.CreationDate,2020-11-29T01:54:20+01:00*%
%TF.ProjectId,FT2232Proto,46543232-3332-4507-926f-746f2e6b6963,rev?*%
%TF.SameCoordinates,Original*%
%TF.FileFunction,Legend,Top*%
%TF.FilePolarity,Positive*%
%FSLAX46Y46*%
G04 Gerber Fmt 4.6, Leading zero omitted, Abs format (unit mm)*
G04 Created by KiCad (PCBNEW (5.1.8-0-10_14)) date 2020-11-29 01:54:20*
%MOMM*%
%LPD*%
G01*
G04 APERTURE LIST*
%ADD10C,0.120000*%
%ADD11C,0.160000*%
G04 APERTURE END LIST*
D10*
X110490000Y-80070000D02*
X110490000Y-97790000D01*
X107890000Y-80070000D02*
X107890000Y-97730000D01*
D11*
X105316666Y-80166666D02*
X105316666Y-79733333D01*
X105583333Y-79966666D01*
X105583333Y-79866666D01*
X105616666Y-79800000D01*
X105650000Y-79766666D01*
X105716666Y-79733333D01*
X105883333Y-79733333D01*
X105950000Y-79766666D01*
X105983333Y-79800000D01*
X106016666Y-79866666D01*
X106016666Y-80066666D01*
X105983333Y-80133333D01*
X105950000Y-80166666D01*
X105316666Y-79533333D02*
X106016666Y-79300000D01*
X105316666Y-79066666D01*
X105316666Y-78900000D02*
X105316666Y-78466666D01*
X105583333Y-78700000D01*
X105583333Y-78600000D01*
X105616666Y-78533333D01*
X105650000Y-78500000D01*
X105716666Y-78466666D01*
X105883333Y-78466666D01*
X105950000Y-78500000D01*
X105983333Y-78533333D01*
X106016666Y-78600000D01*
X106016666Y-78800000D01*
X105983333Y-78866666D01*
X105950000Y-78900000D01*
X105316666Y-99266666D02*
X105316666Y-98833333D01*
X105583333Y-99066666D01*
X105583333Y-98966666D01*
X105616666Y-98900000D01*
X105650000Y-98866666D01*
X105716666Y-98833333D01*
X105883333Y-98833333D01*
X105950000Y-98866666D01*
X105983333Y-98900000D01*
X106016666Y-98966666D01*
X106016666Y-99166666D01*
X105983333Y-99233333D01*
X105950000Y-99266666D01*
X105316666Y-98633333D02*
X106016666Y-98400000D01*
X105316666Y-98166666D01*
X105316666Y-98000000D02*
X105316666Y-97566666D01*
X105583333Y-97800000D01*
X105583333Y-97700000D01*
X105616666Y-97633333D01*
X105650000Y-97600000D01*
X105716666Y-97566666D01*
X105883333Y-97566666D01*
X105950000Y-97600000D01*
X105983333Y-97633333D01*
X106016666Y-97700000D01*
X106016666Y-97900000D01*
X105983333Y-97966666D01*
X105950000Y-98000000D01*
X107650000Y-99133333D02*
X107616666Y-99200000D01*
X107616666Y-99300000D01*
X107650000Y-99400000D01*
X107716666Y-99466666D01*
X107783333Y-99500000D01*
X107916666Y-99533333D01*
X108016666Y-99533333D01*
X108150000Y-99500000D01*
X108216666Y-99466666D01*
X108283333Y-99400000D01*
X108316666Y-99300000D01*
X108316666Y-99233333D01*
X108283333Y-99133333D01*
X108250000Y-99100000D01*
X108016666Y-99100000D01*
X108016666Y-99233333D01*
X108316666Y-98800000D02*
X107616666Y-98800000D01*
X108316666Y-98400000D01*
X107616666Y-98400000D01*
X108316666Y-98066666D02*
X107616666Y-98066666D01*
X107616666Y-97900000D01*
X107650000Y-97800000D01*
X107716666Y-97733333D01*
X107783333Y-97700000D01*
X107916666Y-97666666D01*
X108016666Y-97666666D01*
X108150000Y-97700000D01*
X108216666Y-97733333D01*
X108283333Y-97800000D01*
X108316666Y-97900000D01*
X108316666Y-98066666D01*
D10*
%TO.C,J103*%
X141030000Y-102930000D02*
X141030000Y-97730000D01*
X110490000Y-102930000D02*
X141030000Y-102930000D01*
X107890000Y-97730000D02*
X141030000Y-97730000D01*
X110490000Y-102930000D02*
X110490000Y-100330000D01*
X110490000Y-100330000D02*
X107890000Y-100330000D01*
X107890000Y-100330000D02*
X107890000Y-97730000D01*
X109220000Y-102930000D02*
X107890000Y-102930000D01*
X107890000Y-102930000D02*
X107890000Y-101600000D01*
%TO.C,J102*%
X141030000Y-80070000D02*
X141030000Y-74870000D01*
X110490000Y-80070000D02*
X141030000Y-80070000D01*
X107890000Y-74870000D02*
X141030000Y-74870000D01*
X110490000Y-80070000D02*
X110490000Y-77470000D01*
X110490000Y-77470000D02*
X107890000Y-77470000D01*
X107890000Y-77470000D02*
X107890000Y-74870000D01*
X109220000Y-80070000D02*
X107890000Y-80070000D01*
X107890000Y-80070000D02*
X107890000Y-78740000D01*
%TD*%
M02*
