M48
; DRILL file {KiCad (5.1.8-0-10_14)} date Sunday, November 29, 2020 at 01:54:25 AM
; FORMAT={-:-/ absolute / inch / decimal}
; #@! TF.CreationDate,2020-11-29T01:54:25+01:00
; #@! TF.GenerationSoftware,Kicad,Pcbnew,(5.1.8-0-10_14)
FMAT,2
INCH
T1C0.0394
%
G90
G05
T1
X5.4Y-3.698
X4.2Y-3.298
X4.8Y-3.398
X5.5Y-3.398
X4.5Y-3.298
X5.0Y-3.298
X5.3Y-3.398
X4.5Y-3.598
X4.9Y-3.598
X5.4Y-3.598
X4.5Y-3.798
X5.0Y-3.498
X4.7Y-3.698
X4.8Y-3.798
X5.5Y-3.798
X4.5Y-3.698
X4.8Y-3.498
X4.5Y-3.198
X4.7Y-3.398
X5.5Y-3.698
X4.6Y-3.498
X4.6Y-3.398
X4.3Y-3.398
X4.7Y-3.298
X4.8Y-3.698
X5.0Y-3.598
X4.8Y-3.598
X5.5Y-3.598
X4.3Y-3.298
X5.0Y-3.798
X5.2Y-3.198
X4.2Y-3.398
X5.3Y-3.498
X4.4Y-3.798
X4.9Y-3.798
X5.3Y-3.698
X5.4Y-3.498
X4.9Y-3.398
X4.3Y-3.0
X4.3Y-3.1
X4.4Y-3.0
X4.4Y-3.1
X4.5Y-3.0
X4.5Y-3.1
X4.6Y-3.0
X4.6Y-3.1
X4.7Y-3.0
X4.7Y-3.1
X4.8Y-3.0
X4.8Y-3.1
X4.9Y-3.0
X4.9Y-3.1
X5.0Y-3.0
X5.0Y-3.1
X5.1Y-3.0
X5.1Y-3.1
X5.2Y-3.0
X5.2Y-3.1
X5.3Y-3.0
X5.3Y-3.1
X5.4Y-3.0
X5.4Y-3.1
X5.5Y-3.0
X5.5Y-3.1
X5.2Y-3.698
X4.4Y-3.198
X4.9Y-3.298
X4.2Y-3.498
X4.9Y-3.698
X4.4Y-3.398
X5.1Y-3.398
X4.8Y-3.298
X5.5Y-3.298
X4.4Y-3.598
X4.7Y-3.598
X4.2Y-3.798
X5.0Y-3.698
X4.9Y-3.198
X4.3Y-3.798
X5.1Y-3.798
X4.7Y-3.198
X5.1Y-3.198
X5.5Y-3.498
X4.9Y-3.498
X5.3Y-3.198
X4.4Y-3.698
X4.3Y-3.498
X5.2Y-3.498
X4.2Y-3.198
X4.6Y-3.698
X5.1Y-3.698
X4.5Y-3.398
X5.0Y-3.398
X5.2Y-3.398
X5.3Y-3.298
X4.6Y-3.298
X4.3Y-3.698
X5.0Y-3.198
X5.3Y-3.598
X4.3Y-3.598
X5.1Y-3.598
X5.2Y-3.298
X4.2Y-3.698
X5.3Y-3.798
X4.5Y-3.498
X5.2Y-3.798
X4.2Y-3.598
X4.6Y-3.798
X4.6Y-3.198
X4.4Y-3.498
X4.3Y-3.198
X4.3Y-3.9
X4.3Y-4.0
X4.4Y-3.9
X4.4Y-4.0
X4.5Y-3.9
X4.5Y-4.0
X4.6Y-3.9
X4.6Y-4.0
X4.7Y-3.9
X4.7Y-4.0
X4.8Y-3.9
X4.8Y-4.0
X4.9Y-3.9
X4.9Y-4.0
X5.0Y-3.9
X5.0Y-4.0
X5.1Y-3.9
X5.1Y-4.0
X5.2Y-3.9
X5.2Y-4.0
X5.3Y-3.9
X5.3Y-4.0
X5.4Y-3.9
X5.4Y-4.0
X5.5Y-3.9
X5.5Y-4.0
X5.4Y-3.398
X4.4Y-3.298
X5.1Y-3.298
X5.5Y-3.198
X4.6Y-3.598
X5.2Y-3.598
X5.4Y-3.298
X4.8Y-3.198
X4.7Y-3.798
X5.4Y-3.798
X5.4Y-3.198
X5.1Y-3.498
X4.7Y-3.498
T0
M30
