%TF.GenerationSoftware,KiCad,Pcbnew,(5.1.8-0-10_14)*%
%TF.CreationDate,2020-11-29T01:54:20+01:00*%
%TF.ProjectId,FT2232Proto,46543232-3332-4507-926f-746f2e6b6963,rev?*%
%TF.SameCoordinates,Original*%
%TF.FileFunction,Soldermask,Top*%
%TF.FilePolarity,Negative*%
%FSLAX46Y46*%
G04 Gerber Fmt 4.6, Leading zero omitted, Abs format (unit mm)*
G04 Created by KiCad (PCBNEW (5.1.8-0-10_14)) date 2020-11-29 01:54:20*
%MOMM*%
%LPD*%
G01*
G04 APERTURE LIST*
%ADD10C,2.100000*%
%ADD11O,1.800000X1.800000*%
G04 APERTURE END LIST*
D10*
%TO.C,REF\u002A\u002A*%
X106680000Y-96470000D03*
%TD*%
%TO.C,REF\u002A\u002A*%
X106680000Y-93930000D03*
%TD*%
%TO.C,REF\u002A\u002A*%
X106680000Y-91390000D03*
%TD*%
%TO.C,REF\u002A\u002A*%
X106680000Y-88850000D03*
%TD*%
%TO.C,REF\u002A\u002A*%
X106680000Y-86310000D03*
%TD*%
%TO.C,REF\u002A\u002A*%
X106680000Y-83770000D03*
%TD*%
%TO.C,REF\u002A\u002A*%
X106680000Y-81230000D03*
%TD*%
%TO.C,REF\u002A\u002A*%
X137160000Y-96470000D03*
%TD*%
%TO.C,REF\u002A\u002A*%
X129540000Y-96470000D03*
%TD*%
%TO.C,REF\u002A\u002A*%
X139700000Y-96470000D03*
%TD*%
%TO.C,REF\u002A\u002A*%
X132080000Y-96470000D03*
%TD*%
%TO.C,REF\u002A\u002A*%
X124460000Y-96470000D03*
%TD*%
%TO.C,REF\u002A\u002A*%
X119380000Y-96470000D03*
%TD*%
%TO.C,REF\u002A\u002A*%
X109220000Y-96470000D03*
%TD*%
%TO.C,REF\u002A\u002A*%
X121920000Y-96470000D03*
%TD*%
%TO.C,REF\u002A\u002A*%
X111760000Y-96470000D03*
%TD*%
%TO.C,REF\u002A\u002A*%
X114300000Y-96470000D03*
%TD*%
%TO.C,REF\u002A\u002A*%
X134620000Y-96470000D03*
%TD*%
%TO.C,REF\u002A\u002A*%
X127000000Y-96470000D03*
%TD*%
%TO.C,REF\u002A\u002A*%
X116840000Y-96470000D03*
%TD*%
%TO.C,REF\u002A\u002A*%
X137160000Y-93930000D03*
%TD*%
%TO.C,REF\u002A\u002A*%
X129540000Y-93930000D03*
%TD*%
%TO.C,REF\u002A\u002A*%
X139700000Y-93930000D03*
%TD*%
%TO.C,REF\u002A\u002A*%
X132080000Y-93930000D03*
%TD*%
%TO.C,REF\u002A\u002A*%
X119380000Y-93930000D03*
%TD*%
%TO.C,REF\u002A\u002A*%
X124460000Y-93930000D03*
%TD*%
%TO.C,REF\u002A\u002A*%
X109220000Y-93930000D03*
%TD*%
%TO.C,REF\u002A\u002A*%
X121920000Y-93930000D03*
%TD*%
%TO.C,REF\u002A\u002A*%
X111760000Y-93930000D03*
%TD*%
%TO.C,REF\u002A\u002A*%
X114300000Y-93930000D03*
%TD*%
%TO.C,REF\u002A\u002A*%
X134620000Y-93930000D03*
%TD*%
%TO.C,REF\u002A\u002A*%
X127000000Y-93930000D03*
%TD*%
%TO.C,REF\u002A\u002A*%
X116840000Y-93930000D03*
%TD*%
%TO.C,REF\u002A\u002A*%
X137160000Y-91390000D03*
%TD*%
%TO.C,REF\u002A\u002A*%
X129540000Y-91390000D03*
%TD*%
%TO.C,REF\u002A\u002A*%
X139700000Y-91390000D03*
%TD*%
%TO.C,REF\u002A\u002A*%
X132080000Y-91390000D03*
%TD*%
%TO.C,REF\u002A\u002A*%
X119380000Y-91390000D03*
%TD*%
%TO.C,REF\u002A\u002A*%
X124460000Y-91390000D03*
%TD*%
%TO.C,REF\u002A\u002A*%
X109220000Y-91390000D03*
%TD*%
%TO.C,REF\u002A\u002A*%
X121920000Y-91390000D03*
%TD*%
%TO.C,REF\u002A\u002A*%
X111760000Y-91390000D03*
%TD*%
%TO.C,REF\u002A\u002A*%
X114300000Y-91390000D03*
%TD*%
%TO.C,REF\u002A\u002A*%
X134620000Y-91390000D03*
%TD*%
%TO.C,REF\u002A\u002A*%
X127000000Y-91390000D03*
%TD*%
%TO.C,REF\u002A\u002A*%
X116840000Y-91390000D03*
%TD*%
%TO.C,REF\u002A\u002A*%
X132080000Y-88850000D03*
%TD*%
%TO.C,REF\u002A\u002A*%
X109220000Y-88850000D03*
%TD*%
%TO.C,REF\u002A\u002A*%
X137160000Y-88850000D03*
%TD*%
%TO.C,REF\u002A\u002A*%
X129540000Y-88850000D03*
%TD*%
%TO.C,REF\u002A\u002A*%
X139700000Y-88850000D03*
%TD*%
%TO.C,REF\u002A\u002A*%
X127000000Y-88850000D03*
%TD*%
%TO.C,REF\u002A\u002A*%
X116840000Y-88850000D03*
%TD*%
%TO.C,REF\u002A\u002A*%
X111760000Y-88850000D03*
%TD*%
%TO.C,REF\u002A\u002A*%
X121920000Y-88850000D03*
%TD*%
%TO.C,REF\u002A\u002A*%
X114300000Y-88850000D03*
%TD*%
%TO.C,REF\u002A\u002A*%
X134620000Y-88850000D03*
%TD*%
%TO.C,REF\u002A\u002A*%
X119380000Y-88850000D03*
%TD*%
%TO.C,REF\u002A\u002A*%
X124460000Y-88850000D03*
%TD*%
%TO.C,REF\u002A\u002A*%
X132080000Y-86310000D03*
%TD*%
%TO.C,REF\u002A\u002A*%
X109220000Y-86310000D03*
%TD*%
%TO.C,REF\u002A\u002A*%
X137160000Y-86310000D03*
%TD*%
%TO.C,REF\u002A\u002A*%
X129540000Y-86310000D03*
%TD*%
%TO.C,REF\u002A\u002A*%
X139700000Y-86310000D03*
%TD*%
%TO.C,REF\u002A\u002A*%
X127000000Y-86310000D03*
%TD*%
%TO.C,REF\u002A\u002A*%
X116840000Y-86310000D03*
%TD*%
%TO.C,REF\u002A\u002A*%
X111760000Y-86310000D03*
%TD*%
%TO.C,REF\u002A\u002A*%
X121920000Y-86310000D03*
%TD*%
%TO.C,REF\u002A\u002A*%
X114300000Y-86310000D03*
%TD*%
%TO.C,REF\u002A\u002A*%
X134620000Y-86310000D03*
%TD*%
%TO.C,REF\u002A\u002A*%
X119380000Y-86310000D03*
%TD*%
%TO.C,REF\u002A\u002A*%
X124460000Y-86310000D03*
%TD*%
%TO.C,REF\u002A\u002A*%
X129540000Y-83770000D03*
%TD*%
%TO.C,REF\u002A\u002A*%
X139700000Y-83770000D03*
%TD*%
%TO.C,REF\u002A\u002A*%
X127000000Y-83770000D03*
%TD*%
%TO.C,REF\u002A\u002A*%
X116840000Y-83770000D03*
%TD*%
%TO.C,REF\u002A\u002A*%
X111760000Y-83770000D03*
%TD*%
%TO.C,REF\u002A\u002A*%
X121920000Y-83770000D03*
%TD*%
%TO.C,REF\u002A\u002A*%
X114300000Y-83770000D03*
%TD*%
%TO.C,REF\u002A\u002A*%
X134620000Y-83770000D03*
%TD*%
%TO.C,REF\u002A\u002A*%
X119380000Y-83770000D03*
%TD*%
%TO.C,REF\u002A\u002A*%
X124460000Y-83770000D03*
%TD*%
%TO.C,REF\u002A\u002A*%
X132080000Y-83770000D03*
%TD*%
%TO.C,REF\u002A\u002A*%
X109220000Y-83770000D03*
%TD*%
%TO.C,REF\u002A\u002A*%
X137160000Y-83770000D03*
%TD*%
%TO.C,REF\u002A\u002A*%
X139700000Y-81230000D03*
%TD*%
%TO.C,REF\u002A\u002A*%
X137160000Y-81230000D03*
%TD*%
%TO.C,REF\u002A\u002A*%
X134620000Y-81230000D03*
%TD*%
%TO.C,REF\u002A\u002A*%
X132080000Y-81230000D03*
%TD*%
%TO.C,REF\u002A\u002A*%
X129540000Y-81230000D03*
%TD*%
%TO.C,REF\u002A\u002A*%
X127000000Y-81230000D03*
%TD*%
%TO.C,REF\u002A\u002A*%
X124460000Y-81230000D03*
%TD*%
%TO.C,REF\u002A\u002A*%
X121920000Y-81230000D03*
%TD*%
%TO.C,REF\u002A\u002A*%
X119380000Y-81230000D03*
%TD*%
%TO.C,REF\u002A\u002A*%
X116840000Y-81230000D03*
%TD*%
%TO.C,REF\u002A\u002A*%
X114300000Y-81230000D03*
%TD*%
%TO.C,REF\u002A\u002A*%
X111760000Y-81230000D03*
%TD*%
%TO.C,REF\u002A\u002A*%
X109220000Y-81230000D03*
%TD*%
D11*
%TO.C,J103*%
X139700000Y-99060000D03*
X139700000Y-101600000D03*
X137160000Y-99060000D03*
X137160000Y-101600000D03*
X134620000Y-99060000D03*
X134620000Y-101600000D03*
X132080000Y-99060000D03*
X132080000Y-101600000D03*
X129540000Y-99060000D03*
X129540000Y-101600000D03*
X127000000Y-99060000D03*
X127000000Y-101600000D03*
X124460000Y-99060000D03*
X124460000Y-101600000D03*
X121920000Y-99060000D03*
X121920000Y-101600000D03*
X119380000Y-99060000D03*
X119380000Y-101600000D03*
X116840000Y-99060000D03*
X116840000Y-101600000D03*
X114300000Y-99060000D03*
X114300000Y-101600000D03*
X111760000Y-99060000D03*
X111760000Y-101600000D03*
X109220000Y-99060000D03*
G36*
G01*
X110070000Y-102500000D02*
X108370000Y-102500000D01*
G75*
G02*
X108320000Y-102450000I0J50000D01*
G01*
X108320000Y-100750000D01*
G75*
G02*
X108370000Y-100700000I50000J0D01*
G01*
X110070000Y-100700000D01*
G75*
G02*
X110120000Y-100750000I0J-50000D01*
G01*
X110120000Y-102450000D01*
G75*
G02*
X110070000Y-102500000I-50000J0D01*
G01*
G37*
%TD*%
%TO.C,J102*%
X139700000Y-76200000D03*
X139700000Y-78740000D03*
X137160000Y-76200000D03*
X137160000Y-78740000D03*
X134620000Y-76200000D03*
X134620000Y-78740000D03*
X132080000Y-76200000D03*
X132080000Y-78740000D03*
X129540000Y-76200000D03*
X129540000Y-78740000D03*
X127000000Y-76200000D03*
X127000000Y-78740000D03*
X124460000Y-76200000D03*
X124460000Y-78740000D03*
X121920000Y-76200000D03*
X121920000Y-78740000D03*
X119380000Y-76200000D03*
X119380000Y-78740000D03*
X116840000Y-76200000D03*
X116840000Y-78740000D03*
X114300000Y-76200000D03*
X114300000Y-78740000D03*
X111760000Y-76200000D03*
X111760000Y-78740000D03*
X109220000Y-76200000D03*
G36*
G01*
X110070000Y-79640000D02*
X108370000Y-79640000D01*
G75*
G02*
X108320000Y-79590000I0J50000D01*
G01*
X108320000Y-77890000D01*
G75*
G02*
X108370000Y-77840000I50000J0D01*
G01*
X110070000Y-77840000D01*
G75*
G02*
X110120000Y-77890000I0J-50000D01*
G01*
X110120000Y-79590000D01*
G75*
G02*
X110070000Y-79640000I-50000J0D01*
G01*
G37*
%TD*%
M02*
