%TF.GenerationSoftware,KiCad,Pcbnew,(5.1.8-0-10_14)*%
%TF.CreationDate,2020-11-29T00:29:28+01:00*%
%TF.ProjectId,FET_Driver,4645545f-4472-4697-9665-722e6b696361,rev?*%
%TF.SameCoordinates,Original*%
%TF.FileFunction,Soldermask,Top*%
%TF.FilePolarity,Negative*%
%FSLAX46Y46*%
G04 Gerber Fmt 4.6, Leading zero omitted, Abs format (unit mm)*
G04 Created by KiCad (PCBNEW (5.1.8-0-10_14)) date 2020-11-29 00:29:28*
%MOMM*%
%LPD*%
G01*
G04 APERTURE LIST*
%TA.AperFunction,Profile*%
%ADD10C,0.050000*%
%TD*%
%ADD11O,3.600000X1.800000*%
%ADD12R,10.800000X9.400000*%
%ADD13R,1.100000X4.600000*%
%ADD14O,1.700000X1.700000*%
%ADD15R,1.700000X1.700000*%
%ADD16R,1.100000X1.100000*%
G04 APERTURE END LIST*
D10*
X120000000Y-88000000D02*
X110000000Y-88000000D01*
X120000000Y-93000000D02*
X120000000Y-88000000D01*
X110000000Y-68000000D02*
X110000000Y-88000000D01*
X140000000Y-68000000D02*
X110000000Y-68000000D01*
X140000000Y-93000000D02*
X140000000Y-68000000D01*
X120000000Y-93000000D02*
X140000000Y-93000000D01*
D11*
%TO.C,J102*%
X113500000Y-84720000D03*
X113500000Y-80910000D03*
X113500000Y-77100000D03*
G36*
G01*
X111950000Y-72390000D02*
X115050000Y-72390000D01*
G75*
G02*
X115300000Y-72640000I0J-250000D01*
G01*
X115300000Y-73940000D01*
G75*
G02*
X115050000Y-74190000I-250000J0D01*
G01*
X111950000Y-74190000D01*
G75*
G02*
X111700000Y-73940000I0J250000D01*
G01*
X111700000Y-72640000D01*
G75*
G02*
X111950000Y-72390000I250000J0D01*
G01*
G37*
%TD*%
D12*
%TO.C,Q101*%
X124550000Y-80825000D03*
D13*
X122010000Y-71675000D03*
X127090000Y-71675000D03*
%TD*%
%TO.C,R103*%
G36*
G01*
X134165000Y-86035000D02*
X134715000Y-86035000D01*
G75*
G02*
X134915000Y-86235000I0J-200000D01*
G01*
X134915000Y-86635000D01*
G75*
G02*
X134715000Y-86835000I-200000J0D01*
G01*
X134165000Y-86835000D01*
G75*
G02*
X133965000Y-86635000I0J200000D01*
G01*
X133965000Y-86235000D01*
G75*
G02*
X134165000Y-86035000I200000J0D01*
G01*
G37*
G36*
G01*
X134165000Y-84385000D02*
X134715000Y-84385000D01*
G75*
G02*
X134915000Y-84585000I0J-200000D01*
G01*
X134915000Y-84985000D01*
G75*
G02*
X134715000Y-85185000I-200000J0D01*
G01*
X134165000Y-85185000D01*
G75*
G02*
X133965000Y-84985000I0J200000D01*
G01*
X133965000Y-84585000D01*
G75*
G02*
X134165000Y-84385000I200000J0D01*
G01*
G37*
%TD*%
D14*
%TO.C,J101*%
X122760000Y-88950000D03*
X125300000Y-88950000D03*
X127840000Y-88950000D03*
X130380000Y-88950000D03*
X132920000Y-88950000D03*
X135460000Y-88950000D03*
D15*
X138000000Y-88950000D03*
%TD*%
%TO.C,D102*%
G36*
G01*
X136380000Y-86113750D02*
X136380000Y-86626250D01*
G75*
G02*
X136161250Y-86845000I-218750J0D01*
G01*
X135723750Y-86845000D01*
G75*
G02*
X135505000Y-86626250I0J218750D01*
G01*
X135505000Y-86113750D01*
G75*
G02*
X135723750Y-85895000I218750J0D01*
G01*
X136161250Y-85895000D01*
G75*
G02*
X136380000Y-86113750I0J-218750D01*
G01*
G37*
G36*
G01*
X137955000Y-86113750D02*
X137955000Y-86626250D01*
G75*
G02*
X137736250Y-86845000I-218750J0D01*
G01*
X137298750Y-86845000D01*
G75*
G02*
X137080000Y-86626250I0J218750D01*
G01*
X137080000Y-86113750D01*
G75*
G02*
X137298750Y-85895000I218750J0D01*
G01*
X137736250Y-85895000D01*
G75*
G02*
X137955000Y-86113750I0J-218750D01*
G01*
G37*
%TD*%
%TO.C,U101*%
G36*
G01*
X136415000Y-78915000D02*
X136115000Y-78915000D01*
G75*
G02*
X135965000Y-78765000I0J150000D01*
G01*
X135965000Y-77440000D01*
G75*
G02*
X136115000Y-77290000I150000J0D01*
G01*
X136415000Y-77290000D01*
G75*
G02*
X136565000Y-77440000I0J-150000D01*
G01*
X136565000Y-78765000D01*
G75*
G02*
X136415000Y-78915000I-150000J0D01*
G01*
G37*
G36*
G01*
X137685000Y-78915000D02*
X137385000Y-78915000D01*
G75*
G02*
X137235000Y-78765000I0J150000D01*
G01*
X137235000Y-77440000D01*
G75*
G02*
X137385000Y-77290000I150000J0D01*
G01*
X137685000Y-77290000D01*
G75*
G02*
X137835000Y-77440000I0J-150000D01*
G01*
X137835000Y-78765000D01*
G75*
G02*
X137685000Y-78915000I-150000J0D01*
G01*
G37*
G36*
G01*
X137685000Y-85290000D02*
X137385000Y-85290000D01*
G75*
G02*
X137235000Y-85140000I0J150000D01*
G01*
X137235000Y-83815000D01*
G75*
G02*
X137385000Y-83665000I150000J0D01*
G01*
X137685000Y-83665000D01*
G75*
G02*
X137835000Y-83815000I0J-150000D01*
G01*
X137835000Y-85140000D01*
G75*
G02*
X137685000Y-85290000I-150000J0D01*
G01*
G37*
G36*
G01*
X136415000Y-85290000D02*
X136115000Y-85290000D01*
G75*
G02*
X135965000Y-85140000I0J150000D01*
G01*
X135965000Y-83815000D01*
G75*
G02*
X136115000Y-83665000I150000J0D01*
G01*
X136415000Y-83665000D01*
G75*
G02*
X136565000Y-83815000I0J-150000D01*
G01*
X136565000Y-85140000D01*
G75*
G02*
X136415000Y-85290000I-150000J0D01*
G01*
G37*
%TD*%
%TO.C,R901*%
G36*
G01*
X134165000Y-83025000D02*
X134715000Y-83025000D01*
G75*
G02*
X134915000Y-83225000I0J-200000D01*
G01*
X134915000Y-83625000D01*
G75*
G02*
X134715000Y-83825000I-200000J0D01*
G01*
X134165000Y-83825000D01*
G75*
G02*
X133965000Y-83625000I0J200000D01*
G01*
X133965000Y-83225000D01*
G75*
G02*
X134165000Y-83025000I200000J0D01*
G01*
G37*
G36*
G01*
X134165000Y-81375000D02*
X134715000Y-81375000D01*
G75*
G02*
X134915000Y-81575000I0J-200000D01*
G01*
X134915000Y-81975000D01*
G75*
G02*
X134715000Y-82175000I-200000J0D01*
G01*
X134165000Y-82175000D01*
G75*
G02*
X133965000Y-81975000I0J200000D01*
G01*
X133965000Y-81575000D01*
G75*
G02*
X134165000Y-81375000I200000J0D01*
G01*
G37*
%TD*%
%TO.C,R101*%
G36*
G01*
X137425000Y-75725000D02*
X137975000Y-75725000D01*
G75*
G02*
X138175000Y-75925000I0J-200000D01*
G01*
X138175000Y-76325000D01*
G75*
G02*
X137975000Y-76525000I-200000J0D01*
G01*
X137425000Y-76525000D01*
G75*
G02*
X137225000Y-76325000I0J200000D01*
G01*
X137225000Y-75925000D01*
G75*
G02*
X137425000Y-75725000I200000J0D01*
G01*
G37*
G36*
G01*
X137425000Y-74075000D02*
X137975000Y-74075000D01*
G75*
G02*
X138175000Y-74275000I0J-200000D01*
G01*
X138175000Y-74675000D01*
G75*
G02*
X137975000Y-74875000I-200000J0D01*
G01*
X137425000Y-74875000D01*
G75*
G02*
X137225000Y-74675000I0J200000D01*
G01*
X137225000Y-74275000D01*
G75*
G02*
X137425000Y-74075000I200000J0D01*
G01*
G37*
%TD*%
%TO.C,R102*%
G36*
G01*
X135855000Y-75725000D02*
X136405000Y-75725000D01*
G75*
G02*
X136605000Y-75925000I0J-200000D01*
G01*
X136605000Y-76325000D01*
G75*
G02*
X136405000Y-76525000I-200000J0D01*
G01*
X135855000Y-76525000D01*
G75*
G02*
X135655000Y-76325000I0J200000D01*
G01*
X135655000Y-75925000D01*
G75*
G02*
X135855000Y-75725000I200000J0D01*
G01*
G37*
G36*
G01*
X135855000Y-74075000D02*
X136405000Y-74075000D01*
G75*
G02*
X136605000Y-74275000I0J-200000D01*
G01*
X136605000Y-74675000D01*
G75*
G02*
X136405000Y-74875000I-200000J0D01*
G01*
X135855000Y-74875000D01*
G75*
G02*
X135655000Y-74675000I0J200000D01*
G01*
X135655000Y-74275000D01*
G75*
G02*
X135855000Y-74075000I200000J0D01*
G01*
G37*
%TD*%
D16*
%TO.C,D101*%
X131400000Y-76700000D03*
X131400000Y-79500000D03*
%TD*%
M02*
