%TF.GenerationSoftware,KiCad,Pcbnew,(5.1.8-0-10_14)*%
%TF.CreationDate,2020-11-29T00:29:28+01:00*%
%TF.ProjectId,FET_Driver,4645545f-4472-4697-9665-722e6b696361,rev?*%
%TF.SameCoordinates,Original*%
%TF.FileFunction,Copper,L2,Bot*%
%TF.FilePolarity,Positive*%
%FSLAX46Y46*%
G04 Gerber Fmt 4.6, Leading zero omitted, Abs format (unit mm)*
G04 Created by KiCad (PCBNEW (5.1.8-0-10_14)) date 2020-11-29 00:29:28*
%MOMM*%
%LPD*%
G01*
G04 APERTURE LIST*
%TA.AperFunction,Profile*%
%ADD10C,0.050000*%
%TD*%
%TA.AperFunction,ComponentPad*%
%ADD11O,3.600000X1.800000*%
%TD*%
%TA.AperFunction,ComponentPad*%
%ADD12O,1.700000X1.700000*%
%TD*%
%TA.AperFunction,ComponentPad*%
%ADD13R,1.700000X1.700000*%
%TD*%
%TA.AperFunction,ViaPad*%
%ADD14C,0.800000*%
%TD*%
%TA.AperFunction,Conductor*%
%ADD15C,1.000000*%
%TD*%
%TA.AperFunction,Conductor*%
%ADD16C,0.254000*%
%TD*%
%TA.AperFunction,Conductor*%
%ADD17C,0.100000*%
%TD*%
G04 APERTURE END LIST*
D10*
X120000000Y-88000000D02*
X110000000Y-88000000D01*
X120000000Y-93000000D02*
X120000000Y-88000000D01*
X110000000Y-68000000D02*
X110000000Y-88000000D01*
X140000000Y-68000000D02*
X110000000Y-68000000D01*
X140000000Y-93000000D02*
X140000000Y-68000000D01*
X120000000Y-93000000D02*
X140000000Y-93000000D01*
D11*
%TO.P,J102,4*%
%TO.N,/ISO_GND*%
X113500000Y-84720000D03*
%TO.P,J102,3*%
X113500000Y-80910000D03*
%TO.P,J102,2*%
%TO.N,/ISO_OUT*%
X113500000Y-77100000D03*
%TO.P,J102,1*%
%TO.N,/ISO_VIN*%
%TA.AperFunction,ComponentPad*%
G36*
G01*
X111950000Y-72390000D02*
X115050000Y-72390000D01*
G75*
G02*
X115300000Y-72640000I0J-250000D01*
G01*
X115300000Y-73940000D01*
G75*
G02*
X115050000Y-74190000I-250000J0D01*
G01*
X111950000Y-74190000D01*
G75*
G02*
X111700000Y-73940000I0J250000D01*
G01*
X111700000Y-72640000D01*
G75*
G02*
X111950000Y-72390000I250000J0D01*
G01*
G37*
%TD.AperFunction*%
%TD*%
D12*
%TO.P,J101,7*%
%TO.N,GND*%
X122760000Y-88950000D03*
%TO.P,J101,6*%
%TO.N,N/C*%
X125300000Y-88950000D03*
%TO.P,J101,5*%
X127840000Y-88950000D03*
%TO.P,J101,4*%
X130380000Y-88950000D03*
%TO.P,J101,3*%
%TO.N,/GPIO*%
X132920000Y-88950000D03*
%TO.P,J101,2*%
%TO.N,GND*%
X135460000Y-88950000D03*
D13*
%TO.P,J101,1*%
%TO.N,N/C*%
X138000000Y-88950000D03*
%TD*%
D14*
%TO.N,GND*%
X139200000Y-81900000D03*
X136000000Y-81700000D03*
X139300000Y-86700000D03*
X139200000Y-92300000D03*
X121500000Y-92300000D03*
X121400000Y-87700000D03*
X127800000Y-92300000D03*
X132800000Y-92300000D03*
%TO.N,/ISO_GND*%
X138300000Y-78100000D03*
X132100000Y-78100000D03*
%TO.N,/ISO_OUT*%
X124600000Y-78400000D03*
X121600000Y-78300000D03*
X126200000Y-81300000D03*
X126300000Y-79300000D03*
X122900000Y-79300000D03*
X120300000Y-79300000D03*
X120400000Y-77500000D03*
X123000000Y-77500000D03*
X126300000Y-77600000D03*
X127900000Y-78800000D03*
X127800000Y-82100000D03*
X111300000Y-76100000D03*
X111300000Y-78400000D03*
X116500000Y-76000000D03*
X116400000Y-78400000D03*
X127800000Y-75900000D03*
X125100000Y-75800000D03*
X121300000Y-75800000D03*
X118700000Y-75800000D03*
%TO.N,/ISO_VIN*%
X121200000Y-73600000D03*
X121200000Y-71800000D03*
X121300000Y-69700000D03*
X119900000Y-70600000D03*
X119900000Y-72600000D03*
X112000000Y-71500000D03*
X113700000Y-71600000D03*
X115300000Y-71600000D03*
X111200000Y-74300000D03*
X116400000Y-73300000D03*
X122900000Y-69700000D03*
X122900000Y-73600000D03*
X122900000Y-71700000D03*
%TD*%
D15*
%TO.N,/ISO_GND*%
X113620000Y-80910000D02*
X113620000Y-82020000D01*
X115300000Y-83700000D02*
X128800000Y-83700000D01*
X128800000Y-83700000D02*
X129900000Y-82600000D01*
X129900000Y-82600000D02*
X129900000Y-79200000D01*
X129900000Y-79200000D02*
X131000000Y-78100000D01*
X132100000Y-78100000D02*
X138300000Y-78100000D01*
X131000000Y-78100000D02*
X132100000Y-78100000D01*
X113500000Y-80910000D02*
X113500000Y-84720000D01*
X113500000Y-84720000D02*
X113500000Y-84500000D01*
X114800000Y-83200000D02*
X115300000Y-83700000D01*
X113620000Y-82020000D02*
X114800000Y-83200000D01*
X113620000Y-82820000D02*
X114400000Y-83600000D01*
X114400000Y-83600000D02*
X114800000Y-83200000D01*
X113620000Y-82020000D02*
X113620000Y-82820000D01*
X113500000Y-84500000D02*
X114400000Y-83600000D01*
X114280000Y-84720000D02*
X115300000Y-83700000D01*
X113500000Y-84720000D02*
X114280000Y-84720000D01*
%TD*%
D16*
%TO.N,/ISO_OUT*%
X128173000Y-82473000D02*
X119083447Y-82473000D01*
X117516568Y-78849592D01*
X117504494Y-78827820D01*
X117488404Y-78808821D01*
X117468918Y-78793326D01*
X117446782Y-78781930D01*
X117422849Y-78775072D01*
X117400000Y-78773000D01*
X110913097Y-78773000D01*
X110913097Y-75527000D01*
X128173000Y-75527000D01*
X128173000Y-82473000D01*
%TA.AperFunction,Conductor*%
D17*
G36*
X128173000Y-82473000D02*
G01*
X119083447Y-82473000D01*
X117516568Y-78849592D01*
X117504494Y-78827820D01*
X117488404Y-78808821D01*
X117468918Y-78793326D01*
X117446782Y-78781930D01*
X117422849Y-78775072D01*
X117400000Y-78773000D01*
X110913097Y-78773000D01*
X110913097Y-75527000D01*
X128173000Y-75527000D01*
X128173000Y-82473000D01*
G37*
%TD.AperFunction*%
%TD*%
D16*
%TO.N,/ISO_VIN*%
X123473000Y-74573000D02*
X110927000Y-74573000D01*
X110927000Y-68927000D01*
X123473000Y-68927000D01*
X123473000Y-74573000D01*
%TA.AperFunction,Conductor*%
D17*
G36*
X123473000Y-74573000D02*
G01*
X110927000Y-74573000D01*
X110927000Y-68927000D01*
X123473000Y-68927000D01*
X123473000Y-74573000D01*
G37*
%TD.AperFunction*%
%TD*%
D16*
%TO.N,GND*%
X139340000Y-87696112D02*
X139301185Y-87648815D01*
X139204494Y-87569463D01*
X139094180Y-87510498D01*
X138974482Y-87474188D01*
X138850000Y-87461928D01*
X137150000Y-87461928D01*
X137025518Y-87474188D01*
X136905820Y-87510498D01*
X136795506Y-87569463D01*
X136698815Y-87648815D01*
X136619463Y-87745506D01*
X136560498Y-87855820D01*
X136524188Y-87975518D01*
X136511928Y-88100000D01*
X136511928Y-89800000D01*
X136524188Y-89924482D01*
X136560498Y-90044180D01*
X136619463Y-90154494D01*
X136698815Y-90251185D01*
X136795506Y-90330537D01*
X136905820Y-90389502D01*
X137025518Y-90425812D01*
X137150000Y-90438072D01*
X138850000Y-90438072D01*
X138974482Y-90425812D01*
X139094180Y-90389502D01*
X139204494Y-90330537D01*
X139301185Y-90251185D01*
X139340000Y-90203888D01*
X139340000Y-92340000D01*
X120827000Y-92340000D01*
X120827000Y-88803740D01*
X123815000Y-88803740D01*
X123815000Y-89096260D01*
X123872068Y-89383158D01*
X123984010Y-89653411D01*
X124146525Y-89896632D01*
X124353368Y-90103475D01*
X124596589Y-90265990D01*
X124866842Y-90377932D01*
X125153740Y-90435000D01*
X125446260Y-90435000D01*
X125733158Y-90377932D01*
X126003411Y-90265990D01*
X126246632Y-90103475D01*
X126453475Y-89896632D01*
X126570000Y-89722240D01*
X126686525Y-89896632D01*
X126893368Y-90103475D01*
X127136589Y-90265990D01*
X127406842Y-90377932D01*
X127693740Y-90435000D01*
X127986260Y-90435000D01*
X128273158Y-90377932D01*
X128543411Y-90265990D01*
X128786632Y-90103475D01*
X128993475Y-89896632D01*
X129110000Y-89722240D01*
X129226525Y-89896632D01*
X129433368Y-90103475D01*
X129676589Y-90265990D01*
X129946842Y-90377932D01*
X130233740Y-90435000D01*
X130526260Y-90435000D01*
X130813158Y-90377932D01*
X131083411Y-90265990D01*
X131326632Y-90103475D01*
X131533475Y-89896632D01*
X131650000Y-89722240D01*
X131766525Y-89896632D01*
X131973368Y-90103475D01*
X132216589Y-90265990D01*
X132486842Y-90377932D01*
X132773740Y-90435000D01*
X133066260Y-90435000D01*
X133353158Y-90377932D01*
X133623411Y-90265990D01*
X133866632Y-90103475D01*
X134073475Y-89896632D01*
X134235990Y-89653411D01*
X134347932Y-89383158D01*
X134405000Y-89096260D01*
X134405000Y-88803740D01*
X134347932Y-88516842D01*
X134235990Y-88246589D01*
X134073475Y-88003368D01*
X133866632Y-87796525D01*
X133623411Y-87634010D01*
X133353158Y-87522068D01*
X133066260Y-87465000D01*
X132773740Y-87465000D01*
X132486842Y-87522068D01*
X132216589Y-87634010D01*
X131973368Y-87796525D01*
X131766525Y-88003368D01*
X131650000Y-88177760D01*
X131533475Y-88003368D01*
X131326632Y-87796525D01*
X131083411Y-87634010D01*
X130813158Y-87522068D01*
X130526260Y-87465000D01*
X130233740Y-87465000D01*
X129946842Y-87522068D01*
X129676589Y-87634010D01*
X129433368Y-87796525D01*
X129226525Y-88003368D01*
X129110000Y-88177760D01*
X128993475Y-88003368D01*
X128786632Y-87796525D01*
X128543411Y-87634010D01*
X128273158Y-87522068D01*
X127986260Y-87465000D01*
X127693740Y-87465000D01*
X127406842Y-87522068D01*
X127136589Y-87634010D01*
X126893368Y-87796525D01*
X126686525Y-88003368D01*
X126570000Y-88177760D01*
X126453475Y-88003368D01*
X126246632Y-87796525D01*
X126003411Y-87634010D01*
X125733158Y-87522068D01*
X125446260Y-87465000D01*
X125153740Y-87465000D01*
X124866842Y-87522068D01*
X124596589Y-87634010D01*
X124353368Y-87796525D01*
X124146525Y-88003368D01*
X123984010Y-88246589D01*
X123872068Y-88516842D01*
X123815000Y-88803740D01*
X120827000Y-88803740D01*
X120827000Y-87227000D01*
X133700000Y-87227000D01*
X133724776Y-87224560D01*
X133748601Y-87217333D01*
X133770557Y-87205597D01*
X133789803Y-87189803D01*
X133805597Y-87170557D01*
X133817333Y-87148601D01*
X133824560Y-87124776D01*
X133827000Y-87100000D01*
X133827000Y-81327000D01*
X139340000Y-81327000D01*
X139340000Y-87696112D01*
%TA.AperFunction,Conductor*%
D17*
G36*
X139340000Y-87696112D02*
G01*
X139301185Y-87648815D01*
X139204494Y-87569463D01*
X139094180Y-87510498D01*
X138974482Y-87474188D01*
X138850000Y-87461928D01*
X137150000Y-87461928D01*
X137025518Y-87474188D01*
X136905820Y-87510498D01*
X136795506Y-87569463D01*
X136698815Y-87648815D01*
X136619463Y-87745506D01*
X136560498Y-87855820D01*
X136524188Y-87975518D01*
X136511928Y-88100000D01*
X136511928Y-89800000D01*
X136524188Y-89924482D01*
X136560498Y-90044180D01*
X136619463Y-90154494D01*
X136698815Y-90251185D01*
X136795506Y-90330537D01*
X136905820Y-90389502D01*
X137025518Y-90425812D01*
X137150000Y-90438072D01*
X138850000Y-90438072D01*
X138974482Y-90425812D01*
X139094180Y-90389502D01*
X139204494Y-90330537D01*
X139301185Y-90251185D01*
X139340000Y-90203888D01*
X139340000Y-92340000D01*
X120827000Y-92340000D01*
X120827000Y-88803740D01*
X123815000Y-88803740D01*
X123815000Y-89096260D01*
X123872068Y-89383158D01*
X123984010Y-89653411D01*
X124146525Y-89896632D01*
X124353368Y-90103475D01*
X124596589Y-90265990D01*
X124866842Y-90377932D01*
X125153740Y-90435000D01*
X125446260Y-90435000D01*
X125733158Y-90377932D01*
X126003411Y-90265990D01*
X126246632Y-90103475D01*
X126453475Y-89896632D01*
X126570000Y-89722240D01*
X126686525Y-89896632D01*
X126893368Y-90103475D01*
X127136589Y-90265990D01*
X127406842Y-90377932D01*
X127693740Y-90435000D01*
X127986260Y-90435000D01*
X128273158Y-90377932D01*
X128543411Y-90265990D01*
X128786632Y-90103475D01*
X128993475Y-89896632D01*
X129110000Y-89722240D01*
X129226525Y-89896632D01*
X129433368Y-90103475D01*
X129676589Y-90265990D01*
X129946842Y-90377932D01*
X130233740Y-90435000D01*
X130526260Y-90435000D01*
X130813158Y-90377932D01*
X131083411Y-90265990D01*
X131326632Y-90103475D01*
X131533475Y-89896632D01*
X131650000Y-89722240D01*
X131766525Y-89896632D01*
X131973368Y-90103475D01*
X132216589Y-90265990D01*
X132486842Y-90377932D01*
X132773740Y-90435000D01*
X133066260Y-90435000D01*
X133353158Y-90377932D01*
X133623411Y-90265990D01*
X133866632Y-90103475D01*
X134073475Y-89896632D01*
X134235990Y-89653411D01*
X134347932Y-89383158D01*
X134405000Y-89096260D01*
X134405000Y-88803740D01*
X134347932Y-88516842D01*
X134235990Y-88246589D01*
X134073475Y-88003368D01*
X133866632Y-87796525D01*
X133623411Y-87634010D01*
X133353158Y-87522068D01*
X133066260Y-87465000D01*
X132773740Y-87465000D01*
X132486842Y-87522068D01*
X132216589Y-87634010D01*
X131973368Y-87796525D01*
X131766525Y-88003368D01*
X131650000Y-88177760D01*
X131533475Y-88003368D01*
X131326632Y-87796525D01*
X131083411Y-87634010D01*
X130813158Y-87522068D01*
X130526260Y-87465000D01*
X130233740Y-87465000D01*
X129946842Y-87522068D01*
X129676589Y-87634010D01*
X129433368Y-87796525D01*
X129226525Y-88003368D01*
X129110000Y-88177760D01*
X128993475Y-88003368D01*
X128786632Y-87796525D01*
X128543411Y-87634010D01*
X128273158Y-87522068D01*
X127986260Y-87465000D01*
X127693740Y-87465000D01*
X127406842Y-87522068D01*
X127136589Y-87634010D01*
X126893368Y-87796525D01*
X126686525Y-88003368D01*
X126570000Y-88177760D01*
X126453475Y-88003368D01*
X126246632Y-87796525D01*
X126003411Y-87634010D01*
X125733158Y-87522068D01*
X125446260Y-87465000D01*
X125153740Y-87465000D01*
X124866842Y-87522068D01*
X124596589Y-87634010D01*
X124353368Y-87796525D01*
X124146525Y-88003368D01*
X123984010Y-88246589D01*
X123872068Y-88516842D01*
X123815000Y-88803740D01*
X120827000Y-88803740D01*
X120827000Y-87227000D01*
X133700000Y-87227000D01*
X133724776Y-87224560D01*
X133748601Y-87217333D01*
X133770557Y-87205597D01*
X133789803Y-87189803D01*
X133805597Y-87170557D01*
X133817333Y-87148601D01*
X133824560Y-87124776D01*
X133827000Y-87100000D01*
X133827000Y-81327000D01*
X139340000Y-81327000D01*
X139340000Y-87696112D01*
G37*
%TD.AperFunction*%
%TD*%
M02*
