%TF.GenerationSoftware,KiCad,Pcbnew,(5.1.8-0-10_14)*%
%TF.CreationDate,2020-11-29T00:29:28+01:00*%
%TF.ProjectId,FET_Driver,4645545f-4472-4697-9665-722e6b696361,rev?*%
%TF.SameCoordinates,Original*%
%TF.FileFunction,Legend,Bot*%
%TF.FilePolarity,Positive*%
%FSLAX46Y46*%
G04 Gerber Fmt 4.6, Leading zero omitted, Abs format (unit mm)*
G04 Created by KiCad (PCBNEW (5.1.8-0-10_14)) date 2020-11-29 00:29:28*
%MOMM*%
%LPD*%
G01*
G04 APERTURE LIST*
%ADD10C,0.150000*%
%TA.AperFunction,Profile*%
%ADD11C,0.050000*%
%TD*%
G04 APERTURE END LIST*
D10*
X110400000Y-84090476D02*
X110361904Y-84014285D01*
X110361904Y-83900000D01*
X110400000Y-83785714D01*
X110476190Y-83709523D01*
X110552380Y-83671428D01*
X110704761Y-83633333D01*
X110819047Y-83633333D01*
X110971428Y-83671428D01*
X111047619Y-83709523D01*
X111123809Y-83785714D01*
X111161904Y-83900000D01*
X111161904Y-83976190D01*
X111123809Y-84090476D01*
X111085714Y-84128571D01*
X110819047Y-84128571D01*
X110819047Y-83976190D01*
X111161904Y-84471428D02*
X110361904Y-84471428D01*
X111161904Y-84928571D01*
X110361904Y-84928571D01*
X111161904Y-85309523D02*
X110361904Y-85309523D01*
X110361904Y-85500000D01*
X110400000Y-85614285D01*
X110476190Y-85690476D01*
X110552380Y-85728571D01*
X110704761Y-85766666D01*
X110819047Y-85766666D01*
X110971428Y-85728571D01*
X111047619Y-85690476D01*
X111123809Y-85614285D01*
X111161904Y-85500000D01*
X111161904Y-85309523D01*
X110400000Y-80290476D02*
X110361904Y-80214285D01*
X110361904Y-80100000D01*
X110400000Y-79985714D01*
X110476190Y-79909523D01*
X110552380Y-79871428D01*
X110704761Y-79833333D01*
X110819047Y-79833333D01*
X110971428Y-79871428D01*
X111047619Y-79909523D01*
X111123809Y-79985714D01*
X111161904Y-80100000D01*
X111161904Y-80176190D01*
X111123809Y-80290476D01*
X111085714Y-80328571D01*
X110819047Y-80328571D01*
X110819047Y-80176190D01*
X111161904Y-80671428D02*
X110361904Y-80671428D01*
X111161904Y-81128571D01*
X110361904Y-81128571D01*
X111161904Y-81509523D02*
X110361904Y-81509523D01*
X110361904Y-81700000D01*
X110400000Y-81814285D01*
X110476190Y-81890476D01*
X110552380Y-81928571D01*
X110704761Y-81966666D01*
X110819047Y-81966666D01*
X110971428Y-81928571D01*
X111047619Y-81890476D01*
X111123809Y-81814285D01*
X111161904Y-81700000D01*
X111161904Y-81509523D01*
X110461904Y-76300000D02*
X110461904Y-76452380D01*
X110500000Y-76528571D01*
X110576190Y-76604761D01*
X110728571Y-76642857D01*
X110995238Y-76642857D01*
X111147619Y-76604761D01*
X111223809Y-76528571D01*
X111261904Y-76452380D01*
X111261904Y-76300000D01*
X111223809Y-76223809D01*
X111147619Y-76147619D01*
X110995238Y-76109523D01*
X110728571Y-76109523D01*
X110576190Y-76147619D01*
X110500000Y-76223809D01*
X110461904Y-76300000D01*
X110461904Y-76985714D02*
X111109523Y-76985714D01*
X111185714Y-77023809D01*
X111223809Y-77061904D01*
X111261904Y-77138095D01*
X111261904Y-77290476D01*
X111223809Y-77366666D01*
X111185714Y-77404761D01*
X111109523Y-77442857D01*
X110461904Y-77442857D01*
X110461904Y-77709523D02*
X110461904Y-78166666D01*
X111261904Y-77938095D02*
X110461904Y-77938095D01*
X110461904Y-72323809D02*
X111261904Y-72590476D01*
X110461904Y-72857142D01*
X111261904Y-73123809D02*
X110461904Y-73123809D01*
X111261904Y-73504761D02*
X110461904Y-73504761D01*
X111261904Y-73961904D01*
X110461904Y-73961904D01*
D11*
X120000000Y-88000000D02*
X110000000Y-88000000D01*
X120000000Y-93000000D02*
X120000000Y-88000000D01*
D10*
X137842857Y-87709523D02*
X137842857Y-87100000D01*
X137538095Y-87404761D02*
X138147619Y-87404761D01*
X138338095Y-86795238D02*
X138338095Y-86300000D01*
X138033333Y-86566666D01*
X138033333Y-86452380D01*
X137995238Y-86376190D01*
X137957142Y-86338095D01*
X137880952Y-86300000D01*
X137690476Y-86300000D01*
X137614285Y-86338095D01*
X137576190Y-86376190D01*
X137538095Y-86452380D01*
X137538095Y-86680952D01*
X137576190Y-86757142D01*
X137614285Y-86795238D01*
X138338095Y-86071428D02*
X137538095Y-85804761D01*
X138338095Y-85538095D01*
X138338095Y-85347619D02*
X138338095Y-84852380D01*
X138033333Y-85119047D01*
X138033333Y-85004761D01*
X137995238Y-84928571D01*
X137957142Y-84890476D01*
X137880952Y-84852380D01*
X137690476Y-84852380D01*
X137614285Y-84890476D01*
X137576190Y-84928571D01*
X137538095Y-85004761D01*
X137538095Y-85233333D01*
X137576190Y-85309523D01*
X137614285Y-85347619D01*
X133200000Y-87300000D02*
X133238095Y-87376190D01*
X133238095Y-87490476D01*
X133200000Y-87604761D01*
X133123809Y-87680952D01*
X133047619Y-87719047D01*
X132895238Y-87757142D01*
X132780952Y-87757142D01*
X132628571Y-87719047D01*
X132552380Y-87680952D01*
X132476190Y-87604761D01*
X132438095Y-87490476D01*
X132438095Y-87414285D01*
X132476190Y-87300000D01*
X132514285Y-87261904D01*
X132780952Y-87261904D01*
X132780952Y-87414285D01*
X132438095Y-86919047D02*
X133238095Y-86919047D01*
X133238095Y-86614285D01*
X133200000Y-86538095D01*
X133161904Y-86500000D01*
X133085714Y-86461904D01*
X132971428Y-86461904D01*
X132895238Y-86500000D01*
X132857142Y-86538095D01*
X132819047Y-86614285D01*
X132819047Y-86919047D01*
X132438095Y-86119047D02*
X133238095Y-86119047D01*
X133238095Y-85585714D02*
X133238095Y-85433333D01*
X133200000Y-85357142D01*
X133123809Y-85280952D01*
X132971428Y-85242857D01*
X132704761Y-85242857D01*
X132552380Y-85280952D01*
X132476190Y-85357142D01*
X132438095Y-85433333D01*
X132438095Y-85585714D01*
X132476190Y-85661904D01*
X132552380Y-85738095D01*
X132704761Y-85776190D01*
X132971428Y-85776190D01*
X133123809Y-85738095D01*
X133200000Y-85661904D01*
X133238095Y-85585714D01*
X135700000Y-87309523D02*
X135738095Y-87385714D01*
X135738095Y-87500000D01*
X135700000Y-87614285D01*
X135623809Y-87690476D01*
X135547619Y-87728571D01*
X135395238Y-87766666D01*
X135280952Y-87766666D01*
X135128571Y-87728571D01*
X135052380Y-87690476D01*
X134976190Y-87614285D01*
X134938095Y-87500000D01*
X134938095Y-87423809D01*
X134976190Y-87309523D01*
X135014285Y-87271428D01*
X135280952Y-87271428D01*
X135280952Y-87423809D01*
X134938095Y-86928571D02*
X135738095Y-86928571D01*
X134938095Y-86471428D01*
X135738095Y-86471428D01*
X134938095Y-86090476D02*
X135738095Y-86090476D01*
X135738095Y-85900000D01*
X135700000Y-85785714D01*
X135623809Y-85709523D01*
X135547619Y-85671428D01*
X135395238Y-85633333D01*
X135280952Y-85633333D01*
X135128571Y-85671428D01*
X135052380Y-85709523D01*
X134976190Y-85785714D01*
X134938095Y-85900000D01*
X134938095Y-86090476D01*
D11*
X110000000Y-68000000D02*
X110000000Y-88000000D01*
X140000000Y-68000000D02*
X110000000Y-68000000D01*
X140000000Y-93000000D02*
X140000000Y-68000000D01*
X120000000Y-93000000D02*
X140000000Y-93000000D01*
M02*
