M48
; DRILL file {KiCad (5.1.8-0-10_14)} date Sunday, November 29, 2020 at 12:29:31 AM
; FORMAT={-:-/ absolute / inch / decimal}
; #@! TF.CreationDate,2020-11-29T00:29:31+01:00
; #@! TF.GenerationSoftware,Kicad,Pcbnew,(5.1.8-0-10_14)
FMAT,2
INCH
T1C0.0157
T2C0.0394
T3C0.0472
%
G90
G05
T1
X4.378Y-2.9252
X4.3819Y-2.9961
X4.3819Y-3.0866
X4.4094Y-2.815
X4.4764Y-2.8189
X4.5394Y-2.8189
X4.5827Y-2.8858
X4.5827Y-3.0866
X4.5866Y-2.9921
X4.6732Y-2.9843
X4.7205Y-2.7795
X4.7205Y-2.8583
X4.7362Y-3.122
X4.7402Y-3.0512
X4.7717Y-2.8268
X4.7717Y-2.8976
X4.7756Y-2.7441
X4.7756Y-2.9843
X4.7795Y-3.4528
X4.7835Y-3.6339
X4.7874Y-3.0827
X4.8386Y-2.7441
X4.8386Y-2.8228
X4.8386Y-2.8976
X4.8386Y-3.122
X4.8425Y-3.0512
X4.9055Y-3.0866
X4.9252Y-2.9843
X4.9685Y-3.2008
X4.9724Y-3.0551
X4.9724Y-3.122
X5.0315Y-2.9882
X5.0315Y-3.2323
X5.0315Y-3.6339
X5.0354Y-3.1024
X5.2008Y-3.0748
X5.2283Y-3.6339
X5.3543Y-3.2165
X5.4449Y-3.0748
X5.4803Y-3.2244
X5.4803Y-3.6339
X5.4843Y-3.4134
T2
X4.8331Y-3.502
X4.9331Y-3.502
X5.0331Y-3.502
X5.1331Y-3.502
X5.2331Y-3.502
X5.3331Y-3.502
X5.4331Y-3.502
T3
X4.4685Y-2.8854
X4.4685Y-3.0354
X4.4685Y-3.1854
X4.4685Y-3.3354
T0
M30
