%TF.GenerationSoftware,KiCad,Pcbnew,(5.1.8-0-10_14)*%
%TF.CreationDate,2020-11-29T00:29:28+01:00*%
%TF.ProjectId,FET_Driver,4645545f-4472-4697-9665-722e6b696361,rev?*%
%TF.SameCoordinates,Original*%
%TF.FileFunction,Copper,L1,Top*%
%TF.FilePolarity,Positive*%
%FSLAX46Y46*%
G04 Gerber Fmt 4.6, Leading zero omitted, Abs format (unit mm)*
G04 Created by KiCad (PCBNEW (5.1.8-0-10_14)) date 2020-11-29 00:29:28*
%MOMM*%
%LPD*%
G01*
G04 APERTURE LIST*
%TA.AperFunction,Profile*%
%ADD10C,0.050000*%
%TD*%
%TA.AperFunction,ComponentPad*%
%ADD11O,3.600000X1.800000*%
%TD*%
%TA.AperFunction,SMDPad,CuDef*%
%ADD12R,10.800000X9.400000*%
%TD*%
%TA.AperFunction,SMDPad,CuDef*%
%ADD13R,1.100000X4.600000*%
%TD*%
%TA.AperFunction,ComponentPad*%
%ADD14O,1.700000X1.700000*%
%TD*%
%TA.AperFunction,ComponentPad*%
%ADD15R,1.700000X1.700000*%
%TD*%
%TA.AperFunction,SMDPad,CuDef*%
%ADD16R,1.100000X1.100000*%
%TD*%
%TA.AperFunction,ViaPad*%
%ADD17C,0.800000*%
%TD*%
%TA.AperFunction,Conductor*%
%ADD18C,1.000000*%
%TD*%
%TA.AperFunction,Conductor*%
%ADD19C,0.600000*%
%TD*%
%TA.AperFunction,Conductor*%
%ADD20C,0.400000*%
%TD*%
%TA.AperFunction,Conductor*%
%ADD21C,0.254000*%
%TD*%
%TA.AperFunction,Conductor*%
%ADD22C,0.100000*%
%TD*%
G04 APERTURE END LIST*
D10*
X120000000Y-88000000D02*
X110000000Y-88000000D01*
X120000000Y-93000000D02*
X120000000Y-88000000D01*
X110000000Y-68000000D02*
X110000000Y-88000000D01*
X140000000Y-68000000D02*
X110000000Y-68000000D01*
X140000000Y-93000000D02*
X140000000Y-68000000D01*
X120000000Y-93000000D02*
X140000000Y-93000000D01*
D11*
%TO.P,J102,4*%
%TO.N,/ISO_GND*%
X113500000Y-84720000D03*
%TO.P,J102,3*%
X113500000Y-80910000D03*
%TO.P,J102,2*%
%TO.N,/ISO_OUT*%
X113500000Y-77100000D03*
%TO.P,J102,1*%
%TO.N,/ISO_VIN*%
%TA.AperFunction,ComponentPad*%
G36*
G01*
X111950000Y-72390000D02*
X115050000Y-72390000D01*
G75*
G02*
X115300000Y-72640000I0J-250000D01*
G01*
X115300000Y-73940000D01*
G75*
G02*
X115050000Y-74190000I-250000J0D01*
G01*
X111950000Y-74190000D01*
G75*
G02*
X111700000Y-73940000I0J250000D01*
G01*
X111700000Y-72640000D01*
G75*
G02*
X111950000Y-72390000I250000J0D01*
G01*
G37*
%TD.AperFunction*%
%TD*%
D12*
%TO.P,Q101,2*%
%TO.N,/ISO_OUT*%
X124550000Y-80825000D03*
D13*
%TO.P,Q101,3*%
%TO.N,/ISO_VIN*%
X122010000Y-71675000D03*
%TO.P,Q101,1*%
%TO.N,Net-(Q101-Pad1)*%
X127090000Y-71675000D03*
%TD*%
%TO.P,R103,2*%
%TO.N,Net-(D102-Pad2)*%
%TA.AperFunction,SMDPad,CuDef*%
G36*
G01*
X134165000Y-86035000D02*
X134715000Y-86035000D01*
G75*
G02*
X134915000Y-86235000I0J-200000D01*
G01*
X134915000Y-86635000D01*
G75*
G02*
X134715000Y-86835000I-200000J0D01*
G01*
X134165000Y-86835000D01*
G75*
G02*
X133965000Y-86635000I0J200000D01*
G01*
X133965000Y-86235000D01*
G75*
G02*
X134165000Y-86035000I200000J0D01*
G01*
G37*
%TD.AperFunction*%
%TO.P,R103,1*%
%TO.N,/GPIO*%
%TA.AperFunction,SMDPad,CuDef*%
G36*
G01*
X134165000Y-84385000D02*
X134715000Y-84385000D01*
G75*
G02*
X134915000Y-84585000I0J-200000D01*
G01*
X134915000Y-84985000D01*
G75*
G02*
X134715000Y-85185000I-200000J0D01*
G01*
X134165000Y-85185000D01*
G75*
G02*
X133965000Y-84985000I0J200000D01*
G01*
X133965000Y-84585000D01*
G75*
G02*
X134165000Y-84385000I200000J0D01*
G01*
G37*
%TD.AperFunction*%
%TD*%
D14*
%TO.P,J101,7*%
%TO.N,GND*%
X122760000Y-88950000D03*
%TO.P,J101,6*%
%TO.N,N/C*%
X125300000Y-88950000D03*
%TO.P,J101,5*%
X127840000Y-88950000D03*
%TO.P,J101,4*%
X130380000Y-88950000D03*
%TO.P,J101,3*%
%TO.N,/GPIO*%
X132920000Y-88950000D03*
%TO.P,J101,2*%
%TO.N,GND*%
X135460000Y-88950000D03*
D15*
%TO.P,J101,1*%
%TO.N,N/C*%
X138000000Y-88950000D03*
%TD*%
%TO.P,D102,2*%
%TO.N,Net-(D102-Pad2)*%
%TA.AperFunction,SMDPad,CuDef*%
G36*
G01*
X136380000Y-86113750D02*
X136380000Y-86626250D01*
G75*
G02*
X136161250Y-86845000I-218750J0D01*
G01*
X135723750Y-86845000D01*
G75*
G02*
X135505000Y-86626250I0J218750D01*
G01*
X135505000Y-86113750D01*
G75*
G02*
X135723750Y-85895000I218750J0D01*
G01*
X136161250Y-85895000D01*
G75*
G02*
X136380000Y-86113750I0J-218750D01*
G01*
G37*
%TD.AperFunction*%
%TO.P,D102,1*%
%TO.N,GND*%
%TA.AperFunction,SMDPad,CuDef*%
G36*
G01*
X137955000Y-86113750D02*
X137955000Y-86626250D01*
G75*
G02*
X137736250Y-86845000I-218750J0D01*
G01*
X137298750Y-86845000D01*
G75*
G02*
X137080000Y-86626250I0J218750D01*
G01*
X137080000Y-86113750D01*
G75*
G02*
X137298750Y-85895000I218750J0D01*
G01*
X137736250Y-85895000D01*
G75*
G02*
X137955000Y-86113750I0J-218750D01*
G01*
G37*
%TD.AperFunction*%
%TD*%
%TO.P,U101,4*%
%TO.N,Net-(R101-Pad2)*%
%TA.AperFunction,SMDPad,CuDef*%
G36*
G01*
X136415000Y-78915000D02*
X136115000Y-78915000D01*
G75*
G02*
X135965000Y-78765000I0J150000D01*
G01*
X135965000Y-77440000D01*
G75*
G02*
X136115000Y-77290000I150000J0D01*
G01*
X136415000Y-77290000D01*
G75*
G02*
X136565000Y-77440000I0J-150000D01*
G01*
X136565000Y-78765000D01*
G75*
G02*
X136415000Y-78915000I-150000J0D01*
G01*
G37*
%TD.AperFunction*%
%TO.P,U101,3*%
%TO.N,/ISO_GND*%
%TA.AperFunction,SMDPad,CuDef*%
G36*
G01*
X137685000Y-78915000D02*
X137385000Y-78915000D01*
G75*
G02*
X137235000Y-78765000I0J150000D01*
G01*
X137235000Y-77440000D01*
G75*
G02*
X137385000Y-77290000I150000J0D01*
G01*
X137685000Y-77290000D01*
G75*
G02*
X137835000Y-77440000I0J-150000D01*
G01*
X137835000Y-78765000D01*
G75*
G02*
X137685000Y-78915000I-150000J0D01*
G01*
G37*
%TD.AperFunction*%
%TO.P,U101,2*%
%TO.N,GND*%
%TA.AperFunction,SMDPad,CuDef*%
G36*
G01*
X137685000Y-85290000D02*
X137385000Y-85290000D01*
G75*
G02*
X137235000Y-85140000I0J150000D01*
G01*
X137235000Y-83815000D01*
G75*
G02*
X137385000Y-83665000I150000J0D01*
G01*
X137685000Y-83665000D01*
G75*
G02*
X137835000Y-83815000I0J-150000D01*
G01*
X137835000Y-85140000D01*
G75*
G02*
X137685000Y-85290000I-150000J0D01*
G01*
G37*
%TD.AperFunction*%
%TO.P,U101,1*%
%TO.N,Net-(R901-Pad1)*%
%TA.AperFunction,SMDPad,CuDef*%
G36*
G01*
X136415000Y-85290000D02*
X136115000Y-85290000D01*
G75*
G02*
X135965000Y-85140000I0J150000D01*
G01*
X135965000Y-83815000D01*
G75*
G02*
X136115000Y-83665000I150000J0D01*
G01*
X136415000Y-83665000D01*
G75*
G02*
X136565000Y-83815000I0J-150000D01*
G01*
X136565000Y-85140000D01*
G75*
G02*
X136415000Y-85290000I-150000J0D01*
G01*
G37*
%TD.AperFunction*%
%TD*%
%TO.P,R901,2*%
%TO.N,/GPIO*%
%TA.AperFunction,SMDPad,CuDef*%
G36*
G01*
X134165000Y-83025000D02*
X134715000Y-83025000D01*
G75*
G02*
X134915000Y-83225000I0J-200000D01*
G01*
X134915000Y-83625000D01*
G75*
G02*
X134715000Y-83825000I-200000J0D01*
G01*
X134165000Y-83825000D01*
G75*
G02*
X133965000Y-83625000I0J200000D01*
G01*
X133965000Y-83225000D01*
G75*
G02*
X134165000Y-83025000I200000J0D01*
G01*
G37*
%TD.AperFunction*%
%TO.P,R901,1*%
%TO.N,Net-(R901-Pad1)*%
%TA.AperFunction,SMDPad,CuDef*%
G36*
G01*
X134165000Y-81375000D02*
X134715000Y-81375000D01*
G75*
G02*
X134915000Y-81575000I0J-200000D01*
G01*
X134915000Y-81975000D01*
G75*
G02*
X134715000Y-82175000I-200000J0D01*
G01*
X134165000Y-82175000D01*
G75*
G02*
X133965000Y-81975000I0J200000D01*
G01*
X133965000Y-81575000D01*
G75*
G02*
X134165000Y-81375000I200000J0D01*
G01*
G37*
%TD.AperFunction*%
%TD*%
%TO.P,R101,2*%
%TO.N,Net-(R101-Pad2)*%
%TA.AperFunction,SMDPad,CuDef*%
G36*
G01*
X137425000Y-75725000D02*
X137975000Y-75725000D01*
G75*
G02*
X138175000Y-75925000I0J-200000D01*
G01*
X138175000Y-76325000D01*
G75*
G02*
X137975000Y-76525000I-200000J0D01*
G01*
X137425000Y-76525000D01*
G75*
G02*
X137225000Y-76325000I0J200000D01*
G01*
X137225000Y-75925000D01*
G75*
G02*
X137425000Y-75725000I200000J0D01*
G01*
G37*
%TD.AperFunction*%
%TO.P,R101,1*%
%TO.N,/ISO_VIN*%
%TA.AperFunction,SMDPad,CuDef*%
G36*
G01*
X137425000Y-74075000D02*
X137975000Y-74075000D01*
G75*
G02*
X138175000Y-74275000I0J-200000D01*
G01*
X138175000Y-74675000D01*
G75*
G02*
X137975000Y-74875000I-200000J0D01*
G01*
X137425000Y-74875000D01*
G75*
G02*
X137225000Y-74675000I0J200000D01*
G01*
X137225000Y-74275000D01*
G75*
G02*
X137425000Y-74075000I200000J0D01*
G01*
G37*
%TD.AperFunction*%
%TD*%
%TO.P,R102,2*%
%TO.N,Net-(R101-Pad2)*%
%TA.AperFunction,SMDPad,CuDef*%
G36*
G01*
X135855000Y-75725000D02*
X136405000Y-75725000D01*
G75*
G02*
X136605000Y-75925000I0J-200000D01*
G01*
X136605000Y-76325000D01*
G75*
G02*
X136405000Y-76525000I-200000J0D01*
G01*
X135855000Y-76525000D01*
G75*
G02*
X135655000Y-76325000I0J200000D01*
G01*
X135655000Y-75925000D01*
G75*
G02*
X135855000Y-75725000I200000J0D01*
G01*
G37*
%TD.AperFunction*%
%TO.P,R102,1*%
%TO.N,Net-(Q101-Pad1)*%
%TA.AperFunction,SMDPad,CuDef*%
G36*
G01*
X135855000Y-74075000D02*
X136405000Y-74075000D01*
G75*
G02*
X136605000Y-74275000I0J-200000D01*
G01*
X136605000Y-74675000D01*
G75*
G02*
X136405000Y-74875000I-200000J0D01*
G01*
X135855000Y-74875000D01*
G75*
G02*
X135655000Y-74675000I0J200000D01*
G01*
X135655000Y-74275000D01*
G75*
G02*
X135855000Y-74075000I200000J0D01*
G01*
G37*
%TD.AperFunction*%
%TD*%
D16*
%TO.P,D101,2*%
%TO.N,/ISO_GND*%
X131400000Y-76700000D03*
%TO.P,D101,1*%
%TO.N,/ISO_OUT*%
X131400000Y-79500000D03*
%TD*%
D17*
%TO.N,GND*%
X139200000Y-81900000D03*
X136000000Y-81700000D03*
X139300000Y-86700000D03*
X139200000Y-92300000D03*
X121500000Y-92300000D03*
X121400000Y-87700000D03*
X127800000Y-92300000D03*
X132800000Y-92300000D03*
%TO.N,/ISO_GND*%
X138300000Y-78100000D03*
X132100000Y-78100000D03*
%TO.N,/ISO_OUT*%
X124600000Y-78400000D03*
X121600000Y-78300000D03*
X126200000Y-81300000D03*
X126300000Y-79300000D03*
X122900000Y-79300000D03*
X120300000Y-79300000D03*
X120400000Y-77500000D03*
X123000000Y-77500000D03*
X126300000Y-77600000D03*
X127900000Y-78800000D03*
X127800000Y-82100000D03*
X111300000Y-76100000D03*
X111300000Y-78400000D03*
X116500000Y-76000000D03*
X116400000Y-78400000D03*
X127800000Y-75900000D03*
X125100000Y-75800000D03*
X121300000Y-75800000D03*
X118700000Y-75800000D03*
%TO.N,/ISO_VIN*%
X121200000Y-73600000D03*
X121200000Y-71800000D03*
X121300000Y-69700000D03*
X119900000Y-70600000D03*
X119900000Y-72600000D03*
X112000000Y-71500000D03*
X113700000Y-71600000D03*
X115300000Y-71600000D03*
X111200000Y-74300000D03*
X116400000Y-73300000D03*
X122900000Y-69700000D03*
X122900000Y-73600000D03*
X122900000Y-71700000D03*
%TD*%
D18*
%TO.N,GND*%
X137517500Y-86569326D02*
X137517500Y-86370000D01*
X135460000Y-88626826D02*
X137517500Y-86569326D01*
X135460000Y-88950000D02*
X135460000Y-88626826D01*
X137517500Y-84495000D02*
X137535000Y-84477500D01*
X137517500Y-86370000D02*
X137517500Y-84495000D01*
%TO.N,/ISO_GND*%
X138297500Y-78102500D02*
X138300000Y-78100000D01*
X137535000Y-78102500D02*
X138297500Y-78102500D01*
X131400000Y-77400000D02*
X132100000Y-78100000D01*
X131400000Y-76700000D02*
X131400000Y-77400000D01*
%TO.N,/ISO_OUT*%
X126500000Y-79500000D02*
X126300000Y-79300000D01*
X131400000Y-79500000D02*
X126500000Y-79500000D01*
D19*
%TO.N,/GPIO*%
X132920000Y-88950000D02*
X133365000Y-88950000D01*
D20*
X134440000Y-85111456D02*
X134440000Y-84785000D01*
X132920000Y-86631456D02*
X134440000Y-85111456D01*
X132920000Y-88950000D02*
X132920000Y-86631456D01*
X134440000Y-84785000D02*
X134440000Y-83425000D01*
%TO.N,Net-(Q101-Pad1)*%
X133330000Y-71675000D02*
X136130000Y-74475000D01*
X127090000Y-71675000D02*
X133330000Y-71675000D01*
%TO.N,Net-(R101-Pad2)*%
X136265000Y-76260000D02*
X136130000Y-76125000D01*
X136265000Y-78102500D02*
X136265000Y-76260000D01*
X136130000Y-76125000D02*
X137700000Y-76125000D01*
%TO.N,Net-(R901-Pad1)*%
X136265000Y-83600000D02*
X136265000Y-84477500D01*
X134440000Y-81775000D02*
X136265000Y-83600000D01*
%TO.N,/ISO_VIN*%
X124710001Y-68974999D02*
X122010000Y-71675000D01*
X132599999Y-68974999D02*
X124710001Y-68974999D01*
X137700000Y-74075000D02*
X132599999Y-68974999D01*
X137700000Y-74475000D02*
X137700000Y-74075000D01*
%TO.N,Net-(D102-Pad2)*%
X135877500Y-86435000D02*
X135942500Y-86370000D01*
X134440000Y-86435000D02*
X135877500Y-86435000D01*
%TD*%
D21*
%TO.N,/ISO_OUT*%
X129773000Y-82773000D02*
X119184019Y-82773000D01*
X117516882Y-78850325D01*
X117504945Y-78828477D01*
X117488975Y-78809378D01*
X117469586Y-78793761D01*
X117447523Y-78782226D01*
X117423633Y-78775218D01*
X117400000Y-78773000D01*
X110927000Y-78773000D01*
X110927000Y-75527000D01*
X129773000Y-75527000D01*
X129773000Y-82773000D01*
%TA.AperFunction,Conductor*%
D22*
G36*
X129773000Y-82773000D02*
G01*
X119184019Y-82773000D01*
X117516882Y-78850325D01*
X117504945Y-78828477D01*
X117488975Y-78809378D01*
X117469586Y-78793761D01*
X117447523Y-78782226D01*
X117423633Y-78775218D01*
X117400000Y-78773000D01*
X110927000Y-78773000D01*
X110927000Y-75527000D01*
X129773000Y-75527000D01*
X129773000Y-82773000D01*
G37*
%TD.AperFunction*%
%TD*%
D21*
%TO.N,/ISO_VIN*%
X123473000Y-74573000D02*
X110927000Y-74573000D01*
X110927000Y-68927000D01*
X123473000Y-68927000D01*
X123473000Y-74573000D01*
%TA.AperFunction,Conductor*%
D22*
G36*
X123473000Y-74573000D02*
G01*
X110927000Y-74573000D01*
X110927000Y-68927000D01*
X123473000Y-68927000D01*
X123473000Y-74573000D01*
G37*
%TD.AperFunction*%
%TD*%
D21*
%TO.N,GND*%
X139340000Y-87696112D02*
X139301185Y-87648815D01*
X139204494Y-87569463D01*
X139094180Y-87510498D01*
X138974482Y-87474188D01*
X138850000Y-87461928D01*
X137150000Y-87461928D01*
X137025518Y-87474188D01*
X136905820Y-87510498D01*
X136795506Y-87569463D01*
X136698815Y-87648815D01*
X136619463Y-87745506D01*
X136560498Y-87855820D01*
X136524188Y-87975518D01*
X136511928Y-88100000D01*
X136511928Y-89800000D01*
X136524188Y-89924482D01*
X136560498Y-90044180D01*
X136619463Y-90154494D01*
X136698815Y-90251185D01*
X136795506Y-90330537D01*
X136905820Y-90389502D01*
X137025518Y-90425812D01*
X137150000Y-90438072D01*
X138850000Y-90438072D01*
X138974482Y-90425812D01*
X139094180Y-90389502D01*
X139204494Y-90330537D01*
X139301185Y-90251185D01*
X139340000Y-90203888D01*
X139340000Y-92340000D01*
X120827000Y-92340000D01*
X120827000Y-87227000D01*
X132085001Y-87227000D01*
X132085001Y-87721935D01*
X131973368Y-87796525D01*
X131766525Y-88003368D01*
X131650000Y-88177760D01*
X131533475Y-88003368D01*
X131326632Y-87796525D01*
X131083411Y-87634010D01*
X130813158Y-87522068D01*
X130526260Y-87465000D01*
X130233740Y-87465000D01*
X129946842Y-87522068D01*
X129676589Y-87634010D01*
X129433368Y-87796525D01*
X129226525Y-88003368D01*
X129110000Y-88177760D01*
X128993475Y-88003368D01*
X128786632Y-87796525D01*
X128543411Y-87634010D01*
X128273158Y-87522068D01*
X127986260Y-87465000D01*
X127693740Y-87465000D01*
X127406842Y-87522068D01*
X127136589Y-87634010D01*
X126893368Y-87796525D01*
X126686525Y-88003368D01*
X126570000Y-88177760D01*
X126453475Y-88003368D01*
X126246632Y-87796525D01*
X126003411Y-87634010D01*
X125733158Y-87522068D01*
X125446260Y-87465000D01*
X125153740Y-87465000D01*
X124866842Y-87522068D01*
X124596589Y-87634010D01*
X124353368Y-87796525D01*
X124146525Y-88003368D01*
X123984010Y-88246589D01*
X123872068Y-88516842D01*
X123815000Y-88803740D01*
X123815000Y-89096260D01*
X123872068Y-89383158D01*
X123984010Y-89653411D01*
X124146525Y-89896632D01*
X124353368Y-90103475D01*
X124596589Y-90265990D01*
X124866842Y-90377932D01*
X125153740Y-90435000D01*
X125446260Y-90435000D01*
X125733158Y-90377932D01*
X126003411Y-90265990D01*
X126246632Y-90103475D01*
X126453475Y-89896632D01*
X126570000Y-89722240D01*
X126686525Y-89896632D01*
X126893368Y-90103475D01*
X127136589Y-90265990D01*
X127406842Y-90377932D01*
X127693740Y-90435000D01*
X127986260Y-90435000D01*
X128273158Y-90377932D01*
X128543411Y-90265990D01*
X128786632Y-90103475D01*
X128993475Y-89896632D01*
X129110000Y-89722240D01*
X129226525Y-89896632D01*
X129433368Y-90103475D01*
X129676589Y-90265990D01*
X129946842Y-90377932D01*
X130233740Y-90435000D01*
X130526260Y-90435000D01*
X130813158Y-90377932D01*
X131083411Y-90265990D01*
X131326632Y-90103475D01*
X131533475Y-89896632D01*
X131650000Y-89722240D01*
X131766525Y-89896632D01*
X131973368Y-90103475D01*
X132216589Y-90265990D01*
X132486842Y-90377932D01*
X132773740Y-90435000D01*
X133066260Y-90435000D01*
X133353158Y-90377932D01*
X133623411Y-90265990D01*
X133866632Y-90103475D01*
X134073475Y-89896632D01*
X134235990Y-89653411D01*
X134347932Y-89383158D01*
X134405000Y-89096260D01*
X134405000Y-88803740D01*
X134347932Y-88516842D01*
X134235990Y-88246589D01*
X134073475Y-88003368D01*
X133866632Y-87796525D01*
X133755000Y-87721935D01*
X133755000Y-87361554D01*
X133844284Y-87409278D01*
X134001500Y-87456969D01*
X134165000Y-87473072D01*
X134715000Y-87473072D01*
X134878500Y-87456969D01*
X135035716Y-87409278D01*
X135180608Y-87331831D01*
X135209999Y-87307710D01*
X135247725Y-87338671D01*
X135395858Y-87417850D01*
X135556592Y-87466608D01*
X135723750Y-87483072D01*
X136161250Y-87483072D01*
X136328408Y-87466608D01*
X136489142Y-87417850D01*
X136637275Y-87338671D01*
X136767115Y-87232115D01*
X136873671Y-87102275D01*
X136952850Y-86954142D01*
X137001608Y-86793408D01*
X137018072Y-86626250D01*
X137018072Y-86113750D01*
X137001608Y-85946592D01*
X136952850Y-85785858D01*
X136925845Y-85735335D01*
X136972251Y-85697251D01*
X137070258Y-85577829D01*
X137143084Y-85441582D01*
X137187929Y-85293745D01*
X137203072Y-85140000D01*
X137203072Y-83815000D01*
X137187929Y-83661255D01*
X137143084Y-83513418D01*
X137070258Y-83377171D01*
X137069814Y-83376630D01*
X137040172Y-83278913D01*
X136962636Y-83133854D01*
X136884439Y-83038570D01*
X136884437Y-83038568D01*
X136858291Y-83006709D01*
X136826433Y-82980564D01*
X135553072Y-81707204D01*
X135553072Y-81575000D01*
X135536969Y-81411500D01*
X135511336Y-81327000D01*
X139340000Y-81327000D01*
X139340000Y-87696112D01*
%TA.AperFunction,Conductor*%
D22*
G36*
X139340000Y-87696112D02*
G01*
X139301185Y-87648815D01*
X139204494Y-87569463D01*
X139094180Y-87510498D01*
X138974482Y-87474188D01*
X138850000Y-87461928D01*
X137150000Y-87461928D01*
X137025518Y-87474188D01*
X136905820Y-87510498D01*
X136795506Y-87569463D01*
X136698815Y-87648815D01*
X136619463Y-87745506D01*
X136560498Y-87855820D01*
X136524188Y-87975518D01*
X136511928Y-88100000D01*
X136511928Y-89800000D01*
X136524188Y-89924482D01*
X136560498Y-90044180D01*
X136619463Y-90154494D01*
X136698815Y-90251185D01*
X136795506Y-90330537D01*
X136905820Y-90389502D01*
X137025518Y-90425812D01*
X137150000Y-90438072D01*
X138850000Y-90438072D01*
X138974482Y-90425812D01*
X139094180Y-90389502D01*
X139204494Y-90330537D01*
X139301185Y-90251185D01*
X139340000Y-90203888D01*
X139340000Y-92340000D01*
X120827000Y-92340000D01*
X120827000Y-87227000D01*
X132085001Y-87227000D01*
X132085001Y-87721935D01*
X131973368Y-87796525D01*
X131766525Y-88003368D01*
X131650000Y-88177760D01*
X131533475Y-88003368D01*
X131326632Y-87796525D01*
X131083411Y-87634010D01*
X130813158Y-87522068D01*
X130526260Y-87465000D01*
X130233740Y-87465000D01*
X129946842Y-87522068D01*
X129676589Y-87634010D01*
X129433368Y-87796525D01*
X129226525Y-88003368D01*
X129110000Y-88177760D01*
X128993475Y-88003368D01*
X128786632Y-87796525D01*
X128543411Y-87634010D01*
X128273158Y-87522068D01*
X127986260Y-87465000D01*
X127693740Y-87465000D01*
X127406842Y-87522068D01*
X127136589Y-87634010D01*
X126893368Y-87796525D01*
X126686525Y-88003368D01*
X126570000Y-88177760D01*
X126453475Y-88003368D01*
X126246632Y-87796525D01*
X126003411Y-87634010D01*
X125733158Y-87522068D01*
X125446260Y-87465000D01*
X125153740Y-87465000D01*
X124866842Y-87522068D01*
X124596589Y-87634010D01*
X124353368Y-87796525D01*
X124146525Y-88003368D01*
X123984010Y-88246589D01*
X123872068Y-88516842D01*
X123815000Y-88803740D01*
X123815000Y-89096260D01*
X123872068Y-89383158D01*
X123984010Y-89653411D01*
X124146525Y-89896632D01*
X124353368Y-90103475D01*
X124596589Y-90265990D01*
X124866842Y-90377932D01*
X125153740Y-90435000D01*
X125446260Y-90435000D01*
X125733158Y-90377932D01*
X126003411Y-90265990D01*
X126246632Y-90103475D01*
X126453475Y-89896632D01*
X126570000Y-89722240D01*
X126686525Y-89896632D01*
X126893368Y-90103475D01*
X127136589Y-90265990D01*
X127406842Y-90377932D01*
X127693740Y-90435000D01*
X127986260Y-90435000D01*
X128273158Y-90377932D01*
X128543411Y-90265990D01*
X128786632Y-90103475D01*
X128993475Y-89896632D01*
X129110000Y-89722240D01*
X129226525Y-89896632D01*
X129433368Y-90103475D01*
X129676589Y-90265990D01*
X129946842Y-90377932D01*
X130233740Y-90435000D01*
X130526260Y-90435000D01*
X130813158Y-90377932D01*
X131083411Y-90265990D01*
X131326632Y-90103475D01*
X131533475Y-89896632D01*
X131650000Y-89722240D01*
X131766525Y-89896632D01*
X131973368Y-90103475D01*
X132216589Y-90265990D01*
X132486842Y-90377932D01*
X132773740Y-90435000D01*
X133066260Y-90435000D01*
X133353158Y-90377932D01*
X133623411Y-90265990D01*
X133866632Y-90103475D01*
X134073475Y-89896632D01*
X134235990Y-89653411D01*
X134347932Y-89383158D01*
X134405000Y-89096260D01*
X134405000Y-88803740D01*
X134347932Y-88516842D01*
X134235990Y-88246589D01*
X134073475Y-88003368D01*
X133866632Y-87796525D01*
X133755000Y-87721935D01*
X133755000Y-87361554D01*
X133844284Y-87409278D01*
X134001500Y-87456969D01*
X134165000Y-87473072D01*
X134715000Y-87473072D01*
X134878500Y-87456969D01*
X135035716Y-87409278D01*
X135180608Y-87331831D01*
X135209999Y-87307710D01*
X135247725Y-87338671D01*
X135395858Y-87417850D01*
X135556592Y-87466608D01*
X135723750Y-87483072D01*
X136161250Y-87483072D01*
X136328408Y-87466608D01*
X136489142Y-87417850D01*
X136637275Y-87338671D01*
X136767115Y-87232115D01*
X136873671Y-87102275D01*
X136952850Y-86954142D01*
X137001608Y-86793408D01*
X137018072Y-86626250D01*
X137018072Y-86113750D01*
X137001608Y-85946592D01*
X136952850Y-85785858D01*
X136925845Y-85735335D01*
X136972251Y-85697251D01*
X137070258Y-85577829D01*
X137143084Y-85441582D01*
X137187929Y-85293745D01*
X137203072Y-85140000D01*
X137203072Y-83815000D01*
X137187929Y-83661255D01*
X137143084Y-83513418D01*
X137070258Y-83377171D01*
X137069814Y-83376630D01*
X137040172Y-83278913D01*
X136962636Y-83133854D01*
X136884439Y-83038570D01*
X136884437Y-83038568D01*
X136858291Y-83006709D01*
X136826433Y-82980564D01*
X135553072Y-81707204D01*
X135553072Y-81575000D01*
X135536969Y-81411500D01*
X135511336Y-81327000D01*
X139340000Y-81327000D01*
X139340000Y-87696112D01*
G37*
%TD.AperFunction*%
%TD*%
M02*
