%TF.GenerationSoftware,KiCad,Pcbnew,(5.1.8-0-10_14)*%
%TF.CreationDate,2020-11-19T18:25:59+01:00*%
%TF.ProjectId,AC_Current_Transformer,41435f43-7572-4726-956e-745f5472616e,rev?*%
%TF.SameCoordinates,Original*%
%TF.FileFunction,Copper,L1,Top*%
%TF.FilePolarity,Positive*%
%FSLAX46Y46*%
G04 Gerber Fmt 4.6, Leading zero omitted, Abs format (unit mm)*
G04 Created by KiCad (PCBNEW (5.1.8-0-10_14)) date 2020-11-19 18:25:59*
%MOMM*%
%LPD*%
G01*
G04 APERTURE LIST*
%TA.AperFunction,Profile*%
%ADD10C,0.050000*%
%TD*%
%TA.AperFunction,ComponentPad*%
%ADD11O,1.700000X1.700000*%
%TD*%
%TA.AperFunction,ComponentPad*%
%ADD12R,1.700000X1.700000*%
%TD*%
%TA.AperFunction,ComponentPad*%
%ADD13O,1.800000X2.800000*%
%TD*%
%TA.AperFunction,Conductor*%
%ADD14C,0.600000*%
%TD*%
G04 APERTURE END LIST*
D10*
X110600000Y-98100000D02*
X110600000Y-111100000D01*
X129600000Y-98100000D02*
X110600000Y-98100000D01*
X129600000Y-111100000D02*
X129600000Y-98100000D01*
X110600000Y-111100000D02*
X129600000Y-111100000D01*
D11*
%TO.P,J102,3*%
%TO.N,GND*%
X121920000Y-109220000D03*
%TO.P,J102,2*%
%TO.N,Net-(J101-PadS)*%
X119380000Y-109220000D03*
D12*
%TO.P,J102,1*%
%TO.N,+3V3*%
X116840000Y-109220000D03*
%TD*%
%TO.P,R103,2*%
%TO.N,GND*%
%TA.AperFunction,SMDPad,CuDef*%
G36*
G01*
X124325000Y-109325000D02*
X124875000Y-109325000D01*
G75*
G02*
X125075000Y-109525000I0J-200000D01*
G01*
X125075000Y-109925000D01*
G75*
G02*
X124875000Y-110125000I-200000J0D01*
G01*
X124325000Y-110125000D01*
G75*
G02*
X124125000Y-109925000I0J200000D01*
G01*
X124125000Y-109525000D01*
G75*
G02*
X124325000Y-109325000I200000J0D01*
G01*
G37*
%TD.AperFunction*%
%TO.P,R103,1*%
%TO.N,Net-(C101-Pad1)*%
%TA.AperFunction,SMDPad,CuDef*%
G36*
G01*
X124325000Y-107675000D02*
X124875000Y-107675000D01*
G75*
G02*
X125075000Y-107875000I0J-200000D01*
G01*
X125075000Y-108275000D01*
G75*
G02*
X124875000Y-108475000I-200000J0D01*
G01*
X124325000Y-108475000D01*
G75*
G02*
X124125000Y-108275000I0J200000D01*
G01*
X124125000Y-107875000D01*
G75*
G02*
X124325000Y-107675000I200000J0D01*
G01*
G37*
%TD.AperFunction*%
%TD*%
%TO.P,R102,2*%
%TO.N,Net-(C101-Pad1)*%
%TA.AperFunction,SMDPad,CuDef*%
G36*
G01*
X112875000Y-109525000D02*
X112875000Y-110075000D01*
G75*
G02*
X112675000Y-110275000I-200000J0D01*
G01*
X112275000Y-110275000D01*
G75*
G02*
X112075000Y-110075000I0J200000D01*
G01*
X112075000Y-109525000D01*
G75*
G02*
X112275000Y-109325000I200000J0D01*
G01*
X112675000Y-109325000D01*
G75*
G02*
X112875000Y-109525000I0J-200000D01*
G01*
G37*
%TD.AperFunction*%
%TO.P,R102,1*%
%TO.N,+3V3*%
%TA.AperFunction,SMDPad,CuDef*%
G36*
G01*
X114525000Y-109525000D02*
X114525000Y-110075000D01*
G75*
G02*
X114325000Y-110275000I-200000J0D01*
G01*
X113925000Y-110275000D01*
G75*
G02*
X113725000Y-110075000I0J200000D01*
G01*
X113725000Y-109525000D01*
G75*
G02*
X113925000Y-109325000I200000J0D01*
G01*
X114325000Y-109325000D01*
G75*
G02*
X114525000Y-109525000I0J-200000D01*
G01*
G37*
%TD.AperFunction*%
%TD*%
%TO.P,R101,2*%
%TO.N,Net-(C101-Pad1)*%
%TA.AperFunction,SMDPad,CuDef*%
G36*
G01*
X112875000Y-107925000D02*
X112875000Y-108475000D01*
G75*
G02*
X112675000Y-108675000I-200000J0D01*
G01*
X112275000Y-108675000D01*
G75*
G02*
X112075000Y-108475000I0J200000D01*
G01*
X112075000Y-107925000D01*
G75*
G02*
X112275000Y-107725000I200000J0D01*
G01*
X112675000Y-107725000D01*
G75*
G02*
X112875000Y-107925000I0J-200000D01*
G01*
G37*
%TD.AperFunction*%
%TO.P,R101,1*%
%TO.N,Net-(J101-PadS)*%
%TA.AperFunction,SMDPad,CuDef*%
G36*
G01*
X114525000Y-107925000D02*
X114525000Y-108475000D01*
G75*
G02*
X114325000Y-108675000I-200000J0D01*
G01*
X113925000Y-108675000D01*
G75*
G02*
X113725000Y-108475000I0J200000D01*
G01*
X113725000Y-107925000D01*
G75*
G02*
X113925000Y-107725000I200000J0D01*
G01*
X114325000Y-107725000D01*
G75*
G02*
X114525000Y-107925000I0J-200000D01*
G01*
G37*
%TD.AperFunction*%
%TD*%
D13*
%TO.P,J101,RN*%
%TO.N,N/C*%
X122400000Y-102800000D03*
%TO.P,J101,TN*%
X127900000Y-102800000D03*
%TO.P,J101,R*%
X124200000Y-100800000D03*
%TO.P,J101,T*%
%TO.N,Net-(C101-Pad1)*%
X118700000Y-100800000D03*
%TO.P,J101,S*%
%TO.N,Net-(J101-PadS)*%
X116300000Y-102800000D03*
%TD*%
%TO.P,C101,2*%
%TO.N,GND*%
%TA.AperFunction,SMDPad,CuDef*%
G36*
G01*
X125950000Y-109225000D02*
X126450000Y-109225000D01*
G75*
G02*
X126675000Y-109450000I0J-225000D01*
G01*
X126675000Y-109900000D01*
G75*
G02*
X126450000Y-110125000I-225000J0D01*
G01*
X125950000Y-110125000D01*
G75*
G02*
X125725000Y-109900000I0J225000D01*
G01*
X125725000Y-109450000D01*
G75*
G02*
X125950000Y-109225000I225000J0D01*
G01*
G37*
%TD.AperFunction*%
%TO.P,C101,1*%
%TO.N,Net-(C101-Pad1)*%
%TA.AperFunction,SMDPad,CuDef*%
G36*
G01*
X125950000Y-107675000D02*
X126450000Y-107675000D01*
G75*
G02*
X126675000Y-107900000I0J-225000D01*
G01*
X126675000Y-108350000D01*
G75*
G02*
X126450000Y-108575000I-225000J0D01*
G01*
X125950000Y-108575000D01*
G75*
G02*
X125725000Y-108350000I0J225000D01*
G01*
X125725000Y-107900000D01*
G75*
G02*
X125950000Y-107675000I225000J0D01*
G01*
G37*
%TD.AperFunction*%
%TD*%
D14*
%TO.N,GND*%
X124650000Y-109675000D02*
X124600000Y-109725000D01*
X126200000Y-109675000D02*
X124650000Y-109675000D01*
X122425000Y-109725000D02*
X121920000Y-109220000D01*
X124600000Y-109725000D02*
X122425000Y-109725000D01*
%TO.N,Net-(C101-Pad1)*%
X124650000Y-108125000D02*
X124600000Y-108075000D01*
X126200000Y-108125000D02*
X124650000Y-108125000D01*
X124600000Y-108075000D02*
X123775000Y-108075000D01*
X118700000Y-103000000D02*
X118700000Y-100800000D01*
X123775000Y-108075000D02*
X118700000Y-103000000D01*
X112475000Y-109800000D02*
X112475000Y-108200000D01*
X112475000Y-108200000D02*
X112475000Y-102825000D01*
X114500000Y-100800000D02*
X118700000Y-100800000D01*
X112475000Y-102825000D02*
X114500000Y-100800000D01*
%TO.N,Net-(J101-PadS)*%
X114455001Y-107869999D02*
X118029999Y-107869999D01*
X118029999Y-107869999D02*
X119380000Y-109220000D01*
X114125000Y-108200000D02*
X114455001Y-107869999D01*
X119380000Y-105880000D02*
X116300000Y-102800000D01*
X119380000Y-109220000D02*
X119380000Y-105880000D01*
%TO.N,+3V3*%
X116260000Y-109800000D02*
X116840000Y-109220000D01*
X114125000Y-109800000D02*
X116260000Y-109800000D01*
%TD*%
M02*
