%TF.GenerationSoftware,KiCad,Pcbnew,(5.1.8-0-10_14)*%
%TF.CreationDate,2020-11-27T17:03:58+01:00*%
%TF.ProjectId,VibrationSensor,56696272-6174-4696-9f6e-53656e736f72,rev?*%
%TF.SameCoordinates,Original*%
%TF.FileFunction,Soldermask,Top*%
%TF.FilePolarity,Negative*%
%FSLAX46Y46*%
G04 Gerber Fmt 4.6, Leading zero omitted, Abs format (unit mm)*
G04 Created by KiCad (PCBNEW (5.1.8-0-10_14)) date 2020-11-27 17:03:58*
%MOMM*%
%LPD*%
G01*
G04 APERTURE LIST*
%TA.AperFunction,Profile*%
%ADD10C,0.050000*%
%TD*%
%ADD11O,1.700000X1.700000*%
%ADD12R,1.700000X1.700000*%
%ADD13C,8.400000*%
%ADD14R,0.375000X0.350000*%
%ADD15R,0.350000X0.375000*%
G04 APERTURE END LIST*
D10*
X126000000Y-110000000D02*
X138000000Y-110000000D01*
X138000000Y-94000000D02*
X138000000Y-110000000D01*
X140297982Y-90195702D02*
G75*
G03*
X138000000Y-94000000I1702018J-3624298D01*
G01*
X123702018Y-90195702D02*
G75*
G02*
X126000000Y-94000000I-1702018J-3624298D01*
G01*
X126000000Y-94000000D02*
X126000000Y-110000000D01*
X123702017Y-90195702D02*
G75*
G02*
X140297982Y-90195702I8297983J18195702D01*
G01*
D11*
%TO.C,J101*%
X127980000Y-101100000D03*
X130520000Y-101100000D03*
X133060000Y-101100000D03*
D12*
X135600000Y-101100000D03*
%TD*%
%TO.C,FB102*%
G36*
G01*
X131521250Y-96915000D02*
X130758750Y-96915000D01*
G75*
G02*
X130540000Y-96696250I0J218750D01*
G01*
X130540000Y-96258750D01*
G75*
G02*
X130758750Y-96040000I218750J0D01*
G01*
X131521250Y-96040000D01*
G75*
G02*
X131740000Y-96258750I0J-218750D01*
G01*
X131740000Y-96696250D01*
G75*
G02*
X131521250Y-96915000I-218750J0D01*
G01*
G37*
G36*
G01*
X131521250Y-99040000D02*
X130758750Y-99040000D01*
G75*
G02*
X130540000Y-98821250I0J218750D01*
G01*
X130540000Y-98383750D01*
G75*
G02*
X130758750Y-98165000I218750J0D01*
G01*
X131521250Y-98165000D01*
G75*
G02*
X131740000Y-98383750I0J-218750D01*
G01*
X131740000Y-98821250D01*
G75*
G02*
X131521250Y-99040000I-218750J0D01*
G01*
G37*
%TD*%
%TO.C,FB101*%
G36*
G01*
X133291250Y-96895000D02*
X132528750Y-96895000D01*
G75*
G02*
X132310000Y-96676250I0J218750D01*
G01*
X132310000Y-96238750D01*
G75*
G02*
X132528750Y-96020000I218750J0D01*
G01*
X133291250Y-96020000D01*
G75*
G02*
X133510000Y-96238750I0J-218750D01*
G01*
X133510000Y-96676250D01*
G75*
G02*
X133291250Y-96895000I-218750J0D01*
G01*
G37*
G36*
G01*
X133291250Y-99020000D02*
X132528750Y-99020000D01*
G75*
G02*
X132310000Y-98801250I0J218750D01*
G01*
X132310000Y-98363750D01*
G75*
G02*
X132528750Y-98145000I218750J0D01*
G01*
X133291250Y-98145000D01*
G75*
G02*
X133510000Y-98363750I0J-218750D01*
G01*
X133510000Y-98801250D01*
G75*
G02*
X133291250Y-99020000I-218750J0D01*
G01*
G37*
%TD*%
%TO.C,C105*%
G36*
G01*
X129150000Y-95630000D02*
X129150000Y-95970000D01*
G75*
G02*
X129010000Y-96110000I-140000J0D01*
G01*
X128730000Y-96110000D01*
G75*
G02*
X128590000Y-95970000I0J140000D01*
G01*
X128590000Y-95630000D01*
G75*
G02*
X128730000Y-95490000I140000J0D01*
G01*
X129010000Y-95490000D01*
G75*
G02*
X129150000Y-95630000I0J-140000D01*
G01*
G37*
G36*
G01*
X130110000Y-95630000D02*
X130110000Y-95970000D01*
G75*
G02*
X129970000Y-96110000I-140000J0D01*
G01*
X129690000Y-96110000D01*
G75*
G02*
X129550000Y-95970000I0J140000D01*
G01*
X129550000Y-95630000D01*
G75*
G02*
X129690000Y-95490000I140000J0D01*
G01*
X129970000Y-95490000D01*
G75*
G02*
X130110000Y-95630000I0J-140000D01*
G01*
G37*
%TD*%
%TO.C,C104*%
G36*
G01*
X134920000Y-95960000D02*
X134920000Y-95620000D01*
G75*
G02*
X135060000Y-95480000I140000J0D01*
G01*
X135340000Y-95480000D01*
G75*
G02*
X135480000Y-95620000I0J-140000D01*
G01*
X135480000Y-95960000D01*
G75*
G02*
X135340000Y-96100000I-140000J0D01*
G01*
X135060000Y-96100000D01*
G75*
G02*
X134920000Y-95960000I0J140000D01*
G01*
G37*
G36*
G01*
X133960000Y-95960000D02*
X133960000Y-95620000D01*
G75*
G02*
X134100000Y-95480000I140000J0D01*
G01*
X134380000Y-95480000D01*
G75*
G02*
X134520000Y-95620000I0J-140000D01*
G01*
X134520000Y-95960000D01*
G75*
G02*
X134380000Y-96100000I-140000J0D01*
G01*
X134100000Y-96100000D01*
G75*
G02*
X133960000Y-95960000I0J140000D01*
G01*
G37*
%TD*%
%TO.C,C103*%
G36*
G01*
X129760000Y-97455000D02*
X129260000Y-97455000D01*
G75*
G02*
X129035000Y-97230000I0J225000D01*
G01*
X129035000Y-96780000D01*
G75*
G02*
X129260000Y-96555000I225000J0D01*
G01*
X129760000Y-96555000D01*
G75*
G02*
X129985000Y-96780000I0J-225000D01*
G01*
X129985000Y-97230000D01*
G75*
G02*
X129760000Y-97455000I-225000J0D01*
G01*
G37*
G36*
G01*
X129760000Y-99005000D02*
X129260000Y-99005000D01*
G75*
G02*
X129035000Y-98780000I0J225000D01*
G01*
X129035000Y-98330000D01*
G75*
G02*
X129260000Y-98105000I225000J0D01*
G01*
X129760000Y-98105000D01*
G75*
G02*
X129985000Y-98330000I0J-225000D01*
G01*
X129985000Y-98780000D01*
G75*
G02*
X129760000Y-99005000I-225000J0D01*
G01*
G37*
%TD*%
%TO.C,C102*%
G36*
G01*
X134790000Y-97465000D02*
X134290000Y-97465000D01*
G75*
G02*
X134065000Y-97240000I0J225000D01*
G01*
X134065000Y-96790000D01*
G75*
G02*
X134290000Y-96565000I225000J0D01*
G01*
X134790000Y-96565000D01*
G75*
G02*
X135015000Y-96790000I0J-225000D01*
G01*
X135015000Y-97240000D01*
G75*
G02*
X134790000Y-97465000I-225000J0D01*
G01*
G37*
G36*
G01*
X134790000Y-99015000D02*
X134290000Y-99015000D01*
G75*
G02*
X134065000Y-98790000I0J225000D01*
G01*
X134065000Y-98340000D01*
G75*
G02*
X134290000Y-98115000I225000J0D01*
G01*
X134790000Y-98115000D01*
G75*
G02*
X135015000Y-98340000I0J-225000D01*
G01*
X135015000Y-98790000D01*
G75*
G02*
X134790000Y-99015000I-225000J0D01*
G01*
G37*
%TD*%
D13*
%TO.C,H101*%
X132000000Y-72000000D03*
%TD*%
D14*
%TO.C,U101*%
X131247500Y-94120000D03*
X131247500Y-93620000D03*
X132772500Y-93620000D03*
X132772500Y-94120000D03*
D15*
X131260000Y-93107500D03*
X131260000Y-94632500D03*
X132760000Y-93107500D03*
X132760000Y-94632500D03*
X132260000Y-93107500D03*
X131760000Y-93107500D03*
X132260000Y-94632500D03*
X131760000Y-94632500D03*
%TD*%
%TO.C,C305*%
G36*
G01*
X128470000Y-94200000D02*
X128130000Y-94200000D01*
G75*
G02*
X127990000Y-94060000I0J140000D01*
G01*
X127990000Y-93780000D01*
G75*
G02*
X128130000Y-93640000I140000J0D01*
G01*
X128470000Y-93640000D01*
G75*
G02*
X128610000Y-93780000I0J-140000D01*
G01*
X128610000Y-94060000D01*
G75*
G02*
X128470000Y-94200000I-140000J0D01*
G01*
G37*
G36*
G01*
X128470000Y-95160000D02*
X128130000Y-95160000D01*
G75*
G02*
X127990000Y-95020000I0J140000D01*
G01*
X127990000Y-94740000D01*
G75*
G02*
X128130000Y-94600000I140000J0D01*
G01*
X128470000Y-94600000D01*
G75*
G02*
X128610000Y-94740000I0J-140000D01*
G01*
X128610000Y-95020000D01*
G75*
G02*
X128470000Y-95160000I-140000J0D01*
G01*
G37*
%TD*%
%TO.C,C101*%
G36*
G01*
X129770000Y-93505000D02*
X129270000Y-93505000D01*
G75*
G02*
X129045000Y-93280000I0J225000D01*
G01*
X129045000Y-92830000D01*
G75*
G02*
X129270000Y-92605000I225000J0D01*
G01*
X129770000Y-92605000D01*
G75*
G02*
X129995000Y-92830000I0J-225000D01*
G01*
X129995000Y-93280000D01*
G75*
G02*
X129770000Y-93505000I-225000J0D01*
G01*
G37*
G36*
G01*
X129770000Y-95055000D02*
X129270000Y-95055000D01*
G75*
G02*
X129045000Y-94830000I0J225000D01*
G01*
X129045000Y-94380000D01*
G75*
G02*
X129270000Y-94155000I225000J0D01*
G01*
X129770000Y-94155000D01*
G75*
G02*
X129995000Y-94380000I0J-225000D01*
G01*
X129995000Y-94830000D01*
G75*
G02*
X129770000Y-95055000I-225000J0D01*
G01*
G37*
%TD*%
M02*
