%TF.GenerationSoftware,KiCad,Pcbnew,(5.1.8-0-10_14)*%
%TF.CreationDate,2020-11-28T13:53:16+01:00*%
%TF.ProjectId,VibrationSensor,56696272-6174-4696-9f6e-53656e736f72,rev?*%
%TF.SameCoordinates,Original*%
%TF.FileFunction,Soldermask,Top*%
%TF.FilePolarity,Negative*%
%FSLAX46Y46*%
G04 Gerber Fmt 4.6, Leading zero omitted, Abs format (unit mm)*
G04 Created by KiCad (PCBNEW (5.1.8-0-10_14)) date 2020-11-28 13:53:16*
%MOMM*%
%LPD*%
G01*
G04 APERTURE LIST*
%TA.AperFunction,Profile*%
%ADD10C,0.050000*%
%TD*%
%ADD11R,2.000000X8.000000*%
%ADD12C,8.400000*%
G04 APERTURE END LIST*
D10*
X126000000Y-110000000D02*
X138000000Y-110000000D01*
X138000000Y-94000000D02*
X138000000Y-110000000D01*
X140297982Y-90195702D02*
G75*
G03*
X138000000Y-94000000I1702018J-3624298D01*
G01*
X123702018Y-90195702D02*
G75*
G02*
X126000000Y-94000000I-1702018J-3624298D01*
G01*
X126000000Y-94000000D02*
X126000000Y-110000000D01*
X123702017Y-90195702D02*
G75*
G02*
X140297982Y-90195702I8297983J18195702D01*
G01*
D11*
%TO.C,J101*%
X136000000Y-104620000D03*
X133460000Y-104620000D03*
X130920000Y-104620000D03*
X128380000Y-104620000D03*
%TD*%
%TO.C,C305*%
G36*
G01*
X136170000Y-97275000D02*
X135830000Y-97275000D01*
G75*
G02*
X135690000Y-97135000I0J140000D01*
G01*
X135690000Y-96855000D01*
G75*
G02*
X135830000Y-96715000I140000J0D01*
G01*
X136170000Y-96715000D01*
G75*
G02*
X136310000Y-96855000I0J-140000D01*
G01*
X136310000Y-97135000D01*
G75*
G02*
X136170000Y-97275000I-140000J0D01*
G01*
G37*
G36*
G01*
X136170000Y-98235000D02*
X135830000Y-98235000D01*
G75*
G02*
X135690000Y-98095000I0J140000D01*
G01*
X135690000Y-97815000D01*
G75*
G02*
X135830000Y-97675000I140000J0D01*
G01*
X136170000Y-97675000D01*
G75*
G02*
X136310000Y-97815000I0J-140000D01*
G01*
X136310000Y-98095000D01*
G75*
G02*
X136170000Y-98235000I-140000J0D01*
G01*
G37*
%TD*%
%TO.C,U101*%
G36*
G01*
X131400000Y-94875000D02*
X131175000Y-94875000D01*
G75*
G02*
X131125000Y-94825000I0J50000D01*
G01*
X131125000Y-94725000D01*
G75*
G02*
X131175000Y-94675000I50000J0D01*
G01*
X131400000Y-94675000D01*
G75*
G02*
X131450000Y-94725000I0J-50000D01*
G01*
X131450000Y-94825000D01*
G75*
G02*
X131400000Y-94875000I-50000J0D01*
G01*
G37*
G36*
G01*
X131400000Y-94525000D02*
X131175000Y-94525000D01*
G75*
G02*
X131125000Y-94475000I0J50000D01*
G01*
X131125000Y-94375000D01*
G75*
G02*
X131175000Y-94325000I50000J0D01*
G01*
X131400000Y-94325000D01*
G75*
G02*
X131450000Y-94375000I0J-50000D01*
G01*
X131450000Y-94475000D01*
G75*
G02*
X131400000Y-94525000I-50000J0D01*
G01*
G37*
G36*
G01*
X131400000Y-94175000D02*
X131175000Y-94175000D01*
G75*
G02*
X131125000Y-94125000I0J50000D01*
G01*
X131125000Y-94025000D01*
G75*
G02*
X131175000Y-93975000I50000J0D01*
G01*
X131400000Y-93975000D01*
G75*
G02*
X131450000Y-94025000I0J-50000D01*
G01*
X131450000Y-94125000D01*
G75*
G02*
X131400000Y-94175000I-50000J0D01*
G01*
G37*
G36*
G01*
X131575000Y-93825000D02*
X131475000Y-93825000D01*
G75*
G02*
X131425000Y-93775000I0J50000D01*
G01*
X131425000Y-93550000D01*
G75*
G02*
X131475000Y-93500000I50000J0D01*
G01*
X131575000Y-93500000D01*
G75*
G02*
X131625000Y-93550000I0J-50000D01*
G01*
X131625000Y-93775000D01*
G75*
G02*
X131575000Y-93825000I-50000J0D01*
G01*
G37*
G36*
G01*
X131925000Y-93825000D02*
X131825000Y-93825000D01*
G75*
G02*
X131775000Y-93775000I0J50000D01*
G01*
X131775000Y-93550000D01*
G75*
G02*
X131825000Y-93500000I50000J0D01*
G01*
X131925000Y-93500000D01*
G75*
G02*
X131975000Y-93550000I0J-50000D01*
G01*
X131975000Y-93775000D01*
G75*
G02*
X131925000Y-93825000I-50000J0D01*
G01*
G37*
G36*
G01*
X132275000Y-93825000D02*
X132175000Y-93825000D01*
G75*
G02*
X132125000Y-93775000I0J50000D01*
G01*
X132125000Y-93550000D01*
G75*
G02*
X132175000Y-93500000I50000J0D01*
G01*
X132275000Y-93500000D01*
G75*
G02*
X132325000Y-93550000I0J-50000D01*
G01*
X132325000Y-93775000D01*
G75*
G02*
X132275000Y-93825000I-50000J0D01*
G01*
G37*
G36*
G01*
X132625000Y-93825000D02*
X132525000Y-93825000D01*
G75*
G02*
X132475000Y-93775000I0J50000D01*
G01*
X132475000Y-93550000D01*
G75*
G02*
X132525000Y-93500000I50000J0D01*
G01*
X132625000Y-93500000D01*
G75*
G02*
X132675000Y-93550000I0J-50000D01*
G01*
X132675000Y-93775000D01*
G75*
G02*
X132625000Y-93825000I-50000J0D01*
G01*
G37*
G36*
G01*
X132925000Y-94175000D02*
X132700000Y-94175000D01*
G75*
G02*
X132650000Y-94125000I0J50000D01*
G01*
X132650000Y-94025000D01*
G75*
G02*
X132700000Y-93975000I50000J0D01*
G01*
X132925000Y-93975000D01*
G75*
G02*
X132975000Y-94025000I0J-50000D01*
G01*
X132975000Y-94125000D01*
G75*
G02*
X132925000Y-94175000I-50000J0D01*
G01*
G37*
G36*
G01*
X132925000Y-94525000D02*
X132700000Y-94525000D01*
G75*
G02*
X132650000Y-94475000I0J50000D01*
G01*
X132650000Y-94375000D01*
G75*
G02*
X132700000Y-94325000I50000J0D01*
G01*
X132925000Y-94325000D01*
G75*
G02*
X132975000Y-94375000I0J-50000D01*
G01*
X132975000Y-94475000D01*
G75*
G02*
X132925000Y-94525000I-50000J0D01*
G01*
G37*
G36*
G01*
X132925000Y-94875000D02*
X132700000Y-94875000D01*
G75*
G02*
X132650000Y-94825000I0J50000D01*
G01*
X132650000Y-94725000D01*
G75*
G02*
X132700000Y-94675000I50000J0D01*
G01*
X132925000Y-94675000D01*
G75*
G02*
X132975000Y-94725000I0J-50000D01*
G01*
X132975000Y-94825000D01*
G75*
G02*
X132925000Y-94875000I-50000J0D01*
G01*
G37*
G36*
G01*
X132625000Y-95350000D02*
X132525000Y-95350000D01*
G75*
G02*
X132475000Y-95300000I0J50000D01*
G01*
X132475000Y-95075000D01*
G75*
G02*
X132525000Y-95025000I50000J0D01*
G01*
X132625000Y-95025000D01*
G75*
G02*
X132675000Y-95075000I0J-50000D01*
G01*
X132675000Y-95300000D01*
G75*
G02*
X132625000Y-95350000I-50000J0D01*
G01*
G37*
G36*
G01*
X132275000Y-95350000D02*
X132175000Y-95350000D01*
G75*
G02*
X132125000Y-95300000I0J50000D01*
G01*
X132125000Y-95075000D01*
G75*
G02*
X132175000Y-95025000I50000J0D01*
G01*
X132275000Y-95025000D01*
G75*
G02*
X132325000Y-95075000I0J-50000D01*
G01*
X132325000Y-95300000D01*
G75*
G02*
X132275000Y-95350000I-50000J0D01*
G01*
G37*
G36*
G01*
X131925000Y-95350000D02*
X131825000Y-95350000D01*
G75*
G02*
X131775000Y-95300000I0J50000D01*
G01*
X131775000Y-95075000D01*
G75*
G02*
X131825000Y-95025000I50000J0D01*
G01*
X131925000Y-95025000D01*
G75*
G02*
X131975000Y-95075000I0J-50000D01*
G01*
X131975000Y-95300000D01*
G75*
G02*
X131925000Y-95350000I-50000J0D01*
G01*
G37*
G36*
G01*
X131575000Y-95350000D02*
X131475000Y-95350000D01*
G75*
G02*
X131425000Y-95300000I0J50000D01*
G01*
X131425000Y-95075000D01*
G75*
G02*
X131475000Y-95025000I50000J0D01*
G01*
X131575000Y-95025000D01*
G75*
G02*
X131625000Y-95075000I0J-50000D01*
G01*
X131625000Y-95300000D01*
G75*
G02*
X131575000Y-95350000I-50000J0D01*
G01*
G37*
%TD*%
%TO.C,FB102*%
G36*
G01*
X131721250Y-97165000D02*
X130958750Y-97165000D01*
G75*
G02*
X130740000Y-96946250I0J218750D01*
G01*
X130740000Y-96508750D01*
G75*
G02*
X130958750Y-96290000I218750J0D01*
G01*
X131721250Y-96290000D01*
G75*
G02*
X131940000Y-96508750I0J-218750D01*
G01*
X131940000Y-96946250D01*
G75*
G02*
X131721250Y-97165000I-218750J0D01*
G01*
G37*
G36*
G01*
X131721250Y-99290000D02*
X130958750Y-99290000D01*
G75*
G02*
X130740000Y-99071250I0J218750D01*
G01*
X130740000Y-98633750D01*
G75*
G02*
X130958750Y-98415000I218750J0D01*
G01*
X131721250Y-98415000D01*
G75*
G02*
X131940000Y-98633750I0J-218750D01*
G01*
X131940000Y-99071250D01*
G75*
G02*
X131721250Y-99290000I-218750J0D01*
G01*
G37*
%TD*%
%TO.C,FB101*%
G36*
G01*
X133491250Y-97145000D02*
X132728750Y-97145000D01*
G75*
G02*
X132510000Y-96926250I0J218750D01*
G01*
X132510000Y-96488750D01*
G75*
G02*
X132728750Y-96270000I218750J0D01*
G01*
X133491250Y-96270000D01*
G75*
G02*
X133710000Y-96488750I0J-218750D01*
G01*
X133710000Y-96926250D01*
G75*
G02*
X133491250Y-97145000I-218750J0D01*
G01*
G37*
G36*
G01*
X133491250Y-99270000D02*
X132728750Y-99270000D01*
G75*
G02*
X132510000Y-99051250I0J218750D01*
G01*
X132510000Y-98613750D01*
G75*
G02*
X132728750Y-98395000I218750J0D01*
G01*
X133491250Y-98395000D01*
G75*
G02*
X133710000Y-98613750I0J-218750D01*
G01*
X133710000Y-99051250D01*
G75*
G02*
X133491250Y-99270000I-218750J0D01*
G01*
G37*
%TD*%
%TO.C,C105*%
G36*
G01*
X129350000Y-95880000D02*
X129350000Y-96220000D01*
G75*
G02*
X129210000Y-96360000I-140000J0D01*
G01*
X128930000Y-96360000D01*
G75*
G02*
X128790000Y-96220000I0J140000D01*
G01*
X128790000Y-95880000D01*
G75*
G02*
X128930000Y-95740000I140000J0D01*
G01*
X129210000Y-95740000D01*
G75*
G02*
X129350000Y-95880000I0J-140000D01*
G01*
G37*
G36*
G01*
X130310000Y-95880000D02*
X130310000Y-96220000D01*
G75*
G02*
X130170000Y-96360000I-140000J0D01*
G01*
X129890000Y-96360000D01*
G75*
G02*
X129750000Y-96220000I0J140000D01*
G01*
X129750000Y-95880000D01*
G75*
G02*
X129890000Y-95740000I140000J0D01*
G01*
X130170000Y-95740000D01*
G75*
G02*
X130310000Y-95880000I0J-140000D01*
G01*
G37*
%TD*%
%TO.C,C104*%
G36*
G01*
X135120000Y-96210000D02*
X135120000Y-95870000D01*
G75*
G02*
X135260000Y-95730000I140000J0D01*
G01*
X135540000Y-95730000D01*
G75*
G02*
X135680000Y-95870000I0J-140000D01*
G01*
X135680000Y-96210000D01*
G75*
G02*
X135540000Y-96350000I-140000J0D01*
G01*
X135260000Y-96350000D01*
G75*
G02*
X135120000Y-96210000I0J140000D01*
G01*
G37*
G36*
G01*
X134160000Y-96210000D02*
X134160000Y-95870000D01*
G75*
G02*
X134300000Y-95730000I140000J0D01*
G01*
X134580000Y-95730000D01*
G75*
G02*
X134720000Y-95870000I0J-140000D01*
G01*
X134720000Y-96210000D01*
G75*
G02*
X134580000Y-96350000I-140000J0D01*
G01*
X134300000Y-96350000D01*
G75*
G02*
X134160000Y-96210000I0J140000D01*
G01*
G37*
%TD*%
%TO.C,C103*%
G36*
G01*
X129960000Y-97705000D02*
X129460000Y-97705000D01*
G75*
G02*
X129235000Y-97480000I0J225000D01*
G01*
X129235000Y-97030000D01*
G75*
G02*
X129460000Y-96805000I225000J0D01*
G01*
X129960000Y-96805000D01*
G75*
G02*
X130185000Y-97030000I0J-225000D01*
G01*
X130185000Y-97480000D01*
G75*
G02*
X129960000Y-97705000I-225000J0D01*
G01*
G37*
G36*
G01*
X129960000Y-99255000D02*
X129460000Y-99255000D01*
G75*
G02*
X129235000Y-99030000I0J225000D01*
G01*
X129235000Y-98580000D01*
G75*
G02*
X129460000Y-98355000I225000J0D01*
G01*
X129960000Y-98355000D01*
G75*
G02*
X130185000Y-98580000I0J-225000D01*
G01*
X130185000Y-99030000D01*
G75*
G02*
X129960000Y-99255000I-225000J0D01*
G01*
G37*
%TD*%
%TO.C,C102*%
G36*
G01*
X134990000Y-97715000D02*
X134490000Y-97715000D01*
G75*
G02*
X134265000Y-97490000I0J225000D01*
G01*
X134265000Y-97040000D01*
G75*
G02*
X134490000Y-96815000I225000J0D01*
G01*
X134990000Y-96815000D01*
G75*
G02*
X135215000Y-97040000I0J-225000D01*
G01*
X135215000Y-97490000D01*
G75*
G02*
X134990000Y-97715000I-225000J0D01*
G01*
G37*
G36*
G01*
X134990000Y-99265000D02*
X134490000Y-99265000D01*
G75*
G02*
X134265000Y-99040000I0J225000D01*
G01*
X134265000Y-98590000D01*
G75*
G02*
X134490000Y-98365000I225000J0D01*
G01*
X134990000Y-98365000D01*
G75*
G02*
X135215000Y-98590000I0J-225000D01*
G01*
X135215000Y-99040000D01*
G75*
G02*
X134990000Y-99265000I-225000J0D01*
G01*
G37*
%TD*%
D12*
%TO.C,H101*%
X132000000Y-72000000D03*
%TD*%
%TO.C,C101*%
G36*
G01*
X135400000Y-95075000D02*
X135400000Y-94575000D01*
G75*
G02*
X135625000Y-94350000I225000J0D01*
G01*
X136075000Y-94350000D01*
G75*
G02*
X136300000Y-94575000I0J-225000D01*
G01*
X136300000Y-95075000D01*
G75*
G02*
X136075000Y-95300000I-225000J0D01*
G01*
X135625000Y-95300000D01*
G75*
G02*
X135400000Y-95075000I0J225000D01*
G01*
G37*
G36*
G01*
X133850000Y-95075000D02*
X133850000Y-94575000D01*
G75*
G02*
X134075000Y-94350000I225000J0D01*
G01*
X134525000Y-94350000D01*
G75*
G02*
X134750000Y-94575000I0J-225000D01*
G01*
X134750000Y-95075000D01*
G75*
G02*
X134525000Y-95300000I-225000J0D01*
G01*
X134075000Y-95300000D01*
G75*
G02*
X133850000Y-95075000I0J225000D01*
G01*
G37*
%TD*%
M02*
