%TF.GenerationSoftware,KiCad,Pcbnew,(5.1.8-0-10_14)*%
%TF.CreationDate,2020-11-30T14:10:51+01:00*%
%TF.ProjectId,FET_Multi,4645545f-4d75-46c7-9469-2e6b69636164,0.2.0*%
%TF.SameCoordinates,Original*%
%TF.FileFunction,Copper,L3,Inr*%
%TF.FilePolarity,Positive*%
%FSLAX46Y46*%
G04 Gerber Fmt 4.6, Leading zero omitted, Abs format (unit mm)*
G04 Created by KiCad (PCBNEW (5.1.8-0-10_14)) date 2020-11-30 14:10:51*
%MOMM*%
%LPD*%
G01*
G04 APERTURE LIST*
%TA.AperFunction,Profile*%
%ADD10C,0.050000*%
%TD*%
%TA.AperFunction,ComponentPad*%
%ADD11O,4.000000X6.000000*%
%TD*%
%TA.AperFunction,ComponentPad*%
%ADD12O,1.800000X3.600000*%
%TD*%
%TA.AperFunction,ComponentPad*%
%ADD13O,1.700000X1.700000*%
%TD*%
%TA.AperFunction,ComponentPad*%
%ADD14R,1.700000X1.700000*%
%TD*%
%TA.AperFunction,ViaPad*%
%ADD15C,0.800000*%
%TD*%
%TA.AperFunction,ViaPad*%
%ADD16C,0.600000*%
%TD*%
%TA.AperFunction,ViaPad*%
%ADD17C,1.000000*%
%TD*%
%TA.AperFunction,Conductor*%
%ADD18C,0.254000*%
%TD*%
%TA.AperFunction,Conductor*%
%ADD19C,0.100000*%
%TD*%
G04 APERTURE END LIST*
D10*
X89000000Y-65500000D02*
X89000000Y-106500000D01*
X170500000Y-115000000D02*
G75*
G02*
X179000000Y-106500000I8500000J0D01*
G01*
X89000000Y-106500000D02*
G75*
G02*
X97500000Y-115000000I0J-8500000D01*
G01*
X179000000Y-65500000D02*
G75*
G02*
X170500000Y-57000000I0J8500000D01*
G01*
X97500000Y-57000000D02*
G75*
G02*
X89000000Y-65500000I-8500000J0D01*
G01*
X179000000Y-106500000D02*
X179000000Y-65500000D01*
X170500000Y-115000000D02*
X97500000Y-115000000D01*
X170500000Y-57000000D02*
X97500000Y-57000000D01*
D11*
%TO.N,/VOUT4*%
%TO.C,J103*%
X168000000Y-71700000D03*
%TO.N,/VIN4*%
X168000000Y-81200000D03*
%TO.N,/VOUT3*%
X168000000Y-90700000D03*
%TO.N,/VIN3*%
X168000000Y-100200000D03*
%TO.N,/VOUT4*%
X173800000Y-71700000D03*
%TO.N,/VIN4*%
X173800000Y-81200000D03*
%TO.N,/VOUT3*%
X173800000Y-90700000D03*
%TO.N,/VIN3*%
X173800000Y-100200000D03*
%TD*%
%TO.N,/VOUT2*%
%TO.C,J102*%
X99900000Y-100200000D03*
%TO.N,/VIN2*%
X99900000Y-90700000D03*
%TO.N,/VOUT1*%
X99900000Y-81200000D03*
%TO.N,/VIN1*%
X99900000Y-71700000D03*
%TO.N,/VOUT2*%
X94100000Y-100200000D03*
%TO.N,/VIN2*%
X94100000Y-90700000D03*
%TO.N,/VOUT1*%
X94100000Y-81200000D03*
%TO.N,/VIN1*%
X94100000Y-71700000D03*
%TD*%
D12*
%TO.N,GND2*%
%TO.C,J303*%
X166030000Y-61800000D03*
X162220000Y-61800000D03*
%TO.N,/Opto Input/ISO_IN_4*%
X158410000Y-61800000D03*
%TO.N,/Opto Input/ISO_IN_3*%
%TA.AperFunction,ComponentPad*%
G36*
G01*
X153700000Y-63350000D02*
X153700000Y-60250000D01*
G75*
G02*
X153950000Y-60000000I250000J0D01*
G01*
X155250000Y-60000000D01*
G75*
G02*
X155500000Y-60250000I0J-250000D01*
G01*
X155500000Y-63350000D01*
G75*
G02*
X155250000Y-63600000I-250000J0D01*
G01*
X153950000Y-63600000D01*
G75*
G02*
X153700000Y-63350000I0J250000D01*
G01*
G37*
%TD.AperFunction*%
%TD*%
%TO.N,GND1*%
%TO.C,J302*%
X102170000Y-110100000D03*
X105980000Y-110100000D03*
%TO.N,/Opto Input/ISO_IN_2*%
X109790000Y-110100000D03*
%TO.N,/Opto Input/ISO_IN_1*%
%TA.AperFunction,ComponentPad*%
G36*
G01*
X114500000Y-108550000D02*
X114500000Y-111650000D01*
G75*
G02*
X114250000Y-111900000I-250000J0D01*
G01*
X112950000Y-111900000D01*
G75*
G02*
X112700000Y-111650000I0J250000D01*
G01*
X112700000Y-108550000D01*
G75*
G02*
X112950000Y-108300000I250000J0D01*
G01*
X114250000Y-108300000D01*
G75*
G02*
X114500000Y-108550000I0J-250000D01*
G01*
G37*
%TD.AperFunction*%
%TD*%
D13*
%TO.N,+3V3*%
%TO.C,J106*%
X137020000Y-99740000D03*
%TO.N,/A2*%
X137020000Y-97200000D03*
%TO.N,+3V3*%
X139560000Y-99740000D03*
%TO.N,/A1*%
X139560000Y-97200000D03*
%TO.N,+3V3*%
X142100000Y-99740000D03*
D14*
%TO.N,/A0*%
X142100000Y-97200000D03*
%TD*%
D13*
%TO.N,/SDA*%
%TO.C,J101*%
X127680000Y-61340000D03*
X127680000Y-63880000D03*
%TO.N,/SCL*%
X125140000Y-61340000D03*
X125140000Y-63880000D03*
%TO.N,+3V3*%
X122600000Y-61340000D03*
X122600000Y-63880000D03*
%TO.N,GND*%
X120060000Y-61340000D03*
D14*
X120060000Y-63880000D03*
%TD*%
D15*
%TO.N,+3V3*%
X122400000Y-66000000D03*
X122600000Y-68900000D03*
X139000000Y-91000000D03*
X129000000Y-81500000D03*
D16*
X131400000Y-86000000D03*
X129900000Y-104400000D03*
X139600000Y-67700000D03*
D15*
X128800000Y-99100000D03*
X128800000Y-108400000D03*
X134600000Y-99900000D03*
X139400000Y-73400000D03*
X133000000Y-60200000D03*
X139500000Y-66000000D03*
%TO.N,GND*%
X129876250Y-93876250D03*
X129876250Y-89076250D03*
X138900000Y-77850000D03*
X138493750Y-82593750D03*
X131500000Y-75600000D03*
X131300000Y-78300000D03*
X137100000Y-104700000D03*
X139600000Y-104700000D03*
X142100000Y-104700000D03*
D16*
X137300000Y-67700000D03*
X129900000Y-106500000D03*
D15*
X130800000Y-98700000D03*
X128100000Y-103500000D03*
X130700000Y-108100000D03*
X127500000Y-113000000D03*
X134600000Y-97600000D03*
X137500000Y-73600000D03*
X140700000Y-68700000D03*
X131800000Y-64600000D03*
X132000000Y-60200000D03*
X137900000Y-66200000D03*
X140800000Y-63000000D03*
%TO.N,GND1*%
X121200000Y-94400000D03*
X121200000Y-89800000D03*
X109700000Y-87100000D03*
X120000000Y-105800000D03*
X118600000Y-113400000D03*
X122400000Y-101600000D03*
X122400000Y-110900000D03*
%TO.N,GND2*%
X158000000Y-84600000D03*
X147100000Y-81850000D03*
X147050000Y-77200000D03*
X148350000Y-66600000D03*
X149450000Y-59400000D03*
X145800000Y-70700000D03*
X145900000Y-63100000D03*
D17*
%TO.N,/VOUT1*%
X108750000Y-80250000D03*
X108750000Y-78500000D03*
X108750000Y-81750000D03*
X108750000Y-83500000D03*
X107250000Y-79000000D03*
X107250000Y-80750000D03*
X107250000Y-82250000D03*
X107250000Y-84000000D03*
X105750000Y-83250000D03*
X105750000Y-78250000D03*
X105750000Y-80000000D03*
X105750000Y-81500000D03*
X99250000Y-79500000D03*
X99250000Y-82500000D03*
%TO.N,/VOUT2*%
X108000000Y-97500000D03*
X106500000Y-103000000D03*
X106500000Y-98000000D03*
X105000000Y-100500000D03*
X106500000Y-99750000D03*
X106500000Y-101250000D03*
X108000000Y-99250000D03*
X108000000Y-100750000D03*
X108000000Y-102500000D03*
X99750000Y-98000000D03*
X99750000Y-102250000D03*
X105000000Y-102250000D03*
X105000000Y-98750000D03*
X105000000Y-97000000D03*
%TO.N,/VOUT3*%
X159000000Y-92500000D03*
X159000000Y-88750000D03*
X160500000Y-87750000D03*
X160000000Y-94000000D03*
X160000000Y-90750000D03*
X161250000Y-92250000D03*
X161250000Y-89500000D03*
X162750000Y-90750000D03*
X169000000Y-91750000D03*
X169000000Y-89500000D03*
X162750000Y-88250000D03*
%TO.N,/VOUT4*%
X160000000Y-75000000D03*
X160000000Y-72250000D03*
X160000000Y-69500000D03*
X161750000Y-68500000D03*
X161750000Y-74000000D03*
X161750000Y-71000000D03*
X163500000Y-72250000D03*
X168750000Y-69750000D03*
X168750000Y-73250000D03*
X163500000Y-69750000D03*
%TO.N,/VIN2*%
X107750000Y-89000000D03*
X107750000Y-90750000D03*
X107750000Y-92250000D03*
X107750000Y-94000000D03*
X106250000Y-89750000D03*
X106250000Y-91500000D03*
X106250000Y-93250000D03*
X103250000Y-87500000D03*
X99750000Y-89250000D03*
X99750000Y-92000000D03*
%TO.N,/VIN1*%
X108375000Y-69125000D03*
X107250000Y-70500000D03*
X107250000Y-72000000D03*
X107250000Y-73500000D03*
X108500000Y-74500000D03*
X104750000Y-70500000D03*
X104750000Y-72000000D03*
X104750000Y-73500000D03*
X106000000Y-69250000D03*
X106250000Y-74500000D03*
X99000000Y-70000000D03*
X99000000Y-72500000D03*
%TO.N,/VIN4*%
X160500000Y-78250000D03*
X160500000Y-80000000D03*
X160500000Y-81750000D03*
X160500000Y-83250000D03*
X162250000Y-79000000D03*
X162500000Y-81000000D03*
X162500000Y-82750000D03*
X168750000Y-79000000D03*
X168750000Y-82250000D03*
%TO.N,/VIN3*%
X160000000Y-101500000D03*
X159750000Y-100000000D03*
X159500000Y-97750000D03*
X163500000Y-103000000D03*
X160500000Y-103250000D03*
X162250000Y-101000000D03*
X162250000Y-98250000D03*
X169000000Y-99000000D03*
X169000000Y-101250000D03*
%TD*%
D18*
%TO.N,+3V3*%
X141373000Y-62403447D02*
X141327181Y-62357628D01*
X141191731Y-62267123D01*
X141041227Y-62204782D01*
X140881452Y-62173000D01*
X140718548Y-62173000D01*
X140558773Y-62204782D01*
X140408269Y-62267123D01*
X140272819Y-62357628D01*
X140157628Y-62472819D01*
X140067123Y-62608269D01*
X140004782Y-62758773D01*
X139973000Y-62918548D01*
X139973000Y-63081452D01*
X140004782Y-63241227D01*
X140067123Y-63391731D01*
X140157628Y-63527181D01*
X140272819Y-63642372D01*
X140408269Y-63732877D01*
X140558773Y-63795218D01*
X140718548Y-63827000D01*
X140881452Y-63827000D01*
X141041227Y-63795218D01*
X141191731Y-63732877D01*
X141327181Y-63642372D01*
X141373000Y-63596553D01*
X141373000Y-68218657D01*
X141342372Y-68172819D01*
X141227181Y-68057628D01*
X141091731Y-67967123D01*
X140941227Y-67904782D01*
X140781452Y-67873000D01*
X140618548Y-67873000D01*
X140458773Y-67904782D01*
X140308269Y-67967123D01*
X140172819Y-68057628D01*
X140057628Y-68172819D01*
X139967123Y-68308269D01*
X139904782Y-68458773D01*
X139873000Y-68618548D01*
X139873000Y-68781452D01*
X139904782Y-68941227D01*
X139967123Y-69091731D01*
X140057628Y-69227181D01*
X140172819Y-69342372D01*
X140308269Y-69432877D01*
X140458773Y-69495218D01*
X140618548Y-69527000D01*
X140781452Y-69527000D01*
X140941227Y-69495218D01*
X141091731Y-69432877D01*
X141227181Y-69342372D01*
X141342372Y-69227181D01*
X141373000Y-69181343D01*
X141373000Y-89000000D01*
X141375440Y-89024776D01*
X141382667Y-89048601D01*
X141394403Y-89070557D01*
X141410197Y-89089803D01*
X141429443Y-89105597D01*
X141451399Y-89117333D01*
X141475224Y-89124560D01*
X141500000Y-89127000D01*
X146873000Y-89127000D01*
X146873000Y-114548000D01*
X127127000Y-114548000D01*
X127127000Y-113740636D01*
X127258773Y-113795218D01*
X127418548Y-113827000D01*
X127581452Y-113827000D01*
X127741227Y-113795218D01*
X127891731Y-113732877D01*
X128027181Y-113642372D01*
X128142372Y-113527181D01*
X128232877Y-113391731D01*
X128295218Y-113241227D01*
X128327000Y-113081452D01*
X128327000Y-112918548D01*
X128295218Y-112758773D01*
X128232877Y-112608269D01*
X128142372Y-112472819D01*
X128027181Y-112357628D01*
X127891731Y-112267123D01*
X127741227Y-112204782D01*
X127581452Y-112173000D01*
X127418548Y-112173000D01*
X127258773Y-112204782D01*
X127127000Y-112259364D01*
X127127000Y-108018548D01*
X129873000Y-108018548D01*
X129873000Y-108181452D01*
X129904782Y-108341227D01*
X129967123Y-108491731D01*
X130057628Y-108627181D01*
X130172819Y-108742372D01*
X130308269Y-108832877D01*
X130458773Y-108895218D01*
X130618548Y-108927000D01*
X130781452Y-108927000D01*
X130941227Y-108895218D01*
X131091731Y-108832877D01*
X131227181Y-108742372D01*
X131342372Y-108627181D01*
X131432877Y-108491731D01*
X131495218Y-108341227D01*
X131527000Y-108181452D01*
X131527000Y-108018548D01*
X131495218Y-107858773D01*
X131432877Y-107708269D01*
X131342372Y-107572819D01*
X131227181Y-107457628D01*
X131091731Y-107367123D01*
X130941227Y-107304782D01*
X130781452Y-107273000D01*
X130618548Y-107273000D01*
X130458773Y-107304782D01*
X130308269Y-107367123D01*
X130172819Y-107457628D01*
X130057628Y-107572819D01*
X129967123Y-107708269D01*
X129904782Y-107858773D01*
X129873000Y-108018548D01*
X127127000Y-108018548D01*
X127127000Y-106428397D01*
X129173000Y-106428397D01*
X129173000Y-106571603D01*
X129200938Y-106712058D01*
X129255741Y-106844364D01*
X129335302Y-106963436D01*
X129436564Y-107064698D01*
X129555636Y-107144259D01*
X129687942Y-107199062D01*
X129828397Y-107227000D01*
X129971603Y-107227000D01*
X130112058Y-107199062D01*
X130244364Y-107144259D01*
X130363436Y-107064698D01*
X130464698Y-106963436D01*
X130544259Y-106844364D01*
X130599062Y-106712058D01*
X130627000Y-106571603D01*
X130627000Y-106428397D01*
X130599062Y-106287942D01*
X130544259Y-106155636D01*
X130464698Y-106036564D01*
X130363436Y-105935302D01*
X130244364Y-105855741D01*
X130112058Y-105800938D01*
X129971603Y-105773000D01*
X129828397Y-105773000D01*
X129687942Y-105800938D01*
X129555636Y-105855741D01*
X129436564Y-105935302D01*
X129335302Y-106036564D01*
X129255741Y-106155636D01*
X129200938Y-106287942D01*
X129173000Y-106428397D01*
X127127000Y-106428397D01*
X127127000Y-104618548D01*
X136273000Y-104618548D01*
X136273000Y-104781452D01*
X136304782Y-104941227D01*
X136367123Y-105091731D01*
X136457628Y-105227181D01*
X136572819Y-105342372D01*
X136708269Y-105432877D01*
X136858773Y-105495218D01*
X137018548Y-105527000D01*
X137181452Y-105527000D01*
X137341227Y-105495218D01*
X137491731Y-105432877D01*
X137627181Y-105342372D01*
X137742372Y-105227181D01*
X137832877Y-105091731D01*
X137895218Y-104941227D01*
X137927000Y-104781452D01*
X137927000Y-104618548D01*
X138773000Y-104618548D01*
X138773000Y-104781452D01*
X138804782Y-104941227D01*
X138867123Y-105091731D01*
X138957628Y-105227181D01*
X139072819Y-105342372D01*
X139208269Y-105432877D01*
X139358773Y-105495218D01*
X139518548Y-105527000D01*
X139681452Y-105527000D01*
X139841227Y-105495218D01*
X139991731Y-105432877D01*
X140127181Y-105342372D01*
X140242372Y-105227181D01*
X140332877Y-105091731D01*
X140395218Y-104941227D01*
X140427000Y-104781452D01*
X140427000Y-104618548D01*
X141273000Y-104618548D01*
X141273000Y-104781452D01*
X141304782Y-104941227D01*
X141367123Y-105091731D01*
X141457628Y-105227181D01*
X141572819Y-105342372D01*
X141708269Y-105432877D01*
X141858773Y-105495218D01*
X142018548Y-105527000D01*
X142181452Y-105527000D01*
X142341227Y-105495218D01*
X142491731Y-105432877D01*
X142627181Y-105342372D01*
X142742372Y-105227181D01*
X142832877Y-105091731D01*
X142895218Y-104941227D01*
X142927000Y-104781452D01*
X142927000Y-104618548D01*
X142895218Y-104458773D01*
X142832877Y-104308269D01*
X142742372Y-104172819D01*
X142627181Y-104057628D01*
X142491731Y-103967123D01*
X142341227Y-103904782D01*
X142181452Y-103873000D01*
X142018548Y-103873000D01*
X141858773Y-103904782D01*
X141708269Y-103967123D01*
X141572819Y-104057628D01*
X141457628Y-104172819D01*
X141367123Y-104308269D01*
X141304782Y-104458773D01*
X141273000Y-104618548D01*
X140427000Y-104618548D01*
X140395218Y-104458773D01*
X140332877Y-104308269D01*
X140242372Y-104172819D01*
X140127181Y-104057628D01*
X139991731Y-103967123D01*
X139841227Y-103904782D01*
X139681452Y-103873000D01*
X139518548Y-103873000D01*
X139358773Y-103904782D01*
X139208269Y-103967123D01*
X139072819Y-104057628D01*
X138957628Y-104172819D01*
X138867123Y-104308269D01*
X138804782Y-104458773D01*
X138773000Y-104618548D01*
X137927000Y-104618548D01*
X137895218Y-104458773D01*
X137832877Y-104308269D01*
X137742372Y-104172819D01*
X137627181Y-104057628D01*
X137491731Y-103967123D01*
X137341227Y-103904782D01*
X137181452Y-103873000D01*
X137018548Y-103873000D01*
X136858773Y-103904782D01*
X136708269Y-103967123D01*
X136572819Y-104057628D01*
X136457628Y-104172819D01*
X136367123Y-104308269D01*
X136304782Y-104458773D01*
X136273000Y-104618548D01*
X127127000Y-104618548D01*
X127127000Y-103418548D01*
X127273000Y-103418548D01*
X127273000Y-103581452D01*
X127304782Y-103741227D01*
X127367123Y-103891731D01*
X127457628Y-104027181D01*
X127572819Y-104142372D01*
X127708269Y-104232877D01*
X127858773Y-104295218D01*
X128018548Y-104327000D01*
X128181452Y-104327000D01*
X128341227Y-104295218D01*
X128491731Y-104232877D01*
X128627181Y-104142372D01*
X128742372Y-104027181D01*
X128832877Y-103891731D01*
X128895218Y-103741227D01*
X128927000Y-103581452D01*
X128927000Y-103418548D01*
X128895218Y-103258773D01*
X128832877Y-103108269D01*
X128742372Y-102972819D01*
X128627181Y-102857628D01*
X128491731Y-102767123D01*
X128341227Y-102704782D01*
X128181452Y-102673000D01*
X128018548Y-102673000D01*
X127858773Y-102704782D01*
X127708269Y-102767123D01*
X127572819Y-102857628D01*
X127457628Y-102972819D01*
X127367123Y-103108269D01*
X127304782Y-103258773D01*
X127273000Y-103418548D01*
X127127000Y-103418548D01*
X127127000Y-98618548D01*
X129973000Y-98618548D01*
X129973000Y-98781452D01*
X130004782Y-98941227D01*
X130067123Y-99091731D01*
X130157628Y-99227181D01*
X130272819Y-99342372D01*
X130408269Y-99432877D01*
X130558773Y-99495218D01*
X130718548Y-99527000D01*
X130881452Y-99527000D01*
X131041227Y-99495218D01*
X131191731Y-99432877D01*
X131327181Y-99342372D01*
X131442372Y-99227181D01*
X131532877Y-99091731D01*
X131595218Y-98941227D01*
X131627000Y-98781452D01*
X131627000Y-98618548D01*
X131595218Y-98458773D01*
X131532877Y-98308269D01*
X131442372Y-98172819D01*
X131327181Y-98057628D01*
X131191731Y-97967123D01*
X131041227Y-97904782D01*
X130881452Y-97873000D01*
X130718548Y-97873000D01*
X130558773Y-97904782D01*
X130408269Y-97967123D01*
X130272819Y-98057628D01*
X130157628Y-98172819D01*
X130067123Y-98308269D01*
X130004782Y-98458773D01*
X129973000Y-98618548D01*
X127127000Y-98618548D01*
X127127000Y-97518548D01*
X133773000Y-97518548D01*
X133773000Y-97681452D01*
X133804782Y-97841227D01*
X133867123Y-97991731D01*
X133957628Y-98127181D01*
X134072819Y-98242372D01*
X134208269Y-98332877D01*
X134358773Y-98395218D01*
X134518548Y-98427000D01*
X134681452Y-98427000D01*
X134841227Y-98395218D01*
X134991731Y-98332877D01*
X135127181Y-98242372D01*
X135242372Y-98127181D01*
X135332877Y-97991731D01*
X135395218Y-97841227D01*
X135427000Y-97681452D01*
X135427000Y-97518548D01*
X135395218Y-97358773D01*
X135332877Y-97208269D01*
X135243313Y-97074226D01*
X135743000Y-97074226D01*
X135743000Y-97325774D01*
X135792074Y-97572487D01*
X135888337Y-97804886D01*
X136028089Y-98014040D01*
X136205960Y-98191911D01*
X136415114Y-98331663D01*
X136647513Y-98427926D01*
X136894226Y-98477000D01*
X137145774Y-98477000D01*
X137392487Y-98427926D01*
X137624886Y-98331663D01*
X137834040Y-98191911D01*
X138011911Y-98014040D01*
X138151663Y-97804886D01*
X138247926Y-97572487D01*
X138290000Y-97360966D01*
X138332074Y-97572487D01*
X138428337Y-97804886D01*
X138568089Y-98014040D01*
X138745960Y-98191911D01*
X138955114Y-98331663D01*
X139187513Y-98427926D01*
X139434226Y-98477000D01*
X139685774Y-98477000D01*
X139932487Y-98427926D01*
X140164886Y-98331663D01*
X140374040Y-98191911D01*
X140551911Y-98014040D01*
X140691663Y-97804886D01*
X140787926Y-97572487D01*
X140820934Y-97406544D01*
X140820934Y-98050000D01*
X140829178Y-98133707D01*
X140853595Y-98214196D01*
X140893245Y-98288376D01*
X140946605Y-98353395D01*
X141011624Y-98406755D01*
X141085804Y-98446405D01*
X141166293Y-98470822D01*
X141250000Y-98479066D01*
X142950000Y-98479066D01*
X143033707Y-98470822D01*
X143114196Y-98446405D01*
X143188376Y-98406755D01*
X143253395Y-98353395D01*
X143306755Y-98288376D01*
X143346405Y-98214196D01*
X143370822Y-98133707D01*
X143379066Y-98050000D01*
X143379066Y-96350000D01*
X143370822Y-96266293D01*
X143346405Y-96185804D01*
X143306755Y-96111624D01*
X143253395Y-96046605D01*
X143188376Y-95993245D01*
X143114196Y-95953595D01*
X143033707Y-95929178D01*
X142950000Y-95920934D01*
X141250000Y-95920934D01*
X141166293Y-95929178D01*
X141085804Y-95953595D01*
X141011624Y-95993245D01*
X140946605Y-96046605D01*
X140893245Y-96111624D01*
X140853595Y-96185804D01*
X140829178Y-96266293D01*
X140820934Y-96350000D01*
X140820934Y-96993456D01*
X140787926Y-96827513D01*
X140691663Y-96595114D01*
X140551911Y-96385960D01*
X140374040Y-96208089D01*
X140164886Y-96068337D01*
X139932487Y-95972074D01*
X139685774Y-95923000D01*
X139434226Y-95923000D01*
X139187513Y-95972074D01*
X138955114Y-96068337D01*
X138745960Y-96208089D01*
X138568089Y-96385960D01*
X138428337Y-96595114D01*
X138332074Y-96827513D01*
X138290000Y-97039034D01*
X138247926Y-96827513D01*
X138151663Y-96595114D01*
X138011911Y-96385960D01*
X137834040Y-96208089D01*
X137624886Y-96068337D01*
X137392487Y-95972074D01*
X137145774Y-95923000D01*
X136894226Y-95923000D01*
X136647513Y-95972074D01*
X136415114Y-96068337D01*
X136205960Y-96208089D01*
X136028089Y-96385960D01*
X135888337Y-96595114D01*
X135792074Y-96827513D01*
X135743000Y-97074226D01*
X135243313Y-97074226D01*
X135242372Y-97072819D01*
X135127181Y-96957628D01*
X134991731Y-96867123D01*
X134841227Y-96804782D01*
X134681452Y-96773000D01*
X134518548Y-96773000D01*
X134358773Y-96804782D01*
X134208269Y-96867123D01*
X134072819Y-96957628D01*
X133957628Y-97072819D01*
X133867123Y-97208269D01*
X133804782Y-97358773D01*
X133773000Y-97518548D01*
X127127000Y-97518548D01*
X127127000Y-93794798D01*
X129049250Y-93794798D01*
X129049250Y-93957702D01*
X129081032Y-94117477D01*
X129143373Y-94267981D01*
X129233878Y-94403431D01*
X129349069Y-94518622D01*
X129484519Y-94609127D01*
X129635023Y-94671468D01*
X129794798Y-94703250D01*
X129957702Y-94703250D01*
X130117477Y-94671468D01*
X130267981Y-94609127D01*
X130403431Y-94518622D01*
X130518622Y-94403431D01*
X130609127Y-94267981D01*
X130671468Y-94117477D01*
X130703250Y-93957702D01*
X130703250Y-93794798D01*
X130671468Y-93635023D01*
X130609127Y-93484519D01*
X130518622Y-93349069D01*
X130403431Y-93233878D01*
X130267981Y-93143373D01*
X130117477Y-93081032D01*
X129957702Y-93049250D01*
X129794798Y-93049250D01*
X129635023Y-93081032D01*
X129484519Y-93143373D01*
X129349069Y-93233878D01*
X129233878Y-93349069D01*
X129143373Y-93484519D01*
X129081032Y-93635023D01*
X129049250Y-93794798D01*
X127127000Y-93794798D01*
X127127000Y-88994798D01*
X129049250Y-88994798D01*
X129049250Y-89157702D01*
X129081032Y-89317477D01*
X129143373Y-89467981D01*
X129233878Y-89603431D01*
X129349069Y-89718622D01*
X129484519Y-89809127D01*
X129635023Y-89871468D01*
X129794798Y-89903250D01*
X129957702Y-89903250D01*
X130117477Y-89871468D01*
X130267981Y-89809127D01*
X130403431Y-89718622D01*
X130518622Y-89603431D01*
X130609127Y-89467981D01*
X130671468Y-89317477D01*
X130703250Y-89157702D01*
X130703250Y-88994798D01*
X130671468Y-88835023D01*
X130609127Y-88684519D01*
X130518622Y-88549069D01*
X130403431Y-88433878D01*
X130267981Y-88343373D01*
X130117477Y-88281032D01*
X129957702Y-88249250D01*
X129794798Y-88249250D01*
X129635023Y-88281032D01*
X129484519Y-88343373D01*
X129349069Y-88433878D01*
X129233878Y-88549069D01*
X129143373Y-88684519D01*
X129081032Y-88835023D01*
X129049250Y-88994798D01*
X127127000Y-88994798D01*
X127127000Y-83000000D01*
X127124560Y-82975224D01*
X127117333Y-82951399D01*
X127105597Y-82929443D01*
X127089803Y-82910197D01*
X127070557Y-82894403D01*
X127048601Y-82882667D01*
X127024776Y-82875440D01*
X127000000Y-82873000D01*
X121377000Y-82873000D01*
X121377000Y-82512298D01*
X137666750Y-82512298D01*
X137666750Y-82675202D01*
X137698532Y-82834977D01*
X137760873Y-82985481D01*
X137851378Y-83120931D01*
X137966569Y-83236122D01*
X138102019Y-83326627D01*
X138252523Y-83388968D01*
X138412298Y-83420750D01*
X138575202Y-83420750D01*
X138734977Y-83388968D01*
X138885481Y-83326627D01*
X139020931Y-83236122D01*
X139136122Y-83120931D01*
X139226627Y-82985481D01*
X139288968Y-82834977D01*
X139320750Y-82675202D01*
X139320750Y-82512298D01*
X139288968Y-82352523D01*
X139226627Y-82202019D01*
X139136122Y-82066569D01*
X139020931Y-81951378D01*
X138885481Y-81860873D01*
X138734977Y-81798532D01*
X138575202Y-81766750D01*
X138412298Y-81766750D01*
X138252523Y-81798532D01*
X138102019Y-81860873D01*
X137966569Y-81951378D01*
X137851378Y-82066569D01*
X137760873Y-82202019D01*
X137698532Y-82352523D01*
X137666750Y-82512298D01*
X121377000Y-82512298D01*
X121377000Y-78218548D01*
X130473000Y-78218548D01*
X130473000Y-78381452D01*
X130504782Y-78541227D01*
X130567123Y-78691731D01*
X130657628Y-78827181D01*
X130772819Y-78942372D01*
X130908269Y-79032877D01*
X131058773Y-79095218D01*
X131218548Y-79127000D01*
X131381452Y-79127000D01*
X131541227Y-79095218D01*
X131691731Y-79032877D01*
X131827181Y-78942372D01*
X131942372Y-78827181D01*
X132032877Y-78691731D01*
X132095218Y-78541227D01*
X132127000Y-78381452D01*
X132127000Y-78218548D01*
X132095218Y-78058773D01*
X132032877Y-77908269D01*
X131942372Y-77772819D01*
X131938101Y-77768548D01*
X138073000Y-77768548D01*
X138073000Y-77931452D01*
X138104782Y-78091227D01*
X138167123Y-78241731D01*
X138257628Y-78377181D01*
X138372819Y-78492372D01*
X138508269Y-78582877D01*
X138658773Y-78645218D01*
X138818548Y-78677000D01*
X138981452Y-78677000D01*
X139141227Y-78645218D01*
X139291731Y-78582877D01*
X139427181Y-78492372D01*
X139542372Y-78377181D01*
X139632877Y-78241731D01*
X139695218Y-78091227D01*
X139727000Y-77931452D01*
X139727000Y-77768548D01*
X139695218Y-77608773D01*
X139632877Y-77458269D01*
X139542372Y-77322819D01*
X139427181Y-77207628D01*
X139291731Y-77117123D01*
X139141227Y-77054782D01*
X138981452Y-77023000D01*
X138818548Y-77023000D01*
X138658773Y-77054782D01*
X138508269Y-77117123D01*
X138372819Y-77207628D01*
X138257628Y-77322819D01*
X138167123Y-77458269D01*
X138104782Y-77608773D01*
X138073000Y-77768548D01*
X131938101Y-77768548D01*
X131827181Y-77657628D01*
X131691731Y-77567123D01*
X131541227Y-77504782D01*
X131381452Y-77473000D01*
X131218548Y-77473000D01*
X131058773Y-77504782D01*
X130908269Y-77567123D01*
X130772819Y-77657628D01*
X130657628Y-77772819D01*
X130567123Y-77908269D01*
X130504782Y-78058773D01*
X130473000Y-78218548D01*
X121377000Y-78218548D01*
X121377000Y-75518548D01*
X130673000Y-75518548D01*
X130673000Y-75681452D01*
X130704782Y-75841227D01*
X130767123Y-75991731D01*
X130857628Y-76127181D01*
X130972819Y-76242372D01*
X131108269Y-76332877D01*
X131258773Y-76395218D01*
X131418548Y-76427000D01*
X131581452Y-76427000D01*
X131741227Y-76395218D01*
X131891731Y-76332877D01*
X132027181Y-76242372D01*
X132142372Y-76127181D01*
X132232877Y-75991731D01*
X132295218Y-75841227D01*
X132327000Y-75681452D01*
X132327000Y-75518548D01*
X132295218Y-75358773D01*
X132232877Y-75208269D01*
X132142372Y-75072819D01*
X132027181Y-74957628D01*
X131891731Y-74867123D01*
X131741227Y-74804782D01*
X131581452Y-74773000D01*
X131418548Y-74773000D01*
X131258773Y-74804782D01*
X131108269Y-74867123D01*
X130972819Y-74957628D01*
X130857628Y-75072819D01*
X130767123Y-75208269D01*
X130704782Y-75358773D01*
X130673000Y-75518548D01*
X121377000Y-75518548D01*
X121377000Y-73518548D01*
X136673000Y-73518548D01*
X136673000Y-73681452D01*
X136704782Y-73841227D01*
X136767123Y-73991731D01*
X136857628Y-74127181D01*
X136972819Y-74242372D01*
X137108269Y-74332877D01*
X137258773Y-74395218D01*
X137418548Y-74427000D01*
X137581452Y-74427000D01*
X137741227Y-74395218D01*
X137891731Y-74332877D01*
X138027181Y-74242372D01*
X138142372Y-74127181D01*
X138232877Y-73991731D01*
X138295218Y-73841227D01*
X138327000Y-73681452D01*
X138327000Y-73518548D01*
X138295218Y-73358773D01*
X138232877Y-73208269D01*
X138142372Y-73072819D01*
X138027181Y-72957628D01*
X137891731Y-72867123D01*
X137741227Y-72804782D01*
X137581452Y-72773000D01*
X137418548Y-72773000D01*
X137258773Y-72804782D01*
X137108269Y-72867123D01*
X136972819Y-72957628D01*
X136857628Y-73072819D01*
X136767123Y-73208269D01*
X136704782Y-73358773D01*
X136673000Y-73518548D01*
X121377000Y-73518548D01*
X121377000Y-68250000D01*
X121374560Y-68225224D01*
X121367333Y-68201399D01*
X121355597Y-68179443D01*
X121339803Y-68160197D01*
X120808003Y-67628397D01*
X136573000Y-67628397D01*
X136573000Y-67771603D01*
X136600938Y-67912058D01*
X136655741Y-68044364D01*
X136735302Y-68163436D01*
X136836564Y-68264698D01*
X136955636Y-68344259D01*
X137087942Y-68399062D01*
X137228397Y-68427000D01*
X137371603Y-68427000D01*
X137512058Y-68399062D01*
X137644364Y-68344259D01*
X137763436Y-68264698D01*
X137864698Y-68163436D01*
X137944259Y-68044364D01*
X137999062Y-67912058D01*
X138027000Y-67771603D01*
X138027000Y-67628397D01*
X137999062Y-67487942D01*
X137944259Y-67355636D01*
X137864698Y-67236564D01*
X137763436Y-67135302D01*
X137644364Y-67055741D01*
X137512058Y-67000938D01*
X137371603Y-66973000D01*
X137228397Y-66973000D01*
X137087942Y-67000938D01*
X136955636Y-67055741D01*
X136836564Y-67135302D01*
X136735302Y-67236564D01*
X136655741Y-67355636D01*
X136600938Y-67487942D01*
X136573000Y-67628397D01*
X120808003Y-67628397D01*
X119298154Y-66118548D01*
X137073000Y-66118548D01*
X137073000Y-66281452D01*
X137104782Y-66441227D01*
X137167123Y-66591731D01*
X137257628Y-66727181D01*
X137372819Y-66842372D01*
X137508269Y-66932877D01*
X137658773Y-66995218D01*
X137818548Y-67027000D01*
X137981452Y-67027000D01*
X138141227Y-66995218D01*
X138291731Y-66932877D01*
X138427181Y-66842372D01*
X138542372Y-66727181D01*
X138632877Y-66591731D01*
X138695218Y-66441227D01*
X138727000Y-66281452D01*
X138727000Y-66118548D01*
X138695218Y-65958773D01*
X138632877Y-65808269D01*
X138542372Y-65672819D01*
X138427181Y-65557628D01*
X138291731Y-65467123D01*
X138141227Y-65404782D01*
X137981452Y-65373000D01*
X137818548Y-65373000D01*
X137658773Y-65404782D01*
X137508269Y-65467123D01*
X137372819Y-65557628D01*
X137257628Y-65672819D01*
X137167123Y-65808269D01*
X137104782Y-65958773D01*
X137073000Y-66118548D01*
X119298154Y-66118548D01*
X117627000Y-64447394D01*
X117627000Y-63030000D01*
X118780934Y-63030000D01*
X118780934Y-64730000D01*
X118789178Y-64813707D01*
X118813595Y-64894196D01*
X118853245Y-64968376D01*
X118906605Y-65033395D01*
X118971624Y-65086755D01*
X119045804Y-65126405D01*
X119126293Y-65150822D01*
X119210000Y-65159066D01*
X120910000Y-65159066D01*
X120993707Y-65150822D01*
X121074196Y-65126405D01*
X121148376Y-65086755D01*
X121213395Y-65033395D01*
X121266755Y-64968376D01*
X121306405Y-64894196D01*
X121330822Y-64813707D01*
X121339066Y-64730000D01*
X121339066Y-63030000D01*
X121330822Y-62946293D01*
X121306405Y-62865804D01*
X121266755Y-62791624D01*
X121213395Y-62726605D01*
X121148376Y-62673245D01*
X121074196Y-62633595D01*
X120993707Y-62609178D01*
X120910000Y-62600934D01*
X120266544Y-62600934D01*
X120432487Y-62567926D01*
X120664886Y-62471663D01*
X120874040Y-62331911D01*
X121051911Y-62154040D01*
X121191663Y-61944886D01*
X121287926Y-61712487D01*
X121337000Y-61465774D01*
X121337000Y-61214226D01*
X123863000Y-61214226D01*
X123863000Y-61465774D01*
X123912074Y-61712487D01*
X124008337Y-61944886D01*
X124148089Y-62154040D01*
X124325960Y-62331911D01*
X124535114Y-62471663D01*
X124767513Y-62567926D01*
X124979034Y-62610000D01*
X124767513Y-62652074D01*
X124535114Y-62748337D01*
X124325960Y-62888089D01*
X124148089Y-63065960D01*
X124008337Y-63275114D01*
X123912074Y-63507513D01*
X123863000Y-63754226D01*
X123863000Y-64005774D01*
X123912074Y-64252487D01*
X124008337Y-64484886D01*
X124148089Y-64694040D01*
X124325960Y-64871911D01*
X124535114Y-65011663D01*
X124767513Y-65107926D01*
X125014226Y-65157000D01*
X125265774Y-65157000D01*
X125512487Y-65107926D01*
X125744886Y-65011663D01*
X125954040Y-64871911D01*
X126131911Y-64694040D01*
X126271663Y-64484886D01*
X126367926Y-64252487D01*
X126410000Y-64040966D01*
X126452074Y-64252487D01*
X126548337Y-64484886D01*
X126688089Y-64694040D01*
X126865960Y-64871911D01*
X127075114Y-65011663D01*
X127307513Y-65107926D01*
X127554226Y-65157000D01*
X127805774Y-65157000D01*
X128052487Y-65107926D01*
X128284886Y-65011663D01*
X128494040Y-64871911D01*
X128671911Y-64694040D01*
X128789170Y-64518548D01*
X130973000Y-64518548D01*
X130973000Y-64681452D01*
X131004782Y-64841227D01*
X131067123Y-64991731D01*
X131157628Y-65127181D01*
X131272819Y-65242372D01*
X131408269Y-65332877D01*
X131558773Y-65395218D01*
X131718548Y-65427000D01*
X131881452Y-65427000D01*
X132041227Y-65395218D01*
X132191731Y-65332877D01*
X132327181Y-65242372D01*
X132442372Y-65127181D01*
X132532877Y-64991731D01*
X132595218Y-64841227D01*
X132627000Y-64681452D01*
X132627000Y-64518548D01*
X132595218Y-64358773D01*
X132532877Y-64208269D01*
X132442372Y-64072819D01*
X132327181Y-63957628D01*
X132191731Y-63867123D01*
X132041227Y-63804782D01*
X131881452Y-63773000D01*
X131718548Y-63773000D01*
X131558773Y-63804782D01*
X131408269Y-63867123D01*
X131272819Y-63957628D01*
X131157628Y-64072819D01*
X131067123Y-64208269D01*
X131004782Y-64358773D01*
X130973000Y-64518548D01*
X128789170Y-64518548D01*
X128811663Y-64484886D01*
X128907926Y-64252487D01*
X128957000Y-64005774D01*
X128957000Y-63754226D01*
X128907926Y-63507513D01*
X128811663Y-63275114D01*
X128671911Y-63065960D01*
X128494040Y-62888089D01*
X128284886Y-62748337D01*
X128052487Y-62652074D01*
X127840966Y-62610000D01*
X128052487Y-62567926D01*
X128284886Y-62471663D01*
X128494040Y-62331911D01*
X128671911Y-62154040D01*
X128811663Y-61944886D01*
X128907926Y-61712487D01*
X128957000Y-61465774D01*
X128957000Y-61214226D01*
X128907926Y-60967513D01*
X128811663Y-60735114D01*
X128671911Y-60525960D01*
X128494040Y-60348089D01*
X128284886Y-60208337D01*
X128068117Y-60118548D01*
X131173000Y-60118548D01*
X131173000Y-60281452D01*
X131204782Y-60441227D01*
X131267123Y-60591731D01*
X131357628Y-60727181D01*
X131472819Y-60842372D01*
X131608269Y-60932877D01*
X131758773Y-60995218D01*
X131918548Y-61027000D01*
X132081452Y-61027000D01*
X132241227Y-60995218D01*
X132391731Y-60932877D01*
X132527181Y-60842372D01*
X132642372Y-60727181D01*
X132732877Y-60591731D01*
X132795218Y-60441227D01*
X132827000Y-60281452D01*
X132827000Y-60118548D01*
X132795218Y-59958773D01*
X132732877Y-59808269D01*
X132642372Y-59672819D01*
X132527181Y-59557628D01*
X132391731Y-59467123D01*
X132241227Y-59404782D01*
X132081452Y-59373000D01*
X131918548Y-59373000D01*
X131758773Y-59404782D01*
X131608269Y-59467123D01*
X131472819Y-59557628D01*
X131357628Y-59672819D01*
X131267123Y-59808269D01*
X131204782Y-59958773D01*
X131173000Y-60118548D01*
X128068117Y-60118548D01*
X128052487Y-60112074D01*
X127805774Y-60063000D01*
X127554226Y-60063000D01*
X127307513Y-60112074D01*
X127075114Y-60208337D01*
X126865960Y-60348089D01*
X126688089Y-60525960D01*
X126548337Y-60735114D01*
X126452074Y-60967513D01*
X126410000Y-61179034D01*
X126367926Y-60967513D01*
X126271663Y-60735114D01*
X126131911Y-60525960D01*
X125954040Y-60348089D01*
X125744886Y-60208337D01*
X125512487Y-60112074D01*
X125265774Y-60063000D01*
X125014226Y-60063000D01*
X124767513Y-60112074D01*
X124535114Y-60208337D01*
X124325960Y-60348089D01*
X124148089Y-60525960D01*
X124008337Y-60735114D01*
X123912074Y-60967513D01*
X123863000Y-61214226D01*
X121337000Y-61214226D01*
X121287926Y-60967513D01*
X121191663Y-60735114D01*
X121051911Y-60525960D01*
X120874040Y-60348089D01*
X120664886Y-60208337D01*
X120432487Y-60112074D01*
X120185774Y-60063000D01*
X119934226Y-60063000D01*
X119687513Y-60112074D01*
X119455114Y-60208337D01*
X119245960Y-60348089D01*
X119068089Y-60525960D01*
X118928337Y-60735114D01*
X118832074Y-60967513D01*
X118783000Y-61214226D01*
X118783000Y-61465774D01*
X118832074Y-61712487D01*
X118928337Y-61944886D01*
X119068089Y-62154040D01*
X119245960Y-62331911D01*
X119455114Y-62471663D01*
X119687513Y-62567926D01*
X119853456Y-62600934D01*
X119210000Y-62600934D01*
X119126293Y-62609178D01*
X119045804Y-62633595D01*
X118971624Y-62673245D01*
X118906605Y-62726605D01*
X118853245Y-62791624D01*
X118813595Y-62865804D01*
X118789178Y-62946293D01*
X118780934Y-63030000D01*
X117627000Y-63030000D01*
X117627000Y-57452000D01*
X141373000Y-57452000D01*
X141373000Y-62403447D01*
%TA.AperFunction,Conductor*%
D19*
G36*
X141373000Y-62403447D02*
G01*
X141327181Y-62357628D01*
X141191731Y-62267123D01*
X141041227Y-62204782D01*
X140881452Y-62173000D01*
X140718548Y-62173000D01*
X140558773Y-62204782D01*
X140408269Y-62267123D01*
X140272819Y-62357628D01*
X140157628Y-62472819D01*
X140067123Y-62608269D01*
X140004782Y-62758773D01*
X139973000Y-62918548D01*
X139973000Y-63081452D01*
X140004782Y-63241227D01*
X140067123Y-63391731D01*
X140157628Y-63527181D01*
X140272819Y-63642372D01*
X140408269Y-63732877D01*
X140558773Y-63795218D01*
X140718548Y-63827000D01*
X140881452Y-63827000D01*
X141041227Y-63795218D01*
X141191731Y-63732877D01*
X141327181Y-63642372D01*
X141373000Y-63596553D01*
X141373000Y-68218657D01*
X141342372Y-68172819D01*
X141227181Y-68057628D01*
X141091731Y-67967123D01*
X140941227Y-67904782D01*
X140781452Y-67873000D01*
X140618548Y-67873000D01*
X140458773Y-67904782D01*
X140308269Y-67967123D01*
X140172819Y-68057628D01*
X140057628Y-68172819D01*
X139967123Y-68308269D01*
X139904782Y-68458773D01*
X139873000Y-68618548D01*
X139873000Y-68781452D01*
X139904782Y-68941227D01*
X139967123Y-69091731D01*
X140057628Y-69227181D01*
X140172819Y-69342372D01*
X140308269Y-69432877D01*
X140458773Y-69495218D01*
X140618548Y-69527000D01*
X140781452Y-69527000D01*
X140941227Y-69495218D01*
X141091731Y-69432877D01*
X141227181Y-69342372D01*
X141342372Y-69227181D01*
X141373000Y-69181343D01*
X141373000Y-89000000D01*
X141375440Y-89024776D01*
X141382667Y-89048601D01*
X141394403Y-89070557D01*
X141410197Y-89089803D01*
X141429443Y-89105597D01*
X141451399Y-89117333D01*
X141475224Y-89124560D01*
X141500000Y-89127000D01*
X146873000Y-89127000D01*
X146873000Y-114548000D01*
X127127000Y-114548000D01*
X127127000Y-113740636D01*
X127258773Y-113795218D01*
X127418548Y-113827000D01*
X127581452Y-113827000D01*
X127741227Y-113795218D01*
X127891731Y-113732877D01*
X128027181Y-113642372D01*
X128142372Y-113527181D01*
X128232877Y-113391731D01*
X128295218Y-113241227D01*
X128327000Y-113081452D01*
X128327000Y-112918548D01*
X128295218Y-112758773D01*
X128232877Y-112608269D01*
X128142372Y-112472819D01*
X128027181Y-112357628D01*
X127891731Y-112267123D01*
X127741227Y-112204782D01*
X127581452Y-112173000D01*
X127418548Y-112173000D01*
X127258773Y-112204782D01*
X127127000Y-112259364D01*
X127127000Y-108018548D01*
X129873000Y-108018548D01*
X129873000Y-108181452D01*
X129904782Y-108341227D01*
X129967123Y-108491731D01*
X130057628Y-108627181D01*
X130172819Y-108742372D01*
X130308269Y-108832877D01*
X130458773Y-108895218D01*
X130618548Y-108927000D01*
X130781452Y-108927000D01*
X130941227Y-108895218D01*
X131091731Y-108832877D01*
X131227181Y-108742372D01*
X131342372Y-108627181D01*
X131432877Y-108491731D01*
X131495218Y-108341227D01*
X131527000Y-108181452D01*
X131527000Y-108018548D01*
X131495218Y-107858773D01*
X131432877Y-107708269D01*
X131342372Y-107572819D01*
X131227181Y-107457628D01*
X131091731Y-107367123D01*
X130941227Y-107304782D01*
X130781452Y-107273000D01*
X130618548Y-107273000D01*
X130458773Y-107304782D01*
X130308269Y-107367123D01*
X130172819Y-107457628D01*
X130057628Y-107572819D01*
X129967123Y-107708269D01*
X129904782Y-107858773D01*
X129873000Y-108018548D01*
X127127000Y-108018548D01*
X127127000Y-106428397D01*
X129173000Y-106428397D01*
X129173000Y-106571603D01*
X129200938Y-106712058D01*
X129255741Y-106844364D01*
X129335302Y-106963436D01*
X129436564Y-107064698D01*
X129555636Y-107144259D01*
X129687942Y-107199062D01*
X129828397Y-107227000D01*
X129971603Y-107227000D01*
X130112058Y-107199062D01*
X130244364Y-107144259D01*
X130363436Y-107064698D01*
X130464698Y-106963436D01*
X130544259Y-106844364D01*
X130599062Y-106712058D01*
X130627000Y-106571603D01*
X130627000Y-106428397D01*
X130599062Y-106287942D01*
X130544259Y-106155636D01*
X130464698Y-106036564D01*
X130363436Y-105935302D01*
X130244364Y-105855741D01*
X130112058Y-105800938D01*
X129971603Y-105773000D01*
X129828397Y-105773000D01*
X129687942Y-105800938D01*
X129555636Y-105855741D01*
X129436564Y-105935302D01*
X129335302Y-106036564D01*
X129255741Y-106155636D01*
X129200938Y-106287942D01*
X129173000Y-106428397D01*
X127127000Y-106428397D01*
X127127000Y-104618548D01*
X136273000Y-104618548D01*
X136273000Y-104781452D01*
X136304782Y-104941227D01*
X136367123Y-105091731D01*
X136457628Y-105227181D01*
X136572819Y-105342372D01*
X136708269Y-105432877D01*
X136858773Y-105495218D01*
X137018548Y-105527000D01*
X137181452Y-105527000D01*
X137341227Y-105495218D01*
X137491731Y-105432877D01*
X137627181Y-105342372D01*
X137742372Y-105227181D01*
X137832877Y-105091731D01*
X137895218Y-104941227D01*
X137927000Y-104781452D01*
X137927000Y-104618548D01*
X138773000Y-104618548D01*
X138773000Y-104781452D01*
X138804782Y-104941227D01*
X138867123Y-105091731D01*
X138957628Y-105227181D01*
X139072819Y-105342372D01*
X139208269Y-105432877D01*
X139358773Y-105495218D01*
X139518548Y-105527000D01*
X139681452Y-105527000D01*
X139841227Y-105495218D01*
X139991731Y-105432877D01*
X140127181Y-105342372D01*
X140242372Y-105227181D01*
X140332877Y-105091731D01*
X140395218Y-104941227D01*
X140427000Y-104781452D01*
X140427000Y-104618548D01*
X141273000Y-104618548D01*
X141273000Y-104781452D01*
X141304782Y-104941227D01*
X141367123Y-105091731D01*
X141457628Y-105227181D01*
X141572819Y-105342372D01*
X141708269Y-105432877D01*
X141858773Y-105495218D01*
X142018548Y-105527000D01*
X142181452Y-105527000D01*
X142341227Y-105495218D01*
X142491731Y-105432877D01*
X142627181Y-105342372D01*
X142742372Y-105227181D01*
X142832877Y-105091731D01*
X142895218Y-104941227D01*
X142927000Y-104781452D01*
X142927000Y-104618548D01*
X142895218Y-104458773D01*
X142832877Y-104308269D01*
X142742372Y-104172819D01*
X142627181Y-104057628D01*
X142491731Y-103967123D01*
X142341227Y-103904782D01*
X142181452Y-103873000D01*
X142018548Y-103873000D01*
X141858773Y-103904782D01*
X141708269Y-103967123D01*
X141572819Y-104057628D01*
X141457628Y-104172819D01*
X141367123Y-104308269D01*
X141304782Y-104458773D01*
X141273000Y-104618548D01*
X140427000Y-104618548D01*
X140395218Y-104458773D01*
X140332877Y-104308269D01*
X140242372Y-104172819D01*
X140127181Y-104057628D01*
X139991731Y-103967123D01*
X139841227Y-103904782D01*
X139681452Y-103873000D01*
X139518548Y-103873000D01*
X139358773Y-103904782D01*
X139208269Y-103967123D01*
X139072819Y-104057628D01*
X138957628Y-104172819D01*
X138867123Y-104308269D01*
X138804782Y-104458773D01*
X138773000Y-104618548D01*
X137927000Y-104618548D01*
X137895218Y-104458773D01*
X137832877Y-104308269D01*
X137742372Y-104172819D01*
X137627181Y-104057628D01*
X137491731Y-103967123D01*
X137341227Y-103904782D01*
X137181452Y-103873000D01*
X137018548Y-103873000D01*
X136858773Y-103904782D01*
X136708269Y-103967123D01*
X136572819Y-104057628D01*
X136457628Y-104172819D01*
X136367123Y-104308269D01*
X136304782Y-104458773D01*
X136273000Y-104618548D01*
X127127000Y-104618548D01*
X127127000Y-103418548D01*
X127273000Y-103418548D01*
X127273000Y-103581452D01*
X127304782Y-103741227D01*
X127367123Y-103891731D01*
X127457628Y-104027181D01*
X127572819Y-104142372D01*
X127708269Y-104232877D01*
X127858773Y-104295218D01*
X128018548Y-104327000D01*
X128181452Y-104327000D01*
X128341227Y-104295218D01*
X128491731Y-104232877D01*
X128627181Y-104142372D01*
X128742372Y-104027181D01*
X128832877Y-103891731D01*
X128895218Y-103741227D01*
X128927000Y-103581452D01*
X128927000Y-103418548D01*
X128895218Y-103258773D01*
X128832877Y-103108269D01*
X128742372Y-102972819D01*
X128627181Y-102857628D01*
X128491731Y-102767123D01*
X128341227Y-102704782D01*
X128181452Y-102673000D01*
X128018548Y-102673000D01*
X127858773Y-102704782D01*
X127708269Y-102767123D01*
X127572819Y-102857628D01*
X127457628Y-102972819D01*
X127367123Y-103108269D01*
X127304782Y-103258773D01*
X127273000Y-103418548D01*
X127127000Y-103418548D01*
X127127000Y-98618548D01*
X129973000Y-98618548D01*
X129973000Y-98781452D01*
X130004782Y-98941227D01*
X130067123Y-99091731D01*
X130157628Y-99227181D01*
X130272819Y-99342372D01*
X130408269Y-99432877D01*
X130558773Y-99495218D01*
X130718548Y-99527000D01*
X130881452Y-99527000D01*
X131041227Y-99495218D01*
X131191731Y-99432877D01*
X131327181Y-99342372D01*
X131442372Y-99227181D01*
X131532877Y-99091731D01*
X131595218Y-98941227D01*
X131627000Y-98781452D01*
X131627000Y-98618548D01*
X131595218Y-98458773D01*
X131532877Y-98308269D01*
X131442372Y-98172819D01*
X131327181Y-98057628D01*
X131191731Y-97967123D01*
X131041227Y-97904782D01*
X130881452Y-97873000D01*
X130718548Y-97873000D01*
X130558773Y-97904782D01*
X130408269Y-97967123D01*
X130272819Y-98057628D01*
X130157628Y-98172819D01*
X130067123Y-98308269D01*
X130004782Y-98458773D01*
X129973000Y-98618548D01*
X127127000Y-98618548D01*
X127127000Y-97518548D01*
X133773000Y-97518548D01*
X133773000Y-97681452D01*
X133804782Y-97841227D01*
X133867123Y-97991731D01*
X133957628Y-98127181D01*
X134072819Y-98242372D01*
X134208269Y-98332877D01*
X134358773Y-98395218D01*
X134518548Y-98427000D01*
X134681452Y-98427000D01*
X134841227Y-98395218D01*
X134991731Y-98332877D01*
X135127181Y-98242372D01*
X135242372Y-98127181D01*
X135332877Y-97991731D01*
X135395218Y-97841227D01*
X135427000Y-97681452D01*
X135427000Y-97518548D01*
X135395218Y-97358773D01*
X135332877Y-97208269D01*
X135243313Y-97074226D01*
X135743000Y-97074226D01*
X135743000Y-97325774D01*
X135792074Y-97572487D01*
X135888337Y-97804886D01*
X136028089Y-98014040D01*
X136205960Y-98191911D01*
X136415114Y-98331663D01*
X136647513Y-98427926D01*
X136894226Y-98477000D01*
X137145774Y-98477000D01*
X137392487Y-98427926D01*
X137624886Y-98331663D01*
X137834040Y-98191911D01*
X138011911Y-98014040D01*
X138151663Y-97804886D01*
X138247926Y-97572487D01*
X138290000Y-97360966D01*
X138332074Y-97572487D01*
X138428337Y-97804886D01*
X138568089Y-98014040D01*
X138745960Y-98191911D01*
X138955114Y-98331663D01*
X139187513Y-98427926D01*
X139434226Y-98477000D01*
X139685774Y-98477000D01*
X139932487Y-98427926D01*
X140164886Y-98331663D01*
X140374040Y-98191911D01*
X140551911Y-98014040D01*
X140691663Y-97804886D01*
X140787926Y-97572487D01*
X140820934Y-97406544D01*
X140820934Y-98050000D01*
X140829178Y-98133707D01*
X140853595Y-98214196D01*
X140893245Y-98288376D01*
X140946605Y-98353395D01*
X141011624Y-98406755D01*
X141085804Y-98446405D01*
X141166293Y-98470822D01*
X141250000Y-98479066D01*
X142950000Y-98479066D01*
X143033707Y-98470822D01*
X143114196Y-98446405D01*
X143188376Y-98406755D01*
X143253395Y-98353395D01*
X143306755Y-98288376D01*
X143346405Y-98214196D01*
X143370822Y-98133707D01*
X143379066Y-98050000D01*
X143379066Y-96350000D01*
X143370822Y-96266293D01*
X143346405Y-96185804D01*
X143306755Y-96111624D01*
X143253395Y-96046605D01*
X143188376Y-95993245D01*
X143114196Y-95953595D01*
X143033707Y-95929178D01*
X142950000Y-95920934D01*
X141250000Y-95920934D01*
X141166293Y-95929178D01*
X141085804Y-95953595D01*
X141011624Y-95993245D01*
X140946605Y-96046605D01*
X140893245Y-96111624D01*
X140853595Y-96185804D01*
X140829178Y-96266293D01*
X140820934Y-96350000D01*
X140820934Y-96993456D01*
X140787926Y-96827513D01*
X140691663Y-96595114D01*
X140551911Y-96385960D01*
X140374040Y-96208089D01*
X140164886Y-96068337D01*
X139932487Y-95972074D01*
X139685774Y-95923000D01*
X139434226Y-95923000D01*
X139187513Y-95972074D01*
X138955114Y-96068337D01*
X138745960Y-96208089D01*
X138568089Y-96385960D01*
X138428337Y-96595114D01*
X138332074Y-96827513D01*
X138290000Y-97039034D01*
X138247926Y-96827513D01*
X138151663Y-96595114D01*
X138011911Y-96385960D01*
X137834040Y-96208089D01*
X137624886Y-96068337D01*
X137392487Y-95972074D01*
X137145774Y-95923000D01*
X136894226Y-95923000D01*
X136647513Y-95972074D01*
X136415114Y-96068337D01*
X136205960Y-96208089D01*
X136028089Y-96385960D01*
X135888337Y-96595114D01*
X135792074Y-96827513D01*
X135743000Y-97074226D01*
X135243313Y-97074226D01*
X135242372Y-97072819D01*
X135127181Y-96957628D01*
X134991731Y-96867123D01*
X134841227Y-96804782D01*
X134681452Y-96773000D01*
X134518548Y-96773000D01*
X134358773Y-96804782D01*
X134208269Y-96867123D01*
X134072819Y-96957628D01*
X133957628Y-97072819D01*
X133867123Y-97208269D01*
X133804782Y-97358773D01*
X133773000Y-97518548D01*
X127127000Y-97518548D01*
X127127000Y-93794798D01*
X129049250Y-93794798D01*
X129049250Y-93957702D01*
X129081032Y-94117477D01*
X129143373Y-94267981D01*
X129233878Y-94403431D01*
X129349069Y-94518622D01*
X129484519Y-94609127D01*
X129635023Y-94671468D01*
X129794798Y-94703250D01*
X129957702Y-94703250D01*
X130117477Y-94671468D01*
X130267981Y-94609127D01*
X130403431Y-94518622D01*
X130518622Y-94403431D01*
X130609127Y-94267981D01*
X130671468Y-94117477D01*
X130703250Y-93957702D01*
X130703250Y-93794798D01*
X130671468Y-93635023D01*
X130609127Y-93484519D01*
X130518622Y-93349069D01*
X130403431Y-93233878D01*
X130267981Y-93143373D01*
X130117477Y-93081032D01*
X129957702Y-93049250D01*
X129794798Y-93049250D01*
X129635023Y-93081032D01*
X129484519Y-93143373D01*
X129349069Y-93233878D01*
X129233878Y-93349069D01*
X129143373Y-93484519D01*
X129081032Y-93635023D01*
X129049250Y-93794798D01*
X127127000Y-93794798D01*
X127127000Y-88994798D01*
X129049250Y-88994798D01*
X129049250Y-89157702D01*
X129081032Y-89317477D01*
X129143373Y-89467981D01*
X129233878Y-89603431D01*
X129349069Y-89718622D01*
X129484519Y-89809127D01*
X129635023Y-89871468D01*
X129794798Y-89903250D01*
X129957702Y-89903250D01*
X130117477Y-89871468D01*
X130267981Y-89809127D01*
X130403431Y-89718622D01*
X130518622Y-89603431D01*
X130609127Y-89467981D01*
X130671468Y-89317477D01*
X130703250Y-89157702D01*
X130703250Y-88994798D01*
X130671468Y-88835023D01*
X130609127Y-88684519D01*
X130518622Y-88549069D01*
X130403431Y-88433878D01*
X130267981Y-88343373D01*
X130117477Y-88281032D01*
X129957702Y-88249250D01*
X129794798Y-88249250D01*
X129635023Y-88281032D01*
X129484519Y-88343373D01*
X129349069Y-88433878D01*
X129233878Y-88549069D01*
X129143373Y-88684519D01*
X129081032Y-88835023D01*
X129049250Y-88994798D01*
X127127000Y-88994798D01*
X127127000Y-83000000D01*
X127124560Y-82975224D01*
X127117333Y-82951399D01*
X127105597Y-82929443D01*
X127089803Y-82910197D01*
X127070557Y-82894403D01*
X127048601Y-82882667D01*
X127024776Y-82875440D01*
X127000000Y-82873000D01*
X121377000Y-82873000D01*
X121377000Y-82512298D01*
X137666750Y-82512298D01*
X137666750Y-82675202D01*
X137698532Y-82834977D01*
X137760873Y-82985481D01*
X137851378Y-83120931D01*
X137966569Y-83236122D01*
X138102019Y-83326627D01*
X138252523Y-83388968D01*
X138412298Y-83420750D01*
X138575202Y-83420750D01*
X138734977Y-83388968D01*
X138885481Y-83326627D01*
X139020931Y-83236122D01*
X139136122Y-83120931D01*
X139226627Y-82985481D01*
X139288968Y-82834977D01*
X139320750Y-82675202D01*
X139320750Y-82512298D01*
X139288968Y-82352523D01*
X139226627Y-82202019D01*
X139136122Y-82066569D01*
X139020931Y-81951378D01*
X138885481Y-81860873D01*
X138734977Y-81798532D01*
X138575202Y-81766750D01*
X138412298Y-81766750D01*
X138252523Y-81798532D01*
X138102019Y-81860873D01*
X137966569Y-81951378D01*
X137851378Y-82066569D01*
X137760873Y-82202019D01*
X137698532Y-82352523D01*
X137666750Y-82512298D01*
X121377000Y-82512298D01*
X121377000Y-78218548D01*
X130473000Y-78218548D01*
X130473000Y-78381452D01*
X130504782Y-78541227D01*
X130567123Y-78691731D01*
X130657628Y-78827181D01*
X130772819Y-78942372D01*
X130908269Y-79032877D01*
X131058773Y-79095218D01*
X131218548Y-79127000D01*
X131381452Y-79127000D01*
X131541227Y-79095218D01*
X131691731Y-79032877D01*
X131827181Y-78942372D01*
X131942372Y-78827181D01*
X132032877Y-78691731D01*
X132095218Y-78541227D01*
X132127000Y-78381452D01*
X132127000Y-78218548D01*
X132095218Y-78058773D01*
X132032877Y-77908269D01*
X131942372Y-77772819D01*
X131938101Y-77768548D01*
X138073000Y-77768548D01*
X138073000Y-77931452D01*
X138104782Y-78091227D01*
X138167123Y-78241731D01*
X138257628Y-78377181D01*
X138372819Y-78492372D01*
X138508269Y-78582877D01*
X138658773Y-78645218D01*
X138818548Y-78677000D01*
X138981452Y-78677000D01*
X139141227Y-78645218D01*
X139291731Y-78582877D01*
X139427181Y-78492372D01*
X139542372Y-78377181D01*
X139632877Y-78241731D01*
X139695218Y-78091227D01*
X139727000Y-77931452D01*
X139727000Y-77768548D01*
X139695218Y-77608773D01*
X139632877Y-77458269D01*
X139542372Y-77322819D01*
X139427181Y-77207628D01*
X139291731Y-77117123D01*
X139141227Y-77054782D01*
X138981452Y-77023000D01*
X138818548Y-77023000D01*
X138658773Y-77054782D01*
X138508269Y-77117123D01*
X138372819Y-77207628D01*
X138257628Y-77322819D01*
X138167123Y-77458269D01*
X138104782Y-77608773D01*
X138073000Y-77768548D01*
X131938101Y-77768548D01*
X131827181Y-77657628D01*
X131691731Y-77567123D01*
X131541227Y-77504782D01*
X131381452Y-77473000D01*
X131218548Y-77473000D01*
X131058773Y-77504782D01*
X130908269Y-77567123D01*
X130772819Y-77657628D01*
X130657628Y-77772819D01*
X130567123Y-77908269D01*
X130504782Y-78058773D01*
X130473000Y-78218548D01*
X121377000Y-78218548D01*
X121377000Y-75518548D01*
X130673000Y-75518548D01*
X130673000Y-75681452D01*
X130704782Y-75841227D01*
X130767123Y-75991731D01*
X130857628Y-76127181D01*
X130972819Y-76242372D01*
X131108269Y-76332877D01*
X131258773Y-76395218D01*
X131418548Y-76427000D01*
X131581452Y-76427000D01*
X131741227Y-76395218D01*
X131891731Y-76332877D01*
X132027181Y-76242372D01*
X132142372Y-76127181D01*
X132232877Y-75991731D01*
X132295218Y-75841227D01*
X132327000Y-75681452D01*
X132327000Y-75518548D01*
X132295218Y-75358773D01*
X132232877Y-75208269D01*
X132142372Y-75072819D01*
X132027181Y-74957628D01*
X131891731Y-74867123D01*
X131741227Y-74804782D01*
X131581452Y-74773000D01*
X131418548Y-74773000D01*
X131258773Y-74804782D01*
X131108269Y-74867123D01*
X130972819Y-74957628D01*
X130857628Y-75072819D01*
X130767123Y-75208269D01*
X130704782Y-75358773D01*
X130673000Y-75518548D01*
X121377000Y-75518548D01*
X121377000Y-73518548D01*
X136673000Y-73518548D01*
X136673000Y-73681452D01*
X136704782Y-73841227D01*
X136767123Y-73991731D01*
X136857628Y-74127181D01*
X136972819Y-74242372D01*
X137108269Y-74332877D01*
X137258773Y-74395218D01*
X137418548Y-74427000D01*
X137581452Y-74427000D01*
X137741227Y-74395218D01*
X137891731Y-74332877D01*
X138027181Y-74242372D01*
X138142372Y-74127181D01*
X138232877Y-73991731D01*
X138295218Y-73841227D01*
X138327000Y-73681452D01*
X138327000Y-73518548D01*
X138295218Y-73358773D01*
X138232877Y-73208269D01*
X138142372Y-73072819D01*
X138027181Y-72957628D01*
X137891731Y-72867123D01*
X137741227Y-72804782D01*
X137581452Y-72773000D01*
X137418548Y-72773000D01*
X137258773Y-72804782D01*
X137108269Y-72867123D01*
X136972819Y-72957628D01*
X136857628Y-73072819D01*
X136767123Y-73208269D01*
X136704782Y-73358773D01*
X136673000Y-73518548D01*
X121377000Y-73518548D01*
X121377000Y-68250000D01*
X121374560Y-68225224D01*
X121367333Y-68201399D01*
X121355597Y-68179443D01*
X121339803Y-68160197D01*
X120808003Y-67628397D01*
X136573000Y-67628397D01*
X136573000Y-67771603D01*
X136600938Y-67912058D01*
X136655741Y-68044364D01*
X136735302Y-68163436D01*
X136836564Y-68264698D01*
X136955636Y-68344259D01*
X137087942Y-68399062D01*
X137228397Y-68427000D01*
X137371603Y-68427000D01*
X137512058Y-68399062D01*
X137644364Y-68344259D01*
X137763436Y-68264698D01*
X137864698Y-68163436D01*
X137944259Y-68044364D01*
X137999062Y-67912058D01*
X138027000Y-67771603D01*
X138027000Y-67628397D01*
X137999062Y-67487942D01*
X137944259Y-67355636D01*
X137864698Y-67236564D01*
X137763436Y-67135302D01*
X137644364Y-67055741D01*
X137512058Y-67000938D01*
X137371603Y-66973000D01*
X137228397Y-66973000D01*
X137087942Y-67000938D01*
X136955636Y-67055741D01*
X136836564Y-67135302D01*
X136735302Y-67236564D01*
X136655741Y-67355636D01*
X136600938Y-67487942D01*
X136573000Y-67628397D01*
X120808003Y-67628397D01*
X119298154Y-66118548D01*
X137073000Y-66118548D01*
X137073000Y-66281452D01*
X137104782Y-66441227D01*
X137167123Y-66591731D01*
X137257628Y-66727181D01*
X137372819Y-66842372D01*
X137508269Y-66932877D01*
X137658773Y-66995218D01*
X137818548Y-67027000D01*
X137981452Y-67027000D01*
X138141227Y-66995218D01*
X138291731Y-66932877D01*
X138427181Y-66842372D01*
X138542372Y-66727181D01*
X138632877Y-66591731D01*
X138695218Y-66441227D01*
X138727000Y-66281452D01*
X138727000Y-66118548D01*
X138695218Y-65958773D01*
X138632877Y-65808269D01*
X138542372Y-65672819D01*
X138427181Y-65557628D01*
X138291731Y-65467123D01*
X138141227Y-65404782D01*
X137981452Y-65373000D01*
X137818548Y-65373000D01*
X137658773Y-65404782D01*
X137508269Y-65467123D01*
X137372819Y-65557628D01*
X137257628Y-65672819D01*
X137167123Y-65808269D01*
X137104782Y-65958773D01*
X137073000Y-66118548D01*
X119298154Y-66118548D01*
X117627000Y-64447394D01*
X117627000Y-63030000D01*
X118780934Y-63030000D01*
X118780934Y-64730000D01*
X118789178Y-64813707D01*
X118813595Y-64894196D01*
X118853245Y-64968376D01*
X118906605Y-65033395D01*
X118971624Y-65086755D01*
X119045804Y-65126405D01*
X119126293Y-65150822D01*
X119210000Y-65159066D01*
X120910000Y-65159066D01*
X120993707Y-65150822D01*
X121074196Y-65126405D01*
X121148376Y-65086755D01*
X121213395Y-65033395D01*
X121266755Y-64968376D01*
X121306405Y-64894196D01*
X121330822Y-64813707D01*
X121339066Y-64730000D01*
X121339066Y-63030000D01*
X121330822Y-62946293D01*
X121306405Y-62865804D01*
X121266755Y-62791624D01*
X121213395Y-62726605D01*
X121148376Y-62673245D01*
X121074196Y-62633595D01*
X120993707Y-62609178D01*
X120910000Y-62600934D01*
X120266544Y-62600934D01*
X120432487Y-62567926D01*
X120664886Y-62471663D01*
X120874040Y-62331911D01*
X121051911Y-62154040D01*
X121191663Y-61944886D01*
X121287926Y-61712487D01*
X121337000Y-61465774D01*
X121337000Y-61214226D01*
X123863000Y-61214226D01*
X123863000Y-61465774D01*
X123912074Y-61712487D01*
X124008337Y-61944886D01*
X124148089Y-62154040D01*
X124325960Y-62331911D01*
X124535114Y-62471663D01*
X124767513Y-62567926D01*
X124979034Y-62610000D01*
X124767513Y-62652074D01*
X124535114Y-62748337D01*
X124325960Y-62888089D01*
X124148089Y-63065960D01*
X124008337Y-63275114D01*
X123912074Y-63507513D01*
X123863000Y-63754226D01*
X123863000Y-64005774D01*
X123912074Y-64252487D01*
X124008337Y-64484886D01*
X124148089Y-64694040D01*
X124325960Y-64871911D01*
X124535114Y-65011663D01*
X124767513Y-65107926D01*
X125014226Y-65157000D01*
X125265774Y-65157000D01*
X125512487Y-65107926D01*
X125744886Y-65011663D01*
X125954040Y-64871911D01*
X126131911Y-64694040D01*
X126271663Y-64484886D01*
X126367926Y-64252487D01*
X126410000Y-64040966D01*
X126452074Y-64252487D01*
X126548337Y-64484886D01*
X126688089Y-64694040D01*
X126865960Y-64871911D01*
X127075114Y-65011663D01*
X127307513Y-65107926D01*
X127554226Y-65157000D01*
X127805774Y-65157000D01*
X128052487Y-65107926D01*
X128284886Y-65011663D01*
X128494040Y-64871911D01*
X128671911Y-64694040D01*
X128789170Y-64518548D01*
X130973000Y-64518548D01*
X130973000Y-64681452D01*
X131004782Y-64841227D01*
X131067123Y-64991731D01*
X131157628Y-65127181D01*
X131272819Y-65242372D01*
X131408269Y-65332877D01*
X131558773Y-65395218D01*
X131718548Y-65427000D01*
X131881452Y-65427000D01*
X132041227Y-65395218D01*
X132191731Y-65332877D01*
X132327181Y-65242372D01*
X132442372Y-65127181D01*
X132532877Y-64991731D01*
X132595218Y-64841227D01*
X132627000Y-64681452D01*
X132627000Y-64518548D01*
X132595218Y-64358773D01*
X132532877Y-64208269D01*
X132442372Y-64072819D01*
X132327181Y-63957628D01*
X132191731Y-63867123D01*
X132041227Y-63804782D01*
X131881452Y-63773000D01*
X131718548Y-63773000D01*
X131558773Y-63804782D01*
X131408269Y-63867123D01*
X131272819Y-63957628D01*
X131157628Y-64072819D01*
X131067123Y-64208269D01*
X131004782Y-64358773D01*
X130973000Y-64518548D01*
X128789170Y-64518548D01*
X128811663Y-64484886D01*
X128907926Y-64252487D01*
X128957000Y-64005774D01*
X128957000Y-63754226D01*
X128907926Y-63507513D01*
X128811663Y-63275114D01*
X128671911Y-63065960D01*
X128494040Y-62888089D01*
X128284886Y-62748337D01*
X128052487Y-62652074D01*
X127840966Y-62610000D01*
X128052487Y-62567926D01*
X128284886Y-62471663D01*
X128494040Y-62331911D01*
X128671911Y-62154040D01*
X128811663Y-61944886D01*
X128907926Y-61712487D01*
X128957000Y-61465774D01*
X128957000Y-61214226D01*
X128907926Y-60967513D01*
X128811663Y-60735114D01*
X128671911Y-60525960D01*
X128494040Y-60348089D01*
X128284886Y-60208337D01*
X128068117Y-60118548D01*
X131173000Y-60118548D01*
X131173000Y-60281452D01*
X131204782Y-60441227D01*
X131267123Y-60591731D01*
X131357628Y-60727181D01*
X131472819Y-60842372D01*
X131608269Y-60932877D01*
X131758773Y-60995218D01*
X131918548Y-61027000D01*
X132081452Y-61027000D01*
X132241227Y-60995218D01*
X132391731Y-60932877D01*
X132527181Y-60842372D01*
X132642372Y-60727181D01*
X132732877Y-60591731D01*
X132795218Y-60441227D01*
X132827000Y-60281452D01*
X132827000Y-60118548D01*
X132795218Y-59958773D01*
X132732877Y-59808269D01*
X132642372Y-59672819D01*
X132527181Y-59557628D01*
X132391731Y-59467123D01*
X132241227Y-59404782D01*
X132081452Y-59373000D01*
X131918548Y-59373000D01*
X131758773Y-59404782D01*
X131608269Y-59467123D01*
X131472819Y-59557628D01*
X131357628Y-59672819D01*
X131267123Y-59808269D01*
X131204782Y-59958773D01*
X131173000Y-60118548D01*
X128068117Y-60118548D01*
X128052487Y-60112074D01*
X127805774Y-60063000D01*
X127554226Y-60063000D01*
X127307513Y-60112074D01*
X127075114Y-60208337D01*
X126865960Y-60348089D01*
X126688089Y-60525960D01*
X126548337Y-60735114D01*
X126452074Y-60967513D01*
X126410000Y-61179034D01*
X126367926Y-60967513D01*
X126271663Y-60735114D01*
X126131911Y-60525960D01*
X125954040Y-60348089D01*
X125744886Y-60208337D01*
X125512487Y-60112074D01*
X125265774Y-60063000D01*
X125014226Y-60063000D01*
X124767513Y-60112074D01*
X124535114Y-60208337D01*
X124325960Y-60348089D01*
X124148089Y-60525960D01*
X124008337Y-60735114D01*
X123912074Y-60967513D01*
X123863000Y-61214226D01*
X121337000Y-61214226D01*
X121287926Y-60967513D01*
X121191663Y-60735114D01*
X121051911Y-60525960D01*
X120874040Y-60348089D01*
X120664886Y-60208337D01*
X120432487Y-60112074D01*
X120185774Y-60063000D01*
X119934226Y-60063000D01*
X119687513Y-60112074D01*
X119455114Y-60208337D01*
X119245960Y-60348089D01*
X119068089Y-60525960D01*
X118928337Y-60735114D01*
X118832074Y-60967513D01*
X118783000Y-61214226D01*
X118783000Y-61465774D01*
X118832074Y-61712487D01*
X118928337Y-61944886D01*
X119068089Y-62154040D01*
X119245960Y-62331911D01*
X119455114Y-62471663D01*
X119687513Y-62567926D01*
X119853456Y-62600934D01*
X119210000Y-62600934D01*
X119126293Y-62609178D01*
X119045804Y-62633595D01*
X118971624Y-62673245D01*
X118906605Y-62726605D01*
X118853245Y-62791624D01*
X118813595Y-62865804D01*
X118789178Y-62946293D01*
X118780934Y-63030000D01*
X117627000Y-63030000D01*
X117627000Y-57452000D01*
X141373000Y-57452000D01*
X141373000Y-62403447D01*
G37*
%TD.AperFunction*%
%TD*%
M02*
