%TF.GenerationSoftware,KiCad,Pcbnew,(5.1.8-0-10_14)*%
%TF.CreationDate,2020-11-30T14:10:51+01:00*%
%TF.ProjectId,FET_Multi,4645545f-4d75-46c7-9469-2e6b69636164,0.2.0*%
%TF.SameCoordinates,Original*%
%TF.FileFunction,Legend,Bot*%
%TF.FilePolarity,Positive*%
%FSLAX46Y46*%
G04 Gerber Fmt 4.6, Leading zero omitted, Abs format (unit mm)*
G04 Created by KiCad (PCBNEW (5.1.8-0-10_14)) date 2020-11-30 14:10:51*
%MOMM*%
%LPD*%
G01*
G04 APERTURE LIST*
%ADD10C,0.160000*%
%ADD11C,0.200000*%
%TA.AperFunction,Profile*%
%ADD12C,0.050000*%
%TD*%
%ADD13C,0.010000*%
G04 APERTURE END LIST*
D10*
X137714285Y-101966666D02*
X137238095Y-101966666D01*
X137809523Y-102252380D02*
X137476190Y-101252380D01*
X137142857Y-102252380D01*
X136857142Y-101347619D02*
X136809523Y-101300000D01*
X136714285Y-101252380D01*
X136476190Y-101252380D01*
X136380952Y-101300000D01*
X136333333Y-101347619D01*
X136285714Y-101442857D01*
X136285714Y-101538095D01*
X136333333Y-101680952D01*
X136904761Y-102252380D01*
X136285714Y-102252380D01*
X140114285Y-101966666D02*
X139638095Y-101966666D01*
X140209523Y-102252380D02*
X139876190Y-101252380D01*
X139542857Y-102252380D01*
X138685714Y-102252380D02*
X139257142Y-102252380D01*
X138971428Y-102252380D02*
X138971428Y-101252380D01*
X139066666Y-101395238D01*
X139161904Y-101490476D01*
X139257142Y-101538095D01*
X142714285Y-101966666D02*
X142238095Y-101966666D01*
X142809523Y-102252380D02*
X142476190Y-101252380D01*
X142142857Y-102252380D01*
X141619047Y-101252380D02*
X141523809Y-101252380D01*
X141428571Y-101300000D01*
X141380952Y-101347619D01*
X141333333Y-101442857D01*
X141285714Y-101633333D01*
X141285714Y-101871428D01*
X141333333Y-102061904D01*
X141380952Y-102157142D01*
X141428571Y-102204761D01*
X141523809Y-102252380D01*
X141619047Y-102252380D01*
X141714285Y-102204761D01*
X141761904Y-102157142D01*
X141809523Y-102061904D01*
X141857142Y-101871428D01*
X141857142Y-101633333D01*
X141809523Y-101442857D01*
X141761904Y-101347619D01*
X141714285Y-101300000D01*
X141619047Y-101252380D01*
X114200000Y-113316666D02*
X114200000Y-112616666D01*
X113866666Y-113316666D02*
X113866666Y-112616666D01*
X113466666Y-113316666D01*
X113466666Y-112616666D01*
X112766666Y-113316666D02*
X113166666Y-113316666D01*
X112966666Y-113316666D02*
X112966666Y-112616666D01*
X113033333Y-112716666D01*
X113100000Y-112783333D01*
X113166666Y-112816666D01*
X110500000Y-113316666D02*
X110500000Y-112616666D01*
X110166666Y-113316666D02*
X110166666Y-112616666D01*
X109766666Y-113316666D01*
X109766666Y-112616666D01*
X109466666Y-112683333D02*
X109433333Y-112650000D01*
X109366666Y-112616666D01*
X109200000Y-112616666D01*
X109133333Y-112650000D01*
X109100000Y-112683333D01*
X109066666Y-112750000D01*
X109066666Y-112816666D01*
X109100000Y-112916666D01*
X109500000Y-113316666D01*
X109066666Y-113316666D01*
X106433333Y-112650000D02*
X106500000Y-112616666D01*
X106600000Y-112616666D01*
X106700000Y-112650000D01*
X106766666Y-112716666D01*
X106800000Y-112783333D01*
X106833333Y-112916666D01*
X106833333Y-113016666D01*
X106800000Y-113150000D01*
X106766666Y-113216666D01*
X106700000Y-113283333D01*
X106600000Y-113316666D01*
X106533333Y-113316666D01*
X106433333Y-113283333D01*
X106400000Y-113250000D01*
X106400000Y-113016666D01*
X106533333Y-113016666D01*
X106100000Y-113316666D02*
X106100000Y-112616666D01*
X105700000Y-113316666D01*
X105700000Y-112616666D01*
X105366666Y-113316666D02*
X105366666Y-112616666D01*
X105200000Y-112616666D01*
X105100000Y-112650000D01*
X105033333Y-112716666D01*
X105000000Y-112783333D01*
X104966666Y-112916666D01*
X104966666Y-113016666D01*
X105000000Y-113150000D01*
X105033333Y-113216666D01*
X105100000Y-113283333D01*
X105200000Y-113316666D01*
X105366666Y-113316666D01*
X102733333Y-112650000D02*
X102800000Y-112616666D01*
X102900000Y-112616666D01*
X103000000Y-112650000D01*
X103066666Y-112716666D01*
X103100000Y-112783333D01*
X103133333Y-112916666D01*
X103133333Y-113016666D01*
X103100000Y-113150000D01*
X103066666Y-113216666D01*
X103000000Y-113283333D01*
X102900000Y-113316666D01*
X102833333Y-113316666D01*
X102733333Y-113283333D01*
X102700000Y-113250000D01*
X102700000Y-113016666D01*
X102833333Y-113016666D01*
X102400000Y-113316666D02*
X102400000Y-112616666D01*
X102000000Y-113316666D01*
X102000000Y-112616666D01*
X101666666Y-113316666D02*
X101666666Y-112616666D01*
X101500000Y-112616666D01*
X101400000Y-112650000D01*
X101333333Y-112716666D01*
X101300000Y-112783333D01*
X101266666Y-112916666D01*
X101266666Y-113016666D01*
X101300000Y-113150000D01*
X101333333Y-113216666D01*
X101400000Y-113283333D01*
X101500000Y-113316666D01*
X101666666Y-113316666D01*
X166533333Y-58550000D02*
X166600000Y-58516666D01*
X166700000Y-58516666D01*
X166800000Y-58550000D01*
X166866666Y-58616666D01*
X166900000Y-58683333D01*
X166933333Y-58816666D01*
X166933333Y-58916666D01*
X166900000Y-59050000D01*
X166866666Y-59116666D01*
X166800000Y-59183333D01*
X166700000Y-59216666D01*
X166633333Y-59216666D01*
X166533333Y-59183333D01*
X166500000Y-59150000D01*
X166500000Y-58916666D01*
X166633333Y-58916666D01*
X166200000Y-59216666D02*
X166200000Y-58516666D01*
X165800000Y-59216666D01*
X165800000Y-58516666D01*
X165466666Y-59216666D02*
X165466666Y-58516666D01*
X165300000Y-58516666D01*
X165200000Y-58550000D01*
X165133333Y-58616666D01*
X165100000Y-58683333D01*
X165066666Y-58816666D01*
X165066666Y-58916666D01*
X165100000Y-59050000D01*
X165133333Y-59116666D01*
X165200000Y-59183333D01*
X165300000Y-59216666D01*
X165466666Y-59216666D01*
X162733333Y-58550000D02*
X162800000Y-58516666D01*
X162900000Y-58516666D01*
X163000000Y-58550000D01*
X163066666Y-58616666D01*
X163100000Y-58683333D01*
X163133333Y-58816666D01*
X163133333Y-58916666D01*
X163100000Y-59050000D01*
X163066666Y-59116666D01*
X163000000Y-59183333D01*
X162900000Y-59216666D01*
X162833333Y-59216666D01*
X162733333Y-59183333D01*
X162700000Y-59150000D01*
X162700000Y-58916666D01*
X162833333Y-58916666D01*
X162400000Y-59216666D02*
X162400000Y-58516666D01*
X162000000Y-59216666D01*
X162000000Y-58516666D01*
X161666666Y-59216666D02*
X161666666Y-58516666D01*
X161500000Y-58516666D01*
X161400000Y-58550000D01*
X161333333Y-58616666D01*
X161300000Y-58683333D01*
X161266666Y-58816666D01*
X161266666Y-58916666D01*
X161300000Y-59050000D01*
X161333333Y-59116666D01*
X161400000Y-59183333D01*
X161500000Y-59216666D01*
X161666666Y-59216666D01*
X159100000Y-59216666D02*
X159100000Y-58516666D01*
X158766666Y-59216666D02*
X158766666Y-58516666D01*
X158366666Y-59216666D01*
X158366666Y-58516666D01*
X157733333Y-58750000D02*
X157733333Y-59216666D01*
X157900000Y-58483333D02*
X158066666Y-58983333D01*
X157633333Y-58983333D01*
X155300000Y-59216666D02*
X155300000Y-58516666D01*
X154966666Y-59216666D02*
X154966666Y-58516666D01*
X154566666Y-59216666D01*
X154566666Y-58516666D01*
X154300000Y-58516666D02*
X153866666Y-58516666D01*
X154100000Y-58783333D01*
X154000000Y-58783333D01*
X153933333Y-58816666D01*
X153900000Y-58850000D01*
X153866666Y-58916666D01*
X153866666Y-59083333D01*
X153900000Y-59150000D01*
X153933333Y-59183333D01*
X154000000Y-59216666D01*
X154200000Y-59216666D01*
X154266666Y-59183333D01*
X154300000Y-59150000D01*
X120350000Y-59533333D02*
X120383333Y-59600000D01*
X120383333Y-59700000D01*
X120350000Y-59800000D01*
X120283333Y-59866666D01*
X120216666Y-59900000D01*
X120083333Y-59933333D01*
X119983333Y-59933333D01*
X119850000Y-59900000D01*
X119783333Y-59866666D01*
X119716666Y-59800000D01*
X119683333Y-59700000D01*
X119683333Y-59633333D01*
X119716666Y-59533333D01*
X119750000Y-59500000D01*
X119983333Y-59500000D01*
X119983333Y-59633333D01*
X119683333Y-59200000D02*
X120383333Y-59200000D01*
X119683333Y-58800000D01*
X120383333Y-58800000D01*
X119683333Y-58466666D02*
X120383333Y-58466666D01*
X120383333Y-58300000D01*
X120350000Y-58200000D01*
X120283333Y-58133333D01*
X120216666Y-58100000D01*
X120083333Y-58066666D01*
X119983333Y-58066666D01*
X119850000Y-58100000D01*
X119783333Y-58133333D01*
X119716666Y-58200000D01*
X119683333Y-58300000D01*
X119683333Y-58466666D01*
X122983333Y-59866666D02*
X122983333Y-59433333D01*
X122716666Y-59666666D01*
X122716666Y-59566666D01*
X122683333Y-59500000D01*
X122650000Y-59466666D01*
X122583333Y-59433333D01*
X122416666Y-59433333D01*
X122350000Y-59466666D01*
X122316666Y-59500000D01*
X122283333Y-59566666D01*
X122283333Y-59766666D01*
X122316666Y-59833333D01*
X122350000Y-59866666D01*
X122983333Y-59233333D02*
X122283333Y-59000000D01*
X122983333Y-58766666D01*
X122983333Y-58600000D02*
X122983333Y-58166666D01*
X122716666Y-58400000D01*
X122716666Y-58300000D01*
X122683333Y-58233333D01*
X122650000Y-58200000D01*
X122583333Y-58166666D01*
X122416666Y-58166666D01*
X122350000Y-58200000D01*
X122316666Y-58233333D01*
X122283333Y-58300000D01*
X122283333Y-58500000D01*
X122316666Y-58566666D01*
X122350000Y-58600000D01*
X127416666Y-59850000D02*
X127383333Y-59750000D01*
X127383333Y-59583333D01*
X127416666Y-59516666D01*
X127450000Y-59483333D01*
X127516666Y-59450000D01*
X127583333Y-59450000D01*
X127650000Y-59483333D01*
X127683333Y-59516666D01*
X127716666Y-59583333D01*
X127750000Y-59716666D01*
X127783333Y-59783333D01*
X127816666Y-59816666D01*
X127883333Y-59850000D01*
X127950000Y-59850000D01*
X128016666Y-59816666D01*
X128050000Y-59783333D01*
X128083333Y-59716666D01*
X128083333Y-59550000D01*
X128050000Y-59450000D01*
X127383333Y-59150000D02*
X128083333Y-59150000D01*
X128083333Y-58983333D01*
X128050000Y-58883333D01*
X127983333Y-58816666D01*
X127916666Y-58783333D01*
X127783333Y-58750000D01*
X127683333Y-58750000D01*
X127550000Y-58783333D01*
X127483333Y-58816666D01*
X127416666Y-58883333D01*
X127383333Y-58983333D01*
X127383333Y-59150000D01*
X127583333Y-58483333D02*
X127583333Y-58150000D01*
X127383333Y-58550000D02*
X128083333Y-58316666D01*
X127383333Y-58083333D01*
X124716666Y-59833333D02*
X124683333Y-59733333D01*
X124683333Y-59566666D01*
X124716666Y-59500000D01*
X124750000Y-59466666D01*
X124816666Y-59433333D01*
X124883333Y-59433333D01*
X124950000Y-59466666D01*
X124983333Y-59500000D01*
X125016666Y-59566666D01*
X125050000Y-59700000D01*
X125083333Y-59766666D01*
X125116666Y-59800000D01*
X125183333Y-59833333D01*
X125250000Y-59833333D01*
X125316666Y-59800000D01*
X125350000Y-59766666D01*
X125383333Y-59700000D01*
X125383333Y-59533333D01*
X125350000Y-59433333D01*
X124750000Y-58733333D02*
X124716666Y-58766666D01*
X124683333Y-58866666D01*
X124683333Y-58933333D01*
X124716666Y-59033333D01*
X124783333Y-59100000D01*
X124850000Y-59133333D01*
X124983333Y-59166666D01*
X125083333Y-59166666D01*
X125216666Y-59133333D01*
X125283333Y-59100000D01*
X125350000Y-59033333D01*
X125383333Y-58933333D01*
X125383333Y-58866666D01*
X125350000Y-58766666D01*
X125316666Y-58733333D01*
X124683333Y-58100000D02*
X124683333Y-58433333D01*
X125383333Y-58433333D01*
D11*
X159142857Y-94678571D02*
X159142857Y-93178571D01*
X158500000Y-94678571D02*
X158500000Y-93892857D01*
X158571428Y-93750000D01*
X158714285Y-93678571D01*
X158928571Y-93678571D01*
X159071428Y-93750000D01*
X159142857Y-93821428D01*
X158000000Y-93678571D02*
X157428571Y-93678571D01*
X157785714Y-93178571D02*
X157785714Y-94464285D01*
X157714285Y-94607142D01*
X157571428Y-94678571D01*
X157428571Y-94678571D01*
X157142857Y-93678571D02*
X156571428Y-93678571D01*
X156928571Y-93178571D02*
X156928571Y-94464285D01*
X156857142Y-94607142D01*
X156714285Y-94678571D01*
X156571428Y-94678571D01*
X156071428Y-93678571D02*
X156071428Y-95178571D01*
X156071428Y-93750000D02*
X155928571Y-93678571D01*
X155642857Y-93678571D01*
X155500000Y-93750000D01*
X155428571Y-93821428D01*
X155357142Y-93964285D01*
X155357142Y-94392857D01*
X155428571Y-94535714D01*
X155500000Y-94607142D01*
X155642857Y-94678571D01*
X155928571Y-94678571D01*
X156071428Y-94607142D01*
X154785714Y-94607142D02*
X154642857Y-94678571D01*
X154357142Y-94678571D01*
X154214285Y-94607142D01*
X154142857Y-94464285D01*
X154142857Y-94392857D01*
X154214285Y-94250000D01*
X154357142Y-94178571D01*
X154571428Y-94178571D01*
X154714285Y-94107142D01*
X154785714Y-93964285D01*
X154785714Y-93892857D01*
X154714285Y-93750000D01*
X154571428Y-93678571D01*
X154357142Y-93678571D01*
X154214285Y-93750000D01*
X153500000Y-94535714D02*
X153428571Y-94607142D01*
X153500000Y-94678571D01*
X153571428Y-94607142D01*
X153500000Y-94535714D01*
X153500000Y-94678571D01*
X153500000Y-93750000D02*
X153428571Y-93821428D01*
X153500000Y-93892857D01*
X153571428Y-93821428D01*
X153500000Y-93750000D01*
X153500000Y-93892857D01*
X151714285Y-93107142D02*
X153000000Y-95035714D01*
X150142857Y-93107142D02*
X151428571Y-95035714D01*
X149000000Y-93678571D02*
X149000000Y-94892857D01*
X149071428Y-95035714D01*
X149142857Y-95107142D01*
X149285714Y-95178571D01*
X149500000Y-95178571D01*
X149642857Y-95107142D01*
X149000000Y-94607142D02*
X149142857Y-94678571D01*
X149428571Y-94678571D01*
X149571428Y-94607142D01*
X149642857Y-94535714D01*
X149714285Y-94392857D01*
X149714285Y-93964285D01*
X149642857Y-93821428D01*
X149571428Y-93750000D01*
X149428571Y-93678571D01*
X149142857Y-93678571D01*
X149000000Y-93750000D01*
X148285714Y-94678571D02*
X148285714Y-93678571D01*
X148285714Y-93178571D02*
X148357142Y-93250000D01*
X148285714Y-93321428D01*
X148214285Y-93250000D01*
X148285714Y-93178571D01*
X148285714Y-93321428D01*
X147785714Y-93678571D02*
X147214285Y-93678571D01*
X147571428Y-93178571D02*
X147571428Y-94464285D01*
X147500000Y-94607142D01*
X147357142Y-94678571D01*
X147214285Y-94678571D01*
X146714285Y-94678571D02*
X146714285Y-93178571D01*
X146071428Y-94678571D02*
X146071428Y-93892857D01*
X146142857Y-93750000D01*
X146285714Y-93678571D01*
X146500000Y-93678571D01*
X146642857Y-93750000D01*
X146714285Y-93821428D01*
X144714285Y-93678571D02*
X144714285Y-94678571D01*
X145357142Y-93678571D02*
X145357142Y-94464285D01*
X145285714Y-94607142D01*
X145142857Y-94678571D01*
X144928571Y-94678571D01*
X144785714Y-94607142D01*
X144714285Y-94535714D01*
X144000000Y-94678571D02*
X144000000Y-93178571D01*
X144000000Y-93750000D02*
X143857142Y-93678571D01*
X143571428Y-93678571D01*
X143428571Y-93750000D01*
X143357142Y-93821428D01*
X143285714Y-93964285D01*
X143285714Y-94392857D01*
X143357142Y-94535714D01*
X143428571Y-94607142D01*
X143571428Y-94678571D01*
X143857142Y-94678571D01*
X144000000Y-94607142D01*
X142642857Y-94535714D02*
X142571428Y-94607142D01*
X142642857Y-94678571D01*
X142714285Y-94607142D01*
X142642857Y-94535714D01*
X142642857Y-94678571D01*
X141285714Y-94607142D02*
X141428571Y-94678571D01*
X141714285Y-94678571D01*
X141857142Y-94607142D01*
X141928571Y-94535714D01*
X142000000Y-94392857D01*
X142000000Y-93964285D01*
X141928571Y-93821428D01*
X141857142Y-93750000D01*
X141714285Y-93678571D01*
X141428571Y-93678571D01*
X141285714Y-93750000D01*
X140428571Y-94678571D02*
X140571428Y-94607142D01*
X140642857Y-94535714D01*
X140714285Y-94392857D01*
X140714285Y-93964285D01*
X140642857Y-93821428D01*
X140571428Y-93750000D01*
X140428571Y-93678571D01*
X140214285Y-93678571D01*
X140071428Y-93750000D01*
X140000000Y-93821428D01*
X139928571Y-93964285D01*
X139928571Y-94392857D01*
X140000000Y-94535714D01*
X140071428Y-94607142D01*
X140214285Y-94678571D01*
X140428571Y-94678571D01*
X139285714Y-94678571D02*
X139285714Y-93678571D01*
X139285714Y-93821428D02*
X139214285Y-93750000D01*
X139071428Y-93678571D01*
X138857142Y-93678571D01*
X138714285Y-93750000D01*
X138642857Y-93892857D01*
X138642857Y-94678571D01*
X138642857Y-93892857D02*
X138571428Y-93750000D01*
X138428571Y-93678571D01*
X138214285Y-93678571D01*
X138071428Y-93750000D01*
X138000000Y-93892857D01*
X138000000Y-94678571D01*
X136214285Y-93107142D02*
X137500000Y-95035714D01*
X135714285Y-94678571D02*
X135714285Y-93678571D01*
X135714285Y-93821428D02*
X135642857Y-93750000D01*
X135500000Y-93678571D01*
X135285714Y-93678571D01*
X135142857Y-93750000D01*
X135071428Y-93892857D01*
X135071428Y-94678571D01*
X135071428Y-93892857D02*
X135000000Y-93750000D01*
X134857142Y-93678571D01*
X134642857Y-93678571D01*
X134500000Y-93750000D01*
X134428571Y-93892857D01*
X134428571Y-94678571D01*
X133071428Y-94678571D02*
X133071428Y-93892857D01*
X133142857Y-93750000D01*
X133285714Y-93678571D01*
X133571428Y-93678571D01*
X133714285Y-93750000D01*
X133071428Y-94607142D02*
X133214285Y-94678571D01*
X133571428Y-94678571D01*
X133714285Y-94607142D01*
X133785714Y-94464285D01*
X133785714Y-94321428D01*
X133714285Y-94178571D01*
X133571428Y-94107142D01*
X133214285Y-94107142D01*
X133071428Y-94035714D01*
X132357142Y-94678571D02*
X132357142Y-93678571D01*
X132357142Y-93964285D02*
X132285714Y-93821428D01*
X132214285Y-93750000D01*
X132071428Y-93678571D01*
X131928571Y-93678571D01*
X131428571Y-94678571D02*
X131428571Y-93178571D01*
X131285714Y-94107142D02*
X130857142Y-94678571D01*
X130857142Y-93678571D02*
X131428571Y-94250000D01*
X130428571Y-93678571D02*
X129857142Y-93678571D01*
X130214285Y-94678571D02*
X130214285Y-93392857D01*
X130142857Y-93250000D01*
X129999999Y-93178571D01*
X129857142Y-93178571D01*
X128714285Y-94678571D02*
X128714285Y-93892857D01*
X128785714Y-93750000D01*
X128928571Y-93678571D01*
X129214285Y-93678571D01*
X129357142Y-93750000D01*
X128714285Y-94607142D02*
X128857142Y-94678571D01*
X129214285Y-94678571D01*
X129357142Y-94607142D01*
X129428571Y-94464285D01*
X129428571Y-94321428D01*
X129357142Y-94178571D01*
X129214285Y-94107142D01*
X128857142Y-94107142D01*
X128714285Y-94035714D01*
X127999999Y-94678571D02*
X127999999Y-93678571D01*
X127999999Y-93964285D02*
X127928571Y-93821428D01*
X127857142Y-93750000D01*
X127714285Y-93678571D01*
X127571428Y-93678571D01*
X127071428Y-93678571D02*
X127071428Y-94678571D01*
X127071428Y-93821428D02*
X126999999Y-93750000D01*
X126857142Y-93678571D01*
X126642857Y-93678571D01*
X126499999Y-93750000D01*
X126428571Y-93892857D01*
X126428571Y-94678571D01*
X125071428Y-94678571D02*
X125071428Y-93892857D01*
X125142857Y-93750000D01*
X125285714Y-93678571D01*
X125571428Y-93678571D01*
X125714285Y-93750000D01*
X125071428Y-94607142D02*
X125214285Y-94678571D01*
X125571428Y-94678571D01*
X125714285Y-94607142D01*
X125785714Y-94464285D01*
X125785714Y-94321428D01*
X125714285Y-94178571D01*
X125571428Y-94107142D01*
X125214285Y-94107142D01*
X125071428Y-94035714D01*
X124357142Y-93678571D02*
X124357142Y-94678571D01*
X124357142Y-93821428D02*
X124285714Y-93750000D01*
X124142857Y-93678571D01*
X123928571Y-93678571D01*
X123785714Y-93750000D01*
X123714285Y-93892857D01*
X123714285Y-94678571D01*
X121928571Y-93107142D02*
X123214285Y-95035714D01*
X121571428Y-93678571D02*
X121214285Y-94678571D01*
X120857142Y-93678571D02*
X121214285Y-94678571D01*
X121357142Y-95035714D01*
X121428571Y-95107142D01*
X121571428Y-95178571D01*
X119642857Y-94678571D02*
X119642857Y-93892857D01*
X119714285Y-93750000D01*
X119857142Y-93678571D01*
X120142857Y-93678571D01*
X120285714Y-93750000D01*
X119642857Y-94607142D02*
X119785714Y-94678571D01*
X120142857Y-94678571D01*
X120285714Y-94607142D01*
X120357142Y-94464285D01*
X120357142Y-94321428D01*
X120285714Y-94178571D01*
X120142857Y-94107142D01*
X119785714Y-94107142D01*
X119642857Y-94035714D01*
X118285714Y-94607142D02*
X118428571Y-94678571D01*
X118714285Y-94678571D01*
X118857142Y-94607142D01*
X118928571Y-94535714D01*
X118999999Y-94392857D01*
X118999999Y-93964285D01*
X118928571Y-93821428D01*
X118857142Y-93750000D01*
X118714285Y-93678571D01*
X118428571Y-93678571D01*
X118285714Y-93750000D01*
X117642857Y-94678571D02*
X117642857Y-93178571D01*
X116999999Y-94678571D02*
X116999999Y-93892857D01*
X117071428Y-93750000D01*
X117214285Y-93678571D01*
X117428571Y-93678571D01*
X117571428Y-93750000D01*
X117642857Y-93821428D01*
X116499999Y-93678571D02*
X115928571Y-93678571D01*
X116285714Y-93178571D02*
X116285714Y-94464285D01*
X116214285Y-94607142D01*
X116071428Y-94678571D01*
X115928571Y-94678571D01*
X115785714Y-94821428D02*
X114642857Y-94821428D01*
X114285714Y-94678571D02*
X114285714Y-93178571D01*
X113642857Y-94678571D02*
X113642857Y-93892857D01*
X113714285Y-93750000D01*
X113857142Y-93678571D01*
X114071428Y-93678571D01*
X114214285Y-93750000D01*
X114285714Y-93821428D01*
X112285714Y-94678571D02*
X112285714Y-93892857D01*
X112357142Y-93750000D01*
X112499999Y-93678571D01*
X112785714Y-93678571D01*
X112928571Y-93750000D01*
X112285714Y-94607142D02*
X112428571Y-94678571D01*
X112785714Y-94678571D01*
X112928571Y-94607142D01*
X112999999Y-94464285D01*
X112999999Y-94321428D01*
X112928571Y-94178571D01*
X112785714Y-94107142D01*
X112428571Y-94107142D01*
X112285714Y-94035714D01*
X111571428Y-94678571D02*
X111571428Y-93678571D01*
X111571428Y-93964285D02*
X111499999Y-93821428D01*
X111428571Y-93750000D01*
X111285714Y-93678571D01*
X111142857Y-93678571D01*
X109999999Y-94678571D02*
X109999999Y-93178571D01*
X109999999Y-94607142D02*
X110142857Y-94678571D01*
X110428571Y-94678571D01*
X110571428Y-94607142D01*
X110642857Y-94535714D01*
X110714285Y-94392857D01*
X110714285Y-93964285D01*
X110642857Y-93821428D01*
X110571428Y-93750000D01*
X110428571Y-93678571D01*
X110142857Y-93678571D01*
X109999999Y-93750000D01*
X109428571Y-93678571D02*
X109142857Y-94678571D01*
X108857142Y-93964285D01*
X108571428Y-94678571D01*
X108285714Y-93678571D01*
X107071428Y-94678571D02*
X107071428Y-93892857D01*
X107142857Y-93750000D01*
X107285714Y-93678571D01*
X107571428Y-93678571D01*
X107714285Y-93750000D01*
X107071428Y-94607142D02*
X107214285Y-94678571D01*
X107571428Y-94678571D01*
X107714285Y-94607142D01*
X107785714Y-94464285D01*
X107785714Y-94321428D01*
X107714285Y-94178571D01*
X107571428Y-94107142D01*
X107214285Y-94107142D01*
X107071428Y-94035714D01*
X106357142Y-94678571D02*
X106357142Y-93678571D01*
X106357142Y-93964285D02*
X106285714Y-93821428D01*
X106214285Y-93750000D01*
X106071428Y-93678571D01*
X105928571Y-93678571D01*
X104857142Y-94607142D02*
X104999999Y-94678571D01*
X105285714Y-94678571D01*
X105428571Y-94607142D01*
X105499999Y-94464285D01*
X105499999Y-93892857D01*
X105428571Y-93750000D01*
X105285714Y-93678571D01*
X104999999Y-93678571D01*
X104857142Y-93750000D01*
X104785714Y-93892857D01*
X104785714Y-94035714D01*
X105499999Y-94178571D01*
D10*
X150229333Y-88125714D02*
X150229333Y-88792380D01*
X150467428Y-87744761D02*
X150705523Y-88459047D01*
X150086476Y-88459047D01*
X149038857Y-88792380D02*
X148515047Y-88125714D01*
X149038857Y-88125714D02*
X148515047Y-88792380D01*
X147419809Y-87887619D02*
X147372190Y-87840000D01*
X147276952Y-87792380D01*
X147038857Y-87792380D01*
X146943619Y-87840000D01*
X146896000Y-87887619D01*
X146848380Y-87982857D01*
X146848380Y-88078095D01*
X146896000Y-88220952D01*
X147467428Y-88792380D01*
X146848380Y-88792380D01*
X146229333Y-87792380D02*
X146134095Y-87792380D01*
X146038857Y-87840000D01*
X145991238Y-87887619D01*
X145943619Y-87982857D01*
X145896000Y-88173333D01*
X145896000Y-88411428D01*
X145943619Y-88601904D01*
X145991238Y-88697142D01*
X146038857Y-88744761D01*
X146134095Y-88792380D01*
X146229333Y-88792380D01*
X146324571Y-88744761D01*
X146372190Y-88697142D01*
X146419809Y-88601904D01*
X146467428Y-88411428D01*
X146467428Y-88173333D01*
X146419809Y-87982857D01*
X146372190Y-87887619D01*
X146324571Y-87840000D01*
X146229333Y-87792380D01*
X145515047Y-88506666D02*
X145038857Y-88506666D01*
X145610285Y-88792380D02*
X145276952Y-87792380D01*
X144943619Y-88792380D01*
X143848380Y-88792380D02*
X143848380Y-87792380D01*
X143467428Y-87792380D01*
X143372190Y-87840000D01*
X143324571Y-87887619D01*
X143276952Y-87982857D01*
X143276952Y-88125714D01*
X143324571Y-88220952D01*
X143372190Y-88268571D01*
X143467428Y-88316190D01*
X143848380Y-88316190D01*
X142848380Y-88411428D02*
X142086476Y-88411428D01*
X141038857Y-88697142D02*
X141086476Y-88744761D01*
X141229333Y-88792380D01*
X141324571Y-88792380D01*
X141467428Y-88744761D01*
X141562666Y-88649523D01*
X141610285Y-88554285D01*
X141657904Y-88363809D01*
X141657904Y-88220952D01*
X141610285Y-88030476D01*
X141562666Y-87935238D01*
X141467428Y-87840000D01*
X141324571Y-87792380D01*
X141229333Y-87792380D01*
X141086476Y-87840000D01*
X141038857Y-87887619D01*
X140610285Y-88792380D02*
X140610285Y-87792380D01*
X140181714Y-88792380D02*
X140181714Y-88268571D01*
X140229333Y-88173333D01*
X140324571Y-88125714D01*
X140467428Y-88125714D01*
X140562666Y-88173333D01*
X140610285Y-88220952D01*
X139276952Y-88792380D02*
X139276952Y-88268571D01*
X139324571Y-88173333D01*
X139419809Y-88125714D01*
X139610285Y-88125714D01*
X139705523Y-88173333D01*
X139276952Y-88744761D02*
X139372190Y-88792380D01*
X139610285Y-88792380D01*
X139705523Y-88744761D01*
X139753142Y-88649523D01*
X139753142Y-88554285D01*
X139705523Y-88459047D01*
X139610285Y-88411428D01*
X139372190Y-88411428D01*
X139276952Y-88363809D01*
X138800761Y-88125714D02*
X138800761Y-88792380D01*
X138800761Y-88220952D02*
X138753142Y-88173333D01*
X138657904Y-88125714D01*
X138515047Y-88125714D01*
X138419809Y-88173333D01*
X138372190Y-88268571D01*
X138372190Y-88792380D01*
X137896000Y-88125714D02*
X137896000Y-88792380D01*
X137896000Y-88220952D02*
X137848380Y-88173333D01*
X137753142Y-88125714D01*
X137610285Y-88125714D01*
X137515047Y-88173333D01*
X137467428Y-88268571D01*
X137467428Y-88792380D01*
X136610285Y-88744761D02*
X136705523Y-88792380D01*
X136896000Y-88792380D01*
X136991238Y-88744761D01*
X137038857Y-88649523D01*
X137038857Y-88268571D01*
X136991238Y-88173333D01*
X136896000Y-88125714D01*
X136705523Y-88125714D01*
X136610285Y-88173333D01*
X136562666Y-88268571D01*
X136562666Y-88363809D01*
X137038857Y-88459047D01*
X135991238Y-88792380D02*
X136086476Y-88744761D01*
X136134095Y-88649523D01*
X136134095Y-87792380D01*
X134515047Y-88268571D02*
X134848380Y-88268571D01*
X134848380Y-88792380D02*
X134848380Y-87792380D01*
X134372190Y-87792380D01*
X133991238Y-88268571D02*
X133657904Y-88268571D01*
X133515047Y-88792380D02*
X133991238Y-88792380D01*
X133991238Y-87792380D01*
X133515047Y-87792380D01*
X133229333Y-87792380D02*
X132657904Y-87792380D01*
X132943619Y-88792380D02*
X132943619Y-87792380D01*
X131276952Y-89173333D02*
X131324571Y-89125714D01*
X131419809Y-88982857D01*
X131467428Y-88887619D01*
X131515047Y-88744761D01*
X131562666Y-88506666D01*
X131562666Y-88316190D01*
X131515047Y-88078095D01*
X131467428Y-87935238D01*
X131419809Y-87840000D01*
X131324571Y-87697142D01*
X131276952Y-87649523D01*
X130896000Y-88792380D02*
X130896000Y-87792380D01*
X130896000Y-88268571D02*
X130324571Y-88268571D01*
X130324571Y-88792380D02*
X130324571Y-87792380D01*
X129848380Y-88792380D02*
X129848380Y-88125714D01*
X129848380Y-87792380D02*
X129896000Y-87840000D01*
X129848380Y-87887619D01*
X129800761Y-87840000D01*
X129848380Y-87792380D01*
X129848380Y-87887619D01*
X128943619Y-88125714D02*
X128943619Y-88935238D01*
X128991238Y-89030476D01*
X129038857Y-89078095D01*
X129134095Y-89125714D01*
X129276952Y-89125714D01*
X129372190Y-89078095D01*
X128943619Y-88744761D02*
X129038857Y-88792380D01*
X129229333Y-88792380D01*
X129324571Y-88744761D01*
X129372190Y-88697142D01*
X129419809Y-88601904D01*
X129419809Y-88316190D01*
X129372190Y-88220952D01*
X129324571Y-88173333D01*
X129229333Y-88125714D01*
X129038857Y-88125714D01*
X128943619Y-88173333D01*
X128467428Y-88792380D02*
X128467428Y-87792380D01*
X128038857Y-88792380D02*
X128038857Y-88268571D01*
X128086476Y-88173333D01*
X128181714Y-88125714D01*
X128324571Y-88125714D01*
X128419809Y-88173333D01*
X128467428Y-88220952D01*
X126848380Y-88744761D02*
X126705523Y-88792380D01*
X126467428Y-88792380D01*
X126372190Y-88744761D01*
X126324571Y-88697142D01*
X126276952Y-88601904D01*
X126276952Y-88506666D01*
X126324571Y-88411428D01*
X126372190Y-88363809D01*
X126467428Y-88316190D01*
X126657904Y-88268571D01*
X126753142Y-88220952D01*
X126800761Y-88173333D01*
X126848380Y-88078095D01*
X126848380Y-87982857D01*
X126800761Y-87887619D01*
X126753142Y-87840000D01*
X126657904Y-87792380D01*
X126419809Y-87792380D01*
X126276952Y-87840000D01*
X125848380Y-88792380D02*
X125848380Y-88125714D01*
X125848380Y-87792380D02*
X125896000Y-87840000D01*
X125848380Y-87887619D01*
X125800761Y-87840000D01*
X125848380Y-87792380D01*
X125848380Y-87887619D01*
X124943619Y-88792380D02*
X124943619Y-87792380D01*
X124943619Y-88744761D02*
X125038857Y-88792380D01*
X125229333Y-88792380D01*
X125324571Y-88744761D01*
X125372190Y-88697142D01*
X125419809Y-88601904D01*
X125419809Y-88316190D01*
X125372190Y-88220952D01*
X125324571Y-88173333D01*
X125229333Y-88125714D01*
X125038857Y-88125714D01*
X124943619Y-88173333D01*
X124086476Y-88744761D02*
X124181714Y-88792380D01*
X124372190Y-88792380D01*
X124467428Y-88744761D01*
X124515047Y-88649523D01*
X124515047Y-88268571D01*
X124467428Y-88173333D01*
X124372190Y-88125714D01*
X124181714Y-88125714D01*
X124086476Y-88173333D01*
X124038857Y-88268571D01*
X124038857Y-88363809D01*
X124515047Y-88459047D01*
X123705523Y-89173333D02*
X123657904Y-89125714D01*
X123562666Y-88982857D01*
X123515047Y-88887619D01*
X123467428Y-88744761D01*
X123419809Y-88506666D01*
X123419809Y-88316190D01*
X123467428Y-88078095D01*
X123515047Y-87935238D01*
X123562666Y-87840000D01*
X123657904Y-87697142D01*
X123705523Y-87649523D01*
X122229333Y-88744761D02*
X122086476Y-88792380D01*
X121848380Y-88792380D01*
X121753142Y-88744761D01*
X121705523Y-88697142D01*
X121657904Y-88601904D01*
X121657904Y-88506666D01*
X121705523Y-88411428D01*
X121753142Y-88363809D01*
X121848380Y-88316190D01*
X122038857Y-88268571D01*
X122134095Y-88220952D01*
X122181714Y-88173333D01*
X122229333Y-88078095D01*
X122229333Y-87982857D01*
X122181714Y-87887619D01*
X122134095Y-87840000D01*
X122038857Y-87792380D01*
X121800761Y-87792380D01*
X121657904Y-87840000D01*
X121324571Y-88125714D02*
X121134095Y-88792380D01*
X120943619Y-88316190D01*
X120753142Y-88792380D01*
X120562666Y-88125714D01*
X120181714Y-88792380D02*
X120181714Y-88125714D01*
X120181714Y-87792380D02*
X120229333Y-87840000D01*
X120181714Y-87887619D01*
X120134095Y-87840000D01*
X120181714Y-87792380D01*
X120181714Y-87887619D01*
X119848380Y-88125714D02*
X119467428Y-88125714D01*
X119705523Y-87792380D02*
X119705523Y-88649523D01*
X119657904Y-88744761D01*
X119562666Y-88792380D01*
X119467428Y-88792380D01*
X118705523Y-88744761D02*
X118800761Y-88792380D01*
X118991238Y-88792380D01*
X119086476Y-88744761D01*
X119134095Y-88697142D01*
X119181714Y-88601904D01*
X119181714Y-88316190D01*
X119134095Y-88220952D01*
X119086476Y-88173333D01*
X118991238Y-88125714D01*
X118800761Y-88125714D01*
X118705523Y-88173333D01*
X118276952Y-88792380D02*
X118276952Y-87792380D01*
X117848380Y-88792380D02*
X117848380Y-88268571D01*
X117896000Y-88173333D01*
X117991238Y-88125714D01*
X118134095Y-88125714D01*
X118229333Y-88173333D01*
X118276952Y-88220952D01*
X116991238Y-88744761D02*
X117086476Y-88792380D01*
X117276952Y-88792380D01*
X117372190Y-88744761D01*
X117419809Y-88649523D01*
X117419809Y-88268571D01*
X117372190Y-88173333D01*
X117276952Y-88125714D01*
X117086476Y-88125714D01*
X116991238Y-88173333D01*
X116943619Y-88268571D01*
X116943619Y-88363809D01*
X117419809Y-88459047D01*
X116562666Y-88744761D02*
X116467428Y-88792380D01*
X116276952Y-88792380D01*
X116181714Y-88744761D01*
X116134095Y-88649523D01*
X116134095Y-88601904D01*
X116181714Y-88506666D01*
X116276952Y-88459047D01*
X116419809Y-88459047D01*
X116515047Y-88411428D01*
X116562666Y-88316190D01*
X116562666Y-88268571D01*
X116515047Y-88173333D01*
X116419809Y-88125714D01*
X116276952Y-88125714D01*
X116181714Y-88173333D01*
X150229333Y-89785714D02*
X150229333Y-90452380D01*
X150467428Y-89404761D02*
X150705523Y-90119047D01*
X150086476Y-90119047D01*
X149038857Y-90452380D02*
X148515047Y-89785714D01*
X149038857Y-89785714D02*
X148515047Y-90452380D01*
X147181714Y-89452380D02*
X146991238Y-89452380D01*
X146896000Y-89500000D01*
X146800761Y-89595238D01*
X146753142Y-89785714D01*
X146753142Y-90119047D01*
X146800761Y-90309523D01*
X146896000Y-90404761D01*
X146991238Y-90452380D01*
X147181714Y-90452380D01*
X147276952Y-90404761D01*
X147372190Y-90309523D01*
X147419809Y-90119047D01*
X147419809Y-89785714D01*
X147372190Y-89595238D01*
X147276952Y-89500000D01*
X147181714Y-89452380D01*
X146324571Y-89785714D02*
X146324571Y-90785714D01*
X146324571Y-89833333D02*
X146229333Y-89785714D01*
X146038857Y-89785714D01*
X145943619Y-89833333D01*
X145896000Y-89880952D01*
X145848380Y-89976190D01*
X145848380Y-90261904D01*
X145896000Y-90357142D01*
X145943619Y-90404761D01*
X146038857Y-90452380D01*
X146229333Y-90452380D01*
X146324571Y-90404761D01*
X145562666Y-89785714D02*
X145181714Y-89785714D01*
X145419809Y-89452380D02*
X145419809Y-90309523D01*
X145372190Y-90404761D01*
X145276952Y-90452380D01*
X145181714Y-90452380D01*
X144705523Y-90452380D02*
X144800761Y-90404761D01*
X144848380Y-90357142D01*
X144896000Y-90261904D01*
X144896000Y-89976190D01*
X144848380Y-89880952D01*
X144800761Y-89833333D01*
X144705523Y-89785714D01*
X144562666Y-89785714D01*
X144467428Y-89833333D01*
X144419809Y-89880952D01*
X144372190Y-89976190D01*
X144372190Y-90261904D01*
X144419809Y-90357142D01*
X144467428Y-90404761D01*
X144562666Y-90452380D01*
X144705523Y-90452380D01*
X143943619Y-90071428D02*
X143181714Y-90071428D01*
X142705523Y-90452380D02*
X142705523Y-89452380D01*
X142276952Y-90404761D02*
X142181714Y-90452380D01*
X141991238Y-90452380D01*
X141896000Y-90404761D01*
X141848380Y-90309523D01*
X141848380Y-90261904D01*
X141896000Y-90166666D01*
X141991238Y-90119047D01*
X142134095Y-90119047D01*
X142229333Y-90071428D01*
X142276952Y-89976190D01*
X142276952Y-89928571D01*
X142229333Y-89833333D01*
X142134095Y-89785714D01*
X141991238Y-89785714D01*
X141896000Y-89833333D01*
X141276952Y-90452380D02*
X141372190Y-90404761D01*
X141419809Y-90357142D01*
X141467428Y-90261904D01*
X141467428Y-89976190D01*
X141419809Y-89880952D01*
X141372190Y-89833333D01*
X141276952Y-89785714D01*
X141134095Y-89785714D01*
X141038857Y-89833333D01*
X140991238Y-89880952D01*
X140943619Y-89976190D01*
X140943619Y-90261904D01*
X140991238Y-90357142D01*
X141038857Y-90404761D01*
X141134095Y-90452380D01*
X141276952Y-90452380D01*
X140372190Y-90452380D02*
X140467428Y-90404761D01*
X140515047Y-90309523D01*
X140515047Y-89452380D01*
X139562666Y-90452380D02*
X139562666Y-89928571D01*
X139610285Y-89833333D01*
X139705523Y-89785714D01*
X139896000Y-89785714D01*
X139991238Y-89833333D01*
X139562666Y-90404761D02*
X139657904Y-90452380D01*
X139896000Y-90452380D01*
X139991238Y-90404761D01*
X140038857Y-90309523D01*
X140038857Y-90214285D01*
X139991238Y-90119047D01*
X139896000Y-90071428D01*
X139657904Y-90071428D01*
X139562666Y-90023809D01*
X139229333Y-89785714D02*
X138848380Y-89785714D01*
X139086476Y-89452380D02*
X139086476Y-90309523D01*
X139038857Y-90404761D01*
X138943619Y-90452380D01*
X138848380Y-90452380D01*
X138134095Y-90404761D02*
X138229333Y-90452380D01*
X138419809Y-90452380D01*
X138515047Y-90404761D01*
X138562666Y-90309523D01*
X138562666Y-89928571D01*
X138515047Y-89833333D01*
X138419809Y-89785714D01*
X138229333Y-89785714D01*
X138134095Y-89833333D01*
X138086476Y-89928571D01*
X138086476Y-90023809D01*
X138562666Y-90119047D01*
X137229333Y-90452380D02*
X137229333Y-89452380D01*
X137229333Y-90404761D02*
X137324571Y-90452380D01*
X137515047Y-90452380D01*
X137610285Y-90404761D01*
X137657904Y-90357142D01*
X137705523Y-90261904D01*
X137705523Y-89976190D01*
X137657904Y-89880952D01*
X137610285Y-89833333D01*
X137515047Y-89785714D01*
X137324571Y-89785714D01*
X137229333Y-89833333D01*
X135848380Y-89880952D02*
X135943619Y-89833333D01*
X135991238Y-89785714D01*
X136038857Y-89690476D01*
X136038857Y-89642857D01*
X135991238Y-89547619D01*
X135943619Y-89500000D01*
X135848380Y-89452380D01*
X135657904Y-89452380D01*
X135562666Y-89500000D01*
X135515047Y-89547619D01*
X135467428Y-89642857D01*
X135467428Y-89690476D01*
X135515047Y-89785714D01*
X135562666Y-89833333D01*
X135657904Y-89880952D01*
X135848380Y-89880952D01*
X135943619Y-89928571D01*
X135991238Y-89976190D01*
X136038857Y-90071428D01*
X136038857Y-90261904D01*
X135991238Y-90357142D01*
X135943619Y-90404761D01*
X135848380Y-90452380D01*
X135657904Y-90452380D01*
X135562666Y-90404761D01*
X135515047Y-90357142D01*
X135467428Y-90261904D01*
X135467428Y-90071428D01*
X135515047Y-89976190D01*
X135562666Y-89928571D01*
X135657904Y-89880952D01*
X135038857Y-90071428D02*
X134276952Y-90071428D01*
X133896000Y-89452380D02*
X133276952Y-89452380D01*
X133610285Y-89833333D01*
X133467428Y-89833333D01*
X133372190Y-89880952D01*
X133324571Y-89928571D01*
X133276952Y-90023809D01*
X133276952Y-90261904D01*
X133324571Y-90357142D01*
X133372190Y-90404761D01*
X133467428Y-90452380D01*
X133753142Y-90452380D01*
X133848380Y-90404761D01*
X133896000Y-90357142D01*
X132896000Y-89547619D02*
X132848380Y-89500000D01*
X132753142Y-89452380D01*
X132515047Y-89452380D01*
X132419809Y-89500000D01*
X132372190Y-89547619D01*
X132324571Y-89642857D01*
X132324571Y-89738095D01*
X132372190Y-89880952D01*
X132943619Y-90452380D01*
X132324571Y-90452380D01*
X131991238Y-89785714D02*
X131753142Y-90452380D01*
X131515047Y-89785714D01*
X130372190Y-90452380D02*
X130372190Y-89452380D01*
X129896000Y-89785714D02*
X129896000Y-90452380D01*
X129896000Y-89880952D02*
X129848380Y-89833333D01*
X129753142Y-89785714D01*
X129610285Y-89785714D01*
X129515047Y-89833333D01*
X129467428Y-89928571D01*
X129467428Y-90452380D01*
X128991238Y-89785714D02*
X128991238Y-90785714D01*
X128991238Y-89833333D02*
X128896000Y-89785714D01*
X128705523Y-89785714D01*
X128610285Y-89833333D01*
X128562666Y-89880952D01*
X128515047Y-89976190D01*
X128515047Y-90261904D01*
X128562666Y-90357142D01*
X128610285Y-90404761D01*
X128705523Y-90452380D01*
X128896000Y-90452380D01*
X128991238Y-90404761D01*
X127657904Y-89785714D02*
X127657904Y-90452380D01*
X128086476Y-89785714D02*
X128086476Y-90309523D01*
X128038857Y-90404761D01*
X127943619Y-90452380D01*
X127800761Y-90452380D01*
X127705523Y-90404761D01*
X127657904Y-90357142D01*
X127324571Y-89785714D02*
X126943619Y-89785714D01*
X127181714Y-89452380D02*
X127181714Y-90309523D01*
X127134095Y-90404761D01*
X127038857Y-90452380D01*
X126943619Y-90452380D01*
X126657904Y-90404761D02*
X126562666Y-90452380D01*
X126372190Y-90452380D01*
X126276952Y-90404761D01*
X126229333Y-90309523D01*
X126229333Y-90261904D01*
X126276952Y-90166666D01*
X126372190Y-90119047D01*
X126515047Y-90119047D01*
X126610285Y-90071428D01*
X126657904Y-89976190D01*
X126657904Y-89928571D01*
X126610285Y-89833333D01*
X126515047Y-89785714D01*
X126372190Y-89785714D01*
X126276952Y-89833333D01*
X150515047Y-91540952D02*
X150610285Y-91493333D01*
X150657904Y-91445714D01*
X150705523Y-91350476D01*
X150705523Y-91302857D01*
X150657904Y-91207619D01*
X150610285Y-91160000D01*
X150515047Y-91112380D01*
X150324571Y-91112380D01*
X150229333Y-91160000D01*
X150181714Y-91207619D01*
X150134095Y-91302857D01*
X150134095Y-91350476D01*
X150181714Y-91445714D01*
X150229333Y-91493333D01*
X150324571Y-91540952D01*
X150515047Y-91540952D01*
X150610285Y-91588571D01*
X150657904Y-91636190D01*
X150705523Y-91731428D01*
X150705523Y-91921904D01*
X150657904Y-92017142D01*
X150610285Y-92064761D01*
X150515047Y-92112380D01*
X150324571Y-92112380D01*
X150229333Y-92064761D01*
X150181714Y-92017142D01*
X150134095Y-91921904D01*
X150134095Y-91731428D01*
X150181714Y-91636190D01*
X150229333Y-91588571D01*
X150324571Y-91540952D01*
X148372190Y-92017142D02*
X148419809Y-92064761D01*
X148562666Y-92112380D01*
X148657904Y-92112380D01*
X148800761Y-92064761D01*
X148896000Y-91969523D01*
X148943619Y-91874285D01*
X148991238Y-91683809D01*
X148991238Y-91540952D01*
X148943619Y-91350476D01*
X148896000Y-91255238D01*
X148800761Y-91160000D01*
X148657904Y-91112380D01*
X148562666Y-91112380D01*
X148419809Y-91160000D01*
X148372190Y-91207619D01*
X147943619Y-92112380D02*
X147943619Y-91112380D01*
X147515047Y-92112380D02*
X147515047Y-91588571D01*
X147562666Y-91493333D01*
X147657904Y-91445714D01*
X147800761Y-91445714D01*
X147896000Y-91493333D01*
X147943619Y-91540952D01*
X146610285Y-92112380D02*
X146610285Y-91588571D01*
X146657904Y-91493333D01*
X146753142Y-91445714D01*
X146943619Y-91445714D01*
X147038857Y-91493333D01*
X146610285Y-92064761D02*
X146705523Y-92112380D01*
X146943619Y-92112380D01*
X147038857Y-92064761D01*
X147086476Y-91969523D01*
X147086476Y-91874285D01*
X147038857Y-91779047D01*
X146943619Y-91731428D01*
X146705523Y-91731428D01*
X146610285Y-91683809D01*
X146134095Y-91445714D02*
X146134095Y-92112380D01*
X146134095Y-91540952D02*
X146086476Y-91493333D01*
X145991238Y-91445714D01*
X145848380Y-91445714D01*
X145753142Y-91493333D01*
X145705523Y-91588571D01*
X145705523Y-92112380D01*
X145229333Y-91445714D02*
X145229333Y-92112380D01*
X145229333Y-91540952D02*
X145181714Y-91493333D01*
X145086476Y-91445714D01*
X144943619Y-91445714D01*
X144848380Y-91493333D01*
X144800761Y-91588571D01*
X144800761Y-92112380D01*
X143943619Y-92064761D02*
X144038857Y-92112380D01*
X144229333Y-92112380D01*
X144324571Y-92064761D01*
X144372190Y-91969523D01*
X144372190Y-91588571D01*
X144324571Y-91493333D01*
X144229333Y-91445714D01*
X144038857Y-91445714D01*
X143943619Y-91493333D01*
X143896000Y-91588571D01*
X143896000Y-91683809D01*
X144372190Y-91779047D01*
X143324571Y-92112380D02*
X143419809Y-92064761D01*
X143467428Y-91969523D01*
X143467428Y-91112380D01*
X142181714Y-92112380D02*
X142181714Y-91112380D01*
X141753142Y-91207619D02*
X141705523Y-91160000D01*
X141610285Y-91112380D01*
X141372190Y-91112380D01*
X141276952Y-91160000D01*
X141229333Y-91207619D01*
X141181714Y-91302857D01*
X141181714Y-91398095D01*
X141229333Y-91540952D01*
X141800761Y-92112380D01*
X141181714Y-92112380D01*
X140181714Y-92017142D02*
X140229333Y-92064761D01*
X140372190Y-92112380D01*
X140467428Y-92112380D01*
X140610285Y-92064761D01*
X140705523Y-91969523D01*
X140753142Y-91874285D01*
X140800761Y-91683809D01*
X140800761Y-91540952D01*
X140753142Y-91350476D01*
X140705523Y-91255238D01*
X140610285Y-91160000D01*
X140467428Y-91112380D01*
X140372190Y-91112380D01*
X140229333Y-91160000D01*
X140181714Y-91207619D01*
X138991238Y-92112380D02*
X138991238Y-91112380D01*
X138324571Y-91112380D02*
X138134095Y-91112380D01*
X138038857Y-91160000D01*
X137943619Y-91255238D01*
X137896000Y-91445714D01*
X137896000Y-91779047D01*
X137943619Y-91969523D01*
X138038857Y-92064761D01*
X138134095Y-92112380D01*
X138324571Y-92112380D01*
X138419809Y-92064761D01*
X138515047Y-91969523D01*
X138562666Y-91779047D01*
X138562666Y-91445714D01*
X138515047Y-91255238D01*
X138419809Y-91160000D01*
X138324571Y-91112380D01*
X135657904Y-92493333D02*
X135705523Y-92445714D01*
X135800761Y-92302857D01*
X135848380Y-92207619D01*
X135896000Y-92064761D01*
X135943619Y-91826666D01*
X135943619Y-91636190D01*
X135896000Y-91398095D01*
X135848380Y-91255238D01*
X135800761Y-91160000D01*
X135705523Y-91017142D01*
X135657904Y-90969523D01*
X135276952Y-92112380D02*
X135276952Y-91112380D01*
X134896000Y-91112380D01*
X134800761Y-91160000D01*
X134753142Y-91207619D01*
X134705523Y-91302857D01*
X134705523Y-91445714D01*
X134753142Y-91540952D01*
X134800761Y-91588571D01*
X134896000Y-91636190D01*
X135276952Y-91636190D01*
X133705523Y-92017142D02*
X133753142Y-92064761D01*
X133896000Y-92112380D01*
X133991238Y-92112380D01*
X134134095Y-92064761D01*
X134229333Y-91969523D01*
X134276952Y-91874285D01*
X134324571Y-91683809D01*
X134324571Y-91540952D01*
X134276952Y-91350476D01*
X134229333Y-91255238D01*
X134134095Y-91160000D01*
X133991238Y-91112380D01*
X133896000Y-91112380D01*
X133753142Y-91160000D01*
X133705523Y-91207619D01*
X132943619Y-91588571D02*
X133276952Y-91588571D01*
X133276952Y-92112380D02*
X133276952Y-91112380D01*
X132800761Y-91112380D01*
X132276952Y-91540952D02*
X132372190Y-91493333D01*
X132419809Y-91445714D01*
X132467428Y-91350476D01*
X132467428Y-91302857D01*
X132419809Y-91207619D01*
X132372190Y-91160000D01*
X132276952Y-91112380D01*
X132086476Y-91112380D01*
X131991238Y-91160000D01*
X131943619Y-91207619D01*
X131896000Y-91302857D01*
X131896000Y-91350476D01*
X131943619Y-91445714D01*
X131991238Y-91493333D01*
X132086476Y-91540952D01*
X132276952Y-91540952D01*
X132372190Y-91588571D01*
X132419809Y-91636190D01*
X132467428Y-91731428D01*
X132467428Y-91921904D01*
X132419809Y-92017142D01*
X132372190Y-92064761D01*
X132276952Y-92112380D01*
X132086476Y-92112380D01*
X131991238Y-92064761D01*
X131943619Y-92017142D01*
X131896000Y-91921904D01*
X131896000Y-91731428D01*
X131943619Y-91636190D01*
X131991238Y-91588571D01*
X132086476Y-91540952D01*
X130991238Y-91112380D02*
X131467428Y-91112380D01*
X131515047Y-91588571D01*
X131467428Y-91540952D01*
X131372190Y-91493333D01*
X131134095Y-91493333D01*
X131038857Y-91540952D01*
X130991238Y-91588571D01*
X130943619Y-91683809D01*
X130943619Y-91921904D01*
X130991238Y-92017142D01*
X131038857Y-92064761D01*
X131134095Y-92112380D01*
X131372190Y-92112380D01*
X131467428Y-92064761D01*
X131515047Y-92017142D01*
X130610285Y-91112380D02*
X129943619Y-91112380D01*
X130372190Y-92112380D01*
X129134095Y-91445714D02*
X129134095Y-92112380D01*
X129372190Y-91064761D02*
X129610285Y-91779047D01*
X128991238Y-91779047D01*
X128705523Y-92493333D02*
X128657904Y-92445714D01*
X128562666Y-92302857D01*
X128515047Y-92207619D01*
X128467428Y-92064761D01*
X128419809Y-91826666D01*
X128419809Y-91636190D01*
X128467428Y-91398095D01*
X128515047Y-91255238D01*
X128562666Y-91160000D01*
X128657904Y-91017142D01*
X128705523Y-90969523D01*
X127276952Y-91445714D02*
X127086476Y-92112380D01*
X126896000Y-91636190D01*
X126705523Y-92112380D01*
X126515047Y-91445714D01*
X126134095Y-92112380D02*
X126134095Y-91445714D01*
X126134095Y-91112380D02*
X126181714Y-91160000D01*
X126134095Y-91207619D01*
X126086476Y-91160000D01*
X126134095Y-91112380D01*
X126134095Y-91207619D01*
X125800761Y-91445714D02*
X125419809Y-91445714D01*
X125657904Y-91112380D02*
X125657904Y-91969523D01*
X125610285Y-92064761D01*
X125515047Y-92112380D01*
X125419809Y-92112380D01*
X125086476Y-92112380D02*
X125086476Y-91112380D01*
X124657904Y-92112380D02*
X124657904Y-91588571D01*
X124705523Y-91493333D01*
X124800761Y-91445714D01*
X124943619Y-91445714D01*
X125038857Y-91493333D01*
X125086476Y-91540952D01*
X123467428Y-92064761D02*
X123372190Y-92112380D01*
X123181714Y-92112380D01*
X123086476Y-92064761D01*
X123038857Y-91969523D01*
X123038857Y-91921904D01*
X123086476Y-91826666D01*
X123181714Y-91779047D01*
X123324571Y-91779047D01*
X123419809Y-91731428D01*
X123467428Y-91636190D01*
X123467428Y-91588571D01*
X123419809Y-91493333D01*
X123324571Y-91445714D01*
X123181714Y-91445714D01*
X123086476Y-91493333D01*
X122229333Y-92064761D02*
X122324571Y-92112380D01*
X122515047Y-92112380D01*
X122610285Y-92064761D01*
X122657904Y-91969523D01*
X122657904Y-91588571D01*
X122610285Y-91493333D01*
X122515047Y-91445714D01*
X122324571Y-91445714D01*
X122229333Y-91493333D01*
X122181714Y-91588571D01*
X122181714Y-91683809D01*
X122657904Y-91779047D01*
X121610285Y-92112380D02*
X121705523Y-92064761D01*
X121753142Y-91969523D01*
X121753142Y-91112380D01*
X120848380Y-92064761D02*
X120943619Y-92112380D01*
X121134095Y-92112380D01*
X121229333Y-92064761D01*
X121276952Y-91969523D01*
X121276952Y-91588571D01*
X121229333Y-91493333D01*
X121134095Y-91445714D01*
X120943619Y-91445714D01*
X120848380Y-91493333D01*
X120800761Y-91588571D01*
X120800761Y-91683809D01*
X121276952Y-91779047D01*
X119943619Y-92064761D02*
X120038857Y-92112380D01*
X120229333Y-92112380D01*
X120324571Y-92064761D01*
X120372190Y-92017142D01*
X120419809Y-91921904D01*
X120419809Y-91636190D01*
X120372190Y-91540952D01*
X120324571Y-91493333D01*
X120229333Y-91445714D01*
X120038857Y-91445714D01*
X119943619Y-91493333D01*
X119657904Y-91445714D02*
X119276952Y-91445714D01*
X119515047Y-91112380D02*
X119515047Y-91969523D01*
X119467428Y-92064761D01*
X119372190Y-92112380D01*
X119276952Y-92112380D01*
X118515047Y-92112380D02*
X118515047Y-91588571D01*
X118562666Y-91493333D01*
X118657904Y-91445714D01*
X118848380Y-91445714D01*
X118943619Y-91493333D01*
X118515047Y-92064761D02*
X118610285Y-92112380D01*
X118848380Y-92112380D01*
X118943619Y-92064761D01*
X118991238Y-91969523D01*
X118991238Y-91874285D01*
X118943619Y-91779047D01*
X118848380Y-91731428D01*
X118610285Y-91731428D01*
X118515047Y-91683809D01*
X118038857Y-92112380D02*
X118038857Y-91112380D01*
X118038857Y-91493333D02*
X117943619Y-91445714D01*
X117753142Y-91445714D01*
X117657904Y-91493333D01*
X117610285Y-91540952D01*
X117562666Y-91636190D01*
X117562666Y-91921904D01*
X117610285Y-92017142D01*
X117657904Y-92064761D01*
X117753142Y-92112380D01*
X117943619Y-92112380D01*
X118038857Y-92064761D01*
X116991238Y-92112380D02*
X117086476Y-92064761D01*
X117134095Y-91969523D01*
X117134095Y-91112380D01*
X116229333Y-92064761D02*
X116324571Y-92112380D01*
X116515047Y-92112380D01*
X116610285Y-92064761D01*
X116657904Y-91969523D01*
X116657904Y-91588571D01*
X116610285Y-91493333D01*
X116515047Y-91445714D01*
X116324571Y-91445714D01*
X116229333Y-91493333D01*
X116181714Y-91588571D01*
X116181714Y-91683809D01*
X116657904Y-91779047D01*
X114562666Y-92112380D02*
X114562666Y-91588571D01*
X114610285Y-91493333D01*
X114705523Y-91445714D01*
X114896000Y-91445714D01*
X114991238Y-91493333D01*
X114562666Y-92064761D02*
X114657904Y-92112380D01*
X114896000Y-92112380D01*
X114991238Y-92064761D01*
X115038857Y-91969523D01*
X115038857Y-91874285D01*
X114991238Y-91779047D01*
X114896000Y-91731428D01*
X114657904Y-91731428D01*
X114562666Y-91683809D01*
X113657904Y-92112380D02*
X113657904Y-91112380D01*
X113657904Y-92064761D02*
X113753142Y-92112380D01*
X113943619Y-92112380D01*
X114038857Y-92064761D01*
X114086476Y-92017142D01*
X114134095Y-91921904D01*
X114134095Y-91636190D01*
X114086476Y-91540952D01*
X114038857Y-91493333D01*
X113943619Y-91445714D01*
X113753142Y-91445714D01*
X113657904Y-91493333D01*
X112753142Y-92112380D02*
X112753142Y-91112380D01*
X112753142Y-92064761D02*
X112848380Y-92112380D01*
X113038857Y-92112380D01*
X113134095Y-92064761D01*
X113181714Y-92017142D01*
X113229333Y-91921904D01*
X113229333Y-91636190D01*
X113181714Y-91540952D01*
X113134095Y-91493333D01*
X113038857Y-91445714D01*
X112848380Y-91445714D01*
X112753142Y-91493333D01*
X112276952Y-92112380D02*
X112276952Y-91445714D01*
X112276952Y-91636190D02*
X112229333Y-91540952D01*
X112181714Y-91493333D01*
X112086476Y-91445714D01*
X111991238Y-91445714D01*
X111276952Y-92064761D02*
X111372190Y-92112380D01*
X111562666Y-92112380D01*
X111657904Y-92064761D01*
X111705523Y-91969523D01*
X111705523Y-91588571D01*
X111657904Y-91493333D01*
X111562666Y-91445714D01*
X111372190Y-91445714D01*
X111276952Y-91493333D01*
X111229333Y-91588571D01*
X111229333Y-91683809D01*
X111705523Y-91779047D01*
X110848380Y-92064761D02*
X110753142Y-92112380D01*
X110562666Y-92112380D01*
X110467428Y-92064761D01*
X110419809Y-91969523D01*
X110419809Y-91921904D01*
X110467428Y-91826666D01*
X110562666Y-91779047D01*
X110705523Y-91779047D01*
X110800761Y-91731428D01*
X110848380Y-91636190D01*
X110848380Y-91588571D01*
X110800761Y-91493333D01*
X110705523Y-91445714D01*
X110562666Y-91445714D01*
X110467428Y-91493333D01*
X110038857Y-92064761D02*
X109943619Y-92112380D01*
X109753142Y-92112380D01*
X109657904Y-92064761D01*
X109610285Y-91969523D01*
X109610285Y-91921904D01*
X109657904Y-91826666D01*
X109753142Y-91779047D01*
X109896000Y-91779047D01*
X109991238Y-91731428D01*
X110038857Y-91636190D01*
X110038857Y-91588571D01*
X109991238Y-91493333D01*
X109896000Y-91445714D01*
X109753142Y-91445714D01*
X109657904Y-91493333D01*
D11*
X139035714Y-83892857D02*
X138821428Y-83964285D01*
X138750000Y-84035714D01*
X138678571Y-84178571D01*
X138678571Y-84392857D01*
X138750000Y-84535714D01*
X138821428Y-84607142D01*
X138964285Y-84678571D01*
X139535714Y-84678571D01*
X139535714Y-83178571D01*
X139035714Y-83178571D01*
X138892857Y-83250000D01*
X138821428Y-83321428D01*
X138750000Y-83464285D01*
X138750000Y-83607142D01*
X138821428Y-83750000D01*
X138892857Y-83821428D01*
X139035714Y-83892857D01*
X139535714Y-83892857D01*
X138178571Y-83678571D02*
X137821428Y-84678571D01*
X137464285Y-83678571D02*
X137821428Y-84678571D01*
X137964285Y-85035714D01*
X138035714Y-85107142D01*
X138178571Y-85178571D01*
X135750000Y-84678571D02*
X135750000Y-83178571D01*
X135250000Y-84250000D01*
X134750000Y-83178571D01*
X134750000Y-84678571D01*
X133392857Y-84678571D02*
X133392857Y-83892857D01*
X133464285Y-83750000D01*
X133607142Y-83678571D01*
X133892857Y-83678571D01*
X134035714Y-83750000D01*
X133392857Y-84607142D02*
X133535714Y-84678571D01*
X133892857Y-84678571D01*
X134035714Y-84607142D01*
X134107142Y-84464285D01*
X134107142Y-84321428D01*
X134035714Y-84178571D01*
X133892857Y-84107142D01*
X133535714Y-84107142D01*
X133392857Y-84035714D01*
X132678571Y-84678571D02*
X132678571Y-83678571D01*
X132678571Y-83964285D02*
X132607142Y-83821428D01*
X132535714Y-83750000D01*
X132392857Y-83678571D01*
X132250000Y-83678571D01*
X131750000Y-84678571D02*
X131750000Y-83178571D01*
X131607142Y-84107142D02*
X131178571Y-84678571D01*
X131178571Y-83678571D02*
X131750000Y-84250000D01*
X128892857Y-83892857D02*
X129392857Y-83892857D01*
X129392857Y-84678571D02*
X129392857Y-83178571D01*
X128678571Y-83178571D01*
X127464285Y-84678571D02*
X127464285Y-83892857D01*
X127535714Y-83750000D01*
X127678571Y-83678571D01*
X127964285Y-83678571D01*
X128107142Y-83750000D01*
X127464285Y-84607142D02*
X127607142Y-84678571D01*
X127964285Y-84678571D01*
X128107142Y-84607142D01*
X128178571Y-84464285D01*
X128178571Y-84321428D01*
X128107142Y-84178571D01*
X127964285Y-84107142D01*
X127607142Y-84107142D01*
X127464285Y-84035714D01*
X126750000Y-84678571D02*
X126750000Y-83678571D01*
X126750000Y-83964285D02*
X126678571Y-83821428D01*
X126607142Y-83750000D01*
X126464285Y-83678571D01*
X126321428Y-83678571D01*
X125821428Y-83678571D02*
X125821428Y-84678571D01*
X125821428Y-83821428D02*
X125750000Y-83750000D01*
X125607142Y-83678571D01*
X125392857Y-83678571D01*
X125250000Y-83750000D01*
X125178571Y-83892857D01*
X125178571Y-84678571D01*
X123821428Y-84678571D02*
X123821428Y-83892857D01*
X123892857Y-83750000D01*
X124035714Y-83678571D01*
X124321428Y-83678571D01*
X124464285Y-83750000D01*
X123821428Y-84607142D02*
X123964285Y-84678571D01*
X124321428Y-84678571D01*
X124464285Y-84607142D01*
X124535714Y-84464285D01*
X124535714Y-84321428D01*
X124464285Y-84178571D01*
X124321428Y-84107142D01*
X123964285Y-84107142D01*
X123821428Y-84035714D01*
X123107142Y-83678571D02*
X123107142Y-84678571D01*
X123107142Y-83821428D02*
X123035714Y-83750000D01*
X122892857Y-83678571D01*
X122678571Y-83678571D01*
X122535714Y-83750000D01*
X122464285Y-83892857D01*
X122464285Y-84678571D01*
X152666666Y-75704761D02*
X152666666Y-73704761D01*
X152000000Y-75133333D01*
X151333333Y-73704761D01*
X151333333Y-75704761D01*
X149523809Y-74371428D02*
X149523809Y-75704761D01*
X150380952Y-74371428D02*
X150380952Y-75419047D01*
X150285714Y-75609523D01*
X150095238Y-75704761D01*
X149809523Y-75704761D01*
X149619047Y-75609523D01*
X149523809Y-75514285D01*
X148285714Y-75704761D02*
X148476190Y-75609523D01*
X148571428Y-75419047D01*
X148571428Y-73704761D01*
X147809523Y-74371428D02*
X147047619Y-74371428D01*
X147523809Y-73704761D02*
X147523809Y-75419047D01*
X147428571Y-75609523D01*
X147238095Y-75704761D01*
X147047619Y-75704761D01*
X146380952Y-75704761D02*
X146380952Y-74371428D01*
X146380952Y-73704761D02*
X146476190Y-73800000D01*
X146380952Y-73895238D01*
X146285714Y-73800000D01*
X146380952Y-73704761D01*
X146380952Y-73895238D01*
X144571428Y-75609523D02*
X144761904Y-75704761D01*
X145142857Y-75704761D01*
X145333333Y-75609523D01*
X145428571Y-75514285D01*
X145523809Y-75323809D01*
X145523809Y-74752380D01*
X145428571Y-74561904D01*
X145333333Y-74466666D01*
X145142857Y-74371428D01*
X144761904Y-74371428D01*
X144571428Y-74466666D01*
X143714285Y-75704761D02*
X143714285Y-73704761D01*
X142857142Y-75704761D02*
X142857142Y-74657142D01*
X142952380Y-74466666D01*
X143142857Y-74371428D01*
X143428571Y-74371428D01*
X143619047Y-74466666D01*
X143714285Y-74561904D01*
X141047619Y-75704761D02*
X141047619Y-74657142D01*
X141142857Y-74466666D01*
X141333333Y-74371428D01*
X141714285Y-74371428D01*
X141904761Y-74466666D01*
X141047619Y-75609523D02*
X141238095Y-75704761D01*
X141714285Y-75704761D01*
X141904761Y-75609523D01*
X142000000Y-75419047D01*
X142000000Y-75228571D01*
X141904761Y-75038095D01*
X141714285Y-74942857D01*
X141238095Y-74942857D01*
X141047619Y-74847619D01*
X140095238Y-74371428D02*
X140095238Y-75704761D01*
X140095238Y-74561904D02*
X140000000Y-74466666D01*
X139809523Y-74371428D01*
X139523809Y-74371428D01*
X139333333Y-74466666D01*
X139238095Y-74657142D01*
X139238095Y-75704761D01*
X138285714Y-74371428D02*
X138285714Y-75704761D01*
X138285714Y-74561904D02*
X138190476Y-74466666D01*
X138000000Y-74371428D01*
X137714285Y-74371428D01*
X137523809Y-74466666D01*
X137428571Y-74657142D01*
X137428571Y-75704761D01*
X135714285Y-75609523D02*
X135904761Y-75704761D01*
X136285714Y-75704761D01*
X136476190Y-75609523D01*
X136571428Y-75419047D01*
X136571428Y-74657142D01*
X136476190Y-74466666D01*
X136285714Y-74371428D01*
X135904761Y-74371428D01*
X135714285Y-74466666D01*
X135619047Y-74657142D01*
X135619047Y-74847619D01*
X136571428Y-75038095D01*
X134476190Y-75704761D02*
X134666666Y-75609523D01*
X134761904Y-75419047D01*
X134761904Y-73704761D01*
X132190476Y-75704761D02*
X132190476Y-73704761D01*
X131333333Y-73895238D02*
X131238095Y-73800000D01*
X131047619Y-73704761D01*
X130571428Y-73704761D01*
X130380952Y-73800000D01*
X130285714Y-73895238D01*
X130190476Y-74085714D01*
X130190476Y-74276190D01*
X130285714Y-74561904D01*
X131428571Y-75704761D01*
X130190476Y-75704761D01*
X128190476Y-75514285D02*
X128285714Y-75609523D01*
X128571428Y-75704761D01*
X128761904Y-75704761D01*
X129047619Y-75609523D01*
X129238095Y-75419047D01*
X129333333Y-75228571D01*
X129428571Y-74847619D01*
X129428571Y-74561904D01*
X129333333Y-74180952D01*
X129238095Y-73990476D01*
X129047619Y-73800000D01*
X128761904Y-73704761D01*
X128571428Y-73704761D01*
X128285714Y-73800000D01*
X128190476Y-73895238D01*
X125809523Y-75704761D02*
X125809523Y-73704761D01*
X125047619Y-73704761D01*
X124857142Y-73800000D01*
X124761904Y-73895238D01*
X124666666Y-74085714D01*
X124666666Y-74371428D01*
X124761904Y-74561904D01*
X124857142Y-74657142D01*
X125047619Y-74752380D01*
X125809523Y-74752380D01*
X123523809Y-75704761D02*
X123714285Y-75609523D01*
X123809523Y-75514285D01*
X123904761Y-75323809D01*
X123904761Y-74752380D01*
X123809523Y-74561904D01*
X123714285Y-74466666D01*
X123523809Y-74371428D01*
X123238095Y-74371428D01*
X123047619Y-74466666D01*
X122952380Y-74561904D01*
X122857142Y-74752380D01*
X122857142Y-75323809D01*
X122952380Y-75514285D01*
X123047619Y-75609523D01*
X123238095Y-75704761D01*
X123523809Y-75704761D01*
X122190476Y-74371428D02*
X121809523Y-75704761D01*
X121428571Y-74752380D01*
X121047619Y-75704761D01*
X120666666Y-74371428D01*
X119142857Y-75609523D02*
X119333333Y-75704761D01*
X119714285Y-75704761D01*
X119904761Y-75609523D01*
X120000000Y-75419047D01*
X120000000Y-74657142D01*
X119904761Y-74466666D01*
X119714285Y-74371428D01*
X119333333Y-74371428D01*
X119142857Y-74466666D01*
X119047619Y-74657142D01*
X119047619Y-74847619D01*
X120000000Y-75038095D01*
X118190476Y-75704761D02*
X118190476Y-74371428D01*
X118190476Y-74752380D02*
X118095238Y-74561904D01*
X118000000Y-74466666D01*
X117809523Y-74371428D01*
X117619047Y-74371428D01*
X116285714Y-74657142D02*
X116952380Y-74657142D01*
X116952380Y-75704761D02*
X116952380Y-73704761D01*
X116000000Y-73704761D01*
X115238095Y-74657142D02*
X114571428Y-74657142D01*
X114285714Y-75704761D02*
X115238095Y-75704761D01*
X115238095Y-73704761D01*
X114285714Y-73704761D01*
X113714285Y-73704761D02*
X112571428Y-73704761D01*
X113142857Y-75704761D02*
X113142857Y-73704761D01*
X144571428Y-78904761D02*
X144666666Y-78904761D01*
X144857142Y-78809523D01*
X145142857Y-78523809D01*
X145619047Y-77952380D01*
X145809523Y-77666666D01*
X145904761Y-77380952D01*
X145904761Y-77190476D01*
X145809523Y-77000000D01*
X145619047Y-76904761D01*
X145523809Y-76904761D01*
X145333333Y-77000000D01*
X145238095Y-77190476D01*
X145238095Y-77285714D01*
X145333333Y-77476190D01*
X145428571Y-77571428D01*
X146000000Y-77952380D01*
X146095238Y-78047619D01*
X146190476Y-78238095D01*
X146190476Y-78523809D01*
X146095238Y-78714285D01*
X146000000Y-78809523D01*
X145809523Y-78904761D01*
X145523809Y-78904761D01*
X145333333Y-78809523D01*
X145238095Y-78714285D01*
X144952380Y-78333333D01*
X144857142Y-78047619D01*
X144857142Y-77857142D01*
X141809523Y-76904761D02*
X141428571Y-76904761D01*
X141238095Y-77000000D01*
X141047619Y-77190476D01*
X140952380Y-77571428D01*
X140952380Y-78238095D01*
X141047619Y-78619047D01*
X141238095Y-78809523D01*
X141428571Y-78904761D01*
X141809523Y-78904761D01*
X142000000Y-78809523D01*
X142190476Y-78619047D01*
X142285714Y-78238095D01*
X142285714Y-77571428D01*
X142190476Y-77190476D01*
X142000000Y-77000000D01*
X141809523Y-76904761D01*
X140095238Y-77571428D02*
X140095238Y-79571428D01*
X140095238Y-77666666D02*
X139904761Y-77571428D01*
X139523809Y-77571428D01*
X139333333Y-77666666D01*
X139238095Y-77761904D01*
X139142857Y-77952380D01*
X139142857Y-78523809D01*
X139238095Y-78714285D01*
X139333333Y-78809523D01*
X139523809Y-78904761D01*
X139904761Y-78904761D01*
X140095238Y-78809523D01*
X138571428Y-77571428D02*
X137809523Y-77571428D01*
X138285714Y-76904761D02*
X138285714Y-78619047D01*
X138190476Y-78809523D01*
X138000000Y-78904761D01*
X137809523Y-78904761D01*
X136857142Y-78904761D02*
X137047619Y-78809523D01*
X137142857Y-78714285D01*
X137238095Y-78523809D01*
X137238095Y-77952380D01*
X137142857Y-77761904D01*
X137047619Y-77666666D01*
X136857142Y-77571428D01*
X136571428Y-77571428D01*
X136380952Y-77666666D01*
X136285714Y-77761904D01*
X136190476Y-77952380D01*
X136190476Y-78523809D01*
X136285714Y-78714285D01*
X136380952Y-78809523D01*
X136571428Y-78904761D01*
X136857142Y-78904761D01*
X135333333Y-78142857D02*
X133809523Y-78142857D01*
X132857142Y-78904761D02*
X132857142Y-76904761D01*
X131904761Y-77571428D02*
X131904761Y-78904761D01*
X131904761Y-77761904D02*
X131809523Y-77666666D01*
X131619047Y-77571428D01*
X131333333Y-77571428D01*
X131142857Y-77666666D01*
X131047619Y-77857142D01*
X131047619Y-78904761D01*
X126380952Y-77857142D02*
X126095238Y-77952380D01*
X126000000Y-78047619D01*
X125904761Y-78238095D01*
X125904761Y-78523809D01*
X126000000Y-78714285D01*
X126095238Y-78809523D01*
X126285714Y-78904761D01*
X127047619Y-78904761D01*
X127047619Y-76904761D01*
X126380952Y-76904761D01*
X126190476Y-77000000D01*
X126095238Y-77095238D01*
X126000000Y-77285714D01*
X126000000Y-77476190D01*
X126095238Y-77666666D01*
X126190476Y-77761904D01*
X126380952Y-77857142D01*
X127047619Y-77857142D01*
X124761904Y-78904761D02*
X124952380Y-78809523D01*
X125047619Y-78714285D01*
X125142857Y-78523809D01*
X125142857Y-77952380D01*
X125047619Y-77761904D01*
X124952380Y-77666666D01*
X124761904Y-77571428D01*
X124476190Y-77571428D01*
X124285714Y-77666666D01*
X124190476Y-77761904D01*
X124095238Y-77952380D01*
X124095238Y-78523809D01*
X124190476Y-78714285D01*
X124285714Y-78809523D01*
X124476190Y-78904761D01*
X124761904Y-78904761D01*
X122380952Y-78904761D02*
X122380952Y-77857142D01*
X122476190Y-77666666D01*
X122666666Y-77571428D01*
X123047619Y-77571428D01*
X123238095Y-77666666D01*
X122380952Y-78809523D02*
X122571428Y-78904761D01*
X123047619Y-78904761D01*
X123238095Y-78809523D01*
X123333333Y-78619047D01*
X123333333Y-78428571D01*
X123238095Y-78238095D01*
X123047619Y-78142857D01*
X122571428Y-78142857D01*
X122380952Y-78047619D01*
X121428571Y-78904761D02*
X121428571Y-77571428D01*
X121428571Y-77952380D02*
X121333333Y-77761904D01*
X121238095Y-77666666D01*
X121047619Y-77571428D01*
X120857142Y-77571428D01*
X119333333Y-78904761D02*
X119333333Y-76904761D01*
X119333333Y-78809523D02*
X119523809Y-78904761D01*
X119904761Y-78904761D01*
X120095238Y-78809523D01*
X120190476Y-78714285D01*
X120285714Y-78523809D01*
X120285714Y-77952380D01*
X120190476Y-77761904D01*
X120095238Y-77666666D01*
X119904761Y-77571428D01*
X119523809Y-77571428D01*
X119333333Y-77666666D01*
X146333333Y-80771428D02*
X145571428Y-80771428D01*
X146047619Y-82104761D02*
X146047619Y-80390476D01*
X145952380Y-80200000D01*
X145761904Y-80104761D01*
X145571428Y-80104761D01*
X144619047Y-82104761D02*
X144809523Y-82009523D01*
X144904761Y-81914285D01*
X145000000Y-81723809D01*
X145000000Y-81152380D01*
X144904761Y-80961904D01*
X144809523Y-80866666D01*
X144619047Y-80771428D01*
X144333333Y-80771428D01*
X144142857Y-80866666D01*
X144047619Y-80961904D01*
X143952380Y-81152380D01*
X143952380Y-81723809D01*
X144047619Y-81914285D01*
X144142857Y-82009523D01*
X144333333Y-82104761D01*
X144619047Y-82104761D01*
X143095238Y-82104761D02*
X143095238Y-80771428D01*
X143095238Y-81152380D02*
X143000000Y-80961904D01*
X142904761Y-80866666D01*
X142714285Y-80771428D01*
X142523809Y-80771428D01*
X140428571Y-82009523D02*
X140142857Y-82104761D01*
X139666666Y-82104761D01*
X139476190Y-82009523D01*
X139380952Y-81914285D01*
X139285714Y-81723809D01*
X139285714Y-81533333D01*
X139380952Y-81342857D01*
X139476190Y-81247619D01*
X139666666Y-81152380D01*
X140047619Y-81057142D01*
X140238095Y-80961904D01*
X140333333Y-80866666D01*
X140428571Y-80676190D01*
X140428571Y-80485714D01*
X140333333Y-80295238D01*
X140238095Y-80200000D01*
X140047619Y-80104761D01*
X139571428Y-80104761D01*
X139285714Y-80200000D01*
X138428571Y-82104761D02*
X138428571Y-80104761D01*
X138428571Y-81057142D02*
X137285714Y-81057142D01*
X137285714Y-82104761D02*
X137285714Y-80104761D01*
X136809523Y-82295238D02*
X135285714Y-82295238D01*
X134809523Y-81057142D02*
X134142857Y-81057142D01*
X133857142Y-82104761D02*
X134809523Y-82104761D01*
X134809523Y-80104761D01*
X133857142Y-80104761D01*
X133095238Y-82009523D02*
X132809523Y-82104761D01*
X132333333Y-82104761D01*
X132142857Y-82009523D01*
X132047619Y-81914285D01*
X131952380Y-81723809D01*
X131952380Y-81533333D01*
X132047619Y-81342857D01*
X132142857Y-81247619D01*
X132333333Y-81152380D01*
X132714285Y-81057142D01*
X132904761Y-80961904D01*
X133000000Y-80866666D01*
X133095238Y-80676190D01*
X133095238Y-80485714D01*
X133000000Y-80295238D01*
X132904761Y-80200000D01*
X132714285Y-80104761D01*
X132238095Y-80104761D01*
X131952380Y-80200000D01*
X131095238Y-82104761D02*
X131095238Y-80104761D01*
X130333333Y-80104761D01*
X130142857Y-80200000D01*
X130047619Y-80295238D01*
X129952380Y-80485714D01*
X129952380Y-80771428D01*
X130047619Y-80961904D01*
X130142857Y-81057142D01*
X130333333Y-81152380D01*
X131095238Y-81152380D01*
X129285714Y-80104761D02*
X128047619Y-80104761D01*
X128714285Y-80866666D01*
X128428571Y-80866666D01*
X128238095Y-80961904D01*
X128142857Y-81057142D01*
X128047619Y-81247619D01*
X128047619Y-81723809D01*
X128142857Y-81914285D01*
X128238095Y-82009523D01*
X128428571Y-82104761D01*
X129000000Y-82104761D01*
X129190476Y-82009523D01*
X129285714Y-81914285D01*
X127285714Y-80295238D02*
X127190476Y-80200000D01*
X127000000Y-80104761D01*
X126523809Y-80104761D01*
X126333333Y-80200000D01*
X126238095Y-80295238D01*
X126142857Y-80485714D01*
X126142857Y-80676190D01*
X126238095Y-80961904D01*
X127380952Y-82104761D01*
X126142857Y-82104761D01*
X122619047Y-82104761D02*
X123285714Y-81152380D01*
X123761904Y-82104761D02*
X123761904Y-80104761D01*
X123000000Y-80104761D01*
X122809523Y-80200000D01*
X122714285Y-80295238D01*
X122619047Y-80485714D01*
X122619047Y-80771428D01*
X122714285Y-80961904D01*
X122809523Y-81057142D01*
X123000000Y-81152380D01*
X123761904Y-81152380D01*
X121380952Y-80104761D02*
X121190476Y-80104761D01*
X121000000Y-80200000D01*
X120904761Y-80295238D01*
X120809523Y-80485714D01*
X120714285Y-80866666D01*
X120714285Y-81342857D01*
X120809523Y-81723809D01*
X120904761Y-81914285D01*
X121000000Y-82009523D01*
X121190476Y-82104761D01*
X121380952Y-82104761D01*
X121571428Y-82009523D01*
X121666666Y-81914285D01*
X121761904Y-81723809D01*
X121857142Y-81342857D01*
X121857142Y-80866666D01*
X121761904Y-80485714D01*
X121666666Y-80295238D01*
X121571428Y-80200000D01*
X121380952Y-80104761D01*
X119857142Y-81914285D02*
X119761904Y-82009523D01*
X119857142Y-82104761D01*
X119952380Y-82009523D01*
X119857142Y-81914285D01*
X119857142Y-82104761D01*
X119000000Y-80295238D02*
X118904761Y-80200000D01*
X118714285Y-80104761D01*
X118238095Y-80104761D01*
X118047619Y-80200000D01*
X117952380Y-80295238D01*
X117857142Y-80485714D01*
X117857142Y-80676190D01*
X117952380Y-80961904D01*
X119095238Y-82104761D01*
X117857142Y-82104761D01*
D10*
X176702380Y-98428571D02*
X177702380Y-98761904D01*
X176702380Y-99095238D01*
X177702380Y-99428571D02*
X176702380Y-99428571D01*
X177702380Y-99904761D02*
X176702380Y-99904761D01*
X177702380Y-100476190D01*
X176702380Y-100476190D01*
X176702380Y-100857142D02*
X176702380Y-101476190D01*
X177083333Y-101142857D01*
X177083333Y-101285714D01*
X177130952Y-101380952D01*
X177178571Y-101428571D01*
X177273809Y-101476190D01*
X177511904Y-101476190D01*
X177607142Y-101428571D01*
X177654761Y-101380952D01*
X177702380Y-101285714D01*
X177702380Y-101000000D01*
X177654761Y-100904761D01*
X177607142Y-100857142D01*
X176702380Y-69511904D02*
X177702380Y-69845238D01*
X176702380Y-70178571D01*
X176702380Y-70702380D02*
X176702380Y-70892857D01*
X176750000Y-70988095D01*
X176845238Y-71083333D01*
X177035714Y-71130952D01*
X177369047Y-71130952D01*
X177559523Y-71083333D01*
X177654761Y-70988095D01*
X177702380Y-70892857D01*
X177702380Y-70702380D01*
X177654761Y-70607142D01*
X177559523Y-70511904D01*
X177369047Y-70464285D01*
X177035714Y-70464285D01*
X176845238Y-70511904D01*
X176750000Y-70607142D01*
X176702380Y-70702380D01*
X176702380Y-71559523D02*
X177511904Y-71559523D01*
X177607142Y-71607142D01*
X177654761Y-71654761D01*
X177702380Y-71750000D01*
X177702380Y-71940476D01*
X177654761Y-72035714D01*
X177607142Y-72083333D01*
X177511904Y-72130952D01*
X176702380Y-72130952D01*
X176702380Y-72464285D02*
X176702380Y-73035714D01*
X177702380Y-72750000D02*
X176702380Y-72750000D01*
X177035714Y-73797619D02*
X177702380Y-73797619D01*
X176654761Y-73559523D02*
X177369047Y-73321428D01*
X177369047Y-73940476D01*
X176702380Y-79678571D02*
X177702380Y-80011904D01*
X176702380Y-80345238D01*
X177702380Y-80678571D02*
X176702380Y-80678571D01*
X177702380Y-81154761D02*
X176702380Y-81154761D01*
X177702380Y-81726190D01*
X176702380Y-81726190D01*
X177035714Y-82630952D02*
X177702380Y-82630952D01*
X176654761Y-82392857D02*
X177369047Y-82154761D01*
X177369047Y-82773809D01*
X176702380Y-88511904D02*
X177702380Y-88845238D01*
X176702380Y-89178571D01*
X176702380Y-89702380D02*
X176702380Y-89892857D01*
X176750000Y-89988095D01*
X176845238Y-90083333D01*
X177035714Y-90130952D01*
X177369047Y-90130952D01*
X177559523Y-90083333D01*
X177654761Y-89988095D01*
X177702380Y-89892857D01*
X177702380Y-89702380D01*
X177654761Y-89607142D01*
X177559523Y-89511904D01*
X177369047Y-89464285D01*
X177035714Y-89464285D01*
X176845238Y-89511904D01*
X176750000Y-89607142D01*
X176702380Y-89702380D01*
X176702380Y-90559523D02*
X177511904Y-90559523D01*
X177607142Y-90607142D01*
X177654761Y-90654761D01*
X177702380Y-90750000D01*
X177702380Y-90940476D01*
X177654761Y-91035714D01*
X177607142Y-91083333D01*
X177511904Y-91130952D01*
X176702380Y-91130952D01*
X176702380Y-91464285D02*
X176702380Y-92035714D01*
X177702380Y-91750000D02*
X176702380Y-91750000D01*
X176702380Y-92273809D02*
X176702380Y-92892857D01*
X177083333Y-92559523D01*
X177083333Y-92702380D01*
X177130952Y-92797619D01*
X177178571Y-92845238D01*
X177273809Y-92892857D01*
X177511904Y-92892857D01*
X177607142Y-92845238D01*
X177654761Y-92797619D01*
X177702380Y-92702380D01*
X177702380Y-92416666D01*
X177654761Y-92321428D01*
X177607142Y-92273809D01*
X91297619Y-102488095D02*
X90297619Y-102154761D01*
X91297619Y-101821428D01*
X91297619Y-101297619D02*
X91297619Y-101107142D01*
X91250000Y-101011904D01*
X91154761Y-100916666D01*
X90964285Y-100869047D01*
X90630952Y-100869047D01*
X90440476Y-100916666D01*
X90345238Y-101011904D01*
X90297619Y-101107142D01*
X90297619Y-101297619D01*
X90345238Y-101392857D01*
X90440476Y-101488095D01*
X90630952Y-101535714D01*
X90964285Y-101535714D01*
X91154761Y-101488095D01*
X91250000Y-101392857D01*
X91297619Y-101297619D01*
X91297619Y-100440476D02*
X90488095Y-100440476D01*
X90392857Y-100392857D01*
X90345238Y-100345238D01*
X90297619Y-100250000D01*
X90297619Y-100059523D01*
X90345238Y-99964285D01*
X90392857Y-99916666D01*
X90488095Y-99869047D01*
X91297619Y-99869047D01*
X91297619Y-99535714D02*
X91297619Y-98964285D01*
X90297619Y-99250000D02*
X91297619Y-99250000D01*
X91202380Y-98678571D02*
X91250000Y-98630952D01*
X91297619Y-98535714D01*
X91297619Y-98297619D01*
X91250000Y-98202380D01*
X91202380Y-98154761D01*
X91107142Y-98107142D01*
X91011904Y-98107142D01*
X90869047Y-98154761D01*
X90297619Y-98726190D01*
X90297619Y-98107142D01*
X91297619Y-83488095D02*
X90297619Y-83154761D01*
X91297619Y-82821428D01*
X91297619Y-82297619D02*
X91297619Y-82107142D01*
X91250000Y-82011904D01*
X91154761Y-81916666D01*
X90964285Y-81869047D01*
X90630952Y-81869047D01*
X90440476Y-81916666D01*
X90345238Y-82011904D01*
X90297619Y-82107142D01*
X90297619Y-82297619D01*
X90345238Y-82392857D01*
X90440476Y-82488095D01*
X90630952Y-82535714D01*
X90964285Y-82535714D01*
X91154761Y-82488095D01*
X91250000Y-82392857D01*
X91297619Y-82297619D01*
X91297619Y-81440476D02*
X90488095Y-81440476D01*
X90392857Y-81392857D01*
X90345238Y-81345238D01*
X90297619Y-81250000D01*
X90297619Y-81059523D01*
X90345238Y-80964285D01*
X90392857Y-80916666D01*
X90488095Y-80869047D01*
X91297619Y-80869047D01*
X91297619Y-80535714D02*
X91297619Y-79964285D01*
X90297619Y-80250000D02*
X91297619Y-80250000D01*
X90297619Y-79107142D02*
X90297619Y-79678571D01*
X90297619Y-79392857D02*
X91297619Y-79392857D01*
X91154761Y-79488095D01*
X91059523Y-79583333D01*
X91011904Y-79678571D01*
X91297619Y-92321428D02*
X90297619Y-91988095D01*
X91297619Y-91654761D01*
X90297619Y-91321428D02*
X91297619Y-91321428D01*
X90297619Y-90845238D02*
X91297619Y-90845238D01*
X90297619Y-90273809D01*
X91297619Y-90273809D01*
X91202380Y-89845238D02*
X91250000Y-89797619D01*
X91297619Y-89702380D01*
X91297619Y-89464285D01*
X91250000Y-89369047D01*
X91202380Y-89321428D01*
X91107142Y-89273809D01*
X91011904Y-89273809D01*
X90869047Y-89321428D01*
X90297619Y-89892857D01*
X90297619Y-89273809D01*
X91297619Y-73571428D02*
X90297619Y-73238095D01*
X91297619Y-72904761D01*
X90297619Y-72571428D02*
X91297619Y-72571428D01*
X90297619Y-72095238D02*
X91297619Y-72095238D01*
X90297619Y-71523809D01*
X91297619Y-71523809D01*
X90297619Y-70523809D02*
X90297619Y-71095238D01*
X90297619Y-70809523D02*
X91297619Y-70809523D01*
X91154761Y-70904761D01*
X91059523Y-71000000D01*
X91011904Y-71095238D01*
D12*
X89000000Y-65500000D02*
X89000000Y-106500000D01*
X170500000Y-115000000D02*
G75*
G02*
X179000000Y-106500000I8500000J0D01*
G01*
X89000000Y-106500000D02*
G75*
G02*
X97500000Y-115000000I0J-8500000D01*
G01*
X179000000Y-65500000D02*
G75*
G02*
X170500000Y-57000000I0J8500000D01*
G01*
X97500000Y-57000000D02*
G75*
G02*
X89000000Y-65500000I-8500000J0D01*
G01*
X179000000Y-106500000D02*
X179000000Y-65500000D01*
X170500000Y-115000000D02*
X97500000Y-115000000D01*
X170500000Y-57000000D02*
X97500000Y-57000000D01*
D13*
%TO.C,G\u002A\u002A\u002A*%
G36*
X126483861Y-68834015D02*
G01*
X126367205Y-68843293D01*
X126262230Y-68860626D01*
X126231050Y-68868248D01*
X126071713Y-68923717D01*
X125926658Y-68999752D01*
X125796887Y-69095266D01*
X125683401Y-69209175D01*
X125587203Y-69340392D01*
X125509294Y-69487832D01*
X125450675Y-69650408D01*
X125428704Y-69737992D01*
X125417806Y-69807392D01*
X125410397Y-69894231D01*
X125406475Y-69991697D01*
X125406041Y-70092981D01*
X125409094Y-70191271D01*
X125415632Y-70279755D01*
X125425656Y-70351623D01*
X125428762Y-70366437D01*
X125476563Y-70523923D01*
X125544485Y-70672191D01*
X125630428Y-70808948D01*
X125732294Y-70931901D01*
X125847984Y-71038759D01*
X125975398Y-71127227D01*
X126112438Y-71195013D01*
X126220135Y-71230864D01*
X126295972Y-71247671D01*
X126382435Y-71261450D01*
X126472609Y-71271591D01*
X126559574Y-71277483D01*
X126636415Y-71278515D01*
X126696213Y-71274077D01*
X126700950Y-71273315D01*
X126806166Y-71253548D01*
X126891475Y-71233384D01*
X126962350Y-71211350D01*
X127022769Y-71186665D01*
X127157183Y-71111059D01*
X127276497Y-71016176D01*
X127378561Y-70904145D01*
X127461223Y-70777091D01*
X127485143Y-70729531D01*
X127508325Y-70674399D01*
X127529638Y-70613784D01*
X127547885Y-70552557D01*
X127561871Y-70495590D01*
X127570400Y-70447755D01*
X127572274Y-70413922D01*
X127566318Y-70398971D01*
X127549554Y-70397389D01*
X127511408Y-70396302D01*
X127455890Y-70395742D01*
X127387016Y-70395743D01*
X127308796Y-70396340D01*
X127286545Y-70396608D01*
X127021896Y-70400050D01*
X126997961Y-70494335D01*
X126981420Y-70554056D01*
X126964760Y-70597171D01*
X126943479Y-70632095D01*
X126913075Y-70667240D01*
X126896380Y-70684213D01*
X126829914Y-70734087D01*
X126743488Y-70772471D01*
X126640443Y-70797985D01*
X126609894Y-70802529D01*
X126492395Y-70807897D01*
X126387156Y-70791538D01*
X126292362Y-70752873D01*
X126206199Y-70691320D01*
X126177478Y-70663989D01*
X126106075Y-70573915D01*
X126049363Y-70465013D01*
X126007904Y-70339558D01*
X125982257Y-70199827D01*
X125972981Y-70048096D01*
X125980636Y-69886642D01*
X125982311Y-69870452D01*
X126004465Y-69732325D01*
X126039166Y-69615195D01*
X126087256Y-69517520D01*
X126149577Y-69437754D01*
X126226969Y-69374355D01*
X126265010Y-69351784D01*
X126303845Y-69331952D01*
X126336804Y-69318993D01*
X126371705Y-69311150D01*
X126416362Y-69306668D01*
X126478591Y-69303792D01*
X126478700Y-69303788D01*
X126608366Y-69307815D01*
X126720254Y-69329937D01*
X126814475Y-69370216D01*
X126891137Y-69428711D01*
X126950347Y-69505483D01*
X126987235Y-69585717D01*
X127005331Y-69640484D01*
X127012316Y-69675902D01*
X127006652Y-69696151D01*
X126986801Y-69705411D01*
X126951222Y-69707859D01*
X126942250Y-69707900D01*
X126903993Y-69709489D01*
X126878621Y-69713589D01*
X126872400Y-69717565D01*
X126881017Y-69728887D01*
X126905206Y-69755466D01*
X126942476Y-69794702D01*
X126990338Y-69843994D01*
X127046301Y-69900741D01*
X127085264Y-69939817D01*
X127298127Y-70152403D01*
X127510714Y-69939540D01*
X127570466Y-69879354D01*
X127623727Y-69825027D01*
X127668008Y-69779151D01*
X127700826Y-69744317D01*
X127719694Y-69723116D01*
X127723300Y-69717894D01*
X127711744Y-69712763D01*
X127681633Y-69708135D01*
X127644862Y-69705331D01*
X127566424Y-69701550D01*
X127544313Y-69598548D01*
X127499063Y-69443512D01*
X127433592Y-69303392D01*
X127348887Y-69179194D01*
X127245937Y-69071922D01*
X127125727Y-68982583D01*
X126989246Y-68912182D01*
X126837482Y-68861722D01*
X126815133Y-68856321D01*
X126716705Y-68840348D01*
X126603321Y-68832973D01*
X126483861Y-68834015D01*
G37*
X126483861Y-68834015D02*
X126367205Y-68843293D01*
X126262230Y-68860626D01*
X126231050Y-68868248D01*
X126071713Y-68923717D01*
X125926658Y-68999752D01*
X125796887Y-69095266D01*
X125683401Y-69209175D01*
X125587203Y-69340392D01*
X125509294Y-69487832D01*
X125450675Y-69650408D01*
X125428704Y-69737992D01*
X125417806Y-69807392D01*
X125410397Y-69894231D01*
X125406475Y-69991697D01*
X125406041Y-70092981D01*
X125409094Y-70191271D01*
X125415632Y-70279755D01*
X125425656Y-70351623D01*
X125428762Y-70366437D01*
X125476563Y-70523923D01*
X125544485Y-70672191D01*
X125630428Y-70808948D01*
X125732294Y-70931901D01*
X125847984Y-71038759D01*
X125975398Y-71127227D01*
X126112438Y-71195013D01*
X126220135Y-71230864D01*
X126295972Y-71247671D01*
X126382435Y-71261450D01*
X126472609Y-71271591D01*
X126559574Y-71277483D01*
X126636415Y-71278515D01*
X126696213Y-71274077D01*
X126700950Y-71273315D01*
X126806166Y-71253548D01*
X126891475Y-71233384D01*
X126962350Y-71211350D01*
X127022769Y-71186665D01*
X127157183Y-71111059D01*
X127276497Y-71016176D01*
X127378561Y-70904145D01*
X127461223Y-70777091D01*
X127485143Y-70729531D01*
X127508325Y-70674399D01*
X127529638Y-70613784D01*
X127547885Y-70552557D01*
X127561871Y-70495590D01*
X127570400Y-70447755D01*
X127572274Y-70413922D01*
X127566318Y-70398971D01*
X127549554Y-70397389D01*
X127511408Y-70396302D01*
X127455890Y-70395742D01*
X127387016Y-70395743D01*
X127308796Y-70396340D01*
X127286545Y-70396608D01*
X127021896Y-70400050D01*
X126997961Y-70494335D01*
X126981420Y-70554056D01*
X126964760Y-70597171D01*
X126943479Y-70632095D01*
X126913075Y-70667240D01*
X126896380Y-70684213D01*
X126829914Y-70734087D01*
X126743488Y-70772471D01*
X126640443Y-70797985D01*
X126609894Y-70802529D01*
X126492395Y-70807897D01*
X126387156Y-70791538D01*
X126292362Y-70752873D01*
X126206199Y-70691320D01*
X126177478Y-70663989D01*
X126106075Y-70573915D01*
X126049363Y-70465013D01*
X126007904Y-70339558D01*
X125982257Y-70199827D01*
X125972981Y-70048096D01*
X125980636Y-69886642D01*
X125982311Y-69870452D01*
X126004465Y-69732325D01*
X126039166Y-69615195D01*
X126087256Y-69517520D01*
X126149577Y-69437754D01*
X126226969Y-69374355D01*
X126265010Y-69351784D01*
X126303845Y-69331952D01*
X126336804Y-69318993D01*
X126371705Y-69311150D01*
X126416362Y-69306668D01*
X126478591Y-69303792D01*
X126478700Y-69303788D01*
X126608366Y-69307815D01*
X126720254Y-69329937D01*
X126814475Y-69370216D01*
X126891137Y-69428711D01*
X126950347Y-69505483D01*
X126987235Y-69585717D01*
X127005331Y-69640484D01*
X127012316Y-69675902D01*
X127006652Y-69696151D01*
X126986801Y-69705411D01*
X126951222Y-69707859D01*
X126942250Y-69707900D01*
X126903993Y-69709489D01*
X126878621Y-69713589D01*
X126872400Y-69717565D01*
X126881017Y-69728887D01*
X126905206Y-69755466D01*
X126942476Y-69794702D01*
X126990338Y-69843994D01*
X127046301Y-69900741D01*
X127085264Y-69939817D01*
X127298127Y-70152403D01*
X127510714Y-69939540D01*
X127570466Y-69879354D01*
X127623727Y-69825027D01*
X127668008Y-69779151D01*
X127700826Y-69744317D01*
X127719694Y-69723116D01*
X127723300Y-69717894D01*
X127711744Y-69712763D01*
X127681633Y-69708135D01*
X127644862Y-69705331D01*
X127566424Y-69701550D01*
X127544313Y-69598548D01*
X127499063Y-69443512D01*
X127433592Y-69303392D01*
X127348887Y-69179194D01*
X127245937Y-69071922D01*
X127125727Y-68982583D01*
X126989246Y-68912182D01*
X126837482Y-68861722D01*
X126815133Y-68856321D01*
X126716705Y-68840348D01*
X126603321Y-68832973D01*
X126483861Y-68834015D01*
G36*
X131700235Y-68559642D02*
G01*
X131656391Y-68563536D01*
X131622844Y-68571543D01*
X131592066Y-68584903D01*
X131587290Y-68587410D01*
X131529435Y-68632119D01*
X131485745Y-68694759D01*
X131457727Y-68771242D01*
X131446889Y-68857479D01*
X131454447Y-68947827D01*
X131479220Y-69031650D01*
X131519043Y-69095621D01*
X131574690Y-69140895D01*
X131588628Y-69148217D01*
X131651104Y-69169129D01*
X131726537Y-69180615D01*
X131803975Y-69181823D01*
X131872466Y-69171899D01*
X131876978Y-69170671D01*
X131952116Y-69139007D01*
X132008813Y-69091180D01*
X132048102Y-69025869D01*
X132071018Y-68941758D01*
X132074105Y-68919421D01*
X132075346Y-68827972D01*
X132058240Y-68743932D01*
X132024476Y-68671374D01*
X131975740Y-68614368D01*
X131936511Y-68587410D01*
X131905504Y-68573152D01*
X131872841Y-68564432D01*
X131830995Y-68560007D01*
X131772441Y-68558638D01*
X131761900Y-68558620D01*
X131700235Y-68559642D01*
G37*
X131700235Y-68559642D02*
X131656391Y-68563536D01*
X131622844Y-68571543D01*
X131592066Y-68584903D01*
X131587290Y-68587410D01*
X131529435Y-68632119D01*
X131485745Y-68694759D01*
X131457727Y-68771242D01*
X131446889Y-68857479D01*
X131454447Y-68947827D01*
X131479220Y-69031650D01*
X131519043Y-69095621D01*
X131574690Y-69140895D01*
X131588628Y-69148217D01*
X131651104Y-69169129D01*
X131726537Y-69180615D01*
X131803975Y-69181823D01*
X131872466Y-69171899D01*
X131876978Y-69170671D01*
X131952116Y-69139007D01*
X132008813Y-69091180D01*
X132048102Y-69025869D01*
X132071018Y-68941758D01*
X132074105Y-68919421D01*
X132075346Y-68827972D01*
X132058240Y-68743932D01*
X132024476Y-68671374D01*
X131975740Y-68614368D01*
X131936511Y-68587410D01*
X131905504Y-68573152D01*
X131872841Y-68564432D01*
X131830995Y-68560007D01*
X131772441Y-68558638D01*
X131761900Y-68558620D01*
X131700235Y-68559642D01*
G36*
X131674197Y-69312757D02*
G01*
X131573789Y-69313782D01*
X131479944Y-69315565D01*
X131396211Y-69318109D01*
X131326140Y-69321412D01*
X131273283Y-69325475D01*
X131241189Y-69330297D01*
X131236102Y-69331908D01*
X131215665Y-69340556D01*
X131198852Y-69349411D01*
X131185310Y-69360874D01*
X131174686Y-69377348D01*
X131166625Y-69401236D01*
X131160775Y-69434940D01*
X131156781Y-69480862D01*
X131154290Y-69541405D01*
X131152948Y-69618972D01*
X131152402Y-69715965D01*
X131152297Y-69834785D01*
X131152300Y-69901225D01*
X131152300Y-70393700D01*
X131406300Y-70393700D01*
X131406300Y-71498600D01*
X131758725Y-71498601D01*
X132111150Y-71498603D01*
X132111150Y-70400050D01*
X132241325Y-70396430D01*
X132371500Y-70392811D01*
X132371500Y-69900781D01*
X132371483Y-69770528D01*
X132371196Y-69663271D01*
X132370283Y-69576606D01*
X132368392Y-69508131D01*
X132365168Y-69455441D01*
X132360258Y-69416133D01*
X132353306Y-69387803D01*
X132343960Y-69368048D01*
X132331864Y-69354465D01*
X132316665Y-69344649D01*
X132298009Y-69336196D01*
X132287699Y-69331908D01*
X132262595Y-69326856D01*
X132215652Y-69322563D01*
X132150422Y-69319029D01*
X132070453Y-69316256D01*
X131979296Y-69314242D01*
X131880501Y-69312987D01*
X131777618Y-69312492D01*
X131674197Y-69312757D01*
G37*
X131674197Y-69312757D02*
X131573789Y-69313782D01*
X131479944Y-69315565D01*
X131396211Y-69318109D01*
X131326140Y-69321412D01*
X131273283Y-69325475D01*
X131241189Y-69330297D01*
X131236102Y-69331908D01*
X131215665Y-69340556D01*
X131198852Y-69349411D01*
X131185310Y-69360874D01*
X131174686Y-69377348D01*
X131166625Y-69401236D01*
X131160775Y-69434940D01*
X131156781Y-69480862D01*
X131154290Y-69541405D01*
X131152948Y-69618972D01*
X131152402Y-69715965D01*
X131152297Y-69834785D01*
X131152300Y-69901225D01*
X131152300Y-70393700D01*
X131406300Y-70393700D01*
X131406300Y-71498600D01*
X131758725Y-71498601D01*
X132111150Y-71498603D01*
X132111150Y-70400050D01*
X132241325Y-70396430D01*
X132371500Y-70392811D01*
X132371500Y-69900781D01*
X132371483Y-69770528D01*
X132371196Y-69663271D01*
X132370283Y-69576606D01*
X132368392Y-69508131D01*
X132365168Y-69455441D01*
X132360258Y-69416133D01*
X132353306Y-69387803D01*
X132343960Y-69368048D01*
X132331864Y-69354465D01*
X132316665Y-69344649D01*
X132298009Y-69336196D01*
X132287699Y-69331908D01*
X132262595Y-69326856D01*
X132215652Y-69322563D01*
X132150422Y-69319029D01*
X132070453Y-69316256D01*
X131979296Y-69314242D01*
X131880501Y-69312987D01*
X131777618Y-69312492D01*
X131674197Y-69312757D01*
G36*
X136101138Y-69337583D02*
G01*
X135986623Y-69371666D01*
X135884390Y-69422454D01*
X135831111Y-69460504D01*
X135796339Y-69492619D01*
X135761105Y-69531069D01*
X135729347Y-69570694D01*
X135705003Y-69606331D01*
X135692013Y-69632821D01*
X135691753Y-69643109D01*
X135704282Y-69652069D01*
X135733902Y-69669886D01*
X135775222Y-69693588D01*
X135822856Y-69720206D01*
X135871415Y-69746767D01*
X135915510Y-69770302D01*
X135949753Y-69787839D01*
X135968756Y-69796407D01*
X135970500Y-69796800D01*
X135979171Y-69787414D01*
X135997795Y-69763248D01*
X136014206Y-69740806D01*
X136070754Y-69681549D01*
X136138381Y-69641840D01*
X136212493Y-69622085D01*
X136288495Y-69622691D01*
X136361793Y-69644066D01*
X136427790Y-69686617D01*
X136444609Y-69702665D01*
X136488721Y-69760084D01*
X136518729Y-69827989D01*
X136535914Y-69910554D01*
X136541554Y-70011952D01*
X136541552Y-70019050D01*
X136533265Y-70135876D01*
X136509485Y-70234228D01*
X136470668Y-70313485D01*
X136417273Y-70373026D01*
X136349757Y-70412230D01*
X136268576Y-70430478D01*
X136237134Y-70431800D01*
X136149632Y-70420705D01*
X136074047Y-70388135D01*
X136012459Y-70335158D01*
X135989588Y-70304519D01*
X135949568Y-70242759D01*
X135811913Y-70311795D01*
X135674258Y-70380832D01*
X135699540Y-70423681D01*
X135729266Y-70463861D01*
X135773523Y-70511643D01*
X135825595Y-70560708D01*
X135878765Y-70604740D01*
X135926318Y-70637420D01*
X135927500Y-70638109D01*
X136033989Y-70686575D01*
X136152523Y-70717709D01*
X136275348Y-70730092D01*
X136390451Y-70722964D01*
X136507556Y-70697076D01*
X136607914Y-70656330D01*
X136697082Y-70598024D01*
X136755854Y-70545278D01*
X136829082Y-70454529D01*
X136884934Y-70347691D01*
X136922677Y-70227863D01*
X136941578Y-70098144D01*
X136940904Y-69961634D01*
X136923368Y-69837539D01*
X136886187Y-69715422D01*
X136828509Y-69605786D01*
X136752389Y-69510857D01*
X136659886Y-69432863D01*
X136553056Y-69374030D01*
X136468123Y-69344705D01*
X136346912Y-69323190D01*
X136222909Y-69321120D01*
X136101138Y-69337583D01*
G37*
X136101138Y-69337583D02*
X135986623Y-69371666D01*
X135884390Y-69422454D01*
X135831111Y-69460504D01*
X135796339Y-69492619D01*
X135761105Y-69531069D01*
X135729347Y-69570694D01*
X135705003Y-69606331D01*
X135692013Y-69632821D01*
X135691753Y-69643109D01*
X135704282Y-69652069D01*
X135733902Y-69669886D01*
X135775222Y-69693588D01*
X135822856Y-69720206D01*
X135871415Y-69746767D01*
X135915510Y-69770302D01*
X135949753Y-69787839D01*
X135968756Y-69796407D01*
X135970500Y-69796800D01*
X135979171Y-69787414D01*
X135997795Y-69763248D01*
X136014206Y-69740806D01*
X136070754Y-69681549D01*
X136138381Y-69641840D01*
X136212493Y-69622085D01*
X136288495Y-69622691D01*
X136361793Y-69644066D01*
X136427790Y-69686617D01*
X136444609Y-69702665D01*
X136488721Y-69760084D01*
X136518729Y-69827989D01*
X136535914Y-69910554D01*
X136541554Y-70011952D01*
X136541552Y-70019050D01*
X136533265Y-70135876D01*
X136509485Y-70234228D01*
X136470668Y-70313485D01*
X136417273Y-70373026D01*
X136349757Y-70412230D01*
X136268576Y-70430478D01*
X136237134Y-70431800D01*
X136149632Y-70420705D01*
X136074047Y-70388135D01*
X136012459Y-70335158D01*
X135989588Y-70304519D01*
X135949568Y-70242759D01*
X135811913Y-70311795D01*
X135674258Y-70380832D01*
X135699540Y-70423681D01*
X135729266Y-70463861D01*
X135773523Y-70511643D01*
X135825595Y-70560708D01*
X135878765Y-70604740D01*
X135926318Y-70637420D01*
X135927500Y-70638109D01*
X136033989Y-70686575D01*
X136152523Y-70717709D01*
X136275348Y-70730092D01*
X136390451Y-70722964D01*
X136507556Y-70697076D01*
X136607914Y-70656330D01*
X136697082Y-70598024D01*
X136755854Y-70545278D01*
X136829082Y-70454529D01*
X136884934Y-70347691D01*
X136922677Y-70227863D01*
X136941578Y-70098144D01*
X136940904Y-69961634D01*
X136923368Y-69837539D01*
X136886187Y-69715422D01*
X136828509Y-69605786D01*
X136752389Y-69510857D01*
X136659886Y-69432863D01*
X136553056Y-69374030D01*
X136468123Y-69344705D01*
X136346912Y-69323190D01*
X136222909Y-69321120D01*
X136101138Y-69337583D01*
G36*
X137560330Y-69317589D02*
G01*
X137509052Y-69323670D01*
X137471326Y-69329590D01*
X137345804Y-69359556D01*
X137236057Y-69405360D01*
X137144868Y-69465813D01*
X137137003Y-69472508D01*
X137104382Y-69504345D01*
X137070446Y-69542870D01*
X137039839Y-69582083D01*
X137017206Y-69615988D01*
X137007191Y-69638584D01*
X137007058Y-69640338D01*
X137017557Y-69648809D01*
X137045688Y-69666081D01*
X137086453Y-69689416D01*
X137134857Y-69716079D01*
X137185900Y-69743332D01*
X137234587Y-69768439D01*
X137275920Y-69788665D01*
X137288253Y-69794320D01*
X137299588Y-69786956D01*
X137319571Y-69763893D01*
X137335851Y-69741611D01*
X137390263Y-69683620D01*
X137458613Y-69643267D01*
X137535129Y-69622502D01*
X137614042Y-69623274D01*
X137655980Y-69633453D01*
X137725627Y-69667002D01*
X137779517Y-69716566D01*
X137818523Y-69783682D01*
X137843516Y-69869886D01*
X137855368Y-69976714D01*
X137855750Y-69985569D01*
X137854770Y-70096608D01*
X137841797Y-70188057D01*
X137816062Y-70263114D01*
X137776794Y-70324976D01*
X137772828Y-70329704D01*
X137712630Y-70385991D01*
X137646226Y-70419194D01*
X137568771Y-70431593D01*
X137555884Y-70431800D01*
X137468577Y-70420705D01*
X137392572Y-70387171D01*
X137327266Y-70330820D01*
X137275239Y-70256970D01*
X137264390Y-70253167D01*
X137239886Y-70259581D01*
X137199169Y-70277181D01*
X137139681Y-70306934D01*
X137130223Y-70311856D01*
X136994334Y-70382822D01*
X137031253Y-70436481D01*
X137112469Y-70532768D01*
X137210068Y-70611681D01*
X137320660Y-70671794D01*
X137440855Y-70711678D01*
X137567263Y-70729905D01*
X137696495Y-70725047D01*
X137711251Y-70722964D01*
X137829228Y-70696778D01*
X137930348Y-70655506D01*
X138019829Y-70596623D01*
X138074816Y-70547116D01*
X138141801Y-70470308D01*
X138192011Y-70388709D01*
X138227274Y-70297611D01*
X138249421Y-70192304D01*
X138260203Y-70069850D01*
X138259659Y-69936862D01*
X138244497Y-69821384D01*
X138213353Y-69719257D01*
X138164859Y-69626321D01*
X138097650Y-69538418D01*
X138079014Y-69518063D01*
X138002165Y-69446696D01*
X137921712Y-69394109D01*
X137831044Y-69356902D01*
X137723550Y-69331675D01*
X137713207Y-69329938D01*
X137651678Y-69320707D01*
X137604295Y-69316596D01*
X137560330Y-69317589D01*
G37*
X137560330Y-69317589D02*
X137509052Y-69323670D01*
X137471326Y-69329590D01*
X137345804Y-69359556D01*
X137236057Y-69405360D01*
X137144868Y-69465813D01*
X137137003Y-69472508D01*
X137104382Y-69504345D01*
X137070446Y-69542870D01*
X137039839Y-69582083D01*
X137017206Y-69615988D01*
X137007191Y-69638584D01*
X137007058Y-69640338D01*
X137017557Y-69648809D01*
X137045688Y-69666081D01*
X137086453Y-69689416D01*
X137134857Y-69716079D01*
X137185900Y-69743332D01*
X137234587Y-69768439D01*
X137275920Y-69788665D01*
X137288253Y-69794320D01*
X137299588Y-69786956D01*
X137319571Y-69763893D01*
X137335851Y-69741611D01*
X137390263Y-69683620D01*
X137458613Y-69643267D01*
X137535129Y-69622502D01*
X137614042Y-69623274D01*
X137655980Y-69633453D01*
X137725627Y-69667002D01*
X137779517Y-69716566D01*
X137818523Y-69783682D01*
X137843516Y-69869886D01*
X137855368Y-69976714D01*
X137855750Y-69985569D01*
X137854770Y-70096608D01*
X137841797Y-70188057D01*
X137816062Y-70263114D01*
X137776794Y-70324976D01*
X137772828Y-70329704D01*
X137712630Y-70385991D01*
X137646226Y-70419194D01*
X137568771Y-70431593D01*
X137555884Y-70431800D01*
X137468577Y-70420705D01*
X137392572Y-70387171D01*
X137327266Y-70330820D01*
X137275239Y-70256970D01*
X137264390Y-70253167D01*
X137239886Y-70259581D01*
X137199169Y-70277181D01*
X137139681Y-70306934D01*
X137130223Y-70311856D01*
X136994334Y-70382822D01*
X137031253Y-70436481D01*
X137112469Y-70532768D01*
X137210068Y-70611681D01*
X137320660Y-70671794D01*
X137440855Y-70711678D01*
X137567263Y-70729905D01*
X137696495Y-70725047D01*
X137711251Y-70722964D01*
X137829228Y-70696778D01*
X137930348Y-70655506D01*
X138019829Y-70596623D01*
X138074816Y-70547116D01*
X138141801Y-70470308D01*
X138192011Y-70388709D01*
X138227274Y-70297611D01*
X138249421Y-70192304D01*
X138260203Y-70069850D01*
X138259659Y-69936862D01*
X138244497Y-69821384D01*
X138213353Y-69719257D01*
X138164859Y-69626321D01*
X138097650Y-69538418D01*
X138079014Y-69518063D01*
X138002165Y-69446696D01*
X137921712Y-69394109D01*
X137831044Y-69356902D01*
X137723550Y-69331675D01*
X137713207Y-69329938D01*
X137651678Y-69320707D01*
X137604295Y-69316596D01*
X137560330Y-69317589D01*
G36*
X126282470Y-67758846D02*
G01*
X126082921Y-67787895D01*
X126066329Y-67791172D01*
X125853085Y-67846862D01*
X125641101Y-67927384D01*
X125431704Y-68032168D01*
X125264757Y-68134534D01*
X125162245Y-68209855D01*
X125053512Y-68302329D01*
X124943954Y-68406521D01*
X124838966Y-68516995D01*
X124743941Y-68628317D01*
X124664275Y-68735049D01*
X124654832Y-68749050D01*
X124542416Y-68933145D01*
X124451887Y-69115931D01*
X124381610Y-69302211D01*
X124329951Y-69496787D01*
X124295278Y-69704461D01*
X124281180Y-69847332D01*
X124274883Y-70070282D01*
X124288845Y-70293152D01*
X124322305Y-70511994D01*
X124374504Y-70722858D01*
X124444681Y-70921796D01*
X124518391Y-71079500D01*
X124640014Y-71282732D01*
X124782210Y-71472351D01*
X124943183Y-71646776D01*
X125121137Y-71804425D01*
X125314278Y-71943720D01*
X125520809Y-72063079D01*
X125738935Y-72160921D01*
X125753274Y-72166423D01*
X125921844Y-72220620D01*
X126106362Y-72262297D01*
X126300208Y-72290588D01*
X126496762Y-72304628D01*
X126689402Y-72303550D01*
X126764450Y-72298645D01*
X126990099Y-72267155D01*
X127210572Y-72211854D01*
X127424143Y-72134094D01*
X127629088Y-72035229D01*
X127823680Y-71916612D01*
X128006195Y-71779595D01*
X128174906Y-71625531D01*
X128328089Y-71455775D01*
X128464018Y-71271677D01*
X128580968Y-71074593D01*
X128677212Y-70865874D01*
X128712403Y-70771144D01*
X128759823Y-70619139D01*
X128793990Y-70473545D01*
X128817224Y-70323041D01*
X128828552Y-70204380D01*
X128831089Y-70101651D01*
X128427093Y-70101651D01*
X128422232Y-70178716D01*
X128394081Y-70388807D01*
X128346754Y-70584197D01*
X128279074Y-70767451D01*
X128189865Y-70941132D01*
X128077951Y-71107804D01*
X127942154Y-71270031D01*
X127901843Y-71312779D01*
X127744207Y-71462008D01*
X127581573Y-71587384D01*
X127411407Y-71690332D01*
X127231176Y-71772279D01*
X127038346Y-71834653D01*
X126929181Y-71860470D01*
X126867910Y-71871208D01*
X126794254Y-71880982D01*
X126715510Y-71889145D01*
X126638971Y-71895047D01*
X126571933Y-71898042D01*
X126521693Y-71897480D01*
X126516800Y-71897114D01*
X126483018Y-71894438D01*
X126433369Y-71890764D01*
X126377329Y-71886790D01*
X126364400Y-71885898D01*
X126176199Y-71860616D01*
X125988598Y-71811553D01*
X125804082Y-71740262D01*
X125625132Y-71648292D01*
X125454231Y-71537193D01*
X125293862Y-71408516D01*
X125146506Y-71263812D01*
X125014648Y-71104631D01*
X124939674Y-70996087D01*
X124853667Y-70839949D01*
X124784064Y-70667478D01*
X124731692Y-70482406D01*
X124697378Y-70288464D01*
X124681950Y-70089382D01*
X124686234Y-69888891D01*
X124688321Y-69862469D01*
X124716569Y-69649487D01*
X124764039Y-69451337D01*
X124831773Y-69265908D01*
X124920815Y-69091088D01*
X125032207Y-68924764D01*
X125166994Y-68764824D01*
X125291733Y-68640639D01*
X125459768Y-68500355D01*
X125635879Y-68384032D01*
X125819908Y-68291757D01*
X126011696Y-68223614D01*
X126116067Y-68197391D01*
X126307215Y-68166069D01*
X126502859Y-68153046D01*
X126698737Y-68157883D01*
X126890588Y-68180140D01*
X127074150Y-68219377D01*
X127245162Y-68275154D01*
X127358907Y-68325700D01*
X127532536Y-68426260D01*
X127699301Y-68548713D01*
X127855984Y-68689814D01*
X127999368Y-68846318D01*
X128126236Y-69014982D01*
X128233370Y-69192561D01*
X128249692Y-69224000D01*
X128316603Y-69379603D01*
X128368834Y-69550899D01*
X128405350Y-69732159D01*
X128425115Y-69917654D01*
X128427093Y-70101651D01*
X128831089Y-70101651D01*
X128834564Y-69960968D01*
X128815992Y-69722603D01*
X128773352Y-69490446D01*
X128707161Y-69265657D01*
X128617936Y-69049396D01*
X128506192Y-68842824D01*
X128372446Y-68647101D01*
X128217216Y-68463386D01*
X128041017Y-68292840D01*
X127940085Y-68208802D01*
X127812660Y-68117353D01*
X127668350Y-68029683D01*
X127515657Y-67950375D01*
X127363083Y-67884015D01*
X127285150Y-67855654D01*
X127102866Y-67805019D01*
X126905783Y-67769721D01*
X126699574Y-67750060D01*
X126489912Y-67746335D01*
X126282470Y-67758846D01*
G37*
X126282470Y-67758846D02*
X126082921Y-67787895D01*
X126066329Y-67791172D01*
X125853085Y-67846862D01*
X125641101Y-67927384D01*
X125431704Y-68032168D01*
X125264757Y-68134534D01*
X125162245Y-68209855D01*
X125053512Y-68302329D01*
X124943954Y-68406521D01*
X124838966Y-68516995D01*
X124743941Y-68628317D01*
X124664275Y-68735049D01*
X124654832Y-68749050D01*
X124542416Y-68933145D01*
X124451887Y-69115931D01*
X124381610Y-69302211D01*
X124329951Y-69496787D01*
X124295278Y-69704461D01*
X124281180Y-69847332D01*
X124274883Y-70070282D01*
X124288845Y-70293152D01*
X124322305Y-70511994D01*
X124374504Y-70722858D01*
X124444681Y-70921796D01*
X124518391Y-71079500D01*
X124640014Y-71282732D01*
X124782210Y-71472351D01*
X124943183Y-71646776D01*
X125121137Y-71804425D01*
X125314278Y-71943720D01*
X125520809Y-72063079D01*
X125738935Y-72160921D01*
X125753274Y-72166423D01*
X125921844Y-72220620D01*
X126106362Y-72262297D01*
X126300208Y-72290588D01*
X126496762Y-72304628D01*
X126689402Y-72303550D01*
X126764450Y-72298645D01*
X126990099Y-72267155D01*
X127210572Y-72211854D01*
X127424143Y-72134094D01*
X127629088Y-72035229D01*
X127823680Y-71916612D01*
X128006195Y-71779595D01*
X128174906Y-71625531D01*
X128328089Y-71455775D01*
X128464018Y-71271677D01*
X128580968Y-71074593D01*
X128677212Y-70865874D01*
X128712403Y-70771144D01*
X128759823Y-70619139D01*
X128793990Y-70473545D01*
X128817224Y-70323041D01*
X128828552Y-70204380D01*
X128831089Y-70101651D01*
X128427093Y-70101651D01*
X128422232Y-70178716D01*
X128394081Y-70388807D01*
X128346754Y-70584197D01*
X128279074Y-70767451D01*
X128189865Y-70941132D01*
X128077951Y-71107804D01*
X127942154Y-71270031D01*
X127901843Y-71312779D01*
X127744207Y-71462008D01*
X127581573Y-71587384D01*
X127411407Y-71690332D01*
X127231176Y-71772279D01*
X127038346Y-71834653D01*
X126929181Y-71860470D01*
X126867910Y-71871208D01*
X126794254Y-71880982D01*
X126715510Y-71889145D01*
X126638971Y-71895047D01*
X126571933Y-71898042D01*
X126521693Y-71897480D01*
X126516800Y-71897114D01*
X126483018Y-71894438D01*
X126433369Y-71890764D01*
X126377329Y-71886790D01*
X126364400Y-71885898D01*
X126176199Y-71860616D01*
X125988598Y-71811553D01*
X125804082Y-71740262D01*
X125625132Y-71648292D01*
X125454231Y-71537193D01*
X125293862Y-71408516D01*
X125146506Y-71263812D01*
X125014648Y-71104631D01*
X124939674Y-70996087D01*
X124853667Y-70839949D01*
X124784064Y-70667478D01*
X124731692Y-70482406D01*
X124697378Y-70288464D01*
X124681950Y-70089382D01*
X124686234Y-69888891D01*
X124688321Y-69862469D01*
X124716569Y-69649487D01*
X124764039Y-69451337D01*
X124831773Y-69265908D01*
X124920815Y-69091088D01*
X125032207Y-68924764D01*
X125166994Y-68764824D01*
X125291733Y-68640639D01*
X125459768Y-68500355D01*
X125635879Y-68384032D01*
X125819908Y-68291757D01*
X126011696Y-68223614D01*
X126116067Y-68197391D01*
X126307215Y-68166069D01*
X126502859Y-68153046D01*
X126698737Y-68157883D01*
X126890588Y-68180140D01*
X127074150Y-68219377D01*
X127245162Y-68275154D01*
X127358907Y-68325700D01*
X127532536Y-68426260D01*
X127699301Y-68548713D01*
X127855984Y-68689814D01*
X127999368Y-68846318D01*
X128126236Y-69014982D01*
X128233370Y-69192561D01*
X128249692Y-69224000D01*
X128316603Y-69379603D01*
X128368834Y-69550899D01*
X128405350Y-69732159D01*
X128425115Y-69917654D01*
X128427093Y-70101651D01*
X128831089Y-70101651D01*
X128834564Y-69960968D01*
X128815992Y-69722603D01*
X128773352Y-69490446D01*
X128707161Y-69265657D01*
X128617936Y-69049396D01*
X128506192Y-68842824D01*
X128372446Y-68647101D01*
X128217216Y-68463386D01*
X128041017Y-68292840D01*
X127940085Y-68208802D01*
X127812660Y-68117353D01*
X127668350Y-68029683D01*
X127515657Y-67950375D01*
X127363083Y-67884015D01*
X127285150Y-67855654D01*
X127102866Y-67805019D01*
X126905783Y-67769721D01*
X126699574Y-67750060D01*
X126489912Y-67746335D01*
X126282470Y-67758846D01*
G36*
X131581304Y-67751869D02*
G01*
X131362599Y-67776878D01*
X131158449Y-67818586D01*
X130963080Y-67878467D01*
X130770717Y-67957993D01*
X130768277Y-67959131D01*
X130580633Y-68060013D01*
X130399781Y-68183032D01*
X130228588Y-68325232D01*
X130069918Y-68483654D01*
X129926636Y-68655341D01*
X129801607Y-68837337D01*
X129697698Y-69026684D01*
X129665430Y-69097428D01*
X129586560Y-69311621D01*
X129529424Y-69535965D01*
X129494144Y-69767267D01*
X129480842Y-70002335D01*
X129489639Y-70237973D01*
X129520659Y-70470990D01*
X129574022Y-70698193D01*
X129601013Y-70784826D01*
X129684980Y-70996852D01*
X129791229Y-71197127D01*
X129919905Y-71385849D01*
X130071155Y-71563213D01*
X130245128Y-71729418D01*
X130400969Y-71854631D01*
X130597151Y-71986427D01*
X130802289Y-72096307D01*
X131014218Y-72183350D01*
X131230768Y-72246636D01*
X131399950Y-72278693D01*
X131517429Y-72292165D01*
X131646233Y-72300934D01*
X131776565Y-72304656D01*
X131898624Y-72302991D01*
X131971450Y-72298645D01*
X132199313Y-72266893D01*
X132422255Y-72210872D01*
X132638640Y-72131499D01*
X132846832Y-72029689D01*
X133045196Y-71906360D01*
X133232096Y-71762429D01*
X133405895Y-71598813D01*
X133564957Y-71416429D01*
X133580140Y-71397000D01*
X133715513Y-71201723D01*
X133827877Y-70996040D01*
X133916966Y-70780852D01*
X133982518Y-70557060D01*
X134024266Y-70325563D01*
X134041947Y-70087262D01*
X134039408Y-69991635D01*
X133635919Y-69991635D01*
X133628381Y-70195423D01*
X133599391Y-70396266D01*
X133549343Y-70591534D01*
X133478628Y-70778599D01*
X133387639Y-70954829D01*
X133276769Y-71117596D01*
X133265697Y-71131661D01*
X133110394Y-71309791D01*
X132947377Y-71463836D01*
X132776186Y-71594049D01*
X132596366Y-71700685D01*
X132407459Y-71783998D01*
X132209007Y-71844244D01*
X132000553Y-71881677D01*
X131901600Y-71891275D01*
X131840759Y-71895009D01*
X131784692Y-71897265D01*
X131741207Y-71897788D01*
X131723800Y-71897114D01*
X131690018Y-71894438D01*
X131640369Y-71890764D01*
X131584329Y-71886790D01*
X131571400Y-71885898D01*
X131386609Y-71861282D01*
X131199990Y-71813496D01*
X131015642Y-71744070D01*
X130837662Y-71654533D01*
X130678881Y-71552720D01*
X130629619Y-71515000D01*
X130569781Y-71465571D01*
X130506740Y-71410699D01*
X130447866Y-71356650D01*
X130444921Y-71353849D01*
X130298421Y-71199943D01*
X130175722Y-71039356D01*
X130075937Y-70870217D01*
X129998179Y-70690653D01*
X129941564Y-70498795D01*
X129905203Y-70292770D01*
X129895014Y-70192454D01*
X129888596Y-69967469D01*
X129905726Y-69750061D01*
X129946197Y-69541085D01*
X130009801Y-69341397D01*
X130096331Y-69151855D01*
X130181063Y-69009400D01*
X130312043Y-68832464D01*
X130458464Y-68673544D01*
X130618710Y-68533786D01*
X130791164Y-68414337D01*
X130974212Y-68316345D01*
X131166237Y-68240958D01*
X131323750Y-68198022D01*
X131522800Y-68165008D01*
X131725875Y-68152231D01*
X131928956Y-68159259D01*
X132128026Y-68185660D01*
X132319066Y-68231001D01*
X132498057Y-68294851D01*
X132581050Y-68333216D01*
X132754039Y-68433306D01*
X132918695Y-68554678D01*
X133072237Y-68694220D01*
X133211880Y-68848822D01*
X133334840Y-69015373D01*
X133438334Y-69190764D01*
X133519577Y-69371884D01*
X133525898Y-69388897D01*
X133585071Y-69585742D01*
X133621613Y-69787532D01*
X133635919Y-69991635D01*
X134039408Y-69991635D01*
X134035552Y-69846419D01*
X134005188Y-69607433D01*
X133950836Y-69376531D01*
X133872797Y-69154360D01*
X133771370Y-68941571D01*
X133646855Y-68738811D01*
X133499553Y-68546730D01*
X133368930Y-68404636D01*
X133191485Y-68243170D01*
X133001685Y-68103698D01*
X132800445Y-67986552D01*
X132588677Y-67892067D01*
X132367294Y-67820574D01*
X132137212Y-67772409D01*
X131899341Y-67747905D01*
X131654597Y-67747395D01*
X131581304Y-67751869D01*
G37*
X131581304Y-67751869D02*
X131362599Y-67776878D01*
X131158449Y-67818586D01*
X130963080Y-67878467D01*
X130770717Y-67957993D01*
X130768277Y-67959131D01*
X130580633Y-68060013D01*
X130399781Y-68183032D01*
X130228588Y-68325232D01*
X130069918Y-68483654D01*
X129926636Y-68655341D01*
X129801607Y-68837337D01*
X129697698Y-69026684D01*
X129665430Y-69097428D01*
X129586560Y-69311621D01*
X129529424Y-69535965D01*
X129494144Y-69767267D01*
X129480842Y-70002335D01*
X129489639Y-70237973D01*
X129520659Y-70470990D01*
X129574022Y-70698193D01*
X129601013Y-70784826D01*
X129684980Y-70996852D01*
X129791229Y-71197127D01*
X129919905Y-71385849D01*
X130071155Y-71563213D01*
X130245128Y-71729418D01*
X130400969Y-71854631D01*
X130597151Y-71986427D01*
X130802289Y-72096307D01*
X131014218Y-72183350D01*
X131230768Y-72246636D01*
X131399950Y-72278693D01*
X131517429Y-72292165D01*
X131646233Y-72300934D01*
X131776565Y-72304656D01*
X131898624Y-72302991D01*
X131971450Y-72298645D01*
X132199313Y-72266893D01*
X132422255Y-72210872D01*
X132638640Y-72131499D01*
X132846832Y-72029689D01*
X133045196Y-71906360D01*
X133232096Y-71762429D01*
X133405895Y-71598813D01*
X133564957Y-71416429D01*
X133580140Y-71397000D01*
X133715513Y-71201723D01*
X133827877Y-70996040D01*
X133916966Y-70780852D01*
X133982518Y-70557060D01*
X134024266Y-70325563D01*
X134041947Y-70087262D01*
X134039408Y-69991635D01*
X133635919Y-69991635D01*
X133628381Y-70195423D01*
X133599391Y-70396266D01*
X133549343Y-70591534D01*
X133478628Y-70778599D01*
X133387639Y-70954829D01*
X133276769Y-71117596D01*
X133265697Y-71131661D01*
X133110394Y-71309791D01*
X132947377Y-71463836D01*
X132776186Y-71594049D01*
X132596366Y-71700685D01*
X132407459Y-71783998D01*
X132209007Y-71844244D01*
X132000553Y-71881677D01*
X131901600Y-71891275D01*
X131840759Y-71895009D01*
X131784692Y-71897265D01*
X131741207Y-71897788D01*
X131723800Y-71897114D01*
X131690018Y-71894438D01*
X131640369Y-71890764D01*
X131584329Y-71886790D01*
X131571400Y-71885898D01*
X131386609Y-71861282D01*
X131199990Y-71813496D01*
X131015642Y-71744070D01*
X130837662Y-71654533D01*
X130678881Y-71552720D01*
X130629619Y-71515000D01*
X130569781Y-71465571D01*
X130506740Y-71410699D01*
X130447866Y-71356650D01*
X130444921Y-71353849D01*
X130298421Y-71199943D01*
X130175722Y-71039356D01*
X130075937Y-70870217D01*
X129998179Y-70690653D01*
X129941564Y-70498795D01*
X129905203Y-70292770D01*
X129895014Y-70192454D01*
X129888596Y-69967469D01*
X129905726Y-69750061D01*
X129946197Y-69541085D01*
X130009801Y-69341397D01*
X130096331Y-69151855D01*
X130181063Y-69009400D01*
X130312043Y-68832464D01*
X130458464Y-68673544D01*
X130618710Y-68533786D01*
X130791164Y-68414337D01*
X130974212Y-68316345D01*
X131166237Y-68240958D01*
X131323750Y-68198022D01*
X131522800Y-68165008D01*
X131725875Y-68152231D01*
X131928956Y-68159259D01*
X132128026Y-68185660D01*
X132319066Y-68231001D01*
X132498057Y-68294851D01*
X132581050Y-68333216D01*
X132754039Y-68433306D01*
X132918695Y-68554678D01*
X133072237Y-68694220D01*
X133211880Y-68848822D01*
X133334840Y-69015373D01*
X133438334Y-69190764D01*
X133519577Y-69371884D01*
X133525898Y-69388897D01*
X133585071Y-69585742D01*
X133621613Y-69787532D01*
X133635919Y-69991635D01*
X134039408Y-69991635D01*
X134035552Y-69846419D01*
X134005188Y-69607433D01*
X133950836Y-69376531D01*
X133872797Y-69154360D01*
X133771370Y-68941571D01*
X133646855Y-68738811D01*
X133499553Y-68546730D01*
X133368930Y-68404636D01*
X133191485Y-68243170D01*
X133001685Y-68103698D01*
X132800445Y-67986552D01*
X132588677Y-67892067D01*
X132367294Y-67820574D01*
X132137212Y-67772409D01*
X131899341Y-67747905D01*
X131654597Y-67747395D01*
X131581304Y-67751869D01*
G36*
X136657931Y-67763256D02*
G01*
X136423786Y-67805735D01*
X136197134Y-67872464D01*
X135978079Y-67963414D01*
X135766724Y-68078561D01*
X135684808Y-68131089D01*
X135495640Y-68272688D01*
X135324474Y-68431382D01*
X135172041Y-68605644D01*
X135039072Y-68793946D01*
X134926295Y-68994760D01*
X134834442Y-69206559D01*
X134764242Y-69427814D01*
X134716426Y-69656999D01*
X134691724Y-69892585D01*
X134690866Y-70133045D01*
X134695063Y-70201907D01*
X134725162Y-70446073D01*
X134777754Y-70678720D01*
X134852673Y-70899521D01*
X134949755Y-71108148D01*
X135068833Y-71304273D01*
X135209742Y-71487568D01*
X135372316Y-71657705D01*
X135476650Y-71750377D01*
X135674635Y-71900170D01*
X135883120Y-72027075D01*
X136101291Y-72130752D01*
X136328332Y-72210866D01*
X136563429Y-72267079D01*
X136799754Y-72298561D01*
X136876230Y-72304518D01*
X136936848Y-72307913D01*
X136990421Y-72308739D01*
X137045763Y-72306993D01*
X137111687Y-72302669D01*
X137165839Y-72298354D01*
X137314111Y-72279922D01*
X137470044Y-72249537D01*
X137620579Y-72209938D01*
X137682183Y-72190148D01*
X137903932Y-72101407D01*
X138113384Y-71991952D01*
X138309227Y-71863238D01*
X138490152Y-71716720D01*
X138654849Y-71553852D01*
X138802007Y-71376089D01*
X138930317Y-71184885D01*
X139038467Y-70981695D01*
X139125148Y-70767974D01*
X139189050Y-70545175D01*
X139197172Y-70508313D01*
X139235266Y-70268351D01*
X139248358Y-70029900D01*
X139247064Y-70003421D01*
X138839124Y-70003421D01*
X138838152Y-70104180D01*
X138834113Y-70198139D01*
X138827001Y-70277370D01*
X138824055Y-70298450D01*
X138778430Y-70508612D01*
X138709080Y-70710759D01*
X138616796Y-70903525D01*
X138502368Y-71085544D01*
X138366585Y-71255451D01*
X138210238Y-71411879D01*
X138150000Y-71463859D01*
X138014023Y-71568030D01*
X137875581Y-71655704D01*
X137730395Y-71728742D01*
X137574182Y-71789005D01*
X137402661Y-71838354D01*
X137211553Y-71878649D01*
X137184800Y-71883362D01*
X137142925Y-71887587D01*
X137082190Y-71889889D01*
X137009054Y-71890392D01*
X136929975Y-71889219D01*
X136851412Y-71886494D01*
X136779823Y-71882340D01*
X136721665Y-71876881D01*
X136702200Y-71874132D01*
X136479990Y-71826498D01*
X136272866Y-71758765D01*
X136079616Y-71670315D01*
X135899028Y-71560529D01*
X135729891Y-71428790D01*
X135613592Y-71319051D01*
X135472765Y-71161182D01*
X135355831Y-70997708D01*
X135261769Y-70826387D01*
X135189562Y-70644977D01*
X135138191Y-70451235D01*
X135106639Y-70242919D01*
X135102058Y-70192454D01*
X135095987Y-69968463D01*
X135113883Y-69750896D01*
X135155351Y-69540870D01*
X135219995Y-69339503D01*
X135307418Y-69147911D01*
X135417227Y-68967211D01*
X135549023Y-68798520D01*
X135624970Y-68717075D01*
X135727041Y-68618064D01*
X135821918Y-68535927D01*
X135915883Y-68466010D01*
X136015219Y-68403658D01*
X136126208Y-68344215D01*
X136132234Y-68341207D01*
X136258959Y-68282803D01*
X136380344Y-68237494D01*
X136503754Y-68203277D01*
X136636554Y-68178146D01*
X136786112Y-68160098D01*
X136803870Y-68158462D01*
X136968664Y-68151752D01*
X137140335Y-68159495D01*
X137311203Y-68180771D01*
X137473587Y-68214660D01*
X137603900Y-68254375D01*
X137786559Y-68333333D01*
X137962625Y-68435380D01*
X138129748Y-68558562D01*
X138285578Y-68700925D01*
X138427764Y-68860514D01*
X138553955Y-69035376D01*
X138565938Y-69054157D01*
X138636201Y-69179464D01*
X138700584Y-69320851D01*
X138755840Y-69469687D01*
X138798723Y-69617338D01*
X138823683Y-69739650D01*
X138831884Y-69813227D01*
X138837032Y-69903794D01*
X138839124Y-70003421D01*
X139247064Y-70003421D01*
X139236843Y-69794328D01*
X139201117Y-69562999D01*
X139141577Y-69337279D01*
X139058619Y-69118535D01*
X138952640Y-68908131D01*
X138824036Y-68707434D01*
X138673202Y-68517809D01*
X138594927Y-68433087D01*
X138500176Y-68338435D01*
X138413065Y-68258968D01*
X138326783Y-68188980D01*
X138234520Y-68122766D01*
X138186679Y-68091018D01*
X137993278Y-67978758D01*
X137792987Y-67889255D01*
X137583504Y-67821753D01*
X137362527Y-67775501D01*
X137148289Y-67751154D01*
X136899467Y-67745054D01*
X136657931Y-67763256D01*
G37*
X136657931Y-67763256D02*
X136423786Y-67805735D01*
X136197134Y-67872464D01*
X135978079Y-67963414D01*
X135766724Y-68078561D01*
X135684808Y-68131089D01*
X135495640Y-68272688D01*
X135324474Y-68431382D01*
X135172041Y-68605644D01*
X135039072Y-68793946D01*
X134926295Y-68994760D01*
X134834442Y-69206559D01*
X134764242Y-69427814D01*
X134716426Y-69656999D01*
X134691724Y-69892585D01*
X134690866Y-70133045D01*
X134695063Y-70201907D01*
X134725162Y-70446073D01*
X134777754Y-70678720D01*
X134852673Y-70899521D01*
X134949755Y-71108148D01*
X135068833Y-71304273D01*
X135209742Y-71487568D01*
X135372316Y-71657705D01*
X135476650Y-71750377D01*
X135674635Y-71900170D01*
X135883120Y-72027075D01*
X136101291Y-72130752D01*
X136328332Y-72210866D01*
X136563429Y-72267079D01*
X136799754Y-72298561D01*
X136876230Y-72304518D01*
X136936848Y-72307913D01*
X136990421Y-72308739D01*
X137045763Y-72306993D01*
X137111687Y-72302669D01*
X137165839Y-72298354D01*
X137314111Y-72279922D01*
X137470044Y-72249537D01*
X137620579Y-72209938D01*
X137682183Y-72190148D01*
X137903932Y-72101407D01*
X138113384Y-71991952D01*
X138309227Y-71863238D01*
X138490152Y-71716720D01*
X138654849Y-71553852D01*
X138802007Y-71376089D01*
X138930317Y-71184885D01*
X139038467Y-70981695D01*
X139125148Y-70767974D01*
X139189050Y-70545175D01*
X139197172Y-70508313D01*
X139235266Y-70268351D01*
X139248358Y-70029900D01*
X139247064Y-70003421D01*
X138839124Y-70003421D01*
X138838152Y-70104180D01*
X138834113Y-70198139D01*
X138827001Y-70277370D01*
X138824055Y-70298450D01*
X138778430Y-70508612D01*
X138709080Y-70710759D01*
X138616796Y-70903525D01*
X138502368Y-71085544D01*
X138366585Y-71255451D01*
X138210238Y-71411879D01*
X138150000Y-71463859D01*
X138014023Y-71568030D01*
X137875581Y-71655704D01*
X137730395Y-71728742D01*
X137574182Y-71789005D01*
X137402661Y-71838354D01*
X137211553Y-71878649D01*
X137184800Y-71883362D01*
X137142925Y-71887587D01*
X137082190Y-71889889D01*
X137009054Y-71890392D01*
X136929975Y-71889219D01*
X136851412Y-71886494D01*
X136779823Y-71882340D01*
X136721665Y-71876881D01*
X136702200Y-71874132D01*
X136479990Y-71826498D01*
X136272866Y-71758765D01*
X136079616Y-71670315D01*
X135899028Y-71560529D01*
X135729891Y-71428790D01*
X135613592Y-71319051D01*
X135472765Y-71161182D01*
X135355831Y-70997708D01*
X135261769Y-70826387D01*
X135189562Y-70644977D01*
X135138191Y-70451235D01*
X135106639Y-70242919D01*
X135102058Y-70192454D01*
X135095987Y-69968463D01*
X135113883Y-69750896D01*
X135155351Y-69540870D01*
X135219995Y-69339503D01*
X135307418Y-69147911D01*
X135417227Y-68967211D01*
X135549023Y-68798520D01*
X135624970Y-68717075D01*
X135727041Y-68618064D01*
X135821918Y-68535927D01*
X135915883Y-68466010D01*
X136015219Y-68403658D01*
X136126208Y-68344215D01*
X136132234Y-68341207D01*
X136258959Y-68282803D01*
X136380344Y-68237494D01*
X136503754Y-68203277D01*
X136636554Y-68178146D01*
X136786112Y-68160098D01*
X136803870Y-68158462D01*
X136968664Y-68151752D01*
X137140335Y-68159495D01*
X137311203Y-68180771D01*
X137473587Y-68214660D01*
X137603900Y-68254375D01*
X137786559Y-68333333D01*
X137962625Y-68435380D01*
X138129748Y-68558562D01*
X138285578Y-68700925D01*
X138427764Y-68860514D01*
X138553955Y-69035376D01*
X138565938Y-69054157D01*
X138636201Y-69179464D01*
X138700584Y-69320851D01*
X138755840Y-69469687D01*
X138798723Y-69617338D01*
X138823683Y-69739650D01*
X138831884Y-69813227D01*
X138837032Y-69903794D01*
X138839124Y-70003421D01*
X139247064Y-70003421D01*
X139236843Y-69794328D01*
X139201117Y-69562999D01*
X139141577Y-69337279D01*
X139058619Y-69118535D01*
X138952640Y-68908131D01*
X138824036Y-68707434D01*
X138673202Y-68517809D01*
X138594927Y-68433087D01*
X138500176Y-68338435D01*
X138413065Y-68258968D01*
X138326783Y-68188980D01*
X138234520Y-68122766D01*
X138186679Y-68091018D01*
X137993278Y-67978758D01*
X137792987Y-67889255D01*
X137583504Y-67821753D01*
X137362527Y-67775501D01*
X137148289Y-67751154D01*
X136899467Y-67745054D01*
X136657931Y-67763256D01*
%TD*%
M02*
