%TF.GenerationSoftware,KiCad,Pcbnew,(5.1.8-0-10_14)*%
%TF.CreationDate,2020-11-30T14:10:51+01:00*%
%TF.ProjectId,FET_Multi,4645545f-4d75-46c7-9469-2e6b69636164,0.2.0*%
%TF.SameCoordinates,Original*%
%TF.FileFunction,Copper,L1,Top*%
%TF.FilePolarity,Positive*%
%FSLAX46Y46*%
G04 Gerber Fmt 4.6, Leading zero omitted, Abs format (unit mm)*
G04 Created by KiCad (PCBNEW (5.1.8-0-10_14)) date 2020-11-30 14:10:51*
%MOMM*%
%LPD*%
G01*
G04 APERTURE LIST*
%TA.AperFunction,Profile*%
%ADD10C,0.050000*%
%TD*%
%TA.AperFunction,ComponentPad*%
%ADD11O,4.000000X6.000000*%
%TD*%
%TA.AperFunction,SMDPad,CuDef*%
%ADD12R,0.625000X0.250000*%
%TD*%
%TA.AperFunction,SMDPad,CuDef*%
%ADD13R,0.700000X0.450000*%
%TD*%
%TA.AperFunction,SMDPad,CuDef*%
%ADD14R,0.575000X0.450000*%
%TD*%
%TA.AperFunction,SMDPad,CuDef*%
%ADD15C,0.100000*%
%TD*%
%TA.AperFunction,ComponentPad*%
%ADD16O,1.800000X3.600000*%
%TD*%
%TA.AperFunction,SMDPad,CuDef*%
%ADD17R,1.100000X1.100000*%
%TD*%
%TA.AperFunction,ComponentPad*%
%ADD18O,1.700000X1.700000*%
%TD*%
%TA.AperFunction,ComponentPad*%
%ADD19R,1.700000X1.700000*%
%TD*%
%TA.AperFunction,SMDPad,CuDef*%
%ADD20R,10.800000X9.400000*%
%TD*%
%TA.AperFunction,SMDPad,CuDef*%
%ADD21R,1.100000X4.600000*%
%TD*%
%TA.AperFunction,ViaPad*%
%ADD22C,0.800000*%
%TD*%
%TA.AperFunction,ViaPad*%
%ADD23C,0.600000*%
%TD*%
%TA.AperFunction,ViaPad*%
%ADD24C,1.000000*%
%TD*%
%TA.AperFunction,Conductor*%
%ADD25C,0.600000*%
%TD*%
%TA.AperFunction,Conductor*%
%ADD26C,0.400000*%
%TD*%
%TA.AperFunction,Conductor*%
%ADD27C,0.250000*%
%TD*%
%TA.AperFunction,Conductor*%
%ADD28C,1.000000*%
%TD*%
%TA.AperFunction,Conductor*%
%ADD29C,0.254000*%
%TD*%
%TA.AperFunction,Conductor*%
%ADD30C,0.100000*%
%TD*%
G04 APERTURE END LIST*
D10*
X89000000Y-65500000D02*
X89000000Y-106500000D01*
X170500000Y-115000000D02*
G75*
G02*
X179000000Y-106500000I8500000J0D01*
G01*
X89000000Y-106500000D02*
G75*
G02*
X97500000Y-115000000I0J-8500000D01*
G01*
X179000000Y-65500000D02*
G75*
G02*
X170500000Y-57000000I0J8500000D01*
G01*
X97500000Y-57000000D02*
G75*
G02*
X89000000Y-65500000I-8500000J0D01*
G01*
X179000000Y-106500000D02*
X179000000Y-65500000D01*
X170500000Y-115000000D02*
X97500000Y-115000000D01*
X170500000Y-57000000D02*
X97500000Y-57000000D01*
D11*
%TO.P,J103,4*%
%TO.N,/VOUT4*%
X168000000Y-71700000D03*
%TO.P,J103,3*%
%TO.N,/VIN4*%
X168000000Y-81200000D03*
%TO.P,J103,2*%
%TO.N,/VOUT3*%
X168000000Y-90700000D03*
%TO.P,J103,1*%
%TO.N,/VIN3*%
X168000000Y-100200000D03*
%TO.P,J103,4*%
%TO.N,/VOUT4*%
X173800000Y-71700000D03*
%TO.P,J103,3*%
%TO.N,/VIN4*%
X173800000Y-81200000D03*
%TO.P,J103,2*%
%TO.N,/VOUT3*%
X173800000Y-90700000D03*
%TO.P,J103,1*%
%TO.N,/VIN3*%
X173800000Y-100200000D03*
%TD*%
%TO.P,J102,4*%
%TO.N,/VOUT2*%
X99900000Y-100200000D03*
%TO.P,J102,3*%
%TO.N,/VIN2*%
X99900000Y-90700000D03*
%TO.P,J102,2*%
%TO.N,/VOUT1*%
X99900000Y-81200000D03*
%TO.P,J102,1*%
%TO.N,/VIN1*%
X99900000Y-71700000D03*
%TO.P,J102,4*%
%TO.N,/VOUT2*%
X94100000Y-100200000D03*
%TO.P,J102,3*%
%TO.N,/VIN2*%
X94100000Y-90700000D03*
%TO.P,J102,2*%
%TO.N,/VOUT1*%
X94100000Y-81200000D03*
%TO.P,J102,1*%
%TO.N,/VIN1*%
X94100000Y-71700000D03*
%TD*%
D12*
%TO.P,U106,2*%
%TO.N,/SCL*%
X130100000Y-63800000D03*
D13*
%TO.P,U106,3*%
%TO.N,GND*%
X130137500Y-64300000D03*
D12*
%TO.P,U106,1*%
%TO.N,/SDA*%
X130100000Y-63300000D03*
%TO.P,U106,4*%
%TO.N,N/C*%
X130100000Y-64800000D03*
%TO.P,U106,10*%
%TO.N,/SDA*%
X130875000Y-63300000D03*
%TO.P,U106,9*%
%TO.N,/SCL*%
X130875000Y-63800000D03*
%TO.P,U106,5*%
%TO.N,N/C*%
X130100000Y-65300000D03*
D14*
%TO.P,U106,8*%
%TO.N,GND*%
X130900000Y-64300000D03*
D12*
%TO.P,U106,6*%
%TO.N,N/C*%
X130875000Y-65300000D03*
%TO.P,U106,7*%
X130875000Y-64800000D03*
%TD*%
%TO.P,J104,MP*%
%TO.N,N/C*%
%TA.AperFunction,SMDPad,CuDef*%
G36*
G01*
X135700000Y-59550001D02*
X135700000Y-58249999D01*
G75*
G02*
X135949999Y-58000000I249999J0D01*
G01*
X136650001Y-58000000D01*
G75*
G02*
X136900000Y-58249999I0J-249999D01*
G01*
X136900000Y-59550001D01*
G75*
G02*
X136650001Y-59800000I-249999J0D01*
G01*
X135949999Y-59800000D01*
G75*
G02*
X135700000Y-59550001I0J249999D01*
G01*
G37*
%TD.AperFunction*%
%TA.AperFunction,SMDPad,CuDef*%
G36*
G01*
X130100000Y-59550001D02*
X130100000Y-58249999D01*
G75*
G02*
X130349999Y-58000000I249999J0D01*
G01*
X131050001Y-58000000D01*
G75*
G02*
X131300000Y-58249999I0J-249999D01*
G01*
X131300000Y-59550001D01*
G75*
G02*
X131050001Y-59800000I-249999J0D01*
G01*
X130349999Y-59800000D01*
G75*
G02*
X130100000Y-59550001I0J249999D01*
G01*
G37*
%TD.AperFunction*%
%TO.P,J104,4*%
%TO.N,/SCL*%
%TA.AperFunction,SMDPad,CuDef*%
G36*
G01*
X134700000Y-62050000D02*
X134700000Y-60800000D01*
G75*
G02*
X134850000Y-60650000I150000J0D01*
G01*
X135150000Y-60650000D01*
G75*
G02*
X135300000Y-60800000I0J-150000D01*
G01*
X135300000Y-62050000D01*
G75*
G02*
X135150000Y-62200000I-150000J0D01*
G01*
X134850000Y-62200000D01*
G75*
G02*
X134700000Y-62050000I0J150000D01*
G01*
G37*
%TD.AperFunction*%
%TO.P,J104,3*%
%TO.N,/SDA*%
%TA.AperFunction,SMDPad,CuDef*%
G36*
G01*
X133700000Y-62050000D02*
X133700000Y-60800000D01*
G75*
G02*
X133850000Y-60650000I150000J0D01*
G01*
X134150000Y-60650000D01*
G75*
G02*
X134300000Y-60800000I0J-150000D01*
G01*
X134300000Y-62050000D01*
G75*
G02*
X134150000Y-62200000I-150000J0D01*
G01*
X133850000Y-62200000D01*
G75*
G02*
X133700000Y-62050000I0J150000D01*
G01*
G37*
%TD.AperFunction*%
%TO.P,J104,2*%
%TO.N,+3V3*%
%TA.AperFunction,SMDPad,CuDef*%
G36*
G01*
X132700000Y-62050000D02*
X132700000Y-60800000D01*
G75*
G02*
X132850000Y-60650000I150000J0D01*
G01*
X133150000Y-60650000D01*
G75*
G02*
X133300000Y-60800000I0J-150000D01*
G01*
X133300000Y-62050000D01*
G75*
G02*
X133150000Y-62200000I-150000J0D01*
G01*
X132850000Y-62200000D01*
G75*
G02*
X132700000Y-62050000I0J150000D01*
G01*
G37*
%TD.AperFunction*%
%TO.P,J104,1*%
%TO.N,GND*%
%TA.AperFunction,SMDPad,CuDef*%
G36*
G01*
X131700000Y-62050000D02*
X131700000Y-60800000D01*
G75*
G02*
X131850000Y-60650000I150000J0D01*
G01*
X132150000Y-60650000D01*
G75*
G02*
X132300000Y-60800000I0J-150000D01*
G01*
X132300000Y-62050000D01*
G75*
G02*
X132150000Y-62200000I-150000J0D01*
G01*
X131850000Y-62200000D01*
G75*
G02*
X131700000Y-62050000I0J150000D01*
G01*
G37*
%TD.AperFunction*%
%TD*%
%TO.P,U304,4*%
%TO.N,+3V3*%
%TA.AperFunction,SMDPad,CuDef*%
G36*
G01*
X140325000Y-64985000D02*
X140325000Y-65285000D01*
G75*
G02*
X140175000Y-65435000I-150000J0D01*
G01*
X138850000Y-65435000D01*
G75*
G02*
X138700000Y-65285000I0J150000D01*
G01*
X138700000Y-64985000D01*
G75*
G02*
X138850000Y-64835000I150000J0D01*
G01*
X140175000Y-64835000D01*
G75*
G02*
X140325000Y-64985000I0J-150000D01*
G01*
G37*
%TD.AperFunction*%
%TO.P,U304,3*%
%TO.N,GPIO7*%
%TA.AperFunction,SMDPad,CuDef*%
G36*
G01*
X140325000Y-63715000D02*
X140325000Y-64015000D01*
G75*
G02*
X140175000Y-64165000I-150000J0D01*
G01*
X138850000Y-64165000D01*
G75*
G02*
X138700000Y-64015000I0J150000D01*
G01*
X138700000Y-63715000D01*
G75*
G02*
X138850000Y-63565000I150000J0D01*
G01*
X140175000Y-63565000D01*
G75*
G02*
X140325000Y-63715000I0J-150000D01*
G01*
G37*
%TD.AperFunction*%
%TO.P,U304,2*%
%TO.N,GND2*%
%TA.AperFunction,SMDPad,CuDef*%
G36*
G01*
X146700000Y-63715000D02*
X146700000Y-64015000D01*
G75*
G02*
X146550000Y-64165000I-150000J0D01*
G01*
X145225000Y-64165000D01*
G75*
G02*
X145075000Y-64015000I0J150000D01*
G01*
X145075000Y-63715000D01*
G75*
G02*
X145225000Y-63565000I150000J0D01*
G01*
X146550000Y-63565000D01*
G75*
G02*
X146700000Y-63715000I0J-150000D01*
G01*
G37*
%TD.AperFunction*%
%TO.P,U304,1*%
%TO.N,Net-(R306-Pad2)*%
%TA.AperFunction,SMDPad,CuDef*%
G36*
G01*
X146700000Y-64985000D02*
X146700000Y-65285000D01*
G75*
G02*
X146550000Y-65435000I-150000J0D01*
G01*
X145225000Y-65435000D01*
G75*
G02*
X145075000Y-65285000I0J150000D01*
G01*
X145075000Y-64985000D01*
G75*
G02*
X145225000Y-64835000I150000J0D01*
G01*
X146550000Y-64835000D01*
G75*
G02*
X146700000Y-64985000I0J-150000D01*
G01*
G37*
%TD.AperFunction*%
%TD*%
%TO.P,U303,4*%
%TO.N,+3V3*%
%TA.AperFunction,SMDPad,CuDef*%
G36*
G01*
X140225000Y-72485000D02*
X140225000Y-72785000D01*
G75*
G02*
X140075000Y-72935000I-150000J0D01*
G01*
X138750000Y-72935000D01*
G75*
G02*
X138600000Y-72785000I0J150000D01*
G01*
X138600000Y-72485000D01*
G75*
G02*
X138750000Y-72335000I150000J0D01*
G01*
X140075000Y-72335000D01*
G75*
G02*
X140225000Y-72485000I0J-150000D01*
G01*
G37*
%TD.AperFunction*%
%TO.P,U303,3*%
%TO.N,GPIO6*%
%TA.AperFunction,SMDPad,CuDef*%
G36*
G01*
X140225000Y-71215000D02*
X140225000Y-71515000D01*
G75*
G02*
X140075000Y-71665000I-150000J0D01*
G01*
X138750000Y-71665000D01*
G75*
G02*
X138600000Y-71515000I0J150000D01*
G01*
X138600000Y-71215000D01*
G75*
G02*
X138750000Y-71065000I150000J0D01*
G01*
X140075000Y-71065000D01*
G75*
G02*
X140225000Y-71215000I0J-150000D01*
G01*
G37*
%TD.AperFunction*%
%TO.P,U303,2*%
%TO.N,GND2*%
%TA.AperFunction,SMDPad,CuDef*%
G36*
G01*
X146600000Y-71215000D02*
X146600000Y-71515000D01*
G75*
G02*
X146450000Y-71665000I-150000J0D01*
G01*
X145125000Y-71665000D01*
G75*
G02*
X144975000Y-71515000I0J150000D01*
G01*
X144975000Y-71215000D01*
G75*
G02*
X145125000Y-71065000I150000J0D01*
G01*
X146450000Y-71065000D01*
G75*
G02*
X146600000Y-71215000I0J-150000D01*
G01*
G37*
%TD.AperFunction*%
%TO.P,U303,1*%
%TO.N,Net-(R308-Pad2)*%
%TA.AperFunction,SMDPad,CuDef*%
G36*
G01*
X146600000Y-72485000D02*
X146600000Y-72785000D01*
G75*
G02*
X146450000Y-72935000I-150000J0D01*
G01*
X145125000Y-72935000D01*
G75*
G02*
X144975000Y-72785000I0J150000D01*
G01*
X144975000Y-72485000D01*
G75*
G02*
X145125000Y-72335000I150000J0D01*
G01*
X146450000Y-72335000D01*
G75*
G02*
X146600000Y-72485000I0J-150000D01*
G01*
G37*
%TD.AperFunction*%
%TD*%
%TO.P,U302,4*%
%TO.N,+3V3*%
%TA.AperFunction,SMDPad,CuDef*%
G36*
G01*
X127975000Y-109115000D02*
X127975000Y-108815000D01*
G75*
G02*
X128125000Y-108665000I150000J0D01*
G01*
X129450000Y-108665000D01*
G75*
G02*
X129600000Y-108815000I0J-150000D01*
G01*
X129600000Y-109115000D01*
G75*
G02*
X129450000Y-109265000I-150000J0D01*
G01*
X128125000Y-109265000D01*
G75*
G02*
X127975000Y-109115000I0J150000D01*
G01*
G37*
%TD.AperFunction*%
%TO.P,U302,3*%
%TO.N,GPIO3*%
%TA.AperFunction,SMDPad,CuDef*%
G36*
G01*
X127975000Y-110385000D02*
X127975000Y-110085000D01*
G75*
G02*
X128125000Y-109935000I150000J0D01*
G01*
X129450000Y-109935000D01*
G75*
G02*
X129600000Y-110085000I0J-150000D01*
G01*
X129600000Y-110385000D01*
G75*
G02*
X129450000Y-110535000I-150000J0D01*
G01*
X128125000Y-110535000D01*
G75*
G02*
X127975000Y-110385000I0J150000D01*
G01*
G37*
%TD.AperFunction*%
%TO.P,U302,2*%
%TO.N,GND1*%
%TA.AperFunction,SMDPad,CuDef*%
G36*
G01*
X121600000Y-110385000D02*
X121600000Y-110085000D01*
G75*
G02*
X121750000Y-109935000I150000J0D01*
G01*
X123075000Y-109935000D01*
G75*
G02*
X123225000Y-110085000I0J-150000D01*
G01*
X123225000Y-110385000D01*
G75*
G02*
X123075000Y-110535000I-150000J0D01*
G01*
X121750000Y-110535000D01*
G75*
G02*
X121600000Y-110385000I0J150000D01*
G01*
G37*
%TD.AperFunction*%
%TO.P,U302,1*%
%TO.N,Net-(R304-Pad2)*%
%TA.AperFunction,SMDPad,CuDef*%
G36*
G01*
X121600000Y-109115000D02*
X121600000Y-108815000D01*
G75*
G02*
X121750000Y-108665000I150000J0D01*
G01*
X123075000Y-108665000D01*
G75*
G02*
X123225000Y-108815000I0J-150000D01*
G01*
X123225000Y-109115000D01*
G75*
G02*
X123075000Y-109265000I-150000J0D01*
G01*
X121750000Y-109265000D01*
G75*
G02*
X121600000Y-109115000I0J150000D01*
G01*
G37*
%TD.AperFunction*%
%TD*%
%TO.P,U301,4*%
%TO.N,+3V3*%
%TA.AperFunction,SMDPad,CuDef*%
G36*
G01*
X127975000Y-99825000D02*
X127975000Y-99525000D01*
G75*
G02*
X128125000Y-99375000I150000J0D01*
G01*
X129450000Y-99375000D01*
G75*
G02*
X129600000Y-99525000I0J-150000D01*
G01*
X129600000Y-99825000D01*
G75*
G02*
X129450000Y-99975000I-150000J0D01*
G01*
X128125000Y-99975000D01*
G75*
G02*
X127975000Y-99825000I0J150000D01*
G01*
G37*
%TD.AperFunction*%
%TO.P,U301,3*%
%TO.N,GPIO2*%
%TA.AperFunction,SMDPad,CuDef*%
G36*
G01*
X127975000Y-101095000D02*
X127975000Y-100795000D01*
G75*
G02*
X128125000Y-100645000I150000J0D01*
G01*
X129450000Y-100645000D01*
G75*
G02*
X129600000Y-100795000I0J-150000D01*
G01*
X129600000Y-101095000D01*
G75*
G02*
X129450000Y-101245000I-150000J0D01*
G01*
X128125000Y-101245000D01*
G75*
G02*
X127975000Y-101095000I0J150000D01*
G01*
G37*
%TD.AperFunction*%
%TO.P,U301,2*%
%TO.N,GND1*%
%TA.AperFunction,SMDPad,CuDef*%
G36*
G01*
X121600000Y-101095000D02*
X121600000Y-100795000D01*
G75*
G02*
X121750000Y-100645000I150000J0D01*
G01*
X123075000Y-100645000D01*
G75*
G02*
X123225000Y-100795000I0J-150000D01*
G01*
X123225000Y-101095000D01*
G75*
G02*
X123075000Y-101245000I-150000J0D01*
G01*
X121750000Y-101245000D01*
G75*
G02*
X121600000Y-101095000I0J150000D01*
G01*
G37*
%TD.AperFunction*%
%TO.P,U301,1*%
%TO.N,Net-(R302-Pad2)*%
%TA.AperFunction,SMDPad,CuDef*%
G36*
G01*
X121600000Y-99825000D02*
X121600000Y-99525000D01*
G75*
G02*
X121750000Y-99375000I150000J0D01*
G01*
X123075000Y-99375000D01*
G75*
G02*
X123225000Y-99525000I0J-150000D01*
G01*
X123225000Y-99825000D01*
G75*
G02*
X123075000Y-99975000I-150000J0D01*
G01*
X121750000Y-99975000D01*
G75*
G02*
X121600000Y-99825000I0J150000D01*
G01*
G37*
%TD.AperFunction*%
%TD*%
%TO.P,R312,2*%
%TO.N,Net-(D307-Pad2)*%
%TA.AperFunction,SMDPad,CuDef*%
G36*
G01*
X139575000Y-60225000D02*
X139575000Y-60775000D01*
G75*
G02*
X139375000Y-60975000I-200000J0D01*
G01*
X138975000Y-60975000D01*
G75*
G02*
X138775000Y-60775000I0J200000D01*
G01*
X138775000Y-60225000D01*
G75*
G02*
X138975000Y-60025000I200000J0D01*
G01*
X139375000Y-60025000D01*
G75*
G02*
X139575000Y-60225000I0J-200000D01*
G01*
G37*
%TD.AperFunction*%
%TO.P,R312,1*%
%TO.N,GPIO7*%
%TA.AperFunction,SMDPad,CuDef*%
G36*
G01*
X141225000Y-60225000D02*
X141225000Y-60775000D01*
G75*
G02*
X141025000Y-60975000I-200000J0D01*
G01*
X140625000Y-60975000D01*
G75*
G02*
X140425000Y-60775000I0J200000D01*
G01*
X140425000Y-60225000D01*
G75*
G02*
X140625000Y-60025000I200000J0D01*
G01*
X141025000Y-60025000D01*
G75*
G02*
X141225000Y-60225000I0J-200000D01*
G01*
G37*
%TD.AperFunction*%
%TD*%
%TO.P,R311,2*%
%TO.N,Net-(D305-Pad2)*%
%TA.AperFunction,SMDPad,CuDef*%
G36*
G01*
X136375000Y-69325000D02*
X136375000Y-69875000D01*
G75*
G02*
X136175000Y-70075000I-200000J0D01*
G01*
X135775000Y-70075000D01*
G75*
G02*
X135575000Y-69875000I0J200000D01*
G01*
X135575000Y-69325000D01*
G75*
G02*
X135775000Y-69125000I200000J0D01*
G01*
X136175000Y-69125000D01*
G75*
G02*
X136375000Y-69325000I0J-200000D01*
G01*
G37*
%TD.AperFunction*%
%TO.P,R311,1*%
%TO.N,GPIO6*%
%TA.AperFunction,SMDPad,CuDef*%
G36*
G01*
X138025000Y-69325000D02*
X138025000Y-69875000D01*
G75*
G02*
X137825000Y-70075000I-200000J0D01*
G01*
X137425000Y-70075000D01*
G75*
G02*
X137225000Y-69875000I0J200000D01*
G01*
X137225000Y-69325000D01*
G75*
G02*
X137425000Y-69125000I200000J0D01*
G01*
X137825000Y-69125000D01*
G75*
G02*
X138025000Y-69325000I0J-200000D01*
G01*
G37*
%TD.AperFunction*%
%TD*%
%TO.P,R310,2*%
%TO.N,GPIO7*%
%TA.AperFunction,SMDPad,CuDef*%
G36*
G01*
X139575000Y-61825000D02*
X139575000Y-62375000D01*
G75*
G02*
X139375000Y-62575000I-200000J0D01*
G01*
X138975000Y-62575000D01*
G75*
G02*
X138775000Y-62375000I0J200000D01*
G01*
X138775000Y-61825000D01*
G75*
G02*
X138975000Y-61625000I200000J0D01*
G01*
X139375000Y-61625000D01*
G75*
G02*
X139575000Y-61825000I0J-200000D01*
G01*
G37*
%TD.AperFunction*%
%TO.P,R310,1*%
%TO.N,GND*%
%TA.AperFunction,SMDPad,CuDef*%
G36*
G01*
X141225000Y-61825000D02*
X141225000Y-62375000D01*
G75*
G02*
X141025000Y-62575000I-200000J0D01*
G01*
X140625000Y-62575000D01*
G75*
G02*
X140425000Y-62375000I0J200000D01*
G01*
X140425000Y-61825000D01*
G75*
G02*
X140625000Y-61625000I200000J0D01*
G01*
X141025000Y-61625000D01*
G75*
G02*
X141225000Y-61825000I0J-200000D01*
G01*
G37*
%TD.AperFunction*%
%TD*%
%TO.P,R309,2*%
%TO.N,GPIO6*%
%TA.AperFunction,SMDPad,CuDef*%
G36*
G01*
X139475000Y-69325000D02*
X139475000Y-69875000D01*
G75*
G02*
X139275000Y-70075000I-200000J0D01*
G01*
X138875000Y-70075000D01*
G75*
G02*
X138675000Y-69875000I0J200000D01*
G01*
X138675000Y-69325000D01*
G75*
G02*
X138875000Y-69125000I200000J0D01*
G01*
X139275000Y-69125000D01*
G75*
G02*
X139475000Y-69325000I0J-200000D01*
G01*
G37*
%TD.AperFunction*%
%TO.P,R309,1*%
%TO.N,GND*%
%TA.AperFunction,SMDPad,CuDef*%
G36*
G01*
X141125000Y-69325000D02*
X141125000Y-69875000D01*
G75*
G02*
X140925000Y-70075000I-200000J0D01*
G01*
X140525000Y-70075000D01*
G75*
G02*
X140325000Y-69875000I0J200000D01*
G01*
X140325000Y-69325000D01*
G75*
G02*
X140525000Y-69125000I200000J0D01*
G01*
X140925000Y-69125000D01*
G75*
G02*
X141125000Y-69325000I0J-200000D01*
G01*
G37*
%TD.AperFunction*%
%TD*%
%TO.P,R307,2*%
%TO.N,Net-(D303-Pad2)*%
%TA.AperFunction,SMDPad,CuDef*%
G36*
G01*
X131925000Y-112375000D02*
X131925000Y-111825000D01*
G75*
G02*
X132125000Y-111625000I200000J0D01*
G01*
X132525000Y-111625000D01*
G75*
G02*
X132725000Y-111825000I0J-200000D01*
G01*
X132725000Y-112375000D01*
G75*
G02*
X132525000Y-112575000I-200000J0D01*
G01*
X132125000Y-112575000D01*
G75*
G02*
X131925000Y-112375000I0J200000D01*
G01*
G37*
%TD.AperFunction*%
%TO.P,R307,1*%
%TO.N,GPIO3*%
%TA.AperFunction,SMDPad,CuDef*%
G36*
G01*
X130275000Y-112375000D02*
X130275000Y-111825000D01*
G75*
G02*
X130475000Y-111625000I200000J0D01*
G01*
X130875000Y-111625000D01*
G75*
G02*
X131075000Y-111825000I0J-200000D01*
G01*
X131075000Y-112375000D01*
G75*
G02*
X130875000Y-112575000I-200000J0D01*
G01*
X130475000Y-112575000D01*
G75*
G02*
X130275000Y-112375000I0J200000D01*
G01*
G37*
%TD.AperFunction*%
%TD*%
%TO.P,R305,2*%
%TO.N,Net-(D301-Pad2)*%
%TA.AperFunction,SMDPad,CuDef*%
G36*
G01*
X131925000Y-102975000D02*
X131925000Y-102425000D01*
G75*
G02*
X132125000Y-102225000I200000J0D01*
G01*
X132525000Y-102225000D01*
G75*
G02*
X132725000Y-102425000I0J-200000D01*
G01*
X132725000Y-102975000D01*
G75*
G02*
X132525000Y-103175000I-200000J0D01*
G01*
X132125000Y-103175000D01*
G75*
G02*
X131925000Y-102975000I0J200000D01*
G01*
G37*
%TD.AperFunction*%
%TO.P,R305,1*%
%TO.N,GPIO2*%
%TA.AperFunction,SMDPad,CuDef*%
G36*
G01*
X130275000Y-102975000D02*
X130275000Y-102425000D01*
G75*
G02*
X130475000Y-102225000I200000J0D01*
G01*
X130875000Y-102225000D01*
G75*
G02*
X131075000Y-102425000I0J-200000D01*
G01*
X131075000Y-102975000D01*
G75*
G02*
X130875000Y-103175000I-200000J0D01*
G01*
X130475000Y-103175000D01*
G75*
G02*
X130275000Y-102975000I0J200000D01*
G01*
G37*
%TD.AperFunction*%
%TD*%
%TO.P,R303,2*%
%TO.N,GPIO3*%
%TA.AperFunction,SMDPad,CuDef*%
G36*
G01*
X128825000Y-112375000D02*
X128825000Y-111825000D01*
G75*
G02*
X129025000Y-111625000I200000J0D01*
G01*
X129425000Y-111625000D01*
G75*
G02*
X129625000Y-111825000I0J-200000D01*
G01*
X129625000Y-112375000D01*
G75*
G02*
X129425000Y-112575000I-200000J0D01*
G01*
X129025000Y-112575000D01*
G75*
G02*
X128825000Y-112375000I0J200000D01*
G01*
G37*
%TD.AperFunction*%
%TO.P,R303,1*%
%TO.N,GND*%
%TA.AperFunction,SMDPad,CuDef*%
G36*
G01*
X127175000Y-112375000D02*
X127175000Y-111825000D01*
G75*
G02*
X127375000Y-111625000I200000J0D01*
G01*
X127775000Y-111625000D01*
G75*
G02*
X127975000Y-111825000I0J-200000D01*
G01*
X127975000Y-112375000D01*
G75*
G02*
X127775000Y-112575000I-200000J0D01*
G01*
X127375000Y-112575000D01*
G75*
G02*
X127175000Y-112375000I0J200000D01*
G01*
G37*
%TD.AperFunction*%
%TD*%
%TO.P,R301,2*%
%TO.N,GPIO2*%
%TA.AperFunction,SMDPad,CuDef*%
G36*
G01*
X128825000Y-102975000D02*
X128825000Y-102425000D01*
G75*
G02*
X129025000Y-102225000I200000J0D01*
G01*
X129425000Y-102225000D01*
G75*
G02*
X129625000Y-102425000I0J-200000D01*
G01*
X129625000Y-102975000D01*
G75*
G02*
X129425000Y-103175000I-200000J0D01*
G01*
X129025000Y-103175000D01*
G75*
G02*
X128825000Y-102975000I0J200000D01*
G01*
G37*
%TD.AperFunction*%
%TO.P,R301,1*%
%TO.N,GND*%
%TA.AperFunction,SMDPad,CuDef*%
G36*
G01*
X127175000Y-102975000D02*
X127175000Y-102425000D01*
G75*
G02*
X127375000Y-102225000I200000J0D01*
G01*
X127775000Y-102225000D01*
G75*
G02*
X127975000Y-102425000I0J-200000D01*
G01*
X127975000Y-102975000D01*
G75*
G02*
X127775000Y-103175000I-200000J0D01*
G01*
X127375000Y-103175000D01*
G75*
G02*
X127175000Y-102975000I0J200000D01*
G01*
G37*
%TD.AperFunction*%
%TD*%
%TO.P,D307,2*%
%TO.N,Net-(D307-Pad2)*%
%TA.AperFunction,SMDPad,CuDef*%
G36*
G01*
X137881250Y-64150000D02*
X137368750Y-64150000D01*
G75*
G02*
X137150000Y-63931250I0J218750D01*
G01*
X137150000Y-63493750D01*
G75*
G02*
X137368750Y-63275000I218750J0D01*
G01*
X137881250Y-63275000D01*
G75*
G02*
X138100000Y-63493750I0J-218750D01*
G01*
X138100000Y-63931250D01*
G75*
G02*
X137881250Y-64150000I-218750J0D01*
G01*
G37*
%TD.AperFunction*%
%TO.P,D307,1*%
%TO.N,GND*%
%TA.AperFunction,SMDPad,CuDef*%
G36*
G01*
X137881250Y-65725000D02*
X137368750Y-65725000D01*
G75*
G02*
X137150000Y-65506250I0J218750D01*
G01*
X137150000Y-65068750D01*
G75*
G02*
X137368750Y-64850000I218750J0D01*
G01*
X137881250Y-64850000D01*
G75*
G02*
X138100000Y-65068750I0J-218750D01*
G01*
X138100000Y-65506250D01*
G75*
G02*
X137881250Y-65725000I-218750J0D01*
G01*
G37*
%TD.AperFunction*%
%TD*%
%TO.P,D305,2*%
%TO.N,Net-(D305-Pad2)*%
%TA.AperFunction,SMDPad,CuDef*%
G36*
G01*
X137756250Y-71650000D02*
X137243750Y-71650000D01*
G75*
G02*
X137025000Y-71431250I0J218750D01*
G01*
X137025000Y-70993750D01*
G75*
G02*
X137243750Y-70775000I218750J0D01*
G01*
X137756250Y-70775000D01*
G75*
G02*
X137975000Y-70993750I0J-218750D01*
G01*
X137975000Y-71431250D01*
G75*
G02*
X137756250Y-71650000I-218750J0D01*
G01*
G37*
%TD.AperFunction*%
%TO.P,D305,1*%
%TO.N,GND*%
%TA.AperFunction,SMDPad,CuDef*%
G36*
G01*
X137756250Y-73225000D02*
X137243750Y-73225000D01*
G75*
G02*
X137025000Y-73006250I0J218750D01*
G01*
X137025000Y-72568750D01*
G75*
G02*
X137243750Y-72350000I218750J0D01*
G01*
X137756250Y-72350000D01*
G75*
G02*
X137975000Y-72568750I0J-218750D01*
G01*
X137975000Y-73006250D01*
G75*
G02*
X137756250Y-73225000I-218750J0D01*
G01*
G37*
%TD.AperFunction*%
%TD*%
%TO.P,D303,2*%
%TO.N,Net-(D303-Pad2)*%
%TA.AperFunction,SMDPad,CuDef*%
G36*
G01*
X130443750Y-109950000D02*
X130956250Y-109950000D01*
G75*
G02*
X131175000Y-110168750I0J-218750D01*
G01*
X131175000Y-110606250D01*
G75*
G02*
X130956250Y-110825000I-218750J0D01*
G01*
X130443750Y-110825000D01*
G75*
G02*
X130225000Y-110606250I0J218750D01*
G01*
X130225000Y-110168750D01*
G75*
G02*
X130443750Y-109950000I218750J0D01*
G01*
G37*
%TD.AperFunction*%
%TO.P,D303,1*%
%TO.N,GND*%
%TA.AperFunction,SMDPad,CuDef*%
G36*
G01*
X130443750Y-108375000D02*
X130956250Y-108375000D01*
G75*
G02*
X131175000Y-108593750I0J-218750D01*
G01*
X131175000Y-109031250D01*
G75*
G02*
X130956250Y-109250000I-218750J0D01*
G01*
X130443750Y-109250000D01*
G75*
G02*
X130225000Y-109031250I0J218750D01*
G01*
X130225000Y-108593750D01*
G75*
G02*
X130443750Y-108375000I218750J0D01*
G01*
G37*
%TD.AperFunction*%
%TD*%
%TO.P,C1006,2*%
%TO.N,+3V3*%
%TA.AperFunction,SMDPad,CuDef*%
G36*
G01*
X138500000Y-67870000D02*
X138500000Y-67530000D01*
G75*
G02*
X138640000Y-67390000I140000J0D01*
G01*
X138920000Y-67390000D01*
G75*
G02*
X139060000Y-67530000I0J-140000D01*
G01*
X139060000Y-67870000D01*
G75*
G02*
X138920000Y-68010000I-140000J0D01*
G01*
X138640000Y-68010000D01*
G75*
G02*
X138500000Y-67870000I0J140000D01*
G01*
G37*
%TD.AperFunction*%
%TO.P,C1006,1*%
%TO.N,GND*%
%TA.AperFunction,SMDPad,CuDef*%
G36*
G01*
X137540000Y-67870000D02*
X137540000Y-67530000D01*
G75*
G02*
X137680000Y-67390000I140000J0D01*
G01*
X137960000Y-67390000D01*
G75*
G02*
X138100000Y-67530000I0J-140000D01*
G01*
X138100000Y-67870000D01*
G75*
G02*
X137960000Y-68010000I-140000J0D01*
G01*
X137680000Y-68010000D01*
G75*
G02*
X137540000Y-67870000I0J140000D01*
G01*
G37*
%TD.AperFunction*%
%TD*%
%TO.P,C1005,2*%
%TO.N,+3V3*%
%TA.AperFunction,SMDPad,CuDef*%
G36*
G01*
X120900000Y-66470000D02*
X120900000Y-66130000D01*
G75*
G02*
X121040000Y-65990000I140000J0D01*
G01*
X121320000Y-65990000D01*
G75*
G02*
X121460000Y-66130000I0J-140000D01*
G01*
X121460000Y-66470000D01*
G75*
G02*
X121320000Y-66610000I-140000J0D01*
G01*
X121040000Y-66610000D01*
G75*
G02*
X120900000Y-66470000I0J140000D01*
G01*
G37*
%TD.AperFunction*%
%TO.P,C1005,1*%
%TO.N,GND*%
%TA.AperFunction,SMDPad,CuDef*%
G36*
G01*
X119940000Y-66470000D02*
X119940000Y-66130000D01*
G75*
G02*
X120080000Y-65990000I140000J0D01*
G01*
X120360000Y-65990000D01*
G75*
G02*
X120500000Y-66130000I0J-140000D01*
G01*
X120500000Y-66470000D01*
G75*
G02*
X120360000Y-66610000I-140000J0D01*
G01*
X120080000Y-66610000D01*
G75*
G02*
X119940000Y-66470000I0J140000D01*
G01*
G37*
%TD.AperFunction*%
%TD*%
%TO.P,C1004,2*%
%TO.N,+3V3*%
%TA.AperFunction,SMDPad,CuDef*%
G36*
G01*
X121600000Y-59170000D02*
X121600000Y-58830000D01*
G75*
G02*
X121740000Y-58690000I140000J0D01*
G01*
X122020000Y-58690000D01*
G75*
G02*
X122160000Y-58830000I0J-140000D01*
G01*
X122160000Y-59170000D01*
G75*
G02*
X122020000Y-59310000I-140000J0D01*
G01*
X121740000Y-59310000D01*
G75*
G02*
X121600000Y-59170000I0J140000D01*
G01*
G37*
%TD.AperFunction*%
%TO.P,C1004,1*%
%TO.N,GND*%
%TA.AperFunction,SMDPad,CuDef*%
G36*
G01*
X120640000Y-59170000D02*
X120640000Y-58830000D01*
G75*
G02*
X120780000Y-58690000I140000J0D01*
G01*
X121060000Y-58690000D01*
G75*
G02*
X121200000Y-58830000I0J-140000D01*
G01*
X121200000Y-59170000D01*
G75*
G02*
X121060000Y-59310000I-140000J0D01*
G01*
X120780000Y-59310000D01*
G75*
G02*
X120640000Y-59170000I0J140000D01*
G01*
G37*
%TD.AperFunction*%
%TD*%
%TO.P,C1003,2*%
%TO.N,+3V3*%
%TA.AperFunction,SMDPad,CuDef*%
G36*
G01*
X134430000Y-98900000D02*
X134770000Y-98900000D01*
G75*
G02*
X134910000Y-99040000I0J-140000D01*
G01*
X134910000Y-99320000D01*
G75*
G02*
X134770000Y-99460000I-140000J0D01*
G01*
X134430000Y-99460000D01*
G75*
G02*
X134290000Y-99320000I0J140000D01*
G01*
X134290000Y-99040000D01*
G75*
G02*
X134430000Y-98900000I140000J0D01*
G01*
G37*
%TD.AperFunction*%
%TO.P,C1003,1*%
%TO.N,GND*%
%TA.AperFunction,SMDPad,CuDef*%
G36*
G01*
X134430000Y-97940000D02*
X134770000Y-97940000D01*
G75*
G02*
X134910000Y-98080000I0J-140000D01*
G01*
X134910000Y-98360000D01*
G75*
G02*
X134770000Y-98500000I-140000J0D01*
G01*
X134430000Y-98500000D01*
G75*
G02*
X134290000Y-98360000I0J140000D01*
G01*
X134290000Y-98080000D01*
G75*
G02*
X134430000Y-97940000I140000J0D01*
G01*
G37*
%TD.AperFunction*%
%TD*%
%TO.P,C1002,2*%
%TO.N,+3V3*%
%TA.AperFunction,SMDPad,CuDef*%
G36*
G01*
X132100000Y-87170000D02*
X132100000Y-86830000D01*
G75*
G02*
X132240000Y-86690000I140000J0D01*
G01*
X132520000Y-86690000D01*
G75*
G02*
X132660000Y-86830000I0J-140000D01*
G01*
X132660000Y-87170000D01*
G75*
G02*
X132520000Y-87310000I-140000J0D01*
G01*
X132240000Y-87310000D01*
G75*
G02*
X132100000Y-87170000I0J140000D01*
G01*
G37*
%TD.AperFunction*%
%TO.P,C1002,1*%
%TO.N,GND*%
%TA.AperFunction,SMDPad,CuDef*%
G36*
G01*
X131140000Y-87170000D02*
X131140000Y-86830000D01*
G75*
G02*
X131280000Y-86690000I140000J0D01*
G01*
X131560000Y-86690000D01*
G75*
G02*
X131700000Y-86830000I0J-140000D01*
G01*
X131700000Y-87170000D01*
G75*
G02*
X131560000Y-87310000I-140000J0D01*
G01*
X131280000Y-87310000D01*
G75*
G02*
X131140000Y-87170000I0J140000D01*
G01*
G37*
%TD.AperFunction*%
%TD*%
%TO.P,C1001,2*%
%TO.N,+3V3*%
%TA.AperFunction,SMDPad,CuDef*%
G36*
G01*
X130070000Y-105200000D02*
X129730000Y-105200000D01*
G75*
G02*
X129590000Y-105060000I0J140000D01*
G01*
X129590000Y-104780000D01*
G75*
G02*
X129730000Y-104640000I140000J0D01*
G01*
X130070000Y-104640000D01*
G75*
G02*
X130210000Y-104780000I0J-140000D01*
G01*
X130210000Y-105060000D01*
G75*
G02*
X130070000Y-105200000I-140000J0D01*
G01*
G37*
%TD.AperFunction*%
%TO.P,C1001,1*%
%TO.N,GND*%
%TA.AperFunction,SMDPad,CuDef*%
G36*
G01*
X130070000Y-106160000D02*
X129730000Y-106160000D01*
G75*
G02*
X129590000Y-106020000I0J140000D01*
G01*
X129590000Y-105740000D01*
G75*
G02*
X129730000Y-105600000I140000J0D01*
G01*
X130070000Y-105600000D01*
G75*
G02*
X130210000Y-105740000I0J-140000D01*
G01*
X130210000Y-106020000D01*
G75*
G02*
X130070000Y-106160000I-140000J0D01*
G01*
G37*
%TD.AperFunction*%
%TD*%
%TA.AperFunction,SMDPad,CuDef*%
D15*
%TO.P,J109,2*%
%TO.N,Net-(J109-Pad2)*%
G36*
X140500000Y-88200000D02*
G01*
X140500000Y-89350000D01*
X140000000Y-88850000D01*
X139500000Y-89350000D01*
X139500000Y-88200000D01*
X140500000Y-88200000D01*
G37*
%TD.AperFunction*%
%TA.AperFunction,SMDPad,CuDef*%
%TO.P,J109,1*%
%TO.N,+3V3*%
G36*
X140000000Y-89125000D02*
G01*
X140500000Y-89625000D01*
X140500000Y-90625000D01*
X139500000Y-90625000D01*
X139500000Y-89625000D01*
X140000000Y-89125000D01*
G37*
%TD.AperFunction*%
%TD*%
%TA.AperFunction,SMDPad,CuDef*%
%TO.P,J110,2*%
%TO.N,Net-(J110-Pad2)*%
G36*
X138500000Y-88200000D02*
G01*
X138500000Y-89350000D01*
X138000000Y-88850000D01*
X137500000Y-89350000D01*
X137500000Y-88200000D01*
X138500000Y-88200000D01*
G37*
%TD.AperFunction*%
%TA.AperFunction,SMDPad,CuDef*%
%TO.P,J110,1*%
%TO.N,+3V3*%
G36*
X138000000Y-89125000D02*
G01*
X138500000Y-89625000D01*
X138500000Y-90625000D01*
X137500000Y-90625000D01*
X137500000Y-89625000D01*
X138000000Y-89125000D01*
G37*
%TD.AperFunction*%
%TD*%
%TA.AperFunction,SMDPad,CuDef*%
%TO.P,J108,2*%
%TO.N,Net-(J108-Pad2)*%
G36*
X127500000Y-84100000D02*
G01*
X127500000Y-82950000D01*
X128000000Y-83450000D01*
X128500000Y-82950000D01*
X128500000Y-84100000D01*
X127500000Y-84100000D01*
G37*
%TD.AperFunction*%
%TA.AperFunction,SMDPad,CuDef*%
%TO.P,J108,1*%
%TO.N,+3V3*%
G36*
X128000000Y-83175000D02*
G01*
X127500000Y-82675000D01*
X127500000Y-81675000D01*
X128500000Y-81675000D01*
X128500000Y-82675000D01*
X128000000Y-83175000D01*
G37*
%TD.AperFunction*%
%TD*%
%TA.AperFunction,SMDPad,CuDef*%
%TO.P,J107,2*%
%TO.N,Net-(J107-Pad2)*%
G36*
X129500000Y-84100000D02*
G01*
X129500000Y-82950000D01*
X130000000Y-83450000D01*
X130500000Y-82950000D01*
X130500000Y-84100000D01*
X129500000Y-84100000D01*
G37*
%TD.AperFunction*%
%TA.AperFunction,SMDPad,CuDef*%
%TO.P,J107,1*%
%TO.N,+3V3*%
G36*
X130000000Y-83175000D02*
G01*
X129500000Y-82675000D01*
X129500000Y-81675000D01*
X130500000Y-81675000D01*
X130500000Y-82675000D01*
X130000000Y-83175000D01*
G37*
%TD.AperFunction*%
%TD*%
%TO.P,R121,2*%
%TO.N,Net-(R106-Pad1)*%
%TA.AperFunction,SMDPad,CuDef*%
G36*
G01*
X127925000Y-86525000D02*
X128475000Y-86525000D01*
G75*
G02*
X128675000Y-86725000I0J-200000D01*
G01*
X128675000Y-87125000D01*
G75*
G02*
X128475000Y-87325000I-200000J0D01*
G01*
X127925000Y-87325000D01*
G75*
G02*
X127725000Y-87125000I0J200000D01*
G01*
X127725000Y-86725000D01*
G75*
G02*
X127925000Y-86525000I200000J0D01*
G01*
G37*
%TD.AperFunction*%
%TO.P,R121,1*%
%TO.N,Net-(J108-Pad2)*%
%TA.AperFunction,SMDPad,CuDef*%
G36*
G01*
X127925000Y-84875000D02*
X128475000Y-84875000D01*
G75*
G02*
X128675000Y-85075000I0J-200000D01*
G01*
X128675000Y-85475000D01*
G75*
G02*
X128475000Y-85675000I-200000J0D01*
G01*
X127925000Y-85675000D01*
G75*
G02*
X127725000Y-85475000I0J200000D01*
G01*
X127725000Y-85075000D01*
G75*
G02*
X127925000Y-84875000I200000J0D01*
G01*
G37*
%TD.AperFunction*%
%TD*%
%TO.P,R120,2*%
%TO.N,Net-(R102-Pad1)*%
%TA.AperFunction,SMDPad,CuDef*%
G36*
G01*
X129525000Y-86525000D02*
X130075000Y-86525000D01*
G75*
G02*
X130275000Y-86725000I0J-200000D01*
G01*
X130275000Y-87125000D01*
G75*
G02*
X130075000Y-87325000I-200000J0D01*
G01*
X129525000Y-87325000D01*
G75*
G02*
X129325000Y-87125000I0J200000D01*
G01*
X129325000Y-86725000D01*
G75*
G02*
X129525000Y-86525000I200000J0D01*
G01*
G37*
%TD.AperFunction*%
%TO.P,R120,1*%
%TO.N,Net-(J107-Pad2)*%
%TA.AperFunction,SMDPad,CuDef*%
G36*
G01*
X129525000Y-84875000D02*
X130075000Y-84875000D01*
G75*
G02*
X130275000Y-85075000I0J-200000D01*
G01*
X130275000Y-85475000D01*
G75*
G02*
X130075000Y-85675000I-200000J0D01*
G01*
X129525000Y-85675000D01*
G75*
G02*
X129325000Y-85475000I0J200000D01*
G01*
X129325000Y-85075000D01*
G75*
G02*
X129525000Y-84875000I200000J0D01*
G01*
G37*
%TD.AperFunction*%
%TD*%
D16*
%TO.P,J303,4*%
%TO.N,GND2*%
X166030000Y-61800000D03*
%TO.P,J303,3*%
X162220000Y-61800000D03*
%TO.P,J303,2*%
%TO.N,/Opto Input/ISO_IN_4*%
X158410000Y-61800000D03*
%TO.P,J303,1*%
%TO.N,/Opto Input/ISO_IN_3*%
%TA.AperFunction,ComponentPad*%
G36*
G01*
X153700000Y-63350000D02*
X153700000Y-60250000D01*
G75*
G02*
X153950000Y-60000000I250000J0D01*
G01*
X155250000Y-60000000D01*
G75*
G02*
X155500000Y-60250000I0J-250000D01*
G01*
X155500000Y-63350000D01*
G75*
G02*
X155250000Y-63600000I-250000J0D01*
G01*
X153950000Y-63600000D01*
G75*
G02*
X153700000Y-63350000I0J250000D01*
G01*
G37*
%TD.AperFunction*%
%TD*%
%TO.P,J302,4*%
%TO.N,GND1*%
X102170000Y-110100000D03*
%TO.P,J302,3*%
X105980000Y-110100000D03*
%TO.P,J302,2*%
%TO.N,/Opto Input/ISO_IN_2*%
X109790000Y-110100000D03*
%TO.P,J302,1*%
%TO.N,/Opto Input/ISO_IN_1*%
%TA.AperFunction,ComponentPad*%
G36*
G01*
X114500000Y-108550000D02*
X114500000Y-111650000D01*
G75*
G02*
X114250000Y-111900000I-250000J0D01*
G01*
X112950000Y-111900000D01*
G75*
G02*
X112700000Y-111650000I0J250000D01*
G01*
X112700000Y-108550000D01*
G75*
G02*
X112950000Y-108300000I250000J0D01*
G01*
X114250000Y-108300000D01*
G75*
G02*
X114500000Y-108550000I0J-250000D01*
G01*
G37*
%TD.AperFunction*%
%TD*%
%TO.P,R308,2*%
%TO.N,Net-(R308-Pad2)*%
%TA.AperFunction,SMDPad,CuDef*%
G36*
G01*
X149175000Y-73325000D02*
X149175000Y-73875000D01*
G75*
G02*
X148975000Y-74075000I-200000J0D01*
G01*
X148575000Y-74075000D01*
G75*
G02*
X148375000Y-73875000I0J200000D01*
G01*
X148375000Y-73325000D01*
G75*
G02*
X148575000Y-73125000I200000J0D01*
G01*
X148975000Y-73125000D01*
G75*
G02*
X149175000Y-73325000I0J-200000D01*
G01*
G37*
%TD.AperFunction*%
%TO.P,R308,1*%
%TO.N,Net-(D308-Pad1)*%
%TA.AperFunction,SMDPad,CuDef*%
G36*
G01*
X150825000Y-73325000D02*
X150825000Y-73875000D01*
G75*
G02*
X150625000Y-74075000I-200000J0D01*
G01*
X150225000Y-74075000D01*
G75*
G02*
X150025000Y-73875000I0J200000D01*
G01*
X150025000Y-73325000D01*
G75*
G02*
X150225000Y-73125000I200000J0D01*
G01*
X150625000Y-73125000D01*
G75*
G02*
X150825000Y-73325000I0J-200000D01*
G01*
G37*
%TD.AperFunction*%
%TD*%
%TO.P,FB304,2*%
%TO.N,Net-(C307-Pad1)*%
%TA.AperFunction,SMDPad,CuDef*%
G36*
G01*
X148675000Y-69118750D02*
X148675000Y-69881250D01*
G75*
G02*
X148456250Y-70100000I-218750J0D01*
G01*
X148018750Y-70100000D01*
G75*
G02*
X147800000Y-69881250I0J218750D01*
G01*
X147800000Y-69118750D01*
G75*
G02*
X148018750Y-68900000I218750J0D01*
G01*
X148456250Y-68900000D01*
G75*
G02*
X148675000Y-69118750I0J-218750D01*
G01*
G37*
%TD.AperFunction*%
%TO.P,FB304,1*%
%TO.N,/Opto Input/ISO_IN_4*%
%TA.AperFunction,SMDPad,CuDef*%
G36*
G01*
X150800000Y-69118750D02*
X150800000Y-69881250D01*
G75*
G02*
X150581250Y-70100000I-218750J0D01*
G01*
X150143750Y-70100000D01*
G75*
G02*
X149925000Y-69881250I0J218750D01*
G01*
X149925000Y-69118750D01*
G75*
G02*
X150143750Y-68900000I218750J0D01*
G01*
X150581250Y-68900000D01*
G75*
G02*
X150800000Y-69118750I0J-218750D01*
G01*
G37*
%TD.AperFunction*%
%TD*%
D17*
%TO.P,D308,2*%
%TO.N,Net-(C307-Pad1)*%
X147700000Y-71600000D03*
%TO.P,D308,1*%
%TO.N,Net-(D308-Pad1)*%
X150500000Y-71600000D03*
%TD*%
%TO.P,C308,2*%
%TO.N,GND2*%
%TA.AperFunction,SMDPad,CuDef*%
G36*
G01*
X149275000Y-67150000D02*
X149275000Y-67650000D01*
G75*
G02*
X149050000Y-67875000I-225000J0D01*
G01*
X148600000Y-67875000D01*
G75*
G02*
X148375000Y-67650000I0J225000D01*
G01*
X148375000Y-67150000D01*
G75*
G02*
X148600000Y-66925000I225000J0D01*
G01*
X149050000Y-66925000D01*
G75*
G02*
X149275000Y-67150000I0J-225000D01*
G01*
G37*
%TD.AperFunction*%
%TO.P,C308,1*%
%TO.N,/Opto Input/ISO_IN_4*%
%TA.AperFunction,SMDPad,CuDef*%
G36*
G01*
X150825000Y-67150000D02*
X150825000Y-67650000D01*
G75*
G02*
X150600000Y-67875000I-225000J0D01*
G01*
X150150000Y-67875000D01*
G75*
G02*
X149925000Y-67650000I0J225000D01*
G01*
X149925000Y-67150000D01*
G75*
G02*
X150150000Y-66925000I225000J0D01*
G01*
X150600000Y-66925000D01*
G75*
G02*
X150825000Y-67150000I0J-225000D01*
G01*
G37*
%TD.AperFunction*%
%TD*%
%TO.P,C307,2*%
%TO.N,GND2*%
%TA.AperFunction,SMDPad,CuDef*%
G36*
G01*
X147770000Y-67400000D02*
X147430000Y-67400000D01*
G75*
G02*
X147290000Y-67260000I0J140000D01*
G01*
X147290000Y-66980000D01*
G75*
G02*
X147430000Y-66840000I140000J0D01*
G01*
X147770000Y-66840000D01*
G75*
G02*
X147910000Y-66980000I0J-140000D01*
G01*
X147910000Y-67260000D01*
G75*
G02*
X147770000Y-67400000I-140000J0D01*
G01*
G37*
%TD.AperFunction*%
%TO.P,C307,1*%
%TO.N,Net-(C307-Pad1)*%
%TA.AperFunction,SMDPad,CuDef*%
G36*
G01*
X147770000Y-68360000D02*
X147430000Y-68360000D01*
G75*
G02*
X147290000Y-68220000I0J140000D01*
G01*
X147290000Y-67940000D01*
G75*
G02*
X147430000Y-67800000I140000J0D01*
G01*
X147770000Y-67800000D01*
G75*
G02*
X147910000Y-67940000I0J-140000D01*
G01*
X147910000Y-68220000D01*
G75*
G02*
X147770000Y-68360000I-140000J0D01*
G01*
G37*
%TD.AperFunction*%
%TD*%
%TO.P,R306,2*%
%TO.N,Net-(R306-Pad2)*%
%TA.AperFunction,SMDPad,CuDef*%
G36*
G01*
X149375000Y-64425000D02*
X149375000Y-64975000D01*
G75*
G02*
X149175000Y-65175000I-200000J0D01*
G01*
X148775000Y-65175000D01*
G75*
G02*
X148575000Y-64975000I0J200000D01*
G01*
X148575000Y-64425000D01*
G75*
G02*
X148775000Y-64225000I200000J0D01*
G01*
X149175000Y-64225000D01*
G75*
G02*
X149375000Y-64425000I0J-200000D01*
G01*
G37*
%TD.AperFunction*%
%TO.P,R306,1*%
%TO.N,Net-(D306-Pad1)*%
%TA.AperFunction,SMDPad,CuDef*%
G36*
G01*
X151025000Y-64425000D02*
X151025000Y-64975000D01*
G75*
G02*
X150825000Y-65175000I-200000J0D01*
G01*
X150425000Y-65175000D01*
G75*
G02*
X150225000Y-64975000I0J200000D01*
G01*
X150225000Y-64425000D01*
G75*
G02*
X150425000Y-64225000I200000J0D01*
G01*
X150825000Y-64225000D01*
G75*
G02*
X151025000Y-64425000I0J-200000D01*
G01*
G37*
%TD.AperFunction*%
%TD*%
%TO.P,FB303,2*%
%TO.N,Net-(C305-Pad1)*%
%TA.AperFunction,SMDPad,CuDef*%
G36*
G01*
X148875000Y-60218750D02*
X148875000Y-60981250D01*
G75*
G02*
X148656250Y-61200000I-218750J0D01*
G01*
X148218750Y-61200000D01*
G75*
G02*
X148000000Y-60981250I0J218750D01*
G01*
X148000000Y-60218750D01*
G75*
G02*
X148218750Y-60000000I218750J0D01*
G01*
X148656250Y-60000000D01*
G75*
G02*
X148875000Y-60218750I0J-218750D01*
G01*
G37*
%TD.AperFunction*%
%TO.P,FB303,1*%
%TO.N,/Opto Input/ISO_IN_3*%
%TA.AperFunction,SMDPad,CuDef*%
G36*
G01*
X151000000Y-60218750D02*
X151000000Y-60981250D01*
G75*
G02*
X150781250Y-61200000I-218750J0D01*
G01*
X150343750Y-61200000D01*
G75*
G02*
X150125000Y-60981250I0J218750D01*
G01*
X150125000Y-60218750D01*
G75*
G02*
X150343750Y-60000000I218750J0D01*
G01*
X150781250Y-60000000D01*
G75*
G02*
X151000000Y-60218750I0J-218750D01*
G01*
G37*
%TD.AperFunction*%
%TD*%
%TO.P,D306,2*%
%TO.N,Net-(C305-Pad1)*%
X147750000Y-62700000D03*
%TO.P,D306,1*%
%TO.N,Net-(D306-Pad1)*%
X150550000Y-62700000D03*
%TD*%
%TO.P,C306,2*%
%TO.N,GND2*%
%TA.AperFunction,SMDPad,CuDef*%
G36*
G01*
X149475000Y-58350000D02*
X149475000Y-58850000D01*
G75*
G02*
X149250000Y-59075000I-225000J0D01*
G01*
X148800000Y-59075000D01*
G75*
G02*
X148575000Y-58850000I0J225000D01*
G01*
X148575000Y-58350000D01*
G75*
G02*
X148800000Y-58125000I225000J0D01*
G01*
X149250000Y-58125000D01*
G75*
G02*
X149475000Y-58350000I0J-225000D01*
G01*
G37*
%TD.AperFunction*%
%TO.P,C306,1*%
%TO.N,/Opto Input/ISO_IN_3*%
%TA.AperFunction,SMDPad,CuDef*%
G36*
G01*
X151025000Y-58350000D02*
X151025000Y-58850000D01*
G75*
G02*
X150800000Y-59075000I-225000J0D01*
G01*
X150350000Y-59075000D01*
G75*
G02*
X150125000Y-58850000I0J225000D01*
G01*
X150125000Y-58350000D01*
G75*
G02*
X150350000Y-58125000I225000J0D01*
G01*
X150800000Y-58125000D01*
G75*
G02*
X151025000Y-58350000I0J-225000D01*
G01*
G37*
%TD.AperFunction*%
%TD*%
%TO.P,C305,2*%
%TO.N,GND2*%
%TA.AperFunction,SMDPad,CuDef*%
G36*
G01*
X147870000Y-58600000D02*
X147530000Y-58600000D01*
G75*
G02*
X147390000Y-58460000I0J140000D01*
G01*
X147390000Y-58180000D01*
G75*
G02*
X147530000Y-58040000I140000J0D01*
G01*
X147870000Y-58040000D01*
G75*
G02*
X148010000Y-58180000I0J-140000D01*
G01*
X148010000Y-58460000D01*
G75*
G02*
X147870000Y-58600000I-140000J0D01*
G01*
G37*
%TD.AperFunction*%
%TO.P,C305,1*%
%TO.N,Net-(C305-Pad1)*%
%TA.AperFunction,SMDPad,CuDef*%
G36*
G01*
X147870000Y-59560000D02*
X147530000Y-59560000D01*
G75*
G02*
X147390000Y-59420000I0J140000D01*
G01*
X147390000Y-59140000D01*
G75*
G02*
X147530000Y-59000000I140000J0D01*
G01*
X147870000Y-59000000D01*
G75*
G02*
X148010000Y-59140000I0J-140000D01*
G01*
X148010000Y-59420000D01*
G75*
G02*
X147870000Y-59560000I-140000J0D01*
G01*
G37*
%TD.AperFunction*%
%TD*%
%TO.P,R304,2*%
%TO.N,Net-(R304-Pad2)*%
%TA.AperFunction,SMDPad,CuDef*%
G36*
G01*
X118725000Y-108275000D02*
X118725000Y-107725000D01*
G75*
G02*
X118925000Y-107525000I200000J0D01*
G01*
X119325000Y-107525000D01*
G75*
G02*
X119525000Y-107725000I0J-200000D01*
G01*
X119525000Y-108275000D01*
G75*
G02*
X119325000Y-108475000I-200000J0D01*
G01*
X118925000Y-108475000D01*
G75*
G02*
X118725000Y-108275000I0J200000D01*
G01*
G37*
%TD.AperFunction*%
%TO.P,R304,1*%
%TO.N,Net-(D304-Pad1)*%
%TA.AperFunction,SMDPad,CuDef*%
G36*
G01*
X117075000Y-108275000D02*
X117075000Y-107725000D01*
G75*
G02*
X117275000Y-107525000I200000J0D01*
G01*
X117675000Y-107525000D01*
G75*
G02*
X117875000Y-107725000I0J-200000D01*
G01*
X117875000Y-108275000D01*
G75*
G02*
X117675000Y-108475000I-200000J0D01*
G01*
X117275000Y-108475000D01*
G75*
G02*
X117075000Y-108275000I0J200000D01*
G01*
G37*
%TD.AperFunction*%
%TD*%
%TO.P,FB302,2*%
%TO.N,Net-(C303-Pad1)*%
%TA.AperFunction,SMDPad,CuDef*%
G36*
G01*
X119225000Y-112481250D02*
X119225000Y-111718750D01*
G75*
G02*
X119443750Y-111500000I218750J0D01*
G01*
X119881250Y-111500000D01*
G75*
G02*
X120100000Y-111718750I0J-218750D01*
G01*
X120100000Y-112481250D01*
G75*
G02*
X119881250Y-112700000I-218750J0D01*
G01*
X119443750Y-112700000D01*
G75*
G02*
X119225000Y-112481250I0J218750D01*
G01*
G37*
%TD.AperFunction*%
%TO.P,FB302,1*%
%TO.N,/Opto Input/ISO_IN_2*%
%TA.AperFunction,SMDPad,CuDef*%
G36*
G01*
X117100000Y-112481250D02*
X117100000Y-111718750D01*
G75*
G02*
X117318750Y-111500000I218750J0D01*
G01*
X117756250Y-111500000D01*
G75*
G02*
X117975000Y-111718750I0J-218750D01*
G01*
X117975000Y-112481250D01*
G75*
G02*
X117756250Y-112700000I-218750J0D01*
G01*
X117318750Y-112700000D01*
G75*
G02*
X117100000Y-112481250I0J218750D01*
G01*
G37*
%TD.AperFunction*%
%TD*%
%TO.P,D304,2*%
%TO.N,Net-(C303-Pad1)*%
X120400000Y-110000000D03*
%TO.P,D304,1*%
%TO.N,Net-(D304-Pad1)*%
X117600000Y-110000000D03*
%TD*%
%TO.P,C304,2*%
%TO.N,GND1*%
%TA.AperFunction,SMDPad,CuDef*%
G36*
G01*
X118725000Y-114350000D02*
X118725000Y-113850000D01*
G75*
G02*
X118950000Y-113625000I225000J0D01*
G01*
X119400000Y-113625000D01*
G75*
G02*
X119625000Y-113850000I0J-225000D01*
G01*
X119625000Y-114350000D01*
G75*
G02*
X119400000Y-114575000I-225000J0D01*
G01*
X118950000Y-114575000D01*
G75*
G02*
X118725000Y-114350000I0J225000D01*
G01*
G37*
%TD.AperFunction*%
%TO.P,C304,1*%
%TO.N,/Opto Input/ISO_IN_2*%
%TA.AperFunction,SMDPad,CuDef*%
G36*
G01*
X117175000Y-114350000D02*
X117175000Y-113850000D01*
G75*
G02*
X117400000Y-113625000I225000J0D01*
G01*
X117850000Y-113625000D01*
G75*
G02*
X118075000Y-113850000I0J-225000D01*
G01*
X118075000Y-114350000D01*
G75*
G02*
X117850000Y-114575000I-225000J0D01*
G01*
X117400000Y-114575000D01*
G75*
G02*
X117175000Y-114350000I0J225000D01*
G01*
G37*
%TD.AperFunction*%
%TD*%
%TO.P,C303,2*%
%TO.N,GND1*%
%TA.AperFunction,SMDPad,CuDef*%
G36*
G01*
X120330000Y-114100000D02*
X120670000Y-114100000D01*
G75*
G02*
X120810000Y-114240000I0J-140000D01*
G01*
X120810000Y-114520000D01*
G75*
G02*
X120670000Y-114660000I-140000J0D01*
G01*
X120330000Y-114660000D01*
G75*
G02*
X120190000Y-114520000I0J140000D01*
G01*
X120190000Y-114240000D01*
G75*
G02*
X120330000Y-114100000I140000J0D01*
G01*
G37*
%TD.AperFunction*%
%TO.P,C303,1*%
%TO.N,Net-(C303-Pad1)*%
%TA.AperFunction,SMDPad,CuDef*%
G36*
G01*
X120330000Y-113140000D02*
X120670000Y-113140000D01*
G75*
G02*
X120810000Y-113280000I0J-140000D01*
G01*
X120810000Y-113560000D01*
G75*
G02*
X120670000Y-113700000I-140000J0D01*
G01*
X120330000Y-113700000D01*
G75*
G02*
X120190000Y-113560000I0J140000D01*
G01*
X120190000Y-113280000D01*
G75*
G02*
X120330000Y-113140000I140000J0D01*
G01*
G37*
%TD.AperFunction*%
%TD*%
%TO.P,R302,2*%
%TO.N,Net-(R302-Pad2)*%
%TA.AperFunction,SMDPad,CuDef*%
G36*
G01*
X118925000Y-98975000D02*
X118925000Y-98425000D01*
G75*
G02*
X119125000Y-98225000I200000J0D01*
G01*
X119525000Y-98225000D01*
G75*
G02*
X119725000Y-98425000I0J-200000D01*
G01*
X119725000Y-98975000D01*
G75*
G02*
X119525000Y-99175000I-200000J0D01*
G01*
X119125000Y-99175000D01*
G75*
G02*
X118925000Y-98975000I0J200000D01*
G01*
G37*
%TD.AperFunction*%
%TO.P,R302,1*%
%TO.N,Net-(D302-Pad1)*%
%TA.AperFunction,SMDPad,CuDef*%
G36*
G01*
X117275000Y-98975000D02*
X117275000Y-98425000D01*
G75*
G02*
X117475000Y-98225000I200000J0D01*
G01*
X117875000Y-98225000D01*
G75*
G02*
X118075000Y-98425000I0J-200000D01*
G01*
X118075000Y-98975000D01*
G75*
G02*
X117875000Y-99175000I-200000J0D01*
G01*
X117475000Y-99175000D01*
G75*
G02*
X117275000Y-98975000I0J200000D01*
G01*
G37*
%TD.AperFunction*%
%TD*%
%TO.P,R101,2*%
%TO.N,Net-(D101-Pad2)*%
%TA.AperFunction,SMDPad,CuDef*%
G36*
G01*
X131375000Y-89725000D02*
X131375000Y-90275000D01*
G75*
G02*
X131175000Y-90475000I-200000J0D01*
G01*
X130775000Y-90475000D01*
G75*
G02*
X130575000Y-90275000I0J200000D01*
G01*
X130575000Y-89725000D01*
G75*
G02*
X130775000Y-89525000I200000J0D01*
G01*
X131175000Y-89525000D01*
G75*
G02*
X131375000Y-89725000I0J-200000D01*
G01*
G37*
%TD.AperFunction*%
%TO.P,R101,1*%
%TO.N,/GPIO0*%
%TA.AperFunction,SMDPad,CuDef*%
G36*
G01*
X133025000Y-89725000D02*
X133025000Y-90275000D01*
G75*
G02*
X132825000Y-90475000I-200000J0D01*
G01*
X132425000Y-90475000D01*
G75*
G02*
X132225000Y-90275000I0J200000D01*
G01*
X132225000Y-89725000D01*
G75*
G02*
X132425000Y-89525000I200000J0D01*
G01*
X132825000Y-89525000D01*
G75*
G02*
X133025000Y-89725000I0J-200000D01*
G01*
G37*
%TD.AperFunction*%
%TD*%
%TO.P,FB301,2*%
%TO.N,Net-(C301-Pad1)*%
%TA.AperFunction,SMDPad,CuDef*%
G36*
G01*
X119325000Y-103181250D02*
X119325000Y-102418750D01*
G75*
G02*
X119543750Y-102200000I218750J0D01*
G01*
X119981250Y-102200000D01*
G75*
G02*
X120200000Y-102418750I0J-218750D01*
G01*
X120200000Y-103181250D01*
G75*
G02*
X119981250Y-103400000I-218750J0D01*
G01*
X119543750Y-103400000D01*
G75*
G02*
X119325000Y-103181250I0J218750D01*
G01*
G37*
%TD.AperFunction*%
%TO.P,FB301,1*%
%TO.N,/Opto Input/ISO_IN_1*%
%TA.AperFunction,SMDPad,CuDef*%
G36*
G01*
X117200000Y-103181250D02*
X117200000Y-102418750D01*
G75*
G02*
X117418750Y-102200000I218750J0D01*
G01*
X117856250Y-102200000D01*
G75*
G02*
X118075000Y-102418750I0J-218750D01*
G01*
X118075000Y-103181250D01*
G75*
G02*
X117856250Y-103400000I-218750J0D01*
G01*
X117418750Y-103400000D01*
G75*
G02*
X117200000Y-103181250I0J218750D01*
G01*
G37*
%TD.AperFunction*%
%TD*%
%TO.P,D302,2*%
%TO.N,Net-(C301-Pad1)*%
X120380000Y-100690000D03*
%TO.P,D302,1*%
%TO.N,Net-(D302-Pad1)*%
X117580000Y-100690000D03*
%TD*%
%TO.P,D301,2*%
%TO.N,Net-(D301-Pad2)*%
%TA.AperFunction,SMDPad,CuDef*%
G36*
G01*
X130543750Y-100650000D02*
X131056250Y-100650000D01*
G75*
G02*
X131275000Y-100868750I0J-218750D01*
G01*
X131275000Y-101306250D01*
G75*
G02*
X131056250Y-101525000I-218750J0D01*
G01*
X130543750Y-101525000D01*
G75*
G02*
X130325000Y-101306250I0J218750D01*
G01*
X130325000Y-100868750D01*
G75*
G02*
X130543750Y-100650000I218750J0D01*
G01*
G37*
%TD.AperFunction*%
%TO.P,D301,1*%
%TO.N,GND*%
%TA.AperFunction,SMDPad,CuDef*%
G36*
G01*
X130543750Y-99075000D02*
X131056250Y-99075000D01*
G75*
G02*
X131275000Y-99293750I0J-218750D01*
G01*
X131275000Y-99731250D01*
G75*
G02*
X131056250Y-99950000I-218750J0D01*
G01*
X130543750Y-99950000D01*
G75*
G02*
X130325000Y-99731250I0J218750D01*
G01*
X130325000Y-99293750D01*
G75*
G02*
X130543750Y-99075000I218750J0D01*
G01*
G37*
%TD.AperFunction*%
%TD*%
%TO.P,C302,2*%
%TO.N,GND1*%
%TA.AperFunction,SMDPad,CuDef*%
G36*
G01*
X118825000Y-105050000D02*
X118825000Y-104550000D01*
G75*
G02*
X119050000Y-104325000I225000J0D01*
G01*
X119500000Y-104325000D01*
G75*
G02*
X119725000Y-104550000I0J-225000D01*
G01*
X119725000Y-105050000D01*
G75*
G02*
X119500000Y-105275000I-225000J0D01*
G01*
X119050000Y-105275000D01*
G75*
G02*
X118825000Y-105050000I0J225000D01*
G01*
G37*
%TD.AperFunction*%
%TO.P,C302,1*%
%TO.N,/Opto Input/ISO_IN_1*%
%TA.AperFunction,SMDPad,CuDef*%
G36*
G01*
X117275000Y-105050000D02*
X117275000Y-104550000D01*
G75*
G02*
X117500000Y-104325000I225000J0D01*
G01*
X117950000Y-104325000D01*
G75*
G02*
X118175000Y-104550000I0J-225000D01*
G01*
X118175000Y-105050000D01*
G75*
G02*
X117950000Y-105275000I-225000J0D01*
G01*
X117500000Y-105275000D01*
G75*
G02*
X117275000Y-105050000I0J225000D01*
G01*
G37*
%TD.AperFunction*%
%TD*%
%TO.P,C301,2*%
%TO.N,GND1*%
%TA.AperFunction,SMDPad,CuDef*%
G36*
G01*
X120430000Y-104800000D02*
X120770000Y-104800000D01*
G75*
G02*
X120910000Y-104940000I0J-140000D01*
G01*
X120910000Y-105220000D01*
G75*
G02*
X120770000Y-105360000I-140000J0D01*
G01*
X120430000Y-105360000D01*
G75*
G02*
X120290000Y-105220000I0J140000D01*
G01*
X120290000Y-104940000D01*
G75*
G02*
X120430000Y-104800000I140000J0D01*
G01*
G37*
%TD.AperFunction*%
%TO.P,C301,1*%
%TO.N,Net-(C301-Pad1)*%
%TA.AperFunction,SMDPad,CuDef*%
G36*
G01*
X120430000Y-103840000D02*
X120770000Y-103840000D01*
G75*
G02*
X120910000Y-103980000I0J-140000D01*
G01*
X120910000Y-104260000D01*
G75*
G02*
X120770000Y-104400000I-140000J0D01*
G01*
X120430000Y-104400000D01*
G75*
G02*
X120290000Y-104260000I0J140000D01*
G01*
X120290000Y-103980000D01*
G75*
G02*
X120430000Y-103840000I140000J0D01*
G01*
G37*
%TD.AperFunction*%
%TD*%
%TO.P,U105,16*%
%TO.N,+3V3*%
%TA.AperFunction,SMDPad,CuDef*%
G36*
G01*
X122755000Y-68575000D02*
X122455000Y-68575000D01*
G75*
G02*
X122305000Y-68425000I0J150000D01*
G01*
X122305000Y-66675000D01*
G75*
G02*
X122455000Y-66525000I150000J0D01*
G01*
X122755000Y-66525000D01*
G75*
G02*
X122905000Y-66675000I0J-150000D01*
G01*
X122905000Y-68425000D01*
G75*
G02*
X122755000Y-68575000I-150000J0D01*
G01*
G37*
%TD.AperFunction*%
%TO.P,U105,15*%
%TO.N,/SDA*%
%TA.AperFunction,SMDPad,CuDef*%
G36*
G01*
X124025000Y-68575000D02*
X123725000Y-68575000D01*
G75*
G02*
X123575000Y-68425000I0J150000D01*
G01*
X123575000Y-66675000D01*
G75*
G02*
X123725000Y-66525000I150000J0D01*
G01*
X124025000Y-66525000D01*
G75*
G02*
X124175000Y-66675000I0J-150000D01*
G01*
X124175000Y-68425000D01*
G75*
G02*
X124025000Y-68575000I-150000J0D01*
G01*
G37*
%TD.AperFunction*%
%TO.P,U105,14*%
%TO.N,/SCL*%
%TA.AperFunction,SMDPad,CuDef*%
G36*
G01*
X125295000Y-68575000D02*
X124995000Y-68575000D01*
G75*
G02*
X124845000Y-68425000I0J150000D01*
G01*
X124845000Y-66675000D01*
G75*
G02*
X124995000Y-66525000I150000J0D01*
G01*
X125295000Y-66525000D01*
G75*
G02*
X125445000Y-66675000I0J-150000D01*
G01*
X125445000Y-68425000D01*
G75*
G02*
X125295000Y-68575000I-150000J0D01*
G01*
G37*
%TD.AperFunction*%
%TO.P,U105,13*%
%TO.N,N/C*%
%TA.AperFunction,SMDPad,CuDef*%
G36*
G01*
X126565000Y-68575000D02*
X126265000Y-68575000D01*
G75*
G02*
X126115000Y-68425000I0J150000D01*
G01*
X126115000Y-66675000D01*
G75*
G02*
X126265000Y-66525000I150000J0D01*
G01*
X126565000Y-66525000D01*
G75*
G02*
X126715000Y-66675000I0J-150000D01*
G01*
X126715000Y-68425000D01*
G75*
G02*
X126565000Y-68575000I-150000J0D01*
G01*
G37*
%TD.AperFunction*%
%TO.P,U105,12*%
%TO.N,GPIO7*%
%TA.AperFunction,SMDPad,CuDef*%
G36*
G01*
X127835000Y-68575000D02*
X127535000Y-68575000D01*
G75*
G02*
X127385000Y-68425000I0J150000D01*
G01*
X127385000Y-66675000D01*
G75*
G02*
X127535000Y-66525000I150000J0D01*
G01*
X127835000Y-66525000D01*
G75*
G02*
X127985000Y-66675000I0J-150000D01*
G01*
X127985000Y-68425000D01*
G75*
G02*
X127835000Y-68575000I-150000J0D01*
G01*
G37*
%TD.AperFunction*%
%TO.P,U105,11*%
%TO.N,GPIO6*%
%TA.AperFunction,SMDPad,CuDef*%
G36*
G01*
X129105000Y-68575000D02*
X128805000Y-68575000D01*
G75*
G02*
X128655000Y-68425000I0J150000D01*
G01*
X128655000Y-66675000D01*
G75*
G02*
X128805000Y-66525000I150000J0D01*
G01*
X129105000Y-66525000D01*
G75*
G02*
X129255000Y-66675000I0J-150000D01*
G01*
X129255000Y-68425000D01*
G75*
G02*
X129105000Y-68575000I-150000J0D01*
G01*
G37*
%TD.AperFunction*%
%TO.P,U105,10*%
%TO.N,/GPIO5*%
%TA.AperFunction,SMDPad,CuDef*%
G36*
G01*
X130375000Y-68575000D02*
X130075000Y-68575000D01*
G75*
G02*
X129925000Y-68425000I0J150000D01*
G01*
X129925000Y-66675000D01*
G75*
G02*
X130075000Y-66525000I150000J0D01*
G01*
X130375000Y-66525000D01*
G75*
G02*
X130525000Y-66675000I0J-150000D01*
G01*
X130525000Y-68425000D01*
G75*
G02*
X130375000Y-68575000I-150000J0D01*
G01*
G37*
%TD.AperFunction*%
%TO.P,U105,9*%
%TO.N,/GPIO4*%
%TA.AperFunction,SMDPad,CuDef*%
G36*
G01*
X131645000Y-68575000D02*
X131345000Y-68575000D01*
G75*
G02*
X131195000Y-68425000I0J150000D01*
G01*
X131195000Y-66675000D01*
G75*
G02*
X131345000Y-66525000I150000J0D01*
G01*
X131645000Y-66525000D01*
G75*
G02*
X131795000Y-66675000I0J-150000D01*
G01*
X131795000Y-68425000D01*
G75*
G02*
X131645000Y-68575000I-150000J0D01*
G01*
G37*
%TD.AperFunction*%
%TO.P,U105,8*%
%TO.N,GND*%
%TA.AperFunction,SMDPad,CuDef*%
G36*
G01*
X131645000Y-77875000D02*
X131345000Y-77875000D01*
G75*
G02*
X131195000Y-77725000I0J150000D01*
G01*
X131195000Y-75975000D01*
G75*
G02*
X131345000Y-75825000I150000J0D01*
G01*
X131645000Y-75825000D01*
G75*
G02*
X131795000Y-75975000I0J-150000D01*
G01*
X131795000Y-77725000D01*
G75*
G02*
X131645000Y-77875000I-150000J0D01*
G01*
G37*
%TD.AperFunction*%
%TO.P,U105,7*%
%TO.N,GPIO3*%
%TA.AperFunction,SMDPad,CuDef*%
G36*
G01*
X130375000Y-77875000D02*
X130075000Y-77875000D01*
G75*
G02*
X129925000Y-77725000I0J150000D01*
G01*
X129925000Y-75975000D01*
G75*
G02*
X130075000Y-75825000I150000J0D01*
G01*
X130375000Y-75825000D01*
G75*
G02*
X130525000Y-75975000I0J-150000D01*
G01*
X130525000Y-77725000D01*
G75*
G02*
X130375000Y-77875000I-150000J0D01*
G01*
G37*
%TD.AperFunction*%
%TO.P,U105,6*%
%TO.N,GPIO2*%
%TA.AperFunction,SMDPad,CuDef*%
G36*
G01*
X129105000Y-77875000D02*
X128805000Y-77875000D01*
G75*
G02*
X128655000Y-77725000I0J150000D01*
G01*
X128655000Y-75975000D01*
G75*
G02*
X128805000Y-75825000I150000J0D01*
G01*
X129105000Y-75825000D01*
G75*
G02*
X129255000Y-75975000I0J-150000D01*
G01*
X129255000Y-77725000D01*
G75*
G02*
X129105000Y-77875000I-150000J0D01*
G01*
G37*
%TD.AperFunction*%
%TO.P,U105,5*%
%TO.N,/GPIO1*%
%TA.AperFunction,SMDPad,CuDef*%
G36*
G01*
X127835000Y-77875000D02*
X127535000Y-77875000D01*
G75*
G02*
X127385000Y-77725000I0J150000D01*
G01*
X127385000Y-75975000D01*
G75*
G02*
X127535000Y-75825000I150000J0D01*
G01*
X127835000Y-75825000D01*
G75*
G02*
X127985000Y-75975000I0J-150000D01*
G01*
X127985000Y-77725000D01*
G75*
G02*
X127835000Y-77875000I-150000J0D01*
G01*
G37*
%TD.AperFunction*%
%TO.P,U105,4*%
%TO.N,/GPIO0*%
%TA.AperFunction,SMDPad,CuDef*%
G36*
G01*
X126565000Y-77875000D02*
X126265000Y-77875000D01*
G75*
G02*
X126115000Y-77725000I0J150000D01*
G01*
X126115000Y-75975000D01*
G75*
G02*
X126265000Y-75825000I150000J0D01*
G01*
X126565000Y-75825000D01*
G75*
G02*
X126715000Y-75975000I0J-150000D01*
G01*
X126715000Y-77725000D01*
G75*
G02*
X126565000Y-77875000I-150000J0D01*
G01*
G37*
%TD.AperFunction*%
%TO.P,U105,3*%
%TO.N,/A2*%
%TA.AperFunction,SMDPad,CuDef*%
G36*
G01*
X125295000Y-77875000D02*
X124995000Y-77875000D01*
G75*
G02*
X124845000Y-77725000I0J150000D01*
G01*
X124845000Y-75975000D01*
G75*
G02*
X124995000Y-75825000I150000J0D01*
G01*
X125295000Y-75825000D01*
G75*
G02*
X125445000Y-75975000I0J-150000D01*
G01*
X125445000Y-77725000D01*
G75*
G02*
X125295000Y-77875000I-150000J0D01*
G01*
G37*
%TD.AperFunction*%
%TO.P,U105,2*%
%TO.N,/A1*%
%TA.AperFunction,SMDPad,CuDef*%
G36*
G01*
X124025000Y-77875000D02*
X123725000Y-77875000D01*
G75*
G02*
X123575000Y-77725000I0J150000D01*
G01*
X123575000Y-75975000D01*
G75*
G02*
X123725000Y-75825000I150000J0D01*
G01*
X124025000Y-75825000D01*
G75*
G02*
X124175000Y-75975000I0J-150000D01*
G01*
X124175000Y-77725000D01*
G75*
G02*
X124025000Y-77875000I-150000J0D01*
G01*
G37*
%TD.AperFunction*%
%TO.P,U105,1*%
%TO.N,/A0*%
%TA.AperFunction,SMDPad,CuDef*%
G36*
G01*
X122755000Y-77875000D02*
X122455000Y-77875000D01*
G75*
G02*
X122305000Y-77725000I0J150000D01*
G01*
X122305000Y-75975000D01*
G75*
G02*
X122455000Y-75825000I150000J0D01*
G01*
X122755000Y-75825000D01*
G75*
G02*
X122905000Y-75975000I0J-150000D01*
G01*
X122905000Y-77725000D01*
G75*
G02*
X122755000Y-77875000I-150000J0D01*
G01*
G37*
%TD.AperFunction*%
%TD*%
%TO.P,R123,2*%
%TO.N,Net-(R110-Pad1)*%
%TA.AperFunction,SMDPad,CuDef*%
G36*
G01*
X138475000Y-85775000D02*
X137925000Y-85775000D01*
G75*
G02*
X137725000Y-85575000I0J200000D01*
G01*
X137725000Y-85175000D01*
G75*
G02*
X137925000Y-84975000I200000J0D01*
G01*
X138475000Y-84975000D01*
G75*
G02*
X138675000Y-85175000I0J-200000D01*
G01*
X138675000Y-85575000D01*
G75*
G02*
X138475000Y-85775000I-200000J0D01*
G01*
G37*
%TD.AperFunction*%
%TO.P,R123,1*%
%TO.N,Net-(J110-Pad2)*%
%TA.AperFunction,SMDPad,CuDef*%
G36*
G01*
X138475000Y-87425000D02*
X137925000Y-87425000D01*
G75*
G02*
X137725000Y-87225000I0J200000D01*
G01*
X137725000Y-86825000D01*
G75*
G02*
X137925000Y-86625000I200000J0D01*
G01*
X138475000Y-86625000D01*
G75*
G02*
X138675000Y-86825000I0J-200000D01*
G01*
X138675000Y-87225000D01*
G75*
G02*
X138475000Y-87425000I-200000J0D01*
G01*
G37*
%TD.AperFunction*%
%TD*%
%TO.P,R122,2*%
%TO.N,Net-(R114-Pad1)*%
%TA.AperFunction,SMDPad,CuDef*%
G36*
G01*
X140075000Y-85775000D02*
X139525000Y-85775000D01*
G75*
G02*
X139325000Y-85575000I0J200000D01*
G01*
X139325000Y-85175000D01*
G75*
G02*
X139525000Y-84975000I200000J0D01*
G01*
X140075000Y-84975000D01*
G75*
G02*
X140275000Y-85175000I0J-200000D01*
G01*
X140275000Y-85575000D01*
G75*
G02*
X140075000Y-85775000I-200000J0D01*
G01*
G37*
%TD.AperFunction*%
%TO.P,R122,1*%
%TO.N,Net-(J109-Pad2)*%
%TA.AperFunction,SMDPad,CuDef*%
G36*
G01*
X140075000Y-87425000D02*
X139525000Y-87425000D01*
G75*
G02*
X139325000Y-87225000I0J200000D01*
G01*
X139325000Y-86825000D01*
G75*
G02*
X139525000Y-86625000I200000J0D01*
G01*
X140075000Y-86625000D01*
G75*
G02*
X140275000Y-86825000I0J-200000D01*
G01*
X140275000Y-87225000D01*
G75*
G02*
X140075000Y-87425000I-200000J0D01*
G01*
G37*
%TD.AperFunction*%
%TD*%
%TO.P,R119,2*%
%TO.N,GND*%
%TA.AperFunction,SMDPad,CuDef*%
G36*
G01*
X141825000Y-103525000D02*
X142375000Y-103525000D01*
G75*
G02*
X142575000Y-103725000I0J-200000D01*
G01*
X142575000Y-104125000D01*
G75*
G02*
X142375000Y-104325000I-200000J0D01*
G01*
X141825000Y-104325000D01*
G75*
G02*
X141625000Y-104125000I0J200000D01*
G01*
X141625000Y-103725000D01*
G75*
G02*
X141825000Y-103525000I200000J0D01*
G01*
G37*
%TD.AperFunction*%
%TO.P,R119,1*%
%TO.N,/A0*%
%TA.AperFunction,SMDPad,CuDef*%
G36*
G01*
X141825000Y-101875000D02*
X142375000Y-101875000D01*
G75*
G02*
X142575000Y-102075000I0J-200000D01*
G01*
X142575000Y-102475000D01*
G75*
G02*
X142375000Y-102675000I-200000J0D01*
G01*
X141825000Y-102675000D01*
G75*
G02*
X141625000Y-102475000I0J200000D01*
G01*
X141625000Y-102075000D01*
G75*
G02*
X141825000Y-101875000I200000J0D01*
G01*
G37*
%TD.AperFunction*%
%TD*%
%TO.P,R118,2*%
%TO.N,GND*%
%TA.AperFunction,SMDPad,CuDef*%
G36*
G01*
X139325000Y-103525000D02*
X139875000Y-103525000D01*
G75*
G02*
X140075000Y-103725000I0J-200000D01*
G01*
X140075000Y-104125000D01*
G75*
G02*
X139875000Y-104325000I-200000J0D01*
G01*
X139325000Y-104325000D01*
G75*
G02*
X139125000Y-104125000I0J200000D01*
G01*
X139125000Y-103725000D01*
G75*
G02*
X139325000Y-103525000I200000J0D01*
G01*
G37*
%TD.AperFunction*%
%TO.P,R118,1*%
%TO.N,/A1*%
%TA.AperFunction,SMDPad,CuDef*%
G36*
G01*
X139325000Y-101875000D02*
X139875000Y-101875000D01*
G75*
G02*
X140075000Y-102075000I0J-200000D01*
G01*
X140075000Y-102475000D01*
G75*
G02*
X139875000Y-102675000I-200000J0D01*
G01*
X139325000Y-102675000D01*
G75*
G02*
X139125000Y-102475000I0J200000D01*
G01*
X139125000Y-102075000D01*
G75*
G02*
X139325000Y-101875000I200000J0D01*
G01*
G37*
%TD.AperFunction*%
%TD*%
%TO.P,R117,2*%
%TO.N,GND*%
%TA.AperFunction,SMDPad,CuDef*%
G36*
G01*
X136825000Y-103525000D02*
X137375000Y-103525000D01*
G75*
G02*
X137575000Y-103725000I0J-200000D01*
G01*
X137575000Y-104125000D01*
G75*
G02*
X137375000Y-104325000I-200000J0D01*
G01*
X136825000Y-104325000D01*
G75*
G02*
X136625000Y-104125000I0J200000D01*
G01*
X136625000Y-103725000D01*
G75*
G02*
X136825000Y-103525000I200000J0D01*
G01*
G37*
%TD.AperFunction*%
%TO.P,R117,1*%
%TO.N,/A2*%
%TA.AperFunction,SMDPad,CuDef*%
G36*
G01*
X136825000Y-101875000D02*
X137375000Y-101875000D01*
G75*
G02*
X137575000Y-102075000I0J-200000D01*
G01*
X137575000Y-102475000D01*
G75*
G02*
X137375000Y-102675000I-200000J0D01*
G01*
X136825000Y-102675000D01*
G75*
G02*
X136625000Y-102475000I0J200000D01*
G01*
X136625000Y-102075000D01*
G75*
G02*
X136825000Y-101875000I200000J0D01*
G01*
G37*
%TD.AperFunction*%
%TD*%
D18*
%TO.P,J106,6*%
%TO.N,+3V3*%
X137020000Y-99740000D03*
%TO.P,J106,5*%
%TO.N,/A2*%
X137020000Y-97200000D03*
%TO.P,J106,4*%
%TO.N,+3V3*%
X139560000Y-99740000D03*
%TO.P,J106,3*%
%TO.N,/A1*%
X139560000Y-97200000D03*
%TO.P,J106,2*%
%TO.N,+3V3*%
X142100000Y-99740000D03*
D19*
%TO.P,J106,1*%
%TO.N,/A0*%
X142100000Y-97200000D03*
%TD*%
D18*
%TO.P,J101,8*%
%TO.N,/SDA*%
X127680000Y-61340000D03*
%TO.P,J101,7*%
X127680000Y-63880000D03*
%TO.P,J101,6*%
%TO.N,/SCL*%
X125140000Y-61340000D03*
%TO.P,J101,5*%
X125140000Y-63880000D03*
%TO.P,J101,4*%
%TO.N,+3V3*%
X122600000Y-61340000D03*
%TO.P,J101,3*%
X122600000Y-63880000D03*
%TO.P,J101,2*%
%TO.N,GND*%
X120060000Y-61340000D03*
D19*
%TO.P,J101,1*%
X120060000Y-63880000D03*
%TD*%
%TO.P,U104,4*%
%TO.N,Net-(R115-Pad2)*%
%TA.AperFunction,SMDPad,CuDef*%
G36*
G01*
X144975000Y-76115000D02*
X144975000Y-75815000D01*
G75*
G02*
X145125000Y-75665000I150000J0D01*
G01*
X146450000Y-75665000D01*
G75*
G02*
X146600000Y-75815000I0J-150000D01*
G01*
X146600000Y-76115000D01*
G75*
G02*
X146450000Y-76265000I-150000J0D01*
G01*
X145125000Y-76265000D01*
G75*
G02*
X144975000Y-76115000I0J150000D01*
G01*
G37*
%TD.AperFunction*%
%TO.P,U104,3*%
%TO.N,GND2*%
%TA.AperFunction,SMDPad,CuDef*%
G36*
G01*
X144975000Y-77385000D02*
X144975000Y-77085000D01*
G75*
G02*
X145125000Y-76935000I150000J0D01*
G01*
X146450000Y-76935000D01*
G75*
G02*
X146600000Y-77085000I0J-150000D01*
G01*
X146600000Y-77385000D01*
G75*
G02*
X146450000Y-77535000I-150000J0D01*
G01*
X145125000Y-77535000D01*
G75*
G02*
X144975000Y-77385000I0J150000D01*
G01*
G37*
%TD.AperFunction*%
%TO.P,U104,2*%
%TO.N,GND*%
%TA.AperFunction,SMDPad,CuDef*%
G36*
G01*
X138600000Y-77385000D02*
X138600000Y-77085000D01*
G75*
G02*
X138750000Y-76935000I150000J0D01*
G01*
X140075000Y-76935000D01*
G75*
G02*
X140225000Y-77085000I0J-150000D01*
G01*
X140225000Y-77385000D01*
G75*
G02*
X140075000Y-77535000I-150000J0D01*
G01*
X138750000Y-77535000D01*
G75*
G02*
X138600000Y-77385000I0J150000D01*
G01*
G37*
%TD.AperFunction*%
%TO.P,U104,1*%
%TO.N,Net-(R114-Pad1)*%
%TA.AperFunction,SMDPad,CuDef*%
G36*
G01*
X138600000Y-76115000D02*
X138600000Y-75815000D01*
G75*
G02*
X138750000Y-75665000I150000J0D01*
G01*
X140075000Y-75665000D01*
G75*
G02*
X140225000Y-75815000I0J-150000D01*
G01*
X140225000Y-76115000D01*
G75*
G02*
X140075000Y-76265000I-150000J0D01*
G01*
X138750000Y-76265000D01*
G75*
G02*
X138600000Y-76115000I0J150000D01*
G01*
G37*
%TD.AperFunction*%
%TD*%
%TO.P,R116,2*%
%TO.N,Net-(R115-Pad2)*%
%TA.AperFunction,SMDPad,CuDef*%
G36*
G01*
X149225000Y-77775000D02*
X149225000Y-78325000D01*
G75*
G02*
X149025000Y-78525000I-200000J0D01*
G01*
X148625000Y-78525000D01*
G75*
G02*
X148425000Y-78325000I0J200000D01*
G01*
X148425000Y-77775000D01*
G75*
G02*
X148625000Y-77575000I200000J0D01*
G01*
X149025000Y-77575000D01*
G75*
G02*
X149225000Y-77775000I0J-200000D01*
G01*
G37*
%TD.AperFunction*%
%TO.P,R116,1*%
%TO.N,Net-(Q104-Pad1)*%
%TA.AperFunction,SMDPad,CuDef*%
G36*
G01*
X150875000Y-77775000D02*
X150875000Y-78325000D01*
G75*
G02*
X150675000Y-78525000I-200000J0D01*
G01*
X150275000Y-78525000D01*
G75*
G02*
X150075000Y-78325000I0J200000D01*
G01*
X150075000Y-77775000D01*
G75*
G02*
X150275000Y-77575000I200000J0D01*
G01*
X150675000Y-77575000D01*
G75*
G02*
X150875000Y-77775000I0J-200000D01*
G01*
G37*
%TD.AperFunction*%
%TD*%
%TO.P,R115,2*%
%TO.N,Net-(R115-Pad2)*%
%TA.AperFunction,SMDPad,CuDef*%
G36*
G01*
X149225000Y-76225000D02*
X149225000Y-76775000D01*
G75*
G02*
X149025000Y-76975000I-200000J0D01*
G01*
X148625000Y-76975000D01*
G75*
G02*
X148425000Y-76775000I0J200000D01*
G01*
X148425000Y-76225000D01*
G75*
G02*
X148625000Y-76025000I200000J0D01*
G01*
X149025000Y-76025000D01*
G75*
G02*
X149225000Y-76225000I0J-200000D01*
G01*
G37*
%TD.AperFunction*%
%TO.P,R115,1*%
%TO.N,/VIN4*%
%TA.AperFunction,SMDPad,CuDef*%
G36*
G01*
X150875000Y-76225000D02*
X150875000Y-76775000D01*
G75*
G02*
X150675000Y-76975000I-200000J0D01*
G01*
X150275000Y-76975000D01*
G75*
G02*
X150075000Y-76775000I0J200000D01*
G01*
X150075000Y-76225000D01*
G75*
G02*
X150275000Y-76025000I200000J0D01*
G01*
X150675000Y-76025000D01*
G75*
G02*
X150875000Y-76225000I0J-200000D01*
G01*
G37*
%TD.AperFunction*%
%TD*%
%TO.P,R114,2*%
%TO.N,/GPIO4*%
%TA.AperFunction,SMDPad,CuDef*%
G36*
G01*
X136325000Y-75525000D02*
X136325000Y-76075000D01*
G75*
G02*
X136125000Y-76275000I-200000J0D01*
G01*
X135725000Y-76275000D01*
G75*
G02*
X135525000Y-76075000I0J200000D01*
G01*
X135525000Y-75525000D01*
G75*
G02*
X135725000Y-75325000I200000J0D01*
G01*
X136125000Y-75325000D01*
G75*
G02*
X136325000Y-75525000I0J-200000D01*
G01*
G37*
%TD.AperFunction*%
%TO.P,R114,1*%
%TO.N,Net-(R114-Pad1)*%
%TA.AperFunction,SMDPad,CuDef*%
G36*
G01*
X137975000Y-75525000D02*
X137975000Y-76075000D01*
G75*
G02*
X137775000Y-76275000I-200000J0D01*
G01*
X137375000Y-76275000D01*
G75*
G02*
X137175000Y-76075000I0J200000D01*
G01*
X137175000Y-75525000D01*
G75*
G02*
X137375000Y-75325000I200000J0D01*
G01*
X137775000Y-75325000D01*
G75*
G02*
X137975000Y-75525000I0J-200000D01*
G01*
G37*
%TD.AperFunction*%
%TD*%
%TO.P,R113,2*%
%TO.N,Net-(D107-Pad2)*%
%TA.AperFunction,SMDPad,CuDef*%
G36*
G01*
X137175000Y-77625000D02*
X137175000Y-77075000D01*
G75*
G02*
X137375000Y-76875000I200000J0D01*
G01*
X137775000Y-76875000D01*
G75*
G02*
X137975000Y-77075000I0J-200000D01*
G01*
X137975000Y-77625000D01*
G75*
G02*
X137775000Y-77825000I-200000J0D01*
G01*
X137375000Y-77825000D01*
G75*
G02*
X137175000Y-77625000I0J200000D01*
G01*
G37*
%TD.AperFunction*%
%TO.P,R113,1*%
%TO.N,/GPIO4*%
%TA.AperFunction,SMDPad,CuDef*%
G36*
G01*
X135525000Y-77625000D02*
X135525000Y-77075000D01*
G75*
G02*
X135725000Y-76875000I200000J0D01*
G01*
X136125000Y-76875000D01*
G75*
G02*
X136325000Y-77075000I0J-200000D01*
G01*
X136325000Y-77625000D01*
G75*
G02*
X136125000Y-77825000I-200000J0D01*
G01*
X135725000Y-77825000D01*
G75*
G02*
X135525000Y-77625000I0J200000D01*
G01*
G37*
%TD.AperFunction*%
%TD*%
D20*
%TO.P,Q104,2*%
%TO.N,/VOUT4*%
X157000000Y-71625000D03*
D21*
%TO.P,Q104,3*%
%TO.N,/VIN4*%
X159540000Y-80775000D03*
%TO.P,Q104,1*%
%TO.N,Net-(Q104-Pad1)*%
X154460000Y-80775000D03*
%TD*%
D17*
%TO.P,D108,2*%
%TO.N,GND2*%
X170400000Y-62300000D03*
%TO.P,D108,1*%
%TO.N,/VOUT4*%
X170400000Y-65100000D03*
%TD*%
%TO.P,D107,2*%
%TO.N,Net-(D107-Pad2)*%
%TA.AperFunction,SMDPad,CuDef*%
G36*
G01*
X136400000Y-78593750D02*
X136400000Y-79106250D01*
G75*
G02*
X136181250Y-79325000I-218750J0D01*
G01*
X135743750Y-79325000D01*
G75*
G02*
X135525000Y-79106250I0J218750D01*
G01*
X135525000Y-78593750D01*
G75*
G02*
X135743750Y-78375000I218750J0D01*
G01*
X136181250Y-78375000D01*
G75*
G02*
X136400000Y-78593750I0J-218750D01*
G01*
G37*
%TD.AperFunction*%
%TO.P,D107,1*%
%TO.N,GND*%
%TA.AperFunction,SMDPad,CuDef*%
G36*
G01*
X137975000Y-78593750D02*
X137975000Y-79106250D01*
G75*
G02*
X137756250Y-79325000I-218750J0D01*
G01*
X137318750Y-79325000D01*
G75*
G02*
X137100000Y-79106250I0J218750D01*
G01*
X137100000Y-78593750D01*
G75*
G02*
X137318750Y-78375000I218750J0D01*
G01*
X137756250Y-78375000D01*
G75*
G02*
X137975000Y-78593750I0J-218750D01*
G01*
G37*
%TD.AperFunction*%
%TD*%
%TO.P,U103,4*%
%TO.N,Net-(R111-Pad2)*%
%TA.AperFunction,SMDPad,CuDef*%
G36*
G01*
X144975000Y-80715000D02*
X144975000Y-80415000D01*
G75*
G02*
X145125000Y-80265000I150000J0D01*
G01*
X146450000Y-80265000D01*
G75*
G02*
X146600000Y-80415000I0J-150000D01*
G01*
X146600000Y-80715000D01*
G75*
G02*
X146450000Y-80865000I-150000J0D01*
G01*
X145125000Y-80865000D01*
G75*
G02*
X144975000Y-80715000I0J150000D01*
G01*
G37*
%TD.AperFunction*%
%TO.P,U103,3*%
%TO.N,GND2*%
%TA.AperFunction,SMDPad,CuDef*%
G36*
G01*
X144975000Y-81985000D02*
X144975000Y-81685000D01*
G75*
G02*
X145125000Y-81535000I150000J0D01*
G01*
X146450000Y-81535000D01*
G75*
G02*
X146600000Y-81685000I0J-150000D01*
G01*
X146600000Y-81985000D01*
G75*
G02*
X146450000Y-82135000I-150000J0D01*
G01*
X145125000Y-82135000D01*
G75*
G02*
X144975000Y-81985000I0J150000D01*
G01*
G37*
%TD.AperFunction*%
%TO.P,U103,2*%
%TO.N,GND*%
%TA.AperFunction,SMDPad,CuDef*%
G36*
G01*
X138600000Y-81985000D02*
X138600000Y-81685000D01*
G75*
G02*
X138750000Y-81535000I150000J0D01*
G01*
X140075000Y-81535000D01*
G75*
G02*
X140225000Y-81685000I0J-150000D01*
G01*
X140225000Y-81985000D01*
G75*
G02*
X140075000Y-82135000I-150000J0D01*
G01*
X138750000Y-82135000D01*
G75*
G02*
X138600000Y-81985000I0J150000D01*
G01*
G37*
%TD.AperFunction*%
%TO.P,U103,1*%
%TO.N,Net-(R110-Pad1)*%
%TA.AperFunction,SMDPad,CuDef*%
G36*
G01*
X138600000Y-80715000D02*
X138600000Y-80415000D01*
G75*
G02*
X138750000Y-80265000I150000J0D01*
G01*
X140075000Y-80265000D01*
G75*
G02*
X140225000Y-80415000I0J-150000D01*
G01*
X140225000Y-80715000D01*
G75*
G02*
X140075000Y-80865000I-150000J0D01*
G01*
X138750000Y-80865000D01*
G75*
G02*
X138600000Y-80715000I0J150000D01*
G01*
G37*
%TD.AperFunction*%
%TD*%
%TO.P,R112,2*%
%TO.N,Net-(R111-Pad2)*%
%TA.AperFunction,SMDPad,CuDef*%
G36*
G01*
X155825000Y-103675000D02*
X155825000Y-103125000D01*
G75*
G02*
X156025000Y-102925000I200000J0D01*
G01*
X156425000Y-102925000D01*
G75*
G02*
X156625000Y-103125000I0J-200000D01*
G01*
X156625000Y-103675000D01*
G75*
G02*
X156425000Y-103875000I-200000J0D01*
G01*
X156025000Y-103875000D01*
G75*
G02*
X155825000Y-103675000I0J200000D01*
G01*
G37*
%TD.AperFunction*%
%TO.P,R112,1*%
%TO.N,Net-(Q103-Pad1)*%
%TA.AperFunction,SMDPad,CuDef*%
G36*
G01*
X154175000Y-103675000D02*
X154175000Y-103125000D01*
G75*
G02*
X154375000Y-102925000I200000J0D01*
G01*
X154775000Y-102925000D01*
G75*
G02*
X154975000Y-103125000I0J-200000D01*
G01*
X154975000Y-103675000D01*
G75*
G02*
X154775000Y-103875000I-200000J0D01*
G01*
X154375000Y-103875000D01*
G75*
G02*
X154175000Y-103675000I0J200000D01*
G01*
G37*
%TD.AperFunction*%
%TD*%
%TO.P,R111,2*%
%TO.N,Net-(R111-Pad2)*%
%TA.AperFunction,SMDPad,CuDef*%
G36*
G01*
X158175000Y-103125000D02*
X158175000Y-103675000D01*
G75*
G02*
X157975000Y-103875000I-200000J0D01*
G01*
X157575000Y-103875000D01*
G75*
G02*
X157375000Y-103675000I0J200000D01*
G01*
X157375000Y-103125000D01*
G75*
G02*
X157575000Y-102925000I200000J0D01*
G01*
X157975000Y-102925000D01*
G75*
G02*
X158175000Y-103125000I0J-200000D01*
G01*
G37*
%TD.AperFunction*%
%TO.P,R111,1*%
%TO.N,/VIN3*%
%TA.AperFunction,SMDPad,CuDef*%
G36*
G01*
X159825000Y-103125000D02*
X159825000Y-103675000D01*
G75*
G02*
X159625000Y-103875000I-200000J0D01*
G01*
X159225000Y-103875000D01*
G75*
G02*
X159025000Y-103675000I0J200000D01*
G01*
X159025000Y-103125000D01*
G75*
G02*
X159225000Y-102925000I200000J0D01*
G01*
X159625000Y-102925000D01*
G75*
G02*
X159825000Y-103125000I0J-200000D01*
G01*
G37*
%TD.AperFunction*%
%TD*%
%TO.P,R110,2*%
%TO.N,/GPIO5*%
%TA.AperFunction,SMDPad,CuDef*%
G36*
G01*
X136375000Y-80125000D02*
X136375000Y-80675000D01*
G75*
G02*
X136175000Y-80875000I-200000J0D01*
G01*
X135775000Y-80875000D01*
G75*
G02*
X135575000Y-80675000I0J200000D01*
G01*
X135575000Y-80125000D01*
G75*
G02*
X135775000Y-79925000I200000J0D01*
G01*
X136175000Y-79925000D01*
G75*
G02*
X136375000Y-80125000I0J-200000D01*
G01*
G37*
%TD.AperFunction*%
%TO.P,R110,1*%
%TO.N,Net-(R110-Pad1)*%
%TA.AperFunction,SMDPad,CuDef*%
G36*
G01*
X138025000Y-80125000D02*
X138025000Y-80675000D01*
G75*
G02*
X137825000Y-80875000I-200000J0D01*
G01*
X137425000Y-80875000D01*
G75*
G02*
X137225000Y-80675000I0J200000D01*
G01*
X137225000Y-80125000D01*
G75*
G02*
X137425000Y-79925000I200000J0D01*
G01*
X137825000Y-79925000D01*
G75*
G02*
X138025000Y-80125000I0J-200000D01*
G01*
G37*
%TD.AperFunction*%
%TD*%
%TO.P,R109,2*%
%TO.N,Net-(D105-Pad2)*%
%TA.AperFunction,SMDPad,CuDef*%
G36*
G01*
X137225000Y-82225000D02*
X137225000Y-81675000D01*
G75*
G02*
X137425000Y-81475000I200000J0D01*
G01*
X137825000Y-81475000D01*
G75*
G02*
X138025000Y-81675000I0J-200000D01*
G01*
X138025000Y-82225000D01*
G75*
G02*
X137825000Y-82425000I-200000J0D01*
G01*
X137425000Y-82425000D01*
G75*
G02*
X137225000Y-82225000I0J200000D01*
G01*
G37*
%TD.AperFunction*%
%TO.P,R109,1*%
%TO.N,/GPIO5*%
%TA.AperFunction,SMDPad,CuDef*%
G36*
G01*
X135575000Y-82225000D02*
X135575000Y-81675000D01*
G75*
G02*
X135775000Y-81475000I200000J0D01*
G01*
X136175000Y-81475000D01*
G75*
G02*
X136375000Y-81675000I0J-200000D01*
G01*
X136375000Y-82225000D01*
G75*
G02*
X136175000Y-82425000I-200000J0D01*
G01*
X135775000Y-82425000D01*
G75*
G02*
X135575000Y-82225000I0J200000D01*
G01*
G37*
%TD.AperFunction*%
%TD*%
D20*
%TO.P,Q103,2*%
%TO.N,/VOUT3*%
X157000000Y-90800000D03*
D21*
%TO.P,Q103,3*%
%TO.N,/VIN3*%
X159540000Y-99950000D03*
%TO.P,Q103,1*%
%TO.N,Net-(Q103-Pad1)*%
X154460000Y-99950000D03*
%TD*%
D17*
%TO.P,D106,2*%
%TO.N,GND2*%
X159000000Y-84600000D03*
%TO.P,D106,1*%
%TO.N,/VOUT3*%
X161800000Y-84600000D03*
%TD*%
%TO.P,D105,2*%
%TO.N,Net-(D105-Pad2)*%
%TA.AperFunction,SMDPad,CuDef*%
G36*
G01*
X136450000Y-83243750D02*
X136450000Y-83756250D01*
G75*
G02*
X136231250Y-83975000I-218750J0D01*
G01*
X135793750Y-83975000D01*
G75*
G02*
X135575000Y-83756250I0J218750D01*
G01*
X135575000Y-83243750D01*
G75*
G02*
X135793750Y-83025000I218750J0D01*
G01*
X136231250Y-83025000D01*
G75*
G02*
X136450000Y-83243750I0J-218750D01*
G01*
G37*
%TD.AperFunction*%
%TO.P,D105,1*%
%TO.N,GND*%
%TA.AperFunction,SMDPad,CuDef*%
G36*
G01*
X138025000Y-83243750D02*
X138025000Y-83756250D01*
G75*
G02*
X137806250Y-83975000I-218750J0D01*
G01*
X137368750Y-83975000D01*
G75*
G02*
X137150000Y-83756250I0J218750D01*
G01*
X137150000Y-83243750D01*
G75*
G02*
X137368750Y-83025000I218750J0D01*
G01*
X137806250Y-83025000D01*
G75*
G02*
X138025000Y-83243750I0J-218750D01*
G01*
G37*
%TD.AperFunction*%
%TD*%
%TO.P,U102,4*%
%TO.N,Net-(R107-Pad2)*%
%TA.AperFunction,SMDPad,CuDef*%
G36*
G01*
X123225000Y-96085000D02*
X123225000Y-96385000D01*
G75*
G02*
X123075000Y-96535000I-150000J0D01*
G01*
X121750000Y-96535000D01*
G75*
G02*
X121600000Y-96385000I0J150000D01*
G01*
X121600000Y-96085000D01*
G75*
G02*
X121750000Y-95935000I150000J0D01*
G01*
X123075000Y-95935000D01*
G75*
G02*
X123225000Y-96085000I0J-150000D01*
G01*
G37*
%TD.AperFunction*%
%TO.P,U102,3*%
%TO.N,GND1*%
%TA.AperFunction,SMDPad,CuDef*%
G36*
G01*
X123225000Y-94815000D02*
X123225000Y-95115000D01*
G75*
G02*
X123075000Y-95265000I-150000J0D01*
G01*
X121750000Y-95265000D01*
G75*
G02*
X121600000Y-95115000I0J150000D01*
G01*
X121600000Y-94815000D01*
G75*
G02*
X121750000Y-94665000I150000J0D01*
G01*
X123075000Y-94665000D01*
G75*
G02*
X123225000Y-94815000I0J-150000D01*
G01*
G37*
%TD.AperFunction*%
%TO.P,U102,2*%
%TO.N,GND*%
%TA.AperFunction,SMDPad,CuDef*%
G36*
G01*
X129600000Y-94815000D02*
X129600000Y-95115000D01*
G75*
G02*
X129450000Y-95265000I-150000J0D01*
G01*
X128125000Y-95265000D01*
G75*
G02*
X127975000Y-95115000I0J150000D01*
G01*
X127975000Y-94815000D01*
G75*
G02*
X128125000Y-94665000I150000J0D01*
G01*
X129450000Y-94665000D01*
G75*
G02*
X129600000Y-94815000I0J-150000D01*
G01*
G37*
%TD.AperFunction*%
%TO.P,U102,1*%
%TO.N,Net-(R106-Pad1)*%
%TA.AperFunction,SMDPad,CuDef*%
G36*
G01*
X129600000Y-96085000D02*
X129600000Y-96385000D01*
G75*
G02*
X129450000Y-96535000I-150000J0D01*
G01*
X128125000Y-96535000D01*
G75*
G02*
X127975000Y-96385000I0J150000D01*
G01*
X127975000Y-96085000D01*
G75*
G02*
X128125000Y-95935000I150000J0D01*
G01*
X129450000Y-95935000D01*
G75*
G02*
X129600000Y-96085000I0J-150000D01*
G01*
G37*
%TD.AperFunction*%
%TD*%
%TO.P,R108,2*%
%TO.N,Net-(R107-Pad2)*%
%TA.AperFunction,SMDPad,CuDef*%
G36*
G01*
X118725000Y-94475000D02*
X118725000Y-93925000D01*
G75*
G02*
X118925000Y-93725000I200000J0D01*
G01*
X119325000Y-93725000D01*
G75*
G02*
X119525000Y-93925000I0J-200000D01*
G01*
X119525000Y-94475000D01*
G75*
G02*
X119325000Y-94675000I-200000J0D01*
G01*
X118925000Y-94675000D01*
G75*
G02*
X118725000Y-94475000I0J200000D01*
G01*
G37*
%TD.AperFunction*%
%TO.P,R108,1*%
%TO.N,Net-(Q102-Pad1)*%
%TA.AperFunction,SMDPad,CuDef*%
G36*
G01*
X117075000Y-94475000D02*
X117075000Y-93925000D01*
G75*
G02*
X117275000Y-93725000I200000J0D01*
G01*
X117675000Y-93725000D01*
G75*
G02*
X117875000Y-93925000I0J-200000D01*
G01*
X117875000Y-94475000D01*
G75*
G02*
X117675000Y-94675000I-200000J0D01*
G01*
X117275000Y-94675000D01*
G75*
G02*
X117075000Y-94475000I0J200000D01*
G01*
G37*
%TD.AperFunction*%
%TD*%
%TO.P,R107,2*%
%TO.N,Net-(R107-Pad2)*%
%TA.AperFunction,SMDPad,CuDef*%
G36*
G01*
X118725000Y-96075000D02*
X118725000Y-95525000D01*
G75*
G02*
X118925000Y-95325000I200000J0D01*
G01*
X119325000Y-95325000D01*
G75*
G02*
X119525000Y-95525000I0J-200000D01*
G01*
X119525000Y-96075000D01*
G75*
G02*
X119325000Y-96275000I-200000J0D01*
G01*
X118925000Y-96275000D01*
G75*
G02*
X118725000Y-96075000I0J200000D01*
G01*
G37*
%TD.AperFunction*%
%TO.P,R107,1*%
%TO.N,/VIN2*%
%TA.AperFunction,SMDPad,CuDef*%
G36*
G01*
X117075000Y-96075000D02*
X117075000Y-95525000D01*
G75*
G02*
X117275000Y-95325000I200000J0D01*
G01*
X117675000Y-95325000D01*
G75*
G02*
X117875000Y-95525000I0J-200000D01*
G01*
X117875000Y-96075000D01*
G75*
G02*
X117675000Y-96275000I-200000J0D01*
G01*
X117275000Y-96275000D01*
G75*
G02*
X117075000Y-96075000I0J200000D01*
G01*
G37*
%TD.AperFunction*%
%TD*%
%TO.P,R106,2*%
%TO.N,/GPIO1*%
%TA.AperFunction,SMDPad,CuDef*%
G36*
G01*
X132225000Y-96675000D02*
X132225000Y-96125000D01*
G75*
G02*
X132425000Y-95925000I200000J0D01*
G01*
X132825000Y-95925000D01*
G75*
G02*
X133025000Y-96125000I0J-200000D01*
G01*
X133025000Y-96675000D01*
G75*
G02*
X132825000Y-96875000I-200000J0D01*
G01*
X132425000Y-96875000D01*
G75*
G02*
X132225000Y-96675000I0J200000D01*
G01*
G37*
%TD.AperFunction*%
%TO.P,R106,1*%
%TO.N,Net-(R106-Pad1)*%
%TA.AperFunction,SMDPad,CuDef*%
G36*
G01*
X130575000Y-96675000D02*
X130575000Y-96125000D01*
G75*
G02*
X130775000Y-95925000I200000J0D01*
G01*
X131175000Y-95925000D01*
G75*
G02*
X131375000Y-96125000I0J-200000D01*
G01*
X131375000Y-96675000D01*
G75*
G02*
X131175000Y-96875000I-200000J0D01*
G01*
X130775000Y-96875000D01*
G75*
G02*
X130575000Y-96675000I0J200000D01*
G01*
G37*
%TD.AperFunction*%
%TD*%
%TO.P,R105,2*%
%TO.N,Net-(D103-Pad2)*%
%TA.AperFunction,SMDPad,CuDef*%
G36*
G01*
X131375000Y-94525000D02*
X131375000Y-95075000D01*
G75*
G02*
X131175000Y-95275000I-200000J0D01*
G01*
X130775000Y-95275000D01*
G75*
G02*
X130575000Y-95075000I0J200000D01*
G01*
X130575000Y-94525000D01*
G75*
G02*
X130775000Y-94325000I200000J0D01*
G01*
X131175000Y-94325000D01*
G75*
G02*
X131375000Y-94525000I0J-200000D01*
G01*
G37*
%TD.AperFunction*%
%TO.P,R105,1*%
%TO.N,/GPIO1*%
%TA.AperFunction,SMDPad,CuDef*%
G36*
G01*
X133025000Y-94525000D02*
X133025000Y-95075000D01*
G75*
G02*
X132825000Y-95275000I-200000J0D01*
G01*
X132425000Y-95275000D01*
G75*
G02*
X132225000Y-95075000I0J200000D01*
G01*
X132225000Y-94525000D01*
G75*
G02*
X132425000Y-94325000I200000J0D01*
G01*
X132825000Y-94325000D01*
G75*
G02*
X133025000Y-94525000I0J-200000D01*
G01*
G37*
%TD.AperFunction*%
%TD*%
D20*
%TO.P,Q102,2*%
%TO.N,/VOUT2*%
X110998000Y-100575000D03*
D21*
%TO.P,Q102,3*%
%TO.N,/VIN2*%
X108458000Y-91425000D03*
%TO.P,Q102,1*%
%TO.N,Net-(Q102-Pad1)*%
X113538000Y-91425000D03*
%TD*%
D17*
%TO.P,D104,2*%
%TO.N,GND1*%
X97800000Y-109600000D03*
%TO.P,D104,1*%
%TO.N,/VOUT2*%
X97800000Y-106800000D03*
%TD*%
%TO.P,D103,2*%
%TO.N,Net-(D103-Pad2)*%
%TA.AperFunction,SMDPad,CuDef*%
G36*
G01*
X132150000Y-93456250D02*
X132150000Y-92943750D01*
G75*
G02*
X132368750Y-92725000I218750J0D01*
G01*
X132806250Y-92725000D01*
G75*
G02*
X133025000Y-92943750I0J-218750D01*
G01*
X133025000Y-93456250D01*
G75*
G02*
X132806250Y-93675000I-218750J0D01*
G01*
X132368750Y-93675000D01*
G75*
G02*
X132150000Y-93456250I0J218750D01*
G01*
G37*
%TD.AperFunction*%
%TO.P,D103,1*%
%TO.N,GND*%
%TA.AperFunction,SMDPad,CuDef*%
G36*
G01*
X130575000Y-93456250D02*
X130575000Y-92943750D01*
G75*
G02*
X130793750Y-92725000I218750J0D01*
G01*
X131231250Y-92725000D01*
G75*
G02*
X131450000Y-92943750I0J-218750D01*
G01*
X131450000Y-93456250D01*
G75*
G02*
X131231250Y-93675000I-218750J0D01*
G01*
X130793750Y-93675000D01*
G75*
G02*
X130575000Y-93456250I0J218750D01*
G01*
G37*
%TD.AperFunction*%
%TD*%
%TO.P,U101,4*%
%TO.N,Net-(R103-Pad2)*%
%TA.AperFunction,SMDPad,CuDef*%
G36*
G01*
X123225000Y-91285000D02*
X123225000Y-91585000D01*
G75*
G02*
X123075000Y-91735000I-150000J0D01*
G01*
X121750000Y-91735000D01*
G75*
G02*
X121600000Y-91585000I0J150000D01*
G01*
X121600000Y-91285000D01*
G75*
G02*
X121750000Y-91135000I150000J0D01*
G01*
X123075000Y-91135000D01*
G75*
G02*
X123225000Y-91285000I0J-150000D01*
G01*
G37*
%TD.AperFunction*%
%TO.P,U101,3*%
%TO.N,GND1*%
%TA.AperFunction,SMDPad,CuDef*%
G36*
G01*
X123225000Y-90015000D02*
X123225000Y-90315000D01*
G75*
G02*
X123075000Y-90465000I-150000J0D01*
G01*
X121750000Y-90465000D01*
G75*
G02*
X121600000Y-90315000I0J150000D01*
G01*
X121600000Y-90015000D01*
G75*
G02*
X121750000Y-89865000I150000J0D01*
G01*
X123075000Y-89865000D01*
G75*
G02*
X123225000Y-90015000I0J-150000D01*
G01*
G37*
%TD.AperFunction*%
%TO.P,U101,2*%
%TO.N,GND*%
%TA.AperFunction,SMDPad,CuDef*%
G36*
G01*
X129600000Y-90015000D02*
X129600000Y-90315000D01*
G75*
G02*
X129450000Y-90465000I-150000J0D01*
G01*
X128125000Y-90465000D01*
G75*
G02*
X127975000Y-90315000I0J150000D01*
G01*
X127975000Y-90015000D01*
G75*
G02*
X128125000Y-89865000I150000J0D01*
G01*
X129450000Y-89865000D01*
G75*
G02*
X129600000Y-90015000I0J-150000D01*
G01*
G37*
%TD.AperFunction*%
%TO.P,U101,1*%
%TO.N,Net-(R102-Pad1)*%
%TA.AperFunction,SMDPad,CuDef*%
G36*
G01*
X129600000Y-91285000D02*
X129600000Y-91585000D01*
G75*
G02*
X129450000Y-91735000I-150000J0D01*
G01*
X128125000Y-91735000D01*
G75*
G02*
X127975000Y-91585000I0J150000D01*
G01*
X127975000Y-91285000D01*
G75*
G02*
X128125000Y-91135000I150000J0D01*
G01*
X129450000Y-91135000D01*
G75*
G02*
X129600000Y-91285000I0J-150000D01*
G01*
G37*
%TD.AperFunction*%
%TD*%
%TO.P,R104,2*%
%TO.N,Net-(R103-Pad2)*%
%TA.AperFunction,SMDPad,CuDef*%
G36*
G01*
X112175000Y-67725000D02*
X112175000Y-68275000D01*
G75*
G02*
X111975000Y-68475000I-200000J0D01*
G01*
X111575000Y-68475000D01*
G75*
G02*
X111375000Y-68275000I0J200000D01*
G01*
X111375000Y-67725000D01*
G75*
G02*
X111575000Y-67525000I200000J0D01*
G01*
X111975000Y-67525000D01*
G75*
G02*
X112175000Y-67725000I0J-200000D01*
G01*
G37*
%TD.AperFunction*%
%TO.P,R104,1*%
%TO.N,Net-(Q101-Pad1)*%
%TA.AperFunction,SMDPad,CuDef*%
G36*
G01*
X113825000Y-67725000D02*
X113825000Y-68275000D01*
G75*
G02*
X113625000Y-68475000I-200000J0D01*
G01*
X113225000Y-68475000D01*
G75*
G02*
X113025000Y-68275000I0J200000D01*
G01*
X113025000Y-67725000D01*
G75*
G02*
X113225000Y-67525000I200000J0D01*
G01*
X113625000Y-67525000D01*
G75*
G02*
X113825000Y-67725000I0J-200000D01*
G01*
G37*
%TD.AperFunction*%
%TD*%
%TO.P,R103,2*%
%TO.N,Net-(R103-Pad2)*%
%TA.AperFunction,SMDPad,CuDef*%
G36*
G01*
X109625000Y-68275000D02*
X109625000Y-67725000D01*
G75*
G02*
X109825000Y-67525000I200000J0D01*
G01*
X110225000Y-67525000D01*
G75*
G02*
X110425000Y-67725000I0J-200000D01*
G01*
X110425000Y-68275000D01*
G75*
G02*
X110225000Y-68475000I-200000J0D01*
G01*
X109825000Y-68475000D01*
G75*
G02*
X109625000Y-68275000I0J200000D01*
G01*
G37*
%TD.AperFunction*%
%TO.P,R103,1*%
%TO.N,/VIN1*%
%TA.AperFunction,SMDPad,CuDef*%
G36*
G01*
X107975000Y-68275000D02*
X107975000Y-67725000D01*
G75*
G02*
X108175000Y-67525000I200000J0D01*
G01*
X108575000Y-67525000D01*
G75*
G02*
X108775000Y-67725000I0J-200000D01*
G01*
X108775000Y-68275000D01*
G75*
G02*
X108575000Y-68475000I-200000J0D01*
G01*
X108175000Y-68475000D01*
G75*
G02*
X107975000Y-68275000I0J200000D01*
G01*
G37*
%TD.AperFunction*%
%TD*%
%TO.P,R102,2*%
%TO.N,/GPIO0*%
%TA.AperFunction,SMDPad,CuDef*%
G36*
G01*
X132225000Y-91875000D02*
X132225000Y-91325000D01*
G75*
G02*
X132425000Y-91125000I200000J0D01*
G01*
X132825000Y-91125000D01*
G75*
G02*
X133025000Y-91325000I0J-200000D01*
G01*
X133025000Y-91875000D01*
G75*
G02*
X132825000Y-92075000I-200000J0D01*
G01*
X132425000Y-92075000D01*
G75*
G02*
X132225000Y-91875000I0J200000D01*
G01*
G37*
%TD.AperFunction*%
%TO.P,R102,1*%
%TO.N,Net-(R102-Pad1)*%
%TA.AperFunction,SMDPad,CuDef*%
G36*
G01*
X130575000Y-91875000D02*
X130575000Y-91325000D01*
G75*
G02*
X130775000Y-91125000I200000J0D01*
G01*
X131175000Y-91125000D01*
G75*
G02*
X131375000Y-91325000I0J-200000D01*
G01*
X131375000Y-91875000D01*
G75*
G02*
X131175000Y-92075000I-200000J0D01*
G01*
X130775000Y-92075000D01*
G75*
G02*
X130575000Y-91875000I0J200000D01*
G01*
G37*
%TD.AperFunction*%
%TD*%
D20*
%TO.P,Q101,2*%
%TO.N,/VOUT1*%
X110998000Y-80591000D03*
D21*
%TO.P,Q101,3*%
%TO.N,/VIN1*%
X108458000Y-71441000D03*
%TO.P,Q101,1*%
%TO.N,Net-(Q101-Pad1)*%
X113538000Y-71441000D03*
%TD*%
D17*
%TO.P,D102,2*%
%TO.N,GND1*%
X108900000Y-87100000D03*
%TO.P,D102,1*%
%TO.N,/VOUT1*%
X106100000Y-87100000D03*
%TD*%
%TO.P,D101,2*%
%TO.N,Net-(D101-Pad2)*%
%TA.AperFunction,SMDPad,CuDef*%
G36*
G01*
X132150000Y-88656250D02*
X132150000Y-88143750D01*
G75*
G02*
X132368750Y-87925000I218750J0D01*
G01*
X132806250Y-87925000D01*
G75*
G02*
X133025000Y-88143750I0J-218750D01*
G01*
X133025000Y-88656250D01*
G75*
G02*
X132806250Y-88875000I-218750J0D01*
G01*
X132368750Y-88875000D01*
G75*
G02*
X132150000Y-88656250I0J218750D01*
G01*
G37*
%TD.AperFunction*%
%TO.P,D101,1*%
%TO.N,GND*%
%TA.AperFunction,SMDPad,CuDef*%
G36*
G01*
X130575000Y-88656250D02*
X130575000Y-88143750D01*
G75*
G02*
X130793750Y-87925000I218750J0D01*
G01*
X131231250Y-87925000D01*
G75*
G02*
X131450000Y-88143750I0J-218750D01*
G01*
X131450000Y-88656250D01*
G75*
G02*
X131231250Y-88875000I-218750J0D01*
G01*
X130793750Y-88875000D01*
G75*
G02*
X130575000Y-88656250I0J218750D01*
G01*
G37*
%TD.AperFunction*%
%TD*%
D22*
%TO.N,+3V3*%
X122400000Y-66000000D03*
X122600000Y-68900000D03*
X139000000Y-91000000D03*
X129000000Y-81500000D03*
D23*
X131400000Y-86000000D03*
X129900000Y-104400000D03*
X139600000Y-67700000D03*
D22*
X128800000Y-99100000D03*
X128800000Y-108400000D03*
X134600000Y-99900000D03*
X139400000Y-73400000D03*
X133000000Y-60200000D03*
X139500000Y-66000000D03*
%TO.N,GND*%
X129876250Y-93876250D03*
X129876250Y-89076250D03*
X138900000Y-77850000D03*
X138493750Y-82593750D03*
X131500000Y-75600000D03*
X131300000Y-78300000D03*
X137100000Y-104700000D03*
X139600000Y-104700000D03*
X142100000Y-104700000D03*
D23*
X137300000Y-67700000D03*
X129900000Y-106500000D03*
D22*
X130800000Y-98700000D03*
X128100000Y-103500000D03*
X130700000Y-108100000D03*
X127500000Y-113000000D03*
X134600000Y-97600000D03*
X137500000Y-73600000D03*
X140700000Y-68700000D03*
X131800000Y-64600000D03*
X132000000Y-60200000D03*
X137900000Y-66200000D03*
X140800000Y-63000000D03*
%TO.N,GND1*%
X121200000Y-94400000D03*
X121200000Y-89800000D03*
X109700000Y-87100000D03*
X120000000Y-105800000D03*
X118600000Y-113400000D03*
X122400000Y-101600000D03*
X122400000Y-110900000D03*
%TO.N,GND2*%
X158000000Y-84600000D03*
X147100000Y-81850000D03*
X147050000Y-77200000D03*
X148350000Y-66600000D03*
X149450000Y-59400000D03*
X145800000Y-70700000D03*
X145900000Y-63100000D03*
D24*
%TO.N,/VOUT1*%
X108750000Y-80250000D03*
X108750000Y-78500000D03*
X108750000Y-81750000D03*
X108750000Y-83500000D03*
X107250000Y-79000000D03*
X107250000Y-80750000D03*
X107250000Y-82250000D03*
X107250000Y-84000000D03*
X105750000Y-83250000D03*
X105750000Y-78250000D03*
X105750000Y-80000000D03*
X105750000Y-81500000D03*
X99250000Y-79500000D03*
X99250000Y-82500000D03*
%TO.N,/VOUT2*%
X108000000Y-97500000D03*
X106500000Y-103000000D03*
X106500000Y-98000000D03*
X105000000Y-100500000D03*
X106500000Y-99750000D03*
X106500000Y-101250000D03*
X108000000Y-99250000D03*
X108000000Y-100750000D03*
X108000000Y-102500000D03*
X99750000Y-98000000D03*
X99750000Y-102250000D03*
X105000000Y-102250000D03*
X105000000Y-98750000D03*
X105000000Y-97000000D03*
%TO.N,/VOUT3*%
X159000000Y-92500000D03*
X159000000Y-88750000D03*
X160500000Y-87750000D03*
X160000000Y-94000000D03*
X160000000Y-90750000D03*
X161250000Y-92250000D03*
X161250000Y-89500000D03*
X162750000Y-90750000D03*
X169000000Y-91750000D03*
X169000000Y-89500000D03*
X162750000Y-88250000D03*
%TO.N,/VOUT4*%
X160000000Y-75000000D03*
X160000000Y-72250000D03*
X160000000Y-69500000D03*
X161750000Y-68500000D03*
X161750000Y-74000000D03*
X161750000Y-71000000D03*
X163500000Y-72250000D03*
X168750000Y-69750000D03*
X168750000Y-73250000D03*
X163500000Y-69750000D03*
%TO.N,/VIN2*%
X107750000Y-89000000D03*
X107750000Y-90750000D03*
X107750000Y-92250000D03*
X107750000Y-94000000D03*
X106250000Y-89750000D03*
X106250000Y-91500000D03*
X106250000Y-93250000D03*
X103250000Y-87500000D03*
X99750000Y-89250000D03*
X99750000Y-92000000D03*
%TO.N,/VIN1*%
X108375000Y-69125000D03*
X107250000Y-70500000D03*
X107250000Y-72000000D03*
X107250000Y-73500000D03*
X108500000Y-74500000D03*
X104750000Y-70500000D03*
X104750000Y-72000000D03*
X104750000Y-73500000D03*
X106000000Y-69250000D03*
X106250000Y-74500000D03*
X99000000Y-70000000D03*
X99000000Y-72500000D03*
%TO.N,/VIN4*%
X160500000Y-78250000D03*
X160500000Y-80000000D03*
X160500000Y-81750000D03*
X160500000Y-83250000D03*
X162250000Y-79000000D03*
X162500000Y-81000000D03*
X162500000Y-82750000D03*
X168750000Y-79000000D03*
X168750000Y-82250000D03*
%TO.N,/VIN3*%
X160000000Y-101500000D03*
X159750000Y-100000000D03*
X159500000Y-97750000D03*
X163500000Y-103000000D03*
X160500000Y-103250000D03*
X162250000Y-101000000D03*
X162250000Y-98250000D03*
X169000000Y-99000000D03*
X169000000Y-101250000D03*
%TD*%
D25*
%TO.N,+3V3*%
X122605000Y-66205000D02*
X122400000Y-66000000D01*
X122605000Y-67550000D02*
X122605000Y-66205000D01*
X122605000Y-68895000D02*
X122600000Y-68900000D01*
X122605000Y-67550000D02*
X122605000Y-68895000D01*
D26*
X138925000Y-90125000D02*
X138925000Y-90925000D01*
X138000000Y-90125000D02*
X138925000Y-90125000D01*
X138925000Y-90925000D02*
X139000000Y-91000000D01*
X138925000Y-90125000D02*
X140000000Y-90125000D01*
D25*
X128975000Y-81525000D02*
X129000000Y-81500000D01*
X130000000Y-82175000D02*
X128975000Y-82175000D01*
X128975000Y-82175000D02*
X128975000Y-81525000D01*
X128975000Y-82175000D02*
X128000000Y-82175000D01*
X121880000Y-60620000D02*
X122600000Y-61340000D01*
X121880000Y-59000000D02*
X121880000Y-60620000D01*
X122100000Y-66300000D02*
X122400000Y-66000000D01*
X121180000Y-66300000D02*
X122100000Y-66300000D01*
X132380000Y-86690000D02*
X131690000Y-86000000D01*
X131690000Y-86000000D02*
X131400000Y-86000000D01*
X132380000Y-87000000D02*
X132380000Y-86690000D01*
X129900000Y-104920000D02*
X129900000Y-104400000D01*
X138780000Y-67700000D02*
X139600000Y-67700000D01*
X128787500Y-99112500D02*
X128800000Y-99100000D01*
X128787500Y-99675000D02*
X128787500Y-99112500D01*
X128787500Y-108412500D02*
X128800000Y-108400000D01*
X128787500Y-108965000D02*
X128787500Y-108412500D01*
X135160000Y-99740000D02*
X134600000Y-99180000D01*
X137020000Y-99740000D02*
X135160000Y-99740000D01*
X134600000Y-99180000D02*
X134600000Y-99900000D01*
X139412500Y-73387500D02*
X139400000Y-73400000D01*
X139412500Y-72635000D02*
X139412500Y-73387500D01*
D26*
X133000000Y-61425000D02*
X133000000Y-60200000D01*
X139512500Y-65987500D02*
X139500000Y-66000000D01*
X139512500Y-65135000D02*
X139512500Y-65987500D01*
D25*
%TO.N,GND*%
X131012500Y-93200000D02*
X130552500Y-93200000D01*
X128787500Y-94965000D02*
X129876250Y-93876250D01*
X130552500Y-93200000D02*
X129876250Y-93876250D01*
X131012500Y-88400000D02*
X130552500Y-88400000D01*
X128787500Y-90165000D02*
X129876250Y-89076250D01*
X130552500Y-88400000D02*
X129876250Y-89076250D01*
X139412500Y-77337500D02*
X138900000Y-77850000D01*
X139412500Y-77235000D02*
X139412500Y-77337500D01*
X137900000Y-78850000D02*
X138900000Y-77850000D01*
X137537500Y-78850000D02*
X137900000Y-78850000D01*
X139252500Y-81835000D02*
X138493750Y-82593750D01*
X139412500Y-81835000D02*
X139252500Y-81835000D01*
X138493750Y-82593750D02*
X137587500Y-83500000D01*
X131495000Y-75605000D02*
X131500000Y-75600000D01*
X131495000Y-76850000D02*
X131495000Y-75605000D01*
X131495000Y-78105000D02*
X131400000Y-78200000D01*
X131495000Y-76850000D02*
X131495000Y-78105000D01*
D26*
X137100000Y-103925000D02*
X137100000Y-104700000D01*
X139600000Y-103925000D02*
X139600000Y-104700000D01*
X142100000Y-103925000D02*
X142100000Y-104700000D01*
D25*
X137820000Y-67700000D02*
X137300000Y-67700000D01*
X120920000Y-60480000D02*
X120060000Y-61340000D01*
X120920000Y-59000000D02*
X120920000Y-60480000D01*
X120060000Y-66140000D02*
X120220000Y-66300000D01*
X120060000Y-63880000D02*
X120060000Y-66140000D01*
X131420000Y-87992500D02*
X131012500Y-88400000D01*
X131420000Y-87000000D02*
X131420000Y-87992500D01*
X129900000Y-105880000D02*
X129900000Y-106500000D01*
X130800000Y-99512500D02*
X130800000Y-98700000D01*
X127575000Y-102975000D02*
X128100000Y-103500000D01*
X127575000Y-102700000D02*
X127575000Y-102975000D01*
X130700000Y-108812500D02*
X130700000Y-108100000D01*
X127575000Y-112925000D02*
X127500000Y-113000000D01*
X127575000Y-112100000D02*
X127575000Y-112925000D01*
X134600000Y-98220000D02*
X134600000Y-97600000D01*
X137500000Y-72787500D02*
X137500000Y-73600000D01*
X140725000Y-68725000D02*
X140700000Y-68700000D01*
X140725000Y-69600000D02*
X140725000Y-68725000D01*
D26*
X130137500Y-64300000D02*
X130900000Y-64300000D01*
X131500000Y-64300000D02*
X131800000Y-64600000D01*
X130900000Y-64300000D02*
X131500000Y-64300000D01*
X132000000Y-61425000D02*
X132000000Y-60200000D01*
X137625000Y-65925000D02*
X137900000Y-66200000D01*
X137625000Y-65287500D02*
X137625000Y-65925000D01*
X140825000Y-62975000D02*
X140800000Y-63000000D01*
X140825000Y-62100000D02*
X140825000Y-62975000D01*
D25*
%TO.N,Net-(D101-Pad2)*%
X130987500Y-90000000D02*
X132587500Y-88400000D01*
X130975000Y-90000000D02*
X130987500Y-90000000D01*
D26*
%TO.N,Net-(Q101-Pad1)*%
X113538000Y-68113000D02*
X113425000Y-68000000D01*
X113538000Y-71441000D02*
X113538000Y-68113000D01*
D25*
%TO.N,Net-(R102-Pad1)*%
X130810000Y-91435000D02*
X130975000Y-91600000D01*
X128787500Y-91435000D02*
X130810000Y-91435000D01*
D27*
X127722990Y-91182990D02*
X127975000Y-91435000D01*
X127722990Y-89002010D02*
X127722990Y-91182990D01*
X127975000Y-91435000D02*
X128787500Y-91435000D01*
X129800000Y-86925000D02*
X127722990Y-89002010D01*
D26*
%TO.N,Net-(R103-Pad2)*%
X111775000Y-68000000D02*
X111775000Y-73775000D01*
X111775000Y-73775000D02*
X112600000Y-74600000D01*
X112600000Y-74600000D02*
X116200000Y-74600000D01*
X116200000Y-74600000D02*
X117400000Y-75800000D01*
X117400000Y-75800000D02*
X117400000Y-90000000D01*
X118835000Y-91435000D02*
X122412500Y-91435000D01*
X117400000Y-90000000D02*
X118835000Y-91435000D01*
X111775000Y-68000000D02*
X110025000Y-68000000D01*
D25*
%TO.N,Net-(D103-Pad2)*%
X130987500Y-94800000D02*
X132587500Y-93200000D01*
X130975000Y-94800000D02*
X130987500Y-94800000D01*
D26*
%TO.N,Net-(Q102-Pad1)*%
X114700000Y-91425000D02*
X117475000Y-94200000D01*
X113538000Y-91425000D02*
X114700000Y-91425000D01*
D25*
%TO.N,Net-(R106-Pad1)*%
X130810000Y-96235000D02*
X130975000Y-96400000D01*
X128787500Y-96235000D02*
X130810000Y-96235000D01*
D27*
X127975000Y-96235000D02*
X128787500Y-96235000D01*
X127345980Y-95605980D02*
X127975000Y-96235000D01*
X127345980Y-87779020D02*
X127345980Y-95605980D01*
X128200000Y-86925000D02*
X127345980Y-87779020D01*
D26*
%TO.N,Net-(R107-Pad2)*%
X119125000Y-94200000D02*
X119125000Y-95800000D01*
X119560000Y-96235000D02*
X119125000Y-95800000D01*
X122412500Y-96235000D02*
X119560000Y-96235000D01*
D25*
%TO.N,Net-(D105-Pad2)*%
X137562500Y-81950000D02*
X136012500Y-83500000D01*
X137625000Y-81950000D02*
X137562500Y-81950000D01*
%TO.N,Net-(Q103-Pad1)*%
X154575000Y-100065000D02*
X154460000Y-99950000D01*
X154575000Y-103400000D02*
X154575000Y-100065000D01*
%TO.N,Net-(R110-Pad1)*%
X137790000Y-80565000D02*
X137625000Y-80400000D01*
X139412500Y-80565000D02*
X137790000Y-80565000D01*
D27*
X140225000Y-80565000D02*
X140477009Y-80817009D01*
X139412500Y-80565000D02*
X140225000Y-80565000D01*
X140477009Y-80817009D02*
X140477010Y-82151518D01*
X138200000Y-85375000D02*
X138200000Y-85100000D01*
X138200000Y-84428528D02*
X140477010Y-82151518D01*
X138200000Y-85375000D02*
X138200000Y-84428528D01*
D25*
%TO.N,Net-(R111-Pad2)*%
X156000000Y-96600000D02*
X156950000Y-97550000D01*
X156950000Y-97550000D02*
X156950000Y-103400000D01*
X151500000Y-96600000D02*
X156000000Y-96600000D01*
X145787500Y-80565000D02*
X149365000Y-80565000D01*
X149365000Y-80565000D02*
X150750000Y-81950000D01*
X156950000Y-103400000D02*
X156225000Y-103400000D01*
X150750000Y-81950000D02*
X150750000Y-95850000D01*
X150750000Y-95850000D02*
X151500000Y-96600000D01*
X157775000Y-103400000D02*
X156950000Y-103400000D01*
%TO.N,Net-(D107-Pad2)*%
X137462500Y-77350000D02*
X135962500Y-78850000D01*
X137575000Y-77350000D02*
X137462500Y-77350000D01*
D26*
%TO.N,Net-(Q104-Pad1)*%
X153200000Y-80775000D02*
X150475000Y-78050000D01*
X154460000Y-80775000D02*
X153200000Y-80775000D01*
D25*
%TO.N,Net-(R114-Pad1)*%
X137740000Y-75965000D02*
X137575000Y-75800000D01*
X139412500Y-75965000D02*
X137740000Y-75965000D01*
D27*
X139523528Y-75965000D02*
X139412500Y-75965000D01*
X140900000Y-82720981D02*
X140900000Y-77295491D01*
X140854019Y-77295491D02*
X139523528Y-75965000D01*
X139800000Y-83775000D02*
X140854019Y-82720981D01*
X139800000Y-85375000D02*
X139800000Y-83775000D01*
D25*
%TO.N,Net-(R115-Pad2)*%
X148290000Y-75965000D02*
X145787500Y-75965000D01*
X148825000Y-76500000D02*
X148290000Y-75965000D01*
X148825000Y-76500000D02*
X148825000Y-78050000D01*
D27*
%TO.N,/SDA*%
X127680000Y-61340000D02*
X127680000Y-63880000D01*
X127680000Y-61340000D02*
X128792010Y-62452010D01*
X126577999Y-60237999D02*
X127680000Y-61340000D01*
X124611039Y-60237999D02*
X126577999Y-60237999D01*
X123875000Y-60974038D02*
X124611039Y-60237999D01*
X123875000Y-67550000D02*
X123875000Y-60974038D01*
X129640000Y-63300000D02*
X128792010Y-62452010D01*
X130100000Y-63300000D02*
X129640000Y-63300000D01*
X130100000Y-63300000D02*
X130875000Y-63300000D01*
X132900000Y-63300000D02*
X134000000Y-62200000D01*
X134000000Y-62200000D02*
X134000000Y-61425000D01*
X130875000Y-63300000D02*
X132900000Y-63300000D01*
%TO.N,/SCL*%
X125145000Y-61345000D02*
X125140000Y-61340000D01*
X125145000Y-67550000D02*
X125145000Y-61345000D01*
X128426897Y-64982001D02*
X129608898Y-63800000D01*
X126687999Y-64982001D02*
X128426897Y-64982001D01*
X125145000Y-66525000D02*
X126687999Y-64982001D01*
X129608898Y-63800000D02*
X130100000Y-63800000D01*
X125145000Y-67550000D02*
X125145000Y-66525000D01*
X130100000Y-63800000D02*
X130875000Y-63800000D01*
X135000000Y-62200000D02*
X135000000Y-61425000D01*
X133400000Y-63800000D02*
X135000000Y-62200000D01*
X130875000Y-63800000D02*
X133400000Y-63800000D01*
D25*
%TO.N,/GPIO0*%
X132625000Y-91600000D02*
X132625000Y-90000000D01*
D27*
X126415000Y-76850000D02*
X126415000Y-77715000D01*
X129812532Y-79377010D02*
X127917010Y-79377010D01*
X132625000Y-90000000D02*
X133277010Y-89347990D01*
X131191961Y-80756439D02*
X129812532Y-79377010D01*
X127917010Y-79377010D02*
X126415000Y-77875000D01*
X131191961Y-84125133D02*
X131191961Y-80756439D01*
X133277010Y-86210182D02*
X131191961Y-84125133D01*
X126415000Y-77875000D02*
X126415000Y-76850000D01*
X133277010Y-89347990D02*
X133277010Y-86210182D01*
D25*
%TO.N,/GPIO1*%
X132625000Y-96400000D02*
X132625000Y-94800000D01*
D27*
X127685000Y-76850000D02*
X127685000Y-77985000D01*
X133654020Y-93770980D02*
X132625000Y-94800000D01*
X131568971Y-83968971D02*
X133654020Y-86054020D01*
X128810000Y-79000000D02*
X129968694Y-79000000D01*
X133654020Y-86054020D02*
X133654020Y-93770980D01*
X131568971Y-80600277D02*
X131568971Y-83968971D01*
X129968694Y-79000000D02*
X131568971Y-80600277D01*
X127685000Y-77875000D02*
X128810000Y-79000000D01*
X127685000Y-76850000D02*
X127685000Y-77875000D01*
%TO.N,Net-(J107-Pad2)*%
X129800000Y-83800000D02*
X130000000Y-83600000D01*
X129800000Y-85275000D02*
X129800000Y-83800000D01*
%TO.N,Net-(J108-Pad2)*%
X128200000Y-83800000D02*
X128000000Y-83600000D01*
X128200000Y-85275000D02*
X128200000Y-83800000D01*
%TO.N,Net-(J109-Pad2)*%
X139800000Y-88500000D02*
X140000000Y-88700000D01*
X139800000Y-87025000D02*
X139800000Y-88500000D01*
%TO.N,Net-(J110-Pad2)*%
X138200000Y-88500000D02*
X138000000Y-88700000D01*
X138200000Y-87025000D02*
X138200000Y-88500000D01*
%TO.N,/A2*%
X126723473Y-74947999D02*
X125145000Y-76526472D01*
X132700000Y-75835038D02*
X131812961Y-74947999D01*
X134785050Y-94656646D02*
X134785050Y-85585534D01*
X131812961Y-74947999D02*
X126723473Y-74947999D01*
X134785050Y-85585534D02*
X132700000Y-83500484D01*
X137020000Y-96891596D02*
X134785050Y-94656646D01*
X132700000Y-83500484D02*
X132700000Y-75835038D01*
X125145000Y-76526472D02*
X125145000Y-76850000D01*
X137020000Y-97200000D02*
X137020000Y-96891596D01*
X138122001Y-101252999D02*
X137100000Y-102275000D01*
X138122001Y-98302001D02*
X138122001Y-101252999D01*
X137020000Y-97200000D02*
X138122001Y-98302001D01*
%TO.N,/A1*%
X135200000Y-92840000D02*
X139560000Y-97200000D01*
X135200000Y-85467312D02*
X135200000Y-92840000D01*
X133077010Y-83344322D02*
X135200000Y-85467312D01*
X125129011Y-74570989D02*
X123875000Y-75825000D01*
X131969123Y-74570989D02*
X125129011Y-74570989D01*
X133077009Y-75678875D02*
X131969123Y-74570989D01*
X133077010Y-77977010D02*
X133077009Y-75678875D01*
X133077010Y-77778876D02*
X133077010Y-77977010D01*
X123875000Y-75825000D02*
X123875000Y-76850000D01*
X133077010Y-77977010D02*
X133077010Y-83344322D01*
X140662001Y-101212999D02*
X139600000Y-102275000D01*
X140662001Y-98302001D02*
X140662001Y-101212999D01*
X139560000Y-97200000D02*
X140662001Y-98302001D01*
%TO.N,/A0*%
X122605000Y-75825000D02*
X122605000Y-76850000D01*
X124236021Y-74193979D02*
X122605000Y-75825000D01*
X134022990Y-76091684D02*
X132125285Y-74193979D01*
X135577010Y-85311150D02*
X134022990Y-83757130D01*
X132125285Y-74193979D02*
X124236021Y-74193979D01*
X135577010Y-90700000D02*
X135577010Y-85311150D01*
X134022990Y-83757130D02*
X134022990Y-76091684D01*
X135600000Y-90700000D02*
X135577010Y-90700000D01*
X142100000Y-97200000D02*
X135600000Y-90700000D01*
X143202001Y-101172999D02*
X142100000Y-102275000D01*
X143202001Y-98302001D02*
X143202001Y-101172999D01*
X142100000Y-97200000D02*
X143202001Y-98302001D01*
D25*
%TO.N,Net-(C301-Pad1)*%
X119762500Y-101537500D02*
X120600000Y-100700000D01*
X119762500Y-102800000D02*
X119762500Y-101537500D01*
X119762500Y-103282500D02*
X120600000Y-104120000D01*
X119762500Y-102800000D02*
X119762500Y-103282500D01*
%TO.N,/Opto Input/ISO_IN_1*%
X117637500Y-104712500D02*
X117725000Y-104800000D01*
X117637500Y-102800000D02*
X117637500Y-104712500D01*
X117725000Y-105975000D02*
X117725000Y-104800000D01*
X113600000Y-110100000D02*
X117725000Y-105975000D01*
D26*
%TO.N,Net-(D301-Pad2)*%
X132325000Y-102612500D02*
X130800000Y-101087500D01*
X132325000Y-102700000D02*
X132325000Y-102612500D01*
D25*
%TO.N,Net-(D302-Pad1)*%
X117675000Y-100575000D02*
X117800000Y-100700000D01*
X117675000Y-98700000D02*
X117675000Y-100575000D01*
%TO.N,Net-(R302-Pad2)*%
X121437500Y-98700000D02*
X122412500Y-99675000D01*
X119325000Y-98700000D02*
X121437500Y-98700000D01*
%TO.N,/GPIO4*%
X135925000Y-77350000D02*
X135925000Y-75800000D01*
D27*
X131495000Y-67550000D02*
X131495000Y-71995000D01*
X135300000Y-75800000D02*
X135925000Y-75800000D01*
X131495000Y-71995000D02*
X135300000Y-75800000D01*
D25*
%TO.N,Net-(C303-Pad1)*%
X120500000Y-112937500D02*
X119662500Y-112100000D01*
X120500000Y-113420000D02*
X120500000Y-112937500D01*
X120400000Y-111362500D02*
X119662500Y-112100000D01*
X120400000Y-110000000D02*
X120400000Y-111362500D01*
%TO.N,Net-(D303-Pad2)*%
X132325000Y-112012500D02*
X130700000Y-110387500D01*
X132325000Y-112100000D02*
X132325000Y-112012500D01*
%TO.N,Net-(D304-Pad1)*%
X117600000Y-108125000D02*
X117475000Y-108000000D01*
X117600000Y-110000000D02*
X117600000Y-108125000D01*
%TO.N,Net-(R304-Pad2)*%
X119160000Y-107965000D02*
X119125000Y-108000000D01*
X121447500Y-108000000D02*
X122412500Y-108965000D01*
X119125000Y-108000000D02*
X121447500Y-108000000D01*
%TO.N,Net-(C305-Pad1)*%
X147700000Y-61337500D02*
X148437500Y-60600000D01*
X147700000Y-62700000D02*
X147700000Y-61337500D01*
X147700000Y-59862500D02*
X148437500Y-60600000D01*
X147700000Y-59280000D02*
X147700000Y-59862500D01*
%TO.N,Net-(D305-Pad2)*%
X135975000Y-69687500D02*
X137500000Y-71212500D01*
X135975000Y-69600000D02*
X135975000Y-69687500D01*
%TO.N,Net-(D306-Pad1)*%
X150625000Y-62825000D02*
X150500000Y-62700000D01*
X150625000Y-64700000D02*
X150625000Y-62825000D01*
D26*
%TO.N,Net-(R306-Pad2)*%
X148540000Y-65135000D02*
X148975000Y-64700000D01*
X145887500Y-65135000D02*
X148540000Y-65135000D01*
D25*
%TO.N,Net-(C307-Pad1)*%
X147600000Y-68862500D02*
X148237500Y-69500000D01*
X147600000Y-68080000D02*
X147600000Y-68862500D01*
X147600000Y-70137500D02*
X148237500Y-69500000D01*
X147600000Y-71600000D02*
X147600000Y-70137500D01*
D26*
%TO.N,Net-(D307-Pad2)*%
X137625000Y-62050000D02*
X137625000Y-63712500D01*
X139175000Y-60500000D02*
X137625000Y-62050000D01*
D25*
%TO.N,Net-(D308-Pad1)*%
X150425000Y-71625000D02*
X150400000Y-71600000D01*
X150425000Y-73600000D02*
X150425000Y-71625000D01*
%TO.N,Net-(R308-Pad2)*%
X146752500Y-73600000D02*
X145787500Y-72635000D01*
X148775000Y-73600000D02*
X146752500Y-73600000D01*
%TO.N,/Opto Input/ISO_IN_2*%
X117625000Y-112187500D02*
X117537500Y-112100000D01*
X117625000Y-114100000D02*
X117625000Y-112187500D01*
X109790000Y-110100000D02*
X109790000Y-110390000D01*
X109790000Y-110390000D02*
X112200000Y-112800000D01*
X116837500Y-112800000D02*
X117537500Y-112100000D01*
X112200000Y-112800000D02*
X116837500Y-112800000D01*
%TO.N,/Opto Input/ISO_IN_3*%
X150575000Y-60587500D02*
X150562500Y-60600000D01*
X150575000Y-58600000D02*
X150575000Y-60587500D01*
X153400000Y-60600000D02*
X154600000Y-61800000D01*
X150562500Y-60600000D02*
X153400000Y-60600000D01*
%TO.N,/Opto Input/ISO_IN_4*%
X150362500Y-67412500D02*
X150375000Y-67400000D01*
X150362500Y-69500000D02*
X150362500Y-67412500D01*
X158410000Y-61800000D02*
X158410000Y-63890000D01*
X158410000Y-63890000D02*
X157300000Y-65000000D01*
X150375000Y-67400000D02*
X150375000Y-66825000D01*
X152200000Y-65000000D02*
X157300000Y-65000000D01*
X150375000Y-66825000D02*
X152200000Y-65000000D01*
D26*
%TO.N,GND1*%
X121765000Y-94965000D02*
X121200000Y-94400000D01*
X122412500Y-94965000D02*
X121765000Y-94965000D01*
X121565000Y-90165000D02*
X121200000Y-89800000D01*
X122412500Y-90165000D02*
X121565000Y-90165000D01*
D28*
X108900000Y-87100000D02*
X109700000Y-87100000D01*
D25*
X119555000Y-105080000D02*
X119275000Y-104800000D01*
X120600000Y-105080000D02*
X119555000Y-105080000D01*
X119275000Y-105075000D02*
X120000000Y-105800000D01*
X119275000Y-104800000D02*
X119275000Y-105075000D01*
X119455000Y-114380000D02*
X120500000Y-114380000D01*
X119175000Y-114100000D02*
X119455000Y-114380000D01*
X119175000Y-113975000D02*
X118600000Y-113400000D01*
X119175000Y-114100000D02*
X119175000Y-113975000D01*
D28*
X101670000Y-109600000D02*
X102170000Y-110100000D01*
X97800000Y-109600000D02*
X101670000Y-109600000D01*
D25*
X122412500Y-101587500D02*
X122400000Y-101600000D01*
X122412500Y-100945000D02*
X122412500Y-101587500D01*
X122412500Y-110887500D02*
X122400000Y-110900000D01*
X122412500Y-110235000D02*
X122412500Y-110887500D01*
%TO.N,GND2*%
X159000000Y-84600000D02*
X158000000Y-84600000D01*
X147085000Y-81835000D02*
X147100000Y-81850000D01*
X145787500Y-81835000D02*
X147085000Y-81835000D01*
X147015000Y-77235000D02*
X147050000Y-77200000D01*
X145787500Y-77235000D02*
X147015000Y-77235000D01*
X148545000Y-67120000D02*
X148825000Y-67400000D01*
X147600000Y-67120000D02*
X148545000Y-67120000D01*
X147830000Y-67120000D02*
X148350000Y-66600000D01*
X147600000Y-67120000D02*
X147830000Y-67120000D01*
X148745000Y-58320000D02*
X149025000Y-58600000D01*
X147700000Y-58320000D02*
X148745000Y-58320000D01*
X149025000Y-58975000D02*
X149450000Y-59400000D01*
X149025000Y-58600000D02*
X149025000Y-58975000D01*
D28*
X166530000Y-62300000D02*
X166030000Y-61800000D01*
X170400000Y-62300000D02*
X166530000Y-62300000D01*
D25*
X145787500Y-70712500D02*
X145800000Y-70700000D01*
X145787500Y-71365000D02*
X145787500Y-70712500D01*
D26*
X145887500Y-63112500D02*
X145900000Y-63100000D01*
X145887500Y-63865000D02*
X145887500Y-63112500D01*
D25*
%TO.N,/GPIO5*%
X135975000Y-81325000D02*
X135975000Y-80400000D01*
X135975000Y-81950000D02*
X135975000Y-81325000D01*
D27*
X134399999Y-75935521D02*
X134400000Y-78825000D01*
X134400000Y-78825000D02*
X135975000Y-80400000D01*
X130225000Y-71760522D02*
X134399999Y-75935521D01*
X130225000Y-67550000D02*
X130225000Y-71760522D01*
%TO.N,GPIO2*%
X128955000Y-76850000D02*
X128955000Y-77453134D01*
X128955000Y-77453134D02*
X131945980Y-80444114D01*
X131945980Y-83812808D02*
X134031030Y-85897858D01*
X131945980Y-80444114D02*
X131945980Y-83812808D01*
D26*
X130675000Y-102700000D02*
X129225000Y-102700000D01*
X128787500Y-102262500D02*
X129225000Y-102700000D01*
X128787500Y-100945000D02*
X128787500Y-102262500D01*
D27*
X134031030Y-85897858D02*
X134031029Y-93927143D01*
X129334510Y-100397990D02*
X128787500Y-100945000D01*
X131055268Y-100397990D02*
X129334510Y-100397990D01*
X133277010Y-98176248D02*
X131055268Y-100397990D01*
X133277010Y-94681162D02*
X133277010Y-98176248D01*
X134031029Y-93927143D02*
X133277010Y-94681162D01*
D25*
%TO.N,GPIO3*%
X128787500Y-111662500D02*
X129225000Y-112100000D01*
X128787500Y-110235000D02*
X128787500Y-111662500D01*
X129225000Y-112100000D02*
X130675000Y-112100000D01*
D27*
X130225000Y-78189962D02*
X130225000Y-76850000D01*
X132322990Y-83656646D02*
X132322990Y-80287952D01*
X134408040Y-95691960D02*
X134408040Y-85741696D01*
X132322990Y-80287952D02*
X130225000Y-78189962D01*
X133654020Y-96445980D02*
X134408040Y-95691960D01*
X129324510Y-109697990D02*
X131702010Y-109697990D01*
X134408040Y-85741696D02*
X132322990Y-83656646D01*
X133654020Y-107745980D02*
X133654020Y-96445980D01*
X131702010Y-109697990D02*
X133654020Y-107745980D01*
X128787500Y-110235000D02*
X129324510Y-109697990D01*
D25*
%TO.N,GPIO6*%
X139075000Y-71027500D02*
X139412500Y-71365000D01*
X139075000Y-69600000D02*
X139075000Y-71027500D01*
X139075000Y-69600000D02*
X137625000Y-69600000D01*
D27*
X129207010Y-66272990D02*
X134297990Y-66272990D01*
X134297990Y-66272990D02*
X137625000Y-69600000D01*
X128955000Y-66525000D02*
X129207010Y-66272990D01*
X128955000Y-67550000D02*
X128955000Y-66525000D01*
%TO.N,GPIO7*%
X127685000Y-67550000D02*
X127685000Y-66525000D01*
X127685000Y-66525000D02*
X128314020Y-65895980D01*
X128314020Y-65895980D02*
X134395980Y-65895980D01*
X138975490Y-64402010D02*
X135889950Y-64402010D01*
X135889950Y-64402010D02*
X134395980Y-65895980D01*
X139512500Y-63865000D02*
X138975490Y-64402010D01*
D26*
X140775000Y-60500000D02*
X139175000Y-62100000D01*
X140825000Y-60500000D02*
X140775000Y-60500000D01*
X139512500Y-62437500D02*
X139175000Y-62100000D01*
X139512500Y-63865000D02*
X139512500Y-62437500D01*
D28*
%TO.N,/VOUT1*%
X106100000Y-85489000D02*
X110998000Y-80591000D01*
X106100000Y-87100000D02*
X106100000Y-85489000D01*
D25*
%TO.N,/VOUT2*%
X94475000Y-100575000D02*
X94100000Y-100200000D01*
X110998000Y-100575000D02*
X94475000Y-100575000D01*
D28*
X97800000Y-106800000D02*
X97800000Y-103300000D01*
X97200000Y-103300000D02*
X94100000Y-100200000D01*
X97800000Y-103300000D02*
X97200000Y-103300000D01*
%TO.N,/VOUT3*%
X161800000Y-86000000D02*
X157000000Y-90800000D01*
X161800000Y-84600000D02*
X161800000Y-86000000D01*
%TO.N,/VOUT4*%
X170400000Y-65100000D02*
X170400000Y-71250000D01*
D26*
%TO.N,/VIN2*%
X117475000Y-95800000D02*
X116675000Y-95000000D01*
X112033000Y-95000000D02*
X108458000Y-91425000D01*
X116675000Y-95000000D02*
X112033000Y-95000000D01*
%TO.N,/VIN1*%
X108375000Y-71358000D02*
X108458000Y-71441000D01*
X108375000Y-68000000D02*
X108375000Y-69125000D01*
X108375000Y-69125000D02*
X108375000Y-71358000D01*
%TO.N,/VIN4*%
X159540000Y-80775000D02*
X159540000Y-80690000D01*
X159540000Y-80690000D02*
X156350000Y-77500000D01*
X151475000Y-77500000D02*
X156350000Y-77500000D01*
X150475000Y-76500000D02*
X151475000Y-77500000D01*
D25*
%TO.N,/VIN3*%
X159540000Y-103285000D02*
X159425000Y-103400000D01*
%TD*%
D29*
%TO.N,/VIN1*%
X108873000Y-74873000D02*
X91627000Y-74873000D01*
X91627000Y-68627000D01*
X108873000Y-68627000D01*
X108873000Y-74873000D01*
%TA.AperFunction,Conductor*%
D30*
G36*
X108873000Y-74873000D02*
G01*
X91627000Y-74873000D01*
X91627000Y-68627000D01*
X108873000Y-68627000D01*
X108873000Y-74873000D01*
G37*
%TD.AperFunction*%
%TD*%
D29*
%TO.N,/VOUT1*%
X109067258Y-84373000D02*
X91821258Y-84373000D01*
X91821258Y-78127000D01*
X109067258Y-78127000D01*
X109067258Y-84373000D01*
%TA.AperFunction,Conductor*%
D30*
G36*
X109067258Y-84373000D02*
G01*
X91821258Y-84373000D01*
X91821258Y-78127000D01*
X109067258Y-78127000D01*
X109067258Y-84373000D01*
G37*
%TD.AperFunction*%
%TD*%
D29*
%TO.N,/VOUT2*%
X108373000Y-103873000D02*
X91627000Y-103873000D01*
X91627000Y-96627000D01*
X108373000Y-96627000D01*
X108373000Y-103873000D01*
%TA.AperFunction,Conductor*%
D30*
G36*
X108373000Y-103873000D02*
G01*
X91627000Y-103873000D01*
X91627000Y-96627000D01*
X108373000Y-96627000D01*
X108373000Y-103873000D01*
G37*
%TD.AperFunction*%
%TD*%
D29*
%TO.N,/VIN2*%
X104910197Y-88589803D02*
X104929443Y-88605597D01*
X104951399Y-88617333D01*
X104975224Y-88624560D01*
X105000000Y-88627000D01*
X109373000Y-88627000D01*
X109373000Y-94373000D01*
X91627000Y-94373000D01*
X91627000Y-87127000D01*
X103447394Y-87127000D01*
X104910197Y-88589803D01*
%TA.AperFunction,Conductor*%
D30*
G36*
X104910197Y-88589803D02*
G01*
X104929443Y-88605597D01*
X104951399Y-88617333D01*
X104975224Y-88624560D01*
X105000000Y-88627000D01*
X109373000Y-88627000D01*
X109373000Y-94373000D01*
X91627000Y-94373000D01*
X91627000Y-87127000D01*
X103447394Y-87127000D01*
X104910197Y-88589803D01*
G37*
%TD.AperFunction*%
%TD*%
D29*
%TO.N,/VIN3*%
X176373000Y-103373000D02*
X158627000Y-103373000D01*
X158627000Y-97127000D01*
X176373000Y-97127000D01*
X176373000Y-103373000D01*
%TA.AperFunction,Conductor*%
D30*
G36*
X176373000Y-103373000D02*
G01*
X158627000Y-103373000D01*
X158627000Y-97127000D01*
X176373000Y-97127000D01*
X176373000Y-103373000D01*
G37*
%TD.AperFunction*%
%TD*%
D29*
%TO.N,/VOUT4*%
X176373000Y-75373000D02*
X159627000Y-75373000D01*
X159627000Y-68127000D01*
X176373000Y-68127000D01*
X176373000Y-75373000D01*
%TA.AperFunction,Conductor*%
D30*
G36*
X176373000Y-75373000D02*
G01*
X159627000Y-75373000D01*
X159627000Y-68127000D01*
X176373000Y-68127000D01*
X176373000Y-75373000D01*
G37*
%TD.AperFunction*%
%TD*%
D29*
%TO.N,/VOUT3*%
X176373000Y-94373000D02*
X158627000Y-94373000D01*
X158627000Y-87127000D01*
X176373000Y-87127000D01*
X176373000Y-94373000D01*
%TA.AperFunction,Conductor*%
D30*
G36*
X176373000Y-94373000D02*
G01*
X158627000Y-94373000D01*
X158627000Y-87127000D01*
X176373000Y-87127000D01*
X176373000Y-94373000D01*
G37*
%TD.AperFunction*%
%TD*%
D29*
%TO.N,/VIN4*%
X176373000Y-84873000D02*
X164552606Y-84873000D01*
X163089803Y-83410197D01*
X163070557Y-83394403D01*
X163048601Y-83382667D01*
X163024776Y-83375440D01*
X163000000Y-83373000D01*
X158627000Y-83373000D01*
X158627000Y-77627000D01*
X176373000Y-77627000D01*
X176373000Y-84873000D01*
%TA.AperFunction,Conductor*%
D30*
G36*
X176373000Y-84873000D02*
G01*
X164552606Y-84873000D01*
X163089803Y-83410197D01*
X163070557Y-83394403D01*
X163048601Y-83382667D01*
X163024776Y-83375440D01*
X163000000Y-83373000D01*
X158627000Y-83373000D01*
X158627000Y-77627000D01*
X176373000Y-77627000D01*
X176373000Y-84873000D01*
G37*
%TD.AperFunction*%
%TD*%
M02*
