%TF.GenerationSoftware,KiCad,Pcbnew,(5.1.8-0-10_14)*%
%TF.CreationDate,2020-11-30T14:10:51+01:00*%
%TF.ProjectId,FET_Multi,4645545f-4d75-46c7-9469-2e6b69636164,0.2.0*%
%TF.SameCoordinates,Original*%
%TF.FileFunction,Copper,L4,Bot*%
%TF.FilePolarity,Positive*%
%FSLAX46Y46*%
G04 Gerber Fmt 4.6, Leading zero omitted, Abs format (unit mm)*
G04 Created by KiCad (PCBNEW (5.1.8-0-10_14)) date 2020-11-30 14:10:51*
%MOMM*%
%LPD*%
G01*
G04 APERTURE LIST*
%TA.AperFunction,Profile*%
%ADD10C,0.050000*%
%TD*%
%TA.AperFunction,ComponentPad*%
%ADD11O,4.000000X6.000000*%
%TD*%
%TA.AperFunction,ComponentPad*%
%ADD12O,1.800000X3.600000*%
%TD*%
%TA.AperFunction,ComponentPad*%
%ADD13O,1.700000X1.700000*%
%TD*%
%TA.AperFunction,ComponentPad*%
%ADD14R,1.700000X1.700000*%
%TD*%
%TA.AperFunction,ViaPad*%
%ADD15C,0.800000*%
%TD*%
%TA.AperFunction,ViaPad*%
%ADD16C,0.600000*%
%TD*%
%TA.AperFunction,ViaPad*%
%ADD17C,1.000000*%
%TD*%
%TA.AperFunction,Conductor*%
%ADD18C,0.254000*%
%TD*%
%TA.AperFunction,Conductor*%
%ADD19C,0.100000*%
%TD*%
G04 APERTURE END LIST*
D10*
X89000000Y-65500000D02*
X89000000Y-106500000D01*
X170500000Y-115000000D02*
G75*
G02*
X179000000Y-106500000I8500000J0D01*
G01*
X89000000Y-106500000D02*
G75*
G02*
X97500000Y-115000000I0J-8500000D01*
G01*
X179000000Y-65500000D02*
G75*
G02*
X170500000Y-57000000I0J8500000D01*
G01*
X97500000Y-57000000D02*
G75*
G02*
X89000000Y-65500000I-8500000J0D01*
G01*
X179000000Y-106500000D02*
X179000000Y-65500000D01*
X170500000Y-115000000D02*
X97500000Y-115000000D01*
X170500000Y-57000000D02*
X97500000Y-57000000D01*
D11*
%TO.P,J103,4*%
%TO.N,/VOUT4*%
X168000000Y-71700000D03*
%TO.P,J103,3*%
%TO.N,/VIN4*%
X168000000Y-81200000D03*
%TO.P,J103,2*%
%TO.N,/VOUT3*%
X168000000Y-90700000D03*
%TO.P,J103,1*%
%TO.N,/VIN3*%
X168000000Y-100200000D03*
%TO.P,J103,4*%
%TO.N,/VOUT4*%
X173800000Y-71700000D03*
%TO.P,J103,3*%
%TO.N,/VIN4*%
X173800000Y-81200000D03*
%TO.P,J103,2*%
%TO.N,/VOUT3*%
X173800000Y-90700000D03*
%TO.P,J103,1*%
%TO.N,/VIN3*%
X173800000Y-100200000D03*
%TD*%
%TO.P,J102,4*%
%TO.N,/VOUT2*%
X99900000Y-100200000D03*
%TO.P,J102,3*%
%TO.N,/VIN2*%
X99900000Y-90700000D03*
%TO.P,J102,2*%
%TO.N,/VOUT1*%
X99900000Y-81200000D03*
%TO.P,J102,1*%
%TO.N,/VIN1*%
X99900000Y-71700000D03*
%TO.P,J102,4*%
%TO.N,/VOUT2*%
X94100000Y-100200000D03*
%TO.P,J102,3*%
%TO.N,/VIN2*%
X94100000Y-90700000D03*
%TO.P,J102,2*%
%TO.N,/VOUT1*%
X94100000Y-81200000D03*
%TO.P,J102,1*%
%TO.N,/VIN1*%
X94100000Y-71700000D03*
%TD*%
D12*
%TO.P,J303,4*%
%TO.N,GND2*%
X166030000Y-61800000D03*
%TO.P,J303,3*%
X162220000Y-61800000D03*
%TO.P,J303,2*%
%TO.N,/Opto Input/ISO_IN_4*%
X158410000Y-61800000D03*
%TO.P,J303,1*%
%TO.N,/Opto Input/ISO_IN_3*%
%TA.AperFunction,ComponentPad*%
G36*
G01*
X153700000Y-63350000D02*
X153700000Y-60250000D01*
G75*
G02*
X153950000Y-60000000I250000J0D01*
G01*
X155250000Y-60000000D01*
G75*
G02*
X155500000Y-60250000I0J-250000D01*
G01*
X155500000Y-63350000D01*
G75*
G02*
X155250000Y-63600000I-250000J0D01*
G01*
X153950000Y-63600000D01*
G75*
G02*
X153700000Y-63350000I0J250000D01*
G01*
G37*
%TD.AperFunction*%
%TD*%
%TO.P,J302,4*%
%TO.N,GND1*%
X102170000Y-110100000D03*
%TO.P,J302,3*%
X105980000Y-110100000D03*
%TO.P,J302,2*%
%TO.N,/Opto Input/ISO_IN_2*%
X109790000Y-110100000D03*
%TO.P,J302,1*%
%TO.N,/Opto Input/ISO_IN_1*%
%TA.AperFunction,ComponentPad*%
G36*
G01*
X114500000Y-108550000D02*
X114500000Y-111650000D01*
G75*
G02*
X114250000Y-111900000I-250000J0D01*
G01*
X112950000Y-111900000D01*
G75*
G02*
X112700000Y-111650000I0J250000D01*
G01*
X112700000Y-108550000D01*
G75*
G02*
X112950000Y-108300000I250000J0D01*
G01*
X114250000Y-108300000D01*
G75*
G02*
X114500000Y-108550000I0J-250000D01*
G01*
G37*
%TD.AperFunction*%
%TD*%
D13*
%TO.P,J106,6*%
%TO.N,+3V3*%
X137020000Y-99740000D03*
%TO.P,J106,5*%
%TO.N,/A2*%
X137020000Y-97200000D03*
%TO.P,J106,4*%
%TO.N,+3V3*%
X139560000Y-99740000D03*
%TO.P,J106,3*%
%TO.N,/A1*%
X139560000Y-97200000D03*
%TO.P,J106,2*%
%TO.N,+3V3*%
X142100000Y-99740000D03*
D14*
%TO.P,J106,1*%
%TO.N,/A0*%
X142100000Y-97200000D03*
%TD*%
D13*
%TO.P,J101,8*%
%TO.N,/SDA*%
X127680000Y-61340000D03*
%TO.P,J101,7*%
X127680000Y-63880000D03*
%TO.P,J101,6*%
%TO.N,/SCL*%
X125140000Y-61340000D03*
%TO.P,J101,5*%
X125140000Y-63880000D03*
%TO.P,J101,4*%
%TO.N,+3V3*%
X122600000Y-61340000D03*
%TO.P,J101,3*%
X122600000Y-63880000D03*
%TO.P,J101,2*%
%TO.N,GND*%
X120060000Y-61340000D03*
D14*
%TO.P,J101,1*%
X120060000Y-63880000D03*
%TD*%
D15*
%TO.N,+3V3*%
X122400000Y-66000000D03*
X122600000Y-68900000D03*
X139000000Y-91000000D03*
X129000000Y-81500000D03*
D16*
X131400000Y-86000000D03*
X129900000Y-104400000D03*
X139600000Y-67700000D03*
D15*
X128800000Y-99100000D03*
X128800000Y-108400000D03*
X134600000Y-99900000D03*
X139400000Y-73400000D03*
X133000000Y-60200000D03*
X139500000Y-66000000D03*
%TO.N,GND*%
X129876250Y-93876250D03*
X129876250Y-89076250D03*
X138900000Y-77850000D03*
X138493750Y-82593750D03*
X131500000Y-75600000D03*
X131300000Y-78300000D03*
X137100000Y-104700000D03*
X139600000Y-104700000D03*
X142100000Y-104700000D03*
D16*
X137300000Y-67700000D03*
X129900000Y-106500000D03*
D15*
X130800000Y-98700000D03*
X128100000Y-103500000D03*
X130700000Y-108100000D03*
X127500000Y-113000000D03*
X134600000Y-97600000D03*
X137500000Y-73600000D03*
X140700000Y-68700000D03*
X131800000Y-64600000D03*
X132000000Y-60200000D03*
X137900000Y-66200000D03*
X140800000Y-63000000D03*
%TO.N,GND1*%
X121200000Y-94400000D03*
X121200000Y-89800000D03*
X109700000Y-87100000D03*
X120000000Y-105800000D03*
X118600000Y-113400000D03*
X122400000Y-101600000D03*
X122400000Y-110900000D03*
%TO.N,GND2*%
X158000000Y-84600000D03*
X147100000Y-81850000D03*
X147050000Y-77200000D03*
X148350000Y-66600000D03*
X149450000Y-59400000D03*
X145800000Y-70700000D03*
X145900000Y-63100000D03*
D17*
%TO.N,/VOUT1*%
X108750000Y-80250000D03*
X108750000Y-78500000D03*
X108750000Y-81750000D03*
X108750000Y-83500000D03*
X107250000Y-79000000D03*
X107250000Y-80750000D03*
X107250000Y-82250000D03*
X107250000Y-84000000D03*
X105750000Y-83250000D03*
X105750000Y-78250000D03*
X105750000Y-80000000D03*
X105750000Y-81500000D03*
X99250000Y-79500000D03*
X99250000Y-82500000D03*
%TO.N,/VOUT2*%
X108000000Y-97500000D03*
X106500000Y-103000000D03*
X106500000Y-98000000D03*
X105000000Y-100500000D03*
X106500000Y-99750000D03*
X106500000Y-101250000D03*
X108000000Y-99250000D03*
X108000000Y-100750000D03*
X108000000Y-102500000D03*
X99750000Y-98000000D03*
X99750000Y-102250000D03*
X105000000Y-102250000D03*
X105000000Y-98750000D03*
X105000000Y-97000000D03*
%TO.N,/VOUT3*%
X159000000Y-92500000D03*
X159000000Y-88750000D03*
X160500000Y-87750000D03*
X160000000Y-94000000D03*
X160000000Y-90750000D03*
X161250000Y-92250000D03*
X161250000Y-89500000D03*
X162750000Y-90750000D03*
X169000000Y-91750000D03*
X169000000Y-89500000D03*
X162750000Y-88250000D03*
%TO.N,/VOUT4*%
X160000000Y-75000000D03*
X160000000Y-72250000D03*
X160000000Y-69500000D03*
X161750000Y-68500000D03*
X161750000Y-74000000D03*
X161750000Y-71000000D03*
X163500000Y-72250000D03*
X168750000Y-69750000D03*
X168750000Y-73250000D03*
X163500000Y-69750000D03*
%TO.N,/VIN2*%
X107750000Y-89000000D03*
X107750000Y-90750000D03*
X107750000Y-92250000D03*
X107750000Y-94000000D03*
X106250000Y-89750000D03*
X106250000Y-91500000D03*
X106250000Y-93250000D03*
X103250000Y-87500000D03*
X99750000Y-89250000D03*
X99750000Y-92000000D03*
%TO.N,/VIN1*%
X108375000Y-69125000D03*
X107250000Y-70500000D03*
X107250000Y-72000000D03*
X107250000Y-73500000D03*
X108500000Y-74500000D03*
X104750000Y-70500000D03*
X104750000Y-72000000D03*
X104750000Y-73500000D03*
X106000000Y-69250000D03*
X106250000Y-74500000D03*
X99000000Y-70000000D03*
X99000000Y-72500000D03*
%TO.N,/VIN4*%
X160500000Y-78250000D03*
X160500000Y-80000000D03*
X160500000Y-81750000D03*
X160500000Y-83250000D03*
X162250000Y-79000000D03*
X162500000Y-81000000D03*
X162500000Y-82750000D03*
X168750000Y-79000000D03*
X168750000Y-82250000D03*
%TO.N,/VIN3*%
X160000000Y-101500000D03*
X159750000Y-100000000D03*
X159500000Y-97750000D03*
X163500000Y-103000000D03*
X160500000Y-103250000D03*
X162250000Y-101000000D03*
X162250000Y-98250000D03*
X169000000Y-99000000D03*
X169000000Y-101250000D03*
%TD*%
D18*
%TO.N,/VIN1*%
X108873000Y-74873000D02*
X91627000Y-74873000D01*
X91627000Y-68627000D01*
X108873000Y-68627000D01*
X108873000Y-74873000D01*
%TA.AperFunction,Conductor*%
D19*
G36*
X108873000Y-74873000D02*
G01*
X91627000Y-74873000D01*
X91627000Y-68627000D01*
X108873000Y-68627000D01*
X108873000Y-74873000D01*
G37*
%TD.AperFunction*%
%TD*%
D18*
%TO.N,/VOUT2*%
X108373000Y-103873000D02*
X91627000Y-103873000D01*
X91627000Y-96627000D01*
X108373000Y-96627000D01*
X108373000Y-103873000D01*
%TA.AperFunction,Conductor*%
D19*
G36*
X108373000Y-103873000D02*
G01*
X91627000Y-103873000D01*
X91627000Y-96627000D01*
X108373000Y-96627000D01*
X108373000Y-103873000D01*
G37*
%TD.AperFunction*%
%TD*%
D18*
%TO.N,/VOUT1*%
X109067258Y-84373000D02*
X91821258Y-84373000D01*
X91821258Y-78127000D01*
X109067258Y-78127000D01*
X109067258Y-84373000D01*
%TA.AperFunction,Conductor*%
D19*
G36*
X109067258Y-84373000D02*
G01*
X91821258Y-84373000D01*
X91821258Y-78127000D01*
X109067258Y-78127000D01*
X109067258Y-84373000D01*
G37*
%TD.AperFunction*%
%TD*%
D18*
%TO.N,/VIN2*%
X104910197Y-88589803D02*
X104929443Y-88605597D01*
X104951399Y-88617333D01*
X104975224Y-88624560D01*
X105000000Y-88627000D01*
X109373000Y-88627000D01*
X109373000Y-94373000D01*
X91627000Y-94373000D01*
X91627000Y-87127000D01*
X103447394Y-87127000D01*
X104910197Y-88589803D01*
%TA.AperFunction,Conductor*%
D19*
G36*
X104910197Y-88589803D02*
G01*
X104929443Y-88605597D01*
X104951399Y-88617333D01*
X104975224Y-88624560D01*
X105000000Y-88627000D01*
X109373000Y-88627000D01*
X109373000Y-94373000D01*
X91627000Y-94373000D01*
X91627000Y-87127000D01*
X103447394Y-87127000D01*
X104910197Y-88589803D01*
G37*
%TD.AperFunction*%
%TD*%
D18*
%TO.N,/VOUT3*%
X176373000Y-94373000D02*
X158627000Y-94373000D01*
X158627000Y-87127000D01*
X176373000Y-87127000D01*
X176373000Y-94373000D01*
%TA.AperFunction,Conductor*%
D19*
G36*
X176373000Y-94373000D02*
G01*
X158627000Y-94373000D01*
X158627000Y-87127000D01*
X176373000Y-87127000D01*
X176373000Y-94373000D01*
G37*
%TD.AperFunction*%
%TD*%
D18*
%TO.N,/VIN3*%
X176373000Y-103373000D02*
X158627000Y-103373000D01*
X158627000Y-97127000D01*
X176373000Y-97127000D01*
X176373000Y-103373000D01*
%TA.AperFunction,Conductor*%
D19*
G36*
X176373000Y-103373000D02*
G01*
X158627000Y-103373000D01*
X158627000Y-97127000D01*
X176373000Y-97127000D01*
X176373000Y-103373000D01*
G37*
%TD.AperFunction*%
%TD*%
D18*
%TO.N,/VOUT4*%
X176373000Y-75373000D02*
X159627000Y-75373000D01*
X159627000Y-68127000D01*
X176373000Y-68127000D01*
X176373000Y-75373000D01*
%TA.AperFunction,Conductor*%
D19*
G36*
X176373000Y-75373000D02*
G01*
X159627000Y-75373000D01*
X159627000Y-68127000D01*
X176373000Y-68127000D01*
X176373000Y-75373000D01*
G37*
%TD.AperFunction*%
%TD*%
D18*
%TO.N,/VIN4*%
X176373000Y-84873000D02*
X164552606Y-84873000D01*
X163089803Y-83410197D01*
X163070557Y-83394403D01*
X163048601Y-83382667D01*
X163024776Y-83375440D01*
X163000000Y-83373000D01*
X158627000Y-83373000D01*
X158627000Y-77627000D01*
X176373000Y-77627000D01*
X176373000Y-84873000D01*
%TA.AperFunction,Conductor*%
D19*
G36*
X176373000Y-84873000D02*
G01*
X164552606Y-84873000D01*
X163089803Y-83410197D01*
X163070557Y-83394403D01*
X163048601Y-83382667D01*
X163024776Y-83375440D01*
X163000000Y-83373000D01*
X158627000Y-83373000D01*
X158627000Y-77627000D01*
X176373000Y-77627000D01*
X176373000Y-84873000D01*
G37*
%TD.AperFunction*%
%TD*%
D18*
%TO.N,GND*%
X141373000Y-89000000D02*
X141375440Y-89024776D01*
X141382667Y-89048601D01*
X141394403Y-89070557D01*
X141410197Y-89089803D01*
X141429443Y-89105597D01*
X141451399Y-89117333D01*
X141475224Y-89124560D01*
X141500000Y-89127000D01*
X146873000Y-89127000D01*
X146873000Y-114548000D01*
X127127000Y-114548000D01*
X127127000Y-108318548D01*
X127973000Y-108318548D01*
X127973000Y-108481452D01*
X128004782Y-108641227D01*
X128067123Y-108791731D01*
X128157628Y-108927181D01*
X128272819Y-109042372D01*
X128408269Y-109132877D01*
X128558773Y-109195218D01*
X128718548Y-109227000D01*
X128881452Y-109227000D01*
X129041227Y-109195218D01*
X129191731Y-109132877D01*
X129327181Y-109042372D01*
X129442372Y-108927181D01*
X129532877Y-108791731D01*
X129595218Y-108641227D01*
X129627000Y-108481452D01*
X129627000Y-108318548D01*
X129595218Y-108158773D01*
X129532877Y-108008269D01*
X129442372Y-107872819D01*
X129327181Y-107757628D01*
X129191731Y-107667123D01*
X129041227Y-107604782D01*
X128881452Y-107573000D01*
X128718548Y-107573000D01*
X128558773Y-107604782D01*
X128408269Y-107667123D01*
X128272819Y-107757628D01*
X128157628Y-107872819D01*
X128067123Y-108008269D01*
X128004782Y-108158773D01*
X127973000Y-108318548D01*
X127127000Y-108318548D01*
X127127000Y-104328397D01*
X129173000Y-104328397D01*
X129173000Y-104471603D01*
X129200938Y-104612058D01*
X129255741Y-104744364D01*
X129335302Y-104863436D01*
X129436564Y-104964698D01*
X129555636Y-105044259D01*
X129687942Y-105099062D01*
X129828397Y-105127000D01*
X129971603Y-105127000D01*
X130112058Y-105099062D01*
X130244364Y-105044259D01*
X130363436Y-104964698D01*
X130464698Y-104863436D01*
X130544259Y-104744364D01*
X130599062Y-104612058D01*
X130627000Y-104471603D01*
X130627000Y-104328397D01*
X130599062Y-104187942D01*
X130544259Y-104055636D01*
X130464698Y-103936564D01*
X130363436Y-103835302D01*
X130244364Y-103755741D01*
X130112058Y-103700938D01*
X129971603Y-103673000D01*
X129828397Y-103673000D01*
X129687942Y-103700938D01*
X129555636Y-103755741D01*
X129436564Y-103835302D01*
X129335302Y-103936564D01*
X129255741Y-104055636D01*
X129200938Y-104187942D01*
X129173000Y-104328397D01*
X127127000Y-104328397D01*
X127127000Y-99018548D01*
X127973000Y-99018548D01*
X127973000Y-99181452D01*
X128004782Y-99341227D01*
X128067123Y-99491731D01*
X128157628Y-99627181D01*
X128272819Y-99742372D01*
X128408269Y-99832877D01*
X128558773Y-99895218D01*
X128718548Y-99927000D01*
X128881452Y-99927000D01*
X129041227Y-99895218D01*
X129191731Y-99832877D01*
X129213175Y-99818548D01*
X133773000Y-99818548D01*
X133773000Y-99981452D01*
X133804782Y-100141227D01*
X133867123Y-100291731D01*
X133957628Y-100427181D01*
X134072819Y-100542372D01*
X134208269Y-100632877D01*
X134358773Y-100695218D01*
X134518548Y-100727000D01*
X134681452Y-100727000D01*
X134841227Y-100695218D01*
X134991731Y-100632877D01*
X135127181Y-100542372D01*
X135242372Y-100427181D01*
X135332877Y-100291731D01*
X135395218Y-100141227D01*
X135427000Y-99981452D01*
X135427000Y-99818548D01*
X135395218Y-99658773D01*
X135332877Y-99508269D01*
X135242372Y-99372819D01*
X135127181Y-99257628D01*
X134991731Y-99167123D01*
X134841227Y-99104782D01*
X134681452Y-99073000D01*
X134518548Y-99073000D01*
X134358773Y-99104782D01*
X134208269Y-99167123D01*
X134072819Y-99257628D01*
X133957628Y-99372819D01*
X133867123Y-99508269D01*
X133804782Y-99658773D01*
X133773000Y-99818548D01*
X129213175Y-99818548D01*
X129327181Y-99742372D01*
X129442372Y-99627181D01*
X129532877Y-99491731D01*
X129595218Y-99341227D01*
X129627000Y-99181452D01*
X129627000Y-99018548D01*
X129595218Y-98858773D01*
X129532877Y-98708269D01*
X129442372Y-98572819D01*
X129327181Y-98457628D01*
X129191731Y-98367123D01*
X129041227Y-98304782D01*
X128881452Y-98273000D01*
X128718548Y-98273000D01*
X128558773Y-98304782D01*
X128408269Y-98367123D01*
X128272819Y-98457628D01*
X128157628Y-98572819D01*
X128067123Y-98708269D01*
X128004782Y-98858773D01*
X127973000Y-99018548D01*
X127127000Y-99018548D01*
X127127000Y-97074226D01*
X135743000Y-97074226D01*
X135743000Y-97325774D01*
X135792074Y-97572487D01*
X135888337Y-97804886D01*
X136028089Y-98014040D01*
X136205960Y-98191911D01*
X136415114Y-98331663D01*
X136647513Y-98427926D01*
X136859034Y-98470000D01*
X136647513Y-98512074D01*
X136415114Y-98608337D01*
X136205960Y-98748089D01*
X136028089Y-98925960D01*
X135888337Y-99135114D01*
X135792074Y-99367513D01*
X135743000Y-99614226D01*
X135743000Y-99865774D01*
X135792074Y-100112487D01*
X135888337Y-100344886D01*
X136028089Y-100554040D01*
X136205960Y-100731911D01*
X136415114Y-100871663D01*
X136647513Y-100967926D01*
X136894226Y-101017000D01*
X137145774Y-101017000D01*
X137392487Y-100967926D01*
X137624886Y-100871663D01*
X137834040Y-100731911D01*
X138011911Y-100554040D01*
X138151663Y-100344886D01*
X138247926Y-100112487D01*
X138290000Y-99900966D01*
X138332074Y-100112487D01*
X138428337Y-100344886D01*
X138568089Y-100554040D01*
X138745960Y-100731911D01*
X138955114Y-100871663D01*
X139187513Y-100967926D01*
X139434226Y-101017000D01*
X139685774Y-101017000D01*
X139932487Y-100967926D01*
X140164886Y-100871663D01*
X140374040Y-100731911D01*
X140551911Y-100554040D01*
X140691663Y-100344886D01*
X140787926Y-100112487D01*
X140830000Y-99900966D01*
X140872074Y-100112487D01*
X140968337Y-100344886D01*
X141108089Y-100554040D01*
X141285960Y-100731911D01*
X141495114Y-100871663D01*
X141727513Y-100967926D01*
X141974226Y-101017000D01*
X142225774Y-101017000D01*
X142472487Y-100967926D01*
X142704886Y-100871663D01*
X142914040Y-100731911D01*
X143091911Y-100554040D01*
X143231663Y-100344886D01*
X143327926Y-100112487D01*
X143377000Y-99865774D01*
X143377000Y-99614226D01*
X143327926Y-99367513D01*
X143231663Y-99135114D01*
X143091911Y-98925960D01*
X142914040Y-98748089D01*
X142704886Y-98608337D01*
X142472487Y-98512074D01*
X142306544Y-98479066D01*
X142950000Y-98479066D01*
X143033707Y-98470822D01*
X143114196Y-98446405D01*
X143188376Y-98406755D01*
X143253395Y-98353395D01*
X143306755Y-98288376D01*
X143346405Y-98214196D01*
X143370822Y-98133707D01*
X143379066Y-98050000D01*
X143379066Y-96350000D01*
X143370822Y-96266293D01*
X143346405Y-96185804D01*
X143306755Y-96111624D01*
X143253395Y-96046605D01*
X143188376Y-95993245D01*
X143114196Y-95953595D01*
X143033707Y-95929178D01*
X142950000Y-95920934D01*
X141250000Y-95920934D01*
X141166293Y-95929178D01*
X141085804Y-95953595D01*
X141011624Y-95993245D01*
X140946605Y-96046605D01*
X140893245Y-96111624D01*
X140853595Y-96185804D01*
X140829178Y-96266293D01*
X140820934Y-96350000D01*
X140820934Y-96993456D01*
X140787926Y-96827513D01*
X140691663Y-96595114D01*
X140551911Y-96385960D01*
X140374040Y-96208089D01*
X140164886Y-96068337D01*
X139932487Y-95972074D01*
X139685774Y-95923000D01*
X139434226Y-95923000D01*
X139187513Y-95972074D01*
X138955114Y-96068337D01*
X138745960Y-96208089D01*
X138568089Y-96385960D01*
X138428337Y-96595114D01*
X138332074Y-96827513D01*
X138290000Y-97039034D01*
X138247926Y-96827513D01*
X138151663Y-96595114D01*
X138011911Y-96385960D01*
X137834040Y-96208089D01*
X137624886Y-96068337D01*
X137392487Y-95972074D01*
X137145774Y-95923000D01*
X136894226Y-95923000D01*
X136647513Y-95972074D01*
X136415114Y-96068337D01*
X136205960Y-96208089D01*
X136028089Y-96385960D01*
X135888337Y-96595114D01*
X135792074Y-96827513D01*
X135743000Y-97074226D01*
X127127000Y-97074226D01*
X127127000Y-90918548D01*
X138173000Y-90918548D01*
X138173000Y-91081452D01*
X138204782Y-91241227D01*
X138267123Y-91391731D01*
X138357628Y-91527181D01*
X138472819Y-91642372D01*
X138608269Y-91732877D01*
X138758773Y-91795218D01*
X138918548Y-91827000D01*
X139081452Y-91827000D01*
X139241227Y-91795218D01*
X139391731Y-91732877D01*
X139527181Y-91642372D01*
X139642372Y-91527181D01*
X139732877Y-91391731D01*
X139795218Y-91241227D01*
X139827000Y-91081452D01*
X139827000Y-90918548D01*
X139795218Y-90758773D01*
X139732877Y-90608269D01*
X139642372Y-90472819D01*
X139527181Y-90357628D01*
X139391731Y-90267123D01*
X139241227Y-90204782D01*
X139081452Y-90173000D01*
X138918548Y-90173000D01*
X138758773Y-90204782D01*
X138608269Y-90267123D01*
X138472819Y-90357628D01*
X138357628Y-90472819D01*
X138267123Y-90608269D01*
X138204782Y-90758773D01*
X138173000Y-90918548D01*
X127127000Y-90918548D01*
X127127000Y-85928397D01*
X130673000Y-85928397D01*
X130673000Y-86071603D01*
X130700938Y-86212058D01*
X130755741Y-86344364D01*
X130835302Y-86463436D01*
X130936564Y-86564698D01*
X131055636Y-86644259D01*
X131187942Y-86699062D01*
X131328397Y-86727000D01*
X131471603Y-86727000D01*
X131612058Y-86699062D01*
X131744364Y-86644259D01*
X131863436Y-86564698D01*
X131964698Y-86463436D01*
X132044259Y-86344364D01*
X132099062Y-86212058D01*
X132127000Y-86071603D01*
X132127000Y-85928397D01*
X132099062Y-85787942D01*
X132044259Y-85655636D01*
X131964698Y-85536564D01*
X131863436Y-85435302D01*
X131744364Y-85355741D01*
X131612058Y-85300938D01*
X131471603Y-85273000D01*
X131328397Y-85273000D01*
X131187942Y-85300938D01*
X131055636Y-85355741D01*
X130936564Y-85435302D01*
X130835302Y-85536564D01*
X130755741Y-85655636D01*
X130700938Y-85787942D01*
X130673000Y-85928397D01*
X127127000Y-85928397D01*
X127127000Y-83000000D01*
X127124560Y-82975224D01*
X127117333Y-82951399D01*
X127105597Y-82929443D01*
X127089803Y-82910197D01*
X127070557Y-82894403D01*
X127048601Y-82882667D01*
X127024776Y-82875440D01*
X127000000Y-82873000D01*
X121377000Y-82873000D01*
X121377000Y-81418548D01*
X128173000Y-81418548D01*
X128173000Y-81581452D01*
X128204782Y-81741227D01*
X128267123Y-81891731D01*
X128357628Y-82027181D01*
X128472819Y-82142372D01*
X128608269Y-82232877D01*
X128758773Y-82295218D01*
X128918548Y-82327000D01*
X129081452Y-82327000D01*
X129241227Y-82295218D01*
X129391731Y-82232877D01*
X129527181Y-82142372D01*
X129642372Y-82027181D01*
X129732877Y-81891731D01*
X129795218Y-81741227D01*
X129827000Y-81581452D01*
X129827000Y-81418548D01*
X129795218Y-81258773D01*
X129732877Y-81108269D01*
X129642372Y-80972819D01*
X129527181Y-80857628D01*
X129391731Y-80767123D01*
X129241227Y-80704782D01*
X129081452Y-80673000D01*
X128918548Y-80673000D01*
X128758773Y-80704782D01*
X128608269Y-80767123D01*
X128472819Y-80857628D01*
X128357628Y-80972819D01*
X128267123Y-81108269D01*
X128204782Y-81258773D01*
X128173000Y-81418548D01*
X121377000Y-81418548D01*
X121377000Y-73318548D01*
X138573000Y-73318548D01*
X138573000Y-73481452D01*
X138604782Y-73641227D01*
X138667123Y-73791731D01*
X138757628Y-73927181D01*
X138872819Y-74042372D01*
X139008269Y-74132877D01*
X139158773Y-74195218D01*
X139318548Y-74227000D01*
X139481452Y-74227000D01*
X139641227Y-74195218D01*
X139791731Y-74132877D01*
X139927181Y-74042372D01*
X140042372Y-73927181D01*
X140132877Y-73791731D01*
X140195218Y-73641227D01*
X140227000Y-73481452D01*
X140227000Y-73318548D01*
X140195218Y-73158773D01*
X140132877Y-73008269D01*
X140042372Y-72872819D01*
X139927181Y-72757628D01*
X139791731Y-72667123D01*
X139641227Y-72604782D01*
X139481452Y-72573000D01*
X139318548Y-72573000D01*
X139158773Y-72604782D01*
X139008269Y-72667123D01*
X138872819Y-72757628D01*
X138757628Y-72872819D01*
X138667123Y-73008269D01*
X138604782Y-73158773D01*
X138573000Y-73318548D01*
X121377000Y-73318548D01*
X121377000Y-68818548D01*
X121773000Y-68818548D01*
X121773000Y-68981452D01*
X121804782Y-69141227D01*
X121867123Y-69291731D01*
X121957628Y-69427181D01*
X122072819Y-69542372D01*
X122208269Y-69632877D01*
X122358773Y-69695218D01*
X122518548Y-69727000D01*
X122681452Y-69727000D01*
X122841227Y-69695218D01*
X122991731Y-69632877D01*
X123127181Y-69542372D01*
X123242372Y-69427181D01*
X123332877Y-69291731D01*
X123395218Y-69141227D01*
X123427000Y-68981452D01*
X123427000Y-68818548D01*
X123395218Y-68658773D01*
X123332877Y-68508269D01*
X123242372Y-68372819D01*
X123127181Y-68257628D01*
X122991731Y-68167123D01*
X122841227Y-68104782D01*
X122681452Y-68073000D01*
X122518548Y-68073000D01*
X122358773Y-68104782D01*
X122208269Y-68167123D01*
X122072819Y-68257628D01*
X121957628Y-68372819D01*
X121867123Y-68508269D01*
X121804782Y-68658773D01*
X121773000Y-68818548D01*
X121377000Y-68818548D01*
X121377000Y-68250000D01*
X121374560Y-68225224D01*
X121367333Y-68201399D01*
X121355597Y-68179443D01*
X121339803Y-68160197D01*
X120808003Y-67628397D01*
X138873000Y-67628397D01*
X138873000Y-67771603D01*
X138900938Y-67912058D01*
X138955741Y-68044364D01*
X139035302Y-68163436D01*
X139136564Y-68264698D01*
X139255636Y-68344259D01*
X139387942Y-68399062D01*
X139528397Y-68427000D01*
X139671603Y-68427000D01*
X139812058Y-68399062D01*
X139944364Y-68344259D01*
X140063436Y-68264698D01*
X140164698Y-68163436D01*
X140244259Y-68044364D01*
X140299062Y-67912058D01*
X140327000Y-67771603D01*
X140327000Y-67628397D01*
X140299062Y-67487942D01*
X140244259Y-67355636D01*
X140164698Y-67236564D01*
X140063436Y-67135302D01*
X139944364Y-67055741D01*
X139812058Y-67000938D01*
X139671603Y-66973000D01*
X139528397Y-66973000D01*
X139387942Y-67000938D01*
X139255636Y-67055741D01*
X139136564Y-67135302D01*
X139035302Y-67236564D01*
X138955741Y-67355636D01*
X138900938Y-67487942D01*
X138873000Y-67628397D01*
X120808003Y-67628397D01*
X119098154Y-65918548D01*
X121573000Y-65918548D01*
X121573000Y-66081452D01*
X121604782Y-66241227D01*
X121667123Y-66391731D01*
X121757628Y-66527181D01*
X121872819Y-66642372D01*
X122008269Y-66732877D01*
X122158773Y-66795218D01*
X122318548Y-66827000D01*
X122481452Y-66827000D01*
X122641227Y-66795218D01*
X122791731Y-66732877D01*
X122927181Y-66642372D01*
X123042372Y-66527181D01*
X123132877Y-66391731D01*
X123195218Y-66241227D01*
X123227000Y-66081452D01*
X123227000Y-65918548D01*
X138673000Y-65918548D01*
X138673000Y-66081452D01*
X138704782Y-66241227D01*
X138767123Y-66391731D01*
X138857628Y-66527181D01*
X138972819Y-66642372D01*
X139108269Y-66732877D01*
X139258773Y-66795218D01*
X139418548Y-66827000D01*
X139581452Y-66827000D01*
X139741227Y-66795218D01*
X139891731Y-66732877D01*
X140027181Y-66642372D01*
X140142372Y-66527181D01*
X140232877Y-66391731D01*
X140295218Y-66241227D01*
X140327000Y-66081452D01*
X140327000Y-65918548D01*
X140295218Y-65758773D01*
X140232877Y-65608269D01*
X140142372Y-65472819D01*
X140027181Y-65357628D01*
X139891731Y-65267123D01*
X139741227Y-65204782D01*
X139581452Y-65173000D01*
X139418548Y-65173000D01*
X139258773Y-65204782D01*
X139108269Y-65267123D01*
X138972819Y-65357628D01*
X138857628Y-65472819D01*
X138767123Y-65608269D01*
X138704782Y-65758773D01*
X138673000Y-65918548D01*
X123227000Y-65918548D01*
X123195218Y-65758773D01*
X123132877Y-65608269D01*
X123042372Y-65472819D01*
X122927181Y-65357628D01*
X122791731Y-65267123D01*
X122641227Y-65204782D01*
X122481452Y-65173000D01*
X122318548Y-65173000D01*
X122158773Y-65204782D01*
X122008269Y-65267123D01*
X121872819Y-65357628D01*
X121757628Y-65472819D01*
X121667123Y-65608269D01*
X121604782Y-65758773D01*
X121573000Y-65918548D01*
X119098154Y-65918548D01*
X117627000Y-64447394D01*
X117627000Y-61214226D01*
X121323000Y-61214226D01*
X121323000Y-61465774D01*
X121372074Y-61712487D01*
X121468337Y-61944886D01*
X121608089Y-62154040D01*
X121785960Y-62331911D01*
X121995114Y-62471663D01*
X122227513Y-62567926D01*
X122439034Y-62610000D01*
X122227513Y-62652074D01*
X121995114Y-62748337D01*
X121785960Y-62888089D01*
X121608089Y-63065960D01*
X121468337Y-63275114D01*
X121372074Y-63507513D01*
X121323000Y-63754226D01*
X121323000Y-64005774D01*
X121372074Y-64252487D01*
X121468337Y-64484886D01*
X121608089Y-64694040D01*
X121785960Y-64871911D01*
X121995114Y-65011663D01*
X122227513Y-65107926D01*
X122474226Y-65157000D01*
X122725774Y-65157000D01*
X122972487Y-65107926D01*
X123204886Y-65011663D01*
X123414040Y-64871911D01*
X123591911Y-64694040D01*
X123731663Y-64484886D01*
X123827926Y-64252487D01*
X123870000Y-64040966D01*
X123912074Y-64252487D01*
X124008337Y-64484886D01*
X124148089Y-64694040D01*
X124325960Y-64871911D01*
X124535114Y-65011663D01*
X124767513Y-65107926D01*
X125014226Y-65157000D01*
X125265774Y-65157000D01*
X125512487Y-65107926D01*
X125744886Y-65011663D01*
X125954040Y-64871911D01*
X126131911Y-64694040D01*
X126271663Y-64484886D01*
X126367926Y-64252487D01*
X126410000Y-64040966D01*
X126452074Y-64252487D01*
X126548337Y-64484886D01*
X126688089Y-64694040D01*
X126865960Y-64871911D01*
X127075114Y-65011663D01*
X127307513Y-65107926D01*
X127554226Y-65157000D01*
X127805774Y-65157000D01*
X128052487Y-65107926D01*
X128284886Y-65011663D01*
X128494040Y-64871911D01*
X128671911Y-64694040D01*
X128811663Y-64484886D01*
X128907926Y-64252487D01*
X128957000Y-64005774D01*
X128957000Y-63754226D01*
X128907926Y-63507513D01*
X128811663Y-63275114D01*
X128671911Y-63065960D01*
X128494040Y-62888089D01*
X128284886Y-62748337D01*
X128052487Y-62652074D01*
X127840966Y-62610000D01*
X128052487Y-62567926D01*
X128284886Y-62471663D01*
X128494040Y-62331911D01*
X128671911Y-62154040D01*
X128811663Y-61944886D01*
X128907926Y-61712487D01*
X128957000Y-61465774D01*
X128957000Y-61214226D01*
X128907926Y-60967513D01*
X128811663Y-60735114D01*
X128671911Y-60525960D01*
X128494040Y-60348089D01*
X128284886Y-60208337D01*
X128068117Y-60118548D01*
X132173000Y-60118548D01*
X132173000Y-60281452D01*
X132204782Y-60441227D01*
X132267123Y-60591731D01*
X132357628Y-60727181D01*
X132472819Y-60842372D01*
X132608269Y-60932877D01*
X132758773Y-60995218D01*
X132918548Y-61027000D01*
X133081452Y-61027000D01*
X133241227Y-60995218D01*
X133391731Y-60932877D01*
X133527181Y-60842372D01*
X133642372Y-60727181D01*
X133732877Y-60591731D01*
X133795218Y-60441227D01*
X133827000Y-60281452D01*
X133827000Y-60118548D01*
X133795218Y-59958773D01*
X133732877Y-59808269D01*
X133642372Y-59672819D01*
X133527181Y-59557628D01*
X133391731Y-59467123D01*
X133241227Y-59404782D01*
X133081452Y-59373000D01*
X132918548Y-59373000D01*
X132758773Y-59404782D01*
X132608269Y-59467123D01*
X132472819Y-59557628D01*
X132357628Y-59672819D01*
X132267123Y-59808269D01*
X132204782Y-59958773D01*
X132173000Y-60118548D01*
X128068117Y-60118548D01*
X128052487Y-60112074D01*
X127805774Y-60063000D01*
X127554226Y-60063000D01*
X127307513Y-60112074D01*
X127075114Y-60208337D01*
X126865960Y-60348089D01*
X126688089Y-60525960D01*
X126548337Y-60735114D01*
X126452074Y-60967513D01*
X126410000Y-61179034D01*
X126367926Y-60967513D01*
X126271663Y-60735114D01*
X126131911Y-60525960D01*
X125954040Y-60348089D01*
X125744886Y-60208337D01*
X125512487Y-60112074D01*
X125265774Y-60063000D01*
X125014226Y-60063000D01*
X124767513Y-60112074D01*
X124535114Y-60208337D01*
X124325960Y-60348089D01*
X124148089Y-60525960D01*
X124008337Y-60735114D01*
X123912074Y-60967513D01*
X123870000Y-61179034D01*
X123827926Y-60967513D01*
X123731663Y-60735114D01*
X123591911Y-60525960D01*
X123414040Y-60348089D01*
X123204886Y-60208337D01*
X122972487Y-60112074D01*
X122725774Y-60063000D01*
X122474226Y-60063000D01*
X122227513Y-60112074D01*
X121995114Y-60208337D01*
X121785960Y-60348089D01*
X121608089Y-60525960D01*
X121468337Y-60735114D01*
X121372074Y-60967513D01*
X121323000Y-61214226D01*
X117627000Y-61214226D01*
X117627000Y-57452000D01*
X141373000Y-57452000D01*
X141373000Y-89000000D01*
%TA.AperFunction,Conductor*%
D19*
G36*
X141373000Y-89000000D02*
G01*
X141375440Y-89024776D01*
X141382667Y-89048601D01*
X141394403Y-89070557D01*
X141410197Y-89089803D01*
X141429443Y-89105597D01*
X141451399Y-89117333D01*
X141475224Y-89124560D01*
X141500000Y-89127000D01*
X146873000Y-89127000D01*
X146873000Y-114548000D01*
X127127000Y-114548000D01*
X127127000Y-108318548D01*
X127973000Y-108318548D01*
X127973000Y-108481452D01*
X128004782Y-108641227D01*
X128067123Y-108791731D01*
X128157628Y-108927181D01*
X128272819Y-109042372D01*
X128408269Y-109132877D01*
X128558773Y-109195218D01*
X128718548Y-109227000D01*
X128881452Y-109227000D01*
X129041227Y-109195218D01*
X129191731Y-109132877D01*
X129327181Y-109042372D01*
X129442372Y-108927181D01*
X129532877Y-108791731D01*
X129595218Y-108641227D01*
X129627000Y-108481452D01*
X129627000Y-108318548D01*
X129595218Y-108158773D01*
X129532877Y-108008269D01*
X129442372Y-107872819D01*
X129327181Y-107757628D01*
X129191731Y-107667123D01*
X129041227Y-107604782D01*
X128881452Y-107573000D01*
X128718548Y-107573000D01*
X128558773Y-107604782D01*
X128408269Y-107667123D01*
X128272819Y-107757628D01*
X128157628Y-107872819D01*
X128067123Y-108008269D01*
X128004782Y-108158773D01*
X127973000Y-108318548D01*
X127127000Y-108318548D01*
X127127000Y-104328397D01*
X129173000Y-104328397D01*
X129173000Y-104471603D01*
X129200938Y-104612058D01*
X129255741Y-104744364D01*
X129335302Y-104863436D01*
X129436564Y-104964698D01*
X129555636Y-105044259D01*
X129687942Y-105099062D01*
X129828397Y-105127000D01*
X129971603Y-105127000D01*
X130112058Y-105099062D01*
X130244364Y-105044259D01*
X130363436Y-104964698D01*
X130464698Y-104863436D01*
X130544259Y-104744364D01*
X130599062Y-104612058D01*
X130627000Y-104471603D01*
X130627000Y-104328397D01*
X130599062Y-104187942D01*
X130544259Y-104055636D01*
X130464698Y-103936564D01*
X130363436Y-103835302D01*
X130244364Y-103755741D01*
X130112058Y-103700938D01*
X129971603Y-103673000D01*
X129828397Y-103673000D01*
X129687942Y-103700938D01*
X129555636Y-103755741D01*
X129436564Y-103835302D01*
X129335302Y-103936564D01*
X129255741Y-104055636D01*
X129200938Y-104187942D01*
X129173000Y-104328397D01*
X127127000Y-104328397D01*
X127127000Y-99018548D01*
X127973000Y-99018548D01*
X127973000Y-99181452D01*
X128004782Y-99341227D01*
X128067123Y-99491731D01*
X128157628Y-99627181D01*
X128272819Y-99742372D01*
X128408269Y-99832877D01*
X128558773Y-99895218D01*
X128718548Y-99927000D01*
X128881452Y-99927000D01*
X129041227Y-99895218D01*
X129191731Y-99832877D01*
X129213175Y-99818548D01*
X133773000Y-99818548D01*
X133773000Y-99981452D01*
X133804782Y-100141227D01*
X133867123Y-100291731D01*
X133957628Y-100427181D01*
X134072819Y-100542372D01*
X134208269Y-100632877D01*
X134358773Y-100695218D01*
X134518548Y-100727000D01*
X134681452Y-100727000D01*
X134841227Y-100695218D01*
X134991731Y-100632877D01*
X135127181Y-100542372D01*
X135242372Y-100427181D01*
X135332877Y-100291731D01*
X135395218Y-100141227D01*
X135427000Y-99981452D01*
X135427000Y-99818548D01*
X135395218Y-99658773D01*
X135332877Y-99508269D01*
X135242372Y-99372819D01*
X135127181Y-99257628D01*
X134991731Y-99167123D01*
X134841227Y-99104782D01*
X134681452Y-99073000D01*
X134518548Y-99073000D01*
X134358773Y-99104782D01*
X134208269Y-99167123D01*
X134072819Y-99257628D01*
X133957628Y-99372819D01*
X133867123Y-99508269D01*
X133804782Y-99658773D01*
X133773000Y-99818548D01*
X129213175Y-99818548D01*
X129327181Y-99742372D01*
X129442372Y-99627181D01*
X129532877Y-99491731D01*
X129595218Y-99341227D01*
X129627000Y-99181452D01*
X129627000Y-99018548D01*
X129595218Y-98858773D01*
X129532877Y-98708269D01*
X129442372Y-98572819D01*
X129327181Y-98457628D01*
X129191731Y-98367123D01*
X129041227Y-98304782D01*
X128881452Y-98273000D01*
X128718548Y-98273000D01*
X128558773Y-98304782D01*
X128408269Y-98367123D01*
X128272819Y-98457628D01*
X128157628Y-98572819D01*
X128067123Y-98708269D01*
X128004782Y-98858773D01*
X127973000Y-99018548D01*
X127127000Y-99018548D01*
X127127000Y-97074226D01*
X135743000Y-97074226D01*
X135743000Y-97325774D01*
X135792074Y-97572487D01*
X135888337Y-97804886D01*
X136028089Y-98014040D01*
X136205960Y-98191911D01*
X136415114Y-98331663D01*
X136647513Y-98427926D01*
X136859034Y-98470000D01*
X136647513Y-98512074D01*
X136415114Y-98608337D01*
X136205960Y-98748089D01*
X136028089Y-98925960D01*
X135888337Y-99135114D01*
X135792074Y-99367513D01*
X135743000Y-99614226D01*
X135743000Y-99865774D01*
X135792074Y-100112487D01*
X135888337Y-100344886D01*
X136028089Y-100554040D01*
X136205960Y-100731911D01*
X136415114Y-100871663D01*
X136647513Y-100967926D01*
X136894226Y-101017000D01*
X137145774Y-101017000D01*
X137392487Y-100967926D01*
X137624886Y-100871663D01*
X137834040Y-100731911D01*
X138011911Y-100554040D01*
X138151663Y-100344886D01*
X138247926Y-100112487D01*
X138290000Y-99900966D01*
X138332074Y-100112487D01*
X138428337Y-100344886D01*
X138568089Y-100554040D01*
X138745960Y-100731911D01*
X138955114Y-100871663D01*
X139187513Y-100967926D01*
X139434226Y-101017000D01*
X139685774Y-101017000D01*
X139932487Y-100967926D01*
X140164886Y-100871663D01*
X140374040Y-100731911D01*
X140551911Y-100554040D01*
X140691663Y-100344886D01*
X140787926Y-100112487D01*
X140830000Y-99900966D01*
X140872074Y-100112487D01*
X140968337Y-100344886D01*
X141108089Y-100554040D01*
X141285960Y-100731911D01*
X141495114Y-100871663D01*
X141727513Y-100967926D01*
X141974226Y-101017000D01*
X142225774Y-101017000D01*
X142472487Y-100967926D01*
X142704886Y-100871663D01*
X142914040Y-100731911D01*
X143091911Y-100554040D01*
X143231663Y-100344886D01*
X143327926Y-100112487D01*
X143377000Y-99865774D01*
X143377000Y-99614226D01*
X143327926Y-99367513D01*
X143231663Y-99135114D01*
X143091911Y-98925960D01*
X142914040Y-98748089D01*
X142704886Y-98608337D01*
X142472487Y-98512074D01*
X142306544Y-98479066D01*
X142950000Y-98479066D01*
X143033707Y-98470822D01*
X143114196Y-98446405D01*
X143188376Y-98406755D01*
X143253395Y-98353395D01*
X143306755Y-98288376D01*
X143346405Y-98214196D01*
X143370822Y-98133707D01*
X143379066Y-98050000D01*
X143379066Y-96350000D01*
X143370822Y-96266293D01*
X143346405Y-96185804D01*
X143306755Y-96111624D01*
X143253395Y-96046605D01*
X143188376Y-95993245D01*
X143114196Y-95953595D01*
X143033707Y-95929178D01*
X142950000Y-95920934D01*
X141250000Y-95920934D01*
X141166293Y-95929178D01*
X141085804Y-95953595D01*
X141011624Y-95993245D01*
X140946605Y-96046605D01*
X140893245Y-96111624D01*
X140853595Y-96185804D01*
X140829178Y-96266293D01*
X140820934Y-96350000D01*
X140820934Y-96993456D01*
X140787926Y-96827513D01*
X140691663Y-96595114D01*
X140551911Y-96385960D01*
X140374040Y-96208089D01*
X140164886Y-96068337D01*
X139932487Y-95972074D01*
X139685774Y-95923000D01*
X139434226Y-95923000D01*
X139187513Y-95972074D01*
X138955114Y-96068337D01*
X138745960Y-96208089D01*
X138568089Y-96385960D01*
X138428337Y-96595114D01*
X138332074Y-96827513D01*
X138290000Y-97039034D01*
X138247926Y-96827513D01*
X138151663Y-96595114D01*
X138011911Y-96385960D01*
X137834040Y-96208089D01*
X137624886Y-96068337D01*
X137392487Y-95972074D01*
X137145774Y-95923000D01*
X136894226Y-95923000D01*
X136647513Y-95972074D01*
X136415114Y-96068337D01*
X136205960Y-96208089D01*
X136028089Y-96385960D01*
X135888337Y-96595114D01*
X135792074Y-96827513D01*
X135743000Y-97074226D01*
X127127000Y-97074226D01*
X127127000Y-90918548D01*
X138173000Y-90918548D01*
X138173000Y-91081452D01*
X138204782Y-91241227D01*
X138267123Y-91391731D01*
X138357628Y-91527181D01*
X138472819Y-91642372D01*
X138608269Y-91732877D01*
X138758773Y-91795218D01*
X138918548Y-91827000D01*
X139081452Y-91827000D01*
X139241227Y-91795218D01*
X139391731Y-91732877D01*
X139527181Y-91642372D01*
X139642372Y-91527181D01*
X139732877Y-91391731D01*
X139795218Y-91241227D01*
X139827000Y-91081452D01*
X139827000Y-90918548D01*
X139795218Y-90758773D01*
X139732877Y-90608269D01*
X139642372Y-90472819D01*
X139527181Y-90357628D01*
X139391731Y-90267123D01*
X139241227Y-90204782D01*
X139081452Y-90173000D01*
X138918548Y-90173000D01*
X138758773Y-90204782D01*
X138608269Y-90267123D01*
X138472819Y-90357628D01*
X138357628Y-90472819D01*
X138267123Y-90608269D01*
X138204782Y-90758773D01*
X138173000Y-90918548D01*
X127127000Y-90918548D01*
X127127000Y-85928397D01*
X130673000Y-85928397D01*
X130673000Y-86071603D01*
X130700938Y-86212058D01*
X130755741Y-86344364D01*
X130835302Y-86463436D01*
X130936564Y-86564698D01*
X131055636Y-86644259D01*
X131187942Y-86699062D01*
X131328397Y-86727000D01*
X131471603Y-86727000D01*
X131612058Y-86699062D01*
X131744364Y-86644259D01*
X131863436Y-86564698D01*
X131964698Y-86463436D01*
X132044259Y-86344364D01*
X132099062Y-86212058D01*
X132127000Y-86071603D01*
X132127000Y-85928397D01*
X132099062Y-85787942D01*
X132044259Y-85655636D01*
X131964698Y-85536564D01*
X131863436Y-85435302D01*
X131744364Y-85355741D01*
X131612058Y-85300938D01*
X131471603Y-85273000D01*
X131328397Y-85273000D01*
X131187942Y-85300938D01*
X131055636Y-85355741D01*
X130936564Y-85435302D01*
X130835302Y-85536564D01*
X130755741Y-85655636D01*
X130700938Y-85787942D01*
X130673000Y-85928397D01*
X127127000Y-85928397D01*
X127127000Y-83000000D01*
X127124560Y-82975224D01*
X127117333Y-82951399D01*
X127105597Y-82929443D01*
X127089803Y-82910197D01*
X127070557Y-82894403D01*
X127048601Y-82882667D01*
X127024776Y-82875440D01*
X127000000Y-82873000D01*
X121377000Y-82873000D01*
X121377000Y-81418548D01*
X128173000Y-81418548D01*
X128173000Y-81581452D01*
X128204782Y-81741227D01*
X128267123Y-81891731D01*
X128357628Y-82027181D01*
X128472819Y-82142372D01*
X128608269Y-82232877D01*
X128758773Y-82295218D01*
X128918548Y-82327000D01*
X129081452Y-82327000D01*
X129241227Y-82295218D01*
X129391731Y-82232877D01*
X129527181Y-82142372D01*
X129642372Y-82027181D01*
X129732877Y-81891731D01*
X129795218Y-81741227D01*
X129827000Y-81581452D01*
X129827000Y-81418548D01*
X129795218Y-81258773D01*
X129732877Y-81108269D01*
X129642372Y-80972819D01*
X129527181Y-80857628D01*
X129391731Y-80767123D01*
X129241227Y-80704782D01*
X129081452Y-80673000D01*
X128918548Y-80673000D01*
X128758773Y-80704782D01*
X128608269Y-80767123D01*
X128472819Y-80857628D01*
X128357628Y-80972819D01*
X128267123Y-81108269D01*
X128204782Y-81258773D01*
X128173000Y-81418548D01*
X121377000Y-81418548D01*
X121377000Y-73318548D01*
X138573000Y-73318548D01*
X138573000Y-73481452D01*
X138604782Y-73641227D01*
X138667123Y-73791731D01*
X138757628Y-73927181D01*
X138872819Y-74042372D01*
X139008269Y-74132877D01*
X139158773Y-74195218D01*
X139318548Y-74227000D01*
X139481452Y-74227000D01*
X139641227Y-74195218D01*
X139791731Y-74132877D01*
X139927181Y-74042372D01*
X140042372Y-73927181D01*
X140132877Y-73791731D01*
X140195218Y-73641227D01*
X140227000Y-73481452D01*
X140227000Y-73318548D01*
X140195218Y-73158773D01*
X140132877Y-73008269D01*
X140042372Y-72872819D01*
X139927181Y-72757628D01*
X139791731Y-72667123D01*
X139641227Y-72604782D01*
X139481452Y-72573000D01*
X139318548Y-72573000D01*
X139158773Y-72604782D01*
X139008269Y-72667123D01*
X138872819Y-72757628D01*
X138757628Y-72872819D01*
X138667123Y-73008269D01*
X138604782Y-73158773D01*
X138573000Y-73318548D01*
X121377000Y-73318548D01*
X121377000Y-68818548D01*
X121773000Y-68818548D01*
X121773000Y-68981452D01*
X121804782Y-69141227D01*
X121867123Y-69291731D01*
X121957628Y-69427181D01*
X122072819Y-69542372D01*
X122208269Y-69632877D01*
X122358773Y-69695218D01*
X122518548Y-69727000D01*
X122681452Y-69727000D01*
X122841227Y-69695218D01*
X122991731Y-69632877D01*
X123127181Y-69542372D01*
X123242372Y-69427181D01*
X123332877Y-69291731D01*
X123395218Y-69141227D01*
X123427000Y-68981452D01*
X123427000Y-68818548D01*
X123395218Y-68658773D01*
X123332877Y-68508269D01*
X123242372Y-68372819D01*
X123127181Y-68257628D01*
X122991731Y-68167123D01*
X122841227Y-68104782D01*
X122681452Y-68073000D01*
X122518548Y-68073000D01*
X122358773Y-68104782D01*
X122208269Y-68167123D01*
X122072819Y-68257628D01*
X121957628Y-68372819D01*
X121867123Y-68508269D01*
X121804782Y-68658773D01*
X121773000Y-68818548D01*
X121377000Y-68818548D01*
X121377000Y-68250000D01*
X121374560Y-68225224D01*
X121367333Y-68201399D01*
X121355597Y-68179443D01*
X121339803Y-68160197D01*
X120808003Y-67628397D01*
X138873000Y-67628397D01*
X138873000Y-67771603D01*
X138900938Y-67912058D01*
X138955741Y-68044364D01*
X139035302Y-68163436D01*
X139136564Y-68264698D01*
X139255636Y-68344259D01*
X139387942Y-68399062D01*
X139528397Y-68427000D01*
X139671603Y-68427000D01*
X139812058Y-68399062D01*
X139944364Y-68344259D01*
X140063436Y-68264698D01*
X140164698Y-68163436D01*
X140244259Y-68044364D01*
X140299062Y-67912058D01*
X140327000Y-67771603D01*
X140327000Y-67628397D01*
X140299062Y-67487942D01*
X140244259Y-67355636D01*
X140164698Y-67236564D01*
X140063436Y-67135302D01*
X139944364Y-67055741D01*
X139812058Y-67000938D01*
X139671603Y-66973000D01*
X139528397Y-66973000D01*
X139387942Y-67000938D01*
X139255636Y-67055741D01*
X139136564Y-67135302D01*
X139035302Y-67236564D01*
X138955741Y-67355636D01*
X138900938Y-67487942D01*
X138873000Y-67628397D01*
X120808003Y-67628397D01*
X119098154Y-65918548D01*
X121573000Y-65918548D01*
X121573000Y-66081452D01*
X121604782Y-66241227D01*
X121667123Y-66391731D01*
X121757628Y-66527181D01*
X121872819Y-66642372D01*
X122008269Y-66732877D01*
X122158773Y-66795218D01*
X122318548Y-66827000D01*
X122481452Y-66827000D01*
X122641227Y-66795218D01*
X122791731Y-66732877D01*
X122927181Y-66642372D01*
X123042372Y-66527181D01*
X123132877Y-66391731D01*
X123195218Y-66241227D01*
X123227000Y-66081452D01*
X123227000Y-65918548D01*
X138673000Y-65918548D01*
X138673000Y-66081452D01*
X138704782Y-66241227D01*
X138767123Y-66391731D01*
X138857628Y-66527181D01*
X138972819Y-66642372D01*
X139108269Y-66732877D01*
X139258773Y-66795218D01*
X139418548Y-66827000D01*
X139581452Y-66827000D01*
X139741227Y-66795218D01*
X139891731Y-66732877D01*
X140027181Y-66642372D01*
X140142372Y-66527181D01*
X140232877Y-66391731D01*
X140295218Y-66241227D01*
X140327000Y-66081452D01*
X140327000Y-65918548D01*
X140295218Y-65758773D01*
X140232877Y-65608269D01*
X140142372Y-65472819D01*
X140027181Y-65357628D01*
X139891731Y-65267123D01*
X139741227Y-65204782D01*
X139581452Y-65173000D01*
X139418548Y-65173000D01*
X139258773Y-65204782D01*
X139108269Y-65267123D01*
X138972819Y-65357628D01*
X138857628Y-65472819D01*
X138767123Y-65608269D01*
X138704782Y-65758773D01*
X138673000Y-65918548D01*
X123227000Y-65918548D01*
X123195218Y-65758773D01*
X123132877Y-65608269D01*
X123042372Y-65472819D01*
X122927181Y-65357628D01*
X122791731Y-65267123D01*
X122641227Y-65204782D01*
X122481452Y-65173000D01*
X122318548Y-65173000D01*
X122158773Y-65204782D01*
X122008269Y-65267123D01*
X121872819Y-65357628D01*
X121757628Y-65472819D01*
X121667123Y-65608269D01*
X121604782Y-65758773D01*
X121573000Y-65918548D01*
X119098154Y-65918548D01*
X117627000Y-64447394D01*
X117627000Y-61214226D01*
X121323000Y-61214226D01*
X121323000Y-61465774D01*
X121372074Y-61712487D01*
X121468337Y-61944886D01*
X121608089Y-62154040D01*
X121785960Y-62331911D01*
X121995114Y-62471663D01*
X122227513Y-62567926D01*
X122439034Y-62610000D01*
X122227513Y-62652074D01*
X121995114Y-62748337D01*
X121785960Y-62888089D01*
X121608089Y-63065960D01*
X121468337Y-63275114D01*
X121372074Y-63507513D01*
X121323000Y-63754226D01*
X121323000Y-64005774D01*
X121372074Y-64252487D01*
X121468337Y-64484886D01*
X121608089Y-64694040D01*
X121785960Y-64871911D01*
X121995114Y-65011663D01*
X122227513Y-65107926D01*
X122474226Y-65157000D01*
X122725774Y-65157000D01*
X122972487Y-65107926D01*
X123204886Y-65011663D01*
X123414040Y-64871911D01*
X123591911Y-64694040D01*
X123731663Y-64484886D01*
X123827926Y-64252487D01*
X123870000Y-64040966D01*
X123912074Y-64252487D01*
X124008337Y-64484886D01*
X124148089Y-64694040D01*
X124325960Y-64871911D01*
X124535114Y-65011663D01*
X124767513Y-65107926D01*
X125014226Y-65157000D01*
X125265774Y-65157000D01*
X125512487Y-65107926D01*
X125744886Y-65011663D01*
X125954040Y-64871911D01*
X126131911Y-64694040D01*
X126271663Y-64484886D01*
X126367926Y-64252487D01*
X126410000Y-64040966D01*
X126452074Y-64252487D01*
X126548337Y-64484886D01*
X126688089Y-64694040D01*
X126865960Y-64871911D01*
X127075114Y-65011663D01*
X127307513Y-65107926D01*
X127554226Y-65157000D01*
X127805774Y-65157000D01*
X128052487Y-65107926D01*
X128284886Y-65011663D01*
X128494040Y-64871911D01*
X128671911Y-64694040D01*
X128811663Y-64484886D01*
X128907926Y-64252487D01*
X128957000Y-64005774D01*
X128957000Y-63754226D01*
X128907926Y-63507513D01*
X128811663Y-63275114D01*
X128671911Y-63065960D01*
X128494040Y-62888089D01*
X128284886Y-62748337D01*
X128052487Y-62652074D01*
X127840966Y-62610000D01*
X128052487Y-62567926D01*
X128284886Y-62471663D01*
X128494040Y-62331911D01*
X128671911Y-62154040D01*
X128811663Y-61944886D01*
X128907926Y-61712487D01*
X128957000Y-61465774D01*
X128957000Y-61214226D01*
X128907926Y-60967513D01*
X128811663Y-60735114D01*
X128671911Y-60525960D01*
X128494040Y-60348089D01*
X128284886Y-60208337D01*
X128068117Y-60118548D01*
X132173000Y-60118548D01*
X132173000Y-60281452D01*
X132204782Y-60441227D01*
X132267123Y-60591731D01*
X132357628Y-60727181D01*
X132472819Y-60842372D01*
X132608269Y-60932877D01*
X132758773Y-60995218D01*
X132918548Y-61027000D01*
X133081452Y-61027000D01*
X133241227Y-60995218D01*
X133391731Y-60932877D01*
X133527181Y-60842372D01*
X133642372Y-60727181D01*
X133732877Y-60591731D01*
X133795218Y-60441227D01*
X133827000Y-60281452D01*
X133827000Y-60118548D01*
X133795218Y-59958773D01*
X133732877Y-59808269D01*
X133642372Y-59672819D01*
X133527181Y-59557628D01*
X133391731Y-59467123D01*
X133241227Y-59404782D01*
X133081452Y-59373000D01*
X132918548Y-59373000D01*
X132758773Y-59404782D01*
X132608269Y-59467123D01*
X132472819Y-59557628D01*
X132357628Y-59672819D01*
X132267123Y-59808269D01*
X132204782Y-59958773D01*
X132173000Y-60118548D01*
X128068117Y-60118548D01*
X128052487Y-60112074D01*
X127805774Y-60063000D01*
X127554226Y-60063000D01*
X127307513Y-60112074D01*
X127075114Y-60208337D01*
X126865960Y-60348089D01*
X126688089Y-60525960D01*
X126548337Y-60735114D01*
X126452074Y-60967513D01*
X126410000Y-61179034D01*
X126367926Y-60967513D01*
X126271663Y-60735114D01*
X126131911Y-60525960D01*
X125954040Y-60348089D01*
X125744886Y-60208337D01*
X125512487Y-60112074D01*
X125265774Y-60063000D01*
X125014226Y-60063000D01*
X124767513Y-60112074D01*
X124535114Y-60208337D01*
X124325960Y-60348089D01*
X124148089Y-60525960D01*
X124008337Y-60735114D01*
X123912074Y-60967513D01*
X123870000Y-61179034D01*
X123827926Y-60967513D01*
X123731663Y-60735114D01*
X123591911Y-60525960D01*
X123414040Y-60348089D01*
X123204886Y-60208337D01*
X122972487Y-60112074D01*
X122725774Y-60063000D01*
X122474226Y-60063000D01*
X122227513Y-60112074D01*
X121995114Y-60208337D01*
X121785960Y-60348089D01*
X121608089Y-60525960D01*
X121468337Y-60735114D01*
X121372074Y-60967513D01*
X121323000Y-61214226D01*
X117627000Y-61214226D01*
X117627000Y-57452000D01*
X141373000Y-57452000D01*
X141373000Y-89000000D01*
G37*
%TD.AperFunction*%
%TD*%
D18*
%TO.N,GND2*%
X170071131Y-57639088D02*
X170073356Y-57660257D01*
X170074694Y-57681523D01*
X170075336Y-57686212D01*
X170238254Y-58830936D01*
X170244157Y-58858705D01*
X170249765Y-58886520D01*
X170251038Y-58891079D01*
X170567806Y-60003102D01*
X170577430Y-60029835D01*
X170586754Y-60056609D01*
X170588630Y-60060944D01*
X170588633Y-60060952D01*
X170588634Y-60060953D01*
X171053391Y-61119696D01*
X171066510Y-61144790D01*
X171079425Y-61170137D01*
X171081877Y-61174185D01*
X171686021Y-62160059D01*
X171702474Y-62183211D01*
X171718660Y-62206500D01*
X171721638Y-62210178D01*
X172453992Y-63104939D01*
X172473432Y-63125640D01*
X172492631Y-63146519D01*
X172496081Y-63149759D01*
X173343091Y-63936850D01*
X173365134Y-63954700D01*
X173387017Y-63972803D01*
X173390875Y-63975545D01*
X174336868Y-64640400D01*
X174361150Y-64655106D01*
X174385266Y-64670058D01*
X174389454Y-64672247D01*
X174389460Y-64672251D01*
X174389466Y-64672254D01*
X175416933Y-65202569D01*
X175443015Y-65213856D01*
X175468909Y-65225384D01*
X175473362Y-65226988D01*
X176563301Y-65612956D01*
X176590667Y-65620597D01*
X176617892Y-65628506D01*
X176622522Y-65629491D01*
X177754758Y-65863966D01*
X177782897Y-65867820D01*
X177810955Y-65871963D01*
X177815675Y-65872310D01*
X178548001Y-65922235D01*
X178548001Y-66873000D01*
X157750000Y-66873000D01*
X157725224Y-66875440D01*
X157701399Y-66882667D01*
X157679443Y-66894403D01*
X157660197Y-66910197D01*
X157644403Y-66929443D01*
X157632667Y-66951399D01*
X157625440Y-66975224D01*
X157623000Y-67000000D01*
X157623000Y-104000000D01*
X157625440Y-104024776D01*
X157632667Y-104048601D01*
X157644403Y-104070557D01*
X157660197Y-104089803D01*
X157679443Y-104105597D01*
X157701399Y-104117333D01*
X157725224Y-104124560D01*
X157750000Y-104127000D01*
X160194898Y-104127000D01*
X160229604Y-104141376D01*
X160408699Y-104177000D01*
X160591301Y-104177000D01*
X160770396Y-104141376D01*
X160805102Y-104127000D01*
X178548000Y-104127000D01*
X178548000Y-106064271D01*
X178360912Y-106071131D01*
X178339742Y-106073356D01*
X178318477Y-106074694D01*
X178313788Y-106075336D01*
X177169064Y-106238254D01*
X177141295Y-106244157D01*
X177113480Y-106249765D01*
X177108921Y-106251038D01*
X175996898Y-106567806D01*
X175970179Y-106577425D01*
X175943391Y-106586754D01*
X175939056Y-106588630D01*
X175939048Y-106588633D01*
X175939041Y-106588636D01*
X174880303Y-107053391D01*
X174855153Y-107066539D01*
X174829863Y-107079425D01*
X174825815Y-107081877D01*
X173839941Y-107686021D01*
X173816819Y-107702453D01*
X173793500Y-107718660D01*
X173789822Y-107721638D01*
X172895062Y-108453991D01*
X172874358Y-108473433D01*
X172853481Y-108492631D01*
X172850240Y-108496081D01*
X172063150Y-109343091D01*
X172045300Y-109365134D01*
X172027197Y-109387017D01*
X172024455Y-109390875D01*
X171359600Y-110336868D01*
X171344894Y-110361150D01*
X171329942Y-110385266D01*
X171327753Y-110389454D01*
X171327749Y-110389460D01*
X171327749Y-110389461D01*
X170797431Y-111416934D01*
X170786164Y-111442970D01*
X170774615Y-111468909D01*
X170773012Y-111473363D01*
X170387044Y-112563301D01*
X170379395Y-112590697D01*
X170371494Y-112617892D01*
X170370509Y-112622522D01*
X170136034Y-113754758D01*
X170132176Y-113782927D01*
X170128037Y-113810954D01*
X170127690Y-113815675D01*
X170077765Y-114548000D01*
X161127000Y-114548000D01*
X161127000Y-105000000D01*
X161124560Y-104975224D01*
X161117333Y-104951399D01*
X161105597Y-104929443D01*
X161089803Y-104910197D01*
X161070557Y-104894403D01*
X161048601Y-104882667D01*
X161024776Y-104875440D01*
X161000000Y-104873000D01*
X152052606Y-104873000D01*
X150127000Y-102947394D01*
X150127000Y-86000000D01*
X150124560Y-85975224D01*
X150117333Y-85951399D01*
X150105597Y-85929443D01*
X150089803Y-85910197D01*
X150070557Y-85894403D01*
X150048601Y-85882667D01*
X150024776Y-85875440D01*
X150000000Y-85873000D01*
X144627000Y-85873000D01*
X144627000Y-60250000D01*
X153270934Y-60250000D01*
X153270934Y-63350000D01*
X153283982Y-63482479D01*
X153322625Y-63609867D01*
X153385377Y-63727269D01*
X153469828Y-63830172D01*
X153572731Y-63914623D01*
X153690133Y-63977375D01*
X153817521Y-64016018D01*
X153950000Y-64029066D01*
X155250000Y-64029066D01*
X155382479Y-64016018D01*
X155509867Y-63977375D01*
X155627269Y-63914623D01*
X155730172Y-63830172D01*
X155814623Y-63727269D01*
X155877375Y-63609867D01*
X155916018Y-63482479D01*
X155929066Y-63350000D01*
X155929066Y-60834817D01*
X157083000Y-60834817D01*
X157083000Y-62765184D01*
X157102202Y-62960137D01*
X157178082Y-63210278D01*
X157301303Y-63440808D01*
X157467131Y-63642870D01*
X157669193Y-63808698D01*
X157899723Y-63931919D01*
X158149864Y-64007799D01*
X158410000Y-64033420D01*
X158670137Y-64007799D01*
X158920278Y-63931919D01*
X159150808Y-63808698D01*
X159352870Y-63642870D01*
X159518698Y-63440808D01*
X159641919Y-63210278D01*
X159717799Y-62960137D01*
X159737000Y-62765184D01*
X159737000Y-60834816D01*
X159717799Y-60639863D01*
X159641919Y-60389722D01*
X159518698Y-60159192D01*
X159352870Y-59957130D01*
X159150807Y-59791302D01*
X158920277Y-59668081D01*
X158670136Y-59592201D01*
X158410000Y-59566580D01*
X158149863Y-59592201D01*
X157899722Y-59668081D01*
X157669192Y-59791302D01*
X157467130Y-59957130D01*
X157301302Y-60159193D01*
X157178081Y-60389723D01*
X157102201Y-60639864D01*
X157083000Y-60834817D01*
X155929066Y-60834817D01*
X155929066Y-60250000D01*
X155916018Y-60117521D01*
X155877375Y-59990133D01*
X155814623Y-59872731D01*
X155730172Y-59769828D01*
X155627269Y-59685377D01*
X155509867Y-59622625D01*
X155382479Y-59583982D01*
X155250000Y-59570934D01*
X153950000Y-59570934D01*
X153817521Y-59583982D01*
X153690133Y-59622625D01*
X153572731Y-59685377D01*
X153469828Y-59769828D01*
X153385377Y-59872731D01*
X153322625Y-59990133D01*
X153283982Y-60117521D01*
X153270934Y-60250000D01*
X144627000Y-60250000D01*
X144627000Y-57452000D01*
X170064271Y-57452000D01*
X170071131Y-57639088D01*
%TA.AperFunction,Conductor*%
D19*
G36*
X170071131Y-57639088D02*
G01*
X170073356Y-57660257D01*
X170074694Y-57681523D01*
X170075336Y-57686212D01*
X170238254Y-58830936D01*
X170244157Y-58858705D01*
X170249765Y-58886520D01*
X170251038Y-58891079D01*
X170567806Y-60003102D01*
X170577430Y-60029835D01*
X170586754Y-60056609D01*
X170588630Y-60060944D01*
X170588633Y-60060952D01*
X170588634Y-60060953D01*
X171053391Y-61119696D01*
X171066510Y-61144790D01*
X171079425Y-61170137D01*
X171081877Y-61174185D01*
X171686021Y-62160059D01*
X171702474Y-62183211D01*
X171718660Y-62206500D01*
X171721638Y-62210178D01*
X172453992Y-63104939D01*
X172473432Y-63125640D01*
X172492631Y-63146519D01*
X172496081Y-63149759D01*
X173343091Y-63936850D01*
X173365134Y-63954700D01*
X173387017Y-63972803D01*
X173390875Y-63975545D01*
X174336868Y-64640400D01*
X174361150Y-64655106D01*
X174385266Y-64670058D01*
X174389454Y-64672247D01*
X174389460Y-64672251D01*
X174389466Y-64672254D01*
X175416933Y-65202569D01*
X175443015Y-65213856D01*
X175468909Y-65225384D01*
X175473362Y-65226988D01*
X176563301Y-65612956D01*
X176590667Y-65620597D01*
X176617892Y-65628506D01*
X176622522Y-65629491D01*
X177754758Y-65863966D01*
X177782897Y-65867820D01*
X177810955Y-65871963D01*
X177815675Y-65872310D01*
X178548001Y-65922235D01*
X178548001Y-66873000D01*
X157750000Y-66873000D01*
X157725224Y-66875440D01*
X157701399Y-66882667D01*
X157679443Y-66894403D01*
X157660197Y-66910197D01*
X157644403Y-66929443D01*
X157632667Y-66951399D01*
X157625440Y-66975224D01*
X157623000Y-67000000D01*
X157623000Y-104000000D01*
X157625440Y-104024776D01*
X157632667Y-104048601D01*
X157644403Y-104070557D01*
X157660197Y-104089803D01*
X157679443Y-104105597D01*
X157701399Y-104117333D01*
X157725224Y-104124560D01*
X157750000Y-104127000D01*
X160194898Y-104127000D01*
X160229604Y-104141376D01*
X160408699Y-104177000D01*
X160591301Y-104177000D01*
X160770396Y-104141376D01*
X160805102Y-104127000D01*
X178548000Y-104127000D01*
X178548000Y-106064271D01*
X178360912Y-106071131D01*
X178339742Y-106073356D01*
X178318477Y-106074694D01*
X178313788Y-106075336D01*
X177169064Y-106238254D01*
X177141295Y-106244157D01*
X177113480Y-106249765D01*
X177108921Y-106251038D01*
X175996898Y-106567806D01*
X175970179Y-106577425D01*
X175943391Y-106586754D01*
X175939056Y-106588630D01*
X175939048Y-106588633D01*
X175939041Y-106588636D01*
X174880303Y-107053391D01*
X174855153Y-107066539D01*
X174829863Y-107079425D01*
X174825815Y-107081877D01*
X173839941Y-107686021D01*
X173816819Y-107702453D01*
X173793500Y-107718660D01*
X173789822Y-107721638D01*
X172895062Y-108453991D01*
X172874358Y-108473433D01*
X172853481Y-108492631D01*
X172850240Y-108496081D01*
X172063150Y-109343091D01*
X172045300Y-109365134D01*
X172027197Y-109387017D01*
X172024455Y-109390875D01*
X171359600Y-110336868D01*
X171344894Y-110361150D01*
X171329942Y-110385266D01*
X171327753Y-110389454D01*
X171327749Y-110389460D01*
X171327749Y-110389461D01*
X170797431Y-111416934D01*
X170786164Y-111442970D01*
X170774615Y-111468909D01*
X170773012Y-111473363D01*
X170387044Y-112563301D01*
X170379395Y-112590697D01*
X170371494Y-112617892D01*
X170370509Y-112622522D01*
X170136034Y-113754758D01*
X170132176Y-113782927D01*
X170128037Y-113810954D01*
X170127690Y-113815675D01*
X170077765Y-114548000D01*
X161127000Y-114548000D01*
X161127000Y-105000000D01*
X161124560Y-104975224D01*
X161117333Y-104951399D01*
X161105597Y-104929443D01*
X161089803Y-104910197D01*
X161070557Y-104894403D01*
X161048601Y-104882667D01*
X161024776Y-104875440D01*
X161000000Y-104873000D01*
X152052606Y-104873000D01*
X150127000Y-102947394D01*
X150127000Y-86000000D01*
X150124560Y-85975224D01*
X150117333Y-85951399D01*
X150105597Y-85929443D01*
X150089803Y-85910197D01*
X150070557Y-85894403D01*
X150048601Y-85882667D01*
X150024776Y-85875440D01*
X150000000Y-85873000D01*
X144627000Y-85873000D01*
X144627000Y-60250000D01*
X153270934Y-60250000D01*
X153270934Y-63350000D01*
X153283982Y-63482479D01*
X153322625Y-63609867D01*
X153385377Y-63727269D01*
X153469828Y-63830172D01*
X153572731Y-63914623D01*
X153690133Y-63977375D01*
X153817521Y-64016018D01*
X153950000Y-64029066D01*
X155250000Y-64029066D01*
X155382479Y-64016018D01*
X155509867Y-63977375D01*
X155627269Y-63914623D01*
X155730172Y-63830172D01*
X155814623Y-63727269D01*
X155877375Y-63609867D01*
X155916018Y-63482479D01*
X155929066Y-63350000D01*
X155929066Y-60834817D01*
X157083000Y-60834817D01*
X157083000Y-62765184D01*
X157102202Y-62960137D01*
X157178082Y-63210278D01*
X157301303Y-63440808D01*
X157467131Y-63642870D01*
X157669193Y-63808698D01*
X157899723Y-63931919D01*
X158149864Y-64007799D01*
X158410000Y-64033420D01*
X158670137Y-64007799D01*
X158920278Y-63931919D01*
X159150808Y-63808698D01*
X159352870Y-63642870D01*
X159518698Y-63440808D01*
X159641919Y-63210278D01*
X159717799Y-62960137D01*
X159737000Y-62765184D01*
X159737000Y-60834816D01*
X159717799Y-60639863D01*
X159641919Y-60389722D01*
X159518698Y-60159192D01*
X159352870Y-59957130D01*
X159150807Y-59791302D01*
X158920277Y-59668081D01*
X158670136Y-59592201D01*
X158410000Y-59566580D01*
X158149863Y-59592201D01*
X157899722Y-59668081D01*
X157669192Y-59791302D01*
X157467130Y-59957130D01*
X157301302Y-60159193D01*
X157178081Y-60389723D01*
X157102201Y-60639864D01*
X157083000Y-60834817D01*
X155929066Y-60834817D01*
X155929066Y-60250000D01*
X155916018Y-60117521D01*
X155877375Y-59990133D01*
X155814623Y-59872731D01*
X155730172Y-59769828D01*
X155627269Y-59685377D01*
X155509867Y-59622625D01*
X155382479Y-59583982D01*
X155250000Y-59570934D01*
X153950000Y-59570934D01*
X153817521Y-59583982D01*
X153690133Y-59622625D01*
X153572731Y-59685377D01*
X153469828Y-59769828D01*
X153385377Y-59872731D01*
X153322625Y-59990133D01*
X153283982Y-60117521D01*
X153270934Y-60250000D01*
X144627000Y-60250000D01*
X144627000Y-57452000D01*
X170064271Y-57452000D01*
X170071131Y-57639088D01*
G37*
%TD.AperFunction*%
%TD*%
D18*
%TO.N,GND1*%
X106873000Y-67000000D02*
X106875440Y-67024776D01*
X106882667Y-67048601D01*
X106894403Y-67070557D01*
X106910197Y-67089803D01*
X106929443Y-67105597D01*
X106951399Y-67117333D01*
X106975224Y-67124560D01*
X107000000Y-67127000D01*
X114947394Y-67127000D01*
X118123000Y-70302606D01*
X118123000Y-86000000D01*
X118125440Y-86024776D01*
X118132667Y-86048601D01*
X118144403Y-86070557D01*
X118160197Y-86089803D01*
X118179443Y-86105597D01*
X118201399Y-86117333D01*
X118225224Y-86124560D01*
X118250000Y-86127000D01*
X123873000Y-86127000D01*
X123873000Y-114548000D01*
X97935729Y-114548000D01*
X97928869Y-114360912D01*
X97926644Y-114339742D01*
X97925306Y-114318477D01*
X97924664Y-114313788D01*
X97761746Y-113169064D01*
X97755843Y-113141295D01*
X97750235Y-113113480D01*
X97748962Y-113108921D01*
X97432194Y-111996898D01*
X97422575Y-111970179D01*
X97413246Y-111943391D01*
X97411370Y-111939056D01*
X97411367Y-111939048D01*
X97411364Y-111939041D01*
X96946609Y-110880303D01*
X96933461Y-110855153D01*
X96920575Y-110829863D01*
X96918123Y-110825815D01*
X96313979Y-109839941D01*
X96297547Y-109816819D01*
X96281340Y-109793500D01*
X96278362Y-109789822D01*
X95742246Y-109134816D01*
X108463000Y-109134816D01*
X108463000Y-111065183D01*
X108482201Y-111260136D01*
X108558081Y-111510277D01*
X108681302Y-111740807D01*
X108847130Y-111942870D01*
X109049192Y-112108698D01*
X109279722Y-112231919D01*
X109529863Y-112307799D01*
X109790000Y-112333420D01*
X110050136Y-112307799D01*
X110300277Y-112231919D01*
X110530807Y-112108698D01*
X110732870Y-111942870D01*
X110898698Y-111740808D01*
X111021919Y-111510278D01*
X111097799Y-111260137D01*
X111117000Y-111065184D01*
X111117000Y-109134816D01*
X111097799Y-108939863D01*
X111021919Y-108689722D01*
X110947236Y-108550000D01*
X112270934Y-108550000D01*
X112270934Y-111650000D01*
X112283982Y-111782479D01*
X112322625Y-111909867D01*
X112385377Y-112027269D01*
X112469828Y-112130172D01*
X112572731Y-112214623D01*
X112690133Y-112277375D01*
X112817521Y-112316018D01*
X112950000Y-112329066D01*
X114250000Y-112329066D01*
X114382479Y-112316018D01*
X114509867Y-112277375D01*
X114627269Y-112214623D01*
X114730172Y-112130172D01*
X114814623Y-112027269D01*
X114877375Y-111909867D01*
X114916018Y-111782479D01*
X114929066Y-111650000D01*
X114929066Y-108550000D01*
X114916018Y-108417521D01*
X114877375Y-108290133D01*
X114814623Y-108172731D01*
X114730172Y-108069828D01*
X114627269Y-107985377D01*
X114509867Y-107922625D01*
X114382479Y-107883982D01*
X114250000Y-107870934D01*
X112950000Y-107870934D01*
X112817521Y-107883982D01*
X112690133Y-107922625D01*
X112572731Y-107985377D01*
X112469828Y-108069828D01*
X112385377Y-108172731D01*
X112322625Y-108290133D01*
X112283982Y-108417521D01*
X112270934Y-108550000D01*
X110947236Y-108550000D01*
X110898698Y-108459192D01*
X110732870Y-108257130D01*
X110530808Y-108091302D01*
X110300278Y-107968081D01*
X110050137Y-107892201D01*
X109790000Y-107866580D01*
X109529864Y-107892201D01*
X109279723Y-107968081D01*
X109049193Y-108091302D01*
X108847131Y-108257130D01*
X108681303Y-108459192D01*
X108558082Y-108689722D01*
X108482202Y-108939863D01*
X108463000Y-109134816D01*
X95742246Y-109134816D01*
X95546009Y-108895062D01*
X95526567Y-108874358D01*
X95507369Y-108853481D01*
X95503919Y-108850240D01*
X94656909Y-108063150D01*
X94634866Y-108045300D01*
X94612983Y-108027197D01*
X94609125Y-108024455D01*
X93663132Y-107359600D01*
X93638850Y-107344894D01*
X93614734Y-107329942D01*
X93610546Y-107327753D01*
X93610540Y-107327749D01*
X93610534Y-107327746D01*
X92583066Y-106797431D01*
X92557030Y-106786164D01*
X92531091Y-106774615D01*
X92526643Y-106773014D01*
X92526638Y-106773012D01*
X92526633Y-106773011D01*
X91436699Y-106387044D01*
X91409303Y-106379395D01*
X91382108Y-106371494D01*
X91377478Y-106370509D01*
X90245242Y-106136034D01*
X90217073Y-106132176D01*
X90189046Y-106128037D01*
X90184325Y-106127690D01*
X89452000Y-106077765D01*
X89452000Y-104877000D01*
X110250000Y-104877000D01*
X110274776Y-104874560D01*
X110298601Y-104867333D01*
X110320557Y-104855597D01*
X110339803Y-104839803D01*
X110355597Y-104820557D01*
X110367333Y-104798601D01*
X110374560Y-104774776D01*
X110377000Y-104750000D01*
X110377000Y-68000000D01*
X110374560Y-67975224D01*
X110367333Y-67951399D01*
X110355597Y-67929443D01*
X110339803Y-67910197D01*
X110320557Y-67894403D01*
X110298601Y-67882667D01*
X110274776Y-67875440D01*
X110250000Y-67873000D01*
X89452000Y-67873000D01*
X89452000Y-65935729D01*
X89639088Y-65928869D01*
X89660257Y-65926644D01*
X89681523Y-65925306D01*
X89686212Y-65924664D01*
X90830936Y-65761746D01*
X90858705Y-65755843D01*
X90886520Y-65750235D01*
X90891079Y-65748962D01*
X92003102Y-65432194D01*
X92029835Y-65422570D01*
X92056609Y-65413246D01*
X92060944Y-65411370D01*
X92060952Y-65411367D01*
X92060959Y-65411364D01*
X93119696Y-64946609D01*
X93144790Y-64933490D01*
X93170137Y-64920575D01*
X93174185Y-64918123D01*
X94160059Y-64313979D01*
X94183211Y-64297526D01*
X94206500Y-64281340D01*
X94210178Y-64278362D01*
X95104939Y-63546008D01*
X95125640Y-63526568D01*
X95146519Y-63507369D01*
X95149759Y-63503919D01*
X95936850Y-62656909D01*
X95954700Y-62634866D01*
X95972803Y-62612983D01*
X95975545Y-62609125D01*
X96640400Y-61663132D01*
X96655106Y-61638850D01*
X96670058Y-61614734D01*
X96672247Y-61610546D01*
X96672251Y-61610540D01*
X96672254Y-61610534D01*
X97202569Y-60583067D01*
X97213856Y-60556985D01*
X97225384Y-60531091D01*
X97226988Y-60526638D01*
X97612956Y-59436699D01*
X97620597Y-59409333D01*
X97628506Y-59382108D01*
X97629491Y-59377478D01*
X97863966Y-58245242D01*
X97867820Y-58217103D01*
X97871963Y-58189045D01*
X97872310Y-58184325D01*
X97922235Y-57452000D01*
X106873000Y-57452000D01*
X106873000Y-67000000D01*
%TA.AperFunction,Conductor*%
D19*
G36*
X106873000Y-67000000D02*
G01*
X106875440Y-67024776D01*
X106882667Y-67048601D01*
X106894403Y-67070557D01*
X106910197Y-67089803D01*
X106929443Y-67105597D01*
X106951399Y-67117333D01*
X106975224Y-67124560D01*
X107000000Y-67127000D01*
X114947394Y-67127000D01*
X118123000Y-70302606D01*
X118123000Y-86000000D01*
X118125440Y-86024776D01*
X118132667Y-86048601D01*
X118144403Y-86070557D01*
X118160197Y-86089803D01*
X118179443Y-86105597D01*
X118201399Y-86117333D01*
X118225224Y-86124560D01*
X118250000Y-86127000D01*
X123873000Y-86127000D01*
X123873000Y-114548000D01*
X97935729Y-114548000D01*
X97928869Y-114360912D01*
X97926644Y-114339742D01*
X97925306Y-114318477D01*
X97924664Y-114313788D01*
X97761746Y-113169064D01*
X97755843Y-113141295D01*
X97750235Y-113113480D01*
X97748962Y-113108921D01*
X97432194Y-111996898D01*
X97422575Y-111970179D01*
X97413246Y-111943391D01*
X97411370Y-111939056D01*
X97411367Y-111939048D01*
X97411364Y-111939041D01*
X96946609Y-110880303D01*
X96933461Y-110855153D01*
X96920575Y-110829863D01*
X96918123Y-110825815D01*
X96313979Y-109839941D01*
X96297547Y-109816819D01*
X96281340Y-109793500D01*
X96278362Y-109789822D01*
X95742246Y-109134816D01*
X108463000Y-109134816D01*
X108463000Y-111065183D01*
X108482201Y-111260136D01*
X108558081Y-111510277D01*
X108681302Y-111740807D01*
X108847130Y-111942870D01*
X109049192Y-112108698D01*
X109279722Y-112231919D01*
X109529863Y-112307799D01*
X109790000Y-112333420D01*
X110050136Y-112307799D01*
X110300277Y-112231919D01*
X110530807Y-112108698D01*
X110732870Y-111942870D01*
X110898698Y-111740808D01*
X111021919Y-111510278D01*
X111097799Y-111260137D01*
X111117000Y-111065184D01*
X111117000Y-109134816D01*
X111097799Y-108939863D01*
X111021919Y-108689722D01*
X110947236Y-108550000D01*
X112270934Y-108550000D01*
X112270934Y-111650000D01*
X112283982Y-111782479D01*
X112322625Y-111909867D01*
X112385377Y-112027269D01*
X112469828Y-112130172D01*
X112572731Y-112214623D01*
X112690133Y-112277375D01*
X112817521Y-112316018D01*
X112950000Y-112329066D01*
X114250000Y-112329066D01*
X114382479Y-112316018D01*
X114509867Y-112277375D01*
X114627269Y-112214623D01*
X114730172Y-112130172D01*
X114814623Y-112027269D01*
X114877375Y-111909867D01*
X114916018Y-111782479D01*
X114929066Y-111650000D01*
X114929066Y-108550000D01*
X114916018Y-108417521D01*
X114877375Y-108290133D01*
X114814623Y-108172731D01*
X114730172Y-108069828D01*
X114627269Y-107985377D01*
X114509867Y-107922625D01*
X114382479Y-107883982D01*
X114250000Y-107870934D01*
X112950000Y-107870934D01*
X112817521Y-107883982D01*
X112690133Y-107922625D01*
X112572731Y-107985377D01*
X112469828Y-108069828D01*
X112385377Y-108172731D01*
X112322625Y-108290133D01*
X112283982Y-108417521D01*
X112270934Y-108550000D01*
X110947236Y-108550000D01*
X110898698Y-108459192D01*
X110732870Y-108257130D01*
X110530808Y-108091302D01*
X110300278Y-107968081D01*
X110050137Y-107892201D01*
X109790000Y-107866580D01*
X109529864Y-107892201D01*
X109279723Y-107968081D01*
X109049193Y-108091302D01*
X108847131Y-108257130D01*
X108681303Y-108459192D01*
X108558082Y-108689722D01*
X108482202Y-108939863D01*
X108463000Y-109134816D01*
X95742246Y-109134816D01*
X95546009Y-108895062D01*
X95526567Y-108874358D01*
X95507369Y-108853481D01*
X95503919Y-108850240D01*
X94656909Y-108063150D01*
X94634866Y-108045300D01*
X94612983Y-108027197D01*
X94609125Y-108024455D01*
X93663132Y-107359600D01*
X93638850Y-107344894D01*
X93614734Y-107329942D01*
X93610546Y-107327753D01*
X93610540Y-107327749D01*
X93610534Y-107327746D01*
X92583066Y-106797431D01*
X92557030Y-106786164D01*
X92531091Y-106774615D01*
X92526643Y-106773014D01*
X92526638Y-106773012D01*
X92526633Y-106773011D01*
X91436699Y-106387044D01*
X91409303Y-106379395D01*
X91382108Y-106371494D01*
X91377478Y-106370509D01*
X90245242Y-106136034D01*
X90217073Y-106132176D01*
X90189046Y-106128037D01*
X90184325Y-106127690D01*
X89452000Y-106077765D01*
X89452000Y-104877000D01*
X110250000Y-104877000D01*
X110274776Y-104874560D01*
X110298601Y-104867333D01*
X110320557Y-104855597D01*
X110339803Y-104839803D01*
X110355597Y-104820557D01*
X110367333Y-104798601D01*
X110374560Y-104774776D01*
X110377000Y-104750000D01*
X110377000Y-68000000D01*
X110374560Y-67975224D01*
X110367333Y-67951399D01*
X110355597Y-67929443D01*
X110339803Y-67910197D01*
X110320557Y-67894403D01*
X110298601Y-67882667D01*
X110274776Y-67875440D01*
X110250000Y-67873000D01*
X89452000Y-67873000D01*
X89452000Y-65935729D01*
X89639088Y-65928869D01*
X89660257Y-65926644D01*
X89681523Y-65925306D01*
X89686212Y-65924664D01*
X90830936Y-65761746D01*
X90858705Y-65755843D01*
X90886520Y-65750235D01*
X90891079Y-65748962D01*
X92003102Y-65432194D01*
X92029835Y-65422570D01*
X92056609Y-65413246D01*
X92060944Y-65411370D01*
X92060952Y-65411367D01*
X92060959Y-65411364D01*
X93119696Y-64946609D01*
X93144790Y-64933490D01*
X93170137Y-64920575D01*
X93174185Y-64918123D01*
X94160059Y-64313979D01*
X94183211Y-64297526D01*
X94206500Y-64281340D01*
X94210178Y-64278362D01*
X95104939Y-63546008D01*
X95125640Y-63526568D01*
X95146519Y-63507369D01*
X95149759Y-63503919D01*
X95936850Y-62656909D01*
X95954700Y-62634866D01*
X95972803Y-62612983D01*
X95975545Y-62609125D01*
X96640400Y-61663132D01*
X96655106Y-61638850D01*
X96670058Y-61614734D01*
X96672247Y-61610546D01*
X96672251Y-61610540D01*
X96672254Y-61610534D01*
X97202569Y-60583067D01*
X97213856Y-60556985D01*
X97225384Y-60531091D01*
X97226988Y-60526638D01*
X97612956Y-59436699D01*
X97620597Y-59409333D01*
X97628506Y-59382108D01*
X97629491Y-59377478D01*
X97863966Y-58245242D01*
X97867820Y-58217103D01*
X97871963Y-58189045D01*
X97872310Y-58184325D01*
X97922235Y-57452000D01*
X106873000Y-57452000D01*
X106873000Y-67000000D01*
G37*
%TD.AperFunction*%
%TD*%
M02*
