%TF.GenerationSoftware,KiCad,Pcbnew,(5.1.8-0-10_14)*%
%TF.CreationDate,2020-11-30T14:10:51+01:00*%
%TF.ProjectId,FET_Multi,4645545f-4d75-46c7-9469-2e6b69636164,0.2.0*%
%TF.SameCoordinates,Original*%
%TF.FileFunction,Soldermask,Top*%
%TF.FilePolarity,Negative*%
%FSLAX46Y46*%
G04 Gerber Fmt 4.6, Leading zero omitted, Abs format (unit mm)*
G04 Created by KiCad (PCBNEW (5.1.8-0-10_14)) date 2020-11-30 14:10:51*
%MOMM*%
%LPD*%
G01*
G04 APERTURE LIST*
%TA.AperFunction,Profile*%
%ADD10C,0.050000*%
%TD*%
%ADD11O,4.100000X6.100000*%
%ADD12C,0.100000*%
%ADD13O,1.900000X3.700000*%
%ADD14O,1.800000X1.800000*%
%ADD15C,6.400000*%
G04 APERTURE END LIST*
D10*
X89000000Y-65500000D02*
X89000000Y-106500000D01*
X170500000Y-115000000D02*
G75*
G02*
X179000000Y-106500000I8500000J0D01*
G01*
X89000000Y-106500000D02*
G75*
G02*
X97500000Y-115000000I0J-8500000D01*
G01*
X179000000Y-65500000D02*
G75*
G02*
X170500000Y-57000000I0J8500000D01*
G01*
X97500000Y-57000000D02*
G75*
G02*
X89000000Y-65500000I-8500000J0D01*
G01*
X179000000Y-106500000D02*
X179000000Y-65500000D01*
X170500000Y-115000000D02*
X97500000Y-115000000D01*
X170500000Y-57000000D02*
X97500000Y-57000000D01*
D11*
%TO.C,J103*%
X168000000Y-71700000D03*
X168000000Y-81200000D03*
X168000000Y-90700000D03*
X168000000Y-100200000D03*
X173800000Y-71700000D03*
X173800000Y-81200000D03*
X173800000Y-90700000D03*
X173800000Y-100200000D03*
%TD*%
%TO.C,J102*%
X99900000Y-100200000D03*
X99900000Y-90700000D03*
X99900000Y-81200000D03*
X99900000Y-71700000D03*
X94100000Y-100200000D03*
X94100000Y-90700000D03*
X94100000Y-81200000D03*
X94100000Y-71700000D03*
%TD*%
%TO.C,U106*%
G36*
G01*
X129787500Y-63625000D02*
X130412500Y-63625000D01*
G75*
G02*
X130462500Y-63675000I0J-50000D01*
G01*
X130462500Y-63925000D01*
G75*
G02*
X130412500Y-63975000I-50000J0D01*
G01*
X129787500Y-63975000D01*
G75*
G02*
X129737500Y-63925000I0J50000D01*
G01*
X129737500Y-63675000D01*
G75*
G02*
X129787500Y-63625000I50000J0D01*
G01*
G37*
G36*
G01*
X129787500Y-64025000D02*
X130487500Y-64025000D01*
G75*
G02*
X130537500Y-64075000I0J-50000D01*
G01*
X130537500Y-64525000D01*
G75*
G02*
X130487500Y-64575000I-50000J0D01*
G01*
X129787500Y-64575000D01*
G75*
G02*
X129737500Y-64525000I0J50000D01*
G01*
X129737500Y-64075000D01*
G75*
G02*
X129787500Y-64025000I50000J0D01*
G01*
G37*
G36*
G01*
X129787500Y-63125000D02*
X130412500Y-63125000D01*
G75*
G02*
X130462500Y-63175000I0J-50000D01*
G01*
X130462500Y-63425000D01*
G75*
G02*
X130412500Y-63475000I-50000J0D01*
G01*
X129787500Y-63475000D01*
G75*
G02*
X129737500Y-63425000I0J50000D01*
G01*
X129737500Y-63175000D01*
G75*
G02*
X129787500Y-63125000I50000J0D01*
G01*
G37*
G36*
G01*
X129787500Y-64625000D02*
X130412500Y-64625000D01*
G75*
G02*
X130462500Y-64675000I0J-50000D01*
G01*
X130462500Y-64925000D01*
G75*
G02*
X130412500Y-64975000I-50000J0D01*
G01*
X129787500Y-64975000D01*
G75*
G02*
X129737500Y-64925000I0J50000D01*
G01*
X129737500Y-64675000D01*
G75*
G02*
X129787500Y-64625000I50000J0D01*
G01*
G37*
G36*
G01*
X130562500Y-63125000D02*
X131187500Y-63125000D01*
G75*
G02*
X131237500Y-63175000I0J-50000D01*
G01*
X131237500Y-63425000D01*
G75*
G02*
X131187500Y-63475000I-50000J0D01*
G01*
X130562500Y-63475000D01*
G75*
G02*
X130512500Y-63425000I0J50000D01*
G01*
X130512500Y-63175000D01*
G75*
G02*
X130562500Y-63125000I50000J0D01*
G01*
G37*
G36*
G01*
X130562500Y-63625000D02*
X131187500Y-63625000D01*
G75*
G02*
X131237500Y-63675000I0J-50000D01*
G01*
X131237500Y-63925000D01*
G75*
G02*
X131187500Y-63975000I-50000J0D01*
G01*
X130562500Y-63975000D01*
G75*
G02*
X130512500Y-63925000I0J50000D01*
G01*
X130512500Y-63675000D01*
G75*
G02*
X130562500Y-63625000I50000J0D01*
G01*
G37*
G36*
G01*
X129787500Y-65125000D02*
X130412500Y-65125000D01*
G75*
G02*
X130462500Y-65175000I0J-50000D01*
G01*
X130462500Y-65425000D01*
G75*
G02*
X130412500Y-65475000I-50000J0D01*
G01*
X129787500Y-65475000D01*
G75*
G02*
X129737500Y-65425000I0J50000D01*
G01*
X129737500Y-65175000D01*
G75*
G02*
X129787500Y-65125000I50000J0D01*
G01*
G37*
G36*
G01*
X130612500Y-64025000D02*
X131187500Y-64025000D01*
G75*
G02*
X131237500Y-64075000I0J-50000D01*
G01*
X131237500Y-64525000D01*
G75*
G02*
X131187500Y-64575000I-50000J0D01*
G01*
X130612500Y-64575000D01*
G75*
G02*
X130562500Y-64525000I0J50000D01*
G01*
X130562500Y-64075000D01*
G75*
G02*
X130612500Y-64025000I50000J0D01*
G01*
G37*
G36*
G01*
X130562500Y-65125000D02*
X131187500Y-65125000D01*
G75*
G02*
X131237500Y-65175000I0J-50000D01*
G01*
X131237500Y-65425000D01*
G75*
G02*
X131187500Y-65475000I-50000J0D01*
G01*
X130562500Y-65475000D01*
G75*
G02*
X130512500Y-65425000I0J50000D01*
G01*
X130512500Y-65175000D01*
G75*
G02*
X130562500Y-65125000I50000J0D01*
G01*
G37*
G36*
G01*
X130562500Y-64625000D02*
X131187500Y-64625000D01*
G75*
G02*
X131237500Y-64675000I0J-50000D01*
G01*
X131237500Y-64925000D01*
G75*
G02*
X131187500Y-64975000I-50000J0D01*
G01*
X130562500Y-64975000D01*
G75*
G02*
X130512500Y-64925000I0J50000D01*
G01*
X130512500Y-64675000D01*
G75*
G02*
X130562500Y-64625000I50000J0D01*
G01*
G37*
%TD*%
%TO.C,J104*%
G36*
G01*
X135650000Y-59579168D02*
X135650000Y-58220832D01*
G75*
G02*
X135920832Y-57950000I270832J0D01*
G01*
X136679168Y-57950000D01*
G75*
G02*
X136950000Y-58220832I0J-270832D01*
G01*
X136950000Y-59579168D01*
G75*
G02*
X136679168Y-59850000I-270832J0D01*
G01*
X135920832Y-59850000D01*
G75*
G02*
X135650000Y-59579168I0J270832D01*
G01*
G37*
G36*
G01*
X130050000Y-59579168D02*
X130050000Y-58220832D01*
G75*
G02*
X130320832Y-57950000I270832J0D01*
G01*
X131079168Y-57950000D01*
G75*
G02*
X131350000Y-58220832I0J-270832D01*
G01*
X131350000Y-59579168D01*
G75*
G02*
X131079168Y-59850000I-270832J0D01*
G01*
X130320832Y-59850000D01*
G75*
G02*
X130050000Y-59579168I0J270832D01*
G01*
G37*
G36*
G01*
X134650000Y-62075000D02*
X134650000Y-60775000D01*
G75*
G02*
X134825000Y-60600000I175000J0D01*
G01*
X135175000Y-60600000D01*
G75*
G02*
X135350000Y-60775000I0J-175000D01*
G01*
X135350000Y-62075000D01*
G75*
G02*
X135175000Y-62250000I-175000J0D01*
G01*
X134825000Y-62250000D01*
G75*
G02*
X134650000Y-62075000I0J175000D01*
G01*
G37*
G36*
G01*
X133650000Y-62075000D02*
X133650000Y-60775000D01*
G75*
G02*
X133825000Y-60600000I175000J0D01*
G01*
X134175000Y-60600000D01*
G75*
G02*
X134350000Y-60775000I0J-175000D01*
G01*
X134350000Y-62075000D01*
G75*
G02*
X134175000Y-62250000I-175000J0D01*
G01*
X133825000Y-62250000D01*
G75*
G02*
X133650000Y-62075000I0J175000D01*
G01*
G37*
G36*
G01*
X132650000Y-62075000D02*
X132650000Y-60775000D01*
G75*
G02*
X132825000Y-60600000I175000J0D01*
G01*
X133175000Y-60600000D01*
G75*
G02*
X133350000Y-60775000I0J-175000D01*
G01*
X133350000Y-62075000D01*
G75*
G02*
X133175000Y-62250000I-175000J0D01*
G01*
X132825000Y-62250000D01*
G75*
G02*
X132650000Y-62075000I0J175000D01*
G01*
G37*
G36*
G01*
X131650000Y-62075000D02*
X131650000Y-60775000D01*
G75*
G02*
X131825000Y-60600000I175000J0D01*
G01*
X132175000Y-60600000D01*
G75*
G02*
X132350000Y-60775000I0J-175000D01*
G01*
X132350000Y-62075000D01*
G75*
G02*
X132175000Y-62250000I-175000J0D01*
G01*
X131825000Y-62250000D01*
G75*
G02*
X131650000Y-62075000I0J175000D01*
G01*
G37*
%TD*%
%TO.C,U304*%
G36*
G01*
X140375000Y-64960000D02*
X140375000Y-65310000D01*
G75*
G02*
X140200000Y-65485000I-175000J0D01*
G01*
X138825000Y-65485000D01*
G75*
G02*
X138650000Y-65310000I0J175000D01*
G01*
X138650000Y-64960000D01*
G75*
G02*
X138825000Y-64785000I175000J0D01*
G01*
X140200000Y-64785000D01*
G75*
G02*
X140375000Y-64960000I0J-175000D01*
G01*
G37*
G36*
G01*
X140375000Y-63690000D02*
X140375000Y-64040000D01*
G75*
G02*
X140200000Y-64215000I-175000J0D01*
G01*
X138825000Y-64215000D01*
G75*
G02*
X138650000Y-64040000I0J175000D01*
G01*
X138650000Y-63690000D01*
G75*
G02*
X138825000Y-63515000I175000J0D01*
G01*
X140200000Y-63515000D01*
G75*
G02*
X140375000Y-63690000I0J-175000D01*
G01*
G37*
G36*
G01*
X146750000Y-63690000D02*
X146750000Y-64040000D01*
G75*
G02*
X146575000Y-64215000I-175000J0D01*
G01*
X145200000Y-64215000D01*
G75*
G02*
X145025000Y-64040000I0J175000D01*
G01*
X145025000Y-63690000D01*
G75*
G02*
X145200000Y-63515000I175000J0D01*
G01*
X146575000Y-63515000D01*
G75*
G02*
X146750000Y-63690000I0J-175000D01*
G01*
G37*
G36*
G01*
X146750000Y-64960000D02*
X146750000Y-65310000D01*
G75*
G02*
X146575000Y-65485000I-175000J0D01*
G01*
X145200000Y-65485000D01*
G75*
G02*
X145025000Y-65310000I0J175000D01*
G01*
X145025000Y-64960000D01*
G75*
G02*
X145200000Y-64785000I175000J0D01*
G01*
X146575000Y-64785000D01*
G75*
G02*
X146750000Y-64960000I0J-175000D01*
G01*
G37*
%TD*%
%TO.C,U303*%
G36*
G01*
X140275000Y-72460000D02*
X140275000Y-72810000D01*
G75*
G02*
X140100000Y-72985000I-175000J0D01*
G01*
X138725000Y-72985000D01*
G75*
G02*
X138550000Y-72810000I0J175000D01*
G01*
X138550000Y-72460000D01*
G75*
G02*
X138725000Y-72285000I175000J0D01*
G01*
X140100000Y-72285000D01*
G75*
G02*
X140275000Y-72460000I0J-175000D01*
G01*
G37*
G36*
G01*
X140275000Y-71190000D02*
X140275000Y-71540000D01*
G75*
G02*
X140100000Y-71715000I-175000J0D01*
G01*
X138725000Y-71715000D01*
G75*
G02*
X138550000Y-71540000I0J175000D01*
G01*
X138550000Y-71190000D01*
G75*
G02*
X138725000Y-71015000I175000J0D01*
G01*
X140100000Y-71015000D01*
G75*
G02*
X140275000Y-71190000I0J-175000D01*
G01*
G37*
G36*
G01*
X146650000Y-71190000D02*
X146650000Y-71540000D01*
G75*
G02*
X146475000Y-71715000I-175000J0D01*
G01*
X145100000Y-71715000D01*
G75*
G02*
X144925000Y-71540000I0J175000D01*
G01*
X144925000Y-71190000D01*
G75*
G02*
X145100000Y-71015000I175000J0D01*
G01*
X146475000Y-71015000D01*
G75*
G02*
X146650000Y-71190000I0J-175000D01*
G01*
G37*
G36*
G01*
X146650000Y-72460000D02*
X146650000Y-72810000D01*
G75*
G02*
X146475000Y-72985000I-175000J0D01*
G01*
X145100000Y-72985000D01*
G75*
G02*
X144925000Y-72810000I0J175000D01*
G01*
X144925000Y-72460000D01*
G75*
G02*
X145100000Y-72285000I175000J0D01*
G01*
X146475000Y-72285000D01*
G75*
G02*
X146650000Y-72460000I0J-175000D01*
G01*
G37*
%TD*%
%TO.C,U302*%
G36*
G01*
X127925000Y-109140000D02*
X127925000Y-108790000D01*
G75*
G02*
X128100000Y-108615000I175000J0D01*
G01*
X129475000Y-108615000D01*
G75*
G02*
X129650000Y-108790000I0J-175000D01*
G01*
X129650000Y-109140000D01*
G75*
G02*
X129475000Y-109315000I-175000J0D01*
G01*
X128100000Y-109315000D01*
G75*
G02*
X127925000Y-109140000I0J175000D01*
G01*
G37*
G36*
G01*
X127925000Y-110410000D02*
X127925000Y-110060000D01*
G75*
G02*
X128100000Y-109885000I175000J0D01*
G01*
X129475000Y-109885000D01*
G75*
G02*
X129650000Y-110060000I0J-175000D01*
G01*
X129650000Y-110410000D01*
G75*
G02*
X129475000Y-110585000I-175000J0D01*
G01*
X128100000Y-110585000D01*
G75*
G02*
X127925000Y-110410000I0J175000D01*
G01*
G37*
G36*
G01*
X121550000Y-110410000D02*
X121550000Y-110060000D01*
G75*
G02*
X121725000Y-109885000I175000J0D01*
G01*
X123100000Y-109885000D01*
G75*
G02*
X123275000Y-110060000I0J-175000D01*
G01*
X123275000Y-110410000D01*
G75*
G02*
X123100000Y-110585000I-175000J0D01*
G01*
X121725000Y-110585000D01*
G75*
G02*
X121550000Y-110410000I0J175000D01*
G01*
G37*
G36*
G01*
X121550000Y-109140000D02*
X121550000Y-108790000D01*
G75*
G02*
X121725000Y-108615000I175000J0D01*
G01*
X123100000Y-108615000D01*
G75*
G02*
X123275000Y-108790000I0J-175000D01*
G01*
X123275000Y-109140000D01*
G75*
G02*
X123100000Y-109315000I-175000J0D01*
G01*
X121725000Y-109315000D01*
G75*
G02*
X121550000Y-109140000I0J175000D01*
G01*
G37*
%TD*%
%TO.C,U301*%
G36*
G01*
X127925000Y-99850000D02*
X127925000Y-99500000D01*
G75*
G02*
X128100000Y-99325000I175000J0D01*
G01*
X129475000Y-99325000D01*
G75*
G02*
X129650000Y-99500000I0J-175000D01*
G01*
X129650000Y-99850000D01*
G75*
G02*
X129475000Y-100025000I-175000J0D01*
G01*
X128100000Y-100025000D01*
G75*
G02*
X127925000Y-99850000I0J175000D01*
G01*
G37*
G36*
G01*
X127925000Y-101120000D02*
X127925000Y-100770000D01*
G75*
G02*
X128100000Y-100595000I175000J0D01*
G01*
X129475000Y-100595000D01*
G75*
G02*
X129650000Y-100770000I0J-175000D01*
G01*
X129650000Y-101120000D01*
G75*
G02*
X129475000Y-101295000I-175000J0D01*
G01*
X128100000Y-101295000D01*
G75*
G02*
X127925000Y-101120000I0J175000D01*
G01*
G37*
G36*
G01*
X121550000Y-101120000D02*
X121550000Y-100770000D01*
G75*
G02*
X121725000Y-100595000I175000J0D01*
G01*
X123100000Y-100595000D01*
G75*
G02*
X123275000Y-100770000I0J-175000D01*
G01*
X123275000Y-101120000D01*
G75*
G02*
X123100000Y-101295000I-175000J0D01*
G01*
X121725000Y-101295000D01*
G75*
G02*
X121550000Y-101120000I0J175000D01*
G01*
G37*
G36*
G01*
X121550000Y-99850000D02*
X121550000Y-99500000D01*
G75*
G02*
X121725000Y-99325000I175000J0D01*
G01*
X123100000Y-99325000D01*
G75*
G02*
X123275000Y-99500000I0J-175000D01*
G01*
X123275000Y-99850000D01*
G75*
G02*
X123100000Y-100025000I-175000J0D01*
G01*
X121725000Y-100025000D01*
G75*
G02*
X121550000Y-99850000I0J175000D01*
G01*
G37*
%TD*%
%TO.C,R312*%
G36*
G01*
X139625000Y-60200000D02*
X139625000Y-60800000D01*
G75*
G02*
X139400000Y-61025000I-225000J0D01*
G01*
X138950000Y-61025000D01*
G75*
G02*
X138725000Y-60800000I0J225000D01*
G01*
X138725000Y-60200000D01*
G75*
G02*
X138950000Y-59975000I225000J0D01*
G01*
X139400000Y-59975000D01*
G75*
G02*
X139625000Y-60200000I0J-225000D01*
G01*
G37*
G36*
G01*
X141275000Y-60200000D02*
X141275000Y-60800000D01*
G75*
G02*
X141050000Y-61025000I-225000J0D01*
G01*
X140600000Y-61025000D01*
G75*
G02*
X140375000Y-60800000I0J225000D01*
G01*
X140375000Y-60200000D01*
G75*
G02*
X140600000Y-59975000I225000J0D01*
G01*
X141050000Y-59975000D01*
G75*
G02*
X141275000Y-60200000I0J-225000D01*
G01*
G37*
%TD*%
%TO.C,R311*%
G36*
G01*
X136425000Y-69300000D02*
X136425000Y-69900000D01*
G75*
G02*
X136200000Y-70125000I-225000J0D01*
G01*
X135750000Y-70125000D01*
G75*
G02*
X135525000Y-69900000I0J225000D01*
G01*
X135525000Y-69300000D01*
G75*
G02*
X135750000Y-69075000I225000J0D01*
G01*
X136200000Y-69075000D01*
G75*
G02*
X136425000Y-69300000I0J-225000D01*
G01*
G37*
G36*
G01*
X138075000Y-69300000D02*
X138075000Y-69900000D01*
G75*
G02*
X137850000Y-70125000I-225000J0D01*
G01*
X137400000Y-70125000D01*
G75*
G02*
X137175000Y-69900000I0J225000D01*
G01*
X137175000Y-69300000D01*
G75*
G02*
X137400000Y-69075000I225000J0D01*
G01*
X137850000Y-69075000D01*
G75*
G02*
X138075000Y-69300000I0J-225000D01*
G01*
G37*
%TD*%
%TO.C,R310*%
G36*
G01*
X139625000Y-61800000D02*
X139625000Y-62400000D01*
G75*
G02*
X139400000Y-62625000I-225000J0D01*
G01*
X138950000Y-62625000D01*
G75*
G02*
X138725000Y-62400000I0J225000D01*
G01*
X138725000Y-61800000D01*
G75*
G02*
X138950000Y-61575000I225000J0D01*
G01*
X139400000Y-61575000D01*
G75*
G02*
X139625000Y-61800000I0J-225000D01*
G01*
G37*
G36*
G01*
X141275000Y-61800000D02*
X141275000Y-62400000D01*
G75*
G02*
X141050000Y-62625000I-225000J0D01*
G01*
X140600000Y-62625000D01*
G75*
G02*
X140375000Y-62400000I0J225000D01*
G01*
X140375000Y-61800000D01*
G75*
G02*
X140600000Y-61575000I225000J0D01*
G01*
X141050000Y-61575000D01*
G75*
G02*
X141275000Y-61800000I0J-225000D01*
G01*
G37*
%TD*%
%TO.C,R309*%
G36*
G01*
X139525000Y-69300000D02*
X139525000Y-69900000D01*
G75*
G02*
X139300000Y-70125000I-225000J0D01*
G01*
X138850000Y-70125000D01*
G75*
G02*
X138625000Y-69900000I0J225000D01*
G01*
X138625000Y-69300000D01*
G75*
G02*
X138850000Y-69075000I225000J0D01*
G01*
X139300000Y-69075000D01*
G75*
G02*
X139525000Y-69300000I0J-225000D01*
G01*
G37*
G36*
G01*
X141175000Y-69300000D02*
X141175000Y-69900000D01*
G75*
G02*
X140950000Y-70125000I-225000J0D01*
G01*
X140500000Y-70125000D01*
G75*
G02*
X140275000Y-69900000I0J225000D01*
G01*
X140275000Y-69300000D01*
G75*
G02*
X140500000Y-69075000I225000J0D01*
G01*
X140950000Y-69075000D01*
G75*
G02*
X141175000Y-69300000I0J-225000D01*
G01*
G37*
%TD*%
%TO.C,R307*%
G36*
G01*
X131875000Y-112400000D02*
X131875000Y-111800000D01*
G75*
G02*
X132100000Y-111575000I225000J0D01*
G01*
X132550000Y-111575000D01*
G75*
G02*
X132775000Y-111800000I0J-225000D01*
G01*
X132775000Y-112400000D01*
G75*
G02*
X132550000Y-112625000I-225000J0D01*
G01*
X132100000Y-112625000D01*
G75*
G02*
X131875000Y-112400000I0J225000D01*
G01*
G37*
G36*
G01*
X130225000Y-112400000D02*
X130225000Y-111800000D01*
G75*
G02*
X130450000Y-111575000I225000J0D01*
G01*
X130900000Y-111575000D01*
G75*
G02*
X131125000Y-111800000I0J-225000D01*
G01*
X131125000Y-112400000D01*
G75*
G02*
X130900000Y-112625000I-225000J0D01*
G01*
X130450000Y-112625000D01*
G75*
G02*
X130225000Y-112400000I0J225000D01*
G01*
G37*
%TD*%
%TO.C,R305*%
G36*
G01*
X131875000Y-103000000D02*
X131875000Y-102400000D01*
G75*
G02*
X132100000Y-102175000I225000J0D01*
G01*
X132550000Y-102175000D01*
G75*
G02*
X132775000Y-102400000I0J-225000D01*
G01*
X132775000Y-103000000D01*
G75*
G02*
X132550000Y-103225000I-225000J0D01*
G01*
X132100000Y-103225000D01*
G75*
G02*
X131875000Y-103000000I0J225000D01*
G01*
G37*
G36*
G01*
X130225000Y-103000000D02*
X130225000Y-102400000D01*
G75*
G02*
X130450000Y-102175000I225000J0D01*
G01*
X130900000Y-102175000D01*
G75*
G02*
X131125000Y-102400000I0J-225000D01*
G01*
X131125000Y-103000000D01*
G75*
G02*
X130900000Y-103225000I-225000J0D01*
G01*
X130450000Y-103225000D01*
G75*
G02*
X130225000Y-103000000I0J225000D01*
G01*
G37*
%TD*%
%TO.C,R303*%
G36*
G01*
X128775000Y-112400000D02*
X128775000Y-111800000D01*
G75*
G02*
X129000000Y-111575000I225000J0D01*
G01*
X129450000Y-111575000D01*
G75*
G02*
X129675000Y-111800000I0J-225000D01*
G01*
X129675000Y-112400000D01*
G75*
G02*
X129450000Y-112625000I-225000J0D01*
G01*
X129000000Y-112625000D01*
G75*
G02*
X128775000Y-112400000I0J225000D01*
G01*
G37*
G36*
G01*
X127125000Y-112400000D02*
X127125000Y-111800000D01*
G75*
G02*
X127350000Y-111575000I225000J0D01*
G01*
X127800000Y-111575000D01*
G75*
G02*
X128025000Y-111800000I0J-225000D01*
G01*
X128025000Y-112400000D01*
G75*
G02*
X127800000Y-112625000I-225000J0D01*
G01*
X127350000Y-112625000D01*
G75*
G02*
X127125000Y-112400000I0J225000D01*
G01*
G37*
%TD*%
%TO.C,R301*%
G36*
G01*
X128775000Y-103000000D02*
X128775000Y-102400000D01*
G75*
G02*
X129000000Y-102175000I225000J0D01*
G01*
X129450000Y-102175000D01*
G75*
G02*
X129675000Y-102400000I0J-225000D01*
G01*
X129675000Y-103000000D01*
G75*
G02*
X129450000Y-103225000I-225000J0D01*
G01*
X129000000Y-103225000D01*
G75*
G02*
X128775000Y-103000000I0J225000D01*
G01*
G37*
G36*
G01*
X127125000Y-103000000D02*
X127125000Y-102400000D01*
G75*
G02*
X127350000Y-102175000I225000J0D01*
G01*
X127800000Y-102175000D01*
G75*
G02*
X128025000Y-102400000I0J-225000D01*
G01*
X128025000Y-103000000D01*
G75*
G02*
X127800000Y-103225000I-225000J0D01*
G01*
X127350000Y-103225000D01*
G75*
G02*
X127125000Y-103000000I0J225000D01*
G01*
G37*
%TD*%
%TO.C,D307*%
G36*
G01*
X137906250Y-64200000D02*
X137343750Y-64200000D01*
G75*
G02*
X137100000Y-63956250I0J243750D01*
G01*
X137100000Y-63468750D01*
G75*
G02*
X137343750Y-63225000I243750J0D01*
G01*
X137906250Y-63225000D01*
G75*
G02*
X138150000Y-63468750I0J-243750D01*
G01*
X138150000Y-63956250D01*
G75*
G02*
X137906250Y-64200000I-243750J0D01*
G01*
G37*
G36*
G01*
X137906250Y-65775000D02*
X137343750Y-65775000D01*
G75*
G02*
X137100000Y-65531250I0J243750D01*
G01*
X137100000Y-65043750D01*
G75*
G02*
X137343750Y-64800000I243750J0D01*
G01*
X137906250Y-64800000D01*
G75*
G02*
X138150000Y-65043750I0J-243750D01*
G01*
X138150000Y-65531250D01*
G75*
G02*
X137906250Y-65775000I-243750J0D01*
G01*
G37*
%TD*%
%TO.C,D305*%
G36*
G01*
X137781250Y-71700000D02*
X137218750Y-71700000D01*
G75*
G02*
X136975000Y-71456250I0J243750D01*
G01*
X136975000Y-70968750D01*
G75*
G02*
X137218750Y-70725000I243750J0D01*
G01*
X137781250Y-70725000D01*
G75*
G02*
X138025000Y-70968750I0J-243750D01*
G01*
X138025000Y-71456250D01*
G75*
G02*
X137781250Y-71700000I-243750J0D01*
G01*
G37*
G36*
G01*
X137781250Y-73275000D02*
X137218750Y-73275000D01*
G75*
G02*
X136975000Y-73031250I0J243750D01*
G01*
X136975000Y-72543750D01*
G75*
G02*
X137218750Y-72300000I243750J0D01*
G01*
X137781250Y-72300000D01*
G75*
G02*
X138025000Y-72543750I0J-243750D01*
G01*
X138025000Y-73031250D01*
G75*
G02*
X137781250Y-73275000I-243750J0D01*
G01*
G37*
%TD*%
%TO.C,D303*%
G36*
G01*
X130418750Y-109900000D02*
X130981250Y-109900000D01*
G75*
G02*
X131225000Y-110143750I0J-243750D01*
G01*
X131225000Y-110631250D01*
G75*
G02*
X130981250Y-110875000I-243750J0D01*
G01*
X130418750Y-110875000D01*
G75*
G02*
X130175000Y-110631250I0J243750D01*
G01*
X130175000Y-110143750D01*
G75*
G02*
X130418750Y-109900000I243750J0D01*
G01*
G37*
G36*
G01*
X130418750Y-108325000D02*
X130981250Y-108325000D01*
G75*
G02*
X131225000Y-108568750I0J-243750D01*
G01*
X131225000Y-109056250D01*
G75*
G02*
X130981250Y-109300000I-243750J0D01*
G01*
X130418750Y-109300000D01*
G75*
G02*
X130175000Y-109056250I0J243750D01*
G01*
X130175000Y-108568750D01*
G75*
G02*
X130418750Y-108325000I243750J0D01*
G01*
G37*
%TD*%
%TO.C,C1006*%
G36*
G01*
X138450000Y-67895000D02*
X138450000Y-67505000D01*
G75*
G02*
X138615000Y-67340000I165000J0D01*
G01*
X138945000Y-67340000D01*
G75*
G02*
X139110000Y-67505000I0J-165000D01*
G01*
X139110000Y-67895000D01*
G75*
G02*
X138945000Y-68060000I-165000J0D01*
G01*
X138615000Y-68060000D01*
G75*
G02*
X138450000Y-67895000I0J165000D01*
G01*
G37*
G36*
G01*
X137490000Y-67895000D02*
X137490000Y-67505000D01*
G75*
G02*
X137655000Y-67340000I165000J0D01*
G01*
X137985000Y-67340000D01*
G75*
G02*
X138150000Y-67505000I0J-165000D01*
G01*
X138150000Y-67895000D01*
G75*
G02*
X137985000Y-68060000I-165000J0D01*
G01*
X137655000Y-68060000D01*
G75*
G02*
X137490000Y-67895000I0J165000D01*
G01*
G37*
%TD*%
%TO.C,C1005*%
G36*
G01*
X120850000Y-66495000D02*
X120850000Y-66105000D01*
G75*
G02*
X121015000Y-65940000I165000J0D01*
G01*
X121345000Y-65940000D01*
G75*
G02*
X121510000Y-66105000I0J-165000D01*
G01*
X121510000Y-66495000D01*
G75*
G02*
X121345000Y-66660000I-165000J0D01*
G01*
X121015000Y-66660000D01*
G75*
G02*
X120850000Y-66495000I0J165000D01*
G01*
G37*
G36*
G01*
X119890000Y-66495000D02*
X119890000Y-66105000D01*
G75*
G02*
X120055000Y-65940000I165000J0D01*
G01*
X120385000Y-65940000D01*
G75*
G02*
X120550000Y-66105000I0J-165000D01*
G01*
X120550000Y-66495000D01*
G75*
G02*
X120385000Y-66660000I-165000J0D01*
G01*
X120055000Y-66660000D01*
G75*
G02*
X119890000Y-66495000I0J165000D01*
G01*
G37*
%TD*%
%TO.C,C1004*%
G36*
G01*
X121550000Y-59195000D02*
X121550000Y-58805000D01*
G75*
G02*
X121715000Y-58640000I165000J0D01*
G01*
X122045000Y-58640000D01*
G75*
G02*
X122210000Y-58805000I0J-165000D01*
G01*
X122210000Y-59195000D01*
G75*
G02*
X122045000Y-59360000I-165000J0D01*
G01*
X121715000Y-59360000D01*
G75*
G02*
X121550000Y-59195000I0J165000D01*
G01*
G37*
G36*
G01*
X120590000Y-59195000D02*
X120590000Y-58805000D01*
G75*
G02*
X120755000Y-58640000I165000J0D01*
G01*
X121085000Y-58640000D01*
G75*
G02*
X121250000Y-58805000I0J-165000D01*
G01*
X121250000Y-59195000D01*
G75*
G02*
X121085000Y-59360000I-165000J0D01*
G01*
X120755000Y-59360000D01*
G75*
G02*
X120590000Y-59195000I0J165000D01*
G01*
G37*
%TD*%
%TO.C,C1003*%
G36*
G01*
X134405000Y-98850000D02*
X134795000Y-98850000D01*
G75*
G02*
X134960000Y-99015000I0J-165000D01*
G01*
X134960000Y-99345000D01*
G75*
G02*
X134795000Y-99510000I-165000J0D01*
G01*
X134405000Y-99510000D01*
G75*
G02*
X134240000Y-99345000I0J165000D01*
G01*
X134240000Y-99015000D01*
G75*
G02*
X134405000Y-98850000I165000J0D01*
G01*
G37*
G36*
G01*
X134405000Y-97890000D02*
X134795000Y-97890000D01*
G75*
G02*
X134960000Y-98055000I0J-165000D01*
G01*
X134960000Y-98385000D01*
G75*
G02*
X134795000Y-98550000I-165000J0D01*
G01*
X134405000Y-98550000D01*
G75*
G02*
X134240000Y-98385000I0J165000D01*
G01*
X134240000Y-98055000D01*
G75*
G02*
X134405000Y-97890000I165000J0D01*
G01*
G37*
%TD*%
%TO.C,C1002*%
G36*
G01*
X132050000Y-87195000D02*
X132050000Y-86805000D01*
G75*
G02*
X132215000Y-86640000I165000J0D01*
G01*
X132545000Y-86640000D01*
G75*
G02*
X132710000Y-86805000I0J-165000D01*
G01*
X132710000Y-87195000D01*
G75*
G02*
X132545000Y-87360000I-165000J0D01*
G01*
X132215000Y-87360000D01*
G75*
G02*
X132050000Y-87195000I0J165000D01*
G01*
G37*
G36*
G01*
X131090000Y-87195000D02*
X131090000Y-86805000D01*
G75*
G02*
X131255000Y-86640000I165000J0D01*
G01*
X131585000Y-86640000D01*
G75*
G02*
X131750000Y-86805000I0J-165000D01*
G01*
X131750000Y-87195000D01*
G75*
G02*
X131585000Y-87360000I-165000J0D01*
G01*
X131255000Y-87360000D01*
G75*
G02*
X131090000Y-87195000I0J165000D01*
G01*
G37*
%TD*%
%TO.C,C1001*%
G36*
G01*
X130095000Y-105250000D02*
X129705000Y-105250000D01*
G75*
G02*
X129540000Y-105085000I0J165000D01*
G01*
X129540000Y-104755000D01*
G75*
G02*
X129705000Y-104590000I165000J0D01*
G01*
X130095000Y-104590000D01*
G75*
G02*
X130260000Y-104755000I0J-165000D01*
G01*
X130260000Y-105085000D01*
G75*
G02*
X130095000Y-105250000I-165000J0D01*
G01*
G37*
G36*
G01*
X130095000Y-106210000D02*
X129705000Y-106210000D01*
G75*
G02*
X129540000Y-106045000I0J165000D01*
G01*
X129540000Y-105715000D01*
G75*
G02*
X129705000Y-105550000I165000J0D01*
G01*
X130095000Y-105550000D01*
G75*
G02*
X130260000Y-105715000I0J-165000D01*
G01*
X130260000Y-106045000D01*
G75*
G02*
X130095000Y-106210000I-165000J0D01*
G01*
G37*
%TD*%
D12*
%TO.C,J109*%
G36*
X139450961Y-88190245D02*
G01*
X139453806Y-88180866D01*
X139458427Y-88172221D01*
X139464645Y-88164645D01*
X139472221Y-88158427D01*
X139480866Y-88153806D01*
X139490245Y-88150961D01*
X139500000Y-88150000D01*
X140500000Y-88150000D01*
X140509755Y-88150961D01*
X140519134Y-88153806D01*
X140527779Y-88158427D01*
X140535355Y-88164645D01*
X140541573Y-88172221D01*
X140546194Y-88180866D01*
X140549039Y-88190245D01*
X140550000Y-88200000D01*
X140550000Y-89350000D01*
X140549039Y-89359755D01*
X140546194Y-89369134D01*
X140541573Y-89377779D01*
X140535355Y-89385355D01*
X140527779Y-89391573D01*
X140519134Y-89396194D01*
X140509755Y-89399039D01*
X140500000Y-89400000D01*
X140490245Y-89399039D01*
X140480866Y-89396194D01*
X140472221Y-89391573D01*
X140464645Y-89385355D01*
X140000000Y-88920710D01*
X139535355Y-89385355D01*
X139527779Y-89391573D01*
X139519134Y-89396194D01*
X139509755Y-89399039D01*
X139500000Y-89400000D01*
X139490245Y-89399039D01*
X139480866Y-89396194D01*
X139472221Y-89391573D01*
X139464645Y-89385355D01*
X139458427Y-89377779D01*
X139453806Y-89369134D01*
X139450961Y-89359755D01*
X139450000Y-89350000D01*
X139450000Y-88200000D01*
X139450961Y-88190245D01*
G37*
G36*
X139450961Y-89615245D02*
G01*
X139453806Y-89605866D01*
X139458427Y-89597221D01*
X139464645Y-89589645D01*
X139964645Y-89089645D01*
X139972221Y-89083427D01*
X139980866Y-89078806D01*
X139990245Y-89075961D01*
X140000000Y-89075000D01*
X140009755Y-89075961D01*
X140019134Y-89078806D01*
X140027779Y-89083427D01*
X140035355Y-89089645D01*
X140535355Y-89589645D01*
X140541573Y-89597221D01*
X140546194Y-89605866D01*
X140549039Y-89615245D01*
X140550000Y-89625000D01*
X140550000Y-90625000D01*
X140549039Y-90634755D01*
X140546194Y-90644134D01*
X140541573Y-90652779D01*
X140535355Y-90660355D01*
X140527779Y-90666573D01*
X140519134Y-90671194D01*
X140509755Y-90674039D01*
X140500000Y-90675000D01*
X139500000Y-90675000D01*
X139490245Y-90674039D01*
X139480866Y-90671194D01*
X139472221Y-90666573D01*
X139464645Y-90660355D01*
X139458427Y-90652779D01*
X139453806Y-90644134D01*
X139450961Y-90634755D01*
X139450000Y-90625000D01*
X139450000Y-89625000D01*
X139450961Y-89615245D01*
G37*
%TD*%
%TO.C,J110*%
G36*
X137450961Y-88190245D02*
G01*
X137453806Y-88180866D01*
X137458427Y-88172221D01*
X137464645Y-88164645D01*
X137472221Y-88158427D01*
X137480866Y-88153806D01*
X137490245Y-88150961D01*
X137500000Y-88150000D01*
X138500000Y-88150000D01*
X138509755Y-88150961D01*
X138519134Y-88153806D01*
X138527779Y-88158427D01*
X138535355Y-88164645D01*
X138541573Y-88172221D01*
X138546194Y-88180866D01*
X138549039Y-88190245D01*
X138550000Y-88200000D01*
X138550000Y-89350000D01*
X138549039Y-89359755D01*
X138546194Y-89369134D01*
X138541573Y-89377779D01*
X138535355Y-89385355D01*
X138527779Y-89391573D01*
X138519134Y-89396194D01*
X138509755Y-89399039D01*
X138500000Y-89400000D01*
X138490245Y-89399039D01*
X138480866Y-89396194D01*
X138472221Y-89391573D01*
X138464645Y-89385355D01*
X138000000Y-88920710D01*
X137535355Y-89385355D01*
X137527779Y-89391573D01*
X137519134Y-89396194D01*
X137509755Y-89399039D01*
X137500000Y-89400000D01*
X137490245Y-89399039D01*
X137480866Y-89396194D01*
X137472221Y-89391573D01*
X137464645Y-89385355D01*
X137458427Y-89377779D01*
X137453806Y-89369134D01*
X137450961Y-89359755D01*
X137450000Y-89350000D01*
X137450000Y-88200000D01*
X137450961Y-88190245D01*
G37*
G36*
X137450961Y-89615245D02*
G01*
X137453806Y-89605866D01*
X137458427Y-89597221D01*
X137464645Y-89589645D01*
X137964645Y-89089645D01*
X137972221Y-89083427D01*
X137980866Y-89078806D01*
X137990245Y-89075961D01*
X138000000Y-89075000D01*
X138009755Y-89075961D01*
X138019134Y-89078806D01*
X138027779Y-89083427D01*
X138035355Y-89089645D01*
X138535355Y-89589645D01*
X138541573Y-89597221D01*
X138546194Y-89605866D01*
X138549039Y-89615245D01*
X138550000Y-89625000D01*
X138550000Y-90625000D01*
X138549039Y-90634755D01*
X138546194Y-90644134D01*
X138541573Y-90652779D01*
X138535355Y-90660355D01*
X138527779Y-90666573D01*
X138519134Y-90671194D01*
X138509755Y-90674039D01*
X138500000Y-90675000D01*
X137500000Y-90675000D01*
X137490245Y-90674039D01*
X137480866Y-90671194D01*
X137472221Y-90666573D01*
X137464645Y-90660355D01*
X137458427Y-90652779D01*
X137453806Y-90644134D01*
X137450961Y-90634755D01*
X137450000Y-90625000D01*
X137450000Y-89625000D01*
X137450961Y-89615245D01*
G37*
%TD*%
%TO.C,J108*%
G36*
X128549039Y-84109755D02*
G01*
X128546194Y-84119134D01*
X128541573Y-84127779D01*
X128535355Y-84135355D01*
X128527779Y-84141573D01*
X128519134Y-84146194D01*
X128509755Y-84149039D01*
X128500000Y-84150000D01*
X127500000Y-84150000D01*
X127490245Y-84149039D01*
X127480866Y-84146194D01*
X127472221Y-84141573D01*
X127464645Y-84135355D01*
X127458427Y-84127779D01*
X127453806Y-84119134D01*
X127450961Y-84109755D01*
X127450000Y-84100000D01*
X127450000Y-82950000D01*
X127450961Y-82940245D01*
X127453806Y-82930866D01*
X127458427Y-82922221D01*
X127464645Y-82914645D01*
X127472221Y-82908427D01*
X127480866Y-82903806D01*
X127490245Y-82900961D01*
X127500000Y-82900000D01*
X127509755Y-82900961D01*
X127519134Y-82903806D01*
X127527779Y-82908427D01*
X127535355Y-82914645D01*
X128000000Y-83379290D01*
X128464645Y-82914645D01*
X128472221Y-82908427D01*
X128480866Y-82903806D01*
X128490245Y-82900961D01*
X128500000Y-82900000D01*
X128509755Y-82900961D01*
X128519134Y-82903806D01*
X128527779Y-82908427D01*
X128535355Y-82914645D01*
X128541573Y-82922221D01*
X128546194Y-82930866D01*
X128549039Y-82940245D01*
X128550000Y-82950000D01*
X128550000Y-84100000D01*
X128549039Y-84109755D01*
G37*
G36*
X128549039Y-82684755D02*
G01*
X128546194Y-82694134D01*
X128541573Y-82702779D01*
X128535355Y-82710355D01*
X128035355Y-83210355D01*
X128027779Y-83216573D01*
X128019134Y-83221194D01*
X128009755Y-83224039D01*
X128000000Y-83225000D01*
X127990245Y-83224039D01*
X127980866Y-83221194D01*
X127972221Y-83216573D01*
X127964645Y-83210355D01*
X127464645Y-82710355D01*
X127458427Y-82702779D01*
X127453806Y-82694134D01*
X127450961Y-82684755D01*
X127450000Y-82675000D01*
X127450000Y-81675000D01*
X127450961Y-81665245D01*
X127453806Y-81655866D01*
X127458427Y-81647221D01*
X127464645Y-81639645D01*
X127472221Y-81633427D01*
X127480866Y-81628806D01*
X127490245Y-81625961D01*
X127500000Y-81625000D01*
X128500000Y-81625000D01*
X128509755Y-81625961D01*
X128519134Y-81628806D01*
X128527779Y-81633427D01*
X128535355Y-81639645D01*
X128541573Y-81647221D01*
X128546194Y-81655866D01*
X128549039Y-81665245D01*
X128550000Y-81675000D01*
X128550000Y-82675000D01*
X128549039Y-82684755D01*
G37*
%TD*%
%TO.C,J107*%
G36*
X130549039Y-84109755D02*
G01*
X130546194Y-84119134D01*
X130541573Y-84127779D01*
X130535355Y-84135355D01*
X130527779Y-84141573D01*
X130519134Y-84146194D01*
X130509755Y-84149039D01*
X130500000Y-84150000D01*
X129500000Y-84150000D01*
X129490245Y-84149039D01*
X129480866Y-84146194D01*
X129472221Y-84141573D01*
X129464645Y-84135355D01*
X129458427Y-84127779D01*
X129453806Y-84119134D01*
X129450961Y-84109755D01*
X129450000Y-84100000D01*
X129450000Y-82950000D01*
X129450961Y-82940245D01*
X129453806Y-82930866D01*
X129458427Y-82922221D01*
X129464645Y-82914645D01*
X129472221Y-82908427D01*
X129480866Y-82903806D01*
X129490245Y-82900961D01*
X129500000Y-82900000D01*
X129509755Y-82900961D01*
X129519134Y-82903806D01*
X129527779Y-82908427D01*
X129535355Y-82914645D01*
X130000000Y-83379290D01*
X130464645Y-82914645D01*
X130472221Y-82908427D01*
X130480866Y-82903806D01*
X130490245Y-82900961D01*
X130500000Y-82900000D01*
X130509755Y-82900961D01*
X130519134Y-82903806D01*
X130527779Y-82908427D01*
X130535355Y-82914645D01*
X130541573Y-82922221D01*
X130546194Y-82930866D01*
X130549039Y-82940245D01*
X130550000Y-82950000D01*
X130550000Y-84100000D01*
X130549039Y-84109755D01*
G37*
G36*
X130549039Y-82684755D02*
G01*
X130546194Y-82694134D01*
X130541573Y-82702779D01*
X130535355Y-82710355D01*
X130035355Y-83210355D01*
X130027779Y-83216573D01*
X130019134Y-83221194D01*
X130009755Y-83224039D01*
X130000000Y-83225000D01*
X129990245Y-83224039D01*
X129980866Y-83221194D01*
X129972221Y-83216573D01*
X129964645Y-83210355D01*
X129464645Y-82710355D01*
X129458427Y-82702779D01*
X129453806Y-82694134D01*
X129450961Y-82684755D01*
X129450000Y-82675000D01*
X129450000Y-81675000D01*
X129450961Y-81665245D01*
X129453806Y-81655866D01*
X129458427Y-81647221D01*
X129464645Y-81639645D01*
X129472221Y-81633427D01*
X129480866Y-81628806D01*
X129490245Y-81625961D01*
X129500000Y-81625000D01*
X130500000Y-81625000D01*
X130509755Y-81625961D01*
X130519134Y-81628806D01*
X130527779Y-81633427D01*
X130535355Y-81639645D01*
X130541573Y-81647221D01*
X130546194Y-81655866D01*
X130549039Y-81665245D01*
X130550000Y-81675000D01*
X130550000Y-82675000D01*
X130549039Y-82684755D01*
G37*
%TD*%
%TO.C,R121*%
G36*
G01*
X127900000Y-86475000D02*
X128500000Y-86475000D01*
G75*
G02*
X128725000Y-86700000I0J-225000D01*
G01*
X128725000Y-87150000D01*
G75*
G02*
X128500000Y-87375000I-225000J0D01*
G01*
X127900000Y-87375000D01*
G75*
G02*
X127675000Y-87150000I0J225000D01*
G01*
X127675000Y-86700000D01*
G75*
G02*
X127900000Y-86475000I225000J0D01*
G01*
G37*
G36*
G01*
X127900000Y-84825000D02*
X128500000Y-84825000D01*
G75*
G02*
X128725000Y-85050000I0J-225000D01*
G01*
X128725000Y-85500000D01*
G75*
G02*
X128500000Y-85725000I-225000J0D01*
G01*
X127900000Y-85725000D01*
G75*
G02*
X127675000Y-85500000I0J225000D01*
G01*
X127675000Y-85050000D01*
G75*
G02*
X127900000Y-84825000I225000J0D01*
G01*
G37*
%TD*%
%TO.C,R120*%
G36*
G01*
X129500000Y-86475000D02*
X130100000Y-86475000D01*
G75*
G02*
X130325000Y-86700000I0J-225000D01*
G01*
X130325000Y-87150000D01*
G75*
G02*
X130100000Y-87375000I-225000J0D01*
G01*
X129500000Y-87375000D01*
G75*
G02*
X129275000Y-87150000I0J225000D01*
G01*
X129275000Y-86700000D01*
G75*
G02*
X129500000Y-86475000I225000J0D01*
G01*
G37*
G36*
G01*
X129500000Y-84825000D02*
X130100000Y-84825000D01*
G75*
G02*
X130325000Y-85050000I0J-225000D01*
G01*
X130325000Y-85500000D01*
G75*
G02*
X130100000Y-85725000I-225000J0D01*
G01*
X129500000Y-85725000D01*
G75*
G02*
X129275000Y-85500000I0J225000D01*
G01*
X129275000Y-85050000D01*
G75*
G02*
X129500000Y-84825000I225000J0D01*
G01*
G37*
%TD*%
D13*
%TO.C,J303*%
X166030000Y-61800000D03*
X162220000Y-61800000D03*
X158410000Y-61800000D03*
G36*
G01*
X153650000Y-63386112D02*
X153650000Y-60213888D01*
G75*
G02*
X153913888Y-59950000I263888J0D01*
G01*
X155286112Y-59950000D01*
G75*
G02*
X155550000Y-60213888I0J-263888D01*
G01*
X155550000Y-63386112D01*
G75*
G02*
X155286112Y-63650000I-263888J0D01*
G01*
X153913888Y-63650000D01*
G75*
G02*
X153650000Y-63386112I0J263888D01*
G01*
G37*
%TD*%
%TO.C,J302*%
X102170000Y-110100000D03*
X105980000Y-110100000D03*
X109790000Y-110100000D03*
G36*
G01*
X114550000Y-108513888D02*
X114550000Y-111686112D01*
G75*
G02*
X114286112Y-111950000I-263888J0D01*
G01*
X112913888Y-111950000D01*
G75*
G02*
X112650000Y-111686112I0J263888D01*
G01*
X112650000Y-108513888D01*
G75*
G02*
X112913888Y-108250000I263888J0D01*
G01*
X114286112Y-108250000D01*
G75*
G02*
X114550000Y-108513888I0J-263888D01*
G01*
G37*
%TD*%
%TO.C,R308*%
G36*
G01*
X149225000Y-73300000D02*
X149225000Y-73900000D01*
G75*
G02*
X149000000Y-74125000I-225000J0D01*
G01*
X148550000Y-74125000D01*
G75*
G02*
X148325000Y-73900000I0J225000D01*
G01*
X148325000Y-73300000D01*
G75*
G02*
X148550000Y-73075000I225000J0D01*
G01*
X149000000Y-73075000D01*
G75*
G02*
X149225000Y-73300000I0J-225000D01*
G01*
G37*
G36*
G01*
X150875000Y-73300000D02*
X150875000Y-73900000D01*
G75*
G02*
X150650000Y-74125000I-225000J0D01*
G01*
X150200000Y-74125000D01*
G75*
G02*
X149975000Y-73900000I0J225000D01*
G01*
X149975000Y-73300000D01*
G75*
G02*
X150200000Y-73075000I225000J0D01*
G01*
X150650000Y-73075000D01*
G75*
G02*
X150875000Y-73300000I0J-225000D01*
G01*
G37*
%TD*%
%TO.C,FB304*%
G36*
G01*
X148725000Y-69093750D02*
X148725000Y-69906250D01*
G75*
G02*
X148481250Y-70150000I-243750J0D01*
G01*
X147993750Y-70150000D01*
G75*
G02*
X147750000Y-69906250I0J243750D01*
G01*
X147750000Y-69093750D01*
G75*
G02*
X147993750Y-68850000I243750J0D01*
G01*
X148481250Y-68850000D01*
G75*
G02*
X148725000Y-69093750I0J-243750D01*
G01*
G37*
G36*
G01*
X150850000Y-69093750D02*
X150850000Y-69906250D01*
G75*
G02*
X150606250Y-70150000I-243750J0D01*
G01*
X150118750Y-70150000D01*
G75*
G02*
X149875000Y-69906250I0J243750D01*
G01*
X149875000Y-69093750D01*
G75*
G02*
X150118750Y-68850000I243750J0D01*
G01*
X150606250Y-68850000D01*
G75*
G02*
X150850000Y-69093750I0J-243750D01*
G01*
G37*
%TD*%
%TO.C,D308*%
G36*
G01*
X148300000Y-71050000D02*
X148300000Y-72150000D01*
G75*
G02*
X148250000Y-72200000I-50000J0D01*
G01*
X147150000Y-72200000D01*
G75*
G02*
X147100000Y-72150000I0J50000D01*
G01*
X147100000Y-71050000D01*
G75*
G02*
X147150000Y-71000000I50000J0D01*
G01*
X148250000Y-71000000D01*
G75*
G02*
X148300000Y-71050000I0J-50000D01*
G01*
G37*
G36*
G01*
X151100000Y-71050000D02*
X151100000Y-72150000D01*
G75*
G02*
X151050000Y-72200000I-50000J0D01*
G01*
X149950000Y-72200000D01*
G75*
G02*
X149900000Y-72150000I0J50000D01*
G01*
X149900000Y-71050000D01*
G75*
G02*
X149950000Y-71000000I50000J0D01*
G01*
X151050000Y-71000000D01*
G75*
G02*
X151100000Y-71050000I0J-50000D01*
G01*
G37*
%TD*%
%TO.C,C308*%
G36*
G01*
X149325000Y-67125000D02*
X149325000Y-67675000D01*
G75*
G02*
X149075000Y-67925000I-250000J0D01*
G01*
X148575000Y-67925000D01*
G75*
G02*
X148325000Y-67675000I0J250000D01*
G01*
X148325000Y-67125000D01*
G75*
G02*
X148575000Y-66875000I250000J0D01*
G01*
X149075000Y-66875000D01*
G75*
G02*
X149325000Y-67125000I0J-250000D01*
G01*
G37*
G36*
G01*
X150875000Y-67125000D02*
X150875000Y-67675000D01*
G75*
G02*
X150625000Y-67925000I-250000J0D01*
G01*
X150125000Y-67925000D01*
G75*
G02*
X149875000Y-67675000I0J250000D01*
G01*
X149875000Y-67125000D01*
G75*
G02*
X150125000Y-66875000I250000J0D01*
G01*
X150625000Y-66875000D01*
G75*
G02*
X150875000Y-67125000I0J-250000D01*
G01*
G37*
%TD*%
%TO.C,C307*%
G36*
G01*
X147795000Y-67450000D02*
X147405000Y-67450000D01*
G75*
G02*
X147240000Y-67285000I0J165000D01*
G01*
X147240000Y-66955000D01*
G75*
G02*
X147405000Y-66790000I165000J0D01*
G01*
X147795000Y-66790000D01*
G75*
G02*
X147960000Y-66955000I0J-165000D01*
G01*
X147960000Y-67285000D01*
G75*
G02*
X147795000Y-67450000I-165000J0D01*
G01*
G37*
G36*
G01*
X147795000Y-68410000D02*
X147405000Y-68410000D01*
G75*
G02*
X147240000Y-68245000I0J165000D01*
G01*
X147240000Y-67915000D01*
G75*
G02*
X147405000Y-67750000I165000J0D01*
G01*
X147795000Y-67750000D01*
G75*
G02*
X147960000Y-67915000I0J-165000D01*
G01*
X147960000Y-68245000D01*
G75*
G02*
X147795000Y-68410000I-165000J0D01*
G01*
G37*
%TD*%
%TO.C,R306*%
G36*
G01*
X149425000Y-64400000D02*
X149425000Y-65000000D01*
G75*
G02*
X149200000Y-65225000I-225000J0D01*
G01*
X148750000Y-65225000D01*
G75*
G02*
X148525000Y-65000000I0J225000D01*
G01*
X148525000Y-64400000D01*
G75*
G02*
X148750000Y-64175000I225000J0D01*
G01*
X149200000Y-64175000D01*
G75*
G02*
X149425000Y-64400000I0J-225000D01*
G01*
G37*
G36*
G01*
X151075000Y-64400000D02*
X151075000Y-65000000D01*
G75*
G02*
X150850000Y-65225000I-225000J0D01*
G01*
X150400000Y-65225000D01*
G75*
G02*
X150175000Y-65000000I0J225000D01*
G01*
X150175000Y-64400000D01*
G75*
G02*
X150400000Y-64175000I225000J0D01*
G01*
X150850000Y-64175000D01*
G75*
G02*
X151075000Y-64400000I0J-225000D01*
G01*
G37*
%TD*%
%TO.C,FB303*%
G36*
G01*
X148925000Y-60193750D02*
X148925000Y-61006250D01*
G75*
G02*
X148681250Y-61250000I-243750J0D01*
G01*
X148193750Y-61250000D01*
G75*
G02*
X147950000Y-61006250I0J243750D01*
G01*
X147950000Y-60193750D01*
G75*
G02*
X148193750Y-59950000I243750J0D01*
G01*
X148681250Y-59950000D01*
G75*
G02*
X148925000Y-60193750I0J-243750D01*
G01*
G37*
G36*
G01*
X151050000Y-60193750D02*
X151050000Y-61006250D01*
G75*
G02*
X150806250Y-61250000I-243750J0D01*
G01*
X150318750Y-61250000D01*
G75*
G02*
X150075000Y-61006250I0J243750D01*
G01*
X150075000Y-60193750D01*
G75*
G02*
X150318750Y-59950000I243750J0D01*
G01*
X150806250Y-59950000D01*
G75*
G02*
X151050000Y-60193750I0J-243750D01*
G01*
G37*
%TD*%
%TO.C,D306*%
G36*
G01*
X148350000Y-62150000D02*
X148350000Y-63250000D01*
G75*
G02*
X148300000Y-63300000I-50000J0D01*
G01*
X147200000Y-63300000D01*
G75*
G02*
X147150000Y-63250000I0J50000D01*
G01*
X147150000Y-62150000D01*
G75*
G02*
X147200000Y-62100000I50000J0D01*
G01*
X148300000Y-62100000D01*
G75*
G02*
X148350000Y-62150000I0J-50000D01*
G01*
G37*
G36*
G01*
X151150000Y-62150000D02*
X151150000Y-63250000D01*
G75*
G02*
X151100000Y-63300000I-50000J0D01*
G01*
X150000000Y-63300000D01*
G75*
G02*
X149950000Y-63250000I0J50000D01*
G01*
X149950000Y-62150000D01*
G75*
G02*
X150000000Y-62100000I50000J0D01*
G01*
X151100000Y-62100000D01*
G75*
G02*
X151150000Y-62150000I0J-50000D01*
G01*
G37*
%TD*%
%TO.C,C306*%
G36*
G01*
X149525000Y-58325000D02*
X149525000Y-58875000D01*
G75*
G02*
X149275000Y-59125000I-250000J0D01*
G01*
X148775000Y-59125000D01*
G75*
G02*
X148525000Y-58875000I0J250000D01*
G01*
X148525000Y-58325000D01*
G75*
G02*
X148775000Y-58075000I250000J0D01*
G01*
X149275000Y-58075000D01*
G75*
G02*
X149525000Y-58325000I0J-250000D01*
G01*
G37*
G36*
G01*
X151075000Y-58325000D02*
X151075000Y-58875000D01*
G75*
G02*
X150825000Y-59125000I-250000J0D01*
G01*
X150325000Y-59125000D01*
G75*
G02*
X150075000Y-58875000I0J250000D01*
G01*
X150075000Y-58325000D01*
G75*
G02*
X150325000Y-58075000I250000J0D01*
G01*
X150825000Y-58075000D01*
G75*
G02*
X151075000Y-58325000I0J-250000D01*
G01*
G37*
%TD*%
%TO.C,C305*%
G36*
G01*
X147895000Y-58650000D02*
X147505000Y-58650000D01*
G75*
G02*
X147340000Y-58485000I0J165000D01*
G01*
X147340000Y-58155000D01*
G75*
G02*
X147505000Y-57990000I165000J0D01*
G01*
X147895000Y-57990000D01*
G75*
G02*
X148060000Y-58155000I0J-165000D01*
G01*
X148060000Y-58485000D01*
G75*
G02*
X147895000Y-58650000I-165000J0D01*
G01*
G37*
G36*
G01*
X147895000Y-59610000D02*
X147505000Y-59610000D01*
G75*
G02*
X147340000Y-59445000I0J165000D01*
G01*
X147340000Y-59115000D01*
G75*
G02*
X147505000Y-58950000I165000J0D01*
G01*
X147895000Y-58950000D01*
G75*
G02*
X148060000Y-59115000I0J-165000D01*
G01*
X148060000Y-59445000D01*
G75*
G02*
X147895000Y-59610000I-165000J0D01*
G01*
G37*
%TD*%
%TO.C,R304*%
G36*
G01*
X118675000Y-108300000D02*
X118675000Y-107700000D01*
G75*
G02*
X118900000Y-107475000I225000J0D01*
G01*
X119350000Y-107475000D01*
G75*
G02*
X119575000Y-107700000I0J-225000D01*
G01*
X119575000Y-108300000D01*
G75*
G02*
X119350000Y-108525000I-225000J0D01*
G01*
X118900000Y-108525000D01*
G75*
G02*
X118675000Y-108300000I0J225000D01*
G01*
G37*
G36*
G01*
X117025000Y-108300000D02*
X117025000Y-107700000D01*
G75*
G02*
X117250000Y-107475000I225000J0D01*
G01*
X117700000Y-107475000D01*
G75*
G02*
X117925000Y-107700000I0J-225000D01*
G01*
X117925000Y-108300000D01*
G75*
G02*
X117700000Y-108525000I-225000J0D01*
G01*
X117250000Y-108525000D01*
G75*
G02*
X117025000Y-108300000I0J225000D01*
G01*
G37*
%TD*%
%TO.C,FB302*%
G36*
G01*
X119175000Y-112506250D02*
X119175000Y-111693750D01*
G75*
G02*
X119418750Y-111450000I243750J0D01*
G01*
X119906250Y-111450000D01*
G75*
G02*
X120150000Y-111693750I0J-243750D01*
G01*
X120150000Y-112506250D01*
G75*
G02*
X119906250Y-112750000I-243750J0D01*
G01*
X119418750Y-112750000D01*
G75*
G02*
X119175000Y-112506250I0J243750D01*
G01*
G37*
G36*
G01*
X117050000Y-112506250D02*
X117050000Y-111693750D01*
G75*
G02*
X117293750Y-111450000I243750J0D01*
G01*
X117781250Y-111450000D01*
G75*
G02*
X118025000Y-111693750I0J-243750D01*
G01*
X118025000Y-112506250D01*
G75*
G02*
X117781250Y-112750000I-243750J0D01*
G01*
X117293750Y-112750000D01*
G75*
G02*
X117050000Y-112506250I0J243750D01*
G01*
G37*
%TD*%
%TO.C,D304*%
G36*
G01*
X119800000Y-110550000D02*
X119800000Y-109450000D01*
G75*
G02*
X119850000Y-109400000I50000J0D01*
G01*
X120950000Y-109400000D01*
G75*
G02*
X121000000Y-109450000I0J-50000D01*
G01*
X121000000Y-110550000D01*
G75*
G02*
X120950000Y-110600000I-50000J0D01*
G01*
X119850000Y-110600000D01*
G75*
G02*
X119800000Y-110550000I0J50000D01*
G01*
G37*
G36*
G01*
X117000000Y-110550000D02*
X117000000Y-109450000D01*
G75*
G02*
X117050000Y-109400000I50000J0D01*
G01*
X118150000Y-109400000D01*
G75*
G02*
X118200000Y-109450000I0J-50000D01*
G01*
X118200000Y-110550000D01*
G75*
G02*
X118150000Y-110600000I-50000J0D01*
G01*
X117050000Y-110600000D01*
G75*
G02*
X117000000Y-110550000I0J50000D01*
G01*
G37*
%TD*%
%TO.C,C304*%
G36*
G01*
X118675000Y-114375000D02*
X118675000Y-113825000D01*
G75*
G02*
X118925000Y-113575000I250000J0D01*
G01*
X119425000Y-113575000D01*
G75*
G02*
X119675000Y-113825000I0J-250000D01*
G01*
X119675000Y-114375000D01*
G75*
G02*
X119425000Y-114625000I-250000J0D01*
G01*
X118925000Y-114625000D01*
G75*
G02*
X118675000Y-114375000I0J250000D01*
G01*
G37*
G36*
G01*
X117125000Y-114375000D02*
X117125000Y-113825000D01*
G75*
G02*
X117375000Y-113575000I250000J0D01*
G01*
X117875000Y-113575000D01*
G75*
G02*
X118125000Y-113825000I0J-250000D01*
G01*
X118125000Y-114375000D01*
G75*
G02*
X117875000Y-114625000I-250000J0D01*
G01*
X117375000Y-114625000D01*
G75*
G02*
X117125000Y-114375000I0J250000D01*
G01*
G37*
%TD*%
%TO.C,C303*%
G36*
G01*
X120305000Y-114050000D02*
X120695000Y-114050000D01*
G75*
G02*
X120860000Y-114215000I0J-165000D01*
G01*
X120860000Y-114545000D01*
G75*
G02*
X120695000Y-114710000I-165000J0D01*
G01*
X120305000Y-114710000D01*
G75*
G02*
X120140000Y-114545000I0J165000D01*
G01*
X120140000Y-114215000D01*
G75*
G02*
X120305000Y-114050000I165000J0D01*
G01*
G37*
G36*
G01*
X120305000Y-113090000D02*
X120695000Y-113090000D01*
G75*
G02*
X120860000Y-113255000I0J-165000D01*
G01*
X120860000Y-113585000D01*
G75*
G02*
X120695000Y-113750000I-165000J0D01*
G01*
X120305000Y-113750000D01*
G75*
G02*
X120140000Y-113585000I0J165000D01*
G01*
X120140000Y-113255000D01*
G75*
G02*
X120305000Y-113090000I165000J0D01*
G01*
G37*
%TD*%
%TO.C,R302*%
G36*
G01*
X118875000Y-99000000D02*
X118875000Y-98400000D01*
G75*
G02*
X119100000Y-98175000I225000J0D01*
G01*
X119550000Y-98175000D01*
G75*
G02*
X119775000Y-98400000I0J-225000D01*
G01*
X119775000Y-99000000D01*
G75*
G02*
X119550000Y-99225000I-225000J0D01*
G01*
X119100000Y-99225000D01*
G75*
G02*
X118875000Y-99000000I0J225000D01*
G01*
G37*
G36*
G01*
X117225000Y-99000000D02*
X117225000Y-98400000D01*
G75*
G02*
X117450000Y-98175000I225000J0D01*
G01*
X117900000Y-98175000D01*
G75*
G02*
X118125000Y-98400000I0J-225000D01*
G01*
X118125000Y-99000000D01*
G75*
G02*
X117900000Y-99225000I-225000J0D01*
G01*
X117450000Y-99225000D01*
G75*
G02*
X117225000Y-99000000I0J225000D01*
G01*
G37*
%TD*%
%TO.C,R101*%
G36*
G01*
X131425000Y-89700000D02*
X131425000Y-90300000D01*
G75*
G02*
X131200000Y-90525000I-225000J0D01*
G01*
X130750000Y-90525000D01*
G75*
G02*
X130525000Y-90300000I0J225000D01*
G01*
X130525000Y-89700000D01*
G75*
G02*
X130750000Y-89475000I225000J0D01*
G01*
X131200000Y-89475000D01*
G75*
G02*
X131425000Y-89700000I0J-225000D01*
G01*
G37*
G36*
G01*
X133075000Y-89700000D02*
X133075000Y-90300000D01*
G75*
G02*
X132850000Y-90525000I-225000J0D01*
G01*
X132400000Y-90525000D01*
G75*
G02*
X132175000Y-90300000I0J225000D01*
G01*
X132175000Y-89700000D01*
G75*
G02*
X132400000Y-89475000I225000J0D01*
G01*
X132850000Y-89475000D01*
G75*
G02*
X133075000Y-89700000I0J-225000D01*
G01*
G37*
%TD*%
%TO.C,FB301*%
G36*
G01*
X119275000Y-103206250D02*
X119275000Y-102393750D01*
G75*
G02*
X119518750Y-102150000I243750J0D01*
G01*
X120006250Y-102150000D01*
G75*
G02*
X120250000Y-102393750I0J-243750D01*
G01*
X120250000Y-103206250D01*
G75*
G02*
X120006250Y-103450000I-243750J0D01*
G01*
X119518750Y-103450000D01*
G75*
G02*
X119275000Y-103206250I0J243750D01*
G01*
G37*
G36*
G01*
X117150000Y-103206250D02*
X117150000Y-102393750D01*
G75*
G02*
X117393750Y-102150000I243750J0D01*
G01*
X117881250Y-102150000D01*
G75*
G02*
X118125000Y-102393750I0J-243750D01*
G01*
X118125000Y-103206250D01*
G75*
G02*
X117881250Y-103450000I-243750J0D01*
G01*
X117393750Y-103450000D01*
G75*
G02*
X117150000Y-103206250I0J243750D01*
G01*
G37*
%TD*%
%TO.C,D302*%
G36*
G01*
X119780000Y-101240000D02*
X119780000Y-100140000D01*
G75*
G02*
X119830000Y-100090000I50000J0D01*
G01*
X120930000Y-100090000D01*
G75*
G02*
X120980000Y-100140000I0J-50000D01*
G01*
X120980000Y-101240000D01*
G75*
G02*
X120930000Y-101290000I-50000J0D01*
G01*
X119830000Y-101290000D01*
G75*
G02*
X119780000Y-101240000I0J50000D01*
G01*
G37*
G36*
G01*
X116980000Y-101240000D02*
X116980000Y-100140000D01*
G75*
G02*
X117030000Y-100090000I50000J0D01*
G01*
X118130000Y-100090000D01*
G75*
G02*
X118180000Y-100140000I0J-50000D01*
G01*
X118180000Y-101240000D01*
G75*
G02*
X118130000Y-101290000I-50000J0D01*
G01*
X117030000Y-101290000D01*
G75*
G02*
X116980000Y-101240000I0J50000D01*
G01*
G37*
%TD*%
%TO.C,D301*%
G36*
G01*
X130518750Y-100600000D02*
X131081250Y-100600000D01*
G75*
G02*
X131325000Y-100843750I0J-243750D01*
G01*
X131325000Y-101331250D01*
G75*
G02*
X131081250Y-101575000I-243750J0D01*
G01*
X130518750Y-101575000D01*
G75*
G02*
X130275000Y-101331250I0J243750D01*
G01*
X130275000Y-100843750D01*
G75*
G02*
X130518750Y-100600000I243750J0D01*
G01*
G37*
G36*
G01*
X130518750Y-99025000D02*
X131081250Y-99025000D01*
G75*
G02*
X131325000Y-99268750I0J-243750D01*
G01*
X131325000Y-99756250D01*
G75*
G02*
X131081250Y-100000000I-243750J0D01*
G01*
X130518750Y-100000000D01*
G75*
G02*
X130275000Y-99756250I0J243750D01*
G01*
X130275000Y-99268750D01*
G75*
G02*
X130518750Y-99025000I243750J0D01*
G01*
G37*
%TD*%
%TO.C,C302*%
G36*
G01*
X118775000Y-105075000D02*
X118775000Y-104525000D01*
G75*
G02*
X119025000Y-104275000I250000J0D01*
G01*
X119525000Y-104275000D01*
G75*
G02*
X119775000Y-104525000I0J-250000D01*
G01*
X119775000Y-105075000D01*
G75*
G02*
X119525000Y-105325000I-250000J0D01*
G01*
X119025000Y-105325000D01*
G75*
G02*
X118775000Y-105075000I0J250000D01*
G01*
G37*
G36*
G01*
X117225000Y-105075000D02*
X117225000Y-104525000D01*
G75*
G02*
X117475000Y-104275000I250000J0D01*
G01*
X117975000Y-104275000D01*
G75*
G02*
X118225000Y-104525000I0J-250000D01*
G01*
X118225000Y-105075000D01*
G75*
G02*
X117975000Y-105325000I-250000J0D01*
G01*
X117475000Y-105325000D01*
G75*
G02*
X117225000Y-105075000I0J250000D01*
G01*
G37*
%TD*%
%TO.C,C301*%
G36*
G01*
X120405000Y-104750000D02*
X120795000Y-104750000D01*
G75*
G02*
X120960000Y-104915000I0J-165000D01*
G01*
X120960000Y-105245000D01*
G75*
G02*
X120795000Y-105410000I-165000J0D01*
G01*
X120405000Y-105410000D01*
G75*
G02*
X120240000Y-105245000I0J165000D01*
G01*
X120240000Y-104915000D01*
G75*
G02*
X120405000Y-104750000I165000J0D01*
G01*
G37*
G36*
G01*
X120405000Y-103790000D02*
X120795000Y-103790000D01*
G75*
G02*
X120960000Y-103955000I0J-165000D01*
G01*
X120960000Y-104285000D01*
G75*
G02*
X120795000Y-104450000I-165000J0D01*
G01*
X120405000Y-104450000D01*
G75*
G02*
X120240000Y-104285000I0J165000D01*
G01*
X120240000Y-103955000D01*
G75*
G02*
X120405000Y-103790000I165000J0D01*
G01*
G37*
%TD*%
%TO.C,U105*%
G36*
G01*
X122780000Y-68625000D02*
X122430000Y-68625000D01*
G75*
G02*
X122255000Y-68450000I0J175000D01*
G01*
X122255000Y-66650000D01*
G75*
G02*
X122430000Y-66475000I175000J0D01*
G01*
X122780000Y-66475000D01*
G75*
G02*
X122955000Y-66650000I0J-175000D01*
G01*
X122955000Y-68450000D01*
G75*
G02*
X122780000Y-68625000I-175000J0D01*
G01*
G37*
G36*
G01*
X124050000Y-68625000D02*
X123700000Y-68625000D01*
G75*
G02*
X123525000Y-68450000I0J175000D01*
G01*
X123525000Y-66650000D01*
G75*
G02*
X123700000Y-66475000I175000J0D01*
G01*
X124050000Y-66475000D01*
G75*
G02*
X124225000Y-66650000I0J-175000D01*
G01*
X124225000Y-68450000D01*
G75*
G02*
X124050000Y-68625000I-175000J0D01*
G01*
G37*
G36*
G01*
X125320000Y-68625000D02*
X124970000Y-68625000D01*
G75*
G02*
X124795000Y-68450000I0J175000D01*
G01*
X124795000Y-66650000D01*
G75*
G02*
X124970000Y-66475000I175000J0D01*
G01*
X125320000Y-66475000D01*
G75*
G02*
X125495000Y-66650000I0J-175000D01*
G01*
X125495000Y-68450000D01*
G75*
G02*
X125320000Y-68625000I-175000J0D01*
G01*
G37*
G36*
G01*
X126590000Y-68625000D02*
X126240000Y-68625000D01*
G75*
G02*
X126065000Y-68450000I0J175000D01*
G01*
X126065000Y-66650000D01*
G75*
G02*
X126240000Y-66475000I175000J0D01*
G01*
X126590000Y-66475000D01*
G75*
G02*
X126765000Y-66650000I0J-175000D01*
G01*
X126765000Y-68450000D01*
G75*
G02*
X126590000Y-68625000I-175000J0D01*
G01*
G37*
G36*
G01*
X127860000Y-68625000D02*
X127510000Y-68625000D01*
G75*
G02*
X127335000Y-68450000I0J175000D01*
G01*
X127335000Y-66650000D01*
G75*
G02*
X127510000Y-66475000I175000J0D01*
G01*
X127860000Y-66475000D01*
G75*
G02*
X128035000Y-66650000I0J-175000D01*
G01*
X128035000Y-68450000D01*
G75*
G02*
X127860000Y-68625000I-175000J0D01*
G01*
G37*
G36*
G01*
X129130000Y-68625000D02*
X128780000Y-68625000D01*
G75*
G02*
X128605000Y-68450000I0J175000D01*
G01*
X128605000Y-66650000D01*
G75*
G02*
X128780000Y-66475000I175000J0D01*
G01*
X129130000Y-66475000D01*
G75*
G02*
X129305000Y-66650000I0J-175000D01*
G01*
X129305000Y-68450000D01*
G75*
G02*
X129130000Y-68625000I-175000J0D01*
G01*
G37*
G36*
G01*
X130400000Y-68625000D02*
X130050000Y-68625000D01*
G75*
G02*
X129875000Y-68450000I0J175000D01*
G01*
X129875000Y-66650000D01*
G75*
G02*
X130050000Y-66475000I175000J0D01*
G01*
X130400000Y-66475000D01*
G75*
G02*
X130575000Y-66650000I0J-175000D01*
G01*
X130575000Y-68450000D01*
G75*
G02*
X130400000Y-68625000I-175000J0D01*
G01*
G37*
G36*
G01*
X131670000Y-68625000D02*
X131320000Y-68625000D01*
G75*
G02*
X131145000Y-68450000I0J175000D01*
G01*
X131145000Y-66650000D01*
G75*
G02*
X131320000Y-66475000I175000J0D01*
G01*
X131670000Y-66475000D01*
G75*
G02*
X131845000Y-66650000I0J-175000D01*
G01*
X131845000Y-68450000D01*
G75*
G02*
X131670000Y-68625000I-175000J0D01*
G01*
G37*
G36*
G01*
X131670000Y-77925000D02*
X131320000Y-77925000D01*
G75*
G02*
X131145000Y-77750000I0J175000D01*
G01*
X131145000Y-75950000D01*
G75*
G02*
X131320000Y-75775000I175000J0D01*
G01*
X131670000Y-75775000D01*
G75*
G02*
X131845000Y-75950000I0J-175000D01*
G01*
X131845000Y-77750000D01*
G75*
G02*
X131670000Y-77925000I-175000J0D01*
G01*
G37*
G36*
G01*
X130400000Y-77925000D02*
X130050000Y-77925000D01*
G75*
G02*
X129875000Y-77750000I0J175000D01*
G01*
X129875000Y-75950000D01*
G75*
G02*
X130050000Y-75775000I175000J0D01*
G01*
X130400000Y-75775000D01*
G75*
G02*
X130575000Y-75950000I0J-175000D01*
G01*
X130575000Y-77750000D01*
G75*
G02*
X130400000Y-77925000I-175000J0D01*
G01*
G37*
G36*
G01*
X129130000Y-77925000D02*
X128780000Y-77925000D01*
G75*
G02*
X128605000Y-77750000I0J175000D01*
G01*
X128605000Y-75950000D01*
G75*
G02*
X128780000Y-75775000I175000J0D01*
G01*
X129130000Y-75775000D01*
G75*
G02*
X129305000Y-75950000I0J-175000D01*
G01*
X129305000Y-77750000D01*
G75*
G02*
X129130000Y-77925000I-175000J0D01*
G01*
G37*
G36*
G01*
X127860000Y-77925000D02*
X127510000Y-77925000D01*
G75*
G02*
X127335000Y-77750000I0J175000D01*
G01*
X127335000Y-75950000D01*
G75*
G02*
X127510000Y-75775000I175000J0D01*
G01*
X127860000Y-75775000D01*
G75*
G02*
X128035000Y-75950000I0J-175000D01*
G01*
X128035000Y-77750000D01*
G75*
G02*
X127860000Y-77925000I-175000J0D01*
G01*
G37*
G36*
G01*
X126590000Y-77925000D02*
X126240000Y-77925000D01*
G75*
G02*
X126065000Y-77750000I0J175000D01*
G01*
X126065000Y-75950000D01*
G75*
G02*
X126240000Y-75775000I175000J0D01*
G01*
X126590000Y-75775000D01*
G75*
G02*
X126765000Y-75950000I0J-175000D01*
G01*
X126765000Y-77750000D01*
G75*
G02*
X126590000Y-77925000I-175000J0D01*
G01*
G37*
G36*
G01*
X125320000Y-77925000D02*
X124970000Y-77925000D01*
G75*
G02*
X124795000Y-77750000I0J175000D01*
G01*
X124795000Y-75950000D01*
G75*
G02*
X124970000Y-75775000I175000J0D01*
G01*
X125320000Y-75775000D01*
G75*
G02*
X125495000Y-75950000I0J-175000D01*
G01*
X125495000Y-77750000D01*
G75*
G02*
X125320000Y-77925000I-175000J0D01*
G01*
G37*
G36*
G01*
X124050000Y-77925000D02*
X123700000Y-77925000D01*
G75*
G02*
X123525000Y-77750000I0J175000D01*
G01*
X123525000Y-75950000D01*
G75*
G02*
X123700000Y-75775000I175000J0D01*
G01*
X124050000Y-75775000D01*
G75*
G02*
X124225000Y-75950000I0J-175000D01*
G01*
X124225000Y-77750000D01*
G75*
G02*
X124050000Y-77925000I-175000J0D01*
G01*
G37*
G36*
G01*
X122780000Y-77925000D02*
X122430000Y-77925000D01*
G75*
G02*
X122255000Y-77750000I0J175000D01*
G01*
X122255000Y-75950000D01*
G75*
G02*
X122430000Y-75775000I175000J0D01*
G01*
X122780000Y-75775000D01*
G75*
G02*
X122955000Y-75950000I0J-175000D01*
G01*
X122955000Y-77750000D01*
G75*
G02*
X122780000Y-77925000I-175000J0D01*
G01*
G37*
%TD*%
%TO.C,R123*%
G36*
G01*
X138500000Y-85825000D02*
X137900000Y-85825000D01*
G75*
G02*
X137675000Y-85600000I0J225000D01*
G01*
X137675000Y-85150000D01*
G75*
G02*
X137900000Y-84925000I225000J0D01*
G01*
X138500000Y-84925000D01*
G75*
G02*
X138725000Y-85150000I0J-225000D01*
G01*
X138725000Y-85600000D01*
G75*
G02*
X138500000Y-85825000I-225000J0D01*
G01*
G37*
G36*
G01*
X138500000Y-87475000D02*
X137900000Y-87475000D01*
G75*
G02*
X137675000Y-87250000I0J225000D01*
G01*
X137675000Y-86800000D01*
G75*
G02*
X137900000Y-86575000I225000J0D01*
G01*
X138500000Y-86575000D01*
G75*
G02*
X138725000Y-86800000I0J-225000D01*
G01*
X138725000Y-87250000D01*
G75*
G02*
X138500000Y-87475000I-225000J0D01*
G01*
G37*
%TD*%
%TO.C,R122*%
G36*
G01*
X140100000Y-85825000D02*
X139500000Y-85825000D01*
G75*
G02*
X139275000Y-85600000I0J225000D01*
G01*
X139275000Y-85150000D01*
G75*
G02*
X139500000Y-84925000I225000J0D01*
G01*
X140100000Y-84925000D01*
G75*
G02*
X140325000Y-85150000I0J-225000D01*
G01*
X140325000Y-85600000D01*
G75*
G02*
X140100000Y-85825000I-225000J0D01*
G01*
G37*
G36*
G01*
X140100000Y-87475000D02*
X139500000Y-87475000D01*
G75*
G02*
X139275000Y-87250000I0J225000D01*
G01*
X139275000Y-86800000D01*
G75*
G02*
X139500000Y-86575000I225000J0D01*
G01*
X140100000Y-86575000D01*
G75*
G02*
X140325000Y-86800000I0J-225000D01*
G01*
X140325000Y-87250000D01*
G75*
G02*
X140100000Y-87475000I-225000J0D01*
G01*
G37*
%TD*%
%TO.C,R119*%
G36*
G01*
X141800000Y-103475000D02*
X142400000Y-103475000D01*
G75*
G02*
X142625000Y-103700000I0J-225000D01*
G01*
X142625000Y-104150000D01*
G75*
G02*
X142400000Y-104375000I-225000J0D01*
G01*
X141800000Y-104375000D01*
G75*
G02*
X141575000Y-104150000I0J225000D01*
G01*
X141575000Y-103700000D01*
G75*
G02*
X141800000Y-103475000I225000J0D01*
G01*
G37*
G36*
G01*
X141800000Y-101825000D02*
X142400000Y-101825000D01*
G75*
G02*
X142625000Y-102050000I0J-225000D01*
G01*
X142625000Y-102500000D01*
G75*
G02*
X142400000Y-102725000I-225000J0D01*
G01*
X141800000Y-102725000D01*
G75*
G02*
X141575000Y-102500000I0J225000D01*
G01*
X141575000Y-102050000D01*
G75*
G02*
X141800000Y-101825000I225000J0D01*
G01*
G37*
%TD*%
%TO.C,R118*%
G36*
G01*
X139300000Y-103475000D02*
X139900000Y-103475000D01*
G75*
G02*
X140125000Y-103700000I0J-225000D01*
G01*
X140125000Y-104150000D01*
G75*
G02*
X139900000Y-104375000I-225000J0D01*
G01*
X139300000Y-104375000D01*
G75*
G02*
X139075000Y-104150000I0J225000D01*
G01*
X139075000Y-103700000D01*
G75*
G02*
X139300000Y-103475000I225000J0D01*
G01*
G37*
G36*
G01*
X139300000Y-101825000D02*
X139900000Y-101825000D01*
G75*
G02*
X140125000Y-102050000I0J-225000D01*
G01*
X140125000Y-102500000D01*
G75*
G02*
X139900000Y-102725000I-225000J0D01*
G01*
X139300000Y-102725000D01*
G75*
G02*
X139075000Y-102500000I0J225000D01*
G01*
X139075000Y-102050000D01*
G75*
G02*
X139300000Y-101825000I225000J0D01*
G01*
G37*
%TD*%
%TO.C,R117*%
G36*
G01*
X136800000Y-103475000D02*
X137400000Y-103475000D01*
G75*
G02*
X137625000Y-103700000I0J-225000D01*
G01*
X137625000Y-104150000D01*
G75*
G02*
X137400000Y-104375000I-225000J0D01*
G01*
X136800000Y-104375000D01*
G75*
G02*
X136575000Y-104150000I0J225000D01*
G01*
X136575000Y-103700000D01*
G75*
G02*
X136800000Y-103475000I225000J0D01*
G01*
G37*
G36*
G01*
X136800000Y-101825000D02*
X137400000Y-101825000D01*
G75*
G02*
X137625000Y-102050000I0J-225000D01*
G01*
X137625000Y-102500000D01*
G75*
G02*
X137400000Y-102725000I-225000J0D01*
G01*
X136800000Y-102725000D01*
G75*
G02*
X136575000Y-102500000I0J225000D01*
G01*
X136575000Y-102050000D01*
G75*
G02*
X136800000Y-101825000I225000J0D01*
G01*
G37*
%TD*%
D14*
%TO.C,J106*%
X137020000Y-99740000D03*
X137020000Y-97200000D03*
X139560000Y-99740000D03*
X139560000Y-97200000D03*
X142100000Y-99740000D03*
G36*
G01*
X141250000Y-96300000D02*
X142950000Y-96300000D01*
G75*
G02*
X143000000Y-96350000I0J-50000D01*
G01*
X143000000Y-98050000D01*
G75*
G02*
X142950000Y-98100000I-50000J0D01*
G01*
X141250000Y-98100000D01*
G75*
G02*
X141200000Y-98050000I0J50000D01*
G01*
X141200000Y-96350000D01*
G75*
G02*
X141250000Y-96300000I50000J0D01*
G01*
G37*
%TD*%
%TO.C,J101*%
X127680000Y-61340000D03*
X127680000Y-63880000D03*
X125140000Y-61340000D03*
X125140000Y-63880000D03*
X122600000Y-61340000D03*
X122600000Y-63880000D03*
X120060000Y-61340000D03*
G36*
G01*
X120910000Y-64780000D02*
X119210000Y-64780000D01*
G75*
G02*
X119160000Y-64730000I0J50000D01*
G01*
X119160000Y-63030000D01*
G75*
G02*
X119210000Y-62980000I50000J0D01*
G01*
X120910000Y-62980000D01*
G75*
G02*
X120960000Y-63030000I0J-50000D01*
G01*
X120960000Y-64730000D01*
G75*
G02*
X120910000Y-64780000I-50000J0D01*
G01*
G37*
%TD*%
%TO.C,U104*%
G36*
G01*
X144925000Y-76140000D02*
X144925000Y-75790000D01*
G75*
G02*
X145100000Y-75615000I175000J0D01*
G01*
X146475000Y-75615000D01*
G75*
G02*
X146650000Y-75790000I0J-175000D01*
G01*
X146650000Y-76140000D01*
G75*
G02*
X146475000Y-76315000I-175000J0D01*
G01*
X145100000Y-76315000D01*
G75*
G02*
X144925000Y-76140000I0J175000D01*
G01*
G37*
G36*
G01*
X144925000Y-77410000D02*
X144925000Y-77060000D01*
G75*
G02*
X145100000Y-76885000I175000J0D01*
G01*
X146475000Y-76885000D01*
G75*
G02*
X146650000Y-77060000I0J-175000D01*
G01*
X146650000Y-77410000D01*
G75*
G02*
X146475000Y-77585000I-175000J0D01*
G01*
X145100000Y-77585000D01*
G75*
G02*
X144925000Y-77410000I0J175000D01*
G01*
G37*
G36*
G01*
X138550000Y-77410000D02*
X138550000Y-77060000D01*
G75*
G02*
X138725000Y-76885000I175000J0D01*
G01*
X140100000Y-76885000D01*
G75*
G02*
X140275000Y-77060000I0J-175000D01*
G01*
X140275000Y-77410000D01*
G75*
G02*
X140100000Y-77585000I-175000J0D01*
G01*
X138725000Y-77585000D01*
G75*
G02*
X138550000Y-77410000I0J175000D01*
G01*
G37*
G36*
G01*
X138550000Y-76140000D02*
X138550000Y-75790000D01*
G75*
G02*
X138725000Y-75615000I175000J0D01*
G01*
X140100000Y-75615000D01*
G75*
G02*
X140275000Y-75790000I0J-175000D01*
G01*
X140275000Y-76140000D01*
G75*
G02*
X140100000Y-76315000I-175000J0D01*
G01*
X138725000Y-76315000D01*
G75*
G02*
X138550000Y-76140000I0J175000D01*
G01*
G37*
%TD*%
%TO.C,R116*%
G36*
G01*
X149275000Y-77750000D02*
X149275000Y-78350000D01*
G75*
G02*
X149050000Y-78575000I-225000J0D01*
G01*
X148600000Y-78575000D01*
G75*
G02*
X148375000Y-78350000I0J225000D01*
G01*
X148375000Y-77750000D01*
G75*
G02*
X148600000Y-77525000I225000J0D01*
G01*
X149050000Y-77525000D01*
G75*
G02*
X149275000Y-77750000I0J-225000D01*
G01*
G37*
G36*
G01*
X150925000Y-77750000D02*
X150925000Y-78350000D01*
G75*
G02*
X150700000Y-78575000I-225000J0D01*
G01*
X150250000Y-78575000D01*
G75*
G02*
X150025000Y-78350000I0J225000D01*
G01*
X150025000Y-77750000D01*
G75*
G02*
X150250000Y-77525000I225000J0D01*
G01*
X150700000Y-77525000D01*
G75*
G02*
X150925000Y-77750000I0J-225000D01*
G01*
G37*
%TD*%
%TO.C,R115*%
G36*
G01*
X149275000Y-76200000D02*
X149275000Y-76800000D01*
G75*
G02*
X149050000Y-77025000I-225000J0D01*
G01*
X148600000Y-77025000D01*
G75*
G02*
X148375000Y-76800000I0J225000D01*
G01*
X148375000Y-76200000D01*
G75*
G02*
X148600000Y-75975000I225000J0D01*
G01*
X149050000Y-75975000D01*
G75*
G02*
X149275000Y-76200000I0J-225000D01*
G01*
G37*
G36*
G01*
X150925000Y-76200000D02*
X150925000Y-76800000D01*
G75*
G02*
X150700000Y-77025000I-225000J0D01*
G01*
X150250000Y-77025000D01*
G75*
G02*
X150025000Y-76800000I0J225000D01*
G01*
X150025000Y-76200000D01*
G75*
G02*
X150250000Y-75975000I225000J0D01*
G01*
X150700000Y-75975000D01*
G75*
G02*
X150925000Y-76200000I0J-225000D01*
G01*
G37*
%TD*%
%TO.C,R114*%
G36*
G01*
X136375000Y-75500000D02*
X136375000Y-76100000D01*
G75*
G02*
X136150000Y-76325000I-225000J0D01*
G01*
X135700000Y-76325000D01*
G75*
G02*
X135475000Y-76100000I0J225000D01*
G01*
X135475000Y-75500000D01*
G75*
G02*
X135700000Y-75275000I225000J0D01*
G01*
X136150000Y-75275000D01*
G75*
G02*
X136375000Y-75500000I0J-225000D01*
G01*
G37*
G36*
G01*
X138025000Y-75500000D02*
X138025000Y-76100000D01*
G75*
G02*
X137800000Y-76325000I-225000J0D01*
G01*
X137350000Y-76325000D01*
G75*
G02*
X137125000Y-76100000I0J225000D01*
G01*
X137125000Y-75500000D01*
G75*
G02*
X137350000Y-75275000I225000J0D01*
G01*
X137800000Y-75275000D01*
G75*
G02*
X138025000Y-75500000I0J-225000D01*
G01*
G37*
%TD*%
%TO.C,R113*%
G36*
G01*
X137125000Y-77650000D02*
X137125000Y-77050000D01*
G75*
G02*
X137350000Y-76825000I225000J0D01*
G01*
X137800000Y-76825000D01*
G75*
G02*
X138025000Y-77050000I0J-225000D01*
G01*
X138025000Y-77650000D01*
G75*
G02*
X137800000Y-77875000I-225000J0D01*
G01*
X137350000Y-77875000D01*
G75*
G02*
X137125000Y-77650000I0J225000D01*
G01*
G37*
G36*
G01*
X135475000Y-77650000D02*
X135475000Y-77050000D01*
G75*
G02*
X135700000Y-76825000I225000J0D01*
G01*
X136150000Y-76825000D01*
G75*
G02*
X136375000Y-77050000I0J-225000D01*
G01*
X136375000Y-77650000D01*
G75*
G02*
X136150000Y-77875000I-225000J0D01*
G01*
X135700000Y-77875000D01*
G75*
G02*
X135475000Y-77650000I0J225000D01*
G01*
G37*
%TD*%
%TO.C,Q104*%
G36*
G01*
X162400000Y-76375000D02*
X151600000Y-76375000D01*
G75*
G02*
X151550000Y-76325000I0J50000D01*
G01*
X151550000Y-66925000D01*
G75*
G02*
X151600000Y-66875000I50000J0D01*
G01*
X162400000Y-66875000D01*
G75*
G02*
X162450000Y-66925000I0J-50000D01*
G01*
X162450000Y-76325000D01*
G75*
G02*
X162400000Y-76375000I-50000J0D01*
G01*
G37*
G36*
G01*
X160090000Y-83125000D02*
X158990000Y-83125000D01*
G75*
G02*
X158940000Y-83075000I0J50000D01*
G01*
X158940000Y-78475000D01*
G75*
G02*
X158990000Y-78425000I50000J0D01*
G01*
X160090000Y-78425000D01*
G75*
G02*
X160140000Y-78475000I0J-50000D01*
G01*
X160140000Y-83075000D01*
G75*
G02*
X160090000Y-83125000I-50000J0D01*
G01*
G37*
G36*
G01*
X155010000Y-83125000D02*
X153910000Y-83125000D01*
G75*
G02*
X153860000Y-83075000I0J50000D01*
G01*
X153860000Y-78475000D01*
G75*
G02*
X153910000Y-78425000I50000J0D01*
G01*
X155010000Y-78425000D01*
G75*
G02*
X155060000Y-78475000I0J-50000D01*
G01*
X155060000Y-83075000D01*
G75*
G02*
X155010000Y-83125000I-50000J0D01*
G01*
G37*
%TD*%
%TO.C,D108*%
G36*
G01*
X170950000Y-62900000D02*
X169850000Y-62900000D01*
G75*
G02*
X169800000Y-62850000I0J50000D01*
G01*
X169800000Y-61750000D01*
G75*
G02*
X169850000Y-61700000I50000J0D01*
G01*
X170950000Y-61700000D01*
G75*
G02*
X171000000Y-61750000I0J-50000D01*
G01*
X171000000Y-62850000D01*
G75*
G02*
X170950000Y-62900000I-50000J0D01*
G01*
G37*
G36*
G01*
X170950000Y-65700000D02*
X169850000Y-65700000D01*
G75*
G02*
X169800000Y-65650000I0J50000D01*
G01*
X169800000Y-64550000D01*
G75*
G02*
X169850000Y-64500000I50000J0D01*
G01*
X170950000Y-64500000D01*
G75*
G02*
X171000000Y-64550000I0J-50000D01*
G01*
X171000000Y-65650000D01*
G75*
G02*
X170950000Y-65700000I-50000J0D01*
G01*
G37*
%TD*%
%TO.C,D107*%
G36*
G01*
X136450000Y-78568750D02*
X136450000Y-79131250D01*
G75*
G02*
X136206250Y-79375000I-243750J0D01*
G01*
X135718750Y-79375000D01*
G75*
G02*
X135475000Y-79131250I0J243750D01*
G01*
X135475000Y-78568750D01*
G75*
G02*
X135718750Y-78325000I243750J0D01*
G01*
X136206250Y-78325000D01*
G75*
G02*
X136450000Y-78568750I0J-243750D01*
G01*
G37*
G36*
G01*
X138025000Y-78568750D02*
X138025000Y-79131250D01*
G75*
G02*
X137781250Y-79375000I-243750J0D01*
G01*
X137293750Y-79375000D01*
G75*
G02*
X137050000Y-79131250I0J243750D01*
G01*
X137050000Y-78568750D01*
G75*
G02*
X137293750Y-78325000I243750J0D01*
G01*
X137781250Y-78325000D01*
G75*
G02*
X138025000Y-78568750I0J-243750D01*
G01*
G37*
%TD*%
%TO.C,U103*%
G36*
G01*
X144925000Y-80740000D02*
X144925000Y-80390000D01*
G75*
G02*
X145100000Y-80215000I175000J0D01*
G01*
X146475000Y-80215000D01*
G75*
G02*
X146650000Y-80390000I0J-175000D01*
G01*
X146650000Y-80740000D01*
G75*
G02*
X146475000Y-80915000I-175000J0D01*
G01*
X145100000Y-80915000D01*
G75*
G02*
X144925000Y-80740000I0J175000D01*
G01*
G37*
G36*
G01*
X144925000Y-82010000D02*
X144925000Y-81660000D01*
G75*
G02*
X145100000Y-81485000I175000J0D01*
G01*
X146475000Y-81485000D01*
G75*
G02*
X146650000Y-81660000I0J-175000D01*
G01*
X146650000Y-82010000D01*
G75*
G02*
X146475000Y-82185000I-175000J0D01*
G01*
X145100000Y-82185000D01*
G75*
G02*
X144925000Y-82010000I0J175000D01*
G01*
G37*
G36*
G01*
X138550000Y-82010000D02*
X138550000Y-81660000D01*
G75*
G02*
X138725000Y-81485000I175000J0D01*
G01*
X140100000Y-81485000D01*
G75*
G02*
X140275000Y-81660000I0J-175000D01*
G01*
X140275000Y-82010000D01*
G75*
G02*
X140100000Y-82185000I-175000J0D01*
G01*
X138725000Y-82185000D01*
G75*
G02*
X138550000Y-82010000I0J175000D01*
G01*
G37*
G36*
G01*
X138550000Y-80740000D02*
X138550000Y-80390000D01*
G75*
G02*
X138725000Y-80215000I175000J0D01*
G01*
X140100000Y-80215000D01*
G75*
G02*
X140275000Y-80390000I0J-175000D01*
G01*
X140275000Y-80740000D01*
G75*
G02*
X140100000Y-80915000I-175000J0D01*
G01*
X138725000Y-80915000D01*
G75*
G02*
X138550000Y-80740000I0J175000D01*
G01*
G37*
%TD*%
%TO.C,R112*%
G36*
G01*
X155775000Y-103700000D02*
X155775000Y-103100000D01*
G75*
G02*
X156000000Y-102875000I225000J0D01*
G01*
X156450000Y-102875000D01*
G75*
G02*
X156675000Y-103100000I0J-225000D01*
G01*
X156675000Y-103700000D01*
G75*
G02*
X156450000Y-103925000I-225000J0D01*
G01*
X156000000Y-103925000D01*
G75*
G02*
X155775000Y-103700000I0J225000D01*
G01*
G37*
G36*
G01*
X154125000Y-103700000D02*
X154125000Y-103100000D01*
G75*
G02*
X154350000Y-102875000I225000J0D01*
G01*
X154800000Y-102875000D01*
G75*
G02*
X155025000Y-103100000I0J-225000D01*
G01*
X155025000Y-103700000D01*
G75*
G02*
X154800000Y-103925000I-225000J0D01*
G01*
X154350000Y-103925000D01*
G75*
G02*
X154125000Y-103700000I0J225000D01*
G01*
G37*
%TD*%
%TO.C,R111*%
G36*
G01*
X158225000Y-103100000D02*
X158225000Y-103700000D01*
G75*
G02*
X158000000Y-103925000I-225000J0D01*
G01*
X157550000Y-103925000D01*
G75*
G02*
X157325000Y-103700000I0J225000D01*
G01*
X157325000Y-103100000D01*
G75*
G02*
X157550000Y-102875000I225000J0D01*
G01*
X158000000Y-102875000D01*
G75*
G02*
X158225000Y-103100000I0J-225000D01*
G01*
G37*
G36*
G01*
X159875000Y-103100000D02*
X159875000Y-103700000D01*
G75*
G02*
X159650000Y-103925000I-225000J0D01*
G01*
X159200000Y-103925000D01*
G75*
G02*
X158975000Y-103700000I0J225000D01*
G01*
X158975000Y-103100000D01*
G75*
G02*
X159200000Y-102875000I225000J0D01*
G01*
X159650000Y-102875000D01*
G75*
G02*
X159875000Y-103100000I0J-225000D01*
G01*
G37*
%TD*%
%TO.C,R110*%
G36*
G01*
X136425000Y-80100000D02*
X136425000Y-80700000D01*
G75*
G02*
X136200000Y-80925000I-225000J0D01*
G01*
X135750000Y-80925000D01*
G75*
G02*
X135525000Y-80700000I0J225000D01*
G01*
X135525000Y-80100000D01*
G75*
G02*
X135750000Y-79875000I225000J0D01*
G01*
X136200000Y-79875000D01*
G75*
G02*
X136425000Y-80100000I0J-225000D01*
G01*
G37*
G36*
G01*
X138075000Y-80100000D02*
X138075000Y-80700000D01*
G75*
G02*
X137850000Y-80925000I-225000J0D01*
G01*
X137400000Y-80925000D01*
G75*
G02*
X137175000Y-80700000I0J225000D01*
G01*
X137175000Y-80100000D01*
G75*
G02*
X137400000Y-79875000I225000J0D01*
G01*
X137850000Y-79875000D01*
G75*
G02*
X138075000Y-80100000I0J-225000D01*
G01*
G37*
%TD*%
%TO.C,R109*%
G36*
G01*
X137175000Y-82250000D02*
X137175000Y-81650000D01*
G75*
G02*
X137400000Y-81425000I225000J0D01*
G01*
X137850000Y-81425000D01*
G75*
G02*
X138075000Y-81650000I0J-225000D01*
G01*
X138075000Y-82250000D01*
G75*
G02*
X137850000Y-82475000I-225000J0D01*
G01*
X137400000Y-82475000D01*
G75*
G02*
X137175000Y-82250000I0J225000D01*
G01*
G37*
G36*
G01*
X135525000Y-82250000D02*
X135525000Y-81650000D01*
G75*
G02*
X135750000Y-81425000I225000J0D01*
G01*
X136200000Y-81425000D01*
G75*
G02*
X136425000Y-81650000I0J-225000D01*
G01*
X136425000Y-82250000D01*
G75*
G02*
X136200000Y-82475000I-225000J0D01*
G01*
X135750000Y-82475000D01*
G75*
G02*
X135525000Y-82250000I0J225000D01*
G01*
G37*
%TD*%
%TO.C,Q103*%
G36*
G01*
X162400000Y-95550000D02*
X151600000Y-95550000D01*
G75*
G02*
X151550000Y-95500000I0J50000D01*
G01*
X151550000Y-86100000D01*
G75*
G02*
X151600000Y-86050000I50000J0D01*
G01*
X162400000Y-86050000D01*
G75*
G02*
X162450000Y-86100000I0J-50000D01*
G01*
X162450000Y-95500000D01*
G75*
G02*
X162400000Y-95550000I-50000J0D01*
G01*
G37*
G36*
G01*
X160090000Y-102300000D02*
X158990000Y-102300000D01*
G75*
G02*
X158940000Y-102250000I0J50000D01*
G01*
X158940000Y-97650000D01*
G75*
G02*
X158990000Y-97600000I50000J0D01*
G01*
X160090000Y-97600000D01*
G75*
G02*
X160140000Y-97650000I0J-50000D01*
G01*
X160140000Y-102250000D01*
G75*
G02*
X160090000Y-102300000I-50000J0D01*
G01*
G37*
G36*
G01*
X155010000Y-102300000D02*
X153910000Y-102300000D01*
G75*
G02*
X153860000Y-102250000I0J50000D01*
G01*
X153860000Y-97650000D01*
G75*
G02*
X153910000Y-97600000I50000J0D01*
G01*
X155010000Y-97600000D01*
G75*
G02*
X155060000Y-97650000I0J-50000D01*
G01*
X155060000Y-102250000D01*
G75*
G02*
X155010000Y-102300000I-50000J0D01*
G01*
G37*
%TD*%
%TO.C,D106*%
G36*
G01*
X159600000Y-84050000D02*
X159600000Y-85150000D01*
G75*
G02*
X159550000Y-85200000I-50000J0D01*
G01*
X158450000Y-85200000D01*
G75*
G02*
X158400000Y-85150000I0J50000D01*
G01*
X158400000Y-84050000D01*
G75*
G02*
X158450000Y-84000000I50000J0D01*
G01*
X159550000Y-84000000D01*
G75*
G02*
X159600000Y-84050000I0J-50000D01*
G01*
G37*
G36*
G01*
X162400000Y-84050000D02*
X162400000Y-85150000D01*
G75*
G02*
X162350000Y-85200000I-50000J0D01*
G01*
X161250000Y-85200000D01*
G75*
G02*
X161200000Y-85150000I0J50000D01*
G01*
X161200000Y-84050000D01*
G75*
G02*
X161250000Y-84000000I50000J0D01*
G01*
X162350000Y-84000000D01*
G75*
G02*
X162400000Y-84050000I0J-50000D01*
G01*
G37*
%TD*%
%TO.C,D105*%
G36*
G01*
X136500000Y-83218750D02*
X136500000Y-83781250D01*
G75*
G02*
X136256250Y-84025000I-243750J0D01*
G01*
X135768750Y-84025000D01*
G75*
G02*
X135525000Y-83781250I0J243750D01*
G01*
X135525000Y-83218750D01*
G75*
G02*
X135768750Y-82975000I243750J0D01*
G01*
X136256250Y-82975000D01*
G75*
G02*
X136500000Y-83218750I0J-243750D01*
G01*
G37*
G36*
G01*
X138075000Y-83218750D02*
X138075000Y-83781250D01*
G75*
G02*
X137831250Y-84025000I-243750J0D01*
G01*
X137343750Y-84025000D01*
G75*
G02*
X137100000Y-83781250I0J243750D01*
G01*
X137100000Y-83218750D01*
G75*
G02*
X137343750Y-82975000I243750J0D01*
G01*
X137831250Y-82975000D01*
G75*
G02*
X138075000Y-83218750I0J-243750D01*
G01*
G37*
%TD*%
%TO.C,U102*%
G36*
G01*
X123275000Y-96060000D02*
X123275000Y-96410000D01*
G75*
G02*
X123100000Y-96585000I-175000J0D01*
G01*
X121725000Y-96585000D01*
G75*
G02*
X121550000Y-96410000I0J175000D01*
G01*
X121550000Y-96060000D01*
G75*
G02*
X121725000Y-95885000I175000J0D01*
G01*
X123100000Y-95885000D01*
G75*
G02*
X123275000Y-96060000I0J-175000D01*
G01*
G37*
G36*
G01*
X123275000Y-94790000D02*
X123275000Y-95140000D01*
G75*
G02*
X123100000Y-95315000I-175000J0D01*
G01*
X121725000Y-95315000D01*
G75*
G02*
X121550000Y-95140000I0J175000D01*
G01*
X121550000Y-94790000D01*
G75*
G02*
X121725000Y-94615000I175000J0D01*
G01*
X123100000Y-94615000D01*
G75*
G02*
X123275000Y-94790000I0J-175000D01*
G01*
G37*
G36*
G01*
X129650000Y-94790000D02*
X129650000Y-95140000D01*
G75*
G02*
X129475000Y-95315000I-175000J0D01*
G01*
X128100000Y-95315000D01*
G75*
G02*
X127925000Y-95140000I0J175000D01*
G01*
X127925000Y-94790000D01*
G75*
G02*
X128100000Y-94615000I175000J0D01*
G01*
X129475000Y-94615000D01*
G75*
G02*
X129650000Y-94790000I0J-175000D01*
G01*
G37*
G36*
G01*
X129650000Y-96060000D02*
X129650000Y-96410000D01*
G75*
G02*
X129475000Y-96585000I-175000J0D01*
G01*
X128100000Y-96585000D01*
G75*
G02*
X127925000Y-96410000I0J175000D01*
G01*
X127925000Y-96060000D01*
G75*
G02*
X128100000Y-95885000I175000J0D01*
G01*
X129475000Y-95885000D01*
G75*
G02*
X129650000Y-96060000I0J-175000D01*
G01*
G37*
%TD*%
%TO.C,R108*%
G36*
G01*
X118675000Y-94500000D02*
X118675000Y-93900000D01*
G75*
G02*
X118900000Y-93675000I225000J0D01*
G01*
X119350000Y-93675000D01*
G75*
G02*
X119575000Y-93900000I0J-225000D01*
G01*
X119575000Y-94500000D01*
G75*
G02*
X119350000Y-94725000I-225000J0D01*
G01*
X118900000Y-94725000D01*
G75*
G02*
X118675000Y-94500000I0J225000D01*
G01*
G37*
G36*
G01*
X117025000Y-94500000D02*
X117025000Y-93900000D01*
G75*
G02*
X117250000Y-93675000I225000J0D01*
G01*
X117700000Y-93675000D01*
G75*
G02*
X117925000Y-93900000I0J-225000D01*
G01*
X117925000Y-94500000D01*
G75*
G02*
X117700000Y-94725000I-225000J0D01*
G01*
X117250000Y-94725000D01*
G75*
G02*
X117025000Y-94500000I0J225000D01*
G01*
G37*
%TD*%
%TO.C,R107*%
G36*
G01*
X118675000Y-96100000D02*
X118675000Y-95500000D01*
G75*
G02*
X118900000Y-95275000I225000J0D01*
G01*
X119350000Y-95275000D01*
G75*
G02*
X119575000Y-95500000I0J-225000D01*
G01*
X119575000Y-96100000D01*
G75*
G02*
X119350000Y-96325000I-225000J0D01*
G01*
X118900000Y-96325000D01*
G75*
G02*
X118675000Y-96100000I0J225000D01*
G01*
G37*
G36*
G01*
X117025000Y-96100000D02*
X117025000Y-95500000D01*
G75*
G02*
X117250000Y-95275000I225000J0D01*
G01*
X117700000Y-95275000D01*
G75*
G02*
X117925000Y-95500000I0J-225000D01*
G01*
X117925000Y-96100000D01*
G75*
G02*
X117700000Y-96325000I-225000J0D01*
G01*
X117250000Y-96325000D01*
G75*
G02*
X117025000Y-96100000I0J225000D01*
G01*
G37*
%TD*%
%TO.C,R106*%
G36*
G01*
X132175000Y-96700000D02*
X132175000Y-96100000D01*
G75*
G02*
X132400000Y-95875000I225000J0D01*
G01*
X132850000Y-95875000D01*
G75*
G02*
X133075000Y-96100000I0J-225000D01*
G01*
X133075000Y-96700000D01*
G75*
G02*
X132850000Y-96925000I-225000J0D01*
G01*
X132400000Y-96925000D01*
G75*
G02*
X132175000Y-96700000I0J225000D01*
G01*
G37*
G36*
G01*
X130525000Y-96700000D02*
X130525000Y-96100000D01*
G75*
G02*
X130750000Y-95875000I225000J0D01*
G01*
X131200000Y-95875000D01*
G75*
G02*
X131425000Y-96100000I0J-225000D01*
G01*
X131425000Y-96700000D01*
G75*
G02*
X131200000Y-96925000I-225000J0D01*
G01*
X130750000Y-96925000D01*
G75*
G02*
X130525000Y-96700000I0J225000D01*
G01*
G37*
%TD*%
%TO.C,R105*%
G36*
G01*
X131425000Y-94500000D02*
X131425000Y-95100000D01*
G75*
G02*
X131200000Y-95325000I-225000J0D01*
G01*
X130750000Y-95325000D01*
G75*
G02*
X130525000Y-95100000I0J225000D01*
G01*
X130525000Y-94500000D01*
G75*
G02*
X130750000Y-94275000I225000J0D01*
G01*
X131200000Y-94275000D01*
G75*
G02*
X131425000Y-94500000I0J-225000D01*
G01*
G37*
G36*
G01*
X133075000Y-94500000D02*
X133075000Y-95100000D01*
G75*
G02*
X132850000Y-95325000I-225000J0D01*
G01*
X132400000Y-95325000D01*
G75*
G02*
X132175000Y-95100000I0J225000D01*
G01*
X132175000Y-94500000D01*
G75*
G02*
X132400000Y-94275000I225000J0D01*
G01*
X132850000Y-94275000D01*
G75*
G02*
X133075000Y-94500000I0J-225000D01*
G01*
G37*
%TD*%
%TO.C,Q102*%
G36*
G01*
X105598000Y-95825000D02*
X116398000Y-95825000D01*
G75*
G02*
X116448000Y-95875000I0J-50000D01*
G01*
X116448000Y-105275000D01*
G75*
G02*
X116398000Y-105325000I-50000J0D01*
G01*
X105598000Y-105325000D01*
G75*
G02*
X105548000Y-105275000I0J50000D01*
G01*
X105548000Y-95875000D01*
G75*
G02*
X105598000Y-95825000I50000J0D01*
G01*
G37*
G36*
G01*
X107908000Y-89075000D02*
X109008000Y-89075000D01*
G75*
G02*
X109058000Y-89125000I0J-50000D01*
G01*
X109058000Y-93725000D01*
G75*
G02*
X109008000Y-93775000I-50000J0D01*
G01*
X107908000Y-93775000D01*
G75*
G02*
X107858000Y-93725000I0J50000D01*
G01*
X107858000Y-89125000D01*
G75*
G02*
X107908000Y-89075000I50000J0D01*
G01*
G37*
G36*
G01*
X112988000Y-89075000D02*
X114088000Y-89075000D01*
G75*
G02*
X114138000Y-89125000I0J-50000D01*
G01*
X114138000Y-93725000D01*
G75*
G02*
X114088000Y-93775000I-50000J0D01*
G01*
X112988000Y-93775000D01*
G75*
G02*
X112938000Y-93725000I0J50000D01*
G01*
X112938000Y-89125000D01*
G75*
G02*
X112988000Y-89075000I50000J0D01*
G01*
G37*
%TD*%
%TO.C,D104*%
G36*
G01*
X97250000Y-109000000D02*
X98350000Y-109000000D01*
G75*
G02*
X98400000Y-109050000I0J-50000D01*
G01*
X98400000Y-110150000D01*
G75*
G02*
X98350000Y-110200000I-50000J0D01*
G01*
X97250000Y-110200000D01*
G75*
G02*
X97200000Y-110150000I0J50000D01*
G01*
X97200000Y-109050000D01*
G75*
G02*
X97250000Y-109000000I50000J0D01*
G01*
G37*
G36*
G01*
X97250000Y-106200000D02*
X98350000Y-106200000D01*
G75*
G02*
X98400000Y-106250000I0J-50000D01*
G01*
X98400000Y-107350000D01*
G75*
G02*
X98350000Y-107400000I-50000J0D01*
G01*
X97250000Y-107400000D01*
G75*
G02*
X97200000Y-107350000I0J50000D01*
G01*
X97200000Y-106250000D01*
G75*
G02*
X97250000Y-106200000I50000J0D01*
G01*
G37*
%TD*%
%TO.C,D103*%
G36*
G01*
X132100000Y-93481250D02*
X132100000Y-92918750D01*
G75*
G02*
X132343750Y-92675000I243750J0D01*
G01*
X132831250Y-92675000D01*
G75*
G02*
X133075000Y-92918750I0J-243750D01*
G01*
X133075000Y-93481250D01*
G75*
G02*
X132831250Y-93725000I-243750J0D01*
G01*
X132343750Y-93725000D01*
G75*
G02*
X132100000Y-93481250I0J243750D01*
G01*
G37*
G36*
G01*
X130525000Y-93481250D02*
X130525000Y-92918750D01*
G75*
G02*
X130768750Y-92675000I243750J0D01*
G01*
X131256250Y-92675000D01*
G75*
G02*
X131500000Y-92918750I0J-243750D01*
G01*
X131500000Y-93481250D01*
G75*
G02*
X131256250Y-93725000I-243750J0D01*
G01*
X130768750Y-93725000D01*
G75*
G02*
X130525000Y-93481250I0J243750D01*
G01*
G37*
%TD*%
%TO.C,U101*%
G36*
G01*
X123275000Y-91260000D02*
X123275000Y-91610000D01*
G75*
G02*
X123100000Y-91785000I-175000J0D01*
G01*
X121725000Y-91785000D01*
G75*
G02*
X121550000Y-91610000I0J175000D01*
G01*
X121550000Y-91260000D01*
G75*
G02*
X121725000Y-91085000I175000J0D01*
G01*
X123100000Y-91085000D01*
G75*
G02*
X123275000Y-91260000I0J-175000D01*
G01*
G37*
G36*
G01*
X123275000Y-89990000D02*
X123275000Y-90340000D01*
G75*
G02*
X123100000Y-90515000I-175000J0D01*
G01*
X121725000Y-90515000D01*
G75*
G02*
X121550000Y-90340000I0J175000D01*
G01*
X121550000Y-89990000D01*
G75*
G02*
X121725000Y-89815000I175000J0D01*
G01*
X123100000Y-89815000D01*
G75*
G02*
X123275000Y-89990000I0J-175000D01*
G01*
G37*
G36*
G01*
X129650000Y-89990000D02*
X129650000Y-90340000D01*
G75*
G02*
X129475000Y-90515000I-175000J0D01*
G01*
X128100000Y-90515000D01*
G75*
G02*
X127925000Y-90340000I0J175000D01*
G01*
X127925000Y-89990000D01*
G75*
G02*
X128100000Y-89815000I175000J0D01*
G01*
X129475000Y-89815000D01*
G75*
G02*
X129650000Y-89990000I0J-175000D01*
G01*
G37*
G36*
G01*
X129650000Y-91260000D02*
X129650000Y-91610000D01*
G75*
G02*
X129475000Y-91785000I-175000J0D01*
G01*
X128100000Y-91785000D01*
G75*
G02*
X127925000Y-91610000I0J175000D01*
G01*
X127925000Y-91260000D01*
G75*
G02*
X128100000Y-91085000I175000J0D01*
G01*
X129475000Y-91085000D01*
G75*
G02*
X129650000Y-91260000I0J-175000D01*
G01*
G37*
%TD*%
%TO.C,R104*%
G36*
G01*
X112225000Y-67700000D02*
X112225000Y-68300000D01*
G75*
G02*
X112000000Y-68525000I-225000J0D01*
G01*
X111550000Y-68525000D01*
G75*
G02*
X111325000Y-68300000I0J225000D01*
G01*
X111325000Y-67700000D01*
G75*
G02*
X111550000Y-67475000I225000J0D01*
G01*
X112000000Y-67475000D01*
G75*
G02*
X112225000Y-67700000I0J-225000D01*
G01*
G37*
G36*
G01*
X113875000Y-67700000D02*
X113875000Y-68300000D01*
G75*
G02*
X113650000Y-68525000I-225000J0D01*
G01*
X113200000Y-68525000D01*
G75*
G02*
X112975000Y-68300000I0J225000D01*
G01*
X112975000Y-67700000D01*
G75*
G02*
X113200000Y-67475000I225000J0D01*
G01*
X113650000Y-67475000D01*
G75*
G02*
X113875000Y-67700000I0J-225000D01*
G01*
G37*
%TD*%
%TO.C,R103*%
G36*
G01*
X109575000Y-68300000D02*
X109575000Y-67700000D01*
G75*
G02*
X109800000Y-67475000I225000J0D01*
G01*
X110250000Y-67475000D01*
G75*
G02*
X110475000Y-67700000I0J-225000D01*
G01*
X110475000Y-68300000D01*
G75*
G02*
X110250000Y-68525000I-225000J0D01*
G01*
X109800000Y-68525000D01*
G75*
G02*
X109575000Y-68300000I0J225000D01*
G01*
G37*
G36*
G01*
X107925000Y-68300000D02*
X107925000Y-67700000D01*
G75*
G02*
X108150000Y-67475000I225000J0D01*
G01*
X108600000Y-67475000D01*
G75*
G02*
X108825000Y-67700000I0J-225000D01*
G01*
X108825000Y-68300000D01*
G75*
G02*
X108600000Y-68525000I-225000J0D01*
G01*
X108150000Y-68525000D01*
G75*
G02*
X107925000Y-68300000I0J225000D01*
G01*
G37*
%TD*%
%TO.C,R102*%
G36*
G01*
X132175000Y-91900000D02*
X132175000Y-91300000D01*
G75*
G02*
X132400000Y-91075000I225000J0D01*
G01*
X132850000Y-91075000D01*
G75*
G02*
X133075000Y-91300000I0J-225000D01*
G01*
X133075000Y-91900000D01*
G75*
G02*
X132850000Y-92125000I-225000J0D01*
G01*
X132400000Y-92125000D01*
G75*
G02*
X132175000Y-91900000I0J225000D01*
G01*
G37*
G36*
G01*
X130525000Y-91900000D02*
X130525000Y-91300000D01*
G75*
G02*
X130750000Y-91075000I225000J0D01*
G01*
X131200000Y-91075000D01*
G75*
G02*
X131425000Y-91300000I0J-225000D01*
G01*
X131425000Y-91900000D01*
G75*
G02*
X131200000Y-92125000I-225000J0D01*
G01*
X130750000Y-92125000D01*
G75*
G02*
X130525000Y-91900000I0J225000D01*
G01*
G37*
%TD*%
%TO.C,Q101*%
G36*
G01*
X105598000Y-75841000D02*
X116398000Y-75841000D01*
G75*
G02*
X116448000Y-75891000I0J-50000D01*
G01*
X116448000Y-85291000D01*
G75*
G02*
X116398000Y-85341000I-50000J0D01*
G01*
X105598000Y-85341000D01*
G75*
G02*
X105548000Y-85291000I0J50000D01*
G01*
X105548000Y-75891000D01*
G75*
G02*
X105598000Y-75841000I50000J0D01*
G01*
G37*
G36*
G01*
X107908000Y-69091000D02*
X109008000Y-69091000D01*
G75*
G02*
X109058000Y-69141000I0J-50000D01*
G01*
X109058000Y-73741000D01*
G75*
G02*
X109008000Y-73791000I-50000J0D01*
G01*
X107908000Y-73791000D01*
G75*
G02*
X107858000Y-73741000I0J50000D01*
G01*
X107858000Y-69141000D01*
G75*
G02*
X107908000Y-69091000I50000J0D01*
G01*
G37*
G36*
G01*
X112988000Y-69091000D02*
X114088000Y-69091000D01*
G75*
G02*
X114138000Y-69141000I0J-50000D01*
G01*
X114138000Y-73741000D01*
G75*
G02*
X114088000Y-73791000I-50000J0D01*
G01*
X112988000Y-73791000D01*
G75*
G02*
X112938000Y-73741000I0J50000D01*
G01*
X112938000Y-69141000D01*
G75*
G02*
X112988000Y-69091000I50000J0D01*
G01*
G37*
%TD*%
%TO.C,D102*%
G36*
G01*
X108300000Y-87650000D02*
X108300000Y-86550000D01*
G75*
G02*
X108350000Y-86500000I50000J0D01*
G01*
X109450000Y-86500000D01*
G75*
G02*
X109500000Y-86550000I0J-50000D01*
G01*
X109500000Y-87650000D01*
G75*
G02*
X109450000Y-87700000I-50000J0D01*
G01*
X108350000Y-87700000D01*
G75*
G02*
X108300000Y-87650000I0J50000D01*
G01*
G37*
G36*
G01*
X105500000Y-87650000D02*
X105500000Y-86550000D01*
G75*
G02*
X105550000Y-86500000I50000J0D01*
G01*
X106650000Y-86500000D01*
G75*
G02*
X106700000Y-86550000I0J-50000D01*
G01*
X106700000Y-87650000D01*
G75*
G02*
X106650000Y-87700000I-50000J0D01*
G01*
X105550000Y-87700000D01*
G75*
G02*
X105500000Y-87650000I0J50000D01*
G01*
G37*
%TD*%
%TO.C,D101*%
G36*
G01*
X132100000Y-88681250D02*
X132100000Y-88118750D01*
G75*
G02*
X132343750Y-87875000I243750J0D01*
G01*
X132831250Y-87875000D01*
G75*
G02*
X133075000Y-88118750I0J-243750D01*
G01*
X133075000Y-88681250D01*
G75*
G02*
X132831250Y-88925000I-243750J0D01*
G01*
X132343750Y-88925000D01*
G75*
G02*
X132100000Y-88681250I0J243750D01*
G01*
G37*
G36*
G01*
X130525000Y-88681250D02*
X130525000Y-88118750D01*
G75*
G02*
X130768750Y-87875000I243750J0D01*
G01*
X131256250Y-87875000D01*
G75*
G02*
X131500000Y-88118750I0J-243750D01*
G01*
X131500000Y-88681250D01*
G75*
G02*
X131256250Y-88925000I-243750J0D01*
G01*
X130768750Y-88925000D01*
G75*
G02*
X130525000Y-88681250I0J243750D01*
G01*
G37*
%TD*%
D15*
%TO.C,H1002*%
X156250000Y-109000000D03*
%TD*%
%TO.C,H1001*%
X111750000Y-63000000D03*
%TD*%
M02*
