%TF.GenerationSoftware,KiCad,Pcbnew,(5.1.8-0-10_14)*%
%TF.CreationDate,2020-11-30T14:10:51+01:00*%
%TF.ProjectId,FET_Multi,4645545f-4d75-46c7-9469-2e6b69636164,0.2.0*%
%TF.SameCoordinates,Original*%
%TF.FileFunction,Legend,Top*%
%TF.FilePolarity,Positive*%
%FSLAX46Y46*%
G04 Gerber Fmt 4.6, Leading zero omitted, Abs format (unit mm)*
G04 Created by KiCad (PCBNEW (5.1.8-0-10_14)) date 2020-11-30 14:10:51*
%MOMM*%
%LPD*%
G01*
G04 APERTURE LIST*
%ADD10C,0.160000*%
%ADD11C,0.120000*%
%TA.AperFunction,Profile*%
%ADD12C,0.050000*%
%TD*%
%ADD13C,0.150000*%
G04 APERTURE END LIST*
D10*
X161552380Y-82271428D02*
X162552380Y-81938095D01*
X161552380Y-81604761D01*
X162552380Y-81271428D02*
X161552380Y-81271428D01*
X162552380Y-80795238D02*
X161552380Y-80795238D01*
X162552380Y-80223809D01*
X161552380Y-80223809D01*
X161885714Y-79319047D02*
X162552380Y-79319047D01*
X161504761Y-79557142D02*
X162219047Y-79795238D01*
X162219047Y-79176190D01*
X161552380Y-100971428D02*
X162552380Y-100638095D01*
X161552380Y-100304761D01*
X162552380Y-99971428D02*
X161552380Y-99971428D01*
X162552380Y-99495238D02*
X161552380Y-99495238D01*
X162552380Y-98923809D01*
X161552380Y-98923809D01*
X161552380Y-98542857D02*
X161552380Y-97923809D01*
X161933333Y-98257142D01*
X161933333Y-98114285D01*
X161980952Y-98019047D01*
X162028571Y-97971428D01*
X162123809Y-97923809D01*
X162361904Y-97923809D01*
X162457142Y-97971428D01*
X162504761Y-98019047D01*
X162552380Y-98114285D01*
X162552380Y-98400000D01*
X162504761Y-98495238D01*
X162457142Y-98542857D01*
X106447619Y-89228571D02*
X105447619Y-89561904D01*
X106447619Y-89895238D01*
X105447619Y-90228571D02*
X106447619Y-90228571D01*
X105447619Y-90704761D02*
X106447619Y-90704761D01*
X105447619Y-91276190D01*
X106447619Y-91276190D01*
X106352380Y-91704761D02*
X106400000Y-91752380D01*
X106447619Y-91847619D01*
X106447619Y-92085714D01*
X106400000Y-92180952D01*
X106352380Y-92228571D01*
X106257142Y-92276190D01*
X106161904Y-92276190D01*
X106019047Y-92228571D01*
X105447619Y-91657142D01*
X105447619Y-92276190D01*
X106447619Y-70128571D02*
X105447619Y-70461904D01*
X106447619Y-70795238D01*
X105447619Y-71128571D02*
X106447619Y-71128571D01*
X105447619Y-71604761D02*
X106447619Y-71604761D01*
X105447619Y-72176190D01*
X106447619Y-72176190D01*
X105447619Y-73176190D02*
X105447619Y-72604761D01*
X105447619Y-72890476D02*
X106447619Y-72890476D01*
X106304761Y-72795238D01*
X106209523Y-72700000D01*
X106161904Y-72604761D01*
X105238095Y-105900000D02*
X105142857Y-105852380D01*
X105000000Y-105852380D01*
X104857142Y-105900000D01*
X104761904Y-105995238D01*
X104714285Y-106090476D01*
X104666666Y-106280952D01*
X104666666Y-106423809D01*
X104714285Y-106614285D01*
X104761904Y-106709523D01*
X104857142Y-106804761D01*
X105000000Y-106852380D01*
X105095238Y-106852380D01*
X105238095Y-106804761D01*
X105285714Y-106757142D01*
X105285714Y-106423809D01*
X105095238Y-106423809D01*
X105714285Y-106852380D02*
X105714285Y-105852380D01*
X106285714Y-106852380D01*
X106285714Y-105852380D01*
X106761904Y-106852380D02*
X106761904Y-105852380D01*
X107000000Y-105852380D01*
X107142857Y-105900000D01*
X107238095Y-105995238D01*
X107285714Y-106090476D01*
X107333333Y-106280952D01*
X107333333Y-106423809D01*
X107285714Y-106614285D01*
X107238095Y-106709523D01*
X107142857Y-106804761D01*
X107000000Y-106852380D01*
X106761904Y-106852380D01*
X101438095Y-105900000D02*
X101342857Y-105852380D01*
X101200000Y-105852380D01*
X101057142Y-105900000D01*
X100961904Y-105995238D01*
X100914285Y-106090476D01*
X100866666Y-106280952D01*
X100866666Y-106423809D01*
X100914285Y-106614285D01*
X100961904Y-106709523D01*
X101057142Y-106804761D01*
X101200000Y-106852380D01*
X101295238Y-106852380D01*
X101438095Y-106804761D01*
X101485714Y-106757142D01*
X101485714Y-106423809D01*
X101295238Y-106423809D01*
X101914285Y-106852380D02*
X101914285Y-105852380D01*
X102485714Y-106852380D01*
X102485714Y-105852380D01*
X102961904Y-106852380D02*
X102961904Y-105852380D01*
X103200000Y-105852380D01*
X103342857Y-105900000D01*
X103438095Y-105995238D01*
X103485714Y-106090476D01*
X103533333Y-106280952D01*
X103533333Y-106423809D01*
X103485714Y-106614285D01*
X103438095Y-106709523D01*
X103342857Y-106804761D01*
X103200000Y-106852380D01*
X102961904Y-106852380D01*
X165338095Y-65100000D02*
X165242857Y-65052380D01*
X165100000Y-65052380D01*
X164957142Y-65100000D01*
X164861904Y-65195238D01*
X164814285Y-65290476D01*
X164766666Y-65480952D01*
X164766666Y-65623809D01*
X164814285Y-65814285D01*
X164861904Y-65909523D01*
X164957142Y-66004761D01*
X165100000Y-66052380D01*
X165195238Y-66052380D01*
X165338095Y-66004761D01*
X165385714Y-65957142D01*
X165385714Y-65623809D01*
X165195238Y-65623809D01*
X165814285Y-66052380D02*
X165814285Y-65052380D01*
X166385714Y-66052380D01*
X166385714Y-65052380D01*
X166861904Y-66052380D02*
X166861904Y-65052380D01*
X167100000Y-65052380D01*
X167242857Y-65100000D01*
X167338095Y-65195238D01*
X167385714Y-65290476D01*
X167433333Y-65480952D01*
X167433333Y-65623809D01*
X167385714Y-65814285D01*
X167338095Y-65909523D01*
X167242857Y-66004761D01*
X167100000Y-66052380D01*
X166861904Y-66052380D01*
X161438095Y-65100000D02*
X161342857Y-65052380D01*
X161200000Y-65052380D01*
X161057142Y-65100000D01*
X160961904Y-65195238D01*
X160914285Y-65290476D01*
X160866666Y-65480952D01*
X160866666Y-65623809D01*
X160914285Y-65814285D01*
X160961904Y-65909523D01*
X161057142Y-66004761D01*
X161200000Y-66052380D01*
X161295238Y-66052380D01*
X161438095Y-66004761D01*
X161485714Y-65957142D01*
X161485714Y-65623809D01*
X161295238Y-65623809D01*
X161914285Y-66052380D02*
X161914285Y-65052380D01*
X162485714Y-66052380D01*
X162485714Y-65052380D01*
X162961904Y-66052380D02*
X162961904Y-65052380D01*
X163200000Y-65052380D01*
X163342857Y-65100000D01*
X163438095Y-65195238D01*
X163485714Y-65290476D01*
X163533333Y-65480952D01*
X163533333Y-65623809D01*
X163485714Y-65814285D01*
X163438095Y-65909523D01*
X163342857Y-66004761D01*
X163200000Y-66052380D01*
X162961904Y-66052380D01*
D11*
X150000000Y-113000000D02*
X148000000Y-115000000D01*
X150000000Y-111000000D02*
X147000000Y-114000000D01*
X150000000Y-109000000D02*
X147000000Y-112000000D01*
X150000000Y-107000000D02*
X147000000Y-110000000D01*
X150000000Y-105000000D02*
X147000000Y-108000000D01*
D10*
X136185714Y-94866666D02*
X136661904Y-94866666D01*
X136090476Y-95152380D02*
X136423809Y-94152380D01*
X136757142Y-95152380D01*
X137042857Y-94247619D02*
X137090476Y-94200000D01*
X137185714Y-94152380D01*
X137423809Y-94152380D01*
X137519047Y-94200000D01*
X137566666Y-94247619D01*
X137614285Y-94342857D01*
X137614285Y-94438095D01*
X137566666Y-94580952D01*
X136995238Y-95152380D01*
X137614285Y-95152380D01*
X138885714Y-94866666D02*
X139361904Y-94866666D01*
X138790476Y-95152380D02*
X139123809Y-94152380D01*
X139457142Y-95152380D01*
X140314285Y-95152380D02*
X139742857Y-95152380D01*
X140028571Y-95152380D02*
X140028571Y-94152380D01*
X139933333Y-94295238D01*
X139838095Y-94390476D01*
X139742857Y-94438095D01*
X141585714Y-94966666D02*
X142061904Y-94966666D01*
X141490476Y-95252380D02*
X141823809Y-94252380D01*
X142157142Y-95252380D01*
X142680952Y-94252380D02*
X142776190Y-94252380D01*
X142871428Y-94300000D01*
X142919047Y-94347619D01*
X142966666Y-94442857D01*
X143014285Y-94633333D01*
X143014285Y-94871428D01*
X142966666Y-95061904D01*
X142919047Y-95157142D01*
X142871428Y-95204761D01*
X142776190Y-95252380D01*
X142680952Y-95252380D01*
X142585714Y-95204761D01*
X142538095Y-95157142D01*
X142490476Y-95061904D01*
X142442857Y-94871428D01*
X142442857Y-94633333D01*
X142490476Y-94442857D01*
X142538095Y-94347619D01*
X142585714Y-94300000D01*
X142680952Y-94252380D01*
X138790476Y-78252380D02*
X138980952Y-78252380D01*
X139076190Y-78300000D01*
X139171428Y-78395238D01*
X139219047Y-78585714D01*
X139219047Y-78919047D01*
X139171428Y-79109523D01*
X139076190Y-79204761D01*
X138980952Y-79252380D01*
X138790476Y-79252380D01*
X138695238Y-79204761D01*
X138600000Y-79109523D01*
X138552380Y-78919047D01*
X138552380Y-78585714D01*
X138600000Y-78395238D01*
X138695238Y-78300000D01*
X138790476Y-78252380D01*
X140076190Y-78585714D02*
X140076190Y-79252380D01*
X139647619Y-78585714D02*
X139647619Y-79109523D01*
X139695238Y-79204761D01*
X139790476Y-79252380D01*
X139933333Y-79252380D01*
X140028571Y-79204761D01*
X140076190Y-79157142D01*
X140409523Y-78585714D02*
X140790476Y-78585714D01*
X140552380Y-78252380D02*
X140552380Y-79109523D01*
X140600000Y-79204761D01*
X140695238Y-79252380D01*
X140790476Y-79252380D01*
X141552380Y-78585714D02*
X141552380Y-79252380D01*
X141314285Y-78204761D02*
X141076190Y-78919047D01*
X141695238Y-78919047D01*
X138790476Y-83052380D02*
X138980952Y-83052380D01*
X139076190Y-83100000D01*
X139171428Y-83195238D01*
X139219047Y-83385714D01*
X139219047Y-83719047D01*
X139171428Y-83909523D01*
X139076190Y-84004761D01*
X138980952Y-84052380D01*
X138790476Y-84052380D01*
X138695238Y-84004761D01*
X138600000Y-83909523D01*
X138552380Y-83719047D01*
X138552380Y-83385714D01*
X138600000Y-83195238D01*
X138695238Y-83100000D01*
X138790476Y-83052380D01*
X140076190Y-83385714D02*
X140076190Y-84052380D01*
X139647619Y-83385714D02*
X139647619Y-83909523D01*
X139695238Y-84004761D01*
X139790476Y-84052380D01*
X139933333Y-84052380D01*
X140028571Y-84004761D01*
X140076190Y-83957142D01*
X140409523Y-83385714D02*
X140790476Y-83385714D01*
X140552380Y-83052380D02*
X140552380Y-83909523D01*
X140600000Y-84004761D01*
X140695238Y-84052380D01*
X140790476Y-84052380D01*
X141028571Y-83052380D02*
X141647619Y-83052380D01*
X141314285Y-83433333D01*
X141457142Y-83433333D01*
X141552380Y-83480952D01*
X141600000Y-83528571D01*
X141647619Y-83623809D01*
X141647619Y-83861904D01*
X141600000Y-83957142D01*
X141552380Y-84004761D01*
X141457142Y-84052380D01*
X141171428Y-84052380D01*
X141076190Y-84004761D01*
X141028571Y-83957142D01*
X127390476Y-87852380D02*
X127580952Y-87852380D01*
X127676190Y-87900000D01*
X127771428Y-87995238D01*
X127819047Y-88185714D01*
X127819047Y-88519047D01*
X127771428Y-88709523D01*
X127676190Y-88804761D01*
X127580952Y-88852380D01*
X127390476Y-88852380D01*
X127295238Y-88804761D01*
X127200000Y-88709523D01*
X127152380Y-88519047D01*
X127152380Y-88185714D01*
X127200000Y-87995238D01*
X127295238Y-87900000D01*
X127390476Y-87852380D01*
X128676190Y-88185714D02*
X128676190Y-88852380D01*
X128247619Y-88185714D02*
X128247619Y-88709523D01*
X128295238Y-88804761D01*
X128390476Y-88852380D01*
X128533333Y-88852380D01*
X128628571Y-88804761D01*
X128676190Y-88757142D01*
X129009523Y-88185714D02*
X129390476Y-88185714D01*
X129152380Y-87852380D02*
X129152380Y-88709523D01*
X129200000Y-88804761D01*
X129295238Y-88852380D01*
X129390476Y-88852380D01*
X130247619Y-88852380D02*
X129676190Y-88852380D01*
X129961904Y-88852380D02*
X129961904Y-87852380D01*
X129866666Y-87995238D01*
X129771428Y-88090476D01*
X129676190Y-88138095D01*
X127390476Y-92652380D02*
X127580952Y-92652380D01*
X127676190Y-92700000D01*
X127771428Y-92795238D01*
X127819047Y-92985714D01*
X127819047Y-93319047D01*
X127771428Y-93509523D01*
X127676190Y-93604761D01*
X127580952Y-93652380D01*
X127390476Y-93652380D01*
X127295238Y-93604761D01*
X127200000Y-93509523D01*
X127152380Y-93319047D01*
X127152380Y-92985714D01*
X127200000Y-92795238D01*
X127295238Y-92700000D01*
X127390476Y-92652380D01*
X128676190Y-92985714D02*
X128676190Y-93652380D01*
X128247619Y-92985714D02*
X128247619Y-93509523D01*
X128295238Y-93604761D01*
X128390476Y-93652380D01*
X128533333Y-93652380D01*
X128628571Y-93604761D01*
X128676190Y-93557142D01*
X129009523Y-92985714D02*
X129390476Y-92985714D01*
X129152380Y-92652380D02*
X129152380Y-93509523D01*
X129200000Y-93604761D01*
X129295238Y-93652380D01*
X129390476Y-93652380D01*
X129676190Y-92747619D02*
X129723809Y-92700000D01*
X129819047Y-92652380D01*
X130057142Y-92652380D01*
X130152380Y-92700000D01*
X130200000Y-92747619D01*
X130247619Y-92842857D01*
X130247619Y-92938095D01*
X130200000Y-93080952D01*
X129628571Y-93652380D01*
X130247619Y-93652380D01*
X140119047Y-113452380D02*
X139785714Y-112976190D01*
X139547619Y-113452380D02*
X139547619Y-112452380D01*
X139928571Y-112452380D01*
X140023809Y-112500000D01*
X140071428Y-112547619D01*
X140119047Y-112642857D01*
X140119047Y-112785714D01*
X140071428Y-112880952D01*
X140023809Y-112928571D01*
X139928571Y-112976190D01*
X139547619Y-112976190D01*
X140738095Y-112452380D02*
X140833333Y-112452380D01*
X140928571Y-112500000D01*
X140976190Y-112547619D01*
X141023809Y-112642857D01*
X141071428Y-112833333D01*
X141071428Y-113071428D01*
X141023809Y-113261904D01*
X140976190Y-113357142D01*
X140928571Y-113404761D01*
X140833333Y-113452380D01*
X140738095Y-113452380D01*
X140642857Y-113404761D01*
X140595238Y-113357142D01*
X140547619Y-113261904D01*
X140500000Y-113071428D01*
X140500000Y-112833333D01*
X140547619Y-112642857D01*
X140595238Y-112547619D01*
X140642857Y-112500000D01*
X140738095Y-112452380D01*
X141500000Y-113357142D02*
X141547619Y-113404761D01*
X141500000Y-113452380D01*
X141452380Y-113404761D01*
X141500000Y-113357142D01*
X141500000Y-113452380D01*
X142500000Y-113452380D02*
X141928571Y-113452380D01*
X142214285Y-113452380D02*
X142214285Y-112452380D01*
X142119047Y-112595238D01*
X142023809Y-112690476D01*
X141928571Y-112738095D01*
X136600000Y-109055714D02*
X136600000Y-109722380D01*
X136361904Y-108674761D02*
X136123809Y-109389047D01*
X136742857Y-109389047D01*
X137790476Y-109722380D02*
X138314285Y-109055714D01*
X137790476Y-109055714D02*
X138314285Y-109722380D01*
X139409523Y-108817619D02*
X139457142Y-108770000D01*
X139552380Y-108722380D01*
X139790476Y-108722380D01*
X139885714Y-108770000D01*
X139933333Y-108817619D01*
X139980952Y-108912857D01*
X139980952Y-109008095D01*
X139933333Y-109150952D01*
X139361904Y-109722380D01*
X139980952Y-109722380D01*
X140600000Y-108722380D02*
X140695238Y-108722380D01*
X140790476Y-108770000D01*
X140838095Y-108817619D01*
X140885714Y-108912857D01*
X140933333Y-109103333D01*
X140933333Y-109341428D01*
X140885714Y-109531904D01*
X140838095Y-109627142D01*
X140790476Y-109674761D01*
X140695238Y-109722380D01*
X140600000Y-109722380D01*
X140504761Y-109674761D01*
X140457142Y-109627142D01*
X140409523Y-109531904D01*
X140361904Y-109341428D01*
X140361904Y-109103333D01*
X140409523Y-108912857D01*
X140457142Y-108817619D01*
X140504761Y-108770000D01*
X140600000Y-108722380D01*
X141314285Y-109436666D02*
X141790476Y-109436666D01*
X141219047Y-109722380D02*
X141552380Y-108722380D01*
X141885714Y-109722380D01*
X143314285Y-109198571D02*
X142980952Y-109198571D01*
X142980952Y-109722380D02*
X142980952Y-108722380D01*
X143457142Y-108722380D01*
X143838095Y-109198571D02*
X144171428Y-109198571D01*
X144314285Y-109722380D02*
X143838095Y-109722380D01*
X143838095Y-108722380D01*
X144314285Y-108722380D01*
X144600000Y-108722380D02*
X145171428Y-108722380D01*
X144885714Y-109722380D02*
X144885714Y-108722380D01*
X136838095Y-110715714D02*
X136838095Y-111382380D01*
X136600000Y-110334761D02*
X136361904Y-111049047D01*
X136980952Y-111049047D01*
X138028571Y-111382380D02*
X138552380Y-110715714D01*
X138028571Y-110715714D02*
X138552380Y-111382380D01*
X139885714Y-110382380D02*
X140076190Y-110382380D01*
X140171428Y-110430000D01*
X140266666Y-110525238D01*
X140314285Y-110715714D01*
X140314285Y-111049047D01*
X140266666Y-111239523D01*
X140171428Y-111334761D01*
X140076190Y-111382380D01*
X139885714Y-111382380D01*
X139790476Y-111334761D01*
X139695238Y-111239523D01*
X139647619Y-111049047D01*
X139647619Y-110715714D01*
X139695238Y-110525238D01*
X139790476Y-110430000D01*
X139885714Y-110382380D01*
X140742857Y-110715714D02*
X140742857Y-111715714D01*
X140742857Y-110763333D02*
X140838095Y-110715714D01*
X141028571Y-110715714D01*
X141123809Y-110763333D01*
X141171428Y-110810952D01*
X141219047Y-110906190D01*
X141219047Y-111191904D01*
X141171428Y-111287142D01*
X141123809Y-111334761D01*
X141028571Y-111382380D01*
X140838095Y-111382380D01*
X140742857Y-111334761D01*
X141504761Y-110715714D02*
X141885714Y-110715714D01*
X141647619Y-110382380D02*
X141647619Y-111239523D01*
X141695238Y-111334761D01*
X141790476Y-111382380D01*
X141885714Y-111382380D01*
X142361904Y-111382380D02*
X142266666Y-111334761D01*
X142219047Y-111287142D01*
X142171428Y-111191904D01*
X142171428Y-110906190D01*
X142219047Y-110810952D01*
X142266666Y-110763333D01*
X142361904Y-110715714D01*
X142504761Y-110715714D01*
X142600000Y-110763333D01*
X142647619Y-110810952D01*
X142695238Y-110906190D01*
X142695238Y-111191904D01*
X142647619Y-111287142D01*
X142600000Y-111334761D01*
X142504761Y-111382380D01*
X142361904Y-111382380D01*
X143885714Y-111382380D02*
X143885714Y-110382380D01*
X144361904Y-110715714D02*
X144361904Y-111382380D01*
X144361904Y-110810952D02*
X144409523Y-110763333D01*
X144504761Y-110715714D01*
X144647619Y-110715714D01*
X144742857Y-110763333D01*
X144790476Y-110858571D01*
X144790476Y-111382380D01*
X108700000Y-106852380D02*
X108700000Y-105852380D01*
X109176190Y-106852380D02*
X109176190Y-105852380D01*
X109747619Y-106852380D01*
X109747619Y-105852380D01*
X110176190Y-105947619D02*
X110223809Y-105900000D01*
X110319047Y-105852380D01*
X110557142Y-105852380D01*
X110652380Y-105900000D01*
X110700000Y-105947619D01*
X110747619Y-106042857D01*
X110747619Y-106138095D01*
X110700000Y-106280952D01*
X110128571Y-106852380D01*
X110747619Y-106852380D01*
X112700000Y-106852380D02*
X112700000Y-105852380D01*
X113176190Y-106852380D02*
X113176190Y-105852380D01*
X113747619Y-106852380D01*
X113747619Y-105852380D01*
X114747619Y-106852380D02*
X114176190Y-106852380D01*
X114461904Y-106852380D02*
X114461904Y-105852380D01*
X114366666Y-105995238D01*
X114271428Y-106090476D01*
X114176190Y-106138095D01*
X157400000Y-66052380D02*
X157400000Y-65052380D01*
X157876190Y-66052380D02*
X157876190Y-65052380D01*
X158447619Y-66052380D01*
X158447619Y-65052380D01*
X159352380Y-65385714D02*
X159352380Y-66052380D01*
X159114285Y-65004761D02*
X158876190Y-65719047D01*
X159495238Y-65719047D01*
X153500000Y-66052380D02*
X153500000Y-65052380D01*
X153976190Y-66052380D02*
X153976190Y-65052380D01*
X154547619Y-66052380D01*
X154547619Y-65052380D01*
X154928571Y-65052380D02*
X155547619Y-65052380D01*
X155214285Y-65433333D01*
X155357142Y-65433333D01*
X155452380Y-65480952D01*
X155500000Y-65528571D01*
X155547619Y-65623809D01*
X155547619Y-65861904D01*
X155500000Y-65957142D01*
X155452380Y-66004761D01*
X155357142Y-66052380D01*
X155071428Y-66052380D01*
X154976190Y-66004761D01*
X154928571Y-65957142D01*
X134771428Y-64652380D02*
X134771428Y-63652380D01*
X135247619Y-63985714D02*
X135247619Y-64652380D01*
X135247619Y-64080952D02*
X135295238Y-64033333D01*
X135390476Y-63985714D01*
X135533333Y-63985714D01*
X135628571Y-64033333D01*
X135676190Y-64128571D01*
X135676190Y-64652380D01*
X136580952Y-63985714D02*
X136580952Y-64652380D01*
X136342857Y-63604761D02*
X136104761Y-64319047D01*
X136723809Y-64319047D01*
X134671428Y-72452380D02*
X134671428Y-71452380D01*
X135147619Y-71785714D02*
X135147619Y-72452380D01*
X135147619Y-71880952D02*
X135195238Y-71833333D01*
X135290476Y-71785714D01*
X135433333Y-71785714D01*
X135528571Y-71833333D01*
X135576190Y-71928571D01*
X135576190Y-72452380D01*
X135957142Y-71452380D02*
X136576190Y-71452380D01*
X136242857Y-71833333D01*
X136385714Y-71833333D01*
X136480952Y-71880952D01*
X136528571Y-71928571D01*
X136576190Y-72023809D01*
X136576190Y-72261904D01*
X136528571Y-72357142D01*
X136480952Y-72404761D01*
X136385714Y-72452380D01*
X136100000Y-72452380D01*
X136004761Y-72404761D01*
X135957142Y-72357142D01*
X131671428Y-110152380D02*
X131671428Y-109152380D01*
X132147619Y-109485714D02*
X132147619Y-110152380D01*
X132147619Y-109580952D02*
X132195238Y-109533333D01*
X132290476Y-109485714D01*
X132433333Y-109485714D01*
X132528571Y-109533333D01*
X132576190Y-109628571D01*
X132576190Y-110152380D01*
X133004761Y-109247619D02*
X133052380Y-109200000D01*
X133147619Y-109152380D01*
X133385714Y-109152380D01*
X133480952Y-109200000D01*
X133528571Y-109247619D01*
X133576190Y-109342857D01*
X133576190Y-109438095D01*
X133528571Y-109580952D01*
X132957142Y-110152380D01*
X133576190Y-110152380D01*
X131771428Y-100652380D02*
X131771428Y-99652380D01*
X132247619Y-99985714D02*
X132247619Y-100652380D01*
X132247619Y-100080952D02*
X132295238Y-100033333D01*
X132390476Y-99985714D01*
X132533333Y-99985714D01*
X132628571Y-100033333D01*
X132676190Y-100128571D01*
X132676190Y-100652380D01*
X133676190Y-100652380D02*
X133104761Y-100652380D01*
X133390476Y-100652380D02*
X133390476Y-99652380D01*
X133295238Y-99795238D01*
X133200000Y-99890476D01*
X133104761Y-99938095D01*
D11*
X140757107Y-91800000D02*
G75*
G03*
X140757107Y-91800000I-707107J0D01*
G01*
D10*
X140190476Y-91585714D02*
X140190476Y-92252380D01*
X139952380Y-91204761D02*
X139714285Y-91919047D01*
X140333333Y-91919047D01*
D11*
X138457107Y-91800000D02*
G75*
G03*
X138457107Y-91800000I-707107J0D01*
G01*
D10*
X137466666Y-91252380D02*
X138085714Y-91252380D01*
X137752380Y-91633333D01*
X137895238Y-91633333D01*
X137990476Y-91680952D01*
X138038095Y-91728571D01*
X138085714Y-91823809D01*
X138085714Y-92061904D01*
X138038095Y-92157142D01*
X137990476Y-92204761D01*
X137895238Y-92252380D01*
X137609523Y-92252380D01*
X137514285Y-92204761D01*
X137466666Y-92157142D01*
D11*
X128657107Y-80700000D02*
G75*
G03*
X128657107Y-80700000I-707107J0D01*
G01*
D10*
X127714285Y-80247619D02*
X127761904Y-80200000D01*
X127857142Y-80152380D01*
X128095238Y-80152380D01*
X128190476Y-80200000D01*
X128238095Y-80247619D01*
X128285714Y-80342857D01*
X128285714Y-80438095D01*
X128238095Y-80580952D01*
X127666666Y-81152380D01*
X128285714Y-81152380D01*
D11*
X130757107Y-80700000D02*
G75*
G03*
X130757107Y-80700000I-707107J0D01*
G01*
D10*
X130385714Y-81152380D02*
X129814285Y-81152380D01*
X130100000Y-81152380D02*
X130100000Y-80152380D01*
X130004761Y-80295238D01*
X129909523Y-80390476D01*
X129814285Y-80438095D01*
D11*
X118500000Y-65500000D02*
X116000000Y-68000000D01*
X119500000Y-66500000D02*
X117000000Y-69000000D01*
X120500000Y-67500000D02*
X118000000Y-70000000D01*
X117000000Y-57000000D02*
X115000000Y-59000000D01*
X117500000Y-58500000D02*
X115000000Y-61000000D01*
X117500000Y-60500000D02*
X115000000Y-63000000D01*
X117500000Y-62500000D02*
X115000000Y-65000000D01*
X117500000Y-64500000D02*
X115000000Y-67000000D01*
X127000000Y-114000000D02*
X126000000Y-115000000D01*
X127000000Y-112000000D02*
X124000000Y-115000000D01*
X127000000Y-110000000D02*
X124000000Y-113000000D01*
X127000000Y-108000000D02*
X124000000Y-111000000D01*
X127000000Y-106000000D02*
X124000000Y-109000000D01*
X127000000Y-104000000D02*
X124000000Y-107000000D01*
X127000000Y-102000000D02*
X124000000Y-105000000D01*
X127000000Y-100000000D02*
X124000000Y-103000000D01*
X127000000Y-98000000D02*
X124000000Y-101000000D01*
X127000000Y-96000000D02*
X124000000Y-99000000D01*
X127000000Y-94000000D02*
X124000000Y-97000000D01*
X127000000Y-92000000D02*
X124000000Y-95000000D01*
X127000000Y-90000000D02*
X124000000Y-93000000D01*
X127000000Y-88000000D02*
X124000000Y-91000000D01*
X127000000Y-86000000D02*
X124000000Y-89000000D01*
X127000000Y-84000000D02*
X124000000Y-87000000D01*
X126000000Y-83000000D02*
X123000000Y-86000000D01*
X124000000Y-83000000D02*
X121000000Y-86000000D01*
X122000000Y-83000000D02*
X119000000Y-86000000D01*
X121250000Y-82000000D02*
X118250000Y-85000000D01*
X121250000Y-80000000D02*
X118250000Y-83000000D01*
X121250000Y-78000000D02*
X118250000Y-81000000D01*
X121250000Y-76000000D02*
X118250000Y-79000000D01*
X121250000Y-74000000D02*
X118250000Y-77000000D01*
X121250000Y-72000000D02*
X118250000Y-75000000D01*
X121250000Y-70000000D02*
X118250000Y-73000000D01*
X121250000Y-68500000D02*
X118250000Y-71500000D01*
X150000000Y-103000000D02*
X147000000Y-106000000D01*
X150000000Y-101000000D02*
X147000000Y-104000000D01*
X150000000Y-99000000D02*
X147000000Y-102000000D01*
X150000000Y-97000000D02*
X147000000Y-100000000D01*
X150000000Y-95000000D02*
X147000000Y-98000000D01*
X150000000Y-93000000D02*
X147000000Y-96000000D01*
X150000000Y-91000000D02*
X147000000Y-94000000D01*
X150000000Y-89000000D02*
X147000000Y-92000000D01*
X150000000Y-87000000D02*
X147000000Y-90000000D01*
X149000000Y-86000000D02*
X146000000Y-89000000D01*
X147000000Y-86000000D02*
X144000000Y-89000000D01*
X145000000Y-86000000D02*
X142000000Y-89000000D01*
X144500000Y-84500000D02*
X141500000Y-87500000D01*
X144500000Y-83000000D02*
X141500000Y-86000000D01*
X144500000Y-81000000D02*
X141500000Y-84000000D01*
X144500000Y-79000000D02*
X141500000Y-82000000D01*
X144500000Y-77000000D02*
X141500000Y-80000000D01*
X144500000Y-75000000D02*
X141500000Y-78000000D01*
X144500000Y-73000000D02*
X141500000Y-76000000D01*
X144500000Y-71000000D02*
X141500000Y-74000000D01*
X144500000Y-69000000D02*
X141500000Y-72000000D01*
X144500000Y-67000000D02*
X141500000Y-70000000D01*
X144500000Y-65000000D02*
X141500000Y-68000000D01*
X144500000Y-63000000D02*
X141500000Y-66000000D01*
X144500000Y-61000000D02*
X141500000Y-64000000D01*
X144500000Y-59000000D02*
X141500000Y-62000000D01*
X144500000Y-57000000D02*
X141500000Y-60000000D01*
X142500000Y-57000000D02*
X141500000Y-58000000D01*
X147000000Y-89000000D02*
X147000000Y-115000000D01*
X141500000Y-89000000D02*
X147000000Y-89000000D01*
X141500000Y-57000000D02*
X141500000Y-89000000D01*
X150000000Y-103000000D02*
X150000000Y-115000000D01*
X150000000Y-86000000D02*
X150000000Y-103000000D01*
X144500000Y-86000000D02*
X150000000Y-86000000D01*
X144500000Y-57000000D02*
X144500000Y-86000000D01*
X117500000Y-64500000D02*
X117500000Y-57000000D01*
X121250000Y-68250000D02*
X117500000Y-64500000D01*
X121250000Y-83000000D02*
X121250000Y-68250000D01*
X121500000Y-83000000D02*
X121250000Y-83000000D01*
X127000000Y-83000000D02*
X121500000Y-83000000D01*
X127000000Y-115000000D02*
X127000000Y-83000000D01*
X124000000Y-85950000D02*
X124050000Y-115050000D01*
X118250000Y-85950000D02*
X124000000Y-85950000D01*
X118250000Y-70250000D02*
X118250000Y-85950000D01*
X115000000Y-67000000D02*
X118250000Y-70250000D01*
X115000000Y-57000000D02*
X115000000Y-67000000D01*
D12*
X89000000Y-65500000D02*
X89000000Y-106500000D01*
X170500000Y-115000000D02*
G75*
G02*
X179000000Y-106500000I8500000J0D01*
G01*
X89000000Y-106500000D02*
G75*
G02*
X97500000Y-115000000I0J-8500000D01*
G01*
X179000000Y-65500000D02*
G75*
G02*
X170500000Y-57000000I0J8500000D01*
G01*
X97500000Y-57000000D02*
G75*
G02*
X89000000Y-65500000I-8500000J0D01*
G01*
X179000000Y-106500000D02*
X179000000Y-65500000D01*
X170500000Y-115000000D02*
X97500000Y-115000000D01*
X170500000Y-57000000D02*
X97500000Y-57000000D01*
D11*
%TO.C,J103*%
X162900000Y-67200000D02*
X162900000Y-66200000D01*
X162900000Y-75700000D02*
X162900000Y-76700000D01*
X177900000Y-75700000D02*
X162900000Y-75700000D01*
X177900000Y-67200000D02*
X177900000Y-75700000D01*
X177900000Y-85200000D02*
X177900000Y-76700000D01*
X162900000Y-85200000D02*
X177900000Y-85200000D01*
X162900000Y-67200000D02*
X177900000Y-67200000D01*
X178900000Y-66200000D02*
X162900000Y-66200000D01*
X162900000Y-76700000D02*
X177900000Y-76700000D01*
X162900000Y-86200000D02*
X162900000Y-85200000D01*
X162900000Y-105700000D02*
X162900000Y-104700000D01*
X162900000Y-96200000D02*
X162900000Y-95200000D01*
X177900000Y-96200000D02*
X177900000Y-104700000D01*
X177900000Y-95200000D02*
X177900000Y-86200000D01*
X162900000Y-95200000D02*
X177900000Y-95200000D01*
X163400000Y-95200000D02*
X162900000Y-95200000D01*
X177900000Y-96200000D02*
X162900000Y-96200000D01*
X177900000Y-104700000D02*
X162900000Y-104700000D01*
X162900000Y-86200000D02*
X177900000Y-86200000D01*
X178900000Y-105700000D02*
X178900000Y-85200000D01*
X162900000Y-105700000D02*
X178900000Y-105700000D01*
%TO.C,J102*%
X105000000Y-104700000D02*
X105000000Y-105700000D01*
X105000000Y-96200000D02*
X105000000Y-95200000D01*
X90000000Y-96200000D02*
X105000000Y-96200000D01*
X90000000Y-104700000D02*
X90000000Y-96200000D01*
X90000000Y-86700000D02*
X90000000Y-95200000D01*
X105000000Y-86700000D02*
X90000000Y-86700000D01*
X105000000Y-104700000D02*
X90000000Y-104700000D01*
X89000000Y-105700000D02*
X105000000Y-105700000D01*
X105000000Y-95200000D02*
X90000000Y-95200000D01*
X105000000Y-85700000D02*
X105000000Y-86700000D01*
X105000000Y-66200000D02*
X105000000Y-67200000D01*
X105000000Y-75700000D02*
X105000000Y-76700000D01*
X90000000Y-75700000D02*
X90000000Y-67200000D01*
X90000000Y-76700000D02*
X90000000Y-85700000D01*
X105000000Y-76700000D02*
X90000000Y-76700000D01*
X104500000Y-76700000D02*
X105000000Y-76700000D01*
X90000000Y-75700000D02*
X105000000Y-75700000D01*
X90000000Y-67200000D02*
X105000000Y-67200000D01*
X105000000Y-85700000D02*
X90000000Y-85700000D01*
X89000000Y-66200000D02*
X89000000Y-86700000D01*
X105000000Y-66200000D02*
X89000000Y-66200000D01*
%TO.C,U106*%
X130987500Y-65650000D02*
X129987500Y-65650000D01*
X130987500Y-62950000D02*
X130487500Y-62950000D01*
%TO.C,J104*%
X130390000Y-60060000D02*
X130390000Y-61210000D01*
X130390000Y-61210000D02*
X131440000Y-61210000D01*
X131440000Y-61210000D02*
X131440000Y-62200000D01*
X136610000Y-60060000D02*
X136610000Y-61210000D01*
X136610000Y-61210000D02*
X135560000Y-61210000D01*
X131560000Y-58090000D02*
X135440000Y-58090000D01*
%TO.C,U304*%
X145010000Y-65695000D02*
X146700000Y-65695000D01*
X145010000Y-65910000D02*
X145010000Y-65695000D01*
X142700000Y-65910000D02*
X145010000Y-65910000D01*
X140390000Y-65910000D02*
X140390000Y-65695000D01*
X142700000Y-65910000D02*
X140390000Y-65910000D01*
X145010000Y-63090000D02*
X145010000Y-63305000D01*
X142700000Y-63090000D02*
X145010000Y-63090000D01*
X140390000Y-63090000D02*
X140390000Y-63305000D01*
X142700000Y-63090000D02*
X140390000Y-63090000D01*
%TO.C,U303*%
X144910000Y-73195000D02*
X146600000Y-73195000D01*
X144910000Y-73410000D02*
X144910000Y-73195000D01*
X142600000Y-73410000D02*
X144910000Y-73410000D01*
X140290000Y-73410000D02*
X140290000Y-73195000D01*
X142600000Y-73410000D02*
X140290000Y-73410000D01*
X144910000Y-70590000D02*
X144910000Y-70805000D01*
X142600000Y-70590000D02*
X144910000Y-70590000D01*
X140290000Y-70590000D02*
X140290000Y-70805000D01*
X142600000Y-70590000D02*
X140290000Y-70590000D01*
%TO.C,U302*%
X123290000Y-108405000D02*
X121600000Y-108405000D01*
X123290000Y-108190000D02*
X123290000Y-108405000D01*
X125600000Y-108190000D02*
X123290000Y-108190000D01*
X127910000Y-108190000D02*
X127910000Y-108405000D01*
X125600000Y-108190000D02*
X127910000Y-108190000D01*
X123290000Y-111010000D02*
X123290000Y-110795000D01*
X125600000Y-111010000D02*
X123290000Y-111010000D01*
X127910000Y-111010000D02*
X127910000Y-110795000D01*
X125600000Y-111010000D02*
X127910000Y-111010000D01*
%TO.C,U301*%
X123290000Y-99115000D02*
X121600000Y-99115000D01*
X123290000Y-98900000D02*
X123290000Y-99115000D01*
X125600000Y-98900000D02*
X123290000Y-98900000D01*
X127910000Y-98900000D02*
X127910000Y-99115000D01*
X125600000Y-98900000D02*
X127910000Y-98900000D01*
X123290000Y-101720000D02*
X123290000Y-101505000D01*
X125600000Y-101720000D02*
X123290000Y-101720000D01*
X127910000Y-101720000D02*
X127910000Y-101505000D01*
X125600000Y-101720000D02*
X127910000Y-101720000D01*
%TO.C,R312*%
X140237258Y-59977500D02*
X139762742Y-59977500D01*
X140237258Y-61022500D02*
X139762742Y-61022500D01*
%TO.C,R311*%
X137037258Y-69077500D02*
X136562742Y-69077500D01*
X137037258Y-70122500D02*
X136562742Y-70122500D01*
%TO.C,R310*%
X140237258Y-61577500D02*
X139762742Y-61577500D01*
X140237258Y-62622500D02*
X139762742Y-62622500D01*
%TO.C,R309*%
X140137258Y-69077500D02*
X139662742Y-69077500D01*
X140137258Y-70122500D02*
X139662742Y-70122500D01*
%TO.C,R307*%
X131262742Y-112622500D02*
X131737258Y-112622500D01*
X131262742Y-111577500D02*
X131737258Y-111577500D01*
%TO.C,R305*%
X131262742Y-103222500D02*
X131737258Y-103222500D01*
X131262742Y-102177500D02*
X131737258Y-102177500D01*
%TO.C,R303*%
X128162742Y-112622500D02*
X128637258Y-112622500D01*
X128162742Y-111577500D02*
X128637258Y-111577500D01*
%TO.C,R301*%
X128162742Y-103222500D02*
X128637258Y-103222500D01*
X128162742Y-102177500D02*
X128637258Y-102177500D01*
%TO.C,D307*%
X138360000Y-65985000D02*
X138360000Y-63700000D01*
X136890000Y-65985000D02*
X138360000Y-65985000D01*
X136890000Y-63700000D02*
X136890000Y-65985000D01*
%TO.C,D305*%
X138235000Y-73485000D02*
X138235000Y-71200000D01*
X136765000Y-73485000D02*
X138235000Y-73485000D01*
X136765000Y-71200000D02*
X136765000Y-73485000D01*
%TO.C,D303*%
X129965000Y-108115000D02*
X129965000Y-110400000D01*
X131435000Y-108115000D02*
X129965000Y-108115000D01*
X131435000Y-110400000D02*
X131435000Y-108115000D01*
%TO.C,C1006*%
X138192164Y-67340000D02*
X138407836Y-67340000D01*
X138192164Y-68060000D02*
X138407836Y-68060000D01*
%TO.C,C1005*%
X120592164Y-65940000D02*
X120807836Y-65940000D01*
X120592164Y-66660000D02*
X120807836Y-66660000D01*
%TO.C,C1004*%
X121292164Y-58640000D02*
X121507836Y-58640000D01*
X121292164Y-59360000D02*
X121507836Y-59360000D01*
%TO.C,C1003*%
X134960000Y-98592164D02*
X134960000Y-98807836D01*
X134240000Y-98592164D02*
X134240000Y-98807836D01*
%TO.C,C1002*%
X131792164Y-86640000D02*
X132007836Y-86640000D01*
X131792164Y-87360000D02*
X132007836Y-87360000D01*
%TO.C,C1001*%
X129540000Y-105507836D02*
X129540000Y-105292164D01*
X130260000Y-105507836D02*
X130260000Y-105292164D01*
%TO.C,J109*%
X140675000Y-90800000D02*
X139325000Y-90800000D01*
X140675000Y-88000000D02*
X140675000Y-90800000D01*
X139325000Y-88000000D02*
X140675000Y-88000000D01*
X139325000Y-90800000D02*
X139325000Y-88000000D01*
%TO.C,J110*%
X138675000Y-90800000D02*
X137325000Y-90800000D01*
X138675000Y-88000000D02*
X138675000Y-90800000D01*
X137325000Y-88000000D02*
X138675000Y-88000000D01*
X137325000Y-90800000D02*
X137325000Y-88000000D01*
%TO.C,J108*%
X127325000Y-81500000D02*
X128675000Y-81500000D01*
X127325000Y-84300000D02*
X127325000Y-81500000D01*
X128675000Y-84300000D02*
X127325000Y-84300000D01*
X128675000Y-81500000D02*
X128675000Y-84300000D01*
%TO.C,J107*%
X129325000Y-81500000D02*
X130675000Y-81500000D01*
X129325000Y-84300000D02*
X129325000Y-81500000D01*
X130675000Y-84300000D02*
X129325000Y-84300000D01*
X130675000Y-81500000D02*
X130675000Y-84300000D01*
%TO.C,R121*%
X127677500Y-85862742D02*
X127677500Y-86337258D01*
X128722500Y-85862742D02*
X128722500Y-86337258D01*
%TO.C,R120*%
X129277500Y-85862742D02*
X129277500Y-86337258D01*
X130322500Y-85862742D02*
X130322500Y-86337258D01*
%TO.C,J303*%
X151500000Y-57050000D02*
X153500000Y-57050000D01*
X151500000Y-58300000D02*
X151500000Y-57050000D01*
X167530000Y-64050000D02*
X166780000Y-64050000D01*
X167530000Y-59750000D02*
X167530000Y-64050000D01*
X166780000Y-59750000D02*
X167530000Y-59750000D01*
X166780000Y-59400000D02*
X166780000Y-59750000D01*
X167280000Y-59400000D02*
X166780000Y-59400000D01*
X167530000Y-58400000D02*
X167280000Y-59400000D01*
X164530000Y-58400000D02*
X167530000Y-58400000D01*
X164780000Y-59400000D02*
X164530000Y-58400000D01*
X165280000Y-59400000D02*
X164780000Y-59400000D01*
X165280000Y-59750000D02*
X165280000Y-59400000D01*
X164530000Y-59750000D02*
X165280000Y-59750000D01*
X164530000Y-64050000D02*
X164530000Y-59750000D01*
X165280000Y-64050000D02*
X164530000Y-64050000D01*
X163720000Y-64050000D02*
X162970000Y-64050000D01*
X163720000Y-59750000D02*
X163720000Y-64050000D01*
X162970000Y-59750000D02*
X163720000Y-59750000D01*
X162970000Y-59400000D02*
X162970000Y-59750000D01*
X163470000Y-59400000D02*
X162970000Y-59400000D01*
X163720000Y-58400000D02*
X163470000Y-59400000D01*
X160720000Y-58400000D02*
X163720000Y-58400000D01*
X160970000Y-59400000D02*
X160720000Y-58400000D01*
X161470000Y-59400000D02*
X160970000Y-59400000D01*
X161470000Y-59750000D02*
X161470000Y-59400000D01*
X160720000Y-59750000D02*
X161470000Y-59750000D01*
X160720000Y-64050000D02*
X160720000Y-59750000D01*
X161470000Y-64050000D02*
X160720000Y-64050000D01*
X159910000Y-64050000D02*
X159160000Y-64050000D01*
X159910000Y-59750000D02*
X159910000Y-64050000D01*
X159160000Y-59750000D02*
X159910000Y-59750000D01*
X159160000Y-59400000D02*
X159160000Y-59750000D01*
X159660000Y-59400000D02*
X159160000Y-59400000D01*
X159910000Y-58400000D02*
X159660000Y-59400000D01*
X156910000Y-58400000D02*
X159910000Y-58400000D01*
X157160000Y-59400000D02*
X156910000Y-58400000D01*
X157660000Y-59400000D02*
X157160000Y-59400000D01*
X157660000Y-59750000D02*
X157660000Y-59400000D01*
X156910000Y-59750000D02*
X157660000Y-59750000D01*
X156910000Y-64050000D02*
X156910000Y-59750000D01*
X157660000Y-64050000D02*
X156910000Y-64050000D01*
X156100000Y-64050000D02*
X155350000Y-64050000D01*
X156100000Y-59750000D02*
X156100000Y-64050000D01*
X155350000Y-59750000D02*
X156100000Y-59750000D01*
X155350000Y-59400000D02*
X155350000Y-59750000D01*
X155850000Y-59400000D02*
X155350000Y-59400000D01*
X156100000Y-58400000D02*
X155850000Y-59400000D01*
X153100000Y-58400000D02*
X156100000Y-58400000D01*
X153350000Y-59400000D02*
X153100000Y-58400000D01*
X153850000Y-59400000D02*
X153350000Y-59400000D01*
X153850000Y-59750000D02*
X153850000Y-59400000D01*
X153100000Y-59750000D02*
X153850000Y-59750000D01*
X153100000Y-64050000D02*
X153100000Y-59750000D01*
X153850000Y-64050000D02*
X153100000Y-64050000D01*
X168740000Y-57440000D02*
X151890000Y-57440000D01*
X168740000Y-64910000D02*
X168740000Y-57440000D01*
X151890000Y-64910000D02*
X168740000Y-64910000D01*
X151890000Y-57440000D02*
X151890000Y-64910000D01*
X166779647Y-64049845D02*
G75*
G03*
X165280000Y-64050000I-749647J-1700155D01*
G01*
X162969647Y-64049845D02*
G75*
G03*
X161470000Y-64050000I-749647J-1700155D01*
G01*
X159159647Y-64049845D02*
G75*
G03*
X157660000Y-64050000I-749647J-1700155D01*
G01*
X155349647Y-64049845D02*
G75*
G03*
X153850000Y-64050000I-749647J-1700155D01*
G01*
%TO.C,J302*%
X116700000Y-114850000D02*
X114700000Y-114850000D01*
X116700000Y-113600000D02*
X116700000Y-114850000D01*
X100670000Y-107850000D02*
X101420000Y-107850000D01*
X100670000Y-112150000D02*
X100670000Y-107850000D01*
X101420000Y-112150000D02*
X100670000Y-112150000D01*
X101420000Y-112500000D02*
X101420000Y-112150000D01*
X100920000Y-112500000D02*
X101420000Y-112500000D01*
X100670000Y-113500000D02*
X100920000Y-112500000D01*
X103670000Y-113500000D02*
X100670000Y-113500000D01*
X103420000Y-112500000D02*
X103670000Y-113500000D01*
X102920000Y-112500000D02*
X103420000Y-112500000D01*
X102920000Y-112150000D02*
X102920000Y-112500000D01*
X103670000Y-112150000D02*
X102920000Y-112150000D01*
X103670000Y-107850000D02*
X103670000Y-112150000D01*
X102920000Y-107850000D02*
X103670000Y-107850000D01*
X104480000Y-107850000D02*
X105230000Y-107850000D01*
X104480000Y-112150000D02*
X104480000Y-107850000D01*
X105230000Y-112150000D02*
X104480000Y-112150000D01*
X105230000Y-112500000D02*
X105230000Y-112150000D01*
X104730000Y-112500000D02*
X105230000Y-112500000D01*
X104480000Y-113500000D02*
X104730000Y-112500000D01*
X107480000Y-113500000D02*
X104480000Y-113500000D01*
X107230000Y-112500000D02*
X107480000Y-113500000D01*
X106730000Y-112500000D02*
X107230000Y-112500000D01*
X106730000Y-112150000D02*
X106730000Y-112500000D01*
X107480000Y-112150000D02*
X106730000Y-112150000D01*
X107480000Y-107850000D02*
X107480000Y-112150000D01*
X106730000Y-107850000D02*
X107480000Y-107850000D01*
X108290000Y-107850000D02*
X109040000Y-107850000D01*
X108290000Y-112150000D02*
X108290000Y-107850000D01*
X109040000Y-112150000D02*
X108290000Y-112150000D01*
X109040000Y-112500000D02*
X109040000Y-112150000D01*
X108540000Y-112500000D02*
X109040000Y-112500000D01*
X108290000Y-113500000D02*
X108540000Y-112500000D01*
X111290000Y-113500000D02*
X108290000Y-113500000D01*
X111040000Y-112500000D02*
X111290000Y-113500000D01*
X110540000Y-112500000D02*
X111040000Y-112500000D01*
X110540000Y-112150000D02*
X110540000Y-112500000D01*
X111290000Y-112150000D02*
X110540000Y-112150000D01*
X111290000Y-107850000D02*
X111290000Y-112150000D01*
X110540000Y-107850000D02*
X111290000Y-107850000D01*
X112100000Y-107850000D02*
X112850000Y-107850000D01*
X112100000Y-112150000D02*
X112100000Y-107850000D01*
X112850000Y-112150000D02*
X112100000Y-112150000D01*
X112850000Y-112500000D02*
X112850000Y-112150000D01*
X112350000Y-112500000D02*
X112850000Y-112500000D01*
X112100000Y-113500000D02*
X112350000Y-112500000D01*
X115100000Y-113500000D02*
X112100000Y-113500000D01*
X114850000Y-112500000D02*
X115100000Y-113500000D01*
X114350000Y-112500000D02*
X114850000Y-112500000D01*
X114350000Y-112150000D02*
X114350000Y-112500000D01*
X115100000Y-112150000D02*
X114350000Y-112150000D01*
X115100000Y-107850000D02*
X115100000Y-112150000D01*
X114350000Y-107850000D02*
X115100000Y-107850000D01*
X99460000Y-114460000D02*
X116310000Y-114460000D01*
X99460000Y-106990000D02*
X99460000Y-114460000D01*
X116310000Y-106990000D02*
X99460000Y-106990000D01*
X116310000Y-114460000D02*
X116310000Y-106990000D01*
X101420353Y-107850155D02*
G75*
G03*
X102920000Y-107850000I749647J1700155D01*
G01*
X105230353Y-107850155D02*
G75*
G03*
X106730000Y-107850000I749647J1700155D01*
G01*
X109040353Y-107850155D02*
G75*
G03*
X110540000Y-107850000I749647J1700155D01*
G01*
X112850353Y-107850155D02*
G75*
G03*
X114350000Y-107850000I749647J1700155D01*
G01*
%TO.C,R308*%
X149837258Y-73077500D02*
X149362742Y-73077500D01*
X149837258Y-74122500D02*
X149362742Y-74122500D01*
%TO.C,FB304*%
X149699622Y-68940000D02*
X148900378Y-68940000D01*
X149699622Y-70060000D02*
X148900378Y-70060000D01*
%TO.C,D308*%
X151300000Y-72600000D02*
X147450000Y-72600000D01*
X151300000Y-70600000D02*
X147450000Y-70600000D01*
X151300000Y-72600000D02*
X151300000Y-70600000D01*
%TO.C,C308*%
X149740580Y-66890000D02*
X149459420Y-66890000D01*
X149740580Y-67910000D02*
X149459420Y-67910000D01*
%TO.C,C307*%
X147960000Y-67707836D02*
X147960000Y-67492164D01*
X147240000Y-67707836D02*
X147240000Y-67492164D01*
%TO.C,R306*%
X150037258Y-64177500D02*
X149562742Y-64177500D01*
X150037258Y-65222500D02*
X149562742Y-65222500D01*
%TO.C,FB303*%
X149899622Y-60040000D02*
X149100378Y-60040000D01*
X149899622Y-61160000D02*
X149100378Y-61160000D01*
%TO.C,D306*%
X151350000Y-63700000D02*
X147500000Y-63700000D01*
X151350000Y-61700000D02*
X147500000Y-61700000D01*
X151350000Y-63700000D02*
X151350000Y-61700000D01*
%TO.C,C306*%
X149940580Y-58090000D02*
X149659420Y-58090000D01*
X149940580Y-59110000D02*
X149659420Y-59110000D01*
%TO.C,C305*%
X148060000Y-58907836D02*
X148060000Y-58692164D01*
X147340000Y-58907836D02*
X147340000Y-58692164D01*
%TO.C,R304*%
X118062742Y-108522500D02*
X118537258Y-108522500D01*
X118062742Y-107477500D02*
X118537258Y-107477500D01*
%TO.C,FB302*%
X118200378Y-112660000D02*
X118999622Y-112660000D01*
X118200378Y-111540000D02*
X118999622Y-111540000D01*
%TO.C,D304*%
X116800000Y-109000000D02*
X120650000Y-109000000D01*
X116800000Y-111000000D02*
X120650000Y-111000000D01*
X116800000Y-109000000D02*
X116800000Y-111000000D01*
%TO.C,C304*%
X118259420Y-114610000D02*
X118540580Y-114610000D01*
X118259420Y-113590000D02*
X118540580Y-113590000D01*
%TO.C,C303*%
X120140000Y-113792164D02*
X120140000Y-114007836D01*
X120860000Y-113792164D02*
X120860000Y-114007836D01*
%TO.C,R302*%
X118262742Y-99222500D02*
X118737258Y-99222500D01*
X118262742Y-98177500D02*
X118737258Y-98177500D01*
%TO.C,R101*%
X132037258Y-89477500D02*
X131562742Y-89477500D01*
X132037258Y-90522500D02*
X131562742Y-90522500D01*
%TO.C,FB301*%
X118300378Y-103360000D02*
X119099622Y-103360000D01*
X118300378Y-102240000D02*
X119099622Y-102240000D01*
%TO.C,D302*%
X116780000Y-99690000D02*
X120630000Y-99690000D01*
X116780000Y-101690000D02*
X120630000Y-101690000D01*
X116780000Y-99690000D02*
X116780000Y-101690000D01*
%TO.C,D301*%
X130065000Y-98815000D02*
X130065000Y-101100000D01*
X131535000Y-98815000D02*
X130065000Y-98815000D01*
X131535000Y-101100000D02*
X131535000Y-98815000D01*
%TO.C,C302*%
X118359420Y-105310000D02*
X118640580Y-105310000D01*
X118359420Y-104290000D02*
X118640580Y-104290000D01*
%TO.C,C301*%
X120240000Y-104492164D02*
X120240000Y-104707836D01*
X120960000Y-104492164D02*
X120960000Y-104707836D01*
%TO.C,U105*%
X122045000Y-76060000D02*
X122045000Y-77875000D01*
X121790000Y-76060000D02*
X122045000Y-76060000D01*
X121790000Y-72200000D02*
X121790000Y-76060000D01*
X121790000Y-68340000D02*
X122045000Y-68340000D01*
X121790000Y-72200000D02*
X121790000Y-68340000D01*
X132310000Y-76060000D02*
X132055000Y-76060000D01*
X132310000Y-72200000D02*
X132310000Y-76060000D01*
X132310000Y-68340000D02*
X132055000Y-68340000D01*
X132310000Y-72200000D02*
X132310000Y-68340000D01*
%TO.C,R123*%
X138722500Y-86437258D02*
X138722500Y-85962742D01*
X137677500Y-86437258D02*
X137677500Y-85962742D01*
%TO.C,R122*%
X140322500Y-86437258D02*
X140322500Y-85962742D01*
X139277500Y-86437258D02*
X139277500Y-85962742D01*
%TO.C,R119*%
X141577500Y-102862742D02*
X141577500Y-103337258D01*
X142622500Y-102862742D02*
X142622500Y-103337258D01*
%TO.C,R118*%
X139077500Y-102862742D02*
X139077500Y-103337258D01*
X140122500Y-102862742D02*
X140122500Y-103337258D01*
%TO.C,R117*%
X136577500Y-102862742D02*
X136577500Y-103337258D01*
X137622500Y-102862742D02*
X137622500Y-103337258D01*
%TO.C,J106*%
X143430000Y-95870000D02*
X143430000Y-97200000D01*
X142100000Y-95870000D02*
X143430000Y-95870000D01*
X143430000Y-98470000D02*
X143430000Y-101070000D01*
X140830000Y-98470000D02*
X143430000Y-98470000D01*
X140830000Y-95870000D02*
X140830000Y-98470000D01*
X143430000Y-101070000D02*
X135690000Y-101070000D01*
X140830000Y-95870000D02*
X135690000Y-95870000D01*
X135690000Y-95870000D02*
X135690000Y-101070000D01*
%TO.C,J101*%
X118730000Y-65210000D02*
X118730000Y-63880000D01*
X120060000Y-65210000D02*
X118730000Y-65210000D01*
X118730000Y-62610000D02*
X118730000Y-60010000D01*
X121330000Y-62610000D02*
X118730000Y-62610000D01*
X121330000Y-65210000D02*
X121330000Y-62610000D01*
X118730000Y-60010000D02*
X129010000Y-60010000D01*
X121330000Y-65210000D02*
X129010000Y-65210000D01*
X129010000Y-65210000D02*
X129010000Y-60010000D01*
%TO.C,U104*%
X140290000Y-75405000D02*
X138600000Y-75405000D01*
X140290000Y-75190000D02*
X140290000Y-75405000D01*
X142600000Y-75190000D02*
X140290000Y-75190000D01*
X144910000Y-75190000D02*
X144910000Y-75405000D01*
X142600000Y-75190000D02*
X144910000Y-75190000D01*
X140290000Y-78010000D02*
X140290000Y-77795000D01*
X142600000Y-78010000D02*
X140290000Y-78010000D01*
X144910000Y-78010000D02*
X144910000Y-77795000D01*
X142600000Y-78010000D02*
X144910000Y-78010000D01*
%TO.C,R116*%
X149887258Y-77527500D02*
X149412742Y-77527500D01*
X149887258Y-78572500D02*
X149412742Y-78572500D01*
%TO.C,R115*%
X149887258Y-75977500D02*
X149412742Y-75977500D01*
X149887258Y-77022500D02*
X149412742Y-77022500D01*
%TO.C,R114*%
X136987258Y-75277500D02*
X136512742Y-75277500D01*
X136987258Y-76322500D02*
X136512742Y-76322500D01*
%TO.C,R113*%
X136512742Y-77872500D02*
X136987258Y-77872500D01*
X136512742Y-76827500D02*
X136987258Y-76827500D01*
%TO.C,Q104*%
X160390000Y-77950000D02*
X160390000Y-79050000D01*
X162200000Y-77950000D02*
X160390000Y-77950000D01*
X162200000Y-76450000D02*
X162200000Y-77950000D01*
X153610000Y-77950000D02*
X153610000Y-83075000D01*
X151800000Y-77950000D02*
X153610000Y-77950000D01*
X151800000Y-76450000D02*
X151800000Y-77950000D01*
%TO.C,D108*%
X169400000Y-65900000D02*
X169400000Y-62050000D01*
X171400000Y-65900000D02*
X171400000Y-62050000D01*
X169400000Y-65900000D02*
X171400000Y-65900000D01*
%TO.C,D107*%
X138235000Y-78115000D02*
X135950000Y-78115000D01*
X138235000Y-79585000D02*
X138235000Y-78115000D01*
X135950000Y-79585000D02*
X138235000Y-79585000D01*
%TO.C,U103*%
X140290000Y-80005000D02*
X138600000Y-80005000D01*
X140290000Y-79790000D02*
X140290000Y-80005000D01*
X142600000Y-79790000D02*
X140290000Y-79790000D01*
X144910000Y-79790000D02*
X144910000Y-80005000D01*
X142600000Y-79790000D02*
X144910000Y-79790000D01*
X140290000Y-82610000D02*
X140290000Y-82395000D01*
X142600000Y-82610000D02*
X140290000Y-82610000D01*
X144910000Y-82610000D02*
X144910000Y-82395000D01*
X142600000Y-82610000D02*
X144910000Y-82610000D01*
%TO.C,R112*%
X155162742Y-103922500D02*
X155637258Y-103922500D01*
X155162742Y-102877500D02*
X155637258Y-102877500D01*
%TO.C,R111*%
X158837258Y-102877500D02*
X158362742Y-102877500D01*
X158837258Y-103922500D02*
X158362742Y-103922500D01*
%TO.C,R110*%
X137037258Y-79877500D02*
X136562742Y-79877500D01*
X137037258Y-80922500D02*
X136562742Y-80922500D01*
%TO.C,R109*%
X136562742Y-82472500D02*
X137037258Y-82472500D01*
X136562742Y-81427500D02*
X137037258Y-81427500D01*
%TO.C,Q103*%
X160390000Y-97125000D02*
X160390000Y-98225000D01*
X162200000Y-97125000D02*
X160390000Y-97125000D01*
X162200000Y-95625000D02*
X162200000Y-97125000D01*
X153610000Y-97125000D02*
X153610000Y-102250000D01*
X151800000Y-97125000D02*
X153610000Y-97125000D01*
X151800000Y-95625000D02*
X151800000Y-97125000D01*
%TO.C,D106*%
X162600000Y-85600000D02*
X158750000Y-85600000D01*
X162600000Y-83600000D02*
X158750000Y-83600000D01*
X162600000Y-85600000D02*
X162600000Y-83600000D01*
%TO.C,D105*%
X138285000Y-82765000D02*
X136000000Y-82765000D01*
X138285000Y-84235000D02*
X138285000Y-82765000D01*
X136000000Y-84235000D02*
X138285000Y-84235000D01*
%TO.C,U102*%
X127910000Y-96795000D02*
X129600000Y-96795000D01*
X127910000Y-97010000D02*
X127910000Y-96795000D01*
X125600000Y-97010000D02*
X127910000Y-97010000D01*
X123290000Y-97010000D02*
X123290000Y-96795000D01*
X125600000Y-97010000D02*
X123290000Y-97010000D01*
X127910000Y-94190000D02*
X127910000Y-94405000D01*
X125600000Y-94190000D02*
X127910000Y-94190000D01*
X123290000Y-94190000D02*
X123290000Y-94405000D01*
X125600000Y-94190000D02*
X123290000Y-94190000D01*
%TO.C,R108*%
X118062742Y-94722500D02*
X118537258Y-94722500D01*
X118062742Y-93677500D02*
X118537258Y-93677500D01*
%TO.C,R107*%
X118062742Y-96322500D02*
X118537258Y-96322500D01*
X118062742Y-95277500D02*
X118537258Y-95277500D01*
%TO.C,R106*%
X131562742Y-96922500D02*
X132037258Y-96922500D01*
X131562742Y-95877500D02*
X132037258Y-95877500D01*
%TO.C,R105*%
X132037258Y-94277500D02*
X131562742Y-94277500D01*
X132037258Y-95322500D02*
X131562742Y-95322500D01*
%TO.C,Q102*%
X107608000Y-94250000D02*
X107608000Y-93150000D01*
X105798000Y-94250000D02*
X107608000Y-94250000D01*
X105798000Y-95750000D02*
X105798000Y-94250000D01*
X114388000Y-94250000D02*
X114388000Y-89125000D01*
X116198000Y-94250000D02*
X114388000Y-94250000D01*
X116198000Y-95750000D02*
X116198000Y-94250000D01*
%TO.C,D104*%
X98800000Y-106000000D02*
X98800000Y-109850000D01*
X96800000Y-106000000D02*
X96800000Y-109850000D01*
X98800000Y-106000000D02*
X96800000Y-106000000D01*
%TO.C,D103*%
X130315000Y-93935000D02*
X132600000Y-93935000D01*
X130315000Y-92465000D02*
X130315000Y-93935000D01*
X132600000Y-92465000D02*
X130315000Y-92465000D01*
%TO.C,U101*%
X127910000Y-91995000D02*
X129600000Y-91995000D01*
X127910000Y-92210000D02*
X127910000Y-91995000D01*
X125600000Y-92210000D02*
X127910000Y-92210000D01*
X123290000Y-92210000D02*
X123290000Y-91995000D01*
X125600000Y-92210000D02*
X123290000Y-92210000D01*
X127910000Y-89390000D02*
X127910000Y-89605000D01*
X125600000Y-89390000D02*
X127910000Y-89390000D01*
X123290000Y-89390000D02*
X123290000Y-89605000D01*
X125600000Y-89390000D02*
X123290000Y-89390000D01*
%TO.C,R104*%
X112837258Y-67477500D02*
X112362742Y-67477500D01*
X112837258Y-68522500D02*
X112362742Y-68522500D01*
%TO.C,R103*%
X108962742Y-68522500D02*
X109437258Y-68522500D01*
X108962742Y-67477500D02*
X109437258Y-67477500D01*
%TO.C,R102*%
X131562742Y-92122500D02*
X132037258Y-92122500D01*
X131562742Y-91077500D02*
X132037258Y-91077500D01*
%TO.C,Q101*%
X107608000Y-74266000D02*
X107608000Y-73166000D01*
X105798000Y-74266000D02*
X107608000Y-74266000D01*
X105798000Y-75766000D02*
X105798000Y-74266000D01*
X114388000Y-74266000D02*
X114388000Y-69141000D01*
X116198000Y-74266000D02*
X114388000Y-74266000D01*
X116198000Y-75766000D02*
X116198000Y-74266000D01*
%TO.C,D102*%
X105300000Y-86100000D02*
X109150000Y-86100000D01*
X105300000Y-88100000D02*
X109150000Y-88100000D01*
X105300000Y-86100000D02*
X105300000Y-88100000D01*
%TO.C,D101*%
X130315000Y-89135000D02*
X132600000Y-89135000D01*
X130315000Y-87665000D02*
X130315000Y-89135000D01*
X132600000Y-87665000D02*
X130315000Y-87665000D01*
%TD*%
%TO.C,J103*%
D13*
X160952380Y-88285714D02*
X161666666Y-88285714D01*
X161809523Y-88333333D01*
X161904761Y-88428571D01*
X161952380Y-88571428D01*
X161952380Y-88666666D01*
X161952380Y-87285714D02*
X161952380Y-87857142D01*
X161952380Y-87571428D02*
X160952380Y-87571428D01*
X161095238Y-87666666D01*
X161190476Y-87761904D01*
X161238095Y-87857142D01*
X160952380Y-86666666D02*
X160952380Y-86571428D01*
X161000000Y-86476190D01*
X161047619Y-86428571D01*
X161142857Y-86380952D01*
X161333333Y-86333333D01*
X161571428Y-86333333D01*
X161761904Y-86380952D01*
X161857142Y-86428571D01*
X161904761Y-86476190D01*
X161952380Y-86571428D01*
X161952380Y-86666666D01*
X161904761Y-86761904D01*
X161857142Y-86809523D01*
X161761904Y-86857142D01*
X161571428Y-86904761D01*
X161333333Y-86904761D01*
X161142857Y-86857142D01*
X161047619Y-86809523D01*
X161000000Y-86761904D01*
X160952380Y-86666666D01*
X160952380Y-86000000D02*
X160952380Y-85380952D01*
X161333333Y-85714285D01*
X161333333Y-85571428D01*
X161380952Y-85476190D01*
X161428571Y-85428571D01*
X161523809Y-85380952D01*
X161761904Y-85380952D01*
X161857142Y-85428571D01*
X161904761Y-85476190D01*
X161952380Y-85571428D01*
X161952380Y-85857142D01*
X161904761Y-85952380D01*
X161857142Y-86000000D01*
%TO.C,J102*%
X105852380Y-86185714D02*
X106566666Y-86185714D01*
X106709523Y-86233333D01*
X106804761Y-86328571D01*
X106852380Y-86471428D01*
X106852380Y-86566666D01*
X106852380Y-85185714D02*
X106852380Y-85757142D01*
X106852380Y-85471428D02*
X105852380Y-85471428D01*
X105995238Y-85566666D01*
X106090476Y-85661904D01*
X106138095Y-85757142D01*
X105852380Y-84566666D02*
X105852380Y-84471428D01*
X105900000Y-84376190D01*
X105947619Y-84328571D01*
X106042857Y-84280952D01*
X106233333Y-84233333D01*
X106471428Y-84233333D01*
X106661904Y-84280952D01*
X106757142Y-84328571D01*
X106804761Y-84376190D01*
X106852380Y-84471428D01*
X106852380Y-84566666D01*
X106804761Y-84661904D01*
X106757142Y-84709523D01*
X106661904Y-84757142D01*
X106471428Y-84804761D01*
X106233333Y-84804761D01*
X106042857Y-84757142D01*
X105947619Y-84709523D01*
X105900000Y-84661904D01*
X105852380Y-84566666D01*
X105947619Y-83852380D02*
X105900000Y-83804761D01*
X105852380Y-83709523D01*
X105852380Y-83471428D01*
X105900000Y-83376190D01*
X105947619Y-83328571D01*
X106042857Y-83280952D01*
X106138095Y-83280952D01*
X106280952Y-83328571D01*
X106852380Y-83900000D01*
X106852380Y-83280952D01*
%TD*%
M02*
