%TF.GenerationSoftware,KiCad,Pcbnew,(5.1.8-0-10_14)*%
%TF.CreationDate,2020-11-27T12:30:10+01:00*%
%TF.ProjectId,FET_Driver,4645545f-4472-4697-9665-722e6b696361,rev?*%
%TF.SameCoordinates,Original*%
%TF.FileFunction,Legend,Top*%
%TF.FilePolarity,Positive*%
%FSLAX46Y46*%
G04 Gerber Fmt 4.6, Leading zero omitted, Abs format (unit mm)*
G04 Created by KiCad (PCBNEW (5.1.8-0-10_14)) date 2020-11-27 12:30:10*
%MOMM*%
%LPD*%
G01*
G04 APERTURE LIST*
%ADD10C,0.150000*%
%TA.AperFunction,Profile*%
%ADD11C,0.050000*%
%TD*%
%ADD12C,0.120000*%
G04 APERTURE END LIST*
D10*
X118783333Y-69336666D02*
X118950000Y-70036666D01*
X119083333Y-69536666D01*
X119216666Y-70036666D01*
X119383333Y-69336666D01*
X119650000Y-70036666D02*
X119650000Y-69570000D01*
X119650000Y-69336666D02*
X119616666Y-69370000D01*
X119650000Y-69403333D01*
X119683333Y-69370000D01*
X119650000Y-69336666D01*
X119650000Y-69403333D01*
X119883333Y-69570000D02*
X120150000Y-69570000D01*
X119983333Y-69336666D02*
X119983333Y-69936666D01*
X120016666Y-70003333D01*
X120083333Y-70036666D01*
X120150000Y-70036666D01*
X120383333Y-70036666D02*
X120383333Y-69336666D01*
X120683333Y-70036666D02*
X120683333Y-69670000D01*
X120650000Y-69603333D01*
X120583333Y-69570000D01*
X120483333Y-69570000D01*
X120416666Y-69603333D01*
X120383333Y-69636666D01*
X121950000Y-69970000D02*
X121916666Y-70003333D01*
X121816666Y-70036666D01*
X121750000Y-70036666D01*
X121650000Y-70003333D01*
X121583333Y-69936666D01*
X121550000Y-69870000D01*
X121516666Y-69736666D01*
X121516666Y-69636666D01*
X121550000Y-69503333D01*
X121583333Y-69436666D01*
X121650000Y-69370000D01*
X121750000Y-69336666D01*
X121816666Y-69336666D01*
X121916666Y-69370000D01*
X121950000Y-69403333D01*
X122550000Y-69570000D02*
X122550000Y-70036666D01*
X122250000Y-69570000D02*
X122250000Y-69936666D01*
X122283333Y-70003333D01*
X122350000Y-70036666D01*
X122450000Y-70036666D01*
X122516666Y-70003333D01*
X122550000Y-69970000D01*
X122883333Y-70036666D02*
X122883333Y-69570000D01*
X122883333Y-69703333D02*
X122916666Y-69636666D01*
X122950000Y-69603333D01*
X123016666Y-69570000D01*
X123083333Y-69570000D01*
X123316666Y-70036666D02*
X123316666Y-69570000D01*
X123316666Y-69703333D02*
X123350000Y-69636666D01*
X123383333Y-69603333D01*
X123450000Y-69570000D01*
X123516666Y-69570000D01*
X124016666Y-70003333D02*
X123950000Y-70036666D01*
X123816666Y-70036666D01*
X123750000Y-70003333D01*
X123716666Y-69936666D01*
X123716666Y-69670000D01*
X123750000Y-69603333D01*
X123816666Y-69570000D01*
X123950000Y-69570000D01*
X124016666Y-69603333D01*
X124050000Y-69670000D01*
X124050000Y-69736666D01*
X123716666Y-69803333D01*
X124350000Y-69570000D02*
X124350000Y-70036666D01*
X124350000Y-69636666D02*
X124383333Y-69603333D01*
X124450000Y-69570000D01*
X124550000Y-69570000D01*
X124616666Y-69603333D01*
X124650000Y-69670000D01*
X124650000Y-70036666D01*
X124883333Y-69570000D02*
X125150000Y-69570000D01*
X124983333Y-69336666D02*
X124983333Y-69936666D01*
X125016666Y-70003333D01*
X125083333Y-70036666D01*
X125150000Y-70036666D01*
X125883333Y-70003333D02*
X125983333Y-70036666D01*
X126150000Y-70036666D01*
X126216666Y-70003333D01*
X126250000Y-69970000D01*
X126283333Y-69903333D01*
X126283333Y-69836666D01*
X126250000Y-69770000D01*
X126216666Y-69736666D01*
X126150000Y-69703333D01*
X126016666Y-69670000D01*
X125950000Y-69636666D01*
X125916666Y-69603333D01*
X125883333Y-69536666D01*
X125883333Y-69470000D01*
X125916666Y-69403333D01*
X125950000Y-69370000D01*
X126016666Y-69336666D01*
X126183333Y-69336666D01*
X126283333Y-69370000D01*
X126850000Y-70003333D02*
X126783333Y-70036666D01*
X126650000Y-70036666D01*
X126583333Y-70003333D01*
X126550000Y-69936666D01*
X126550000Y-69670000D01*
X126583333Y-69603333D01*
X126650000Y-69570000D01*
X126783333Y-69570000D01*
X126850000Y-69603333D01*
X126883333Y-69670000D01*
X126883333Y-69736666D01*
X126550000Y-69803333D01*
X127183333Y-69570000D02*
X127183333Y-70036666D01*
X127183333Y-69636666D02*
X127216666Y-69603333D01*
X127283333Y-69570000D01*
X127383333Y-69570000D01*
X127450000Y-69603333D01*
X127483333Y-69670000D01*
X127483333Y-70036666D01*
X127783333Y-70003333D02*
X127850000Y-70036666D01*
X127983333Y-70036666D01*
X128050000Y-70003333D01*
X128083333Y-69936666D01*
X128083333Y-69903333D01*
X128050000Y-69836666D01*
X127983333Y-69803333D01*
X127883333Y-69803333D01*
X127816666Y-69770000D01*
X127783333Y-69703333D01*
X127783333Y-69670000D01*
X127816666Y-69603333D01*
X127883333Y-69570000D01*
X127983333Y-69570000D01*
X128050000Y-69603333D01*
X128650000Y-70003333D02*
X128583333Y-70036666D01*
X128450000Y-70036666D01*
X128383333Y-70003333D01*
X128350000Y-69936666D01*
X128350000Y-69670000D01*
X128383333Y-69603333D01*
X128450000Y-69570000D01*
X128583333Y-69570000D01*
X128650000Y-69603333D01*
X128683333Y-69670000D01*
X128683333Y-69736666D01*
X128350000Y-69803333D01*
D11*
X140000000Y-68000000D02*
X140000000Y-73000000D01*
X108000000Y-68000000D02*
X140000000Y-68000000D01*
X108000000Y-73000000D02*
X108000000Y-68000000D01*
D10*
X117866666Y-68286666D02*
X117999999Y-68286666D01*
X118066666Y-68320000D01*
X118133333Y-68386666D01*
X118166666Y-68520000D01*
X118166666Y-68753333D01*
X118133333Y-68886666D01*
X118066666Y-68953333D01*
X117999999Y-68986666D01*
X117866666Y-68986666D01*
X117799999Y-68953333D01*
X117733333Y-68886666D01*
X117699999Y-68753333D01*
X117699999Y-68520000D01*
X117733333Y-68386666D01*
X117799999Y-68320000D01*
X117866666Y-68286666D01*
X118466666Y-68520000D02*
X118466666Y-69220000D01*
X118466666Y-68553333D02*
X118533333Y-68520000D01*
X118666666Y-68520000D01*
X118733333Y-68553333D01*
X118766666Y-68586666D01*
X118799999Y-68653333D01*
X118799999Y-68853333D01*
X118766666Y-68920000D01*
X118733333Y-68953333D01*
X118666666Y-68986666D01*
X118533333Y-68986666D01*
X118466666Y-68953333D01*
X118999999Y-68520000D02*
X119266666Y-68520000D01*
X119099999Y-68286666D02*
X119099999Y-68886666D01*
X119133333Y-68953333D01*
X119199999Y-68986666D01*
X119266666Y-68986666D01*
X119599999Y-68986666D02*
X119533333Y-68953333D01*
X119499999Y-68920000D01*
X119466666Y-68853333D01*
X119466666Y-68653333D01*
X119499999Y-68586666D01*
X119533333Y-68553333D01*
X119599999Y-68520000D01*
X119699999Y-68520000D01*
X119766666Y-68553333D01*
X119799999Y-68586666D01*
X119833333Y-68653333D01*
X119833333Y-68853333D01*
X119799999Y-68920000D01*
X119766666Y-68953333D01*
X119699999Y-68986666D01*
X119599999Y-68986666D01*
X120133333Y-68986666D02*
X120133333Y-68286666D01*
X120433333Y-68953333D02*
X120499999Y-68986666D01*
X120633333Y-68986666D01*
X120699999Y-68953333D01*
X120733333Y-68886666D01*
X120733333Y-68853333D01*
X120699999Y-68786666D01*
X120633333Y-68753333D01*
X120533333Y-68753333D01*
X120466666Y-68720000D01*
X120433333Y-68653333D01*
X120433333Y-68620000D01*
X120466666Y-68553333D01*
X120533333Y-68520000D01*
X120633333Y-68520000D01*
X120699999Y-68553333D01*
X121133333Y-68986666D02*
X121066666Y-68953333D01*
X121033333Y-68920000D01*
X120999999Y-68853333D01*
X120999999Y-68653333D01*
X121033333Y-68586666D01*
X121066666Y-68553333D01*
X121133333Y-68520000D01*
X121233333Y-68520000D01*
X121299999Y-68553333D01*
X121333333Y-68586666D01*
X121366666Y-68653333D01*
X121366666Y-68853333D01*
X121333333Y-68920000D01*
X121299999Y-68953333D01*
X121233333Y-68986666D01*
X121133333Y-68986666D01*
X121766666Y-68986666D02*
X121699999Y-68953333D01*
X121666666Y-68886666D01*
X121666666Y-68286666D01*
X122333333Y-68986666D02*
X122333333Y-68620000D01*
X122299999Y-68553333D01*
X122233333Y-68520000D01*
X122099999Y-68520000D01*
X122033333Y-68553333D01*
X122333333Y-68953333D02*
X122266666Y-68986666D01*
X122099999Y-68986666D01*
X122033333Y-68953333D01*
X121999999Y-68886666D01*
X121999999Y-68820000D01*
X122033333Y-68753333D01*
X122099999Y-68720000D01*
X122266666Y-68720000D01*
X122333333Y-68686666D01*
X122566666Y-68520000D02*
X122833333Y-68520000D01*
X122666666Y-68286666D02*
X122666666Y-68886666D01*
X122699999Y-68953333D01*
X122766666Y-68986666D01*
X122833333Y-68986666D01*
X123333333Y-68953333D02*
X123266666Y-68986666D01*
X123133333Y-68986666D01*
X123066666Y-68953333D01*
X123033333Y-68886666D01*
X123033333Y-68620000D01*
X123066666Y-68553333D01*
X123133333Y-68520000D01*
X123266666Y-68520000D01*
X123333333Y-68553333D01*
X123366666Y-68620000D01*
X123366666Y-68686666D01*
X123033333Y-68753333D01*
X123966666Y-68986666D02*
X123966666Y-68286666D01*
X123966666Y-68953333D02*
X123899999Y-68986666D01*
X123766666Y-68986666D01*
X123699999Y-68953333D01*
X123666666Y-68920000D01*
X123633333Y-68853333D01*
X123633333Y-68653333D01*
X123666666Y-68586666D01*
X123699999Y-68553333D01*
X123766666Y-68520000D01*
X123899999Y-68520000D01*
X123966666Y-68553333D01*
X125066666Y-68620000D02*
X124833333Y-68620000D01*
X124833333Y-68986666D02*
X124833333Y-68286666D01*
X125166666Y-68286666D01*
X125433333Y-68620000D02*
X125666666Y-68620000D01*
X125766666Y-68986666D02*
X125433333Y-68986666D01*
X125433333Y-68286666D01*
X125766666Y-68286666D01*
X125966666Y-68286666D02*
X126366666Y-68286666D01*
X126166666Y-68986666D02*
X126166666Y-68286666D01*
X127133333Y-68986666D02*
X127133333Y-68286666D01*
X127299999Y-68286666D01*
X127399999Y-68320000D01*
X127466666Y-68386666D01*
X127499999Y-68453333D01*
X127533333Y-68586666D01*
X127533333Y-68686666D01*
X127499999Y-68820000D01*
X127466666Y-68886666D01*
X127399999Y-68953333D01*
X127299999Y-68986666D01*
X127133333Y-68986666D01*
X127833333Y-68986666D02*
X127833333Y-68520000D01*
X127833333Y-68653333D02*
X127866666Y-68586666D01*
X127899999Y-68553333D01*
X127966666Y-68520000D01*
X128033333Y-68520000D01*
X128266666Y-68986666D02*
X128266666Y-68520000D01*
X128266666Y-68286666D02*
X128233333Y-68320000D01*
X128266666Y-68353333D01*
X128299999Y-68320000D01*
X128266666Y-68286666D01*
X128266666Y-68353333D01*
X128533333Y-68520000D02*
X128699999Y-68986666D01*
X128866666Y-68520000D01*
X129400000Y-68953333D02*
X129333333Y-68986666D01*
X129200000Y-68986666D01*
X129133333Y-68953333D01*
X129100000Y-68886666D01*
X129100000Y-68620000D01*
X129133333Y-68553333D01*
X129200000Y-68520000D01*
X129333333Y-68520000D01*
X129400000Y-68553333D01*
X129433333Y-68620000D01*
X129433333Y-68686666D01*
X129100000Y-68753333D01*
X129733333Y-68986666D02*
X129733333Y-68520000D01*
X129733333Y-68653333D02*
X129766666Y-68586666D01*
X129800000Y-68553333D01*
X129866666Y-68520000D01*
X129933333Y-68520000D01*
X130700000Y-68720000D02*
X131233333Y-68720000D01*
X132066666Y-68353333D02*
X132100000Y-68320000D01*
X132166666Y-68286666D01*
X132333333Y-68286666D01*
X132400000Y-68320000D01*
X132433333Y-68353333D01*
X132466666Y-68420000D01*
X132466666Y-68486666D01*
X132433333Y-68586666D01*
X132033333Y-68986666D01*
X132466666Y-68986666D01*
X132900000Y-68286666D02*
X132966666Y-68286666D01*
X133033333Y-68320000D01*
X133066666Y-68353333D01*
X133100000Y-68420000D01*
X133133333Y-68553333D01*
X133133333Y-68720000D01*
X133100000Y-68853333D01*
X133066666Y-68920000D01*
X133033333Y-68953333D01*
X132966666Y-68986666D01*
X132900000Y-68986666D01*
X132833333Y-68953333D01*
X132800000Y-68920000D01*
X132766666Y-68853333D01*
X132733333Y-68720000D01*
X132733333Y-68553333D01*
X132766666Y-68420000D01*
X132800000Y-68353333D01*
X132833333Y-68320000D01*
X132900000Y-68286666D01*
X133400000Y-68786666D02*
X133733333Y-68786666D01*
X133333333Y-68986666D02*
X133566666Y-68286666D01*
X133800000Y-68986666D01*
X134533333Y-68253333D02*
X133933333Y-69153333D01*
X135133333Y-68986666D02*
X134733333Y-68986666D01*
X134933333Y-68986666D02*
X134933333Y-68286666D01*
X134866666Y-68386666D01*
X134800000Y-68453333D01*
X134733333Y-68486666D01*
X135400000Y-68353333D02*
X135433333Y-68320000D01*
X135500000Y-68286666D01*
X135666666Y-68286666D01*
X135733333Y-68320000D01*
X135766666Y-68353333D01*
X135800000Y-68420000D01*
X135800000Y-68486666D01*
X135766666Y-68586666D01*
X135366666Y-68986666D01*
X135800000Y-68986666D01*
X136000000Y-68286666D02*
X136233333Y-68986666D01*
X136466666Y-68286666D01*
D11*
X120000000Y-88000000D02*
X108000000Y-88000000D01*
X120000000Y-93000000D02*
X120000000Y-88000000D01*
D10*
X132870000Y-87100000D02*
X132803333Y-87066666D01*
X132703333Y-87066666D01*
X132603333Y-87100000D01*
X132536666Y-87166666D01*
X132503333Y-87233333D01*
X132470000Y-87366666D01*
X132470000Y-87466666D01*
X132503333Y-87600000D01*
X132536666Y-87666666D01*
X132603333Y-87733333D01*
X132703333Y-87766666D01*
X132770000Y-87766666D01*
X132870000Y-87733333D01*
X132903333Y-87700000D01*
X132903333Y-87466666D01*
X132770000Y-87466666D01*
X133203333Y-87766666D02*
X133203333Y-87066666D01*
X133470000Y-87066666D01*
X133536666Y-87100000D01*
X133570000Y-87133333D01*
X133603333Y-87200000D01*
X133603333Y-87300000D01*
X133570000Y-87366666D01*
X133536666Y-87400000D01*
X133470000Y-87433333D01*
X133203333Y-87433333D01*
X133903333Y-87766666D02*
X133903333Y-87066666D01*
X134370000Y-87066666D02*
X134503333Y-87066666D01*
X134570000Y-87100000D01*
X134636666Y-87166666D01*
X134670000Y-87300000D01*
X134670000Y-87533333D01*
X134636666Y-87666666D01*
X134570000Y-87733333D01*
X134503333Y-87766666D01*
X134370000Y-87766666D01*
X134303333Y-87733333D01*
X134236666Y-87666666D01*
X134203333Y-87533333D01*
X134203333Y-87300000D01*
X134236666Y-87166666D01*
X134303333Y-87100000D01*
X134370000Y-87066666D01*
X135656666Y-87070000D02*
X135590000Y-87036666D01*
X135490000Y-87036666D01*
X135390000Y-87070000D01*
X135323333Y-87136666D01*
X135290000Y-87203333D01*
X135256666Y-87336666D01*
X135256666Y-87436666D01*
X135290000Y-87570000D01*
X135323333Y-87636666D01*
X135390000Y-87703333D01*
X135490000Y-87736666D01*
X135556666Y-87736666D01*
X135656666Y-87703333D01*
X135690000Y-87670000D01*
X135690000Y-87436666D01*
X135556666Y-87436666D01*
X135990000Y-87736666D02*
X135990000Y-87036666D01*
X136390000Y-87736666D01*
X136390000Y-87036666D01*
X136723333Y-87736666D02*
X136723333Y-87036666D01*
X136890000Y-87036666D01*
X136990000Y-87070000D01*
X137056666Y-87136666D01*
X137090000Y-87203333D01*
X137123333Y-87336666D01*
X137123333Y-87436666D01*
X137090000Y-87570000D01*
X137056666Y-87636666D01*
X136990000Y-87703333D01*
X136890000Y-87736666D01*
X136723333Y-87736666D01*
X137883333Y-87036666D02*
X138316666Y-87036666D01*
X138083333Y-87303333D01*
X138183333Y-87303333D01*
X138250000Y-87336666D01*
X138283333Y-87370000D01*
X138316666Y-87436666D01*
X138316666Y-87603333D01*
X138283333Y-87670000D01*
X138250000Y-87703333D01*
X138183333Y-87736666D01*
X137983333Y-87736666D01*
X137916666Y-87703333D01*
X137883333Y-87670000D01*
X138516666Y-87036666D02*
X138750000Y-87736666D01*
X138983333Y-87036666D01*
X139150000Y-87036666D02*
X139583333Y-87036666D01*
X139350000Y-87303333D01*
X139450000Y-87303333D01*
X139516666Y-87336666D01*
X139550000Y-87370000D01*
X139583333Y-87436666D01*
X139583333Y-87603333D01*
X139550000Y-87670000D01*
X139516666Y-87703333D01*
X139450000Y-87736666D01*
X139250000Y-87736666D01*
X139183333Y-87703333D01*
X139150000Y-87670000D01*
D11*
X108000000Y-73000000D02*
X108000000Y-88000000D01*
X140000000Y-93000000D02*
X140000000Y-73000000D01*
X120000000Y-93000000D02*
X140000000Y-93000000D01*
D12*
%TO.C,R105*%
X136236359Y-82700000D02*
X136543641Y-82700000D01*
X136236359Y-83460000D02*
X136543641Y-83460000D01*
%TO.C,J101*%
X139330000Y-90390000D02*
X121430000Y-90390000D01*
X121430000Y-90390000D02*
X121430000Y-93050000D01*
X121430000Y-93050000D02*
X139330000Y-93050000D01*
X139330000Y-93050000D02*
X139330000Y-90390000D01*
X138380000Y-93050000D02*
X138380000Y-99050000D01*
X138380000Y-99050000D02*
X137620000Y-99050000D01*
X137620000Y-99050000D02*
X137620000Y-93050000D01*
X138320000Y-93050000D02*
X138320000Y-99050000D01*
X138200000Y-93050000D02*
X138200000Y-99050000D01*
X138080000Y-93050000D02*
X138080000Y-99050000D01*
X137960000Y-93050000D02*
X137960000Y-99050000D01*
X137840000Y-93050000D02*
X137840000Y-99050000D01*
X137720000Y-93050000D02*
X137720000Y-99050000D01*
X138380000Y-90060000D02*
X138380000Y-90390000D01*
X137620000Y-90060000D02*
X137620000Y-90390000D01*
X136730000Y-90390000D02*
X136730000Y-93050000D01*
X135840000Y-93050000D02*
X135840000Y-99050000D01*
X135840000Y-99050000D02*
X135080000Y-99050000D01*
X135080000Y-99050000D02*
X135080000Y-93050000D01*
X135840000Y-89992929D02*
X135840000Y-90390000D01*
X135080000Y-89992929D02*
X135080000Y-90390000D01*
X134190000Y-90390000D02*
X134190000Y-93050000D01*
X133300000Y-93050000D02*
X133300000Y-99050000D01*
X133300000Y-99050000D02*
X132540000Y-99050000D01*
X132540000Y-99050000D02*
X132540000Y-93050000D01*
X133300000Y-89992929D02*
X133300000Y-90390000D01*
X132540000Y-89992929D02*
X132540000Y-90390000D01*
X131650000Y-90390000D02*
X131650000Y-93050000D01*
X130760000Y-93050000D02*
X130760000Y-99050000D01*
X130760000Y-99050000D02*
X130000000Y-99050000D01*
X130000000Y-99050000D02*
X130000000Y-93050000D01*
X130760000Y-89992929D02*
X130760000Y-90390000D01*
X130000000Y-89992929D02*
X130000000Y-90390000D01*
X129110000Y-90390000D02*
X129110000Y-93050000D01*
X128220000Y-93050000D02*
X128220000Y-99050000D01*
X128220000Y-99050000D02*
X127460000Y-99050000D01*
X127460000Y-99050000D02*
X127460000Y-93050000D01*
X128220000Y-89992929D02*
X128220000Y-90390000D01*
X127460000Y-89992929D02*
X127460000Y-90390000D01*
X126570000Y-90390000D02*
X126570000Y-93050000D01*
X125680000Y-93050000D02*
X125680000Y-99050000D01*
X125680000Y-99050000D02*
X124920000Y-99050000D01*
X124920000Y-99050000D02*
X124920000Y-93050000D01*
X125680000Y-89992929D02*
X125680000Y-90390000D01*
X124920000Y-89992929D02*
X124920000Y-90390000D01*
X124030000Y-90390000D02*
X124030000Y-93050000D01*
X123140000Y-93050000D02*
X123140000Y-99050000D01*
X123140000Y-99050000D02*
X122380000Y-99050000D01*
X122380000Y-99050000D02*
X122380000Y-93050000D01*
X123140000Y-89992929D02*
X123140000Y-90390000D01*
X122380000Y-89992929D02*
X122380000Y-90390000D01*
X138000000Y-87680000D02*
X139270000Y-87680000D01*
X139270000Y-87680000D02*
X139270000Y-88950000D01*
%TO.C,D102*%
X137935000Y-83280000D02*
X137935000Y-85565000D01*
X137935000Y-85565000D02*
X139405000Y-85565000D01*
X139405000Y-85565000D02*
X139405000Y-83280000D01*
%TO.C,J102*%
X115230000Y-68500000D02*
X105810000Y-68500000D01*
X105810000Y-68500000D02*
X105810000Y-81540000D01*
X105810000Y-81540000D02*
X115230000Y-81540000D01*
X115230000Y-68500000D02*
X115230000Y-70160000D01*
X115230000Y-81540000D02*
X115230000Y-79880000D01*
X115230000Y-72260000D02*
X115230000Y-73970000D01*
X115230000Y-76070000D02*
X115230000Y-77780000D01*
X109120000Y-68500000D02*
X109120000Y-81540000D01*
X116520000Y-71510000D02*
X115920000Y-71210000D01*
X115920000Y-71210000D02*
X116520000Y-70910000D01*
X116520000Y-70910000D02*
X116520000Y-71510000D01*
%TO.C,R901*%
X133212742Y-83472500D02*
X133687258Y-83472500D01*
X133212742Y-82427500D02*
X133687258Y-82427500D01*
%TO.C,C101*%
X125910000Y-85957836D02*
X125910000Y-85742164D01*
X125190000Y-85957836D02*
X125190000Y-85742164D01*
%TO.C,U603*%
X127720000Y-86210000D02*
X127720000Y-84750000D01*
X130880000Y-86210000D02*
X130880000Y-84050000D01*
X130880000Y-86210000D02*
X129950000Y-86210000D01*
X127720000Y-86210000D02*
X128650000Y-86210000D01*
%TO.C,R104*%
X118937500Y-82792742D02*
X118937500Y-83267258D01*
X119982500Y-82792742D02*
X119982500Y-83267258D01*
%TO.C,R103*%
X118947500Y-85872742D02*
X118947500Y-86347258D01*
X119992500Y-85872742D02*
X119992500Y-86347258D01*
%TO.C,R101*%
X121977500Y-78512742D02*
X121977500Y-78987258D01*
X123022500Y-78512742D02*
X123022500Y-78987258D01*
%TO.C,C605*%
X126290000Y-85434420D02*
X126290000Y-85715580D01*
X127310000Y-85434420D02*
X127310000Y-85715580D01*
%TO.C,C603*%
X132835000Y-85711252D02*
X132835000Y-85188748D01*
X131365000Y-85711252D02*
X131365000Y-85188748D01*
%TO.C,C102*%
X117770000Y-82032164D02*
X117770000Y-82247836D01*
X118490000Y-82032164D02*
X118490000Y-82247836D01*
%TO.C,Q101*%
X128675000Y-78290000D02*
X127575000Y-78290000D01*
X128675000Y-80100000D02*
X128675000Y-78290000D01*
X130175000Y-80100000D02*
X128675000Y-80100000D01*
X128675000Y-71510000D02*
X123550000Y-71510000D01*
X128675000Y-69700000D02*
X128675000Y-71510000D01*
X130175000Y-69700000D02*
X128675000Y-69700000D01*
%TO.C,U102*%
X116440000Y-77350000D02*
X116440000Y-79300000D01*
X116440000Y-77350000D02*
X116440000Y-75400000D01*
X121560000Y-77350000D02*
X121560000Y-79300000D01*
X121560000Y-77350000D02*
X121560000Y-73900000D01*
%TO.C,U101*%
X129860000Y-83345000D02*
X131550000Y-83345000D01*
X129860000Y-83560000D02*
X129860000Y-83345000D01*
X127550000Y-83560000D02*
X129860000Y-83560000D01*
X125240000Y-83560000D02*
X125240000Y-83345000D01*
X127550000Y-83560000D02*
X125240000Y-83560000D01*
X129860000Y-80740000D02*
X129860000Y-80955000D01*
X127550000Y-80740000D02*
X129860000Y-80740000D01*
X125240000Y-80740000D02*
X125240000Y-80955000D01*
X127550000Y-80740000D02*
X125240000Y-80740000D01*
%TO.C,R102*%
X122972500Y-71787258D02*
X122972500Y-71312742D01*
X121927500Y-71787258D02*
X121927500Y-71312742D01*
%TO.C,D101*%
X120750000Y-72500000D02*
X116900000Y-72500000D01*
X120750000Y-70500000D02*
X116900000Y-70500000D01*
X120750000Y-72500000D02*
X120750000Y-70500000D01*
%TD*%
%TO.C,J101*%
D10*
X139722380Y-94620714D02*
X140436666Y-94620714D01*
X140579523Y-94668333D01*
X140674761Y-94763571D01*
X140722380Y-94906428D01*
X140722380Y-95001666D01*
X140722380Y-93620714D02*
X140722380Y-94192142D01*
X140722380Y-93906428D02*
X139722380Y-93906428D01*
X139865238Y-94001666D01*
X139960476Y-94096904D01*
X140008095Y-94192142D01*
X139722380Y-93001666D02*
X139722380Y-92906428D01*
X139770000Y-92811190D01*
X139817619Y-92763571D01*
X139912857Y-92715952D01*
X140103333Y-92668333D01*
X140341428Y-92668333D01*
X140531904Y-92715952D01*
X140627142Y-92763571D01*
X140674761Y-92811190D01*
X140722380Y-92906428D01*
X140722380Y-93001666D01*
X140674761Y-93096904D01*
X140627142Y-93144523D01*
X140531904Y-93192142D01*
X140341428Y-93239761D01*
X140103333Y-93239761D01*
X139912857Y-93192142D01*
X139817619Y-93144523D01*
X139770000Y-93096904D01*
X139722380Y-93001666D01*
X140722380Y-91715952D02*
X140722380Y-92287380D01*
X140722380Y-92001666D02*
X139722380Y-92001666D01*
X139865238Y-92096904D01*
X139960476Y-92192142D01*
X140008095Y-92287380D01*
%TD*%
M02*
