%TF.GenerationSoftware,KiCad,Pcbnew,(5.1.8-0-10_14)*%
%TF.CreationDate,2020-11-27T12:30:10+01:00*%
%TF.ProjectId,FET_Driver,4645545f-4472-4697-9665-722e6b696361,rev?*%
%TF.SameCoordinates,Original*%
%TF.FileFunction,Copper,L2,Bot*%
%TF.FilePolarity,Positive*%
%FSLAX46Y46*%
G04 Gerber Fmt 4.6, Leading zero omitted, Abs format (unit mm)*
G04 Created by KiCad (PCBNEW (5.1.8-0-10_14)) date 2020-11-27 12:30:10*
%MOMM*%
%LPD*%
G01*
G04 APERTURE LIST*
%TA.AperFunction,Profile*%
%ADD10C,0.050000*%
%TD*%
%TA.AperFunction,ComponentPad*%
%ADD11O,1.700000X1.700000*%
%TD*%
%TA.AperFunction,ComponentPad*%
%ADD12R,1.700000X1.700000*%
%TD*%
%TA.AperFunction,ComponentPad*%
%ADD13O,3.600000X1.800000*%
%TD*%
%TA.AperFunction,ViaPad*%
%ADD14C,0.800000*%
%TD*%
%TA.AperFunction,Conductor*%
%ADD15C,0.600000*%
%TD*%
%TA.AperFunction,Conductor*%
%ADD16C,0.254000*%
%TD*%
%TA.AperFunction,Conductor*%
%ADD17C,0.100000*%
%TD*%
G04 APERTURE END LIST*
D10*
X140000000Y-68000000D02*
X140000000Y-73000000D01*
X108000000Y-68000000D02*
X140000000Y-68000000D01*
X108000000Y-73000000D02*
X108000000Y-68000000D01*
X120000000Y-88000000D02*
X108000000Y-88000000D01*
X120000000Y-93000000D02*
X120000000Y-88000000D01*
X108000000Y-73000000D02*
X108000000Y-88000000D01*
X140000000Y-93000000D02*
X140000000Y-73000000D01*
X120000000Y-93000000D02*
X140000000Y-93000000D01*
D11*
%TO.P,J101,7*%
%TO.N,GND*%
X122760000Y-88950000D03*
%TO.P,J101,6*%
%TO.N,/Sense*%
X125300000Y-88950000D03*
%TO.P,J101,5*%
%TO.N,N/C*%
X127840000Y-88950000D03*
%TO.P,J101,4*%
%TO.N,/VIN*%
X130380000Y-88950000D03*
%TO.P,J101,3*%
%TO.N,/GPIO*%
X132920000Y-88950000D03*
%TO.P,J101,2*%
%TO.N,GND*%
X135460000Y-88950000D03*
D12*
%TO.P,J101,1*%
%TO.N,N/C*%
X138000000Y-88950000D03*
%TD*%
D13*
%TO.P,J102,3*%
%TO.N,/ISO_VIN*%
X113920000Y-78830000D03*
%TO.P,J102,2*%
%TO.N,/ISO_OUT*%
X113920000Y-75020000D03*
%TO.P,J102,1*%
%TO.N,/ISO_GND*%
%TA.AperFunction,ComponentPad*%
G36*
G01*
X112370000Y-70310000D02*
X115470000Y-70310000D01*
G75*
G02*
X115720000Y-70560000I0J-250000D01*
G01*
X115720000Y-71860000D01*
G75*
G02*
X115470000Y-72110000I-250000J0D01*
G01*
X112370000Y-72110000D01*
G75*
G02*
X112120000Y-71860000I0J250000D01*
G01*
X112120000Y-70560000D01*
G75*
G02*
X112370000Y-70310000I250000J0D01*
G01*
G37*
%TD.AperFunction*%
%TD*%
D14*
%TO.N,GND*%
X133250000Y-84550000D03*
X124650000Y-86800000D03*
X117470000Y-83700000D03*
X132450000Y-81540000D03*
%TO.N,/ISO_GND*%
X124750000Y-80400000D03*
X117190000Y-69860000D03*
%TO.N,Net-(R101-Pad2)*%
X129300000Y-76900000D03*
X129300000Y-72850000D03*
%TD*%
D15*
%TO.N,Net-(R101-Pad2)*%
X129300000Y-76900000D02*
X129300000Y-72850000D01*
%TD*%
D16*
%TO.N,GND*%
X121113007Y-83978622D02*
X121115179Y-84003424D01*
X121122147Y-84027325D01*
X121133644Y-84049408D01*
X121149228Y-84068823D01*
X121168301Y-84084825D01*
X121190129Y-84096799D01*
X121213874Y-84104284D01*
X121240000Y-84107000D01*
X129440000Y-84107000D01*
X129464776Y-84104560D01*
X129488601Y-84097333D01*
X129510557Y-84085597D01*
X129529803Y-84069803D01*
X129545597Y-84050557D01*
X129557333Y-84028601D01*
X129564560Y-84004776D01*
X129566977Y-83982396D01*
X129624626Y-80927000D01*
X133123000Y-80927000D01*
X133123000Y-81900000D01*
X133125440Y-81924776D01*
X133132667Y-81948601D01*
X133144403Y-81970557D01*
X133160197Y-81989803D01*
X133179443Y-82005597D01*
X133201399Y-82017333D01*
X133225224Y-82024560D01*
X133250000Y-82027000D01*
X139340000Y-82027000D01*
X139340000Y-87696112D01*
X139301185Y-87648815D01*
X139204494Y-87569463D01*
X139094180Y-87510498D01*
X138974482Y-87474188D01*
X138850000Y-87461928D01*
X137150000Y-87461928D01*
X137025518Y-87474188D01*
X136905820Y-87510498D01*
X136795506Y-87569463D01*
X136698815Y-87648815D01*
X136619463Y-87745506D01*
X136560498Y-87855820D01*
X136524188Y-87975518D01*
X136511928Y-88100000D01*
X136511928Y-89800000D01*
X136524188Y-89924482D01*
X136560498Y-90044180D01*
X136619463Y-90154494D01*
X136698815Y-90251185D01*
X136795506Y-90330537D01*
X136905820Y-90389502D01*
X137025518Y-90425812D01*
X137150000Y-90438072D01*
X138850000Y-90438072D01*
X138974482Y-90425812D01*
X139094180Y-90389502D01*
X139204494Y-90330537D01*
X139301185Y-90251185D01*
X139340000Y-90203888D01*
X139340000Y-92340000D01*
X120660000Y-92340000D01*
X120660000Y-88803740D01*
X123815000Y-88803740D01*
X123815000Y-89096260D01*
X123872068Y-89383158D01*
X123984010Y-89653411D01*
X124146525Y-89896632D01*
X124353368Y-90103475D01*
X124596589Y-90265990D01*
X124866842Y-90377932D01*
X125153740Y-90435000D01*
X125446260Y-90435000D01*
X125733158Y-90377932D01*
X126003411Y-90265990D01*
X126246632Y-90103475D01*
X126453475Y-89896632D01*
X126570000Y-89722240D01*
X126686525Y-89896632D01*
X126893368Y-90103475D01*
X127136589Y-90265990D01*
X127406842Y-90377932D01*
X127693740Y-90435000D01*
X127986260Y-90435000D01*
X128273158Y-90377932D01*
X128543411Y-90265990D01*
X128786632Y-90103475D01*
X128993475Y-89896632D01*
X129110000Y-89722240D01*
X129226525Y-89896632D01*
X129433368Y-90103475D01*
X129676589Y-90265990D01*
X129946842Y-90377932D01*
X130233740Y-90435000D01*
X130526260Y-90435000D01*
X130813158Y-90377932D01*
X131083411Y-90265990D01*
X131326632Y-90103475D01*
X131533475Y-89896632D01*
X131650000Y-89722240D01*
X131766525Y-89896632D01*
X131973368Y-90103475D01*
X132216589Y-90265990D01*
X132486842Y-90377932D01*
X132773740Y-90435000D01*
X133066260Y-90435000D01*
X133353158Y-90377932D01*
X133623411Y-90265990D01*
X133866632Y-90103475D01*
X134073475Y-89896632D01*
X134235990Y-89653411D01*
X134347932Y-89383158D01*
X134405000Y-89096260D01*
X134405000Y-88803740D01*
X134347932Y-88516842D01*
X134235990Y-88246589D01*
X134073475Y-88003368D01*
X133866632Y-87796525D01*
X133623411Y-87634010D01*
X133353158Y-87522068D01*
X133066260Y-87465000D01*
X132773740Y-87465000D01*
X132486842Y-87522068D01*
X132216589Y-87634010D01*
X131973368Y-87796525D01*
X131766525Y-88003368D01*
X131650000Y-88177760D01*
X131533475Y-88003368D01*
X131326632Y-87796525D01*
X131083411Y-87634010D01*
X130813158Y-87522068D01*
X130526260Y-87465000D01*
X130233740Y-87465000D01*
X129946842Y-87522068D01*
X129676589Y-87634010D01*
X129433368Y-87796525D01*
X129226525Y-88003368D01*
X129110000Y-88177760D01*
X128993475Y-88003368D01*
X128786632Y-87796525D01*
X128543411Y-87634010D01*
X128273158Y-87522068D01*
X127986260Y-87465000D01*
X127693740Y-87465000D01*
X127406842Y-87522068D01*
X127136589Y-87634010D01*
X126893368Y-87796525D01*
X126686525Y-88003368D01*
X126570000Y-88177760D01*
X126453475Y-88003368D01*
X126246632Y-87796525D01*
X126003411Y-87634010D01*
X125733158Y-87522068D01*
X125446260Y-87465000D01*
X125153740Y-87465000D01*
X124866842Y-87522068D01*
X124596589Y-87634010D01*
X124353368Y-87796525D01*
X124146525Y-88003368D01*
X123984010Y-88246589D01*
X123872068Y-88516842D01*
X123815000Y-88803740D01*
X120660000Y-88803740D01*
X120660000Y-88032419D01*
X120663193Y-88000000D01*
X120650450Y-87870617D01*
X120612710Y-87746207D01*
X120551425Y-87631550D01*
X120468948Y-87531052D01*
X120368450Y-87448575D01*
X120253793Y-87387290D01*
X120129383Y-87349550D01*
X120032419Y-87340000D01*
X120000000Y-87336807D01*
X119967581Y-87340000D01*
X108660000Y-87340000D01*
X108660000Y-83377000D01*
X116600000Y-83377000D01*
X116624776Y-83374560D01*
X116648601Y-83367333D01*
X116670557Y-83355597D01*
X116689803Y-83339803D01*
X116705597Y-83320557D01*
X116717333Y-83298601D01*
X116724560Y-83274776D01*
X116727000Y-83250000D01*
X116727000Y-78577000D01*
X121171614Y-78577000D01*
X121113007Y-83978622D01*
%TA.AperFunction,Conductor*%
D17*
G36*
X121113007Y-83978622D02*
G01*
X121115179Y-84003424D01*
X121122147Y-84027325D01*
X121133644Y-84049408D01*
X121149228Y-84068823D01*
X121168301Y-84084825D01*
X121190129Y-84096799D01*
X121213874Y-84104284D01*
X121240000Y-84107000D01*
X129440000Y-84107000D01*
X129464776Y-84104560D01*
X129488601Y-84097333D01*
X129510557Y-84085597D01*
X129529803Y-84069803D01*
X129545597Y-84050557D01*
X129557333Y-84028601D01*
X129564560Y-84004776D01*
X129566977Y-83982396D01*
X129624626Y-80927000D01*
X133123000Y-80927000D01*
X133123000Y-81900000D01*
X133125440Y-81924776D01*
X133132667Y-81948601D01*
X133144403Y-81970557D01*
X133160197Y-81989803D01*
X133179443Y-82005597D01*
X133201399Y-82017333D01*
X133225224Y-82024560D01*
X133250000Y-82027000D01*
X139340000Y-82027000D01*
X139340000Y-87696112D01*
X139301185Y-87648815D01*
X139204494Y-87569463D01*
X139094180Y-87510498D01*
X138974482Y-87474188D01*
X138850000Y-87461928D01*
X137150000Y-87461928D01*
X137025518Y-87474188D01*
X136905820Y-87510498D01*
X136795506Y-87569463D01*
X136698815Y-87648815D01*
X136619463Y-87745506D01*
X136560498Y-87855820D01*
X136524188Y-87975518D01*
X136511928Y-88100000D01*
X136511928Y-89800000D01*
X136524188Y-89924482D01*
X136560498Y-90044180D01*
X136619463Y-90154494D01*
X136698815Y-90251185D01*
X136795506Y-90330537D01*
X136905820Y-90389502D01*
X137025518Y-90425812D01*
X137150000Y-90438072D01*
X138850000Y-90438072D01*
X138974482Y-90425812D01*
X139094180Y-90389502D01*
X139204494Y-90330537D01*
X139301185Y-90251185D01*
X139340000Y-90203888D01*
X139340000Y-92340000D01*
X120660000Y-92340000D01*
X120660000Y-88803740D01*
X123815000Y-88803740D01*
X123815000Y-89096260D01*
X123872068Y-89383158D01*
X123984010Y-89653411D01*
X124146525Y-89896632D01*
X124353368Y-90103475D01*
X124596589Y-90265990D01*
X124866842Y-90377932D01*
X125153740Y-90435000D01*
X125446260Y-90435000D01*
X125733158Y-90377932D01*
X126003411Y-90265990D01*
X126246632Y-90103475D01*
X126453475Y-89896632D01*
X126570000Y-89722240D01*
X126686525Y-89896632D01*
X126893368Y-90103475D01*
X127136589Y-90265990D01*
X127406842Y-90377932D01*
X127693740Y-90435000D01*
X127986260Y-90435000D01*
X128273158Y-90377932D01*
X128543411Y-90265990D01*
X128786632Y-90103475D01*
X128993475Y-89896632D01*
X129110000Y-89722240D01*
X129226525Y-89896632D01*
X129433368Y-90103475D01*
X129676589Y-90265990D01*
X129946842Y-90377932D01*
X130233740Y-90435000D01*
X130526260Y-90435000D01*
X130813158Y-90377932D01*
X131083411Y-90265990D01*
X131326632Y-90103475D01*
X131533475Y-89896632D01*
X131650000Y-89722240D01*
X131766525Y-89896632D01*
X131973368Y-90103475D01*
X132216589Y-90265990D01*
X132486842Y-90377932D01*
X132773740Y-90435000D01*
X133066260Y-90435000D01*
X133353158Y-90377932D01*
X133623411Y-90265990D01*
X133866632Y-90103475D01*
X134073475Y-89896632D01*
X134235990Y-89653411D01*
X134347932Y-89383158D01*
X134405000Y-89096260D01*
X134405000Y-88803740D01*
X134347932Y-88516842D01*
X134235990Y-88246589D01*
X134073475Y-88003368D01*
X133866632Y-87796525D01*
X133623411Y-87634010D01*
X133353158Y-87522068D01*
X133066260Y-87465000D01*
X132773740Y-87465000D01*
X132486842Y-87522068D01*
X132216589Y-87634010D01*
X131973368Y-87796525D01*
X131766525Y-88003368D01*
X131650000Y-88177760D01*
X131533475Y-88003368D01*
X131326632Y-87796525D01*
X131083411Y-87634010D01*
X130813158Y-87522068D01*
X130526260Y-87465000D01*
X130233740Y-87465000D01*
X129946842Y-87522068D01*
X129676589Y-87634010D01*
X129433368Y-87796525D01*
X129226525Y-88003368D01*
X129110000Y-88177760D01*
X128993475Y-88003368D01*
X128786632Y-87796525D01*
X128543411Y-87634010D01*
X128273158Y-87522068D01*
X127986260Y-87465000D01*
X127693740Y-87465000D01*
X127406842Y-87522068D01*
X127136589Y-87634010D01*
X126893368Y-87796525D01*
X126686525Y-88003368D01*
X126570000Y-88177760D01*
X126453475Y-88003368D01*
X126246632Y-87796525D01*
X126003411Y-87634010D01*
X125733158Y-87522068D01*
X125446260Y-87465000D01*
X125153740Y-87465000D01*
X124866842Y-87522068D01*
X124596589Y-87634010D01*
X124353368Y-87796525D01*
X124146525Y-88003368D01*
X123984010Y-88246589D01*
X123872068Y-88516842D01*
X123815000Y-88803740D01*
X120660000Y-88803740D01*
X120660000Y-88032419D01*
X120663193Y-88000000D01*
X120650450Y-87870617D01*
X120612710Y-87746207D01*
X120551425Y-87631550D01*
X120468948Y-87531052D01*
X120368450Y-87448575D01*
X120253793Y-87387290D01*
X120129383Y-87349550D01*
X120032419Y-87340000D01*
X120000000Y-87336807D01*
X119967581Y-87340000D01*
X108660000Y-87340000D01*
X108660000Y-83377000D01*
X116600000Y-83377000D01*
X116624776Y-83374560D01*
X116648601Y-83367333D01*
X116670557Y-83355597D01*
X116689803Y-83339803D01*
X116705597Y-83320557D01*
X116717333Y-83298601D01*
X116724560Y-83274776D01*
X116727000Y-83250000D01*
X116727000Y-78577000D01*
X121171614Y-78577000D01*
X121113007Y-83978622D01*
G37*
%TD.AperFunction*%
%TD*%
D16*
%TO.N,/ISO_GND*%
X139340001Y-72967581D02*
X139340001Y-80153000D01*
X125295000Y-80153000D01*
X125270224Y-80155440D01*
X125246399Y-80162667D01*
X125224443Y-80174403D01*
X125205197Y-80190197D01*
X125189403Y-80209443D01*
X125177667Y-80231399D01*
X125170440Y-80255224D01*
X125168066Y-80284095D01*
X125253837Y-82943000D01*
X122160987Y-82943000D01*
X122120375Y-77873983D01*
X122117736Y-77849226D01*
X122110319Y-77825461D01*
X122098407Y-77803599D01*
X122082459Y-77784481D01*
X122063088Y-77768841D01*
X122041038Y-77757282D01*
X122017157Y-77750246D01*
X121993891Y-77748001D01*
X115891231Y-77723394D01*
X115676927Y-77547519D01*
X115410261Y-77404983D01*
X115120913Y-77317210D01*
X114895408Y-77295000D01*
X112944592Y-77295000D01*
X112719087Y-77317210D01*
X112429739Y-77404983D01*
X112163073Y-77547519D01*
X111929339Y-77739339D01*
X111737519Y-77973073D01*
X111594983Y-78239739D01*
X111507210Y-78529087D01*
X111477573Y-78830000D01*
X111507210Y-79130913D01*
X111594983Y-79420261D01*
X111737519Y-79686927D01*
X111929339Y-79920661D01*
X112163073Y-80112481D01*
X112429739Y-80255017D01*
X112719087Y-80342790D01*
X112944592Y-80365000D01*
X114895408Y-80365000D01*
X115120913Y-80342790D01*
X115410261Y-80255017D01*
X115666379Y-80118119D01*
X115666379Y-81673000D01*
X108660000Y-81673000D01*
X108660000Y-75020000D01*
X111477573Y-75020000D01*
X111507210Y-75320913D01*
X111594983Y-75610261D01*
X111737519Y-75876927D01*
X111929339Y-76110661D01*
X112163073Y-76302481D01*
X112429739Y-76445017D01*
X112719087Y-76532790D01*
X112944592Y-76555000D01*
X114895408Y-76555000D01*
X115120913Y-76532790D01*
X115410261Y-76445017D01*
X115676927Y-76302481D01*
X115910661Y-76110661D01*
X116102481Y-75876927D01*
X116245017Y-75610261D01*
X116332790Y-75320913D01*
X116362427Y-75020000D01*
X116332790Y-74719087D01*
X116245017Y-74429739D01*
X116102481Y-74163073D01*
X115910661Y-73929339D01*
X115676927Y-73737519D01*
X115410261Y-73594983D01*
X115120913Y-73507210D01*
X114895408Y-73485000D01*
X112944592Y-73485000D01*
X112719087Y-73507210D01*
X112429739Y-73594983D01*
X112163073Y-73737519D01*
X111929339Y-73929339D01*
X111737519Y-74163073D01*
X111594983Y-74429739D01*
X111507210Y-74719087D01*
X111477573Y-75020000D01*
X108660000Y-75020000D01*
X108660000Y-72748061D01*
X128265000Y-72748061D01*
X128265000Y-72951939D01*
X128304774Y-73151898D01*
X128365001Y-73297298D01*
X128365000Y-76452704D01*
X128304774Y-76598102D01*
X128265000Y-76798061D01*
X128265000Y-77001939D01*
X128304774Y-77201898D01*
X128382795Y-77390256D01*
X128496063Y-77559774D01*
X128640226Y-77703937D01*
X128809744Y-77817205D01*
X128998102Y-77895226D01*
X129198061Y-77935000D01*
X129401939Y-77935000D01*
X129601898Y-77895226D01*
X129790256Y-77817205D01*
X129959774Y-77703937D01*
X130103937Y-77559774D01*
X130217205Y-77390256D01*
X130295226Y-77201898D01*
X130335000Y-77001939D01*
X130335000Y-76798061D01*
X130295226Y-76598102D01*
X130235000Y-76452705D01*
X130235000Y-73297295D01*
X130295226Y-73151898D01*
X130335000Y-72951939D01*
X130335000Y-72748061D01*
X130295226Y-72548102D01*
X130217205Y-72359744D01*
X130103937Y-72190226D01*
X129959774Y-72046063D01*
X129790256Y-71932795D01*
X129601898Y-71854774D01*
X129401939Y-71815000D01*
X129198061Y-71815000D01*
X128998102Y-71854774D01*
X128809744Y-71932795D01*
X128640226Y-72046063D01*
X128496063Y-72190226D01*
X128382795Y-72359744D01*
X128304774Y-72548102D01*
X128265000Y-72748061D01*
X108660000Y-72748061D01*
X108660000Y-68660000D01*
X139340000Y-68660000D01*
X139340001Y-72967581D01*
%TA.AperFunction,Conductor*%
D17*
G36*
X139340001Y-72967581D02*
G01*
X139340001Y-80153000D01*
X125295000Y-80153000D01*
X125270224Y-80155440D01*
X125246399Y-80162667D01*
X125224443Y-80174403D01*
X125205197Y-80190197D01*
X125189403Y-80209443D01*
X125177667Y-80231399D01*
X125170440Y-80255224D01*
X125168066Y-80284095D01*
X125253837Y-82943000D01*
X122160987Y-82943000D01*
X122120375Y-77873983D01*
X122117736Y-77849226D01*
X122110319Y-77825461D01*
X122098407Y-77803599D01*
X122082459Y-77784481D01*
X122063088Y-77768841D01*
X122041038Y-77757282D01*
X122017157Y-77750246D01*
X121993891Y-77748001D01*
X115891231Y-77723394D01*
X115676927Y-77547519D01*
X115410261Y-77404983D01*
X115120913Y-77317210D01*
X114895408Y-77295000D01*
X112944592Y-77295000D01*
X112719087Y-77317210D01*
X112429739Y-77404983D01*
X112163073Y-77547519D01*
X111929339Y-77739339D01*
X111737519Y-77973073D01*
X111594983Y-78239739D01*
X111507210Y-78529087D01*
X111477573Y-78830000D01*
X111507210Y-79130913D01*
X111594983Y-79420261D01*
X111737519Y-79686927D01*
X111929339Y-79920661D01*
X112163073Y-80112481D01*
X112429739Y-80255017D01*
X112719087Y-80342790D01*
X112944592Y-80365000D01*
X114895408Y-80365000D01*
X115120913Y-80342790D01*
X115410261Y-80255017D01*
X115666379Y-80118119D01*
X115666379Y-81673000D01*
X108660000Y-81673000D01*
X108660000Y-75020000D01*
X111477573Y-75020000D01*
X111507210Y-75320913D01*
X111594983Y-75610261D01*
X111737519Y-75876927D01*
X111929339Y-76110661D01*
X112163073Y-76302481D01*
X112429739Y-76445017D01*
X112719087Y-76532790D01*
X112944592Y-76555000D01*
X114895408Y-76555000D01*
X115120913Y-76532790D01*
X115410261Y-76445017D01*
X115676927Y-76302481D01*
X115910661Y-76110661D01*
X116102481Y-75876927D01*
X116245017Y-75610261D01*
X116332790Y-75320913D01*
X116362427Y-75020000D01*
X116332790Y-74719087D01*
X116245017Y-74429739D01*
X116102481Y-74163073D01*
X115910661Y-73929339D01*
X115676927Y-73737519D01*
X115410261Y-73594983D01*
X115120913Y-73507210D01*
X114895408Y-73485000D01*
X112944592Y-73485000D01*
X112719087Y-73507210D01*
X112429739Y-73594983D01*
X112163073Y-73737519D01*
X111929339Y-73929339D01*
X111737519Y-74163073D01*
X111594983Y-74429739D01*
X111507210Y-74719087D01*
X111477573Y-75020000D01*
X108660000Y-75020000D01*
X108660000Y-72748061D01*
X128265000Y-72748061D01*
X128265000Y-72951939D01*
X128304774Y-73151898D01*
X128365001Y-73297298D01*
X128365000Y-76452704D01*
X128304774Y-76598102D01*
X128265000Y-76798061D01*
X128265000Y-77001939D01*
X128304774Y-77201898D01*
X128382795Y-77390256D01*
X128496063Y-77559774D01*
X128640226Y-77703937D01*
X128809744Y-77817205D01*
X128998102Y-77895226D01*
X129198061Y-77935000D01*
X129401939Y-77935000D01*
X129601898Y-77895226D01*
X129790256Y-77817205D01*
X129959774Y-77703937D01*
X130103937Y-77559774D01*
X130217205Y-77390256D01*
X130295226Y-77201898D01*
X130335000Y-77001939D01*
X130335000Y-76798061D01*
X130295226Y-76598102D01*
X130235000Y-76452705D01*
X130235000Y-73297295D01*
X130295226Y-73151898D01*
X130335000Y-72951939D01*
X130335000Y-72748061D01*
X130295226Y-72548102D01*
X130217205Y-72359744D01*
X130103937Y-72190226D01*
X129959774Y-72046063D01*
X129790256Y-71932795D01*
X129601898Y-71854774D01*
X129401939Y-71815000D01*
X129198061Y-71815000D01*
X128998102Y-71854774D01*
X128809744Y-71932795D01*
X128640226Y-72046063D01*
X128496063Y-72190226D01*
X128382795Y-72359744D01*
X128304774Y-72548102D01*
X128265000Y-72748061D01*
X108660000Y-72748061D01*
X108660000Y-68660000D01*
X139340000Y-68660000D01*
X139340001Y-72967581D01*
G37*
%TD.AperFunction*%
%TD*%
M02*
