%TF.GenerationSoftware,KiCad,Pcbnew,(5.1.8-0-10_14)*%
%TF.CreationDate,2020-11-27T12:30:10+01:00*%
%TF.ProjectId,FET_Driver,4645545f-4472-4697-9665-722e6b696361,rev?*%
%TF.SameCoordinates,Original*%
%TF.FileFunction,Copper,L1,Top*%
%TF.FilePolarity,Positive*%
%FSLAX46Y46*%
G04 Gerber Fmt 4.6, Leading zero omitted, Abs format (unit mm)*
G04 Created by KiCad (PCBNEW (5.1.8-0-10_14)) date 2020-11-27 12:30:10*
%MOMM*%
%LPD*%
G01*
G04 APERTURE LIST*
%TA.AperFunction,Profile*%
%ADD10C,0.050000*%
%TD*%
%TA.AperFunction,ComponentPad*%
%ADD11O,1.700000X1.700000*%
%TD*%
%TA.AperFunction,ComponentPad*%
%ADD12R,1.700000X1.700000*%
%TD*%
%TA.AperFunction,ComponentPad*%
%ADD13O,3.600000X1.800000*%
%TD*%
%TA.AperFunction,SMDPad,CuDef*%
%ADD14R,0.800000X0.900000*%
%TD*%
%TA.AperFunction,SMDPad,CuDef*%
%ADD15R,9.400000X10.800000*%
%TD*%
%TA.AperFunction,SMDPad,CuDef*%
%ADD16R,4.600000X1.100000*%
%TD*%
%TA.AperFunction,SMDPad,CuDef*%
%ADD17R,1.100000X1.100000*%
%TD*%
%TA.AperFunction,ViaPad*%
%ADD18C,0.800000*%
%TD*%
%TA.AperFunction,Conductor*%
%ADD19C,0.800000*%
%TD*%
%TA.AperFunction,Conductor*%
%ADD20C,0.600000*%
%TD*%
%TA.AperFunction,Conductor*%
%ADD21C,1.000000*%
%TD*%
%TA.AperFunction,Conductor*%
%ADD22C,2.300000*%
%TD*%
%TA.AperFunction,Conductor*%
%ADD23C,0.400000*%
%TD*%
%TA.AperFunction,Conductor*%
%ADD24C,0.254000*%
%TD*%
%TA.AperFunction,Conductor*%
%ADD25C,0.100000*%
%TD*%
G04 APERTURE END LIST*
D10*
X140000000Y-68000000D02*
X140000000Y-73000000D01*
X108000000Y-68000000D02*
X140000000Y-68000000D01*
X108000000Y-73000000D02*
X108000000Y-68000000D01*
X120000000Y-88000000D02*
X108000000Y-88000000D01*
X120000000Y-93000000D02*
X120000000Y-88000000D01*
X108000000Y-73000000D02*
X108000000Y-88000000D01*
X140000000Y-93000000D02*
X140000000Y-73000000D01*
X120000000Y-93000000D02*
X140000000Y-93000000D01*
%TO.P,R105,2*%
%TO.N,Net-(D102-Pad2)*%
%TA.AperFunction,SMDPad,CuDef*%
G36*
G01*
X136630000Y-83265000D02*
X136630000Y-82895000D01*
G75*
G02*
X136765000Y-82760000I135000J0D01*
G01*
X137035000Y-82760000D01*
G75*
G02*
X137170000Y-82895000I0J-135000D01*
G01*
X137170000Y-83265000D01*
G75*
G02*
X137035000Y-83400000I-135000J0D01*
G01*
X136765000Y-83400000D01*
G75*
G02*
X136630000Y-83265000I0J135000D01*
G01*
G37*
%TD.AperFunction*%
%TO.P,R105,1*%
%TO.N,/GPIO*%
%TA.AperFunction,SMDPad,CuDef*%
G36*
G01*
X135610000Y-83265000D02*
X135610000Y-82895000D01*
G75*
G02*
X135745000Y-82760000I135000J0D01*
G01*
X136015000Y-82760000D01*
G75*
G02*
X136150000Y-82895000I0J-135000D01*
G01*
X136150000Y-83265000D01*
G75*
G02*
X136015000Y-83400000I-135000J0D01*
G01*
X135745000Y-83400000D01*
G75*
G02*
X135610000Y-83265000I0J135000D01*
G01*
G37*
%TD.AperFunction*%
%TD*%
D11*
%TO.P,J101,7*%
%TO.N,GND*%
X122760000Y-88950000D03*
%TO.P,J101,6*%
%TO.N,/Sense*%
X125300000Y-88950000D03*
%TO.P,J101,5*%
%TO.N,N/C*%
X127840000Y-88950000D03*
%TO.P,J101,4*%
%TO.N,/VIN*%
X130380000Y-88950000D03*
%TO.P,J101,3*%
%TO.N,/GPIO*%
X132920000Y-88950000D03*
%TO.P,J101,2*%
%TO.N,GND*%
X135460000Y-88950000D03*
D12*
%TO.P,J101,1*%
%TO.N,N/C*%
X138000000Y-88950000D03*
%TD*%
%TO.P,D102,2*%
%TO.N,Net-(D102-Pad2)*%
%TA.AperFunction,SMDPad,CuDef*%
G36*
G01*
X138926250Y-83730000D02*
X138413750Y-83730000D01*
G75*
G02*
X138195000Y-83511250I0J218750D01*
G01*
X138195000Y-83073750D01*
G75*
G02*
X138413750Y-82855000I218750J0D01*
G01*
X138926250Y-82855000D01*
G75*
G02*
X139145000Y-83073750I0J-218750D01*
G01*
X139145000Y-83511250D01*
G75*
G02*
X138926250Y-83730000I-218750J0D01*
G01*
G37*
%TD.AperFunction*%
%TO.P,D102,1*%
%TO.N,GND*%
%TA.AperFunction,SMDPad,CuDef*%
G36*
G01*
X138926250Y-85305000D02*
X138413750Y-85305000D01*
G75*
G02*
X138195000Y-85086250I0J218750D01*
G01*
X138195000Y-84648750D01*
G75*
G02*
X138413750Y-84430000I218750J0D01*
G01*
X138926250Y-84430000D01*
G75*
G02*
X139145000Y-84648750I0J-218750D01*
G01*
X139145000Y-85086250D01*
G75*
G02*
X138926250Y-85305000I-218750J0D01*
G01*
G37*
%TD.AperFunction*%
%TD*%
D13*
%TO.P,J102,3*%
%TO.N,/ISO_VIN*%
X113920000Y-78830000D03*
%TO.P,J102,2*%
%TO.N,/ISO_OUT*%
X113920000Y-75020000D03*
%TO.P,J102,1*%
%TO.N,/ISO_GND*%
%TA.AperFunction,ComponentPad*%
G36*
G01*
X112370000Y-70310000D02*
X115470000Y-70310000D01*
G75*
G02*
X115720000Y-70560000I0J-250000D01*
G01*
X115720000Y-71860000D01*
G75*
G02*
X115470000Y-72110000I-250000J0D01*
G01*
X112370000Y-72110000D01*
G75*
G02*
X112120000Y-71860000I0J250000D01*
G01*
X112120000Y-70560000D01*
G75*
G02*
X112370000Y-70310000I250000J0D01*
G01*
G37*
%TD.AperFunction*%
%TD*%
%TO.P,R901,2*%
%TO.N,/GPIO*%
%TA.AperFunction,SMDPad,CuDef*%
G36*
G01*
X133875000Y-83225000D02*
X133875000Y-82675000D01*
G75*
G02*
X134075000Y-82475000I200000J0D01*
G01*
X134475000Y-82475000D01*
G75*
G02*
X134675000Y-82675000I0J-200000D01*
G01*
X134675000Y-83225000D01*
G75*
G02*
X134475000Y-83425000I-200000J0D01*
G01*
X134075000Y-83425000D01*
G75*
G02*
X133875000Y-83225000I0J200000D01*
G01*
G37*
%TD.AperFunction*%
%TO.P,R901,1*%
%TO.N,Net-(R901-Pad1)*%
%TA.AperFunction,SMDPad,CuDef*%
G36*
G01*
X132225000Y-83225000D02*
X132225000Y-82675000D01*
G75*
G02*
X132425000Y-82475000I200000J0D01*
G01*
X132825000Y-82475000D01*
G75*
G02*
X133025000Y-82675000I0J-200000D01*
G01*
X133025000Y-83225000D01*
G75*
G02*
X132825000Y-83425000I-200000J0D01*
G01*
X132425000Y-83425000D01*
G75*
G02*
X132225000Y-83225000I0J200000D01*
G01*
G37*
%TD.AperFunction*%
%TD*%
%TO.P,C101,2*%
%TO.N,+5V*%
%TA.AperFunction,SMDPad,CuDef*%
G36*
G01*
X125720000Y-85650000D02*
X125380000Y-85650000D01*
G75*
G02*
X125240000Y-85510000I0J140000D01*
G01*
X125240000Y-85230000D01*
G75*
G02*
X125380000Y-85090000I140000J0D01*
G01*
X125720000Y-85090000D01*
G75*
G02*
X125860000Y-85230000I0J-140000D01*
G01*
X125860000Y-85510000D01*
G75*
G02*
X125720000Y-85650000I-140000J0D01*
G01*
G37*
%TD.AperFunction*%
%TO.P,C101,1*%
%TO.N,GND*%
%TA.AperFunction,SMDPad,CuDef*%
G36*
G01*
X125720000Y-86610000D02*
X125380000Y-86610000D01*
G75*
G02*
X125240000Y-86470000I0J140000D01*
G01*
X125240000Y-86190000D01*
G75*
G02*
X125380000Y-86050000I140000J0D01*
G01*
X125720000Y-86050000D01*
G75*
G02*
X125860000Y-86190000I0J-140000D01*
G01*
X125860000Y-86470000D01*
G75*
G02*
X125720000Y-86610000I-140000J0D01*
G01*
G37*
%TD.AperFunction*%
%TD*%
D14*
%TO.P,U603,3*%
%TO.N,/VIN*%
X129300000Y-86450000D03*
%TO.P,U603,2*%
%TO.N,+5V*%
X128350000Y-84450000D03*
%TO.P,U603,1*%
%TO.N,GND*%
X130250000Y-84450000D03*
%TD*%
%TO.P,R104,2*%
%TO.N,/Sense*%
%TA.AperFunction,SMDPad,CuDef*%
G36*
G01*
X119185000Y-83455000D02*
X119735000Y-83455000D01*
G75*
G02*
X119935000Y-83655000I0J-200000D01*
G01*
X119935000Y-84055000D01*
G75*
G02*
X119735000Y-84255000I-200000J0D01*
G01*
X119185000Y-84255000D01*
G75*
G02*
X118985000Y-84055000I0J200000D01*
G01*
X118985000Y-83655000D01*
G75*
G02*
X119185000Y-83455000I200000J0D01*
G01*
G37*
%TD.AperFunction*%
%TO.P,R104,1*%
%TO.N,Net-(R104-Pad1)*%
%TA.AperFunction,SMDPad,CuDef*%
G36*
G01*
X119185000Y-81805000D02*
X119735000Y-81805000D01*
G75*
G02*
X119935000Y-82005000I0J-200000D01*
G01*
X119935000Y-82405000D01*
G75*
G02*
X119735000Y-82605000I-200000J0D01*
G01*
X119185000Y-82605000D01*
G75*
G02*
X118985000Y-82405000I0J200000D01*
G01*
X118985000Y-82005000D01*
G75*
G02*
X119185000Y-81805000I200000J0D01*
G01*
G37*
%TD.AperFunction*%
%TD*%
%TO.P,R103,2*%
%TO.N,GND*%
%TA.AperFunction,SMDPad,CuDef*%
G36*
G01*
X119195000Y-86535000D02*
X119745000Y-86535000D01*
G75*
G02*
X119945000Y-86735000I0J-200000D01*
G01*
X119945000Y-87135000D01*
G75*
G02*
X119745000Y-87335000I-200000J0D01*
G01*
X119195000Y-87335000D01*
G75*
G02*
X118995000Y-87135000I0J200000D01*
G01*
X118995000Y-86735000D01*
G75*
G02*
X119195000Y-86535000I200000J0D01*
G01*
G37*
%TD.AperFunction*%
%TO.P,R103,1*%
%TO.N,/Sense*%
%TA.AperFunction,SMDPad,CuDef*%
G36*
G01*
X119195000Y-84885000D02*
X119745000Y-84885000D01*
G75*
G02*
X119945000Y-85085000I0J-200000D01*
G01*
X119945000Y-85485000D01*
G75*
G02*
X119745000Y-85685000I-200000J0D01*
G01*
X119195000Y-85685000D01*
G75*
G02*
X118995000Y-85485000I0J200000D01*
G01*
X118995000Y-85085000D01*
G75*
G02*
X119195000Y-84885000I200000J0D01*
G01*
G37*
%TD.AperFunction*%
%TD*%
%TO.P,R101,2*%
%TO.N,Net-(R101-Pad2)*%
%TA.AperFunction,SMDPad,CuDef*%
G36*
G01*
X122225000Y-79175000D02*
X122775000Y-79175000D01*
G75*
G02*
X122975000Y-79375000I0J-200000D01*
G01*
X122975000Y-79775000D01*
G75*
G02*
X122775000Y-79975000I-200000J0D01*
G01*
X122225000Y-79975000D01*
G75*
G02*
X122025000Y-79775000I0J200000D01*
G01*
X122025000Y-79375000D01*
G75*
G02*
X122225000Y-79175000I200000J0D01*
G01*
G37*
%TD.AperFunction*%
%TO.P,R101,1*%
%TO.N,/ISO_VIN*%
%TA.AperFunction,SMDPad,CuDef*%
G36*
G01*
X122225000Y-77525000D02*
X122775000Y-77525000D01*
G75*
G02*
X122975000Y-77725000I0J-200000D01*
G01*
X122975000Y-78125000D01*
G75*
G02*
X122775000Y-78325000I-200000J0D01*
G01*
X122225000Y-78325000D01*
G75*
G02*
X122025000Y-78125000I0J200000D01*
G01*
X122025000Y-77725000D01*
G75*
G02*
X122225000Y-77525000I200000J0D01*
G01*
G37*
%TD.AperFunction*%
%TD*%
%TO.P,C605,2*%
%TO.N,GND*%
%TA.AperFunction,SMDPad,CuDef*%
G36*
G01*
X126550000Y-85900000D02*
X127050000Y-85900000D01*
G75*
G02*
X127275000Y-86125000I0J-225000D01*
G01*
X127275000Y-86575000D01*
G75*
G02*
X127050000Y-86800000I-225000J0D01*
G01*
X126550000Y-86800000D01*
G75*
G02*
X126325000Y-86575000I0J225000D01*
G01*
X126325000Y-86125000D01*
G75*
G02*
X126550000Y-85900000I225000J0D01*
G01*
G37*
%TD.AperFunction*%
%TO.P,C605,1*%
%TO.N,+5V*%
%TA.AperFunction,SMDPad,CuDef*%
G36*
G01*
X126550000Y-84350000D02*
X127050000Y-84350000D01*
G75*
G02*
X127275000Y-84575000I0J-225000D01*
G01*
X127275000Y-85025000D01*
G75*
G02*
X127050000Y-85250000I-225000J0D01*
G01*
X126550000Y-85250000D01*
G75*
G02*
X126325000Y-85025000I0J225000D01*
G01*
X126325000Y-84575000D01*
G75*
G02*
X126550000Y-84350000I225000J0D01*
G01*
G37*
%TD.AperFunction*%
%TD*%
%TO.P,C603,2*%
%TO.N,GND*%
%TA.AperFunction,SMDPad,CuDef*%
G36*
G01*
X132575000Y-85000000D02*
X131625000Y-85000000D01*
G75*
G02*
X131375000Y-84750000I0J250000D01*
G01*
X131375000Y-84250000D01*
G75*
G02*
X131625000Y-84000000I250000J0D01*
G01*
X132575000Y-84000000D01*
G75*
G02*
X132825000Y-84250000I0J-250000D01*
G01*
X132825000Y-84750000D01*
G75*
G02*
X132575000Y-85000000I-250000J0D01*
G01*
G37*
%TD.AperFunction*%
%TO.P,C603,1*%
%TO.N,/VIN*%
%TA.AperFunction,SMDPad,CuDef*%
G36*
G01*
X132575000Y-86900000D02*
X131625000Y-86900000D01*
G75*
G02*
X131375000Y-86650000I0J250000D01*
G01*
X131375000Y-86150000D01*
G75*
G02*
X131625000Y-85900000I250000J0D01*
G01*
X132575000Y-85900000D01*
G75*
G02*
X132825000Y-86150000I0J-250000D01*
G01*
X132825000Y-86650000D01*
G75*
G02*
X132575000Y-86900000I-250000J0D01*
G01*
G37*
%TD.AperFunction*%
%TD*%
%TO.P,C102,2*%
%TO.N,GND*%
%TA.AperFunction,SMDPad,CuDef*%
G36*
G01*
X117960000Y-82340000D02*
X118300000Y-82340000D01*
G75*
G02*
X118440000Y-82480000I0J-140000D01*
G01*
X118440000Y-82760000D01*
G75*
G02*
X118300000Y-82900000I-140000J0D01*
G01*
X117960000Y-82900000D01*
G75*
G02*
X117820000Y-82760000I0J140000D01*
G01*
X117820000Y-82480000D01*
G75*
G02*
X117960000Y-82340000I140000J0D01*
G01*
G37*
%TD.AperFunction*%
%TO.P,C102,1*%
%TO.N,Net-(C102-Pad1)*%
%TA.AperFunction,SMDPad,CuDef*%
G36*
G01*
X117960000Y-81380000D02*
X118300000Y-81380000D01*
G75*
G02*
X118440000Y-81520000I0J-140000D01*
G01*
X118440000Y-81800000D01*
G75*
G02*
X118300000Y-81940000I-140000J0D01*
G01*
X117960000Y-81940000D01*
G75*
G02*
X117820000Y-81800000I0J140000D01*
G01*
X117820000Y-81520000D01*
G75*
G02*
X117960000Y-81380000I140000J0D01*
G01*
G37*
%TD.AperFunction*%
%TD*%
D15*
%TO.P,Q101,2*%
%TO.N,/ISO_OUT_RAW*%
X135000000Y-74900000D03*
D16*
%TO.P,Q101,3*%
%TO.N,/ISO_VIN*%
X125850000Y-77440000D03*
%TO.P,Q101,1*%
%TO.N,Net-(Q101-Pad1)*%
X125850000Y-72360000D03*
%TD*%
%TO.P,U102,8*%
%TO.N,+5V*%
%TA.AperFunction,SMDPad,CuDef*%
G36*
G01*
X120755000Y-78850000D02*
X121055000Y-78850000D01*
G75*
G02*
X121205000Y-79000000I0J-150000D01*
G01*
X121205000Y-80650000D01*
G75*
G02*
X121055000Y-80800000I-150000J0D01*
G01*
X120755000Y-80800000D01*
G75*
G02*
X120605000Y-80650000I0J150000D01*
G01*
X120605000Y-79000000D01*
G75*
G02*
X120755000Y-78850000I150000J0D01*
G01*
G37*
%TD.AperFunction*%
%TO.P,U102,7*%
%TO.N,Net-(R104-Pad1)*%
%TA.AperFunction,SMDPad,CuDef*%
G36*
G01*
X119485000Y-78850000D02*
X119785000Y-78850000D01*
G75*
G02*
X119935000Y-79000000I0J-150000D01*
G01*
X119935000Y-80650000D01*
G75*
G02*
X119785000Y-80800000I-150000J0D01*
G01*
X119485000Y-80800000D01*
G75*
G02*
X119335000Y-80650000I0J150000D01*
G01*
X119335000Y-79000000D01*
G75*
G02*
X119485000Y-78850000I150000J0D01*
G01*
G37*
%TD.AperFunction*%
%TO.P,U102,6*%
%TO.N,Net-(C102-Pad1)*%
%TA.AperFunction,SMDPad,CuDef*%
G36*
G01*
X118215000Y-78850000D02*
X118515000Y-78850000D01*
G75*
G02*
X118665000Y-79000000I0J-150000D01*
G01*
X118665000Y-80650000D01*
G75*
G02*
X118515000Y-80800000I-150000J0D01*
G01*
X118215000Y-80800000D01*
G75*
G02*
X118065000Y-80650000I0J150000D01*
G01*
X118065000Y-79000000D01*
G75*
G02*
X118215000Y-78850000I150000J0D01*
G01*
G37*
%TD.AperFunction*%
%TO.P,U102,5*%
%TO.N,N/C*%
%TA.AperFunction,SMDPad,CuDef*%
G36*
G01*
X116945000Y-78850000D02*
X117245000Y-78850000D01*
G75*
G02*
X117395000Y-79000000I0J-150000D01*
G01*
X117395000Y-80650000D01*
G75*
G02*
X117245000Y-80800000I-150000J0D01*
G01*
X116945000Y-80800000D01*
G75*
G02*
X116795000Y-80650000I0J150000D01*
G01*
X116795000Y-79000000D01*
G75*
G02*
X116945000Y-78850000I150000J0D01*
G01*
G37*
%TD.AperFunction*%
%TO.P,U102,4*%
%TO.N,/ISO_OUT*%
%TA.AperFunction,SMDPad,CuDef*%
G36*
G01*
X116945000Y-73900000D02*
X117245000Y-73900000D01*
G75*
G02*
X117395000Y-74050000I0J-150000D01*
G01*
X117395000Y-75700000D01*
G75*
G02*
X117245000Y-75850000I-150000J0D01*
G01*
X116945000Y-75850000D01*
G75*
G02*
X116795000Y-75700000I0J150000D01*
G01*
X116795000Y-74050000D01*
G75*
G02*
X116945000Y-73900000I150000J0D01*
G01*
G37*
%TD.AperFunction*%
%TO.P,U102,3*%
%TA.AperFunction,SMDPad,CuDef*%
G36*
G01*
X118215000Y-73900000D02*
X118515000Y-73900000D01*
G75*
G02*
X118665000Y-74050000I0J-150000D01*
G01*
X118665000Y-75700000D01*
G75*
G02*
X118515000Y-75850000I-150000J0D01*
G01*
X118215000Y-75850000D01*
G75*
G02*
X118065000Y-75700000I0J150000D01*
G01*
X118065000Y-74050000D01*
G75*
G02*
X118215000Y-73900000I150000J0D01*
G01*
G37*
%TD.AperFunction*%
%TO.P,U102,2*%
%TO.N,/ISO_OUT_RAW*%
%TA.AperFunction,SMDPad,CuDef*%
G36*
G01*
X119485000Y-73900000D02*
X119785000Y-73900000D01*
G75*
G02*
X119935000Y-74050000I0J-150000D01*
G01*
X119935000Y-75700000D01*
G75*
G02*
X119785000Y-75850000I-150000J0D01*
G01*
X119485000Y-75850000D01*
G75*
G02*
X119335000Y-75700000I0J150000D01*
G01*
X119335000Y-74050000D01*
G75*
G02*
X119485000Y-73900000I150000J0D01*
G01*
G37*
%TD.AperFunction*%
%TO.P,U102,1*%
%TA.AperFunction,SMDPad,CuDef*%
G36*
G01*
X120755000Y-73900000D02*
X121055000Y-73900000D01*
G75*
G02*
X121205000Y-74050000I0J-150000D01*
G01*
X121205000Y-75700000D01*
G75*
G02*
X121055000Y-75850000I-150000J0D01*
G01*
X120755000Y-75850000D01*
G75*
G02*
X120605000Y-75700000I0J150000D01*
G01*
X120605000Y-74050000D01*
G75*
G02*
X120755000Y-73900000I150000J0D01*
G01*
G37*
%TD.AperFunction*%
%TD*%
%TO.P,U101,4*%
%TO.N,Net-(R101-Pad2)*%
%TA.AperFunction,SMDPad,CuDef*%
G36*
G01*
X125175000Y-82635000D02*
X125175000Y-82935000D01*
G75*
G02*
X125025000Y-83085000I-150000J0D01*
G01*
X123700000Y-83085000D01*
G75*
G02*
X123550000Y-82935000I0J150000D01*
G01*
X123550000Y-82635000D01*
G75*
G02*
X123700000Y-82485000I150000J0D01*
G01*
X125025000Y-82485000D01*
G75*
G02*
X125175000Y-82635000I0J-150000D01*
G01*
G37*
%TD.AperFunction*%
%TO.P,U101,3*%
%TO.N,/ISO_GND*%
%TA.AperFunction,SMDPad,CuDef*%
G36*
G01*
X125175000Y-81365000D02*
X125175000Y-81665000D01*
G75*
G02*
X125025000Y-81815000I-150000J0D01*
G01*
X123700000Y-81815000D01*
G75*
G02*
X123550000Y-81665000I0J150000D01*
G01*
X123550000Y-81365000D01*
G75*
G02*
X123700000Y-81215000I150000J0D01*
G01*
X125025000Y-81215000D01*
G75*
G02*
X125175000Y-81365000I0J-150000D01*
G01*
G37*
%TD.AperFunction*%
%TO.P,U101,2*%
%TO.N,GND*%
%TA.AperFunction,SMDPad,CuDef*%
G36*
G01*
X131550000Y-81365000D02*
X131550000Y-81665000D01*
G75*
G02*
X131400000Y-81815000I-150000J0D01*
G01*
X130075000Y-81815000D01*
G75*
G02*
X129925000Y-81665000I0J150000D01*
G01*
X129925000Y-81365000D01*
G75*
G02*
X130075000Y-81215000I150000J0D01*
G01*
X131400000Y-81215000D01*
G75*
G02*
X131550000Y-81365000I0J-150000D01*
G01*
G37*
%TD.AperFunction*%
%TO.P,U101,1*%
%TO.N,Net-(R901-Pad1)*%
%TA.AperFunction,SMDPad,CuDef*%
G36*
G01*
X131550000Y-82635000D02*
X131550000Y-82935000D01*
G75*
G02*
X131400000Y-83085000I-150000J0D01*
G01*
X130075000Y-83085000D01*
G75*
G02*
X129925000Y-82935000I0J150000D01*
G01*
X129925000Y-82635000D01*
G75*
G02*
X130075000Y-82485000I150000J0D01*
G01*
X131400000Y-82485000D01*
G75*
G02*
X131550000Y-82635000I0J-150000D01*
G01*
G37*
%TD.AperFunction*%
%TD*%
%TO.P,R102,2*%
%TO.N,Net-(R101-Pad2)*%
%TA.AperFunction,SMDPad,CuDef*%
G36*
G01*
X122725000Y-71125000D02*
X122175000Y-71125000D01*
G75*
G02*
X121975000Y-70925000I0J200000D01*
G01*
X121975000Y-70525000D01*
G75*
G02*
X122175000Y-70325000I200000J0D01*
G01*
X122725000Y-70325000D01*
G75*
G02*
X122925000Y-70525000I0J-200000D01*
G01*
X122925000Y-70925000D01*
G75*
G02*
X122725000Y-71125000I-200000J0D01*
G01*
G37*
%TD.AperFunction*%
%TO.P,R102,1*%
%TO.N,Net-(Q101-Pad1)*%
%TA.AperFunction,SMDPad,CuDef*%
G36*
G01*
X122725000Y-72775000D02*
X122175000Y-72775000D01*
G75*
G02*
X121975000Y-72575000I0J200000D01*
G01*
X121975000Y-72175000D01*
G75*
G02*
X122175000Y-71975000I200000J0D01*
G01*
X122725000Y-71975000D01*
G75*
G02*
X122925000Y-72175000I0J-200000D01*
G01*
X122925000Y-72575000D01*
G75*
G02*
X122725000Y-72775000I-200000J0D01*
G01*
G37*
%TD.AperFunction*%
%TD*%
D17*
%TO.P,D101,2*%
%TO.N,/ISO_GND*%
X117150000Y-71500000D03*
%TO.P,D101,1*%
%TO.N,/ISO_OUT_RAW*%
X119950000Y-71500000D03*
%TD*%
D18*
%TO.N,GND*%
X133250000Y-84550000D03*
X124650000Y-86800000D03*
X117470000Y-83700000D03*
X132450000Y-81540000D03*
%TO.N,/ISO_GND*%
X124750000Y-80400000D03*
X117190000Y-69860000D03*
%TO.N,Net-(R101-Pad2)*%
X129300000Y-76900000D03*
X129300000Y-72850000D03*
%TD*%
D19*
%TO.N,GND*%
X125964218Y-86370008D02*
X125550000Y-86370008D01*
X125984227Y-86350000D02*
X125964218Y-86370008D01*
X126800000Y-86350000D02*
X125984227Y-86350000D01*
D20*
X129299999Y-85400001D02*
X130250000Y-84450000D01*
X128549999Y-85400001D02*
X129299999Y-85400001D01*
X127600000Y-86350000D02*
X128549999Y-85400001D01*
X126800000Y-86350000D02*
X127600000Y-86350000D01*
D19*
X132050000Y-84450000D02*
X132100000Y-84500000D01*
X130250000Y-84450000D02*
X132050000Y-84450000D01*
D20*
X133200000Y-84500000D02*
X133250000Y-84550000D01*
X132100000Y-84500000D02*
X133200000Y-84500000D01*
X125120000Y-86330000D02*
X124650000Y-86800000D01*
X125550000Y-86330000D02*
X125120000Y-86330000D01*
X132425000Y-81515000D02*
X132450000Y-81540000D01*
X130737500Y-81515000D02*
X132425000Y-81515000D01*
D19*
X120745000Y-86935000D02*
X119470000Y-86935000D01*
X122760000Y-88950000D02*
X120745000Y-86935000D01*
X118130000Y-85595000D02*
X118130000Y-82620000D01*
X119470000Y-86935000D02*
X118130000Y-85595000D01*
X118130000Y-83040000D02*
X117470000Y-83700000D01*
X118130000Y-82620000D02*
X118130000Y-83040000D01*
D21*
X124310001Y-90500001D02*
X122760000Y-88950000D01*
X133909999Y-90500001D02*
X124310001Y-90500001D01*
X135460000Y-88950000D02*
X133909999Y-90500001D01*
X135460000Y-88950000D02*
X135460000Y-88077500D01*
X135460000Y-88077500D02*
X138670000Y-84867500D01*
%TO.N,/ISO_GND*%
X117130000Y-71480000D02*
X117150000Y-71500000D01*
D19*
X124362500Y-81515000D02*
X124362500Y-80787500D01*
X124362500Y-80787500D02*
X124750000Y-80400000D01*
D21*
X116730000Y-71080000D02*
X117150000Y-71500000D01*
X112800000Y-71080000D02*
X116730000Y-71080000D01*
X117150000Y-69900000D02*
X117190000Y-69860000D01*
X117150000Y-71500000D02*
X117150000Y-69900000D01*
D22*
%TO.N,/ISO_OUT*%
X112800000Y-74890000D02*
X117550000Y-74890000D01*
D20*
%TO.N,/GPIO*%
X132920000Y-88950000D02*
X133365000Y-88950000D01*
X134275000Y-87595000D02*
X134275000Y-82950000D01*
X132920000Y-88950000D02*
X134275000Y-87595000D01*
X135750000Y-82950000D02*
X135880000Y-83080000D01*
X134275000Y-82950000D02*
X135750000Y-82950000D01*
%TO.N,Net-(Q101-Pad1)*%
X122465000Y-72360000D02*
X122450000Y-72375000D01*
X125850000Y-72360000D02*
X122465000Y-72360000D01*
%TO.N,Net-(R101-Pad2)*%
X122500000Y-81735000D02*
X122500000Y-79575000D01*
X123550000Y-82785000D02*
X122500000Y-81735000D01*
X124362500Y-82785000D02*
X123550000Y-82785000D01*
X122575001Y-79499999D02*
X128300001Y-79499999D01*
X122500000Y-79575000D02*
X122575001Y-79499999D01*
X129300000Y-78500000D02*
X129300000Y-76900000D01*
X128300001Y-79499999D02*
X129300000Y-78500000D01*
X127965002Y-70725000D02*
X122450000Y-70725000D01*
X129300000Y-72059998D02*
X127965002Y-70725000D01*
X129300000Y-72850000D02*
X129300000Y-72059998D01*
%TO.N,Net-(R901-Pad1)*%
X132460000Y-82785000D02*
X132625000Y-82950000D01*
X130737500Y-82785000D02*
X132460000Y-82785000D01*
D23*
%TO.N,/ISO_VIN*%
X125365000Y-77925000D02*
X125850000Y-77440000D01*
X122500000Y-77925000D02*
X125365000Y-77925000D01*
D22*
X115220000Y-77430000D02*
X113920000Y-78830000D01*
X125850000Y-77440000D02*
X115220000Y-77430000D01*
D19*
%TO.N,+5V*%
X127150000Y-84450000D02*
X126800000Y-84800000D01*
X128350000Y-84450000D02*
X127150000Y-84450000D01*
X126120000Y-84800000D02*
X125550000Y-85370000D01*
X126800000Y-84800000D02*
X126120000Y-84800000D01*
X125240000Y-85370000D02*
X124570000Y-84700000D01*
X125550000Y-85370000D02*
X125240000Y-85370000D01*
X124570000Y-84700000D02*
X121650000Y-84700000D01*
X121650000Y-84700000D02*
X120905000Y-83955000D01*
X120905000Y-79825000D02*
X120905000Y-83955000D01*
D20*
%TO.N,Net-(C102-Pad1)*%
X118365000Y-81425000D02*
X118130000Y-81660000D01*
X118365000Y-79825000D02*
X118365000Y-81425000D01*
D21*
%TO.N,/VIN*%
X130380000Y-87530000D02*
X129300000Y-86450000D01*
X130380000Y-88950000D02*
X130380000Y-87530000D01*
X132100000Y-86400000D02*
X131050000Y-86400000D01*
X130380000Y-87070000D02*
X130380000Y-87530000D01*
X131050000Y-86400000D02*
X130380000Y-87070000D01*
D20*
%TO.N,/Sense*%
X119460000Y-85275000D02*
X119470000Y-85285000D01*
X119460000Y-83855000D02*
X119460000Y-85275000D01*
X119785010Y-85600010D02*
X121950010Y-85600010D01*
X119470000Y-85285000D02*
X119785010Y-85600010D01*
X121950010Y-85600010D02*
X124385000Y-88035000D01*
X124385000Y-88035000D02*
X125300000Y-88950000D01*
X123400000Y-87050000D02*
X124385000Y-88035000D01*
%TO.N,Net-(R104-Pad1)*%
X119635000Y-82030000D02*
X119460000Y-82205000D01*
X119635000Y-79825000D02*
X119635000Y-82030000D01*
D21*
%TO.N,/ISO_OUT_RAW*%
X120905000Y-72455000D02*
X119950000Y-71500000D01*
X120905000Y-74875000D02*
X120905000Y-72455000D01*
D22*
X120930000Y-74900000D02*
X120450000Y-74900000D01*
X135000000Y-74900000D02*
X120930000Y-74900000D01*
D20*
%TO.N,Net-(D102-Pad2)*%
X138457500Y-83080000D02*
X138670000Y-83292500D01*
X136900000Y-83080000D02*
X138457500Y-83080000D01*
%TD*%
D24*
%TO.N,/ISO_OUT_RAW*%
X134973000Y-75773000D02*
X126503315Y-75773000D01*
X126201576Y-75681158D01*
X125939362Y-75655084D01*
X119427000Y-75648958D01*
X119427000Y-73927000D01*
X134973000Y-73927000D01*
X134973000Y-75773000D01*
%TA.AperFunction,Conductor*%
D25*
G36*
X134973000Y-75773000D02*
G01*
X126503315Y-75773000D01*
X126201576Y-75681158D01*
X125939362Y-75655084D01*
X119427000Y-75648958D01*
X119427000Y-73927000D01*
X134973000Y-73927000D01*
X134973000Y-75773000D01*
G37*
%TD.AperFunction*%
%TD*%
M02*
