%TF.GenerationSoftware,KiCad,Pcbnew,(5.1.8-0-10_14)*%
%TF.CreationDate,2020-11-27T11:56:29+01:00*%
%TF.ProjectId,Tank_Sender,54616e6b-5f53-4656-9e64-65722e6b6963,rev?*%
%TF.SameCoordinates,Original*%
%TF.FileFunction,Legend,Bot*%
%TF.FilePolarity,Positive*%
%FSLAX46Y46*%
G04 Gerber Fmt 4.6, Leading zero omitted, Abs format (unit mm)*
G04 Created by KiCad (PCBNEW (5.1.8-0-10_14)) date 2020-11-27 11:56:29*
%MOMM*%
%LPD*%
G01*
G04 APERTURE LIST*
%TA.AperFunction,Profile*%
%ADD10C,0.050000*%
%TD*%
%ADD11C,0.150000*%
G04 APERTURE END LIST*
D10*
X145000000Y-93000000D02*
X165000000Y-93000000D01*
X165000000Y-93000000D02*
X165000000Y-73000000D01*
X165000000Y-73000000D02*
X145000000Y-73000000D01*
X145000000Y-73000000D02*
X145000000Y-90000000D01*
X145000000Y-93000000D02*
X145000000Y-90000000D01*
D11*
X158300000Y-87300000D02*
X158338095Y-87376190D01*
X158338095Y-87490476D01*
X158300000Y-87604761D01*
X158223809Y-87680952D01*
X158147619Y-87719047D01*
X157995238Y-87757142D01*
X157880952Y-87757142D01*
X157728571Y-87719047D01*
X157652380Y-87680952D01*
X157576190Y-87604761D01*
X157538095Y-87490476D01*
X157538095Y-87414285D01*
X157576190Y-87300000D01*
X157614285Y-87261904D01*
X157880952Y-87261904D01*
X157880952Y-87414285D01*
X157538095Y-86919047D02*
X158338095Y-86919047D01*
X158338095Y-86614285D01*
X158300000Y-86538095D01*
X158261904Y-86500000D01*
X158185714Y-86461904D01*
X158071428Y-86461904D01*
X157995238Y-86500000D01*
X157957142Y-86538095D01*
X157919047Y-86614285D01*
X157919047Y-86919047D01*
X157538095Y-86119047D02*
X158338095Y-86119047D01*
X158338095Y-85585714D02*
X158338095Y-85433333D01*
X158300000Y-85357142D01*
X158223809Y-85280952D01*
X158071428Y-85242857D01*
X157804761Y-85242857D01*
X157652380Y-85280952D01*
X157576190Y-85357142D01*
X157538095Y-85433333D01*
X157538095Y-85585714D01*
X157576190Y-85661904D01*
X157652380Y-85738095D01*
X157804761Y-85776190D01*
X158071428Y-85776190D01*
X158223809Y-85738095D01*
X158300000Y-85661904D01*
X158338095Y-85585714D01*
X160800000Y-87309523D02*
X160838095Y-87385714D01*
X160838095Y-87500000D01*
X160800000Y-87614285D01*
X160723809Y-87690476D01*
X160647619Y-87728571D01*
X160495238Y-87766666D01*
X160380952Y-87766666D01*
X160228571Y-87728571D01*
X160152380Y-87690476D01*
X160076190Y-87614285D01*
X160038095Y-87500000D01*
X160038095Y-87423809D01*
X160076190Y-87309523D01*
X160114285Y-87271428D01*
X160380952Y-87271428D01*
X160380952Y-87423809D01*
X160038095Y-86928571D02*
X160838095Y-86928571D01*
X160038095Y-86471428D01*
X160838095Y-86471428D01*
X160038095Y-86090476D02*
X160838095Y-86090476D01*
X160838095Y-85900000D01*
X160800000Y-85785714D01*
X160723809Y-85709523D01*
X160647619Y-85671428D01*
X160495238Y-85633333D01*
X160380952Y-85633333D01*
X160228571Y-85671428D01*
X160152380Y-85709523D01*
X160076190Y-85785714D01*
X160038095Y-85900000D01*
X160038095Y-86090476D01*
X162942857Y-87709523D02*
X162942857Y-87100000D01*
X162638095Y-87404761D02*
X163247619Y-87404761D01*
X163438095Y-86795238D02*
X163438095Y-86300000D01*
X163133333Y-86566666D01*
X163133333Y-86452380D01*
X163095238Y-86376190D01*
X163057142Y-86338095D01*
X162980952Y-86300000D01*
X162790476Y-86300000D01*
X162714285Y-86338095D01*
X162676190Y-86376190D01*
X162638095Y-86452380D01*
X162638095Y-86680952D01*
X162676190Y-86757142D01*
X162714285Y-86795238D01*
X163438095Y-86071428D02*
X162638095Y-85804761D01*
X163438095Y-85538095D01*
X163438095Y-85347619D02*
X163438095Y-84852380D01*
X163133333Y-85119047D01*
X163133333Y-85004761D01*
X163095238Y-84928571D01*
X163057142Y-84890476D01*
X162980952Y-84852380D01*
X162790476Y-84852380D01*
X162714285Y-84890476D01*
X162676190Y-84928571D01*
X162638095Y-85004761D01*
X162638095Y-85233333D01*
X162676190Y-85309523D01*
X162714285Y-85347619D01*
X148138095Y-87776190D02*
X148138095Y-87319047D01*
X147338095Y-87547619D02*
X148138095Y-87547619D01*
X147338095Y-86709523D02*
X147757142Y-86709523D01*
X147833333Y-86747619D01*
X147871428Y-86823809D01*
X147871428Y-86976190D01*
X147833333Y-87052380D01*
X147376190Y-86709523D02*
X147338095Y-86785714D01*
X147338095Y-86976190D01*
X147376190Y-87052380D01*
X147452380Y-87090476D01*
X147528571Y-87090476D01*
X147604761Y-87052380D01*
X147642857Y-86976190D01*
X147642857Y-86785714D01*
X147680952Y-86709523D01*
X147871428Y-86328571D02*
X147338095Y-86328571D01*
X147795238Y-86328571D02*
X147833333Y-86290476D01*
X147871428Y-86214285D01*
X147871428Y-86100000D01*
X147833333Y-86023809D01*
X147757142Y-85985714D01*
X147338095Y-85985714D01*
X147338095Y-85604761D02*
X148138095Y-85604761D01*
X147642857Y-85528571D02*
X147338095Y-85300000D01*
X147871428Y-85300000D02*
X147566666Y-85604761D01*
X151376190Y-76061904D02*
X150919047Y-76061904D01*
X151147619Y-76861904D02*
X151147619Y-76061904D01*
X150309523Y-76861904D02*
X150309523Y-76442857D01*
X150347619Y-76366666D01*
X150423809Y-76328571D01*
X150576190Y-76328571D01*
X150652380Y-76366666D01*
X150309523Y-76823809D02*
X150385714Y-76861904D01*
X150576190Y-76861904D01*
X150652380Y-76823809D01*
X150690476Y-76747619D01*
X150690476Y-76671428D01*
X150652380Y-76595238D01*
X150576190Y-76557142D01*
X150385714Y-76557142D01*
X150309523Y-76519047D01*
X149928571Y-76328571D02*
X149928571Y-76861904D01*
X149928571Y-76404761D02*
X149890476Y-76366666D01*
X149814285Y-76328571D01*
X149700000Y-76328571D01*
X149623809Y-76366666D01*
X149585714Y-76442857D01*
X149585714Y-76861904D01*
X149204761Y-76861904D02*
X149204761Y-76061904D01*
X149128571Y-76557142D02*
X148900000Y-76861904D01*
X148900000Y-76328571D02*
X149204761Y-76633333D01*
X163650000Y-74516666D02*
X163883333Y-74183333D01*
X164050000Y-74516666D02*
X164050000Y-73816666D01*
X163783333Y-73816666D01*
X163716666Y-73850000D01*
X163683333Y-73883333D01*
X163650000Y-73950000D01*
X163650000Y-74050000D01*
X163683333Y-74116666D01*
X163716666Y-74150000D01*
X163783333Y-74183333D01*
X164050000Y-74183333D01*
X163083333Y-74483333D02*
X163150000Y-74516666D01*
X163283333Y-74516666D01*
X163350000Y-74483333D01*
X163383333Y-74416666D01*
X163383333Y-74150000D01*
X163350000Y-74083333D01*
X163283333Y-74050000D01*
X163150000Y-74050000D01*
X163083333Y-74083333D01*
X163050000Y-74150000D01*
X163050000Y-74216666D01*
X163383333Y-74283333D01*
X162783333Y-74483333D02*
X162716666Y-74516666D01*
X162583333Y-74516666D01*
X162516666Y-74483333D01*
X162483333Y-74416666D01*
X162483333Y-74383333D01*
X162516666Y-74316666D01*
X162583333Y-74283333D01*
X162683333Y-74283333D01*
X162750000Y-74250000D01*
X162783333Y-74183333D01*
X162783333Y-74150000D01*
X162750000Y-74083333D01*
X162683333Y-74050000D01*
X162583333Y-74050000D01*
X162516666Y-74083333D01*
X162183333Y-74516666D02*
X162183333Y-74050000D01*
X162183333Y-73816666D02*
X162216666Y-73850000D01*
X162183333Y-73883333D01*
X162150000Y-73850000D01*
X162183333Y-73816666D01*
X162183333Y-73883333D01*
X161883333Y-74483333D02*
X161816666Y-74516666D01*
X161683333Y-74516666D01*
X161616666Y-74483333D01*
X161583333Y-74416666D01*
X161583333Y-74383333D01*
X161616666Y-74316666D01*
X161683333Y-74283333D01*
X161783333Y-74283333D01*
X161850000Y-74250000D01*
X161883333Y-74183333D01*
X161883333Y-74150000D01*
X161850000Y-74083333D01*
X161783333Y-74050000D01*
X161683333Y-74050000D01*
X161616666Y-74083333D01*
X161383333Y-74050000D02*
X161116666Y-74050000D01*
X161283333Y-73816666D02*
X161283333Y-74416666D01*
X161250000Y-74483333D01*
X161183333Y-74516666D01*
X161116666Y-74516666D01*
X160883333Y-74516666D02*
X160883333Y-74050000D01*
X160883333Y-73816666D02*
X160916666Y-73850000D01*
X160883333Y-73883333D01*
X160850000Y-73850000D01*
X160883333Y-73816666D01*
X160883333Y-73883333D01*
X160616666Y-74050000D02*
X160450000Y-74516666D01*
X160283333Y-74050000D01*
X159750000Y-74483333D02*
X159816666Y-74516666D01*
X159950000Y-74516666D01*
X160016666Y-74483333D01*
X160050000Y-74416666D01*
X160050000Y-74150000D01*
X160016666Y-74083333D01*
X159950000Y-74050000D01*
X159816666Y-74050000D01*
X159750000Y-74083333D01*
X159716666Y-74150000D01*
X159716666Y-74216666D01*
X160050000Y-74283333D01*
X158983333Y-73816666D02*
X158583333Y-73816666D01*
X158783333Y-74516666D02*
X158783333Y-73816666D01*
X158050000Y-74516666D02*
X158050000Y-74150000D01*
X158083333Y-74083333D01*
X158150000Y-74050000D01*
X158283333Y-74050000D01*
X158350000Y-74083333D01*
X158050000Y-74483333D02*
X158116666Y-74516666D01*
X158283333Y-74516666D01*
X158350000Y-74483333D01*
X158383333Y-74416666D01*
X158383333Y-74350000D01*
X158350000Y-74283333D01*
X158283333Y-74250000D01*
X158116666Y-74250000D01*
X158050000Y-74216666D01*
X157716666Y-74050000D02*
X157716666Y-74516666D01*
X157716666Y-74116666D02*
X157683333Y-74083333D01*
X157616666Y-74050000D01*
X157516666Y-74050000D01*
X157450000Y-74083333D01*
X157416666Y-74150000D01*
X157416666Y-74516666D01*
X157083333Y-74516666D02*
X157083333Y-73816666D01*
X157016666Y-74250000D02*
X156816666Y-74516666D01*
X156816666Y-74050000D02*
X157083333Y-74316666D01*
X156016666Y-74483333D02*
X155916666Y-74516666D01*
X155750000Y-74516666D01*
X155683333Y-74483333D01*
X155650000Y-74450000D01*
X155616666Y-74383333D01*
X155616666Y-74316666D01*
X155650000Y-74250000D01*
X155683333Y-74216666D01*
X155750000Y-74183333D01*
X155883333Y-74150000D01*
X155950000Y-74116666D01*
X155983333Y-74083333D01*
X156016666Y-74016666D01*
X156016666Y-73950000D01*
X155983333Y-73883333D01*
X155950000Y-73850000D01*
X155883333Y-73816666D01*
X155716666Y-73816666D01*
X155616666Y-73850000D01*
X155050000Y-74483333D02*
X155116666Y-74516666D01*
X155250000Y-74516666D01*
X155316666Y-74483333D01*
X155350000Y-74416666D01*
X155350000Y-74150000D01*
X155316666Y-74083333D01*
X155250000Y-74050000D01*
X155116666Y-74050000D01*
X155050000Y-74083333D01*
X155016666Y-74150000D01*
X155016666Y-74216666D01*
X155350000Y-74283333D01*
X154716666Y-74050000D02*
X154716666Y-74516666D01*
X154716666Y-74116666D02*
X154683333Y-74083333D01*
X154616666Y-74050000D01*
X154516666Y-74050000D01*
X154450000Y-74083333D01*
X154416666Y-74150000D01*
X154416666Y-74516666D01*
X153783333Y-74516666D02*
X153783333Y-73816666D01*
X153783333Y-74483333D02*
X153850000Y-74516666D01*
X153983333Y-74516666D01*
X154050000Y-74483333D01*
X154083333Y-74450000D01*
X154116666Y-74383333D01*
X154116666Y-74183333D01*
X154083333Y-74116666D01*
X154050000Y-74083333D01*
X153983333Y-74050000D01*
X153850000Y-74050000D01*
X153783333Y-74083333D01*
X153183333Y-74483333D02*
X153250000Y-74516666D01*
X153383333Y-74516666D01*
X153450000Y-74483333D01*
X153483333Y-74416666D01*
X153483333Y-74150000D01*
X153450000Y-74083333D01*
X153383333Y-74050000D01*
X153250000Y-74050000D01*
X153183333Y-74083333D01*
X153150000Y-74150000D01*
X153150000Y-74216666D01*
X153483333Y-74283333D01*
X152850000Y-74516666D02*
X152850000Y-74050000D01*
X152850000Y-74183333D02*
X152816666Y-74116666D01*
X152783333Y-74083333D01*
X152716666Y-74050000D01*
X152650000Y-74050000D01*
X161783333Y-75083333D02*
X161750000Y-75050000D01*
X161683333Y-75016666D01*
X161516666Y-75016666D01*
X161450000Y-75050000D01*
X161416666Y-75083333D01*
X161383333Y-75150000D01*
X161383333Y-75216666D01*
X161416666Y-75316666D01*
X161816666Y-75716666D01*
X161383333Y-75716666D01*
X160783333Y-75250000D02*
X160783333Y-75716666D01*
X160950000Y-74983333D02*
X161116666Y-75483333D01*
X160683333Y-75483333D01*
X160283333Y-75016666D02*
X160216666Y-75016666D01*
X160150000Y-75050000D01*
X160116666Y-75083333D01*
X160083333Y-75150000D01*
X160050000Y-75283333D01*
X160050000Y-75450000D01*
X160083333Y-75583333D01*
X160116666Y-75650000D01*
X160150000Y-75683333D01*
X160216666Y-75716666D01*
X160283333Y-75716666D01*
X160350000Y-75683333D01*
X160383333Y-75650000D01*
X160416666Y-75583333D01*
X160450000Y-75450000D01*
X160450000Y-75283333D01*
X160416666Y-75150000D01*
X160383333Y-75083333D01*
X160350000Y-75050000D01*
X160283333Y-75016666D01*
X159750000Y-75450000D02*
X159216666Y-75450000D01*
X158783333Y-75316666D02*
X158850000Y-75283333D01*
X158883333Y-75250000D01*
X158916666Y-75183333D01*
X158916666Y-75150000D01*
X158883333Y-75083333D01*
X158850000Y-75050000D01*
X158783333Y-75016666D01*
X158650000Y-75016666D01*
X158583333Y-75050000D01*
X158550000Y-75083333D01*
X158516666Y-75150000D01*
X158516666Y-75183333D01*
X158550000Y-75250000D01*
X158583333Y-75283333D01*
X158650000Y-75316666D01*
X158783333Y-75316666D01*
X158850000Y-75350000D01*
X158883333Y-75383333D01*
X158916666Y-75450000D01*
X158916666Y-75583333D01*
X158883333Y-75650000D01*
X158850000Y-75683333D01*
X158783333Y-75716666D01*
X158650000Y-75716666D01*
X158583333Y-75683333D01*
X158550000Y-75650000D01*
X158516666Y-75583333D01*
X158516666Y-75450000D01*
X158550000Y-75383333D01*
X158583333Y-75350000D01*
X158650000Y-75316666D01*
X158083333Y-75016666D02*
X158016666Y-75016666D01*
X157950000Y-75050000D01*
X157916666Y-75083333D01*
X157883333Y-75150000D01*
X157850000Y-75283333D01*
X157850000Y-75450000D01*
X157883333Y-75583333D01*
X157916666Y-75650000D01*
X157950000Y-75683333D01*
X158016666Y-75716666D01*
X158083333Y-75716666D01*
X158150000Y-75683333D01*
X158183333Y-75650000D01*
X158216666Y-75583333D01*
X158250000Y-75450000D01*
X158250000Y-75283333D01*
X158216666Y-75150000D01*
X158183333Y-75083333D01*
X158150000Y-75050000D01*
X158083333Y-75016666D01*
X156883333Y-75016666D02*
X156750000Y-75016666D01*
X156683333Y-75050000D01*
X156616666Y-75116666D01*
X156583333Y-75250000D01*
X156583333Y-75483333D01*
X156616666Y-75616666D01*
X156683333Y-75683333D01*
X156750000Y-75716666D01*
X156883333Y-75716666D01*
X156950000Y-75683333D01*
X157016666Y-75616666D01*
X157050000Y-75483333D01*
X157050000Y-75250000D01*
X157016666Y-75116666D01*
X156950000Y-75050000D01*
X156883333Y-75016666D01*
X156283333Y-75716666D02*
X156283333Y-75016666D01*
X155983333Y-75716666D02*
X155983333Y-75350000D01*
X156016666Y-75283333D01*
X156083333Y-75250000D01*
X156183333Y-75250000D01*
X156250000Y-75283333D01*
X156283333Y-75316666D01*
X155650000Y-75716666D02*
X155650000Y-75250000D01*
X155650000Y-75316666D02*
X155616666Y-75283333D01*
X155550000Y-75250000D01*
X155450000Y-75250000D01*
X155383333Y-75283333D01*
X155350000Y-75350000D01*
X155350000Y-75716666D01*
X155350000Y-75350000D02*
X155316666Y-75283333D01*
X155250000Y-75250000D01*
X155150000Y-75250000D01*
X155083333Y-75283333D01*
X155050000Y-75350000D01*
X155050000Y-75716666D01*
X161550000Y-76216666D02*
X161483333Y-76216666D01*
X161416666Y-76250000D01*
X161383333Y-76283333D01*
X161350000Y-76350000D01*
X161316666Y-76483333D01*
X161316666Y-76650000D01*
X161350000Y-76783333D01*
X161383333Y-76850000D01*
X161416666Y-76883333D01*
X161483333Y-76916666D01*
X161550000Y-76916666D01*
X161616666Y-76883333D01*
X161650000Y-76850000D01*
X161683333Y-76783333D01*
X161716666Y-76650000D01*
X161716666Y-76483333D01*
X161683333Y-76350000D01*
X161650000Y-76283333D01*
X161616666Y-76250000D01*
X161550000Y-76216666D01*
X161016666Y-76650000D02*
X160483333Y-76650000D01*
X159783333Y-76916666D02*
X160183333Y-76916666D01*
X159983333Y-76916666D02*
X159983333Y-76216666D01*
X160050000Y-76316666D01*
X160116666Y-76383333D01*
X160183333Y-76416666D01*
X159550000Y-76216666D02*
X159116666Y-76216666D01*
X159350000Y-76483333D01*
X159250000Y-76483333D01*
X159183333Y-76516666D01*
X159150000Y-76550000D01*
X159116666Y-76616666D01*
X159116666Y-76783333D01*
X159150000Y-76850000D01*
X159183333Y-76883333D01*
X159250000Y-76916666D01*
X159450000Y-76916666D01*
X159516666Y-76883333D01*
X159550000Y-76850000D01*
X158683333Y-76216666D02*
X158616666Y-76216666D01*
X158550000Y-76250000D01*
X158516666Y-76283333D01*
X158483333Y-76350000D01*
X158450000Y-76483333D01*
X158450000Y-76650000D01*
X158483333Y-76783333D01*
X158516666Y-76850000D01*
X158550000Y-76883333D01*
X158616666Y-76916666D01*
X158683333Y-76916666D01*
X158750000Y-76883333D01*
X158783333Y-76850000D01*
X158816666Y-76783333D01*
X158850000Y-76650000D01*
X158850000Y-76483333D01*
X158816666Y-76350000D01*
X158783333Y-76283333D01*
X158750000Y-76250000D01*
X158683333Y-76216666D01*
X157483333Y-76216666D02*
X157350000Y-76216666D01*
X157283333Y-76250000D01*
X157216666Y-76316666D01*
X157183333Y-76450000D01*
X157183333Y-76683333D01*
X157216666Y-76816666D01*
X157283333Y-76883333D01*
X157350000Y-76916666D01*
X157483333Y-76916666D01*
X157550000Y-76883333D01*
X157616666Y-76816666D01*
X157650000Y-76683333D01*
X157650000Y-76450000D01*
X157616666Y-76316666D01*
X157550000Y-76250000D01*
X157483333Y-76216666D01*
X156883333Y-76916666D02*
X156883333Y-76216666D01*
X156583333Y-76916666D02*
X156583333Y-76550000D01*
X156616666Y-76483333D01*
X156683333Y-76450000D01*
X156783333Y-76450000D01*
X156850000Y-76483333D01*
X156883333Y-76516666D01*
X156250000Y-76916666D02*
X156250000Y-76450000D01*
X156250000Y-76516666D02*
X156216666Y-76483333D01*
X156150000Y-76450000D01*
X156050000Y-76450000D01*
X155983333Y-76483333D01*
X155950000Y-76550000D01*
X155950000Y-76916666D01*
X155950000Y-76550000D02*
X155916666Y-76483333D01*
X155850000Y-76450000D01*
X155750000Y-76450000D01*
X155683333Y-76483333D01*
X155650000Y-76550000D01*
X155650000Y-76916666D01*
M02*
