%TF.GenerationSoftware,KiCad,Pcbnew,(5.1.8-0-10_14)*%
%TF.CreationDate,2020-11-27T11:56:29+01:00*%
%TF.ProjectId,Tank_Sender,54616e6b-5f53-4656-9e64-65722e6b6963,rev?*%
%TF.SameCoordinates,Original*%
%TF.FileFunction,Soldermask,Top*%
%TF.FilePolarity,Negative*%
%FSLAX46Y46*%
G04 Gerber Fmt 4.6, Leading zero omitted, Abs format (unit mm)*
G04 Created by KiCad (PCBNEW (5.1.8-0-10_14)) date 2020-11-27 11:56:29*
%MOMM*%
%LPD*%
G01*
G04 APERTURE LIST*
%TA.AperFunction,Profile*%
%ADD10C,0.050000*%
%TD*%
%ADD11C,1.500000*%
%ADD12O,3.600000X1.800000*%
%ADD13O,1.700000X1.700000*%
%ADD14R,1.700000X1.700000*%
%ADD15R,0.800000X0.900000*%
%ADD16R,0.450000X0.600000*%
G04 APERTURE END LIST*
D10*
X145000000Y-93000000D02*
X165000000Y-93000000D01*
X165000000Y-93000000D02*
X165000000Y-73000000D01*
X165000000Y-73000000D02*
X145000000Y-73000000D01*
X145000000Y-73000000D02*
X145000000Y-90000000D01*
X145000000Y-93000000D02*
X145000000Y-90000000D01*
%TO.C,R102*%
G36*
G01*
X159275000Y-80275000D02*
X158725000Y-80275000D01*
G75*
G02*
X158525000Y-80075000I0J200000D01*
G01*
X158525000Y-79675000D01*
G75*
G02*
X158725000Y-79475000I200000J0D01*
G01*
X159275000Y-79475000D01*
G75*
G02*
X159475000Y-79675000I0J-200000D01*
G01*
X159475000Y-80075000D01*
G75*
G02*
X159275000Y-80275000I-200000J0D01*
G01*
G37*
G36*
G01*
X159275000Y-81925000D02*
X158725000Y-81925000D01*
G75*
G02*
X158525000Y-81725000I0J200000D01*
G01*
X158525000Y-81325000D01*
G75*
G02*
X158725000Y-81125000I200000J0D01*
G01*
X159275000Y-81125000D01*
G75*
G02*
X159475000Y-81325000I0J-200000D01*
G01*
X159475000Y-81725000D01*
G75*
G02*
X159275000Y-81925000I-200000J0D01*
G01*
G37*
%TD*%
%TO.C,R101*%
G36*
G01*
X159275000Y-83385000D02*
X159275000Y-83935000D01*
G75*
G02*
X159075000Y-84135000I-200000J0D01*
G01*
X158675000Y-84135000D01*
G75*
G02*
X158475000Y-83935000I0J200000D01*
G01*
X158475000Y-83385000D01*
G75*
G02*
X158675000Y-83185000I200000J0D01*
G01*
X159075000Y-83185000D01*
G75*
G02*
X159275000Y-83385000I0J-200000D01*
G01*
G37*
G36*
G01*
X160925000Y-83385000D02*
X160925000Y-83935000D01*
G75*
G02*
X160725000Y-84135000I-200000J0D01*
G01*
X160325000Y-84135000D01*
G75*
G02*
X160125000Y-83935000I0J200000D01*
G01*
X160125000Y-83385000D01*
G75*
G02*
X160325000Y-83185000I200000J0D01*
G01*
X160725000Y-83185000D01*
G75*
G02*
X160925000Y-83385000I0J-200000D01*
G01*
G37*
%TD*%
D11*
%TO.C,REF\u002A\u002A*%
X147760000Y-76250000D03*
%TD*%
D12*
%TO.C,J103*%
X149800000Y-80190000D03*
G36*
G01*
X151350000Y-84900000D02*
X148250000Y-84900000D01*
G75*
G02*
X148000000Y-84650000I0J250000D01*
G01*
X148000000Y-83350000D01*
G75*
G02*
X148250000Y-83100000I250000J0D01*
G01*
X151350000Y-83100000D01*
G75*
G02*
X151600000Y-83350000I0J-250000D01*
G01*
X151600000Y-84650000D01*
G75*
G02*
X151350000Y-84900000I-250000J0D01*
G01*
G37*
%TD*%
D13*
%TO.C,J101*%
X147760000Y-88950000D03*
X150300000Y-88950000D03*
X152840000Y-88950000D03*
X155380000Y-88950000D03*
X157920000Y-88950000D03*
X160460000Y-88950000D03*
D14*
X163000000Y-88950000D03*
%TD*%
D13*
%TO.C,J102*%
X146600000Y-80760000D03*
D14*
X146600000Y-83300000D03*
%TD*%
D15*
%TO.C,U101*%
X155600000Y-86450000D03*
X154650000Y-84450000D03*
X156550000Y-84450000D03*
%TD*%
%TO.C,FB101*%
G36*
G01*
X156425000Y-78481250D02*
X156425000Y-77718750D01*
G75*
G02*
X156643750Y-77500000I218750J0D01*
G01*
X157081250Y-77500000D01*
G75*
G02*
X157300000Y-77718750I0J-218750D01*
G01*
X157300000Y-78481250D01*
G75*
G02*
X157081250Y-78700000I-218750J0D01*
G01*
X156643750Y-78700000D01*
G75*
G02*
X156425000Y-78481250I0J218750D01*
G01*
G37*
G36*
G01*
X154300000Y-78481250D02*
X154300000Y-77718750D01*
G75*
G02*
X154518750Y-77500000I218750J0D01*
G01*
X154956250Y-77500000D01*
G75*
G02*
X155175000Y-77718750I0J-218750D01*
G01*
X155175000Y-78481250D01*
G75*
G02*
X154956250Y-78700000I-218750J0D01*
G01*
X154518750Y-78700000D01*
G75*
G02*
X154300000Y-78481250I0J218750D01*
G01*
G37*
%TD*%
D16*
%TO.C,D101*%
X157150000Y-81850000D03*
X157150000Y-79750000D03*
%TD*%
%TO.C,C104*%
G36*
G01*
X153950000Y-80975000D02*
X154450000Y-80975000D01*
G75*
G02*
X154675000Y-81200000I0J-225000D01*
G01*
X154675000Y-81650000D01*
G75*
G02*
X154450000Y-81875000I-225000J0D01*
G01*
X153950000Y-81875000D01*
G75*
G02*
X153725000Y-81650000I0J225000D01*
G01*
X153725000Y-81200000D01*
G75*
G02*
X153950000Y-80975000I225000J0D01*
G01*
G37*
G36*
G01*
X153950000Y-79425000D02*
X154450000Y-79425000D01*
G75*
G02*
X154675000Y-79650000I0J-225000D01*
G01*
X154675000Y-80100000D01*
G75*
G02*
X154450000Y-80325000I-225000J0D01*
G01*
X153950000Y-80325000D01*
G75*
G02*
X153725000Y-80100000I0J225000D01*
G01*
X153725000Y-79650000D01*
G75*
G02*
X153950000Y-79425000I225000J0D01*
G01*
G37*
%TD*%
%TO.C,C103*%
G36*
G01*
X155430000Y-80300000D02*
X155770000Y-80300000D01*
G75*
G02*
X155910000Y-80440000I0J-140000D01*
G01*
X155910000Y-80720000D01*
G75*
G02*
X155770000Y-80860000I-140000J0D01*
G01*
X155430000Y-80860000D01*
G75*
G02*
X155290000Y-80720000I0J140000D01*
G01*
X155290000Y-80440000D01*
G75*
G02*
X155430000Y-80300000I140000J0D01*
G01*
G37*
G36*
G01*
X155430000Y-79340000D02*
X155770000Y-79340000D01*
G75*
G02*
X155910000Y-79480000I0J-140000D01*
G01*
X155910000Y-79760000D01*
G75*
G02*
X155770000Y-79900000I-140000J0D01*
G01*
X155430000Y-79900000D01*
G75*
G02*
X155290000Y-79760000I0J140000D01*
G01*
X155290000Y-79480000D01*
G75*
G02*
X155430000Y-79340000I140000J0D01*
G01*
G37*
%TD*%
%TO.C,C102*%
G36*
G01*
X162649999Y-85710000D02*
X163950001Y-85710000D01*
G75*
G02*
X164200000Y-85959999I0J-249999D01*
G01*
X164200000Y-86610001D01*
G75*
G02*
X163950001Y-86860000I-249999J0D01*
G01*
X162649999Y-86860000D01*
G75*
G02*
X162400000Y-86610001I0J249999D01*
G01*
X162400000Y-85959999D01*
G75*
G02*
X162649999Y-85710000I249999J0D01*
G01*
G37*
G36*
G01*
X162649999Y-82760000D02*
X163950001Y-82760000D01*
G75*
G02*
X164200000Y-83009999I0J-249999D01*
G01*
X164200000Y-83660001D01*
G75*
G02*
X163950001Y-83910000I-249999J0D01*
G01*
X162649999Y-83910000D01*
G75*
G02*
X162400000Y-83660001I0J249999D01*
G01*
X162400000Y-83009999D01*
G75*
G02*
X162649999Y-82760000I249999J0D01*
G01*
G37*
%TD*%
%TO.C,C101*%
G36*
G01*
X160600000Y-86650001D02*
X160600000Y-85349999D01*
G75*
G02*
X160849999Y-85100000I249999J0D01*
G01*
X161500001Y-85100000D01*
G75*
G02*
X161750000Y-85349999I0J-249999D01*
G01*
X161750000Y-86650001D01*
G75*
G02*
X161500001Y-86900000I-249999J0D01*
G01*
X160849999Y-86900000D01*
G75*
G02*
X160600000Y-86650001I0J249999D01*
G01*
G37*
G36*
G01*
X157650000Y-86650001D02*
X157650000Y-85349999D01*
G75*
G02*
X157899999Y-85100000I249999J0D01*
G01*
X158550001Y-85100000D01*
G75*
G02*
X158800000Y-85349999I0J-249999D01*
G01*
X158800000Y-86650001D01*
G75*
G02*
X158550001Y-86900000I-249999J0D01*
G01*
X157899999Y-86900000D01*
G75*
G02*
X157650000Y-86650001I0J249999D01*
G01*
G37*
%TD*%
M02*
