%TF.GenerationSoftware,KiCad,Pcbnew,(5.1.8-0-10_14)*%
%TF.CreationDate,2020-11-29T00:56:15+01:00*%
%TF.ProjectId,Opto-Tacho,4f70746f-2d54-4616-9368-6f2e6b696361,rev?*%
%TF.SameCoordinates,Original*%
%TF.FileFunction,Copper,L1,Top*%
%TF.FilePolarity,Positive*%
%FSLAX46Y46*%
G04 Gerber Fmt 4.6, Leading zero omitted, Abs format (unit mm)*
G04 Created by KiCad (PCBNEW (5.1.8-0-10_14)) date 2020-11-29 00:56:15*
%MOMM*%
%LPD*%
G01*
G04 APERTURE LIST*
%TA.AperFunction,Profile*%
%ADD10C,0.050000*%
%TD*%
%TA.AperFunction,SMDPad,CuDef*%
%ADD11R,1.520000X1.780000*%
%TD*%
%TA.AperFunction,ComponentPad*%
%ADD12O,1.700000X1.700000*%
%TD*%
%TA.AperFunction,ComponentPad*%
%ADD13R,1.700000X1.700000*%
%TD*%
%TA.AperFunction,SMDPad,CuDef*%
%ADD14R,1.100000X1.100000*%
%TD*%
%TA.AperFunction,SMDPad,CuDef*%
%ADD15R,0.900000X1.200000*%
%TD*%
%TA.AperFunction,ViaPad*%
%ADD16C,1.000000*%
%TD*%
%TA.AperFunction,ViaPad*%
%ADD17C,0.800000*%
%TD*%
%TA.AperFunction,Conductor*%
%ADD18C,0.800000*%
%TD*%
%TA.AperFunction,Conductor*%
%ADD19C,1.000000*%
%TD*%
%TA.AperFunction,Conductor*%
%ADD20C,0.400000*%
%TD*%
%TA.AperFunction,Conductor*%
%ADD21C,0.254000*%
%TD*%
%TA.AperFunction,Conductor*%
%ADD22C,0.100000*%
%TD*%
G04 APERTURE END LIST*
D10*
X120000000Y-93000000D02*
X120000000Y-90000000D01*
X120000000Y-68000000D02*
X120000000Y-90000000D01*
X140000000Y-68000000D02*
X120000000Y-68000000D01*
X140000000Y-93000000D02*
X140000000Y-68000000D01*
X120000000Y-93000000D02*
X140000000Y-93000000D01*
D11*
%TO.P,U102,1*%
%TO.N,Net-(R105-Pad2)*%
X128525000Y-79210000D03*
%TO.P,U102,2*%
%TO.N,/ISO_GND*%
X128525000Y-81750000D03*
%TO.P,U102,3*%
%TO.N,N/C*%
X128525000Y-84290000D03*
%TO.P,U102,4*%
%TO.N,/GPIO_2*%
X137545000Y-84290000D03*
%TO.P,U102,5*%
%TO.N,GND*%
X137545000Y-81750000D03*
%TO.P,U102,6*%
%TO.N,+3V3*%
X137545000Y-79210000D03*
%TD*%
%TO.P,U101,1*%
%TO.N,Net-(R102-Pad2)*%
X128525000Y-70060000D03*
%TO.P,U101,2*%
%TO.N,/ISO_GND*%
X128525000Y-72600000D03*
%TO.P,U101,3*%
%TO.N,N/C*%
X128525000Y-75140000D03*
%TO.P,U101,4*%
%TO.N,/GPIO_1*%
X137545000Y-75140000D03*
%TO.P,U101,5*%
%TO.N,GND*%
X137545000Y-72600000D03*
%TO.P,U101,6*%
%TO.N,+3V3*%
X137545000Y-70060000D03*
%TD*%
%TO.P,R101,2*%
%TO.N,Net-(D101-Pad2)*%
%TA.AperFunction,SMDPad,CuDef*%
G36*
G01*
X139000000Y-70975000D02*
X139550000Y-70975000D01*
G75*
G02*
X139750000Y-71175000I0J-200000D01*
G01*
X139750000Y-71575000D01*
G75*
G02*
X139550000Y-71775000I-200000J0D01*
G01*
X139000000Y-71775000D01*
G75*
G02*
X138800000Y-71575000I0J200000D01*
G01*
X138800000Y-71175000D01*
G75*
G02*
X139000000Y-70975000I200000J0D01*
G01*
G37*
%TD.AperFunction*%
%TO.P,R101,1*%
%TO.N,+3V3*%
%TA.AperFunction,SMDPad,CuDef*%
G36*
G01*
X139000000Y-69325000D02*
X139550000Y-69325000D01*
G75*
G02*
X139750000Y-69525000I0J-200000D01*
G01*
X139750000Y-69925000D01*
G75*
G02*
X139550000Y-70125000I-200000J0D01*
G01*
X139000000Y-70125000D01*
G75*
G02*
X138800000Y-69925000I0J200000D01*
G01*
X138800000Y-69525000D01*
G75*
G02*
X139000000Y-69325000I200000J0D01*
G01*
G37*
%TD.AperFunction*%
%TD*%
%TO.P,R104,2*%
%TO.N,Net-(D104-Pad2)*%
%TA.AperFunction,SMDPad,CuDef*%
G36*
G01*
X138900000Y-80150000D02*
X139450000Y-80150000D01*
G75*
G02*
X139650000Y-80350000I0J-200000D01*
G01*
X139650000Y-80750000D01*
G75*
G02*
X139450000Y-80950000I-200000J0D01*
G01*
X138900000Y-80950000D01*
G75*
G02*
X138700000Y-80750000I0J200000D01*
G01*
X138700000Y-80350000D01*
G75*
G02*
X138900000Y-80150000I200000J0D01*
G01*
G37*
%TD.AperFunction*%
%TO.P,R104,1*%
%TO.N,+3V3*%
%TA.AperFunction,SMDPad,CuDef*%
G36*
G01*
X138900000Y-78500000D02*
X139450000Y-78500000D01*
G75*
G02*
X139650000Y-78700000I0J-200000D01*
G01*
X139650000Y-79100000D01*
G75*
G02*
X139450000Y-79300000I-200000J0D01*
G01*
X138900000Y-79300000D01*
G75*
G02*
X138700000Y-79100000I0J200000D01*
G01*
X138700000Y-78700000D01*
G75*
G02*
X138900000Y-78500000I200000J0D01*
G01*
G37*
%TD.AperFunction*%
%TD*%
D12*
%TO.P,J901,3*%
%TO.N,/ISO_IN_2*%
X121850000Y-77305000D03*
%TO.P,J901,2*%
%TO.N,/ISO_IN_1*%
X121850000Y-74765000D03*
D13*
%TO.P,J901,1*%
%TO.N,/ISO_GND*%
X121850000Y-72225000D03*
%TD*%
%TO.P,R106,2*%
%TO.N,Net-(D105-Pad1)*%
%TA.AperFunction,SMDPad,CuDef*%
G36*
G01*
X125775000Y-85875000D02*
X126325000Y-85875000D01*
G75*
G02*
X126525000Y-86075000I0J-200000D01*
G01*
X126525000Y-86475000D01*
G75*
G02*
X126325000Y-86675000I-200000J0D01*
G01*
X125775000Y-86675000D01*
G75*
G02*
X125575000Y-86475000I0J200000D01*
G01*
X125575000Y-86075000D01*
G75*
G02*
X125775000Y-85875000I200000J0D01*
G01*
G37*
%TD.AperFunction*%
%TO.P,R106,1*%
%TO.N,Net-(D106-Pad1)*%
%TA.AperFunction,SMDPad,CuDef*%
G36*
G01*
X125775000Y-84225000D02*
X126325000Y-84225000D01*
G75*
G02*
X126525000Y-84425000I0J-200000D01*
G01*
X126525000Y-84825000D01*
G75*
G02*
X126325000Y-85025000I-200000J0D01*
G01*
X125775000Y-85025000D01*
G75*
G02*
X125575000Y-84825000I0J200000D01*
G01*
X125575000Y-84425000D01*
G75*
G02*
X125775000Y-84225000I200000J0D01*
G01*
G37*
%TD.AperFunction*%
%TD*%
%TO.P,R105,2*%
%TO.N,Net-(R105-Pad2)*%
%TA.AperFunction,SMDPad,CuDef*%
G36*
G01*
X125650000Y-81000000D02*
X125650000Y-80450000D01*
G75*
G02*
X125850000Y-80250000I200000J0D01*
G01*
X126250000Y-80250000D01*
G75*
G02*
X126450000Y-80450000I0J-200000D01*
G01*
X126450000Y-81000000D01*
G75*
G02*
X126250000Y-81200000I-200000J0D01*
G01*
X125850000Y-81200000D01*
G75*
G02*
X125650000Y-81000000I0J200000D01*
G01*
G37*
%TD.AperFunction*%
%TO.P,R105,1*%
%TO.N,Net-(D105-Pad1)*%
%TA.AperFunction,SMDPad,CuDef*%
G36*
G01*
X124000000Y-81000000D02*
X124000000Y-80450000D01*
G75*
G02*
X124200000Y-80250000I200000J0D01*
G01*
X124600000Y-80250000D01*
G75*
G02*
X124800000Y-80450000I0J-200000D01*
G01*
X124800000Y-81000000D01*
G75*
G02*
X124600000Y-81200000I-200000J0D01*
G01*
X124200000Y-81200000D01*
G75*
G02*
X124000000Y-81000000I0J200000D01*
G01*
G37*
%TD.AperFunction*%
%TD*%
%TO.P,FB102,2*%
%TO.N,Net-(C103-Pad1)*%
%TA.AperFunction,SMDPad,CuDef*%
G36*
G01*
X122425000Y-80531250D02*
X122425000Y-79768750D01*
G75*
G02*
X122643750Y-79550000I218750J0D01*
G01*
X123081250Y-79550000D01*
G75*
G02*
X123300000Y-79768750I0J-218750D01*
G01*
X123300000Y-80531250D01*
G75*
G02*
X123081250Y-80750000I-218750J0D01*
G01*
X122643750Y-80750000D01*
G75*
G02*
X122425000Y-80531250I0J218750D01*
G01*
G37*
%TD.AperFunction*%
%TO.P,FB102,1*%
%TO.N,/ISO_IN_2*%
%TA.AperFunction,SMDPad,CuDef*%
G36*
G01*
X120300000Y-80531250D02*
X120300000Y-79768750D01*
G75*
G02*
X120518750Y-79550000I218750J0D01*
G01*
X120956250Y-79550000D01*
G75*
G02*
X121175000Y-79768750I0J-218750D01*
G01*
X121175000Y-80531250D01*
G75*
G02*
X120956250Y-80750000I-218750J0D01*
G01*
X120518750Y-80750000D01*
G75*
G02*
X120300000Y-80531250I0J218750D01*
G01*
G37*
%TD.AperFunction*%
%TD*%
D14*
%TO.P,D106,2*%
%TO.N,Net-(C103-Pad1)*%
X123400000Y-82675000D03*
%TO.P,D106,1*%
%TO.N,Net-(D106-Pad1)*%
X126200000Y-82675000D03*
%TD*%
D15*
%TO.P,D105,2*%
%TO.N,/ISO_GND*%
X120750000Y-85750000D03*
%TO.P,D105,1*%
%TO.N,Net-(D105-Pad1)*%
X124050000Y-85750000D03*
%TD*%
%TO.P,D104,2*%
%TO.N,Net-(D104-Pad2)*%
%TA.AperFunction,SMDPad,CuDef*%
G36*
G01*
X139481250Y-83125000D02*
X138968750Y-83125000D01*
G75*
G02*
X138750000Y-82906250I0J218750D01*
G01*
X138750000Y-82468750D01*
G75*
G02*
X138968750Y-82250000I218750J0D01*
G01*
X139481250Y-82250000D01*
G75*
G02*
X139700000Y-82468750I0J-218750D01*
G01*
X139700000Y-82906250D01*
G75*
G02*
X139481250Y-83125000I-218750J0D01*
G01*
G37*
%TD.AperFunction*%
%TO.P,D104,1*%
%TO.N,/GPIO_2*%
%TA.AperFunction,SMDPad,CuDef*%
G36*
G01*
X139481250Y-84700000D02*
X138968750Y-84700000D01*
G75*
G02*
X138750000Y-84481250I0J218750D01*
G01*
X138750000Y-84043750D01*
G75*
G02*
X138968750Y-83825000I218750J0D01*
G01*
X139481250Y-83825000D01*
G75*
G02*
X139700000Y-84043750I0J-218750D01*
G01*
X139700000Y-84481250D01*
G75*
G02*
X139481250Y-84700000I-218750J0D01*
G01*
G37*
%TD.AperFunction*%
%TD*%
%TO.P,C104,2*%
%TO.N,/ISO_GND*%
%TA.AperFunction,SMDPad,CuDef*%
G36*
G01*
X120525000Y-82875000D02*
X121025000Y-82875000D01*
G75*
G02*
X121250000Y-83100000I0J-225000D01*
G01*
X121250000Y-83550000D01*
G75*
G02*
X121025000Y-83775000I-225000J0D01*
G01*
X120525000Y-83775000D01*
G75*
G02*
X120300000Y-83550000I0J225000D01*
G01*
X120300000Y-83100000D01*
G75*
G02*
X120525000Y-82875000I225000J0D01*
G01*
G37*
%TD.AperFunction*%
%TO.P,C104,1*%
%TO.N,/ISO_IN_2*%
%TA.AperFunction,SMDPad,CuDef*%
G36*
G01*
X120525000Y-81325000D02*
X121025000Y-81325000D01*
G75*
G02*
X121250000Y-81550000I0J-225000D01*
G01*
X121250000Y-82000000D01*
G75*
G02*
X121025000Y-82225000I-225000J0D01*
G01*
X120525000Y-82225000D01*
G75*
G02*
X120300000Y-82000000I0J225000D01*
G01*
X120300000Y-81550000D01*
G75*
G02*
X120525000Y-81325000I225000J0D01*
G01*
G37*
%TD.AperFunction*%
%TD*%
%TO.P,C103,2*%
%TO.N,/ISO_GND*%
%TA.AperFunction,SMDPad,CuDef*%
G36*
G01*
X121855000Y-82175000D02*
X122195000Y-82175000D01*
G75*
G02*
X122335000Y-82315000I0J-140000D01*
G01*
X122335000Y-82595000D01*
G75*
G02*
X122195000Y-82735000I-140000J0D01*
G01*
X121855000Y-82735000D01*
G75*
G02*
X121715000Y-82595000I0J140000D01*
G01*
X121715000Y-82315000D01*
G75*
G02*
X121855000Y-82175000I140000J0D01*
G01*
G37*
%TD.AperFunction*%
%TO.P,C103,1*%
%TO.N,Net-(C103-Pad1)*%
%TA.AperFunction,SMDPad,CuDef*%
G36*
G01*
X121855000Y-81215000D02*
X122195000Y-81215000D01*
G75*
G02*
X122335000Y-81355000I0J-140000D01*
G01*
X122335000Y-81635000D01*
G75*
G02*
X122195000Y-81775000I-140000J0D01*
G01*
X121855000Y-81775000D01*
G75*
G02*
X121715000Y-81635000I0J140000D01*
G01*
X121715000Y-81355000D01*
G75*
G02*
X121855000Y-81215000I140000J0D01*
G01*
G37*
%TD.AperFunction*%
%TD*%
%TO.P,R103,2*%
%TO.N,Net-(D102-Pad1)*%
%TA.AperFunction,SMDPad,CuDef*%
G36*
G01*
X127100000Y-72200000D02*
X126550000Y-72200000D01*
G75*
G02*
X126350000Y-72000000I0J200000D01*
G01*
X126350000Y-71600000D01*
G75*
G02*
X126550000Y-71400000I200000J0D01*
G01*
X127100000Y-71400000D01*
G75*
G02*
X127300000Y-71600000I0J-200000D01*
G01*
X127300000Y-72000000D01*
G75*
G02*
X127100000Y-72200000I-200000J0D01*
G01*
G37*
%TD.AperFunction*%
%TO.P,R103,1*%
%TO.N,Net-(D103-Pad1)*%
%TA.AperFunction,SMDPad,CuDef*%
G36*
G01*
X127100000Y-73850000D02*
X126550000Y-73850000D01*
G75*
G02*
X126350000Y-73650000I0J200000D01*
G01*
X126350000Y-73250000D01*
G75*
G02*
X126550000Y-73050000I200000J0D01*
G01*
X127100000Y-73050000D01*
G75*
G02*
X127300000Y-73250000I0J-200000D01*
G01*
X127300000Y-73650000D01*
G75*
G02*
X127100000Y-73850000I-200000J0D01*
G01*
G37*
%TD.AperFunction*%
%TD*%
%TO.P,R102,2*%
%TO.N,Net-(R102-Pad2)*%
%TA.AperFunction,SMDPad,CuDef*%
G36*
G01*
X125825000Y-69150000D02*
X125275000Y-69150000D01*
G75*
G02*
X125075000Y-68950000I0J200000D01*
G01*
X125075000Y-68550000D01*
G75*
G02*
X125275000Y-68350000I200000J0D01*
G01*
X125825000Y-68350000D01*
G75*
G02*
X126025000Y-68550000I0J-200000D01*
G01*
X126025000Y-68950000D01*
G75*
G02*
X125825000Y-69150000I-200000J0D01*
G01*
G37*
%TD.AperFunction*%
%TO.P,R102,1*%
%TO.N,Net-(D102-Pad1)*%
%TA.AperFunction,SMDPad,CuDef*%
G36*
G01*
X125825000Y-70800000D02*
X125275000Y-70800000D01*
G75*
G02*
X125075000Y-70600000I0J200000D01*
G01*
X125075000Y-70200000D01*
G75*
G02*
X125275000Y-70000000I200000J0D01*
G01*
X125825000Y-70000000D01*
G75*
G02*
X126025000Y-70200000I0J-200000D01*
G01*
X126025000Y-70600000D01*
G75*
G02*
X125825000Y-70800000I-200000J0D01*
G01*
G37*
%TD.AperFunction*%
%TD*%
%TO.P,FB101,2*%
%TO.N,Net-(C101-Pad1)*%
%TA.AperFunction,SMDPad,CuDef*%
G36*
G01*
X126100000Y-76856250D02*
X126100000Y-76093750D01*
G75*
G02*
X126318750Y-75875000I218750J0D01*
G01*
X126756250Y-75875000D01*
G75*
G02*
X126975000Y-76093750I0J-218750D01*
G01*
X126975000Y-76856250D01*
G75*
G02*
X126756250Y-77075000I-218750J0D01*
G01*
X126318750Y-77075000D01*
G75*
G02*
X126100000Y-76856250I0J218750D01*
G01*
G37*
%TD.AperFunction*%
%TO.P,FB101,1*%
%TO.N,/ISO_IN_1*%
%TA.AperFunction,SMDPad,CuDef*%
G36*
G01*
X123975000Y-76856250D02*
X123975000Y-76093750D01*
G75*
G02*
X124193750Y-75875000I218750J0D01*
G01*
X124631250Y-75875000D01*
G75*
G02*
X124850000Y-76093750I0J-218750D01*
G01*
X124850000Y-76856250D01*
G75*
G02*
X124631250Y-77075000I-218750J0D01*
G01*
X124193750Y-77075000D01*
G75*
G02*
X123975000Y-76856250I0J218750D01*
G01*
G37*
%TD.AperFunction*%
%TD*%
D14*
%TO.P,D103,2*%
%TO.N,Net-(C101-Pad1)*%
X124875000Y-74725000D03*
%TO.P,D103,1*%
%TO.N,Net-(D103-Pad1)*%
X124875000Y-71925000D03*
%TD*%
D15*
%TO.P,D102,2*%
%TO.N,/ISO_GND*%
X120750000Y-69225000D03*
%TO.P,D102,1*%
%TO.N,Net-(D102-Pad1)*%
X124050000Y-69225000D03*
%TD*%
%TO.P,D101,2*%
%TO.N,Net-(D101-Pad2)*%
%TA.AperFunction,SMDPad,CuDef*%
G36*
G01*
X139506250Y-74800000D02*
X138993750Y-74800000D01*
G75*
G02*
X138775000Y-74581250I0J218750D01*
G01*
X138775000Y-74143750D01*
G75*
G02*
X138993750Y-73925000I218750J0D01*
G01*
X139506250Y-73925000D01*
G75*
G02*
X139725000Y-74143750I0J-218750D01*
G01*
X139725000Y-74581250D01*
G75*
G02*
X139506250Y-74800000I-218750J0D01*
G01*
G37*
%TD.AperFunction*%
%TO.P,D101,1*%
%TO.N,/GPIO_1*%
%TA.AperFunction,SMDPad,CuDef*%
G36*
G01*
X139506250Y-76375000D02*
X138993750Y-76375000D01*
G75*
G02*
X138775000Y-76156250I0J218750D01*
G01*
X138775000Y-75718750D01*
G75*
G02*
X138993750Y-75500000I218750J0D01*
G01*
X139506250Y-75500000D01*
G75*
G02*
X139725000Y-75718750I0J-218750D01*
G01*
X139725000Y-76156250D01*
G75*
G02*
X139506250Y-76375000I-218750J0D01*
G01*
G37*
%TD.AperFunction*%
%TD*%
%TO.P,C102,2*%
%TO.N,/ISO_GND*%
%TA.AperFunction,SMDPad,CuDef*%
G36*
G01*
X125550000Y-79425000D02*
X125550000Y-78925000D01*
G75*
G02*
X125775000Y-78700000I225000J0D01*
G01*
X126225000Y-78700000D01*
G75*
G02*
X126450000Y-78925000I0J-225000D01*
G01*
X126450000Y-79425000D01*
G75*
G02*
X126225000Y-79650000I-225000J0D01*
G01*
X125775000Y-79650000D01*
G75*
G02*
X125550000Y-79425000I0J225000D01*
G01*
G37*
%TD.AperFunction*%
%TO.P,C102,1*%
%TO.N,/ISO_IN_1*%
%TA.AperFunction,SMDPad,CuDef*%
G36*
G01*
X124000000Y-79425000D02*
X124000000Y-78925000D01*
G75*
G02*
X124225000Y-78700000I225000J0D01*
G01*
X124675000Y-78700000D01*
G75*
G02*
X124900000Y-78925000I0J-225000D01*
G01*
X124900000Y-79425000D01*
G75*
G02*
X124675000Y-79650000I-225000J0D01*
G01*
X124225000Y-79650000D01*
G75*
G02*
X124000000Y-79425000I0J225000D01*
G01*
G37*
%TD.AperFunction*%
%TD*%
%TO.P,C101,2*%
%TO.N,/ISO_GND*%
%TA.AperFunction,SMDPad,CuDef*%
G36*
G01*
X126075000Y-78070000D02*
X126075000Y-77730000D01*
G75*
G02*
X126215000Y-77590000I140000J0D01*
G01*
X126495000Y-77590000D01*
G75*
G02*
X126635000Y-77730000I0J-140000D01*
G01*
X126635000Y-78070000D01*
G75*
G02*
X126495000Y-78210000I-140000J0D01*
G01*
X126215000Y-78210000D01*
G75*
G02*
X126075000Y-78070000I0J140000D01*
G01*
G37*
%TD.AperFunction*%
%TO.P,C101,1*%
%TO.N,Net-(C101-Pad1)*%
%TA.AperFunction,SMDPad,CuDef*%
G36*
G01*
X125115000Y-78070000D02*
X125115000Y-77730000D01*
G75*
G02*
X125255000Y-77590000I140000J0D01*
G01*
X125535000Y-77590000D01*
G75*
G02*
X125675000Y-77730000I0J-140000D01*
G01*
X125675000Y-78070000D01*
G75*
G02*
X125535000Y-78210000I-140000J0D01*
G01*
X125255000Y-78210000D01*
G75*
G02*
X125115000Y-78070000I0J140000D01*
G01*
G37*
%TD.AperFunction*%
%TD*%
D12*
%TO.P,J101,7*%
%TO.N,GND*%
X122760000Y-88950000D03*
%TO.P,J101,6*%
%TO.N,N/C*%
X125300000Y-88950000D03*
%TO.P,J101,5*%
X127840000Y-88950000D03*
%TO.P,J101,4*%
%TO.N,/GPIO_2*%
X130380000Y-88950000D03*
%TO.P,J101,3*%
%TO.N,/GPIO_1*%
X132920000Y-88950000D03*
%TO.P,J101,2*%
%TO.N,GND*%
X135460000Y-88950000D03*
D13*
%TO.P,J101,1*%
%TO.N,+3V3*%
X138000000Y-88950000D03*
%TD*%
D16*
%TO.N,GND*%
X136000000Y-72700000D03*
D17*
X121000000Y-88800000D03*
X121000000Y-92000000D03*
X125100000Y-92100000D03*
X130300000Y-92100000D03*
X135400000Y-92000000D03*
X139100000Y-92100000D03*
X139200000Y-90700000D03*
X134400000Y-69000000D03*
X136100000Y-68900000D03*
X134200000Y-77100000D03*
D16*
%TO.N,/ISO_GND*%
X121950000Y-83575000D03*
X127650000Y-77425000D03*
X129875000Y-73625000D03*
X129925000Y-80900000D03*
X121925000Y-68725000D03*
D17*
X122400000Y-86400000D03*
X129800000Y-86200000D03*
X127000000Y-81300000D03*
X123400000Y-70400000D03*
X127200000Y-85800000D03*
X129900000Y-69000000D03*
D16*
%TO.N,+3V3*%
X138900000Y-77900000D03*
D17*
X138950000Y-69050000D03*
%TD*%
D18*
%TO.N,GND*%
X137545000Y-81740000D02*
X136360000Y-81740000D01*
X135460000Y-82640000D02*
X135460000Y-88950000D01*
X136360000Y-81740000D02*
X135460000Y-82640000D01*
D19*
X136110000Y-72590000D02*
X136000000Y-72700000D01*
X137545000Y-72590000D02*
X136110000Y-72590000D01*
%TO.N,/ISO_GND*%
X120750000Y-83350000D02*
X120775000Y-83325000D01*
X120750000Y-85750000D02*
X120750000Y-83350000D01*
X121155000Y-83325000D02*
X121966097Y-82513903D01*
X120775000Y-83325000D02*
X121155000Y-83325000D01*
X128895002Y-81740000D02*
X128525000Y-81740000D01*
X129985001Y-80650001D02*
X128895002Y-81740000D01*
X128895002Y-72590000D02*
X129985001Y-73679999D01*
X128525000Y-72590000D02*
X128895002Y-72590000D01*
X121850000Y-70325000D02*
X120750000Y-69225000D01*
X121850000Y-72225000D02*
X121850000Y-70325000D01*
X121700000Y-83325000D02*
X121950000Y-83575000D01*
X120775000Y-83325000D02*
X121700000Y-83325000D01*
X127011826Y-77900000D02*
X126375010Y-77900000D01*
X127551825Y-77360001D02*
X127011826Y-77900000D01*
X129985001Y-73679999D02*
X129985001Y-77360001D01*
X129985001Y-77360001D02*
X127551825Y-77360001D01*
X129985001Y-77360001D02*
X129985001Y-80650001D01*
X127011826Y-78163174D02*
X126000000Y-79175000D01*
X127011826Y-77900000D02*
X127011826Y-78163174D01*
X121425000Y-69225000D02*
X121925000Y-68725000D01*
X120750000Y-69225000D02*
X121425000Y-69225000D01*
D20*
%TO.N,Net-(C101-Pad1)*%
X126537500Y-76387500D02*
X124875000Y-74725000D01*
X126537500Y-76475000D02*
X126537500Y-76387500D01*
X125395000Y-77590000D02*
X126510000Y-76475000D01*
X126510000Y-76475000D02*
X126537500Y-76475000D01*
X125395000Y-77900000D02*
X125395000Y-77590000D01*
%TO.N,/ISO_IN_1*%
X122702500Y-74765000D02*
X124412500Y-76475000D01*
X121850000Y-74765000D02*
X122702500Y-74765000D01*
X124412500Y-79137500D02*
X124450000Y-79175000D01*
X124412500Y-76475000D02*
X124412500Y-79137500D01*
%TO.N,Net-(D101-Pad2)*%
X139275000Y-74337500D02*
X139250000Y-74362500D01*
X139275000Y-71060000D02*
X139275000Y-74337500D01*
%TO.N,/GPIO_1*%
X138352500Y-75937500D02*
X137545000Y-75130000D01*
X139250000Y-75937500D02*
X138352500Y-75937500D01*
X132920000Y-88950000D02*
X134400000Y-87470000D01*
X134400000Y-78275000D02*
X137545000Y-75130000D01*
X134400000Y-87470000D02*
X134400000Y-78275000D01*
%TO.N,Net-(D102-Pad1)*%
X126825000Y-71675000D02*
X125550000Y-70400000D01*
X126825000Y-71800000D02*
X126825000Y-71675000D01*
X125225000Y-70400000D02*
X124050000Y-69225000D01*
X125550000Y-70400000D02*
X125225000Y-70400000D01*
%TO.N,Net-(D103-Pad1)*%
X126400000Y-73450000D02*
X124875000Y-71925000D01*
X126825000Y-73450000D02*
X126400000Y-73450000D01*
%TO.N,Net-(D104-Pad2)*%
X139175000Y-82637500D02*
X139225000Y-82687500D01*
X139175000Y-80235000D02*
X139175000Y-82637500D01*
%TO.N,/GPIO_2*%
X137562500Y-84262500D02*
X137545000Y-84280000D01*
X139225000Y-84262500D02*
X137562500Y-84262500D01*
X131630001Y-90200001D02*
X130380000Y-88950000D01*
X136060001Y-90200001D02*
X131630001Y-90200001D01*
X136749999Y-85075001D02*
X136749999Y-89510003D01*
X136749999Y-89510003D02*
X136060001Y-90200001D01*
X137545000Y-84280000D02*
X136749999Y-85075001D01*
D18*
%TO.N,+3V3*%
X139160000Y-79200000D02*
X139175000Y-79215000D01*
X137545000Y-79200000D02*
X139160000Y-79200000D01*
X137545000Y-70050000D02*
X138700000Y-70050000D01*
X138710000Y-70040000D02*
X139275000Y-70040000D01*
X138700000Y-70050000D02*
X138710000Y-70040000D01*
D19*
X138845000Y-77900000D02*
X137545000Y-79200000D01*
X138900000Y-77900000D02*
X138845000Y-77900000D01*
X138545000Y-69050000D02*
X137545000Y-70050000D01*
X138950000Y-69050000D02*
X138545000Y-69050000D01*
D20*
%TO.N,/ISO_IN_2*%
X121850000Y-79037500D02*
X120737500Y-80150000D01*
X121850000Y-77305000D02*
X121850000Y-79037500D01*
X120737500Y-81737500D02*
X120775000Y-81775000D01*
X120737500Y-80150000D02*
X120737500Y-81737500D01*
%TO.N,Net-(R102-Pad2)*%
X125550000Y-68750000D02*
X127700000Y-68750000D01*
X128525000Y-69575000D02*
X128525000Y-70050000D01*
X127700000Y-68750000D02*
X128525000Y-69575000D01*
%TO.N,Net-(C103-Pad1)*%
X122220000Y-81495000D02*
X123400000Y-82675000D01*
X122025000Y-81495000D02*
X122220000Y-81495000D01*
X122862500Y-80657500D02*
X122025000Y-81495000D01*
X122862500Y-80150000D02*
X122862500Y-80657500D01*
%TO.N,Net-(D105-Pad1)*%
X124575000Y-86275000D02*
X124050000Y-85750000D01*
X126050000Y-86275000D02*
X124575000Y-86275000D01*
X124400000Y-85400000D02*
X124050000Y-85750000D01*
X124400000Y-80725000D02*
X124400000Y-85400000D01*
%TO.N,Net-(D106-Pad1)*%
X126050000Y-82825000D02*
X126200000Y-82675000D01*
X126050000Y-84625000D02*
X126050000Y-82825000D01*
%TO.N,Net-(R105-Pad2)*%
X127575000Y-79200000D02*
X126050000Y-80725000D01*
X128525000Y-79200000D02*
X127575000Y-79200000D01*
%TD*%
D21*
%TO.N,/ISO_GND*%
X121855000Y-82413072D02*
X121957205Y-82413072D01*
X122211928Y-82667795D01*
X122211928Y-83225000D01*
X122224188Y-83349482D01*
X122260498Y-83469180D01*
X122319463Y-83579494D01*
X122398815Y-83676185D01*
X122495506Y-83755537D01*
X122605820Y-83814502D01*
X122725518Y-83850812D01*
X122850000Y-83863072D01*
X123565001Y-83863072D01*
X123565001Y-84515375D01*
X123475518Y-84524188D01*
X123355820Y-84560498D01*
X123245506Y-84619463D01*
X123148815Y-84698815D01*
X123069463Y-84795506D01*
X123010498Y-84905820D01*
X122974188Y-85025518D01*
X122961928Y-85150000D01*
X122961928Y-86350000D01*
X122974188Y-86474482D01*
X123010498Y-86594180D01*
X123052629Y-86673000D01*
X120660000Y-86673000D01*
X120660000Y-82863072D01*
X121025000Y-82863072D01*
X121193377Y-82846488D01*
X121355283Y-82797375D01*
X121504497Y-82717618D01*
X121635284Y-82610284D01*
X121742618Y-82479497D01*
X121781968Y-82405879D01*
X121855000Y-82413072D01*
%TA.AperFunction,Conductor*%
D22*
G36*
X121855000Y-82413072D02*
G01*
X121957205Y-82413072D01*
X122211928Y-82667795D01*
X122211928Y-83225000D01*
X122224188Y-83349482D01*
X122260498Y-83469180D01*
X122319463Y-83579494D01*
X122398815Y-83676185D01*
X122495506Y-83755537D01*
X122605820Y-83814502D01*
X122725518Y-83850812D01*
X122850000Y-83863072D01*
X123565001Y-83863072D01*
X123565001Y-84515375D01*
X123475518Y-84524188D01*
X123355820Y-84560498D01*
X123245506Y-84619463D01*
X123148815Y-84698815D01*
X123069463Y-84795506D01*
X123010498Y-84905820D01*
X122974188Y-85025518D01*
X122961928Y-85150000D01*
X122961928Y-86350000D01*
X122974188Y-86474482D01*
X123010498Y-86594180D01*
X123052629Y-86673000D01*
X120660000Y-86673000D01*
X120660000Y-82863072D01*
X121025000Y-82863072D01*
X121193377Y-82846488D01*
X121355283Y-82797375D01*
X121504497Y-82717618D01*
X121635284Y-82610284D01*
X121742618Y-82479497D01*
X121781968Y-82405879D01*
X121855000Y-82413072D01*
G37*
%TD.AperFunction*%
D21*
X130373000Y-86673000D02*
X127136504Y-86673000D01*
X127146969Y-86638500D01*
X127163072Y-86475000D01*
X127163072Y-86075000D01*
X127146969Y-85911500D01*
X127099278Y-85754284D01*
X127021831Y-85609392D01*
X126917606Y-85482394D01*
X126878134Y-85450000D01*
X126917606Y-85417606D01*
X127021831Y-85290608D01*
X127099278Y-85145716D01*
X127126928Y-85054566D01*
X127126928Y-85180000D01*
X127139188Y-85304482D01*
X127175498Y-85424180D01*
X127234463Y-85534494D01*
X127313815Y-85631185D01*
X127410506Y-85710537D01*
X127520820Y-85769502D01*
X127640518Y-85805812D01*
X127765000Y-85818072D01*
X129285000Y-85818072D01*
X129409482Y-85805812D01*
X129529180Y-85769502D01*
X129639494Y-85710537D01*
X129736185Y-85631185D01*
X129815537Y-85534494D01*
X129874502Y-85424180D01*
X129910812Y-85304482D01*
X129923072Y-85180000D01*
X129923072Y-83400000D01*
X129910812Y-83275518D01*
X129874502Y-83155820D01*
X129815537Y-83045506D01*
X129736185Y-82948815D01*
X129639494Y-82869463D01*
X129529180Y-82810498D01*
X129409482Y-82774188D01*
X129285000Y-82761928D01*
X127765000Y-82761928D01*
X127640518Y-82774188D01*
X127520820Y-82810498D01*
X127410506Y-82869463D01*
X127388072Y-82887874D01*
X127388072Y-82125000D01*
X127375812Y-82000518D01*
X127339502Y-81880820D01*
X127280537Y-81770506D01*
X127201185Y-81673815D01*
X127104494Y-81594463D01*
X126994180Y-81535498D01*
X126910344Y-81510067D01*
X126946831Y-81465608D01*
X127024278Y-81320716D01*
X127071969Y-81163500D01*
X127088072Y-81000000D01*
X127088072Y-80867796D01*
X127363724Y-80592144D01*
X127410506Y-80630537D01*
X127520820Y-80689502D01*
X127640518Y-80725812D01*
X127765000Y-80738072D01*
X129285000Y-80738072D01*
X129409482Y-80725812D01*
X129529180Y-80689502D01*
X129639494Y-80630537D01*
X129736185Y-80551185D01*
X129815537Y-80454494D01*
X129874502Y-80344180D01*
X129910812Y-80224482D01*
X129923072Y-80100000D01*
X129923072Y-78320000D01*
X129910812Y-78195518D01*
X129874502Y-78075820D01*
X129815537Y-77965506D01*
X129736185Y-77868815D01*
X129639494Y-77789463D01*
X129529180Y-77730498D01*
X129409482Y-77694188D01*
X129285000Y-77681928D01*
X127765000Y-77681928D01*
X127640518Y-77694188D01*
X127520820Y-77730498D01*
X127410506Y-77789463D01*
X127313815Y-77868815D01*
X127234463Y-77965506D01*
X127175498Y-78075820D01*
X127139188Y-78195518D01*
X127126928Y-78320000D01*
X127126928Y-78492703D01*
X127108854Y-78502364D01*
X126981709Y-78606709D01*
X126955563Y-78638568D01*
X125982204Y-79611928D01*
X125850000Y-79611928D01*
X125686500Y-79628031D01*
X125529284Y-79675722D01*
X125490167Y-79696631D01*
X125521488Y-79593377D01*
X125538072Y-79425000D01*
X125538072Y-78925000D01*
X125530495Y-78848072D01*
X125535000Y-78848072D01*
X125686794Y-78833122D01*
X125832755Y-78788845D01*
X125967274Y-78716943D01*
X126085180Y-78620180D01*
X126181943Y-78502274D01*
X126253845Y-78367755D01*
X126298122Y-78221794D01*
X126313072Y-78070000D01*
X126313072Y-77852795D01*
X126452795Y-77713072D01*
X126756250Y-77713072D01*
X126923408Y-77696608D01*
X127084142Y-77647850D01*
X127232275Y-77568671D01*
X127362115Y-77462115D01*
X127468671Y-77332275D01*
X127547850Y-77184142D01*
X127596608Y-77023408D01*
X127613072Y-76856250D01*
X127613072Y-76647486D01*
X127640518Y-76655812D01*
X127765000Y-76668072D01*
X129285000Y-76668072D01*
X129409482Y-76655812D01*
X129529180Y-76619502D01*
X129639494Y-76560537D01*
X129736185Y-76481185D01*
X129815537Y-76384494D01*
X129874502Y-76274180D01*
X129910812Y-76154482D01*
X129923072Y-76030000D01*
X129923072Y-74250000D01*
X129910812Y-74125518D01*
X129874502Y-74005820D01*
X129815537Y-73895506D01*
X129736185Y-73798815D01*
X129639494Y-73719463D01*
X129529180Y-73660498D01*
X129409482Y-73624188D01*
X129285000Y-73611928D01*
X127938072Y-73611928D01*
X127938072Y-73250000D01*
X127921969Y-73086500D01*
X127874278Y-72929284D01*
X127796831Y-72784392D01*
X127692606Y-72657394D01*
X127653134Y-72625000D01*
X127692606Y-72592606D01*
X127796831Y-72465608D01*
X127874278Y-72320716D01*
X127921969Y-72163500D01*
X127938072Y-72000000D01*
X127938072Y-71600000D01*
X127936897Y-71588072D01*
X129285000Y-71588072D01*
X129409482Y-71575812D01*
X129529180Y-71539502D01*
X129639494Y-71480537D01*
X129736185Y-71401185D01*
X129815537Y-71304494D01*
X129874502Y-71194180D01*
X129910812Y-71074482D01*
X129923072Y-70950000D01*
X129923072Y-69170000D01*
X129910812Y-69045518D01*
X129874502Y-68925820D01*
X129815537Y-68815506D01*
X129736185Y-68718815D01*
X129664518Y-68660000D01*
X130373000Y-68660000D01*
X130373000Y-86673000D01*
%TA.AperFunction,Conductor*%
D22*
G36*
X130373000Y-86673000D02*
G01*
X127136504Y-86673000D01*
X127146969Y-86638500D01*
X127163072Y-86475000D01*
X127163072Y-86075000D01*
X127146969Y-85911500D01*
X127099278Y-85754284D01*
X127021831Y-85609392D01*
X126917606Y-85482394D01*
X126878134Y-85450000D01*
X126917606Y-85417606D01*
X127021831Y-85290608D01*
X127099278Y-85145716D01*
X127126928Y-85054566D01*
X127126928Y-85180000D01*
X127139188Y-85304482D01*
X127175498Y-85424180D01*
X127234463Y-85534494D01*
X127313815Y-85631185D01*
X127410506Y-85710537D01*
X127520820Y-85769502D01*
X127640518Y-85805812D01*
X127765000Y-85818072D01*
X129285000Y-85818072D01*
X129409482Y-85805812D01*
X129529180Y-85769502D01*
X129639494Y-85710537D01*
X129736185Y-85631185D01*
X129815537Y-85534494D01*
X129874502Y-85424180D01*
X129910812Y-85304482D01*
X129923072Y-85180000D01*
X129923072Y-83400000D01*
X129910812Y-83275518D01*
X129874502Y-83155820D01*
X129815537Y-83045506D01*
X129736185Y-82948815D01*
X129639494Y-82869463D01*
X129529180Y-82810498D01*
X129409482Y-82774188D01*
X129285000Y-82761928D01*
X127765000Y-82761928D01*
X127640518Y-82774188D01*
X127520820Y-82810498D01*
X127410506Y-82869463D01*
X127388072Y-82887874D01*
X127388072Y-82125000D01*
X127375812Y-82000518D01*
X127339502Y-81880820D01*
X127280537Y-81770506D01*
X127201185Y-81673815D01*
X127104494Y-81594463D01*
X126994180Y-81535498D01*
X126910344Y-81510067D01*
X126946831Y-81465608D01*
X127024278Y-81320716D01*
X127071969Y-81163500D01*
X127088072Y-81000000D01*
X127088072Y-80867796D01*
X127363724Y-80592144D01*
X127410506Y-80630537D01*
X127520820Y-80689502D01*
X127640518Y-80725812D01*
X127765000Y-80738072D01*
X129285000Y-80738072D01*
X129409482Y-80725812D01*
X129529180Y-80689502D01*
X129639494Y-80630537D01*
X129736185Y-80551185D01*
X129815537Y-80454494D01*
X129874502Y-80344180D01*
X129910812Y-80224482D01*
X129923072Y-80100000D01*
X129923072Y-78320000D01*
X129910812Y-78195518D01*
X129874502Y-78075820D01*
X129815537Y-77965506D01*
X129736185Y-77868815D01*
X129639494Y-77789463D01*
X129529180Y-77730498D01*
X129409482Y-77694188D01*
X129285000Y-77681928D01*
X127765000Y-77681928D01*
X127640518Y-77694188D01*
X127520820Y-77730498D01*
X127410506Y-77789463D01*
X127313815Y-77868815D01*
X127234463Y-77965506D01*
X127175498Y-78075820D01*
X127139188Y-78195518D01*
X127126928Y-78320000D01*
X127126928Y-78492703D01*
X127108854Y-78502364D01*
X126981709Y-78606709D01*
X126955563Y-78638568D01*
X125982204Y-79611928D01*
X125850000Y-79611928D01*
X125686500Y-79628031D01*
X125529284Y-79675722D01*
X125490167Y-79696631D01*
X125521488Y-79593377D01*
X125538072Y-79425000D01*
X125538072Y-78925000D01*
X125530495Y-78848072D01*
X125535000Y-78848072D01*
X125686794Y-78833122D01*
X125832755Y-78788845D01*
X125967274Y-78716943D01*
X126085180Y-78620180D01*
X126181943Y-78502274D01*
X126253845Y-78367755D01*
X126298122Y-78221794D01*
X126313072Y-78070000D01*
X126313072Y-77852795D01*
X126452795Y-77713072D01*
X126756250Y-77713072D01*
X126923408Y-77696608D01*
X127084142Y-77647850D01*
X127232275Y-77568671D01*
X127362115Y-77462115D01*
X127468671Y-77332275D01*
X127547850Y-77184142D01*
X127596608Y-77023408D01*
X127613072Y-76856250D01*
X127613072Y-76647486D01*
X127640518Y-76655812D01*
X127765000Y-76668072D01*
X129285000Y-76668072D01*
X129409482Y-76655812D01*
X129529180Y-76619502D01*
X129639494Y-76560537D01*
X129736185Y-76481185D01*
X129815537Y-76384494D01*
X129874502Y-76274180D01*
X129910812Y-76154482D01*
X129923072Y-76030000D01*
X129923072Y-74250000D01*
X129910812Y-74125518D01*
X129874502Y-74005820D01*
X129815537Y-73895506D01*
X129736185Y-73798815D01*
X129639494Y-73719463D01*
X129529180Y-73660498D01*
X129409482Y-73624188D01*
X129285000Y-73611928D01*
X127938072Y-73611928D01*
X127938072Y-73250000D01*
X127921969Y-73086500D01*
X127874278Y-72929284D01*
X127796831Y-72784392D01*
X127692606Y-72657394D01*
X127653134Y-72625000D01*
X127692606Y-72592606D01*
X127796831Y-72465608D01*
X127874278Y-72320716D01*
X127921969Y-72163500D01*
X127938072Y-72000000D01*
X127938072Y-71600000D01*
X127936897Y-71588072D01*
X129285000Y-71588072D01*
X129409482Y-71575812D01*
X129529180Y-71539502D01*
X129639494Y-71480537D01*
X129736185Y-71401185D01*
X129815537Y-71304494D01*
X129874502Y-71194180D01*
X129910812Y-71074482D01*
X129923072Y-70950000D01*
X129923072Y-69170000D01*
X129910812Y-69045518D01*
X129874502Y-68925820D01*
X129815537Y-68815506D01*
X129736185Y-68718815D01*
X129664518Y-68660000D01*
X130373000Y-68660000D01*
X130373000Y-86673000D01*
G37*
%TD.AperFunction*%
D21*
X122961928Y-69825000D02*
X122974188Y-69949482D01*
X123010498Y-70069180D01*
X123069463Y-70179494D01*
X123148815Y-70276185D01*
X123245506Y-70355537D01*
X123355820Y-70414502D01*
X123475518Y-70450812D01*
X123600000Y-70463072D01*
X124107204Y-70463072D01*
X124381059Y-70736928D01*
X124325000Y-70736928D01*
X124200518Y-70749188D01*
X124080820Y-70785498D01*
X123970506Y-70844463D01*
X123873815Y-70923815D01*
X123794463Y-71020506D01*
X123735498Y-71130820D01*
X123699188Y-71250518D01*
X123686928Y-71375000D01*
X123686928Y-72475000D01*
X123699188Y-72599482D01*
X123735498Y-72719180D01*
X123794463Y-72829494D01*
X123873815Y-72926185D01*
X123970506Y-73005537D01*
X124080820Y-73064502D01*
X124200518Y-73100812D01*
X124325000Y-73113072D01*
X124882204Y-73113072D01*
X125306060Y-73536928D01*
X124325000Y-73536928D01*
X124200518Y-73549188D01*
X124080820Y-73585498D01*
X123970506Y-73644463D01*
X123873815Y-73723815D01*
X123794463Y-73820506D01*
X123735498Y-73930820D01*
X123699188Y-74050518D01*
X123686928Y-74175000D01*
X123686928Y-74568561D01*
X123321946Y-74203579D01*
X123295791Y-74171709D01*
X123168646Y-74067364D01*
X123168307Y-74067183D01*
X123165990Y-74061589D01*
X123003475Y-73818368D01*
X122796632Y-73611525D01*
X122553411Y-73449010D01*
X122283158Y-73337068D01*
X121996260Y-73280000D01*
X121703740Y-73280000D01*
X121416842Y-73337068D01*
X121146589Y-73449010D01*
X120903368Y-73611525D01*
X120696525Y-73818368D01*
X120660000Y-73873032D01*
X120660000Y-68660000D01*
X122961928Y-68660000D01*
X122961928Y-69825000D01*
%TA.AperFunction,Conductor*%
D22*
G36*
X122961928Y-69825000D02*
G01*
X122974188Y-69949482D01*
X123010498Y-70069180D01*
X123069463Y-70179494D01*
X123148815Y-70276185D01*
X123245506Y-70355537D01*
X123355820Y-70414502D01*
X123475518Y-70450812D01*
X123600000Y-70463072D01*
X124107204Y-70463072D01*
X124381059Y-70736928D01*
X124325000Y-70736928D01*
X124200518Y-70749188D01*
X124080820Y-70785498D01*
X123970506Y-70844463D01*
X123873815Y-70923815D01*
X123794463Y-71020506D01*
X123735498Y-71130820D01*
X123699188Y-71250518D01*
X123686928Y-71375000D01*
X123686928Y-72475000D01*
X123699188Y-72599482D01*
X123735498Y-72719180D01*
X123794463Y-72829494D01*
X123873815Y-72926185D01*
X123970506Y-73005537D01*
X124080820Y-73064502D01*
X124200518Y-73100812D01*
X124325000Y-73113072D01*
X124882204Y-73113072D01*
X125306060Y-73536928D01*
X124325000Y-73536928D01*
X124200518Y-73549188D01*
X124080820Y-73585498D01*
X123970506Y-73644463D01*
X123873815Y-73723815D01*
X123794463Y-73820506D01*
X123735498Y-73930820D01*
X123699188Y-74050518D01*
X123686928Y-74175000D01*
X123686928Y-74568561D01*
X123321946Y-74203579D01*
X123295791Y-74171709D01*
X123168646Y-74067364D01*
X123168307Y-74067183D01*
X123165990Y-74061589D01*
X123003475Y-73818368D01*
X122796632Y-73611525D01*
X122553411Y-73449010D01*
X122283158Y-73337068D01*
X121996260Y-73280000D01*
X121703740Y-73280000D01*
X121416842Y-73337068D01*
X121146589Y-73449010D01*
X120903368Y-73611525D01*
X120696525Y-73818368D01*
X120660000Y-73873032D01*
X120660000Y-68660000D01*
X122961928Y-68660000D01*
X122961928Y-69825000D01*
G37*
%TD.AperFunction*%
%TD*%
D21*
%TO.N,GND*%
X123872068Y-88516842D02*
X123815000Y-88803740D01*
X123815000Y-89096260D01*
X123872068Y-89383158D01*
X123984010Y-89653411D01*
X124146525Y-89896632D01*
X124353368Y-90103475D01*
X124596589Y-90265990D01*
X124866842Y-90377932D01*
X125153740Y-90435000D01*
X125446260Y-90435000D01*
X125733158Y-90377932D01*
X126003411Y-90265990D01*
X126246632Y-90103475D01*
X126453475Y-89896632D01*
X126570000Y-89722240D01*
X126686525Y-89896632D01*
X126893368Y-90103475D01*
X127136589Y-90265990D01*
X127406842Y-90377932D01*
X127693740Y-90435000D01*
X127986260Y-90435000D01*
X128273158Y-90377932D01*
X128543411Y-90265990D01*
X128786632Y-90103475D01*
X128993475Y-89896632D01*
X129110000Y-89722240D01*
X129226525Y-89896632D01*
X129433368Y-90103475D01*
X129676589Y-90265990D01*
X129946842Y-90377932D01*
X130233740Y-90435000D01*
X130526260Y-90435000D01*
X130657939Y-90408807D01*
X131010559Y-90761427D01*
X131036710Y-90793292D01*
X131163855Y-90897637D01*
X131308914Y-90975173D01*
X131466312Y-91022919D01*
X131588982Y-91035001D01*
X131588992Y-91035001D01*
X131630000Y-91039040D01*
X131671008Y-91035001D01*
X136018983Y-91035001D01*
X136060001Y-91039041D01*
X136101019Y-91035001D01*
X136101020Y-91035001D01*
X136223690Y-91022919D01*
X136381088Y-90975173D01*
X136526147Y-90897637D01*
X136653292Y-90793292D01*
X136679446Y-90761423D01*
X137017493Y-90423378D01*
X137025518Y-90425812D01*
X137150000Y-90438072D01*
X138850000Y-90438072D01*
X138974482Y-90425812D01*
X139094180Y-90389502D01*
X139204494Y-90330537D01*
X139301185Y-90251185D01*
X139340000Y-90203888D01*
X139340000Y-92340000D01*
X120660000Y-92340000D01*
X120660000Y-88427000D01*
X123909282Y-88427000D01*
X123872068Y-88516842D01*
%TA.AperFunction,Conductor*%
D22*
G36*
X123872068Y-88516842D02*
G01*
X123815000Y-88803740D01*
X123815000Y-89096260D01*
X123872068Y-89383158D01*
X123984010Y-89653411D01*
X124146525Y-89896632D01*
X124353368Y-90103475D01*
X124596589Y-90265990D01*
X124866842Y-90377932D01*
X125153740Y-90435000D01*
X125446260Y-90435000D01*
X125733158Y-90377932D01*
X126003411Y-90265990D01*
X126246632Y-90103475D01*
X126453475Y-89896632D01*
X126570000Y-89722240D01*
X126686525Y-89896632D01*
X126893368Y-90103475D01*
X127136589Y-90265990D01*
X127406842Y-90377932D01*
X127693740Y-90435000D01*
X127986260Y-90435000D01*
X128273158Y-90377932D01*
X128543411Y-90265990D01*
X128786632Y-90103475D01*
X128993475Y-89896632D01*
X129110000Y-89722240D01*
X129226525Y-89896632D01*
X129433368Y-90103475D01*
X129676589Y-90265990D01*
X129946842Y-90377932D01*
X130233740Y-90435000D01*
X130526260Y-90435000D01*
X130657939Y-90408807D01*
X131010559Y-90761427D01*
X131036710Y-90793292D01*
X131163855Y-90897637D01*
X131308914Y-90975173D01*
X131466312Y-91022919D01*
X131588982Y-91035001D01*
X131588992Y-91035001D01*
X131630000Y-91039040D01*
X131671008Y-91035001D01*
X136018983Y-91035001D01*
X136060001Y-91039041D01*
X136101019Y-91035001D01*
X136101020Y-91035001D01*
X136223690Y-91022919D01*
X136381088Y-90975173D01*
X136526147Y-90897637D01*
X136653292Y-90793292D01*
X136679446Y-90761423D01*
X137017493Y-90423378D01*
X137025518Y-90425812D01*
X137150000Y-90438072D01*
X138850000Y-90438072D01*
X138974482Y-90425812D01*
X139094180Y-90389502D01*
X139204494Y-90330537D01*
X139301185Y-90251185D01*
X139340000Y-90203888D01*
X139340000Y-92340000D01*
X120660000Y-92340000D01*
X120660000Y-88427000D01*
X123909282Y-88427000D01*
X123872068Y-88516842D01*
G37*
%TD.AperFunction*%
D21*
X138031413Y-76712672D02*
X138188811Y-76760418D01*
X138311481Y-76772500D01*
X138311491Y-76772500D01*
X138352499Y-76776539D01*
X138393507Y-76772500D01*
X138400539Y-76772500D01*
X138468380Y-76828175D01*
X138408553Y-76846324D01*
X138211377Y-76951716D01*
X138081856Y-77058011D01*
X138081854Y-77058013D01*
X138038551Y-77093551D01*
X138003013Y-77136854D01*
X137457940Y-77681928D01*
X136785000Y-77681928D01*
X136660518Y-77694188D01*
X136540820Y-77730498D01*
X136430506Y-77789463D01*
X136333815Y-77868815D01*
X136254463Y-77965506D01*
X136195498Y-78075820D01*
X136159188Y-78195518D01*
X136146928Y-78320000D01*
X136146928Y-80100000D01*
X136159188Y-80224482D01*
X136195498Y-80344180D01*
X136254463Y-80454494D01*
X136333815Y-80551185D01*
X136430506Y-80630537D01*
X136540820Y-80689502D01*
X136660518Y-80725812D01*
X136785000Y-80738072D01*
X138061928Y-80738072D01*
X138061928Y-80750000D01*
X138078031Y-80913500D01*
X138125722Y-81070716D01*
X138203169Y-81215608D01*
X138307394Y-81342606D01*
X138340000Y-81369366D01*
X138340001Y-81890770D01*
X138256329Y-81992725D01*
X138177150Y-82140858D01*
X138128392Y-82301592D01*
X138111928Y-82468750D01*
X138111928Y-82761928D01*
X136785000Y-82761928D01*
X136660518Y-82774188D01*
X136540820Y-82810498D01*
X136430506Y-82869463D01*
X136333815Y-82948815D01*
X136254463Y-83045506D01*
X136195498Y-83155820D01*
X136159188Y-83275518D01*
X136146928Y-83400000D01*
X136146928Y-84493627D01*
X136073101Y-84583587D01*
X136052363Y-84608856D01*
X135974827Y-84753915D01*
X135927081Y-84911313D01*
X135910959Y-85075001D01*
X135914999Y-85116020D01*
X135915000Y-89164134D01*
X135714133Y-89365001D01*
X134351544Y-89365001D01*
X134405000Y-89096260D01*
X134405000Y-88803740D01*
X134378807Y-88672060D01*
X134961428Y-88089440D01*
X134993291Y-88063291D01*
X135097636Y-87936146D01*
X135175172Y-87791087D01*
X135222918Y-87633689D01*
X135235000Y-87511019D01*
X135235000Y-87511018D01*
X135239040Y-87470001D01*
X135235000Y-87428982D01*
X135235000Y-78620867D01*
X137187796Y-76668072D01*
X137947973Y-76668072D01*
X138031413Y-76712672D01*
%TA.AperFunction,Conductor*%
D22*
G36*
X138031413Y-76712672D02*
G01*
X138188811Y-76760418D01*
X138311481Y-76772500D01*
X138311491Y-76772500D01*
X138352499Y-76776539D01*
X138393507Y-76772500D01*
X138400539Y-76772500D01*
X138468380Y-76828175D01*
X138408553Y-76846324D01*
X138211377Y-76951716D01*
X138081856Y-77058011D01*
X138081854Y-77058013D01*
X138038551Y-77093551D01*
X138003013Y-77136854D01*
X137457940Y-77681928D01*
X136785000Y-77681928D01*
X136660518Y-77694188D01*
X136540820Y-77730498D01*
X136430506Y-77789463D01*
X136333815Y-77868815D01*
X136254463Y-77965506D01*
X136195498Y-78075820D01*
X136159188Y-78195518D01*
X136146928Y-78320000D01*
X136146928Y-80100000D01*
X136159188Y-80224482D01*
X136195498Y-80344180D01*
X136254463Y-80454494D01*
X136333815Y-80551185D01*
X136430506Y-80630537D01*
X136540820Y-80689502D01*
X136660518Y-80725812D01*
X136785000Y-80738072D01*
X138061928Y-80738072D01*
X138061928Y-80750000D01*
X138078031Y-80913500D01*
X138125722Y-81070716D01*
X138203169Y-81215608D01*
X138307394Y-81342606D01*
X138340000Y-81369366D01*
X138340001Y-81890770D01*
X138256329Y-81992725D01*
X138177150Y-82140858D01*
X138128392Y-82301592D01*
X138111928Y-82468750D01*
X138111928Y-82761928D01*
X136785000Y-82761928D01*
X136660518Y-82774188D01*
X136540820Y-82810498D01*
X136430506Y-82869463D01*
X136333815Y-82948815D01*
X136254463Y-83045506D01*
X136195498Y-83155820D01*
X136159188Y-83275518D01*
X136146928Y-83400000D01*
X136146928Y-84493627D01*
X136073101Y-84583587D01*
X136052363Y-84608856D01*
X135974827Y-84753915D01*
X135927081Y-84911313D01*
X135910959Y-85075001D01*
X135914999Y-85116020D01*
X135915000Y-89164134D01*
X135714133Y-89365001D01*
X134351544Y-89365001D01*
X134405000Y-89096260D01*
X134405000Y-88803740D01*
X134378807Y-88672060D01*
X134961428Y-88089440D01*
X134993291Y-88063291D01*
X135097636Y-87936146D01*
X135175172Y-87791087D01*
X135222918Y-87633689D01*
X135235000Y-87511019D01*
X135235000Y-87511018D01*
X135239040Y-87470001D01*
X135235000Y-87428982D01*
X135235000Y-78620867D01*
X137187796Y-76668072D01*
X137947973Y-76668072D01*
X138031413Y-76712672D01*
G37*
%TD.AperFunction*%
D21*
X136333815Y-68718815D02*
X136254463Y-68815506D01*
X136195498Y-68925820D01*
X136159188Y-69045518D01*
X136146928Y-69170000D01*
X136146928Y-70950000D01*
X136159188Y-71074482D01*
X136195498Y-71194180D01*
X136254463Y-71304494D01*
X136333815Y-71401185D01*
X136430506Y-71480537D01*
X136540820Y-71539502D01*
X136660518Y-71575812D01*
X136785000Y-71588072D01*
X138163215Y-71588072D01*
X138178031Y-71738500D01*
X138225722Y-71895716D01*
X138303169Y-72040608D01*
X138407394Y-72167606D01*
X138440000Y-72194365D01*
X138440001Y-73495115D01*
X138387885Y-73537885D01*
X138325466Y-73613944D01*
X138305000Y-73611928D01*
X136785000Y-73611928D01*
X136660518Y-73624188D01*
X136540820Y-73660498D01*
X136430506Y-73719463D01*
X136333815Y-73798815D01*
X136254463Y-73895506D01*
X136195498Y-74005820D01*
X136159188Y-74125518D01*
X136146928Y-74250000D01*
X136146928Y-75347204D01*
X134127000Y-77367133D01*
X134127000Y-68660000D01*
X136405482Y-68660000D01*
X136333815Y-68718815D01*
%TA.AperFunction,Conductor*%
D22*
G36*
X136333815Y-68718815D02*
G01*
X136254463Y-68815506D01*
X136195498Y-68925820D01*
X136159188Y-69045518D01*
X136146928Y-69170000D01*
X136146928Y-70950000D01*
X136159188Y-71074482D01*
X136195498Y-71194180D01*
X136254463Y-71304494D01*
X136333815Y-71401185D01*
X136430506Y-71480537D01*
X136540820Y-71539502D01*
X136660518Y-71575812D01*
X136785000Y-71588072D01*
X138163215Y-71588072D01*
X138178031Y-71738500D01*
X138225722Y-71895716D01*
X138303169Y-72040608D01*
X138407394Y-72167606D01*
X138440000Y-72194365D01*
X138440001Y-73495115D01*
X138387885Y-73537885D01*
X138325466Y-73613944D01*
X138305000Y-73611928D01*
X136785000Y-73611928D01*
X136660518Y-73624188D01*
X136540820Y-73660498D01*
X136430506Y-73719463D01*
X136333815Y-73798815D01*
X136254463Y-73895506D01*
X136195498Y-74005820D01*
X136159188Y-74125518D01*
X136146928Y-74250000D01*
X136146928Y-75347204D01*
X134127000Y-77367133D01*
X134127000Y-68660000D01*
X136405482Y-68660000D01*
X136333815Y-68718815D01*
G37*
%TD.AperFunction*%
%TD*%
M02*
