%TF.GenerationSoftware,KiCad,Pcbnew,(5.1.8-0-10_14)*%
%TF.CreationDate,2020-11-29T00:56:15+01:00*%
%TF.ProjectId,Opto-Tacho,4f70746f-2d54-4616-9368-6f2e6b696361,rev?*%
%TF.SameCoordinates,Original*%
%TF.FileFunction,Copper,L2,Bot*%
%TF.FilePolarity,Positive*%
%FSLAX46Y46*%
G04 Gerber Fmt 4.6, Leading zero omitted, Abs format (unit mm)*
G04 Created by KiCad (PCBNEW (5.1.8-0-10_14)) date 2020-11-29 00:56:15*
%MOMM*%
%LPD*%
G01*
G04 APERTURE LIST*
%TA.AperFunction,Profile*%
%ADD10C,0.050000*%
%TD*%
%TA.AperFunction,ComponentPad*%
%ADD11O,1.700000X1.700000*%
%TD*%
%TA.AperFunction,ComponentPad*%
%ADD12R,1.700000X1.700000*%
%TD*%
%TA.AperFunction,ViaPad*%
%ADD13C,1.000000*%
%TD*%
%TA.AperFunction,ViaPad*%
%ADD14C,0.800000*%
%TD*%
%TA.AperFunction,Conductor*%
%ADD15C,1.000000*%
%TD*%
%TA.AperFunction,Conductor*%
%ADD16C,0.254000*%
%TD*%
%TA.AperFunction,Conductor*%
%ADD17C,0.100000*%
%TD*%
G04 APERTURE END LIST*
D10*
X120000000Y-93000000D02*
X120000000Y-90000000D01*
X120000000Y-68000000D02*
X120000000Y-90000000D01*
X140000000Y-68000000D02*
X120000000Y-68000000D01*
X140000000Y-93000000D02*
X140000000Y-68000000D01*
X120000000Y-93000000D02*
X140000000Y-93000000D01*
D11*
%TO.P,J901,3*%
%TO.N,/ISO_IN_2*%
X121850000Y-77305000D03*
%TO.P,J901,2*%
%TO.N,/ISO_IN_1*%
X121850000Y-74765000D03*
D12*
%TO.P,J901,1*%
%TO.N,/ISO_GND*%
X121850000Y-72225000D03*
%TD*%
D11*
%TO.P,J101,7*%
%TO.N,GND*%
X122760000Y-88950000D03*
%TO.P,J101,6*%
%TO.N,N/C*%
X125300000Y-88950000D03*
%TO.P,J101,5*%
X127840000Y-88950000D03*
%TO.P,J101,4*%
%TO.N,/GPIO_2*%
X130380000Y-88950000D03*
%TO.P,J101,3*%
%TO.N,/GPIO_1*%
X132920000Y-88950000D03*
%TO.P,J101,2*%
%TO.N,GND*%
X135460000Y-88950000D03*
D12*
%TO.P,J101,1*%
%TO.N,+3V3*%
X138000000Y-88950000D03*
%TD*%
D13*
%TO.N,GND*%
X136000000Y-72700000D03*
D14*
X121000000Y-88800000D03*
X121000000Y-92000000D03*
X125100000Y-92100000D03*
X130300000Y-92100000D03*
X135400000Y-92000000D03*
X139100000Y-92100000D03*
X139200000Y-90700000D03*
X134400000Y-69000000D03*
X136100000Y-68900000D03*
X134200000Y-77100000D03*
D13*
%TO.N,/ISO_GND*%
X121950000Y-83575000D03*
X127650000Y-77425000D03*
X129875000Y-73625000D03*
X129925000Y-80900000D03*
X121925000Y-68725000D03*
D14*
X122400000Y-86400000D03*
X129800000Y-86200000D03*
X127000000Y-81300000D03*
X123400000Y-70400000D03*
X127200000Y-85800000D03*
X129900000Y-69000000D03*
D13*
%TO.N,+3V3*%
X138900000Y-77900000D03*
D14*
X138950000Y-69050000D03*
%TD*%
D15*
%TO.N,GND*%
X124310001Y-90500001D02*
X122760000Y-88950000D01*
X133909999Y-90500001D02*
X124310001Y-90500001D01*
X135460000Y-88950000D02*
X133909999Y-90500001D01*
%TO.N,+3V3*%
X138000000Y-78800000D02*
X138900000Y-77900000D01*
X138000000Y-88950000D02*
X138000000Y-78800000D01*
X138000000Y-70000000D02*
X138950000Y-69050000D01*
X138000000Y-88950000D02*
X138000000Y-70000000D01*
%TD*%
D16*
%TO.N,GND*%
X137236860Y-69158009D02*
X137193552Y-69193551D01*
X137051717Y-69366377D01*
X137031194Y-69404774D01*
X136946324Y-69563554D01*
X136881423Y-69777502D01*
X136859509Y-70000000D01*
X136865001Y-70055762D01*
X136865001Y-78744243D01*
X136859509Y-78800000D01*
X136865001Y-78855757D01*
X136865000Y-83906067D01*
X136865000Y-87532317D01*
X136795506Y-87569463D01*
X136698815Y-87648815D01*
X136619463Y-87745506D01*
X136560498Y-87855820D01*
X136524188Y-87975518D01*
X136511928Y-88100000D01*
X136511928Y-89800000D01*
X136524188Y-89924482D01*
X136560498Y-90044180D01*
X136619463Y-90154494D01*
X136698815Y-90251185D01*
X136795506Y-90330537D01*
X136905820Y-90389502D01*
X137025518Y-90425812D01*
X137150000Y-90438072D01*
X138850000Y-90438072D01*
X138974482Y-90425812D01*
X139094180Y-90389502D01*
X139204494Y-90330537D01*
X139301185Y-90251185D01*
X139340000Y-90203888D01*
X139340000Y-92340000D01*
X120660000Y-92340000D01*
X120660000Y-88427000D01*
X123909282Y-88427000D01*
X123872068Y-88516842D01*
X123815000Y-88803740D01*
X123815000Y-89096260D01*
X123872068Y-89383158D01*
X123984010Y-89653411D01*
X124146525Y-89896632D01*
X124353368Y-90103475D01*
X124596589Y-90265990D01*
X124866842Y-90377932D01*
X125153740Y-90435000D01*
X125446260Y-90435000D01*
X125733158Y-90377932D01*
X126003411Y-90265990D01*
X126246632Y-90103475D01*
X126453475Y-89896632D01*
X126570000Y-89722240D01*
X126686525Y-89896632D01*
X126893368Y-90103475D01*
X127136589Y-90265990D01*
X127406842Y-90377932D01*
X127693740Y-90435000D01*
X127986260Y-90435000D01*
X128273158Y-90377932D01*
X128543411Y-90265990D01*
X128786632Y-90103475D01*
X128993475Y-89896632D01*
X129110000Y-89722240D01*
X129226525Y-89896632D01*
X129433368Y-90103475D01*
X129676589Y-90265990D01*
X129946842Y-90377932D01*
X130233740Y-90435000D01*
X130526260Y-90435000D01*
X130813158Y-90377932D01*
X131083411Y-90265990D01*
X131326632Y-90103475D01*
X131533475Y-89896632D01*
X131650000Y-89722240D01*
X131766525Y-89896632D01*
X131973368Y-90103475D01*
X132216589Y-90265990D01*
X132486842Y-90377932D01*
X132773740Y-90435000D01*
X133066260Y-90435000D01*
X133353158Y-90377932D01*
X133623411Y-90265990D01*
X133866632Y-90103475D01*
X134073475Y-89896632D01*
X134235990Y-89653411D01*
X134347932Y-89383158D01*
X134405000Y-89096260D01*
X134405000Y-88803740D01*
X134347932Y-88516842D01*
X134235990Y-88246589D01*
X134127000Y-88083474D01*
X134127000Y-68660000D01*
X137734868Y-68660000D01*
X137236860Y-69158009D01*
%TA.AperFunction,Conductor*%
D17*
G36*
X137236860Y-69158009D02*
G01*
X137193552Y-69193551D01*
X137051717Y-69366377D01*
X137031194Y-69404774D01*
X136946324Y-69563554D01*
X136881423Y-69777502D01*
X136859509Y-70000000D01*
X136865001Y-70055762D01*
X136865001Y-78744243D01*
X136859509Y-78800000D01*
X136865001Y-78855757D01*
X136865000Y-83906067D01*
X136865000Y-87532317D01*
X136795506Y-87569463D01*
X136698815Y-87648815D01*
X136619463Y-87745506D01*
X136560498Y-87855820D01*
X136524188Y-87975518D01*
X136511928Y-88100000D01*
X136511928Y-89800000D01*
X136524188Y-89924482D01*
X136560498Y-90044180D01*
X136619463Y-90154494D01*
X136698815Y-90251185D01*
X136795506Y-90330537D01*
X136905820Y-90389502D01*
X137025518Y-90425812D01*
X137150000Y-90438072D01*
X138850000Y-90438072D01*
X138974482Y-90425812D01*
X139094180Y-90389502D01*
X139204494Y-90330537D01*
X139301185Y-90251185D01*
X139340000Y-90203888D01*
X139340000Y-92340000D01*
X120660000Y-92340000D01*
X120660000Y-88427000D01*
X123909282Y-88427000D01*
X123872068Y-88516842D01*
X123815000Y-88803740D01*
X123815000Y-89096260D01*
X123872068Y-89383158D01*
X123984010Y-89653411D01*
X124146525Y-89896632D01*
X124353368Y-90103475D01*
X124596589Y-90265990D01*
X124866842Y-90377932D01*
X125153740Y-90435000D01*
X125446260Y-90435000D01*
X125733158Y-90377932D01*
X126003411Y-90265990D01*
X126246632Y-90103475D01*
X126453475Y-89896632D01*
X126570000Y-89722240D01*
X126686525Y-89896632D01*
X126893368Y-90103475D01*
X127136589Y-90265990D01*
X127406842Y-90377932D01*
X127693740Y-90435000D01*
X127986260Y-90435000D01*
X128273158Y-90377932D01*
X128543411Y-90265990D01*
X128786632Y-90103475D01*
X128993475Y-89896632D01*
X129110000Y-89722240D01*
X129226525Y-89896632D01*
X129433368Y-90103475D01*
X129676589Y-90265990D01*
X129946842Y-90377932D01*
X130233740Y-90435000D01*
X130526260Y-90435000D01*
X130813158Y-90377932D01*
X131083411Y-90265990D01*
X131326632Y-90103475D01*
X131533475Y-89896632D01*
X131650000Y-89722240D01*
X131766525Y-89896632D01*
X131973368Y-90103475D01*
X132216589Y-90265990D01*
X132486842Y-90377932D01*
X132773740Y-90435000D01*
X133066260Y-90435000D01*
X133353158Y-90377932D01*
X133623411Y-90265990D01*
X133866632Y-90103475D01*
X134073475Y-89896632D01*
X134235990Y-89653411D01*
X134347932Y-89383158D01*
X134405000Y-89096260D01*
X134405000Y-88803740D01*
X134347932Y-88516842D01*
X134235990Y-88246589D01*
X134127000Y-88083474D01*
X134127000Y-68660000D01*
X137734868Y-68660000D01*
X137236860Y-69158009D01*
G37*
%TD.AperFunction*%
%TD*%
D16*
%TO.N,/ISO_GND*%
X130373000Y-86673000D02*
X120660000Y-86673000D01*
X120660000Y-78196968D01*
X120696525Y-78251632D01*
X120903368Y-78458475D01*
X121146589Y-78620990D01*
X121416842Y-78732932D01*
X121703740Y-78790000D01*
X121996260Y-78790000D01*
X122283158Y-78732932D01*
X122553411Y-78620990D01*
X122796632Y-78458475D01*
X123003475Y-78251632D01*
X123165990Y-78008411D01*
X123277932Y-77738158D01*
X123335000Y-77451260D01*
X123335000Y-77158740D01*
X123277932Y-76871842D01*
X123165990Y-76601589D01*
X123003475Y-76358368D01*
X122796632Y-76151525D01*
X122622240Y-76035000D01*
X122796632Y-75918475D01*
X123003475Y-75711632D01*
X123165990Y-75468411D01*
X123277932Y-75198158D01*
X123335000Y-74911260D01*
X123335000Y-74618740D01*
X123277932Y-74331842D01*
X123165990Y-74061589D01*
X123003475Y-73818368D01*
X122796632Y-73611525D01*
X122553411Y-73449010D01*
X122283158Y-73337068D01*
X121996260Y-73280000D01*
X121703740Y-73280000D01*
X121416842Y-73337068D01*
X121146589Y-73449010D01*
X120903368Y-73611525D01*
X120696525Y-73818368D01*
X120660000Y-73873032D01*
X120660000Y-68660000D01*
X130373000Y-68660000D01*
X130373000Y-86673000D01*
%TA.AperFunction,Conductor*%
D17*
G36*
X130373000Y-86673000D02*
G01*
X120660000Y-86673000D01*
X120660000Y-78196968D01*
X120696525Y-78251632D01*
X120903368Y-78458475D01*
X121146589Y-78620990D01*
X121416842Y-78732932D01*
X121703740Y-78790000D01*
X121996260Y-78790000D01*
X122283158Y-78732932D01*
X122553411Y-78620990D01*
X122796632Y-78458475D01*
X123003475Y-78251632D01*
X123165990Y-78008411D01*
X123277932Y-77738158D01*
X123335000Y-77451260D01*
X123335000Y-77158740D01*
X123277932Y-76871842D01*
X123165990Y-76601589D01*
X123003475Y-76358368D01*
X122796632Y-76151525D01*
X122622240Y-76035000D01*
X122796632Y-75918475D01*
X123003475Y-75711632D01*
X123165990Y-75468411D01*
X123277932Y-75198158D01*
X123335000Y-74911260D01*
X123335000Y-74618740D01*
X123277932Y-74331842D01*
X123165990Y-74061589D01*
X123003475Y-73818368D01*
X122796632Y-73611525D01*
X122553411Y-73449010D01*
X122283158Y-73337068D01*
X121996260Y-73280000D01*
X121703740Y-73280000D01*
X121416842Y-73337068D01*
X121146589Y-73449010D01*
X120903368Y-73611525D01*
X120696525Y-73818368D01*
X120660000Y-73873032D01*
X120660000Y-68660000D01*
X130373000Y-68660000D01*
X130373000Y-86673000D01*
G37*
%TD.AperFunction*%
%TD*%
M02*
