M48
; DRILL file {KiCad (5.1.8-0-10_14)} date Friday, November 27, 2020 at 11:31:25 AM
; FORMAT={-:-/ absolute / inch / decimal}
; #@! TF.CreationDate,2020-11-27T11:31:25+01:00
; #@! TF.GenerationSoftware,Kicad,Pcbnew,(5.1.8-0-10_14)
FMAT,2
INCH
T1C0.0157
T2C0.0394
%
G90
G05
T1
X4.7638Y-3.4961
X4.7638Y-3.622
X4.8002Y-2.7057
X4.8012Y-3.2904
X4.8189Y-3.4016
X4.8583Y-2.7717
X4.9252Y-3.626
X5.0Y-3.2008
X5.0079Y-3.378
X5.0256Y-3.0482
X5.1102Y-3.3937
X5.1132Y-2.8986
X5.1142Y-2.7165
X5.1152Y-3.185
X5.1299Y-3.626
X5.2835Y-3.0354
X5.2913Y-2.7165
X5.3307Y-3.622
X5.3543Y-2.8622
X5.3583Y-2.7126
X5.4685Y-3.0669
X5.4705Y-2.7185
X5.4764Y-3.626
X5.4803Y-3.5709
T2
X4.7972Y-2.8435
X4.7972Y-2.9435
X4.7972Y-3.0435
X4.8331Y-3.502
X4.9331Y-3.502
X5.0331Y-3.502
X5.1331Y-3.502
X5.2331Y-3.502
X5.3331Y-3.502
X5.4331Y-3.502
T0
M30
