%TF.GenerationSoftware,KiCad,Pcbnew,(5.1.8-0-10_14)*%
%TF.CreationDate,2020-11-28T23:42:33+01:00*%
%TF.ProjectId,FT2232Breakout,46543232-3332-4427-9265-616b6f75742e,rev?*%
%TF.SameCoordinates,Original*%
%TF.FileFunction,Copper,L4,Bot*%
%TF.FilePolarity,Positive*%
%FSLAX46Y46*%
G04 Gerber Fmt 4.6, Leading zero omitted, Abs format (unit mm)*
G04 Created by KiCad (PCBNEW (5.1.8-0-10_14)) date 2020-11-28 23:42:33*
%MOMM*%
%LPD*%
G01*
G04 APERTURE LIST*
%TA.AperFunction,ComponentPad*%
%ADD10O,1.700000X1.700000*%
%TD*%
%TA.AperFunction,ComponentPad*%
%ADD11R,1.700000X1.700000*%
%TD*%
%TA.AperFunction,ComponentPad*%
%ADD12O,1.850000X0.850000*%
%TD*%
%TA.AperFunction,ComponentPad*%
%ADD13C,0.840000*%
%TD*%
%TA.AperFunction,ComponentPad*%
%ADD14R,0.840000X0.840000*%
%TD*%
%TA.AperFunction,ViaPad*%
%ADD15C,0.600000*%
%TD*%
%TA.AperFunction,ViaPad*%
%ADD16C,0.800000*%
%TD*%
%TA.AperFunction,ViaPad*%
%ADD17C,0.450000*%
%TD*%
%TA.AperFunction,Conductor*%
%ADD18C,0.250000*%
%TD*%
%TA.AperFunction,Conductor*%
%ADD19C,0.254000*%
%TD*%
%TA.AperFunction,Conductor*%
%ADD20C,0.100000*%
%TD*%
G04 APERTURE END LIST*
D10*
%TO.P,J103,26*%
%TO.N,/AC7*%
X139700000Y-99060000D03*
%TO.P,J103,25*%
%TO.N,/SUSPEND#*%
X139700000Y-101600000D03*
%TO.P,J103,24*%
%TO.N,/AC5*%
X137160000Y-99060000D03*
%TO.P,J103,23*%
%TO.N,/AC6*%
X137160000Y-101600000D03*
%TO.P,J103,22*%
%TO.N,/AC4*%
X134620000Y-99060000D03*
%TO.P,J103,21*%
%TO.N,/VIO*%
X134620000Y-101600000D03*
%TO.P,J103,20*%
%TO.N,/AC2*%
X132080000Y-99060000D03*
%TO.P,J103,19*%
%TO.N,/AC3*%
X132080000Y-101600000D03*
%TO.P,J103,18*%
%TO.N,/AC0*%
X129540000Y-99060000D03*
%TO.P,J103,17*%
%TO.N,/AC1*%
X129540000Y-101600000D03*
%TO.P,J103,16*%
%TO.N,/AD6*%
X127000000Y-99060000D03*
%TO.P,J103,15*%
%TO.N,/AD7*%
X127000000Y-101600000D03*
%TO.P,J103,14*%
%TO.N,/AD4*%
X124460000Y-99060000D03*
%TO.P,J103,13*%
%TO.N,/AD5*%
X124460000Y-101600000D03*
%TO.P,J103,12*%
%TO.N,/AD3*%
X121920000Y-99060000D03*
%TO.P,J103,11*%
%TO.N,/VIO*%
X121920000Y-101600000D03*
%TO.P,J103,10*%
%TO.N,/AD1*%
X119380000Y-99060000D03*
%TO.P,J103,9*%
%TO.N,/AD2*%
X119380000Y-101600000D03*
%TO.P,J103,8*%
%TO.N,/RESET#*%
X116840000Y-99060000D03*
%TO.P,J103,7*%
%TO.N,/AD0*%
X116840000Y-101600000D03*
%TO.P,J103,6*%
%TO.N,GND*%
X114300000Y-99060000D03*
%TO.P,J103,5*%
%TO.N,+3V3*%
X114300000Y-101600000D03*
%TO.P,J103,4*%
%TO.N,GND*%
X111760000Y-99060000D03*
%TO.P,J103,3*%
%TO.N,+3V3*%
X111760000Y-101600000D03*
%TO.P,J103,2*%
%TO.N,GND*%
X109220000Y-99060000D03*
D11*
%TO.P,J103,1*%
%TO.N,+3V3*%
X109220000Y-101600000D03*
%TD*%
D10*
%TO.P,J102,26*%
%TO.N,/BD0*%
X139700000Y-76200000D03*
%TO.P,J102,25*%
%TO.N,/BD1*%
X139700000Y-78740000D03*
%TO.P,J102,24*%
%TO.N,/BD2*%
X137160000Y-76200000D03*
%TO.P,J102,23*%
%TO.N,/BD3*%
X137160000Y-78740000D03*
%TO.P,J102,22*%
%TO.N,/VIO*%
X134620000Y-76200000D03*
%TO.P,J102,21*%
%TO.N,/BD4*%
X134620000Y-78740000D03*
%TO.P,J102,20*%
%TO.N,/BD5*%
X132080000Y-76200000D03*
%TO.P,J102,19*%
%TO.N,/BD6*%
X132080000Y-78740000D03*
%TO.P,J102,18*%
%TO.N,/BD7*%
X129540000Y-76200000D03*
%TO.P,J102,17*%
%TO.N,/BC0*%
X129540000Y-78740000D03*
%TO.P,J102,16*%
%TO.N,/BC1*%
X127000000Y-76200000D03*
%TO.P,J102,15*%
%TO.N,/BC2*%
X127000000Y-78740000D03*
%TO.P,J102,14*%
%TO.N,/BC3*%
X124460000Y-76200000D03*
%TO.P,J102,13*%
%TO.N,/BC4*%
X124460000Y-78740000D03*
%TO.P,J102,12*%
%TO.N,/VIO*%
X121920000Y-76200000D03*
%TO.P,J102,11*%
%TO.N,/BC5*%
X121920000Y-78740000D03*
%TO.P,J102,10*%
%TO.N,/BC6*%
X119380000Y-76200000D03*
%TO.P,J102,9*%
%TO.N,/BC7*%
X119380000Y-78740000D03*
%TO.P,J102,8*%
%TO.N,/PWREN#*%
X116840000Y-76200000D03*
%TO.P,J102,7*%
%TO.N,/DATA*%
X116840000Y-78740000D03*
%TO.P,J102,6*%
%TO.N,/CLK*%
X114300000Y-76200000D03*
%TO.P,J102,5*%
%TO.N,/CS*%
X114300000Y-78740000D03*
%TO.P,J102,4*%
%TO.N,GND*%
X111760000Y-76200000D03*
%TO.P,J102,3*%
%TO.N,+3V3*%
X111760000Y-78740000D03*
%TO.P,J102,2*%
%TO.N,GND*%
X109220000Y-76200000D03*
D11*
%TO.P,J102,1*%
%TO.N,+5V*%
X109220000Y-78740000D03*
%TD*%
D12*
%TO.P,J101,6*%
%TO.N,GND*%
X106940000Y-92175000D03*
X106940000Y-85025000D03*
D13*
%TO.P,J101,5*%
X107160000Y-89900000D03*
%TO.P,J101,4*%
%TO.N,N/C*%
X106160000Y-89250000D03*
%TO.P,J101,3*%
%TO.N,/USB_D+*%
X107160000Y-88600000D03*
%TO.P,J101,2*%
%TO.N,/USB_D-*%
X106160000Y-87950000D03*
D14*
%TO.P,J101,1*%
%TO.N,/VBUS*%
X107160000Y-87300000D03*
%TD*%
D15*
%TO.N,GND*%
X108690000Y-87390000D03*
D16*
X117320000Y-87160000D03*
X116290000Y-87200000D03*
D17*
X122220000Y-87110000D03*
X119480000Y-87470000D03*
D15*
X119510000Y-81480000D03*
X123650000Y-83110000D03*
D16*
X106110000Y-81450000D03*
D15*
X120320000Y-92250000D03*
X118120000Y-89440000D03*
D16*
X117900000Y-86420000D03*
X117900000Y-85090000D03*
X117290000Y-82510000D03*
X110380000Y-90320000D03*
D17*
X121880000Y-90120000D03*
X121900000Y-89600000D03*
X122120000Y-91110000D03*
X122160000Y-92147000D03*
X123190000Y-84740000D03*
X122760000Y-84350000D03*
X133260000Y-82110000D03*
D15*
X135380000Y-82030000D03*
X113230000Y-82874999D03*
D17*
X133620000Y-85640000D03*
X133470000Y-91600000D03*
X129280000Y-93400000D03*
X131571280Y-84639470D03*
D16*
X106500000Y-94400000D03*
X106000000Y-103000000D03*
X106000000Y-75000000D03*
X141000000Y-75000000D03*
X141000000Y-103000000D03*
X141000000Y-95000000D03*
X141000000Y-90000000D03*
X141000000Y-92000000D03*
X129000000Y-88000000D03*
X128000000Y-91000000D03*
X119300000Y-94400000D03*
X119900000Y-97400000D03*
X137400000Y-97400000D03*
X136500000Y-91000000D03*
X126200000Y-87800000D03*
%TO.N,+3V3*%
X114540000Y-87270000D03*
X112080000Y-92090000D03*
X116850000Y-92050000D03*
X115940000Y-82880000D03*
X114530000Y-90670000D03*
X112740000Y-90640000D03*
X116000000Y-90740000D03*
D15*
X132670000Y-80870000D03*
D16*
X110300000Y-94300000D03*
D17*
%TO.N,+5V*%
X112470000Y-87290000D03*
X120360000Y-93650000D03*
%TO.N,/VIO*%
X131830000Y-90450000D03*
X131830000Y-88330000D03*
%TO.N,/BD6*%
X132080000Y-86630000D03*
%TO.N,/BD7*%
X130730000Y-86130000D03*
%TO.N,/BC0*%
X129600000Y-85620000D03*
%TO.N,/BC5*%
X128770000Y-84080000D03*
%TO.N,/BC6*%
X128072710Y-81922330D03*
%TO.N,/BC7*%
X127410420Y-81934620D03*
%TO.N,/PWREN#*%
X127510000Y-84340000D03*
%TO.N,/DATA*%
X126770000Y-84340000D03*
X114420000Y-82820000D03*
%TO.N,/CLK*%
X126390000Y-86140000D03*
X126242629Y-82147371D03*
X115331297Y-80347295D03*
%TO.N,/CS*%
X125920000Y-85790000D03*
X113470000Y-80620000D03*
%TD*%
D18*
%TO.N,+5V*%
X113514962Y-87290000D02*
X115920000Y-89695038D01*
X112470000Y-87290000D02*
X113514962Y-87290000D01*
X115920000Y-89695038D02*
X116585038Y-89695038D01*
X120360000Y-93470000D02*
X120360000Y-93650000D01*
X116585038Y-89695038D02*
X120360000Y-93470000D01*
%TO.N,/VIO*%
X131830000Y-90450000D02*
X131830000Y-88330000D01*
%TO.N,/BD6*%
X132080000Y-78740000D02*
X132080000Y-86630000D01*
%TO.N,/BD7*%
X130642001Y-86042001D02*
X130730000Y-86130000D01*
X130642001Y-77302001D02*
X130642001Y-86042001D01*
X129540000Y-76200000D02*
X130642001Y-77302001D01*
%TO.N,/BC0*%
X129600000Y-78800000D02*
X129540000Y-78740000D01*
X129600000Y-85620000D02*
X129600000Y-78800000D01*
%TO.N,/BC5*%
X121920000Y-78740000D02*
X123040000Y-77620000D01*
X123040000Y-77620000D02*
X127580000Y-77620000D01*
X127580000Y-77620000D02*
X127770000Y-77620000D01*
X128770000Y-79600962D02*
X128770000Y-84080000D01*
X128437999Y-79268961D02*
X128770000Y-79600962D01*
X128437999Y-78287999D02*
X128437999Y-79268961D01*
X127770000Y-77620000D02*
X128437999Y-78287999D01*
%TO.N,/BC6*%
X120630000Y-79080962D02*
X120630000Y-77450000D01*
X121391039Y-79842001D02*
X120630000Y-79080962D01*
X120630000Y-77450000D02*
X119380000Y-76200000D01*
X125992381Y-79842001D02*
X121391039Y-79842001D01*
X128072710Y-81922330D02*
X125992381Y-79842001D01*
%TO.N,/BC7*%
X127410420Y-81934620D02*
X126071821Y-80596021D01*
X119380000Y-78740000D02*
X120859011Y-80219011D01*
X125694811Y-80219011D02*
X126071821Y-80596021D01*
X120859011Y-80219011D02*
X125694811Y-80219011D01*
%TO.N,/PWREN#*%
X125365859Y-80596021D02*
X127510000Y-82740162D01*
X127510000Y-82740162D02*
X127510000Y-84340000D01*
X118100000Y-77460000D02*
X118100000Y-79153038D01*
X116840000Y-76200000D02*
X118100000Y-77460000D01*
X118100000Y-79153038D02*
X118788963Y-79842001D01*
X118788963Y-79842001D02*
X119948829Y-79842001D01*
X120702849Y-80596021D02*
X125365859Y-80596021D01*
X119948829Y-79842001D02*
X120702849Y-80596021D01*
%TO.N,/DATA*%
X119525135Y-85217001D02*
X125892999Y-85217001D01*
X117871125Y-83562991D02*
X119525135Y-85217001D01*
X115202990Y-83562990D02*
X117871125Y-83562991D01*
X115172001Y-83532001D02*
X115202990Y-83562990D01*
X115132001Y-83532001D02*
X115172001Y-83532001D01*
X125892999Y-85217001D02*
X126770000Y-84340000D01*
X114420000Y-82820000D02*
X115132001Y-83532001D01*
%TO.N,/CLK*%
X125068289Y-80973031D02*
X126242629Y-82147371D01*
X120546686Y-80973030D02*
X125068289Y-80973031D01*
X119920951Y-80347295D02*
X120546686Y-80973030D01*
X115331297Y-80347295D02*
X119920951Y-80347295D01*
%TO.N,/CS*%
X119564962Y-85790000D02*
X117714962Y-83940000D01*
X125920000Y-85790000D02*
X119564962Y-85790000D01*
X113942999Y-83048961D02*
X113942999Y-81092999D01*
X113942999Y-81092999D02*
X113470000Y-80620000D01*
X114834038Y-83940000D02*
X113942999Y-83048961D01*
X117714962Y-83940000D02*
X114834038Y-83940000D01*
%TD*%
D19*
%TO.N,GND*%
X141340001Y-103340000D02*
X105660000Y-103340000D01*
X105660000Y-100750000D01*
X107731928Y-100750000D01*
X107731928Y-102450000D01*
X107744188Y-102574482D01*
X107780498Y-102694180D01*
X107839463Y-102804494D01*
X107918815Y-102901185D01*
X108015506Y-102980537D01*
X108125820Y-103039502D01*
X108245518Y-103075812D01*
X108370000Y-103088072D01*
X110070000Y-103088072D01*
X110194482Y-103075812D01*
X110314180Y-103039502D01*
X110424494Y-102980537D01*
X110521185Y-102901185D01*
X110600537Y-102804494D01*
X110659502Y-102694180D01*
X110681513Y-102621620D01*
X110813368Y-102753475D01*
X111056589Y-102915990D01*
X111326842Y-103027932D01*
X111613740Y-103085000D01*
X111906260Y-103085000D01*
X112193158Y-103027932D01*
X112463411Y-102915990D01*
X112706632Y-102753475D01*
X112913475Y-102546632D01*
X113030000Y-102372240D01*
X113146525Y-102546632D01*
X113353368Y-102753475D01*
X113596589Y-102915990D01*
X113866842Y-103027932D01*
X114153740Y-103085000D01*
X114446260Y-103085000D01*
X114733158Y-103027932D01*
X115003411Y-102915990D01*
X115246632Y-102753475D01*
X115453475Y-102546632D01*
X115570000Y-102372240D01*
X115686525Y-102546632D01*
X115893368Y-102753475D01*
X116136589Y-102915990D01*
X116406842Y-103027932D01*
X116693740Y-103085000D01*
X116986260Y-103085000D01*
X117273158Y-103027932D01*
X117543411Y-102915990D01*
X117786632Y-102753475D01*
X117993475Y-102546632D01*
X118110000Y-102372240D01*
X118226525Y-102546632D01*
X118433368Y-102753475D01*
X118676589Y-102915990D01*
X118946842Y-103027932D01*
X119233740Y-103085000D01*
X119526260Y-103085000D01*
X119813158Y-103027932D01*
X120083411Y-102915990D01*
X120326632Y-102753475D01*
X120533475Y-102546632D01*
X120650000Y-102372240D01*
X120766525Y-102546632D01*
X120973368Y-102753475D01*
X121216589Y-102915990D01*
X121486842Y-103027932D01*
X121773740Y-103085000D01*
X122066260Y-103085000D01*
X122353158Y-103027932D01*
X122623411Y-102915990D01*
X122866632Y-102753475D01*
X123073475Y-102546632D01*
X123190000Y-102372240D01*
X123306525Y-102546632D01*
X123513368Y-102753475D01*
X123756589Y-102915990D01*
X124026842Y-103027932D01*
X124313740Y-103085000D01*
X124606260Y-103085000D01*
X124893158Y-103027932D01*
X125163411Y-102915990D01*
X125406632Y-102753475D01*
X125613475Y-102546632D01*
X125730000Y-102372240D01*
X125846525Y-102546632D01*
X126053368Y-102753475D01*
X126296589Y-102915990D01*
X126566842Y-103027932D01*
X126853740Y-103085000D01*
X127146260Y-103085000D01*
X127433158Y-103027932D01*
X127703411Y-102915990D01*
X127946632Y-102753475D01*
X128153475Y-102546632D01*
X128270000Y-102372240D01*
X128386525Y-102546632D01*
X128593368Y-102753475D01*
X128836589Y-102915990D01*
X129106842Y-103027932D01*
X129393740Y-103085000D01*
X129686260Y-103085000D01*
X129973158Y-103027932D01*
X130243411Y-102915990D01*
X130486632Y-102753475D01*
X130693475Y-102546632D01*
X130810000Y-102372240D01*
X130926525Y-102546632D01*
X131133368Y-102753475D01*
X131376589Y-102915990D01*
X131646842Y-103027932D01*
X131933740Y-103085000D01*
X132226260Y-103085000D01*
X132513158Y-103027932D01*
X132783411Y-102915990D01*
X133026632Y-102753475D01*
X133233475Y-102546632D01*
X133350000Y-102372240D01*
X133466525Y-102546632D01*
X133673368Y-102753475D01*
X133916589Y-102915990D01*
X134186842Y-103027932D01*
X134473740Y-103085000D01*
X134766260Y-103085000D01*
X135053158Y-103027932D01*
X135323411Y-102915990D01*
X135566632Y-102753475D01*
X135773475Y-102546632D01*
X135890000Y-102372240D01*
X136006525Y-102546632D01*
X136213368Y-102753475D01*
X136456589Y-102915990D01*
X136726842Y-103027932D01*
X137013740Y-103085000D01*
X137306260Y-103085000D01*
X137593158Y-103027932D01*
X137863411Y-102915990D01*
X138106632Y-102753475D01*
X138313475Y-102546632D01*
X138430000Y-102372240D01*
X138546525Y-102546632D01*
X138753368Y-102753475D01*
X138996589Y-102915990D01*
X139266842Y-103027932D01*
X139553740Y-103085000D01*
X139846260Y-103085000D01*
X140133158Y-103027932D01*
X140403411Y-102915990D01*
X140646632Y-102753475D01*
X140853475Y-102546632D01*
X141015990Y-102303411D01*
X141127932Y-102033158D01*
X141185000Y-101746260D01*
X141185000Y-101453740D01*
X141127932Y-101166842D01*
X141015990Y-100896589D01*
X140853475Y-100653368D01*
X140646632Y-100446525D01*
X140472240Y-100330000D01*
X140646632Y-100213475D01*
X140853475Y-100006632D01*
X141015990Y-99763411D01*
X141127932Y-99493158D01*
X141185000Y-99206260D01*
X141185000Y-98913740D01*
X141127932Y-98626842D01*
X141015990Y-98356589D01*
X140853475Y-98113368D01*
X140646632Y-97906525D01*
X140403411Y-97744010D01*
X140133158Y-97632068D01*
X139846260Y-97575000D01*
X139553740Y-97575000D01*
X139266842Y-97632068D01*
X138996589Y-97744010D01*
X138753368Y-97906525D01*
X138546525Y-98113368D01*
X138430000Y-98287760D01*
X138313475Y-98113368D01*
X138106632Y-97906525D01*
X137863411Y-97744010D01*
X137593158Y-97632068D01*
X137306260Y-97575000D01*
X137013740Y-97575000D01*
X136726842Y-97632068D01*
X136456589Y-97744010D01*
X136213368Y-97906525D01*
X136006525Y-98113368D01*
X135890000Y-98287760D01*
X135773475Y-98113368D01*
X135566632Y-97906525D01*
X135323411Y-97744010D01*
X135053158Y-97632068D01*
X134766260Y-97575000D01*
X134473740Y-97575000D01*
X134186842Y-97632068D01*
X133916589Y-97744010D01*
X133673368Y-97906525D01*
X133466525Y-98113368D01*
X133350000Y-98287760D01*
X133233475Y-98113368D01*
X133026632Y-97906525D01*
X132783411Y-97744010D01*
X132513158Y-97632068D01*
X132226260Y-97575000D01*
X131933740Y-97575000D01*
X131646842Y-97632068D01*
X131376589Y-97744010D01*
X131133368Y-97906525D01*
X130926525Y-98113368D01*
X130810000Y-98287760D01*
X130693475Y-98113368D01*
X130486632Y-97906525D01*
X130243411Y-97744010D01*
X129973158Y-97632068D01*
X129686260Y-97575000D01*
X129393740Y-97575000D01*
X129106842Y-97632068D01*
X128836589Y-97744010D01*
X128593368Y-97906525D01*
X128386525Y-98113368D01*
X128270000Y-98287760D01*
X128153475Y-98113368D01*
X127946632Y-97906525D01*
X127703411Y-97744010D01*
X127433158Y-97632068D01*
X127146260Y-97575000D01*
X126853740Y-97575000D01*
X126566842Y-97632068D01*
X126296589Y-97744010D01*
X126053368Y-97906525D01*
X125846525Y-98113368D01*
X125730000Y-98287760D01*
X125613475Y-98113368D01*
X125406632Y-97906525D01*
X125163411Y-97744010D01*
X124893158Y-97632068D01*
X124606260Y-97575000D01*
X124313740Y-97575000D01*
X124026842Y-97632068D01*
X123756589Y-97744010D01*
X123513368Y-97906525D01*
X123306525Y-98113368D01*
X123190000Y-98287760D01*
X123073475Y-98113368D01*
X122866632Y-97906525D01*
X122623411Y-97744010D01*
X122353158Y-97632068D01*
X122066260Y-97575000D01*
X121773740Y-97575000D01*
X121486842Y-97632068D01*
X121216589Y-97744010D01*
X120973368Y-97906525D01*
X120766525Y-98113368D01*
X120650000Y-98287760D01*
X120533475Y-98113368D01*
X120326632Y-97906525D01*
X120083411Y-97744010D01*
X119813158Y-97632068D01*
X119526260Y-97575000D01*
X119233740Y-97575000D01*
X118946842Y-97632068D01*
X118676589Y-97744010D01*
X118433368Y-97906525D01*
X118226525Y-98113368D01*
X118110000Y-98287760D01*
X117993475Y-98113368D01*
X117786632Y-97906525D01*
X117543411Y-97744010D01*
X117273158Y-97632068D01*
X116986260Y-97575000D01*
X116693740Y-97575000D01*
X116406842Y-97632068D01*
X116136589Y-97744010D01*
X115893368Y-97906525D01*
X115686525Y-98113368D01*
X115564805Y-98295534D01*
X115495178Y-98178645D01*
X115300269Y-97962412D01*
X115066920Y-97788359D01*
X114804099Y-97663175D01*
X114656890Y-97618524D01*
X114427000Y-97739845D01*
X114427000Y-98933000D01*
X114447000Y-98933000D01*
X114447000Y-99187000D01*
X114427000Y-99187000D01*
X114427000Y-99207000D01*
X114173000Y-99207000D01*
X114173000Y-99187000D01*
X111887000Y-99187000D01*
X111887000Y-99207000D01*
X111633000Y-99207000D01*
X111633000Y-99187000D01*
X109347000Y-99187000D01*
X109347000Y-99207000D01*
X109093000Y-99207000D01*
X109093000Y-99187000D01*
X107899186Y-99187000D01*
X107778519Y-99416891D01*
X107875843Y-99691252D01*
X108024822Y-99941355D01*
X108201626Y-100137502D01*
X108125820Y-100160498D01*
X108015506Y-100219463D01*
X107918815Y-100298815D01*
X107839463Y-100395506D01*
X107780498Y-100505820D01*
X107744188Y-100625518D01*
X107731928Y-100750000D01*
X105660000Y-100750000D01*
X105660000Y-98703109D01*
X107778519Y-98703109D01*
X107899186Y-98933000D01*
X109093000Y-98933000D01*
X109093000Y-97739845D01*
X109347000Y-97739845D01*
X109347000Y-98933000D01*
X111633000Y-98933000D01*
X111633000Y-97739845D01*
X111887000Y-97739845D01*
X111887000Y-98933000D01*
X114173000Y-98933000D01*
X114173000Y-97739845D01*
X113943110Y-97618524D01*
X113795901Y-97663175D01*
X113533080Y-97788359D01*
X113299731Y-97962412D01*
X113104822Y-98178645D01*
X113030000Y-98304255D01*
X112955178Y-98178645D01*
X112760269Y-97962412D01*
X112526920Y-97788359D01*
X112264099Y-97663175D01*
X112116890Y-97618524D01*
X111887000Y-97739845D01*
X111633000Y-97739845D01*
X111403110Y-97618524D01*
X111255901Y-97663175D01*
X110993080Y-97788359D01*
X110759731Y-97962412D01*
X110564822Y-98178645D01*
X110490000Y-98304255D01*
X110415178Y-98178645D01*
X110220269Y-97962412D01*
X109986920Y-97788359D01*
X109724099Y-97663175D01*
X109576890Y-97618524D01*
X109347000Y-97739845D01*
X109093000Y-97739845D01*
X108863110Y-97618524D01*
X108715901Y-97663175D01*
X108453080Y-97788359D01*
X108219731Y-97962412D01*
X108024822Y-98178645D01*
X107875843Y-98428748D01*
X107778519Y-98703109D01*
X105660000Y-98703109D01*
X105660000Y-94198061D01*
X109265000Y-94198061D01*
X109265000Y-94401939D01*
X109304774Y-94601898D01*
X109382795Y-94790256D01*
X109496063Y-94959774D01*
X109640226Y-95103937D01*
X109809744Y-95217205D01*
X109998102Y-95295226D01*
X110198061Y-95335000D01*
X110401939Y-95335000D01*
X110601898Y-95295226D01*
X110790256Y-95217205D01*
X110959774Y-95103937D01*
X111103937Y-94959774D01*
X111217205Y-94790256D01*
X111295226Y-94601898D01*
X111335000Y-94401939D01*
X111335000Y-94198061D01*
X111295226Y-93998102D01*
X111217205Y-93809744D01*
X111103937Y-93640226D01*
X110959774Y-93496063D01*
X110790256Y-93382795D01*
X110601898Y-93304774D01*
X110401939Y-93265000D01*
X110198061Y-93265000D01*
X109998102Y-93304774D01*
X109809744Y-93382795D01*
X109640226Y-93496063D01*
X109496063Y-93640226D01*
X109382795Y-93809744D01*
X109304774Y-93998102D01*
X109265000Y-94198061D01*
X105660000Y-94198061D01*
X105660000Y-92896621D01*
X105745499Y-92985801D01*
X105917023Y-93105712D01*
X106108645Y-93189856D01*
X106313000Y-93235000D01*
X106813000Y-93235000D01*
X106813000Y-92302000D01*
X107067000Y-92302000D01*
X107067000Y-93235000D01*
X107567000Y-93235000D01*
X107771355Y-93189856D01*
X107962977Y-93105712D01*
X108134501Y-92985801D01*
X108279336Y-92834731D01*
X108391916Y-92658308D01*
X108459540Y-92465062D01*
X108332257Y-92302000D01*
X107067000Y-92302000D01*
X106813000Y-92302000D01*
X106793000Y-92302000D01*
X106793000Y-92048000D01*
X106813000Y-92048000D01*
X106813000Y-91115000D01*
X107067000Y-91115000D01*
X107067000Y-92048000D01*
X108332257Y-92048000D01*
X108379044Y-91988061D01*
X111045000Y-91988061D01*
X111045000Y-92191939D01*
X111084774Y-92391898D01*
X111162795Y-92580256D01*
X111276063Y-92749774D01*
X111420226Y-92893937D01*
X111589744Y-93007205D01*
X111778102Y-93085226D01*
X111978061Y-93125000D01*
X112181939Y-93125000D01*
X112381898Y-93085226D01*
X112570256Y-93007205D01*
X112739774Y-92893937D01*
X112883937Y-92749774D01*
X112997205Y-92580256D01*
X113075226Y-92391898D01*
X113115000Y-92191939D01*
X113115000Y-91988061D01*
X113075226Y-91788102D01*
X113014186Y-91640738D01*
X113041898Y-91635226D01*
X113230256Y-91557205D01*
X113399774Y-91443937D01*
X113543937Y-91299774D01*
X113624977Y-91178488D01*
X113726063Y-91329774D01*
X113870226Y-91473937D01*
X114039744Y-91587205D01*
X114228102Y-91665226D01*
X114428061Y-91705000D01*
X114631939Y-91705000D01*
X114831898Y-91665226D01*
X115020256Y-91587205D01*
X115189774Y-91473937D01*
X115230000Y-91433711D01*
X115340226Y-91543937D01*
X115509744Y-91657205D01*
X115698102Y-91735226D01*
X115851275Y-91765694D01*
X115815000Y-91948061D01*
X115815000Y-92151939D01*
X115854774Y-92351898D01*
X115932795Y-92540256D01*
X116046063Y-92709774D01*
X116190226Y-92853937D01*
X116359744Y-92967205D01*
X116548102Y-93045226D01*
X116748061Y-93085000D01*
X116951939Y-93085000D01*
X117151898Y-93045226D01*
X117340256Y-92967205D01*
X117509774Y-92853937D01*
X117653937Y-92709774D01*
X117767205Y-92540256D01*
X117845226Y-92351898D01*
X117885000Y-92151939D01*
X117885000Y-92069802D01*
X119500000Y-93684803D01*
X119500000Y-93734703D01*
X119533049Y-93900853D01*
X119597878Y-94057363D01*
X119691995Y-94198218D01*
X119811782Y-94318005D01*
X119952637Y-94412122D01*
X120109147Y-94476951D01*
X120275297Y-94510000D01*
X120444703Y-94510000D01*
X120610853Y-94476951D01*
X120767363Y-94412122D01*
X120908218Y-94318005D01*
X121028005Y-94198218D01*
X121122122Y-94057363D01*
X121186951Y-93900853D01*
X121220000Y-93734703D01*
X121220000Y-93565297D01*
X121186951Y-93399147D01*
X121122122Y-93242637D01*
X121028005Y-93101782D01*
X121021416Y-93095193D01*
X120994974Y-93045724D01*
X120981811Y-93029685D01*
X120923799Y-92958996D01*
X120923795Y-92958992D01*
X120900001Y-92929999D01*
X120871009Y-92906206D01*
X117148842Y-89184041D01*
X117125039Y-89155037D01*
X117009314Y-89060064D01*
X116877285Y-88989492D01*
X116734024Y-88946035D01*
X116622371Y-88935038D01*
X116622360Y-88935038D01*
X116585038Y-88931362D01*
X116547716Y-88935038D01*
X116234802Y-88935038D01*
X115286737Y-87986974D01*
X115343937Y-87929774D01*
X115457205Y-87760256D01*
X115535226Y-87571898D01*
X115575000Y-87371939D01*
X115575000Y-87168061D01*
X115535226Y-86968102D01*
X115457205Y-86779744D01*
X115343937Y-86610226D01*
X115199774Y-86466063D01*
X115030256Y-86352795D01*
X114841898Y-86274774D01*
X114641939Y-86235000D01*
X114438061Y-86235000D01*
X114238102Y-86274774D01*
X114049744Y-86352795D01*
X113880226Y-86466063D01*
X113772395Y-86573894D01*
X113663948Y-86540997D01*
X113552295Y-86530000D01*
X113552284Y-86530000D01*
X113514962Y-86526324D01*
X113477640Y-86530000D01*
X112880539Y-86530000D01*
X112877363Y-86527878D01*
X112720853Y-86463049D01*
X112554703Y-86430000D01*
X112385297Y-86430000D01*
X112219147Y-86463049D01*
X112062637Y-86527878D01*
X111921782Y-86621995D01*
X111801995Y-86741782D01*
X111707878Y-86882637D01*
X111643049Y-87039147D01*
X111610000Y-87205297D01*
X111610000Y-87374703D01*
X111643049Y-87540853D01*
X111707878Y-87697363D01*
X111801995Y-87838218D01*
X111921782Y-87958005D01*
X112062637Y-88052122D01*
X112219147Y-88116951D01*
X112385297Y-88150000D01*
X112554703Y-88150000D01*
X112720853Y-88116951D01*
X112877363Y-88052122D01*
X112880539Y-88050000D01*
X113200161Y-88050000D01*
X114823205Y-89673045D01*
X114631939Y-89635000D01*
X114428061Y-89635000D01*
X114228102Y-89674774D01*
X114039744Y-89752795D01*
X113870226Y-89866063D01*
X113726063Y-90010226D01*
X113645023Y-90131512D01*
X113543937Y-89980226D01*
X113399774Y-89836063D01*
X113230256Y-89722795D01*
X113041898Y-89644774D01*
X112841939Y-89605000D01*
X112638061Y-89605000D01*
X112438102Y-89644774D01*
X112249744Y-89722795D01*
X112080226Y-89836063D01*
X111936063Y-89980226D01*
X111822795Y-90149744D01*
X111744774Y-90338102D01*
X111705000Y-90538061D01*
X111705000Y-90741939D01*
X111744774Y-90941898D01*
X111805814Y-91089262D01*
X111778102Y-91094774D01*
X111589744Y-91172795D01*
X111420226Y-91286063D01*
X111276063Y-91430226D01*
X111162795Y-91599744D01*
X111084774Y-91788102D01*
X111045000Y-91988061D01*
X108379044Y-91988061D01*
X108459540Y-91884938D01*
X108391916Y-91691692D01*
X108279336Y-91515269D01*
X108134501Y-91364199D01*
X107962977Y-91244288D01*
X107771355Y-91160144D01*
X107567000Y-91115000D01*
X107067000Y-91115000D01*
X106813000Y-91115000D01*
X106313000Y-91115000D01*
X106108645Y-91160144D01*
X105917023Y-91244288D01*
X105745499Y-91364199D01*
X105660000Y-91453379D01*
X105660000Y-90620798D01*
X106618807Y-90620798D01*
X106644119Y-90826115D01*
X106834708Y-90908963D01*
X107037796Y-90953038D01*
X107245582Y-90956645D01*
X107450079Y-90919646D01*
X107643428Y-90843462D01*
X107675881Y-90826115D01*
X107701193Y-90620798D01*
X107160000Y-90079605D01*
X106618807Y-90620798D01*
X105660000Y-90620798D01*
X105660000Y-90184749D01*
X105660270Y-90184929D01*
X105852268Y-90264457D01*
X106056092Y-90305000D01*
X106185636Y-90305000D01*
X106216538Y-90383428D01*
X106233885Y-90415881D01*
X106439202Y-90441193D01*
X106767427Y-90112968D01*
X106832523Y-90069472D01*
X106979472Y-89922523D01*
X107079925Y-89772185D01*
X107145858Y-89706253D01*
X107160000Y-89720395D01*
X107174143Y-89706253D01*
X107353748Y-89885858D01*
X107339605Y-89900000D01*
X107880798Y-90441193D01*
X108086115Y-90415881D01*
X108168963Y-90225292D01*
X108213038Y-90022204D01*
X108216645Y-89814418D01*
X108179646Y-89609921D01*
X108103462Y-89416572D01*
X108086115Y-89384119D01*
X107891828Y-89360167D01*
X107979472Y-89272523D01*
X108094929Y-89099730D01*
X108174457Y-88907732D01*
X108215000Y-88703908D01*
X108215000Y-88496092D01*
X108174457Y-88292268D01*
X108094929Y-88100270D01*
X108092440Y-88096545D01*
X108110537Y-88074494D01*
X108169502Y-87964180D01*
X108205812Y-87844482D01*
X108218072Y-87720000D01*
X108218072Y-86880000D01*
X108205812Y-86755518D01*
X108169502Y-86635820D01*
X108110537Y-86525506D01*
X108031185Y-86428815D01*
X107934494Y-86349463D01*
X107824180Y-86290498D01*
X107704482Y-86254188D01*
X107580000Y-86241928D01*
X106740000Y-86241928D01*
X106615518Y-86254188D01*
X106495820Y-86290498D01*
X106385506Y-86349463D01*
X106288815Y-86428815D01*
X106209463Y-86525506D01*
X106150498Y-86635820D01*
X106114188Y-86755518D01*
X106101928Y-86880000D01*
X106101928Y-86895000D01*
X106056092Y-86895000D01*
X105852268Y-86935543D01*
X105660270Y-87015071D01*
X105660000Y-87015251D01*
X105660000Y-85746621D01*
X105745499Y-85835801D01*
X105917023Y-85955712D01*
X106108645Y-86039856D01*
X106313000Y-86085000D01*
X106813000Y-86085000D01*
X106813000Y-85152000D01*
X107067000Y-85152000D01*
X107067000Y-86085000D01*
X107567000Y-86085000D01*
X107771355Y-86039856D01*
X107962977Y-85955712D01*
X108134501Y-85835801D01*
X108279336Y-85684731D01*
X108391916Y-85508308D01*
X108459540Y-85315062D01*
X108332257Y-85152000D01*
X107067000Y-85152000D01*
X106813000Y-85152000D01*
X106793000Y-85152000D01*
X106793000Y-84898000D01*
X106813000Y-84898000D01*
X106813000Y-83965000D01*
X107067000Y-83965000D01*
X107067000Y-84898000D01*
X108332257Y-84898000D01*
X108459540Y-84734938D01*
X108391916Y-84541692D01*
X108279336Y-84365269D01*
X108134501Y-84214199D01*
X107962977Y-84094288D01*
X107771355Y-84010144D01*
X107567000Y-83965000D01*
X107067000Y-83965000D01*
X106813000Y-83965000D01*
X106313000Y-83965000D01*
X106108645Y-84010144D01*
X105917023Y-84094288D01*
X105745499Y-84214199D01*
X105660000Y-84303379D01*
X105660000Y-77890000D01*
X107731928Y-77890000D01*
X107731928Y-79590000D01*
X107744188Y-79714482D01*
X107780498Y-79834180D01*
X107839463Y-79944494D01*
X107918815Y-80041185D01*
X108015506Y-80120537D01*
X108125820Y-80179502D01*
X108245518Y-80215812D01*
X108370000Y-80228072D01*
X110070000Y-80228072D01*
X110194482Y-80215812D01*
X110314180Y-80179502D01*
X110424494Y-80120537D01*
X110521185Y-80041185D01*
X110600537Y-79944494D01*
X110659502Y-79834180D01*
X110681513Y-79761620D01*
X110813368Y-79893475D01*
X111056589Y-80055990D01*
X111326842Y-80167932D01*
X111613740Y-80225000D01*
X111906260Y-80225000D01*
X112193158Y-80167932D01*
X112463411Y-80055990D01*
X112706632Y-79893475D01*
X112913475Y-79686632D01*
X113030000Y-79512240D01*
X113146525Y-79686632D01*
X113247335Y-79787442D01*
X113219147Y-79793049D01*
X113062637Y-79857878D01*
X112921782Y-79951995D01*
X112801995Y-80071782D01*
X112707878Y-80212637D01*
X112643049Y-80369147D01*
X112610000Y-80535297D01*
X112610000Y-80704703D01*
X112643049Y-80870853D01*
X112707878Y-81027363D01*
X112801995Y-81168218D01*
X112921782Y-81288005D01*
X113062637Y-81382122D01*
X113183000Y-81431978D01*
X113182999Y-83011638D01*
X113179323Y-83048961D01*
X113182999Y-83086283D01*
X113182999Y-83086293D01*
X113193996Y-83197946D01*
X113234357Y-83331002D01*
X113237453Y-83341207D01*
X113308025Y-83473237D01*
X113333139Y-83503838D01*
X113402998Y-83588962D01*
X113432001Y-83612764D01*
X114270243Y-84451008D01*
X114294037Y-84480001D01*
X114323030Y-84503795D01*
X114323034Y-84503799D01*
X114393723Y-84561811D01*
X114409762Y-84574974D01*
X114541791Y-84645546D01*
X114685052Y-84689003D01*
X114796705Y-84700000D01*
X114796714Y-84700000D01*
X114834037Y-84703676D01*
X114871360Y-84700000D01*
X117400161Y-84700000D01*
X119001163Y-86301003D01*
X119024961Y-86330001D01*
X119053959Y-86353799D01*
X119140685Y-86424974D01*
X119211918Y-86463049D01*
X119272715Y-86495546D01*
X119415976Y-86539003D01*
X119527629Y-86550000D01*
X119527638Y-86550000D01*
X119564961Y-86553676D01*
X119602284Y-86550000D01*
X125509461Y-86550000D01*
X125512637Y-86552122D01*
X125669147Y-86616951D01*
X125675177Y-86618150D01*
X125721995Y-86688218D01*
X125841782Y-86808005D01*
X125982637Y-86902122D01*
X126139147Y-86966951D01*
X126305297Y-87000000D01*
X126474703Y-87000000D01*
X126640853Y-86966951D01*
X126797363Y-86902122D01*
X126938218Y-86808005D01*
X127058005Y-86688218D01*
X127152122Y-86547363D01*
X127216951Y-86390853D01*
X127250000Y-86224703D01*
X127250000Y-86055297D01*
X127216951Y-85889147D01*
X127152122Y-85732637D01*
X127058005Y-85591782D01*
X126938218Y-85471995D01*
X126803094Y-85381707D01*
X127017105Y-85167696D01*
X127020853Y-85166951D01*
X127140000Y-85117598D01*
X127259147Y-85166951D01*
X127425297Y-85200000D01*
X127594703Y-85200000D01*
X127760853Y-85166951D01*
X127917363Y-85102122D01*
X128058218Y-85008005D01*
X128178005Y-84888218D01*
X128256287Y-84771061D01*
X128362637Y-84842122D01*
X128519147Y-84906951D01*
X128685297Y-84940000D01*
X128840000Y-84940000D01*
X128840000Y-85209461D01*
X128837878Y-85212637D01*
X128773049Y-85369147D01*
X128740000Y-85535297D01*
X128740000Y-85704703D01*
X128773049Y-85870853D01*
X128837878Y-86027363D01*
X128931995Y-86168218D01*
X129051782Y-86288005D01*
X129192637Y-86382122D01*
X129349147Y-86446951D01*
X129515297Y-86480000D01*
X129684703Y-86480000D01*
X129850853Y-86446951D01*
X129918774Y-86418817D01*
X129967878Y-86537363D01*
X130061995Y-86678218D01*
X130181782Y-86798005D01*
X130322637Y-86892122D01*
X130479147Y-86956951D01*
X130645297Y-86990000D01*
X130814703Y-86990000D01*
X130980853Y-86956951D01*
X131137363Y-86892122D01*
X131241456Y-86822569D01*
X131253049Y-86880853D01*
X131317878Y-87037363D01*
X131411995Y-87178218D01*
X131531782Y-87298005D01*
X131672637Y-87392122D01*
X131829147Y-87456951D01*
X131894749Y-87470000D01*
X131745297Y-87470000D01*
X131579147Y-87503049D01*
X131422637Y-87567878D01*
X131281782Y-87661995D01*
X131161995Y-87781782D01*
X131067878Y-87922637D01*
X131003049Y-88079147D01*
X130970000Y-88245297D01*
X130970000Y-88414703D01*
X131003049Y-88580853D01*
X131067878Y-88737363D01*
X131070001Y-88740540D01*
X131070000Y-90039461D01*
X131067878Y-90042637D01*
X131003049Y-90199147D01*
X130970000Y-90365297D01*
X130970000Y-90534703D01*
X131003049Y-90700853D01*
X131067878Y-90857363D01*
X131161995Y-90998218D01*
X131281782Y-91118005D01*
X131422637Y-91212122D01*
X131579147Y-91276951D01*
X131745297Y-91310000D01*
X131914703Y-91310000D01*
X132080853Y-91276951D01*
X132237363Y-91212122D01*
X132378218Y-91118005D01*
X132498005Y-90998218D01*
X132592122Y-90857363D01*
X132656951Y-90700853D01*
X132690000Y-90534703D01*
X132690000Y-90365297D01*
X132656951Y-90199147D01*
X132592122Y-90042637D01*
X132590000Y-90039461D01*
X132590000Y-88740539D01*
X132592122Y-88737363D01*
X132656951Y-88580853D01*
X132690000Y-88414703D01*
X132690000Y-88245297D01*
X132656951Y-88079147D01*
X132592122Y-87922637D01*
X132498005Y-87781782D01*
X132378218Y-87661995D01*
X132237363Y-87567878D01*
X132080853Y-87503049D01*
X132015251Y-87490000D01*
X132164703Y-87490000D01*
X132330853Y-87456951D01*
X132487363Y-87392122D01*
X132628218Y-87298005D01*
X132748005Y-87178218D01*
X132842122Y-87037363D01*
X132906951Y-86880853D01*
X132940000Y-86714703D01*
X132940000Y-86545297D01*
X132906951Y-86379147D01*
X132842122Y-86222637D01*
X132840000Y-86219461D01*
X132840000Y-81789502D01*
X132942729Y-81769068D01*
X133112889Y-81698586D01*
X133266028Y-81596262D01*
X133396262Y-81466028D01*
X133498586Y-81312889D01*
X133569068Y-81142729D01*
X133605000Y-80962089D01*
X133605000Y-80777911D01*
X133569068Y-80597271D01*
X133498586Y-80427111D01*
X133396262Y-80273972D01*
X133266028Y-80143738D01*
X133112889Y-80041414D01*
X132942729Y-79970932D01*
X132918055Y-79966024D01*
X133026632Y-79893475D01*
X133233475Y-79686632D01*
X133350000Y-79512240D01*
X133466525Y-79686632D01*
X133673368Y-79893475D01*
X133916589Y-80055990D01*
X134186842Y-80167932D01*
X134473740Y-80225000D01*
X134766260Y-80225000D01*
X135053158Y-80167932D01*
X135323411Y-80055990D01*
X135566632Y-79893475D01*
X135773475Y-79686632D01*
X135890000Y-79512240D01*
X136006525Y-79686632D01*
X136213368Y-79893475D01*
X136456589Y-80055990D01*
X136726842Y-80167932D01*
X137013740Y-80225000D01*
X137306260Y-80225000D01*
X137593158Y-80167932D01*
X137863411Y-80055990D01*
X138106632Y-79893475D01*
X138313475Y-79686632D01*
X138430000Y-79512240D01*
X138546525Y-79686632D01*
X138753368Y-79893475D01*
X138996589Y-80055990D01*
X139266842Y-80167932D01*
X139553740Y-80225000D01*
X139846260Y-80225000D01*
X140133158Y-80167932D01*
X140403411Y-80055990D01*
X140646632Y-79893475D01*
X140853475Y-79686632D01*
X141015990Y-79443411D01*
X141127932Y-79173158D01*
X141185000Y-78886260D01*
X141185000Y-78593740D01*
X141127932Y-78306842D01*
X141015990Y-78036589D01*
X140853475Y-77793368D01*
X140646632Y-77586525D01*
X140472240Y-77470000D01*
X140646632Y-77353475D01*
X140853475Y-77146632D01*
X141015990Y-76903411D01*
X141127932Y-76633158D01*
X141185000Y-76346260D01*
X141185000Y-76053740D01*
X141127932Y-75766842D01*
X141015990Y-75496589D01*
X140853475Y-75253368D01*
X140646632Y-75046525D01*
X140403411Y-74884010D01*
X140133158Y-74772068D01*
X139846260Y-74715000D01*
X139553740Y-74715000D01*
X139266842Y-74772068D01*
X138996589Y-74884010D01*
X138753368Y-75046525D01*
X138546525Y-75253368D01*
X138430000Y-75427760D01*
X138313475Y-75253368D01*
X138106632Y-75046525D01*
X137863411Y-74884010D01*
X137593158Y-74772068D01*
X137306260Y-74715000D01*
X137013740Y-74715000D01*
X136726842Y-74772068D01*
X136456589Y-74884010D01*
X136213368Y-75046525D01*
X136006525Y-75253368D01*
X135890000Y-75427760D01*
X135773475Y-75253368D01*
X135566632Y-75046525D01*
X135323411Y-74884010D01*
X135053158Y-74772068D01*
X134766260Y-74715000D01*
X134473740Y-74715000D01*
X134186842Y-74772068D01*
X133916589Y-74884010D01*
X133673368Y-75046525D01*
X133466525Y-75253368D01*
X133350000Y-75427760D01*
X133233475Y-75253368D01*
X133026632Y-75046525D01*
X132783411Y-74884010D01*
X132513158Y-74772068D01*
X132226260Y-74715000D01*
X131933740Y-74715000D01*
X131646842Y-74772068D01*
X131376589Y-74884010D01*
X131133368Y-75046525D01*
X130926525Y-75253368D01*
X130810000Y-75427760D01*
X130693475Y-75253368D01*
X130486632Y-75046525D01*
X130243411Y-74884010D01*
X129973158Y-74772068D01*
X129686260Y-74715000D01*
X129393740Y-74715000D01*
X129106842Y-74772068D01*
X128836589Y-74884010D01*
X128593368Y-75046525D01*
X128386525Y-75253368D01*
X128270000Y-75427760D01*
X128153475Y-75253368D01*
X127946632Y-75046525D01*
X127703411Y-74884010D01*
X127433158Y-74772068D01*
X127146260Y-74715000D01*
X126853740Y-74715000D01*
X126566842Y-74772068D01*
X126296589Y-74884010D01*
X126053368Y-75046525D01*
X125846525Y-75253368D01*
X125730000Y-75427760D01*
X125613475Y-75253368D01*
X125406632Y-75046525D01*
X125163411Y-74884010D01*
X124893158Y-74772068D01*
X124606260Y-74715000D01*
X124313740Y-74715000D01*
X124026842Y-74772068D01*
X123756589Y-74884010D01*
X123513368Y-75046525D01*
X123306525Y-75253368D01*
X123190000Y-75427760D01*
X123073475Y-75253368D01*
X122866632Y-75046525D01*
X122623411Y-74884010D01*
X122353158Y-74772068D01*
X122066260Y-74715000D01*
X121773740Y-74715000D01*
X121486842Y-74772068D01*
X121216589Y-74884010D01*
X120973368Y-75046525D01*
X120766525Y-75253368D01*
X120650000Y-75427760D01*
X120533475Y-75253368D01*
X120326632Y-75046525D01*
X120083411Y-74884010D01*
X119813158Y-74772068D01*
X119526260Y-74715000D01*
X119233740Y-74715000D01*
X118946842Y-74772068D01*
X118676589Y-74884010D01*
X118433368Y-75046525D01*
X118226525Y-75253368D01*
X118110000Y-75427760D01*
X117993475Y-75253368D01*
X117786632Y-75046525D01*
X117543411Y-74884010D01*
X117273158Y-74772068D01*
X116986260Y-74715000D01*
X116693740Y-74715000D01*
X116406842Y-74772068D01*
X116136589Y-74884010D01*
X115893368Y-75046525D01*
X115686525Y-75253368D01*
X115570000Y-75427760D01*
X115453475Y-75253368D01*
X115246632Y-75046525D01*
X115003411Y-74884010D01*
X114733158Y-74772068D01*
X114446260Y-74715000D01*
X114153740Y-74715000D01*
X113866842Y-74772068D01*
X113596589Y-74884010D01*
X113353368Y-75046525D01*
X113146525Y-75253368D01*
X113024805Y-75435534D01*
X112955178Y-75318645D01*
X112760269Y-75102412D01*
X112526920Y-74928359D01*
X112264099Y-74803175D01*
X112116890Y-74758524D01*
X111887000Y-74879845D01*
X111887000Y-76073000D01*
X111907000Y-76073000D01*
X111907000Y-76327000D01*
X111887000Y-76327000D01*
X111887000Y-76347000D01*
X111633000Y-76347000D01*
X111633000Y-76327000D01*
X109347000Y-76327000D01*
X109347000Y-76347000D01*
X109093000Y-76347000D01*
X109093000Y-76327000D01*
X107899186Y-76327000D01*
X107778519Y-76556891D01*
X107875843Y-76831252D01*
X108024822Y-77081355D01*
X108201626Y-77277502D01*
X108125820Y-77300498D01*
X108015506Y-77359463D01*
X107918815Y-77438815D01*
X107839463Y-77535506D01*
X107780498Y-77645820D01*
X107744188Y-77765518D01*
X107731928Y-77890000D01*
X105660000Y-77890000D01*
X105660000Y-75843109D01*
X107778519Y-75843109D01*
X107899186Y-76073000D01*
X109093000Y-76073000D01*
X109093000Y-74879845D01*
X109347000Y-74879845D01*
X109347000Y-76073000D01*
X111633000Y-76073000D01*
X111633000Y-74879845D01*
X111403110Y-74758524D01*
X111255901Y-74803175D01*
X110993080Y-74928359D01*
X110759731Y-75102412D01*
X110564822Y-75318645D01*
X110490000Y-75444255D01*
X110415178Y-75318645D01*
X110220269Y-75102412D01*
X109986920Y-74928359D01*
X109724099Y-74803175D01*
X109576890Y-74758524D01*
X109347000Y-74879845D01*
X109093000Y-74879845D01*
X108863110Y-74758524D01*
X108715901Y-74803175D01*
X108453080Y-74928359D01*
X108219731Y-75102412D01*
X108024822Y-75318645D01*
X107875843Y-75568748D01*
X107778519Y-75843109D01*
X105660000Y-75843109D01*
X105660000Y-74660000D01*
X141340000Y-74660000D01*
X141340001Y-103340000D01*
%TA.AperFunction,Conductor*%
D20*
G36*
X141340001Y-103340000D02*
G01*
X105660000Y-103340000D01*
X105660000Y-100750000D01*
X107731928Y-100750000D01*
X107731928Y-102450000D01*
X107744188Y-102574482D01*
X107780498Y-102694180D01*
X107839463Y-102804494D01*
X107918815Y-102901185D01*
X108015506Y-102980537D01*
X108125820Y-103039502D01*
X108245518Y-103075812D01*
X108370000Y-103088072D01*
X110070000Y-103088072D01*
X110194482Y-103075812D01*
X110314180Y-103039502D01*
X110424494Y-102980537D01*
X110521185Y-102901185D01*
X110600537Y-102804494D01*
X110659502Y-102694180D01*
X110681513Y-102621620D01*
X110813368Y-102753475D01*
X111056589Y-102915990D01*
X111326842Y-103027932D01*
X111613740Y-103085000D01*
X111906260Y-103085000D01*
X112193158Y-103027932D01*
X112463411Y-102915990D01*
X112706632Y-102753475D01*
X112913475Y-102546632D01*
X113030000Y-102372240D01*
X113146525Y-102546632D01*
X113353368Y-102753475D01*
X113596589Y-102915990D01*
X113866842Y-103027932D01*
X114153740Y-103085000D01*
X114446260Y-103085000D01*
X114733158Y-103027932D01*
X115003411Y-102915990D01*
X115246632Y-102753475D01*
X115453475Y-102546632D01*
X115570000Y-102372240D01*
X115686525Y-102546632D01*
X115893368Y-102753475D01*
X116136589Y-102915990D01*
X116406842Y-103027932D01*
X116693740Y-103085000D01*
X116986260Y-103085000D01*
X117273158Y-103027932D01*
X117543411Y-102915990D01*
X117786632Y-102753475D01*
X117993475Y-102546632D01*
X118110000Y-102372240D01*
X118226525Y-102546632D01*
X118433368Y-102753475D01*
X118676589Y-102915990D01*
X118946842Y-103027932D01*
X119233740Y-103085000D01*
X119526260Y-103085000D01*
X119813158Y-103027932D01*
X120083411Y-102915990D01*
X120326632Y-102753475D01*
X120533475Y-102546632D01*
X120650000Y-102372240D01*
X120766525Y-102546632D01*
X120973368Y-102753475D01*
X121216589Y-102915990D01*
X121486842Y-103027932D01*
X121773740Y-103085000D01*
X122066260Y-103085000D01*
X122353158Y-103027932D01*
X122623411Y-102915990D01*
X122866632Y-102753475D01*
X123073475Y-102546632D01*
X123190000Y-102372240D01*
X123306525Y-102546632D01*
X123513368Y-102753475D01*
X123756589Y-102915990D01*
X124026842Y-103027932D01*
X124313740Y-103085000D01*
X124606260Y-103085000D01*
X124893158Y-103027932D01*
X125163411Y-102915990D01*
X125406632Y-102753475D01*
X125613475Y-102546632D01*
X125730000Y-102372240D01*
X125846525Y-102546632D01*
X126053368Y-102753475D01*
X126296589Y-102915990D01*
X126566842Y-103027932D01*
X126853740Y-103085000D01*
X127146260Y-103085000D01*
X127433158Y-103027932D01*
X127703411Y-102915990D01*
X127946632Y-102753475D01*
X128153475Y-102546632D01*
X128270000Y-102372240D01*
X128386525Y-102546632D01*
X128593368Y-102753475D01*
X128836589Y-102915990D01*
X129106842Y-103027932D01*
X129393740Y-103085000D01*
X129686260Y-103085000D01*
X129973158Y-103027932D01*
X130243411Y-102915990D01*
X130486632Y-102753475D01*
X130693475Y-102546632D01*
X130810000Y-102372240D01*
X130926525Y-102546632D01*
X131133368Y-102753475D01*
X131376589Y-102915990D01*
X131646842Y-103027932D01*
X131933740Y-103085000D01*
X132226260Y-103085000D01*
X132513158Y-103027932D01*
X132783411Y-102915990D01*
X133026632Y-102753475D01*
X133233475Y-102546632D01*
X133350000Y-102372240D01*
X133466525Y-102546632D01*
X133673368Y-102753475D01*
X133916589Y-102915990D01*
X134186842Y-103027932D01*
X134473740Y-103085000D01*
X134766260Y-103085000D01*
X135053158Y-103027932D01*
X135323411Y-102915990D01*
X135566632Y-102753475D01*
X135773475Y-102546632D01*
X135890000Y-102372240D01*
X136006525Y-102546632D01*
X136213368Y-102753475D01*
X136456589Y-102915990D01*
X136726842Y-103027932D01*
X137013740Y-103085000D01*
X137306260Y-103085000D01*
X137593158Y-103027932D01*
X137863411Y-102915990D01*
X138106632Y-102753475D01*
X138313475Y-102546632D01*
X138430000Y-102372240D01*
X138546525Y-102546632D01*
X138753368Y-102753475D01*
X138996589Y-102915990D01*
X139266842Y-103027932D01*
X139553740Y-103085000D01*
X139846260Y-103085000D01*
X140133158Y-103027932D01*
X140403411Y-102915990D01*
X140646632Y-102753475D01*
X140853475Y-102546632D01*
X141015990Y-102303411D01*
X141127932Y-102033158D01*
X141185000Y-101746260D01*
X141185000Y-101453740D01*
X141127932Y-101166842D01*
X141015990Y-100896589D01*
X140853475Y-100653368D01*
X140646632Y-100446525D01*
X140472240Y-100330000D01*
X140646632Y-100213475D01*
X140853475Y-100006632D01*
X141015990Y-99763411D01*
X141127932Y-99493158D01*
X141185000Y-99206260D01*
X141185000Y-98913740D01*
X141127932Y-98626842D01*
X141015990Y-98356589D01*
X140853475Y-98113368D01*
X140646632Y-97906525D01*
X140403411Y-97744010D01*
X140133158Y-97632068D01*
X139846260Y-97575000D01*
X139553740Y-97575000D01*
X139266842Y-97632068D01*
X138996589Y-97744010D01*
X138753368Y-97906525D01*
X138546525Y-98113368D01*
X138430000Y-98287760D01*
X138313475Y-98113368D01*
X138106632Y-97906525D01*
X137863411Y-97744010D01*
X137593158Y-97632068D01*
X137306260Y-97575000D01*
X137013740Y-97575000D01*
X136726842Y-97632068D01*
X136456589Y-97744010D01*
X136213368Y-97906525D01*
X136006525Y-98113368D01*
X135890000Y-98287760D01*
X135773475Y-98113368D01*
X135566632Y-97906525D01*
X135323411Y-97744010D01*
X135053158Y-97632068D01*
X134766260Y-97575000D01*
X134473740Y-97575000D01*
X134186842Y-97632068D01*
X133916589Y-97744010D01*
X133673368Y-97906525D01*
X133466525Y-98113368D01*
X133350000Y-98287760D01*
X133233475Y-98113368D01*
X133026632Y-97906525D01*
X132783411Y-97744010D01*
X132513158Y-97632068D01*
X132226260Y-97575000D01*
X131933740Y-97575000D01*
X131646842Y-97632068D01*
X131376589Y-97744010D01*
X131133368Y-97906525D01*
X130926525Y-98113368D01*
X130810000Y-98287760D01*
X130693475Y-98113368D01*
X130486632Y-97906525D01*
X130243411Y-97744010D01*
X129973158Y-97632068D01*
X129686260Y-97575000D01*
X129393740Y-97575000D01*
X129106842Y-97632068D01*
X128836589Y-97744010D01*
X128593368Y-97906525D01*
X128386525Y-98113368D01*
X128270000Y-98287760D01*
X128153475Y-98113368D01*
X127946632Y-97906525D01*
X127703411Y-97744010D01*
X127433158Y-97632068D01*
X127146260Y-97575000D01*
X126853740Y-97575000D01*
X126566842Y-97632068D01*
X126296589Y-97744010D01*
X126053368Y-97906525D01*
X125846525Y-98113368D01*
X125730000Y-98287760D01*
X125613475Y-98113368D01*
X125406632Y-97906525D01*
X125163411Y-97744010D01*
X124893158Y-97632068D01*
X124606260Y-97575000D01*
X124313740Y-97575000D01*
X124026842Y-97632068D01*
X123756589Y-97744010D01*
X123513368Y-97906525D01*
X123306525Y-98113368D01*
X123190000Y-98287760D01*
X123073475Y-98113368D01*
X122866632Y-97906525D01*
X122623411Y-97744010D01*
X122353158Y-97632068D01*
X122066260Y-97575000D01*
X121773740Y-97575000D01*
X121486842Y-97632068D01*
X121216589Y-97744010D01*
X120973368Y-97906525D01*
X120766525Y-98113368D01*
X120650000Y-98287760D01*
X120533475Y-98113368D01*
X120326632Y-97906525D01*
X120083411Y-97744010D01*
X119813158Y-97632068D01*
X119526260Y-97575000D01*
X119233740Y-97575000D01*
X118946842Y-97632068D01*
X118676589Y-97744010D01*
X118433368Y-97906525D01*
X118226525Y-98113368D01*
X118110000Y-98287760D01*
X117993475Y-98113368D01*
X117786632Y-97906525D01*
X117543411Y-97744010D01*
X117273158Y-97632068D01*
X116986260Y-97575000D01*
X116693740Y-97575000D01*
X116406842Y-97632068D01*
X116136589Y-97744010D01*
X115893368Y-97906525D01*
X115686525Y-98113368D01*
X115564805Y-98295534D01*
X115495178Y-98178645D01*
X115300269Y-97962412D01*
X115066920Y-97788359D01*
X114804099Y-97663175D01*
X114656890Y-97618524D01*
X114427000Y-97739845D01*
X114427000Y-98933000D01*
X114447000Y-98933000D01*
X114447000Y-99187000D01*
X114427000Y-99187000D01*
X114427000Y-99207000D01*
X114173000Y-99207000D01*
X114173000Y-99187000D01*
X111887000Y-99187000D01*
X111887000Y-99207000D01*
X111633000Y-99207000D01*
X111633000Y-99187000D01*
X109347000Y-99187000D01*
X109347000Y-99207000D01*
X109093000Y-99207000D01*
X109093000Y-99187000D01*
X107899186Y-99187000D01*
X107778519Y-99416891D01*
X107875843Y-99691252D01*
X108024822Y-99941355D01*
X108201626Y-100137502D01*
X108125820Y-100160498D01*
X108015506Y-100219463D01*
X107918815Y-100298815D01*
X107839463Y-100395506D01*
X107780498Y-100505820D01*
X107744188Y-100625518D01*
X107731928Y-100750000D01*
X105660000Y-100750000D01*
X105660000Y-98703109D01*
X107778519Y-98703109D01*
X107899186Y-98933000D01*
X109093000Y-98933000D01*
X109093000Y-97739845D01*
X109347000Y-97739845D01*
X109347000Y-98933000D01*
X111633000Y-98933000D01*
X111633000Y-97739845D01*
X111887000Y-97739845D01*
X111887000Y-98933000D01*
X114173000Y-98933000D01*
X114173000Y-97739845D01*
X113943110Y-97618524D01*
X113795901Y-97663175D01*
X113533080Y-97788359D01*
X113299731Y-97962412D01*
X113104822Y-98178645D01*
X113030000Y-98304255D01*
X112955178Y-98178645D01*
X112760269Y-97962412D01*
X112526920Y-97788359D01*
X112264099Y-97663175D01*
X112116890Y-97618524D01*
X111887000Y-97739845D01*
X111633000Y-97739845D01*
X111403110Y-97618524D01*
X111255901Y-97663175D01*
X110993080Y-97788359D01*
X110759731Y-97962412D01*
X110564822Y-98178645D01*
X110490000Y-98304255D01*
X110415178Y-98178645D01*
X110220269Y-97962412D01*
X109986920Y-97788359D01*
X109724099Y-97663175D01*
X109576890Y-97618524D01*
X109347000Y-97739845D01*
X109093000Y-97739845D01*
X108863110Y-97618524D01*
X108715901Y-97663175D01*
X108453080Y-97788359D01*
X108219731Y-97962412D01*
X108024822Y-98178645D01*
X107875843Y-98428748D01*
X107778519Y-98703109D01*
X105660000Y-98703109D01*
X105660000Y-94198061D01*
X109265000Y-94198061D01*
X109265000Y-94401939D01*
X109304774Y-94601898D01*
X109382795Y-94790256D01*
X109496063Y-94959774D01*
X109640226Y-95103937D01*
X109809744Y-95217205D01*
X109998102Y-95295226D01*
X110198061Y-95335000D01*
X110401939Y-95335000D01*
X110601898Y-95295226D01*
X110790256Y-95217205D01*
X110959774Y-95103937D01*
X111103937Y-94959774D01*
X111217205Y-94790256D01*
X111295226Y-94601898D01*
X111335000Y-94401939D01*
X111335000Y-94198061D01*
X111295226Y-93998102D01*
X111217205Y-93809744D01*
X111103937Y-93640226D01*
X110959774Y-93496063D01*
X110790256Y-93382795D01*
X110601898Y-93304774D01*
X110401939Y-93265000D01*
X110198061Y-93265000D01*
X109998102Y-93304774D01*
X109809744Y-93382795D01*
X109640226Y-93496063D01*
X109496063Y-93640226D01*
X109382795Y-93809744D01*
X109304774Y-93998102D01*
X109265000Y-94198061D01*
X105660000Y-94198061D01*
X105660000Y-92896621D01*
X105745499Y-92985801D01*
X105917023Y-93105712D01*
X106108645Y-93189856D01*
X106313000Y-93235000D01*
X106813000Y-93235000D01*
X106813000Y-92302000D01*
X107067000Y-92302000D01*
X107067000Y-93235000D01*
X107567000Y-93235000D01*
X107771355Y-93189856D01*
X107962977Y-93105712D01*
X108134501Y-92985801D01*
X108279336Y-92834731D01*
X108391916Y-92658308D01*
X108459540Y-92465062D01*
X108332257Y-92302000D01*
X107067000Y-92302000D01*
X106813000Y-92302000D01*
X106793000Y-92302000D01*
X106793000Y-92048000D01*
X106813000Y-92048000D01*
X106813000Y-91115000D01*
X107067000Y-91115000D01*
X107067000Y-92048000D01*
X108332257Y-92048000D01*
X108379044Y-91988061D01*
X111045000Y-91988061D01*
X111045000Y-92191939D01*
X111084774Y-92391898D01*
X111162795Y-92580256D01*
X111276063Y-92749774D01*
X111420226Y-92893937D01*
X111589744Y-93007205D01*
X111778102Y-93085226D01*
X111978061Y-93125000D01*
X112181939Y-93125000D01*
X112381898Y-93085226D01*
X112570256Y-93007205D01*
X112739774Y-92893937D01*
X112883937Y-92749774D01*
X112997205Y-92580256D01*
X113075226Y-92391898D01*
X113115000Y-92191939D01*
X113115000Y-91988061D01*
X113075226Y-91788102D01*
X113014186Y-91640738D01*
X113041898Y-91635226D01*
X113230256Y-91557205D01*
X113399774Y-91443937D01*
X113543937Y-91299774D01*
X113624977Y-91178488D01*
X113726063Y-91329774D01*
X113870226Y-91473937D01*
X114039744Y-91587205D01*
X114228102Y-91665226D01*
X114428061Y-91705000D01*
X114631939Y-91705000D01*
X114831898Y-91665226D01*
X115020256Y-91587205D01*
X115189774Y-91473937D01*
X115230000Y-91433711D01*
X115340226Y-91543937D01*
X115509744Y-91657205D01*
X115698102Y-91735226D01*
X115851275Y-91765694D01*
X115815000Y-91948061D01*
X115815000Y-92151939D01*
X115854774Y-92351898D01*
X115932795Y-92540256D01*
X116046063Y-92709774D01*
X116190226Y-92853937D01*
X116359744Y-92967205D01*
X116548102Y-93045226D01*
X116748061Y-93085000D01*
X116951939Y-93085000D01*
X117151898Y-93045226D01*
X117340256Y-92967205D01*
X117509774Y-92853937D01*
X117653937Y-92709774D01*
X117767205Y-92540256D01*
X117845226Y-92351898D01*
X117885000Y-92151939D01*
X117885000Y-92069802D01*
X119500000Y-93684803D01*
X119500000Y-93734703D01*
X119533049Y-93900853D01*
X119597878Y-94057363D01*
X119691995Y-94198218D01*
X119811782Y-94318005D01*
X119952637Y-94412122D01*
X120109147Y-94476951D01*
X120275297Y-94510000D01*
X120444703Y-94510000D01*
X120610853Y-94476951D01*
X120767363Y-94412122D01*
X120908218Y-94318005D01*
X121028005Y-94198218D01*
X121122122Y-94057363D01*
X121186951Y-93900853D01*
X121220000Y-93734703D01*
X121220000Y-93565297D01*
X121186951Y-93399147D01*
X121122122Y-93242637D01*
X121028005Y-93101782D01*
X121021416Y-93095193D01*
X120994974Y-93045724D01*
X120981811Y-93029685D01*
X120923799Y-92958996D01*
X120923795Y-92958992D01*
X120900001Y-92929999D01*
X120871009Y-92906206D01*
X117148842Y-89184041D01*
X117125039Y-89155037D01*
X117009314Y-89060064D01*
X116877285Y-88989492D01*
X116734024Y-88946035D01*
X116622371Y-88935038D01*
X116622360Y-88935038D01*
X116585038Y-88931362D01*
X116547716Y-88935038D01*
X116234802Y-88935038D01*
X115286737Y-87986974D01*
X115343937Y-87929774D01*
X115457205Y-87760256D01*
X115535226Y-87571898D01*
X115575000Y-87371939D01*
X115575000Y-87168061D01*
X115535226Y-86968102D01*
X115457205Y-86779744D01*
X115343937Y-86610226D01*
X115199774Y-86466063D01*
X115030256Y-86352795D01*
X114841898Y-86274774D01*
X114641939Y-86235000D01*
X114438061Y-86235000D01*
X114238102Y-86274774D01*
X114049744Y-86352795D01*
X113880226Y-86466063D01*
X113772395Y-86573894D01*
X113663948Y-86540997D01*
X113552295Y-86530000D01*
X113552284Y-86530000D01*
X113514962Y-86526324D01*
X113477640Y-86530000D01*
X112880539Y-86530000D01*
X112877363Y-86527878D01*
X112720853Y-86463049D01*
X112554703Y-86430000D01*
X112385297Y-86430000D01*
X112219147Y-86463049D01*
X112062637Y-86527878D01*
X111921782Y-86621995D01*
X111801995Y-86741782D01*
X111707878Y-86882637D01*
X111643049Y-87039147D01*
X111610000Y-87205297D01*
X111610000Y-87374703D01*
X111643049Y-87540853D01*
X111707878Y-87697363D01*
X111801995Y-87838218D01*
X111921782Y-87958005D01*
X112062637Y-88052122D01*
X112219147Y-88116951D01*
X112385297Y-88150000D01*
X112554703Y-88150000D01*
X112720853Y-88116951D01*
X112877363Y-88052122D01*
X112880539Y-88050000D01*
X113200161Y-88050000D01*
X114823205Y-89673045D01*
X114631939Y-89635000D01*
X114428061Y-89635000D01*
X114228102Y-89674774D01*
X114039744Y-89752795D01*
X113870226Y-89866063D01*
X113726063Y-90010226D01*
X113645023Y-90131512D01*
X113543937Y-89980226D01*
X113399774Y-89836063D01*
X113230256Y-89722795D01*
X113041898Y-89644774D01*
X112841939Y-89605000D01*
X112638061Y-89605000D01*
X112438102Y-89644774D01*
X112249744Y-89722795D01*
X112080226Y-89836063D01*
X111936063Y-89980226D01*
X111822795Y-90149744D01*
X111744774Y-90338102D01*
X111705000Y-90538061D01*
X111705000Y-90741939D01*
X111744774Y-90941898D01*
X111805814Y-91089262D01*
X111778102Y-91094774D01*
X111589744Y-91172795D01*
X111420226Y-91286063D01*
X111276063Y-91430226D01*
X111162795Y-91599744D01*
X111084774Y-91788102D01*
X111045000Y-91988061D01*
X108379044Y-91988061D01*
X108459540Y-91884938D01*
X108391916Y-91691692D01*
X108279336Y-91515269D01*
X108134501Y-91364199D01*
X107962977Y-91244288D01*
X107771355Y-91160144D01*
X107567000Y-91115000D01*
X107067000Y-91115000D01*
X106813000Y-91115000D01*
X106313000Y-91115000D01*
X106108645Y-91160144D01*
X105917023Y-91244288D01*
X105745499Y-91364199D01*
X105660000Y-91453379D01*
X105660000Y-90620798D01*
X106618807Y-90620798D01*
X106644119Y-90826115D01*
X106834708Y-90908963D01*
X107037796Y-90953038D01*
X107245582Y-90956645D01*
X107450079Y-90919646D01*
X107643428Y-90843462D01*
X107675881Y-90826115D01*
X107701193Y-90620798D01*
X107160000Y-90079605D01*
X106618807Y-90620798D01*
X105660000Y-90620798D01*
X105660000Y-90184749D01*
X105660270Y-90184929D01*
X105852268Y-90264457D01*
X106056092Y-90305000D01*
X106185636Y-90305000D01*
X106216538Y-90383428D01*
X106233885Y-90415881D01*
X106439202Y-90441193D01*
X106767427Y-90112968D01*
X106832523Y-90069472D01*
X106979472Y-89922523D01*
X107079925Y-89772185D01*
X107145858Y-89706253D01*
X107160000Y-89720395D01*
X107174143Y-89706253D01*
X107353748Y-89885858D01*
X107339605Y-89900000D01*
X107880798Y-90441193D01*
X108086115Y-90415881D01*
X108168963Y-90225292D01*
X108213038Y-90022204D01*
X108216645Y-89814418D01*
X108179646Y-89609921D01*
X108103462Y-89416572D01*
X108086115Y-89384119D01*
X107891828Y-89360167D01*
X107979472Y-89272523D01*
X108094929Y-89099730D01*
X108174457Y-88907732D01*
X108215000Y-88703908D01*
X108215000Y-88496092D01*
X108174457Y-88292268D01*
X108094929Y-88100270D01*
X108092440Y-88096545D01*
X108110537Y-88074494D01*
X108169502Y-87964180D01*
X108205812Y-87844482D01*
X108218072Y-87720000D01*
X108218072Y-86880000D01*
X108205812Y-86755518D01*
X108169502Y-86635820D01*
X108110537Y-86525506D01*
X108031185Y-86428815D01*
X107934494Y-86349463D01*
X107824180Y-86290498D01*
X107704482Y-86254188D01*
X107580000Y-86241928D01*
X106740000Y-86241928D01*
X106615518Y-86254188D01*
X106495820Y-86290498D01*
X106385506Y-86349463D01*
X106288815Y-86428815D01*
X106209463Y-86525506D01*
X106150498Y-86635820D01*
X106114188Y-86755518D01*
X106101928Y-86880000D01*
X106101928Y-86895000D01*
X106056092Y-86895000D01*
X105852268Y-86935543D01*
X105660270Y-87015071D01*
X105660000Y-87015251D01*
X105660000Y-85746621D01*
X105745499Y-85835801D01*
X105917023Y-85955712D01*
X106108645Y-86039856D01*
X106313000Y-86085000D01*
X106813000Y-86085000D01*
X106813000Y-85152000D01*
X107067000Y-85152000D01*
X107067000Y-86085000D01*
X107567000Y-86085000D01*
X107771355Y-86039856D01*
X107962977Y-85955712D01*
X108134501Y-85835801D01*
X108279336Y-85684731D01*
X108391916Y-85508308D01*
X108459540Y-85315062D01*
X108332257Y-85152000D01*
X107067000Y-85152000D01*
X106813000Y-85152000D01*
X106793000Y-85152000D01*
X106793000Y-84898000D01*
X106813000Y-84898000D01*
X106813000Y-83965000D01*
X107067000Y-83965000D01*
X107067000Y-84898000D01*
X108332257Y-84898000D01*
X108459540Y-84734938D01*
X108391916Y-84541692D01*
X108279336Y-84365269D01*
X108134501Y-84214199D01*
X107962977Y-84094288D01*
X107771355Y-84010144D01*
X107567000Y-83965000D01*
X107067000Y-83965000D01*
X106813000Y-83965000D01*
X106313000Y-83965000D01*
X106108645Y-84010144D01*
X105917023Y-84094288D01*
X105745499Y-84214199D01*
X105660000Y-84303379D01*
X105660000Y-77890000D01*
X107731928Y-77890000D01*
X107731928Y-79590000D01*
X107744188Y-79714482D01*
X107780498Y-79834180D01*
X107839463Y-79944494D01*
X107918815Y-80041185D01*
X108015506Y-80120537D01*
X108125820Y-80179502D01*
X108245518Y-80215812D01*
X108370000Y-80228072D01*
X110070000Y-80228072D01*
X110194482Y-80215812D01*
X110314180Y-80179502D01*
X110424494Y-80120537D01*
X110521185Y-80041185D01*
X110600537Y-79944494D01*
X110659502Y-79834180D01*
X110681513Y-79761620D01*
X110813368Y-79893475D01*
X111056589Y-80055990D01*
X111326842Y-80167932D01*
X111613740Y-80225000D01*
X111906260Y-80225000D01*
X112193158Y-80167932D01*
X112463411Y-80055990D01*
X112706632Y-79893475D01*
X112913475Y-79686632D01*
X113030000Y-79512240D01*
X113146525Y-79686632D01*
X113247335Y-79787442D01*
X113219147Y-79793049D01*
X113062637Y-79857878D01*
X112921782Y-79951995D01*
X112801995Y-80071782D01*
X112707878Y-80212637D01*
X112643049Y-80369147D01*
X112610000Y-80535297D01*
X112610000Y-80704703D01*
X112643049Y-80870853D01*
X112707878Y-81027363D01*
X112801995Y-81168218D01*
X112921782Y-81288005D01*
X113062637Y-81382122D01*
X113183000Y-81431978D01*
X113182999Y-83011638D01*
X113179323Y-83048961D01*
X113182999Y-83086283D01*
X113182999Y-83086293D01*
X113193996Y-83197946D01*
X113234357Y-83331002D01*
X113237453Y-83341207D01*
X113308025Y-83473237D01*
X113333139Y-83503838D01*
X113402998Y-83588962D01*
X113432001Y-83612764D01*
X114270243Y-84451008D01*
X114294037Y-84480001D01*
X114323030Y-84503795D01*
X114323034Y-84503799D01*
X114393723Y-84561811D01*
X114409762Y-84574974D01*
X114541791Y-84645546D01*
X114685052Y-84689003D01*
X114796705Y-84700000D01*
X114796714Y-84700000D01*
X114834037Y-84703676D01*
X114871360Y-84700000D01*
X117400161Y-84700000D01*
X119001163Y-86301003D01*
X119024961Y-86330001D01*
X119053959Y-86353799D01*
X119140685Y-86424974D01*
X119211918Y-86463049D01*
X119272715Y-86495546D01*
X119415976Y-86539003D01*
X119527629Y-86550000D01*
X119527638Y-86550000D01*
X119564961Y-86553676D01*
X119602284Y-86550000D01*
X125509461Y-86550000D01*
X125512637Y-86552122D01*
X125669147Y-86616951D01*
X125675177Y-86618150D01*
X125721995Y-86688218D01*
X125841782Y-86808005D01*
X125982637Y-86902122D01*
X126139147Y-86966951D01*
X126305297Y-87000000D01*
X126474703Y-87000000D01*
X126640853Y-86966951D01*
X126797363Y-86902122D01*
X126938218Y-86808005D01*
X127058005Y-86688218D01*
X127152122Y-86547363D01*
X127216951Y-86390853D01*
X127250000Y-86224703D01*
X127250000Y-86055297D01*
X127216951Y-85889147D01*
X127152122Y-85732637D01*
X127058005Y-85591782D01*
X126938218Y-85471995D01*
X126803094Y-85381707D01*
X127017105Y-85167696D01*
X127020853Y-85166951D01*
X127140000Y-85117598D01*
X127259147Y-85166951D01*
X127425297Y-85200000D01*
X127594703Y-85200000D01*
X127760853Y-85166951D01*
X127917363Y-85102122D01*
X128058218Y-85008005D01*
X128178005Y-84888218D01*
X128256287Y-84771061D01*
X128362637Y-84842122D01*
X128519147Y-84906951D01*
X128685297Y-84940000D01*
X128840000Y-84940000D01*
X128840000Y-85209461D01*
X128837878Y-85212637D01*
X128773049Y-85369147D01*
X128740000Y-85535297D01*
X128740000Y-85704703D01*
X128773049Y-85870853D01*
X128837878Y-86027363D01*
X128931995Y-86168218D01*
X129051782Y-86288005D01*
X129192637Y-86382122D01*
X129349147Y-86446951D01*
X129515297Y-86480000D01*
X129684703Y-86480000D01*
X129850853Y-86446951D01*
X129918774Y-86418817D01*
X129967878Y-86537363D01*
X130061995Y-86678218D01*
X130181782Y-86798005D01*
X130322637Y-86892122D01*
X130479147Y-86956951D01*
X130645297Y-86990000D01*
X130814703Y-86990000D01*
X130980853Y-86956951D01*
X131137363Y-86892122D01*
X131241456Y-86822569D01*
X131253049Y-86880853D01*
X131317878Y-87037363D01*
X131411995Y-87178218D01*
X131531782Y-87298005D01*
X131672637Y-87392122D01*
X131829147Y-87456951D01*
X131894749Y-87470000D01*
X131745297Y-87470000D01*
X131579147Y-87503049D01*
X131422637Y-87567878D01*
X131281782Y-87661995D01*
X131161995Y-87781782D01*
X131067878Y-87922637D01*
X131003049Y-88079147D01*
X130970000Y-88245297D01*
X130970000Y-88414703D01*
X131003049Y-88580853D01*
X131067878Y-88737363D01*
X131070001Y-88740540D01*
X131070000Y-90039461D01*
X131067878Y-90042637D01*
X131003049Y-90199147D01*
X130970000Y-90365297D01*
X130970000Y-90534703D01*
X131003049Y-90700853D01*
X131067878Y-90857363D01*
X131161995Y-90998218D01*
X131281782Y-91118005D01*
X131422637Y-91212122D01*
X131579147Y-91276951D01*
X131745297Y-91310000D01*
X131914703Y-91310000D01*
X132080853Y-91276951D01*
X132237363Y-91212122D01*
X132378218Y-91118005D01*
X132498005Y-90998218D01*
X132592122Y-90857363D01*
X132656951Y-90700853D01*
X132690000Y-90534703D01*
X132690000Y-90365297D01*
X132656951Y-90199147D01*
X132592122Y-90042637D01*
X132590000Y-90039461D01*
X132590000Y-88740539D01*
X132592122Y-88737363D01*
X132656951Y-88580853D01*
X132690000Y-88414703D01*
X132690000Y-88245297D01*
X132656951Y-88079147D01*
X132592122Y-87922637D01*
X132498005Y-87781782D01*
X132378218Y-87661995D01*
X132237363Y-87567878D01*
X132080853Y-87503049D01*
X132015251Y-87490000D01*
X132164703Y-87490000D01*
X132330853Y-87456951D01*
X132487363Y-87392122D01*
X132628218Y-87298005D01*
X132748005Y-87178218D01*
X132842122Y-87037363D01*
X132906951Y-86880853D01*
X132940000Y-86714703D01*
X132940000Y-86545297D01*
X132906951Y-86379147D01*
X132842122Y-86222637D01*
X132840000Y-86219461D01*
X132840000Y-81789502D01*
X132942729Y-81769068D01*
X133112889Y-81698586D01*
X133266028Y-81596262D01*
X133396262Y-81466028D01*
X133498586Y-81312889D01*
X133569068Y-81142729D01*
X133605000Y-80962089D01*
X133605000Y-80777911D01*
X133569068Y-80597271D01*
X133498586Y-80427111D01*
X133396262Y-80273972D01*
X133266028Y-80143738D01*
X133112889Y-80041414D01*
X132942729Y-79970932D01*
X132918055Y-79966024D01*
X133026632Y-79893475D01*
X133233475Y-79686632D01*
X133350000Y-79512240D01*
X133466525Y-79686632D01*
X133673368Y-79893475D01*
X133916589Y-80055990D01*
X134186842Y-80167932D01*
X134473740Y-80225000D01*
X134766260Y-80225000D01*
X135053158Y-80167932D01*
X135323411Y-80055990D01*
X135566632Y-79893475D01*
X135773475Y-79686632D01*
X135890000Y-79512240D01*
X136006525Y-79686632D01*
X136213368Y-79893475D01*
X136456589Y-80055990D01*
X136726842Y-80167932D01*
X137013740Y-80225000D01*
X137306260Y-80225000D01*
X137593158Y-80167932D01*
X137863411Y-80055990D01*
X138106632Y-79893475D01*
X138313475Y-79686632D01*
X138430000Y-79512240D01*
X138546525Y-79686632D01*
X138753368Y-79893475D01*
X138996589Y-80055990D01*
X139266842Y-80167932D01*
X139553740Y-80225000D01*
X139846260Y-80225000D01*
X140133158Y-80167932D01*
X140403411Y-80055990D01*
X140646632Y-79893475D01*
X140853475Y-79686632D01*
X141015990Y-79443411D01*
X141127932Y-79173158D01*
X141185000Y-78886260D01*
X141185000Y-78593740D01*
X141127932Y-78306842D01*
X141015990Y-78036589D01*
X140853475Y-77793368D01*
X140646632Y-77586525D01*
X140472240Y-77470000D01*
X140646632Y-77353475D01*
X140853475Y-77146632D01*
X141015990Y-76903411D01*
X141127932Y-76633158D01*
X141185000Y-76346260D01*
X141185000Y-76053740D01*
X141127932Y-75766842D01*
X141015990Y-75496589D01*
X140853475Y-75253368D01*
X140646632Y-75046525D01*
X140403411Y-74884010D01*
X140133158Y-74772068D01*
X139846260Y-74715000D01*
X139553740Y-74715000D01*
X139266842Y-74772068D01*
X138996589Y-74884010D01*
X138753368Y-75046525D01*
X138546525Y-75253368D01*
X138430000Y-75427760D01*
X138313475Y-75253368D01*
X138106632Y-75046525D01*
X137863411Y-74884010D01*
X137593158Y-74772068D01*
X137306260Y-74715000D01*
X137013740Y-74715000D01*
X136726842Y-74772068D01*
X136456589Y-74884010D01*
X136213368Y-75046525D01*
X136006525Y-75253368D01*
X135890000Y-75427760D01*
X135773475Y-75253368D01*
X135566632Y-75046525D01*
X135323411Y-74884010D01*
X135053158Y-74772068D01*
X134766260Y-74715000D01*
X134473740Y-74715000D01*
X134186842Y-74772068D01*
X133916589Y-74884010D01*
X133673368Y-75046525D01*
X133466525Y-75253368D01*
X133350000Y-75427760D01*
X133233475Y-75253368D01*
X133026632Y-75046525D01*
X132783411Y-74884010D01*
X132513158Y-74772068D01*
X132226260Y-74715000D01*
X131933740Y-74715000D01*
X131646842Y-74772068D01*
X131376589Y-74884010D01*
X131133368Y-75046525D01*
X130926525Y-75253368D01*
X130810000Y-75427760D01*
X130693475Y-75253368D01*
X130486632Y-75046525D01*
X130243411Y-74884010D01*
X129973158Y-74772068D01*
X129686260Y-74715000D01*
X129393740Y-74715000D01*
X129106842Y-74772068D01*
X128836589Y-74884010D01*
X128593368Y-75046525D01*
X128386525Y-75253368D01*
X128270000Y-75427760D01*
X128153475Y-75253368D01*
X127946632Y-75046525D01*
X127703411Y-74884010D01*
X127433158Y-74772068D01*
X127146260Y-74715000D01*
X126853740Y-74715000D01*
X126566842Y-74772068D01*
X126296589Y-74884010D01*
X126053368Y-75046525D01*
X125846525Y-75253368D01*
X125730000Y-75427760D01*
X125613475Y-75253368D01*
X125406632Y-75046525D01*
X125163411Y-74884010D01*
X124893158Y-74772068D01*
X124606260Y-74715000D01*
X124313740Y-74715000D01*
X124026842Y-74772068D01*
X123756589Y-74884010D01*
X123513368Y-75046525D01*
X123306525Y-75253368D01*
X123190000Y-75427760D01*
X123073475Y-75253368D01*
X122866632Y-75046525D01*
X122623411Y-74884010D01*
X122353158Y-74772068D01*
X122066260Y-74715000D01*
X121773740Y-74715000D01*
X121486842Y-74772068D01*
X121216589Y-74884010D01*
X120973368Y-75046525D01*
X120766525Y-75253368D01*
X120650000Y-75427760D01*
X120533475Y-75253368D01*
X120326632Y-75046525D01*
X120083411Y-74884010D01*
X119813158Y-74772068D01*
X119526260Y-74715000D01*
X119233740Y-74715000D01*
X118946842Y-74772068D01*
X118676589Y-74884010D01*
X118433368Y-75046525D01*
X118226525Y-75253368D01*
X118110000Y-75427760D01*
X117993475Y-75253368D01*
X117786632Y-75046525D01*
X117543411Y-74884010D01*
X117273158Y-74772068D01*
X116986260Y-74715000D01*
X116693740Y-74715000D01*
X116406842Y-74772068D01*
X116136589Y-74884010D01*
X115893368Y-75046525D01*
X115686525Y-75253368D01*
X115570000Y-75427760D01*
X115453475Y-75253368D01*
X115246632Y-75046525D01*
X115003411Y-74884010D01*
X114733158Y-74772068D01*
X114446260Y-74715000D01*
X114153740Y-74715000D01*
X113866842Y-74772068D01*
X113596589Y-74884010D01*
X113353368Y-75046525D01*
X113146525Y-75253368D01*
X113024805Y-75435534D01*
X112955178Y-75318645D01*
X112760269Y-75102412D01*
X112526920Y-74928359D01*
X112264099Y-74803175D01*
X112116890Y-74758524D01*
X111887000Y-74879845D01*
X111887000Y-76073000D01*
X111907000Y-76073000D01*
X111907000Y-76327000D01*
X111887000Y-76327000D01*
X111887000Y-76347000D01*
X111633000Y-76347000D01*
X111633000Y-76327000D01*
X109347000Y-76327000D01*
X109347000Y-76347000D01*
X109093000Y-76347000D01*
X109093000Y-76327000D01*
X107899186Y-76327000D01*
X107778519Y-76556891D01*
X107875843Y-76831252D01*
X108024822Y-77081355D01*
X108201626Y-77277502D01*
X108125820Y-77300498D01*
X108015506Y-77359463D01*
X107918815Y-77438815D01*
X107839463Y-77535506D01*
X107780498Y-77645820D01*
X107744188Y-77765518D01*
X107731928Y-77890000D01*
X105660000Y-77890000D01*
X105660000Y-75843109D01*
X107778519Y-75843109D01*
X107899186Y-76073000D01*
X109093000Y-76073000D01*
X109093000Y-74879845D01*
X109347000Y-74879845D01*
X109347000Y-76073000D01*
X111633000Y-76073000D01*
X111633000Y-74879845D01*
X111403110Y-74758524D01*
X111255901Y-74803175D01*
X110993080Y-74928359D01*
X110759731Y-75102412D01*
X110564822Y-75318645D01*
X110490000Y-75444255D01*
X110415178Y-75318645D01*
X110220269Y-75102412D01*
X109986920Y-74928359D01*
X109724099Y-74803175D01*
X109576890Y-74758524D01*
X109347000Y-74879845D01*
X109093000Y-74879845D01*
X108863110Y-74758524D01*
X108715901Y-74803175D01*
X108453080Y-74928359D01*
X108219731Y-75102412D01*
X108024822Y-75318645D01*
X107875843Y-75568748D01*
X107778519Y-75843109D01*
X105660000Y-75843109D01*
X105660000Y-74660000D01*
X141340000Y-74660000D01*
X141340001Y-103340000D01*
G37*
%TD.AperFunction*%
D19*
X114783079Y-81015300D02*
X114923934Y-81109417D01*
X115080444Y-81174246D01*
X115246594Y-81207295D01*
X115416000Y-81207295D01*
X115582150Y-81174246D01*
X115738660Y-81109417D01*
X115741836Y-81107295D01*
X119606150Y-81107295D01*
X119982891Y-81484037D01*
X120006685Y-81513030D01*
X120035678Y-81536824D01*
X120035683Y-81536829D01*
X120122409Y-81608004D01*
X120254439Y-81678576D01*
X120397700Y-81722032D01*
X120546686Y-81736706D01*
X120584018Y-81733029D01*
X124753488Y-81733031D01*
X125414933Y-82394476D01*
X125415678Y-82398224D01*
X125480507Y-82554734D01*
X125574624Y-82695589D01*
X125694411Y-82815376D01*
X125835266Y-82909493D01*
X125991776Y-82974322D01*
X126157926Y-83007371D01*
X126327332Y-83007371D01*
X126493482Y-82974322D01*
X126617845Y-82922809D01*
X126750000Y-83054964D01*
X126750000Y-83480000D01*
X126685297Y-83480000D01*
X126519147Y-83513049D01*
X126362637Y-83577878D01*
X126221782Y-83671995D01*
X126101995Y-83791782D01*
X126007878Y-83932637D01*
X125943049Y-84089147D01*
X125942304Y-84092895D01*
X125578198Y-84457001D01*
X119839938Y-84457001D01*
X118434923Y-83051988D01*
X118411126Y-83022991D01*
X118382127Y-82999192D01*
X118295401Y-82928017D01*
X118163371Y-82857445D01*
X118061207Y-82826455D01*
X118020111Y-82813989D01*
X117908458Y-82802992D01*
X117871125Y-82799315D01*
X117833793Y-82802992D01*
X116975000Y-82802991D01*
X116975000Y-82778061D01*
X116935226Y-82578102D01*
X116857205Y-82389744D01*
X116743937Y-82220226D01*
X116599774Y-82076063D01*
X116430256Y-81962795D01*
X116241898Y-81884774D01*
X116041939Y-81845000D01*
X115838061Y-81845000D01*
X115638102Y-81884774D01*
X115449744Y-81962795D01*
X115280226Y-82076063D01*
X115136063Y-82220226D01*
X115094810Y-82281966D01*
X115088005Y-82271782D01*
X114968218Y-82151995D01*
X114827363Y-82057878D01*
X114702999Y-82006364D01*
X114702999Y-81130332D01*
X114706676Y-81092999D01*
X114692002Y-80944013D01*
X114683385Y-80915606D01*
X114783079Y-81015300D01*
%TA.AperFunction,Conductor*%
D20*
G36*
X114783079Y-81015300D02*
G01*
X114923934Y-81109417D01*
X115080444Y-81174246D01*
X115246594Y-81207295D01*
X115416000Y-81207295D01*
X115582150Y-81174246D01*
X115738660Y-81109417D01*
X115741836Y-81107295D01*
X119606150Y-81107295D01*
X119982891Y-81484037D01*
X120006685Y-81513030D01*
X120035678Y-81536824D01*
X120035683Y-81536829D01*
X120122409Y-81608004D01*
X120254439Y-81678576D01*
X120397700Y-81722032D01*
X120546686Y-81736706D01*
X120584018Y-81733029D01*
X124753488Y-81733031D01*
X125414933Y-82394476D01*
X125415678Y-82398224D01*
X125480507Y-82554734D01*
X125574624Y-82695589D01*
X125694411Y-82815376D01*
X125835266Y-82909493D01*
X125991776Y-82974322D01*
X126157926Y-83007371D01*
X126327332Y-83007371D01*
X126493482Y-82974322D01*
X126617845Y-82922809D01*
X126750000Y-83054964D01*
X126750000Y-83480000D01*
X126685297Y-83480000D01*
X126519147Y-83513049D01*
X126362637Y-83577878D01*
X126221782Y-83671995D01*
X126101995Y-83791782D01*
X126007878Y-83932637D01*
X125943049Y-84089147D01*
X125942304Y-84092895D01*
X125578198Y-84457001D01*
X119839938Y-84457001D01*
X118434923Y-83051988D01*
X118411126Y-83022991D01*
X118382127Y-82999192D01*
X118295401Y-82928017D01*
X118163371Y-82857445D01*
X118061207Y-82826455D01*
X118020111Y-82813989D01*
X117908458Y-82802992D01*
X117871125Y-82799315D01*
X117833793Y-82802992D01*
X116975000Y-82802991D01*
X116975000Y-82778061D01*
X116935226Y-82578102D01*
X116857205Y-82389744D01*
X116743937Y-82220226D01*
X116599774Y-82076063D01*
X116430256Y-81962795D01*
X116241898Y-81884774D01*
X116041939Y-81845000D01*
X115838061Y-81845000D01*
X115638102Y-81884774D01*
X115449744Y-81962795D01*
X115280226Y-82076063D01*
X115136063Y-82220226D01*
X115094810Y-82281966D01*
X115088005Y-82271782D01*
X114968218Y-82151995D01*
X114827363Y-82057878D01*
X114702999Y-82006364D01*
X114702999Y-81130332D01*
X114706676Y-81092999D01*
X114692002Y-80944013D01*
X114683385Y-80915606D01*
X114783079Y-81015300D01*
G37*
%TD.AperFunction*%
%TD*%
M02*
