M48
; DRILL file {KiCad (5.1.8-0-10_14)} date Saturday, November 28, 2020 at 11:42:38 PM
; FORMAT={-:-/ absolute / inch / decimal}
; #@! TF.CreationDate,2020-11-28T23:42:38+01:00
; #@! TF.GenerationSoftware,Kicad,Pcbnew,(5.1.8-0-10_14)
FMAT,2
INCH
T1C0.0079
T2C0.0138
T3C0.0157
T4C0.0173
T5C0.0394
%
G90
G05
T1
X4.428Y-3.4366
X4.4673Y-3.174
X4.5047Y-3.2606
X4.5406Y-3.1633
X4.7039Y-3.4437
X4.7386Y-3.687
X4.7984Y-3.548
X4.7992Y-3.5276
X4.8079Y-3.587
X4.8094Y-3.6278
X4.8118Y-3.4295
X4.8331Y-3.3209
X4.85Y-3.3362
X4.9575Y-3.3776
X4.9702Y-3.2341
X4.976Y-3.3913
X4.9909Y-3.3205
X5.0162Y-3.2258
X5.0201Y-3.3205
X5.0422Y-3.2253
X5.0697Y-3.3102
X5.0898Y-3.6772
X5.1024Y-3.3709
X5.1469Y-3.3909
X5.18Y-3.3323
X5.1902Y-3.4776
X5.1902Y-3.561
X5.2Y-3.4106
X5.2465Y-3.2327
X5.2547Y-3.6063
X5.2606Y-3.3717
T3
X4.1732Y-2.9528
X4.1732Y-4.0551
X4.1776Y-3.2067
X4.1929Y-3.7165
X4.2791Y-3.4406
X4.3425Y-3.7126
X4.3457Y-3.5559
X4.4126Y-3.6256
X4.4386Y-3.5685
X4.4579Y-3.2628
X4.5091Y-3.5697
X4.5094Y-3.4358
X4.5646Y-3.263
X4.5669Y-3.5724
X4.5783Y-3.4331
X4.6004Y-3.624
X4.6177Y-3.2484
X4.6189Y-3.4315
X4.6417Y-3.35
X4.6417Y-3.4024
X4.6504Y-3.5213
X4.6969Y-3.7165
X4.7051Y-3.2079
X4.7205Y-3.8346
X4.737Y-3.6319
X4.8681Y-3.272
X4.9685Y-3.4567
X5.0394Y-3.5827
X5.0787Y-3.4646
X5.2232Y-3.1839
X5.3299Y-3.2295
X5.374Y-3.5827
X5.4094Y-3.8346
X5.5512Y-2.9528
X5.5512Y-3.5433
X5.5512Y-3.622
X5.5512Y-3.7402
X5.5512Y-4.0551
T4
X4.1795Y-3.4626
X4.1795Y-3.5138
X4.2189Y-3.437
X4.2189Y-3.4882
X4.2189Y-3.5394
T5
X4.3Y-3.0
X4.3Y-3.1
X4.4Y-3.0
X4.4Y-3.1
X4.5Y-3.0
X4.5Y-3.1
X4.6Y-3.0
X4.6Y-3.1
X4.7Y-3.0
X4.7Y-3.1
X4.8Y-3.0
X4.8Y-3.1
X4.9Y-3.0
X4.9Y-3.1
X5.0Y-3.0
X5.0Y-3.1
X5.1Y-3.0
X5.1Y-3.1
X5.2Y-3.0
X5.2Y-3.1
X5.3Y-3.0
X5.3Y-3.1
X5.4Y-3.0
X5.4Y-3.1
X5.5Y-3.0
X5.5Y-3.1
X4.3Y-3.9
X4.3Y-4.0
X4.4Y-3.9
X4.4Y-4.0
X4.5Y-3.9
X4.5Y-4.0
X4.6Y-3.9
X4.6Y-4.0
X4.7Y-3.9
X4.7Y-4.0
X4.8Y-3.9
X4.8Y-4.0
X4.9Y-3.9
X4.9Y-4.0
X5.0Y-3.9
X5.0Y-4.0
X5.1Y-3.9
X5.1Y-4.0
X5.2Y-3.9
X5.2Y-4.0
X5.3Y-3.9
X5.3Y-4.0
X5.4Y-3.9
X5.4Y-4.0
X5.5Y-3.9
X5.5Y-4.0
T2
G00X4.2299Y-3.3474
M15
G01X4.1906Y-3.3474
M16
G05
G00X4.2299Y-3.6289
M15
G01X4.1906Y-3.6289
M16
G05
T0
M30
