%TF.GenerationSoftware,KiCad,Pcbnew,(5.1.8-0-10_14)*%
%TF.CreationDate,2020-11-28T23:42:33+01:00*%
%TF.ProjectId,FT2232Breakout,46543232-3332-4427-9265-616b6f75742e,rev?*%
%TF.SameCoordinates,Original*%
%TF.FileFunction,Legend,Top*%
%TF.FilePolarity,Positive*%
%FSLAX46Y46*%
G04 Gerber Fmt 4.6, Leading zero omitted, Abs format (unit mm)*
G04 Created by KiCad (PCBNEW (5.1.8-0-10_14)) date 2020-11-28 23:42:33*
%MOMM*%
%LPD*%
G01*
G04 APERTURE LIST*
%ADD10C,0.120000*%
%ADD11C,0.150000*%
G04 APERTURE END LIST*
D10*
%TO.C,R106*%
X109953641Y-95580000D02*
X109646359Y-95580000D01*
X109953641Y-94820000D02*
X109646359Y-94820000D01*
%TO.C,D101*%
X108000000Y-94565000D02*
X105715000Y-94565000D01*
X105715000Y-94565000D02*
X105715000Y-96035000D01*
X105715000Y-96035000D02*
X108000000Y-96035000D01*
%TO.C,C103*%
X120340580Y-85720000D02*
X120059420Y-85720000D01*
X120340580Y-86740000D02*
X120059420Y-86740000D01*
%TO.C,R105*%
X120736359Y-93530000D02*
X121043641Y-93530000D01*
X120736359Y-92770000D02*
X121043641Y-92770000D01*
%TO.C,Y101*%
X123580000Y-81010000D02*
X119580000Y-81010000D01*
X123580000Y-84310000D02*
X123580000Y-81010000D01*
%TO.C,U402*%
X109400000Y-88950000D02*
X109900000Y-88950000D01*
X109400000Y-86250000D02*
X110400000Y-86250000D01*
%TO.C,U103*%
X123910000Y-84700000D02*
X122570000Y-84700000D01*
X123910000Y-83750000D02*
X123910000Y-84700000D01*
X124860000Y-83750000D02*
X123910000Y-83750000D01*
X134130000Y-83750000D02*
X134130000Y-84700000D01*
X133180000Y-83750000D02*
X134130000Y-83750000D01*
X123910000Y-93970000D02*
X123910000Y-93020000D01*
X124860000Y-93970000D02*
X123910000Y-93970000D01*
X134130000Y-93970000D02*
X134130000Y-93020000D01*
X133180000Y-93970000D02*
X134130000Y-93970000D01*
%TO.C,U102*%
X111860000Y-81600000D02*
X111860000Y-84050000D01*
X115080000Y-83400000D02*
X115080000Y-81600000D01*
%TO.C,U101*%
X117920000Y-84830000D02*
X117920000Y-90840000D01*
X111100000Y-87080000D02*
X111100000Y-90840000D01*
X117920000Y-90840000D02*
X116660000Y-90840000D01*
X111100000Y-90840000D02*
X112360000Y-90840000D01*
%TO.C,R104*%
X121730000Y-91313641D02*
X121730000Y-91006359D01*
X120970000Y-91313641D02*
X120970000Y-91006359D01*
%TO.C,R103*%
X110813641Y-81630000D02*
X110506359Y-81630000D01*
X110813641Y-82390000D02*
X110506359Y-82390000D01*
%TO.C,R102*%
X120863641Y-87090000D02*
X120556359Y-87090000D01*
X120863641Y-87850000D02*
X120556359Y-87850000D01*
%TO.C,R101*%
X110506359Y-81410000D02*
X110813641Y-81410000D01*
X110506359Y-80650000D02*
X110813641Y-80650000D01*
%TO.C,J103*%
X107890000Y-102930000D02*
X107890000Y-101600000D01*
X109220000Y-102930000D02*
X107890000Y-102930000D01*
X107890000Y-100330000D02*
X107890000Y-97730000D01*
X110490000Y-100330000D02*
X107890000Y-100330000D01*
X110490000Y-102930000D02*
X110490000Y-100330000D01*
X107890000Y-97730000D02*
X141030000Y-97730000D01*
X110490000Y-102930000D02*
X141030000Y-102930000D01*
X141030000Y-102930000D02*
X141030000Y-97730000D01*
%TO.C,J102*%
X107890000Y-80070000D02*
X107890000Y-78740000D01*
X109220000Y-80070000D02*
X107890000Y-80070000D01*
X107890000Y-77470000D02*
X107890000Y-74870000D01*
X110490000Y-77470000D02*
X107890000Y-77470000D01*
X110490000Y-80070000D02*
X110490000Y-77470000D01*
X107890000Y-74870000D02*
X141030000Y-74870000D01*
X110490000Y-80070000D02*
X141030000Y-80070000D01*
X141030000Y-80070000D02*
X141030000Y-74870000D01*
D11*
%TO.C,J101*%
X108840000Y-86300000D02*
X108840000Y-88300000D01*
X105340000Y-92750000D02*
X105815000Y-92750000D01*
X105340000Y-84450000D02*
X105340000Y-92750000D01*
X105815000Y-84450000D02*
X105340000Y-84450000D01*
X108540000Y-92750000D02*
X108065000Y-92750000D01*
X108540000Y-84450000D02*
X108540000Y-92750000D01*
X108065000Y-84450000D02*
X108540000Y-84450000D01*
D10*
%TO.C,FB401*%
X109240000Y-83880378D02*
X109240000Y-84679622D01*
X110360000Y-83880378D02*
X110360000Y-84679622D01*
%TO.C,FB102*%
X117579622Y-83100000D02*
X116780378Y-83100000D01*
X117579622Y-84220000D02*
X116780378Y-84220000D01*
%TO.C,FB101*%
X118450000Y-91590378D02*
X118450000Y-92389622D01*
X119570000Y-91590378D02*
X119570000Y-92389622D01*
%TO.C,C503*%
X107211252Y-82155000D02*
X106688748Y-82155000D01*
X107211252Y-83625000D02*
X106688748Y-83625000D01*
%TO.C,C305*%
X110750000Y-91727836D02*
X110750000Y-91512164D01*
X110030000Y-91727836D02*
X110030000Y-91512164D01*
%TO.C,C301*%
X107110000Y-78931252D02*
X107110000Y-77508748D01*
X105290000Y-78931252D02*
X105290000Y-77508748D01*
%TO.C,C110*%
X120000000Y-91032164D02*
X120000000Y-91247836D01*
X120720000Y-91032164D02*
X120720000Y-91247836D01*
%TO.C,C109*%
X119790580Y-88950000D02*
X119509420Y-88950000D01*
X119790580Y-89970000D02*
X119509420Y-89970000D01*
%TO.C,C108*%
X132462164Y-81930000D02*
X132677836Y-81930000D01*
X132462164Y-81210000D02*
X132677836Y-81210000D01*
%TO.C,C107*%
X118590000Y-81772164D02*
X118590000Y-81987836D01*
X119310000Y-81772164D02*
X119310000Y-81987836D01*
%TO.C,C106*%
X119247836Y-84660000D02*
X119032164Y-84660000D01*
X119247836Y-85380000D02*
X119032164Y-85380000D01*
%TO.C,C105*%
X134332164Y-81930000D02*
X134547836Y-81930000D01*
X134332164Y-81210000D02*
X134547836Y-81210000D01*
%TO.C,C104*%
X124570000Y-82737836D02*
X124570000Y-82522164D01*
X123850000Y-82737836D02*
X123850000Y-82522164D01*
%TO.C,C102*%
X134609420Y-83330000D02*
X134890580Y-83330000D01*
X134609420Y-82310000D02*
X134890580Y-82310000D01*
%TO.C,C101*%
X116739420Y-82180000D02*
X117020580Y-82180000D01*
X116739420Y-81160000D02*
X117020580Y-81160000D01*
%TD*%
M02*
