%TF.GenerationSoftware,KiCad,Pcbnew,(5.1.8-0-10_14)*%
%TF.CreationDate,2020-11-28T23:42:33+01:00*%
%TF.ProjectId,FT2232Breakout,46543232-3332-4427-9265-616b6f75742e,rev?*%
%TF.SameCoordinates,Original*%
%TF.FileFunction,Copper,L3,Inr*%
%TF.FilePolarity,Positive*%
%FSLAX46Y46*%
G04 Gerber Fmt 4.6, Leading zero omitted, Abs format (unit mm)*
G04 Created by KiCad (PCBNEW (5.1.8-0-10_14)) date 2020-11-28 23:42:33*
%MOMM*%
%LPD*%
G01*
G04 APERTURE LIST*
%TA.AperFunction,ComponentPad*%
%ADD10O,1.700000X1.700000*%
%TD*%
%TA.AperFunction,ComponentPad*%
%ADD11R,1.700000X1.700000*%
%TD*%
%TA.AperFunction,ComponentPad*%
%ADD12O,1.850000X0.850000*%
%TD*%
%TA.AperFunction,ComponentPad*%
%ADD13C,0.840000*%
%TD*%
%TA.AperFunction,ComponentPad*%
%ADD14R,0.840000X0.840000*%
%TD*%
%TA.AperFunction,ViaPad*%
%ADD15C,0.600000*%
%TD*%
%TA.AperFunction,ViaPad*%
%ADD16C,0.800000*%
%TD*%
%TA.AperFunction,ViaPad*%
%ADD17C,0.450000*%
%TD*%
%TA.AperFunction,Conductor*%
%ADD18C,0.254000*%
%TD*%
%TA.AperFunction,Conductor*%
%ADD19C,0.100000*%
%TD*%
G04 APERTURE END LIST*
D10*
%TO.N,/AC7*%
%TO.C,J103*%
X139700000Y-99060000D03*
%TO.N,/SUSPEND#*%
X139700000Y-101600000D03*
%TO.N,/AC5*%
X137160000Y-99060000D03*
%TO.N,/AC6*%
X137160000Y-101600000D03*
%TO.N,/AC4*%
X134620000Y-99060000D03*
%TO.N,/VIO*%
X134620000Y-101600000D03*
%TO.N,/AC2*%
X132080000Y-99060000D03*
%TO.N,/AC3*%
X132080000Y-101600000D03*
%TO.N,/AC0*%
X129540000Y-99060000D03*
%TO.N,/AC1*%
X129540000Y-101600000D03*
%TO.N,/AD6*%
X127000000Y-99060000D03*
%TO.N,/AD7*%
X127000000Y-101600000D03*
%TO.N,/AD4*%
X124460000Y-99060000D03*
%TO.N,/AD5*%
X124460000Y-101600000D03*
%TO.N,/AD3*%
X121920000Y-99060000D03*
%TO.N,/VIO*%
X121920000Y-101600000D03*
%TO.N,/AD1*%
X119380000Y-99060000D03*
%TO.N,/AD2*%
X119380000Y-101600000D03*
%TO.N,/RESET#*%
X116840000Y-99060000D03*
%TO.N,/AD0*%
X116840000Y-101600000D03*
%TO.N,GND*%
X114300000Y-99060000D03*
%TO.N,+3V3*%
X114300000Y-101600000D03*
%TO.N,GND*%
X111760000Y-99060000D03*
%TO.N,+3V3*%
X111760000Y-101600000D03*
%TO.N,GND*%
X109220000Y-99060000D03*
D11*
%TO.N,+3V3*%
X109220000Y-101600000D03*
%TD*%
D10*
%TO.N,/BD0*%
%TO.C,J102*%
X139700000Y-76200000D03*
%TO.N,/BD1*%
X139700000Y-78740000D03*
%TO.N,/BD2*%
X137160000Y-76200000D03*
%TO.N,/BD3*%
X137160000Y-78740000D03*
%TO.N,/VIO*%
X134620000Y-76200000D03*
%TO.N,/BD4*%
X134620000Y-78740000D03*
%TO.N,/BD5*%
X132080000Y-76200000D03*
%TO.N,/BD6*%
X132080000Y-78740000D03*
%TO.N,/BD7*%
X129540000Y-76200000D03*
%TO.N,/BC0*%
X129540000Y-78740000D03*
%TO.N,/BC1*%
X127000000Y-76200000D03*
%TO.N,/BC2*%
X127000000Y-78740000D03*
%TO.N,/BC3*%
X124460000Y-76200000D03*
%TO.N,/BC4*%
X124460000Y-78740000D03*
%TO.N,/VIO*%
X121920000Y-76200000D03*
%TO.N,/BC5*%
X121920000Y-78740000D03*
%TO.N,/BC6*%
X119380000Y-76200000D03*
%TO.N,/BC7*%
X119380000Y-78740000D03*
%TO.N,/PWREN#*%
X116840000Y-76200000D03*
%TO.N,/DATA*%
X116840000Y-78740000D03*
%TO.N,/CLK*%
X114300000Y-76200000D03*
%TO.N,/CS*%
X114300000Y-78740000D03*
%TO.N,GND*%
X111760000Y-76200000D03*
%TO.N,+3V3*%
X111760000Y-78740000D03*
%TO.N,GND*%
X109220000Y-76200000D03*
D11*
%TO.N,+5V*%
X109220000Y-78740000D03*
%TD*%
D12*
%TO.N,GND*%
%TO.C,J101*%
X106940000Y-92175000D03*
X106940000Y-85025000D03*
D13*
X107160000Y-89900000D03*
%TO.N,N/C*%
X106160000Y-89250000D03*
%TO.N,/USB_D+*%
X107160000Y-88600000D03*
%TO.N,/USB_D-*%
X106160000Y-87950000D03*
D14*
%TO.N,/VBUS*%
X107160000Y-87300000D03*
%TD*%
D15*
%TO.N,GND*%
X108690000Y-87390000D03*
D16*
X117320000Y-87160000D03*
X116290000Y-87200000D03*
D17*
X122220000Y-87110000D03*
X119480000Y-87470000D03*
D15*
X119510000Y-81480000D03*
X123650000Y-83110000D03*
D16*
X106110000Y-81450000D03*
D15*
X120320000Y-92250000D03*
X118120000Y-89440000D03*
D16*
X117900000Y-86420000D03*
X117900000Y-85090000D03*
X117290000Y-82510000D03*
X110380000Y-90320000D03*
D17*
X121880000Y-90120000D03*
X121900000Y-89600000D03*
X122120000Y-91110000D03*
X122160000Y-92147000D03*
X123190000Y-84740000D03*
X122760000Y-84350000D03*
X133260000Y-82110000D03*
D15*
X135380000Y-82030000D03*
X113230000Y-82874999D03*
D17*
X133620000Y-85640000D03*
X133470000Y-91600000D03*
X129280000Y-93400000D03*
X131571280Y-84639470D03*
D16*
X106500000Y-94400000D03*
X106000000Y-103000000D03*
X106000000Y-75000000D03*
X141000000Y-75000000D03*
X141000000Y-103000000D03*
X141000000Y-95000000D03*
X141000000Y-90000000D03*
X141000000Y-92000000D03*
X129000000Y-88000000D03*
X128000000Y-91000000D03*
X119300000Y-94400000D03*
X119900000Y-97400000D03*
X137400000Y-97400000D03*
X136500000Y-91000000D03*
X126200000Y-87800000D03*
%TO.N,+3V3*%
X114540000Y-87270000D03*
X112080000Y-92090000D03*
X116850000Y-92050000D03*
X115940000Y-82880000D03*
X114530000Y-90670000D03*
X112740000Y-90640000D03*
X116000000Y-90740000D03*
D15*
X132670000Y-80870000D03*
D16*
X110300000Y-94300000D03*
D17*
%TO.N,+5V*%
X112470000Y-87290000D03*
X120360000Y-93650000D03*
%TO.N,/VIO*%
X131830000Y-90450000D03*
X131830000Y-88330000D03*
%TO.N,/BD6*%
X132080000Y-86630000D03*
%TO.N,/BD7*%
X130730000Y-86130000D03*
%TO.N,/BC0*%
X129600000Y-85620000D03*
%TO.N,/BC5*%
X128770000Y-84080000D03*
%TO.N,/BC6*%
X128072710Y-81922330D03*
%TO.N,/BC7*%
X127410420Y-81934620D03*
%TO.N,/PWREN#*%
X127510000Y-84340000D03*
%TO.N,/DATA*%
X126770000Y-84340000D03*
X114420000Y-82820000D03*
%TO.N,/CLK*%
X126390000Y-86140000D03*
X126242629Y-82147371D03*
X115331297Y-80347295D03*
%TO.N,/CS*%
X125920000Y-85790000D03*
X113470000Y-80620000D03*
%TD*%
D18*
%TO.N,+3V3*%
X140004774Y-74698102D02*
X139995508Y-74744687D01*
X139846260Y-74715000D01*
X139553740Y-74715000D01*
X139266842Y-74772068D01*
X138996589Y-74884010D01*
X138753368Y-75046525D01*
X138546525Y-75253368D01*
X138430000Y-75427760D01*
X138313475Y-75253368D01*
X138106632Y-75046525D01*
X137863411Y-74884010D01*
X137593158Y-74772068D01*
X137306260Y-74715000D01*
X137013740Y-74715000D01*
X136726842Y-74772068D01*
X136456589Y-74884010D01*
X136213368Y-75046525D01*
X136006525Y-75253368D01*
X135890000Y-75427760D01*
X135773475Y-75253368D01*
X135566632Y-75046525D01*
X135323411Y-74884010D01*
X135053158Y-74772068D01*
X134766260Y-74715000D01*
X134473740Y-74715000D01*
X134186842Y-74772068D01*
X133916589Y-74884010D01*
X133673368Y-75046525D01*
X133466525Y-75253368D01*
X133350000Y-75427760D01*
X133233475Y-75253368D01*
X133026632Y-75046525D01*
X132783411Y-74884010D01*
X132513158Y-74772068D01*
X132226260Y-74715000D01*
X131933740Y-74715000D01*
X131646842Y-74772068D01*
X131376589Y-74884010D01*
X131133368Y-75046525D01*
X130926525Y-75253368D01*
X130810000Y-75427760D01*
X130693475Y-75253368D01*
X130486632Y-75046525D01*
X130243411Y-74884010D01*
X129973158Y-74772068D01*
X129686260Y-74715000D01*
X129393740Y-74715000D01*
X129106842Y-74772068D01*
X128836589Y-74884010D01*
X128593368Y-75046525D01*
X128386525Y-75253368D01*
X128270000Y-75427760D01*
X128153475Y-75253368D01*
X127946632Y-75046525D01*
X127703411Y-74884010D01*
X127433158Y-74772068D01*
X127146260Y-74715000D01*
X126853740Y-74715000D01*
X126566842Y-74772068D01*
X126296589Y-74884010D01*
X126053368Y-75046525D01*
X125846525Y-75253368D01*
X125730000Y-75427760D01*
X125613475Y-75253368D01*
X125406632Y-75046525D01*
X125163411Y-74884010D01*
X124893158Y-74772068D01*
X124606260Y-74715000D01*
X124313740Y-74715000D01*
X124026842Y-74772068D01*
X123756589Y-74884010D01*
X123513368Y-75046525D01*
X123306525Y-75253368D01*
X123190000Y-75427760D01*
X123073475Y-75253368D01*
X122866632Y-75046525D01*
X122623411Y-74884010D01*
X122353158Y-74772068D01*
X122066260Y-74715000D01*
X121773740Y-74715000D01*
X121486842Y-74772068D01*
X121216589Y-74884010D01*
X120973368Y-75046525D01*
X120766525Y-75253368D01*
X120650000Y-75427760D01*
X120533475Y-75253368D01*
X120326632Y-75046525D01*
X120083411Y-74884010D01*
X119813158Y-74772068D01*
X119526260Y-74715000D01*
X119233740Y-74715000D01*
X118946842Y-74772068D01*
X118676589Y-74884010D01*
X118433368Y-75046525D01*
X118226525Y-75253368D01*
X118110000Y-75427760D01*
X117993475Y-75253368D01*
X117786632Y-75046525D01*
X117543411Y-74884010D01*
X117273158Y-74772068D01*
X116986260Y-74715000D01*
X116693740Y-74715000D01*
X116406842Y-74772068D01*
X116136589Y-74884010D01*
X115893368Y-75046525D01*
X115686525Y-75253368D01*
X115570000Y-75427760D01*
X115453475Y-75253368D01*
X115246632Y-75046525D01*
X115003411Y-74884010D01*
X114733158Y-74772068D01*
X114446260Y-74715000D01*
X114153740Y-74715000D01*
X113866842Y-74772068D01*
X113596589Y-74884010D01*
X113353368Y-75046525D01*
X113146525Y-75253368D01*
X113030000Y-75427760D01*
X112913475Y-75253368D01*
X112706632Y-75046525D01*
X112463411Y-74884010D01*
X112193158Y-74772068D01*
X111906260Y-74715000D01*
X111613740Y-74715000D01*
X111326842Y-74772068D01*
X111056589Y-74884010D01*
X110813368Y-75046525D01*
X110606525Y-75253368D01*
X110490000Y-75427760D01*
X110373475Y-75253368D01*
X110166632Y-75046525D01*
X109923411Y-74884010D01*
X109653158Y-74772068D01*
X109366260Y-74715000D01*
X109073740Y-74715000D01*
X108786842Y-74772068D01*
X108516589Y-74884010D01*
X108273368Y-75046525D01*
X108066525Y-75253368D01*
X107904010Y-75496589D01*
X107792068Y-75766842D01*
X107735000Y-76053740D01*
X107735000Y-76346260D01*
X107792068Y-76633158D01*
X107904010Y-76903411D01*
X108066525Y-77146632D01*
X108198380Y-77278487D01*
X108125820Y-77300498D01*
X108015506Y-77359463D01*
X107918815Y-77438815D01*
X107839463Y-77535506D01*
X107780498Y-77645820D01*
X107744188Y-77765518D01*
X107731928Y-77890000D01*
X107731928Y-79590000D01*
X107744188Y-79714482D01*
X107780498Y-79834180D01*
X107839463Y-79944494D01*
X107918815Y-80041185D01*
X108015506Y-80120537D01*
X108125820Y-80179502D01*
X108245518Y-80215812D01*
X108370000Y-80228072D01*
X110070000Y-80228072D01*
X110194482Y-80215812D01*
X110314180Y-80179502D01*
X110424494Y-80120537D01*
X110521185Y-80041185D01*
X110600537Y-79944494D01*
X110659502Y-79834180D01*
X110683966Y-79753534D01*
X110759731Y-79837588D01*
X110993080Y-80011641D01*
X111255901Y-80136825D01*
X111403110Y-80181476D01*
X111633000Y-80060155D01*
X111633000Y-78867000D01*
X111613000Y-78867000D01*
X111613000Y-78613000D01*
X111633000Y-78613000D01*
X111633000Y-78593000D01*
X111887000Y-78593000D01*
X111887000Y-78613000D01*
X111907000Y-78613000D01*
X111907000Y-78867000D01*
X111887000Y-78867000D01*
X111887000Y-80060155D01*
X112116890Y-80181476D01*
X112264099Y-80136825D01*
X112526920Y-80011641D01*
X112760269Y-79837588D01*
X112955178Y-79621355D01*
X113024805Y-79504466D01*
X113146525Y-79686632D01*
X113247335Y-79787442D01*
X113219147Y-79793049D01*
X113062637Y-79857878D01*
X112921782Y-79951995D01*
X112801995Y-80071782D01*
X112707878Y-80212637D01*
X112643049Y-80369147D01*
X112610000Y-80535297D01*
X112610000Y-80704703D01*
X112643049Y-80870853D01*
X112707878Y-81027363D01*
X112801995Y-81168218D01*
X112921782Y-81288005D01*
X113062637Y-81382122D01*
X113219147Y-81446951D01*
X113385297Y-81480000D01*
X113554703Y-81480000D01*
X113720853Y-81446951D01*
X113863387Y-81387911D01*
X118575000Y-81387911D01*
X118575000Y-81572089D01*
X118610932Y-81752729D01*
X118681414Y-81922889D01*
X118783738Y-82076028D01*
X118913972Y-82206262D01*
X119067111Y-82308586D01*
X119237271Y-82379068D01*
X119417911Y-82415000D01*
X119602089Y-82415000D01*
X119782729Y-82379068D01*
X119952889Y-82308586D01*
X120106028Y-82206262D01*
X120236262Y-82076028D01*
X120245188Y-82062668D01*
X125382629Y-82062668D01*
X125382629Y-82232074D01*
X125415678Y-82398224D01*
X125480507Y-82554734D01*
X125574624Y-82695589D01*
X125694411Y-82815376D01*
X125835266Y-82909493D01*
X125991776Y-82974322D01*
X126157926Y-83007371D01*
X126327332Y-83007371D01*
X126493482Y-82974322D01*
X126649992Y-82909493D01*
X126790847Y-82815376D01*
X126910634Y-82695589D01*
X126938629Y-82653692D01*
X127003057Y-82696742D01*
X127159567Y-82761571D01*
X127325717Y-82794620D01*
X127495123Y-82794620D01*
X127661273Y-82761571D01*
X127756400Y-82722168D01*
X127821857Y-82749281D01*
X127988007Y-82782330D01*
X128157413Y-82782330D01*
X128323563Y-82749281D01*
X128480073Y-82684452D01*
X128620928Y-82590335D01*
X128740715Y-82470548D01*
X128834832Y-82329693D01*
X128899661Y-82173183D01*
X128929077Y-82025297D01*
X132400000Y-82025297D01*
X132400000Y-82194703D01*
X132433049Y-82360853D01*
X132497878Y-82517363D01*
X132591995Y-82658218D01*
X132711782Y-82778005D01*
X132852637Y-82872122D01*
X133009147Y-82936951D01*
X133175297Y-82970000D01*
X133344703Y-82970000D01*
X133510853Y-82936951D01*
X133667363Y-82872122D01*
X133808218Y-82778005D01*
X133928005Y-82658218D01*
X134022122Y-82517363D01*
X134086951Y-82360853D01*
X134120000Y-82194703D01*
X134120000Y-82025297D01*
X134102618Y-81937911D01*
X134445000Y-81937911D01*
X134445000Y-82122089D01*
X134480932Y-82302729D01*
X134551414Y-82472889D01*
X134653738Y-82626028D01*
X134783972Y-82756262D01*
X134937111Y-82858586D01*
X135107271Y-82929068D01*
X135287911Y-82965000D01*
X135472089Y-82965000D01*
X135652729Y-82929068D01*
X135822889Y-82858586D01*
X135976028Y-82756262D01*
X136106262Y-82626028D01*
X136208586Y-82472889D01*
X136279068Y-82302729D01*
X136315000Y-82122089D01*
X136315000Y-81937911D01*
X136279068Y-81757271D01*
X136208586Y-81587111D01*
X136106262Y-81433972D01*
X135976028Y-81303738D01*
X135822889Y-81201414D01*
X135652729Y-81130932D01*
X135472089Y-81095000D01*
X135287911Y-81095000D01*
X135107271Y-81130932D01*
X134937111Y-81201414D01*
X134783972Y-81303738D01*
X134653738Y-81433972D01*
X134551414Y-81587111D01*
X134480932Y-81757271D01*
X134445000Y-81937911D01*
X134102618Y-81937911D01*
X134086951Y-81859147D01*
X134022122Y-81702637D01*
X133928005Y-81561782D01*
X133808218Y-81441995D01*
X133667363Y-81347878D01*
X133510853Y-81283049D01*
X133344703Y-81250000D01*
X133175297Y-81250000D01*
X133009147Y-81283049D01*
X132852637Y-81347878D01*
X132711782Y-81441995D01*
X132591995Y-81561782D01*
X132497878Y-81702637D01*
X132433049Y-81859147D01*
X132400000Y-82025297D01*
X128929077Y-82025297D01*
X128932710Y-82007033D01*
X128932710Y-81837627D01*
X128899661Y-81671477D01*
X128834832Y-81514967D01*
X128740715Y-81374112D01*
X128620928Y-81254325D01*
X128480073Y-81160208D01*
X128323563Y-81095379D01*
X128157413Y-81062330D01*
X127988007Y-81062330D01*
X127821857Y-81095379D01*
X127726730Y-81134782D01*
X127661273Y-81107669D01*
X127495123Y-81074620D01*
X127325717Y-81074620D01*
X127159567Y-81107669D01*
X127003057Y-81172498D01*
X126862202Y-81266615D01*
X126742415Y-81386402D01*
X126714420Y-81428299D01*
X126649992Y-81385249D01*
X126493482Y-81320420D01*
X126327332Y-81287371D01*
X126157926Y-81287371D01*
X125991776Y-81320420D01*
X125835266Y-81385249D01*
X125694411Y-81479366D01*
X125574624Y-81599153D01*
X125480507Y-81740008D01*
X125415678Y-81896518D01*
X125382629Y-82062668D01*
X120245188Y-82062668D01*
X120338586Y-81922889D01*
X120409068Y-81752729D01*
X120445000Y-81572089D01*
X120445000Y-81387911D01*
X120409068Y-81207271D01*
X120338586Y-81037111D01*
X120236262Y-80883972D01*
X120106028Y-80753738D01*
X119952889Y-80651414D01*
X119782729Y-80580932D01*
X119602089Y-80545000D01*
X119417911Y-80545000D01*
X119237271Y-80580932D01*
X119067111Y-80651414D01*
X118913972Y-80753738D01*
X118783738Y-80883972D01*
X118681414Y-81037111D01*
X118610932Y-81207271D01*
X118575000Y-81387911D01*
X113863387Y-81387911D01*
X113877363Y-81382122D01*
X114018218Y-81288005D01*
X114138005Y-81168218D01*
X114232122Y-81027363D01*
X114296951Y-80870853D01*
X114330000Y-80704703D01*
X114330000Y-80535297D01*
X114296951Y-80369147D01*
X114237243Y-80225000D01*
X114446260Y-80225000D01*
X114480114Y-80218266D01*
X114471297Y-80262592D01*
X114471297Y-80431998D01*
X114504346Y-80598148D01*
X114569175Y-80754658D01*
X114663292Y-80895513D01*
X114783079Y-81015300D01*
X114923934Y-81109417D01*
X115080444Y-81174246D01*
X115246594Y-81207295D01*
X115416000Y-81207295D01*
X115582150Y-81174246D01*
X115738660Y-81109417D01*
X115879515Y-81015300D01*
X115999302Y-80895513D01*
X116093419Y-80754658D01*
X116158248Y-80598148D01*
X116191297Y-80431998D01*
X116191297Y-80262592D01*
X116158248Y-80096442D01*
X116142508Y-80058442D01*
X116406842Y-80167932D01*
X116693740Y-80225000D01*
X116986260Y-80225000D01*
X117273158Y-80167932D01*
X117543411Y-80055990D01*
X117786632Y-79893475D01*
X117993475Y-79686632D01*
X118110000Y-79512240D01*
X118226525Y-79686632D01*
X118433368Y-79893475D01*
X118676589Y-80055990D01*
X118946842Y-80167932D01*
X119233740Y-80225000D01*
X119526260Y-80225000D01*
X119813158Y-80167932D01*
X120083411Y-80055990D01*
X120326632Y-79893475D01*
X120533475Y-79686632D01*
X120650000Y-79512240D01*
X120766525Y-79686632D01*
X120973368Y-79893475D01*
X121216589Y-80055990D01*
X121486842Y-80167932D01*
X121773740Y-80225000D01*
X122066260Y-80225000D01*
X122353158Y-80167932D01*
X122623411Y-80055990D01*
X122866632Y-79893475D01*
X123073475Y-79686632D01*
X123190000Y-79512240D01*
X123306525Y-79686632D01*
X123513368Y-79893475D01*
X123756589Y-80055990D01*
X124026842Y-80167932D01*
X124313740Y-80225000D01*
X124606260Y-80225000D01*
X124893158Y-80167932D01*
X125163411Y-80055990D01*
X125406632Y-79893475D01*
X125613475Y-79686632D01*
X125730000Y-79512240D01*
X125846525Y-79686632D01*
X126053368Y-79893475D01*
X126296589Y-80055990D01*
X126566842Y-80167932D01*
X126853740Y-80225000D01*
X127146260Y-80225000D01*
X127433158Y-80167932D01*
X127703411Y-80055990D01*
X127946632Y-79893475D01*
X128153475Y-79686632D01*
X128270000Y-79512240D01*
X128386525Y-79686632D01*
X128593368Y-79893475D01*
X128836589Y-80055990D01*
X129106842Y-80167932D01*
X129393740Y-80225000D01*
X129686260Y-80225000D01*
X129973158Y-80167932D01*
X130243411Y-80055990D01*
X130486632Y-79893475D01*
X130693475Y-79686632D01*
X130810000Y-79512240D01*
X130926525Y-79686632D01*
X131133368Y-79893475D01*
X131376589Y-80055990D01*
X131646842Y-80167932D01*
X131933740Y-80225000D01*
X132226260Y-80225000D01*
X132513158Y-80167932D01*
X132783411Y-80055990D01*
X133026632Y-79893475D01*
X133233475Y-79686632D01*
X133350000Y-79512240D01*
X133466525Y-79686632D01*
X133673368Y-79893475D01*
X133916589Y-80055990D01*
X134186842Y-80167932D01*
X134473740Y-80225000D01*
X134766260Y-80225000D01*
X135053158Y-80167932D01*
X135323411Y-80055990D01*
X135566632Y-79893475D01*
X135773475Y-79686632D01*
X135890000Y-79512240D01*
X136006525Y-79686632D01*
X136213368Y-79893475D01*
X136456589Y-80055990D01*
X136726842Y-80167932D01*
X137013740Y-80225000D01*
X137306260Y-80225000D01*
X137593158Y-80167932D01*
X137863411Y-80055990D01*
X138106632Y-79893475D01*
X138313475Y-79686632D01*
X138430000Y-79512240D01*
X138546525Y-79686632D01*
X138753368Y-79893475D01*
X138996589Y-80055990D01*
X139266842Y-80167932D01*
X139553740Y-80225000D01*
X139846260Y-80225000D01*
X140133158Y-80167932D01*
X140403411Y-80055990D01*
X140646632Y-79893475D01*
X140853475Y-79686632D01*
X141015990Y-79443411D01*
X141127932Y-79173158D01*
X141185000Y-78886260D01*
X141185000Y-78593740D01*
X141127932Y-78306842D01*
X141015990Y-78036589D01*
X140853475Y-77793368D01*
X140646632Y-77586525D01*
X140472240Y-77470000D01*
X140646632Y-77353475D01*
X140853475Y-77146632D01*
X141015990Y-76903411D01*
X141127932Y-76633158D01*
X141185000Y-76346260D01*
X141185000Y-76053740D01*
X141178253Y-76019820D01*
X141301898Y-75995226D01*
X141340000Y-75979443D01*
X141340001Y-89020557D01*
X141301898Y-89004774D01*
X141101939Y-88965000D01*
X140898061Y-88965000D01*
X140698102Y-89004774D01*
X140509744Y-89082795D01*
X140340226Y-89196063D01*
X140196063Y-89340226D01*
X140082795Y-89509744D01*
X140004774Y-89698102D01*
X139965000Y-89898061D01*
X139965000Y-90101939D01*
X140004774Y-90301898D01*
X140082795Y-90490256D01*
X140196063Y-90659774D01*
X140340226Y-90803937D01*
X140509744Y-90917205D01*
X140698102Y-90995226D01*
X140722103Y-91000000D01*
X140698102Y-91004774D01*
X140509744Y-91082795D01*
X140340226Y-91196063D01*
X140196063Y-91340226D01*
X140082795Y-91509744D01*
X140004774Y-91698102D01*
X139965000Y-91898061D01*
X139965000Y-92101939D01*
X140004774Y-92301898D01*
X140082795Y-92490256D01*
X140196063Y-92659774D01*
X140340226Y-92803937D01*
X140509744Y-92917205D01*
X140698102Y-92995226D01*
X140898061Y-93035000D01*
X141101939Y-93035000D01*
X141301898Y-92995226D01*
X141340001Y-92979443D01*
X141340001Y-94020557D01*
X141301898Y-94004774D01*
X141101939Y-93965000D01*
X140898061Y-93965000D01*
X140698102Y-94004774D01*
X140509744Y-94082795D01*
X140340226Y-94196063D01*
X140196063Y-94340226D01*
X140082795Y-94509744D01*
X140004774Y-94698102D01*
X139965000Y-94898061D01*
X139965000Y-95101939D01*
X140004774Y-95301898D01*
X140082795Y-95490256D01*
X140196063Y-95659774D01*
X140340226Y-95803937D01*
X140509744Y-95917205D01*
X140698102Y-95995226D01*
X140898061Y-96035000D01*
X141101939Y-96035000D01*
X141301898Y-95995226D01*
X141340001Y-95979443D01*
X141340001Y-102020557D01*
X141301898Y-102004774D01*
X141139984Y-101972568D01*
X141185000Y-101746260D01*
X141185000Y-101453740D01*
X141127932Y-101166842D01*
X141015990Y-100896589D01*
X140853475Y-100653368D01*
X140646632Y-100446525D01*
X140472240Y-100330000D01*
X140646632Y-100213475D01*
X140853475Y-100006632D01*
X141015990Y-99763411D01*
X141127932Y-99493158D01*
X141185000Y-99206260D01*
X141185000Y-98913740D01*
X141127932Y-98626842D01*
X141015990Y-98356589D01*
X140853475Y-98113368D01*
X140646632Y-97906525D01*
X140403411Y-97744010D01*
X140133158Y-97632068D01*
X139846260Y-97575000D01*
X139553740Y-97575000D01*
X139266842Y-97632068D01*
X138996589Y-97744010D01*
X138753368Y-97906525D01*
X138546525Y-98113368D01*
X138430000Y-98287760D01*
X138313475Y-98113368D01*
X138226345Y-98026238D01*
X138317205Y-97890256D01*
X138395226Y-97701898D01*
X138435000Y-97501939D01*
X138435000Y-97298061D01*
X138395226Y-97098102D01*
X138317205Y-96909744D01*
X138203937Y-96740226D01*
X138059774Y-96596063D01*
X137890256Y-96482795D01*
X137701898Y-96404774D01*
X137501939Y-96365000D01*
X137298061Y-96365000D01*
X137098102Y-96404774D01*
X136909744Y-96482795D01*
X136740226Y-96596063D01*
X136596063Y-96740226D01*
X136482795Y-96909744D01*
X136404774Y-97098102D01*
X136365000Y-97298061D01*
X136365000Y-97501939D01*
X136404774Y-97701898D01*
X136429668Y-97761998D01*
X136213368Y-97906525D01*
X136006525Y-98113368D01*
X135890000Y-98287760D01*
X135773475Y-98113368D01*
X135566632Y-97906525D01*
X135323411Y-97744010D01*
X135053158Y-97632068D01*
X134766260Y-97575000D01*
X134473740Y-97575000D01*
X134186842Y-97632068D01*
X133916589Y-97744010D01*
X133673368Y-97906525D01*
X133466525Y-98113368D01*
X133350000Y-98287760D01*
X133233475Y-98113368D01*
X133026632Y-97906525D01*
X132783411Y-97744010D01*
X132513158Y-97632068D01*
X132226260Y-97575000D01*
X131933740Y-97575000D01*
X131646842Y-97632068D01*
X131376589Y-97744010D01*
X131133368Y-97906525D01*
X130926525Y-98113368D01*
X130810000Y-98287760D01*
X130693475Y-98113368D01*
X130486632Y-97906525D01*
X130243411Y-97744010D01*
X129973158Y-97632068D01*
X129686260Y-97575000D01*
X129393740Y-97575000D01*
X129106842Y-97632068D01*
X128836589Y-97744010D01*
X128593368Y-97906525D01*
X128386525Y-98113368D01*
X128270000Y-98287760D01*
X128153475Y-98113368D01*
X127946632Y-97906525D01*
X127703411Y-97744010D01*
X127433158Y-97632068D01*
X127146260Y-97575000D01*
X126853740Y-97575000D01*
X126566842Y-97632068D01*
X126296589Y-97744010D01*
X126053368Y-97906525D01*
X125846525Y-98113368D01*
X125730000Y-98287760D01*
X125613475Y-98113368D01*
X125406632Y-97906525D01*
X125163411Y-97744010D01*
X124893158Y-97632068D01*
X124606260Y-97575000D01*
X124313740Y-97575000D01*
X124026842Y-97632068D01*
X123756589Y-97744010D01*
X123513368Y-97906525D01*
X123306525Y-98113368D01*
X123190000Y-98287760D01*
X123073475Y-98113368D01*
X122866632Y-97906525D01*
X122623411Y-97744010D01*
X122353158Y-97632068D01*
X122066260Y-97575000D01*
X121773740Y-97575000D01*
X121486842Y-97632068D01*
X121216589Y-97744010D01*
X120973368Y-97906525D01*
X120766525Y-98113368D01*
X120650000Y-98287760D01*
X120580286Y-98183425D01*
X120703937Y-98059774D01*
X120817205Y-97890256D01*
X120895226Y-97701898D01*
X120935000Y-97501939D01*
X120935000Y-97298061D01*
X120895226Y-97098102D01*
X120817205Y-96909744D01*
X120703937Y-96740226D01*
X120559774Y-96596063D01*
X120390256Y-96482795D01*
X120201898Y-96404774D01*
X120001939Y-96365000D01*
X119798061Y-96365000D01*
X119598102Y-96404774D01*
X119409744Y-96482795D01*
X119240226Y-96596063D01*
X119096063Y-96740226D01*
X118982795Y-96909744D01*
X118904774Y-97098102D01*
X118865000Y-97298061D01*
X118865000Y-97501939D01*
X118895144Y-97653482D01*
X118676589Y-97744010D01*
X118433368Y-97906525D01*
X118226525Y-98113368D01*
X118110000Y-98287760D01*
X117993475Y-98113368D01*
X117786632Y-97906525D01*
X117543411Y-97744010D01*
X117273158Y-97632068D01*
X116986260Y-97575000D01*
X116693740Y-97575000D01*
X116406842Y-97632068D01*
X116136589Y-97744010D01*
X115893368Y-97906525D01*
X115686525Y-98113368D01*
X115570000Y-98287760D01*
X115453475Y-98113368D01*
X115246632Y-97906525D01*
X115003411Y-97744010D01*
X114733158Y-97632068D01*
X114446260Y-97575000D01*
X114153740Y-97575000D01*
X113866842Y-97632068D01*
X113596589Y-97744010D01*
X113353368Y-97906525D01*
X113146525Y-98113368D01*
X113030000Y-98287760D01*
X112913475Y-98113368D01*
X112706632Y-97906525D01*
X112463411Y-97744010D01*
X112193158Y-97632068D01*
X111906260Y-97575000D01*
X111613740Y-97575000D01*
X111326842Y-97632068D01*
X111056589Y-97744010D01*
X110813368Y-97906525D01*
X110606525Y-98113368D01*
X110490000Y-98287760D01*
X110373475Y-98113368D01*
X110166632Y-97906525D01*
X109923411Y-97744010D01*
X109653158Y-97632068D01*
X109366260Y-97575000D01*
X109073740Y-97575000D01*
X108786842Y-97632068D01*
X108516589Y-97744010D01*
X108273368Y-97906525D01*
X108066525Y-98113368D01*
X107904010Y-98356589D01*
X107792068Y-98626842D01*
X107735000Y-98913740D01*
X107735000Y-99206260D01*
X107792068Y-99493158D01*
X107904010Y-99763411D01*
X108066525Y-100006632D01*
X108198380Y-100138487D01*
X108125820Y-100160498D01*
X108015506Y-100219463D01*
X107918815Y-100298815D01*
X107839463Y-100395506D01*
X107780498Y-100505820D01*
X107744188Y-100625518D01*
X107731928Y-100750000D01*
X107735000Y-101314250D01*
X107893750Y-101473000D01*
X109093000Y-101473000D01*
X109093000Y-101453000D01*
X109347000Y-101453000D01*
X109347000Y-101473000D01*
X111633000Y-101473000D01*
X111633000Y-101453000D01*
X111887000Y-101453000D01*
X111887000Y-101473000D01*
X114173000Y-101473000D01*
X114173000Y-101453000D01*
X114427000Y-101453000D01*
X114427000Y-101473000D01*
X114447000Y-101473000D01*
X114447000Y-101727000D01*
X114427000Y-101727000D01*
X114427000Y-102920155D01*
X114656890Y-103041476D01*
X114804099Y-102996825D01*
X115066920Y-102871641D01*
X115300269Y-102697588D01*
X115495178Y-102481355D01*
X115564805Y-102364466D01*
X115686525Y-102546632D01*
X115893368Y-102753475D01*
X116136589Y-102915990D01*
X116406842Y-103027932D01*
X116693740Y-103085000D01*
X116986260Y-103085000D01*
X117273158Y-103027932D01*
X117543411Y-102915990D01*
X117786632Y-102753475D01*
X117993475Y-102546632D01*
X118110000Y-102372240D01*
X118226525Y-102546632D01*
X118433368Y-102753475D01*
X118676589Y-102915990D01*
X118946842Y-103027932D01*
X119233740Y-103085000D01*
X119526260Y-103085000D01*
X119813158Y-103027932D01*
X120083411Y-102915990D01*
X120326632Y-102753475D01*
X120533475Y-102546632D01*
X120650000Y-102372240D01*
X120766525Y-102546632D01*
X120973368Y-102753475D01*
X121216589Y-102915990D01*
X121486842Y-103027932D01*
X121773740Y-103085000D01*
X122066260Y-103085000D01*
X122353158Y-103027932D01*
X122623411Y-102915990D01*
X122866632Y-102753475D01*
X123073475Y-102546632D01*
X123190000Y-102372240D01*
X123306525Y-102546632D01*
X123513368Y-102753475D01*
X123756589Y-102915990D01*
X124026842Y-103027932D01*
X124313740Y-103085000D01*
X124606260Y-103085000D01*
X124893158Y-103027932D01*
X125163411Y-102915990D01*
X125406632Y-102753475D01*
X125613475Y-102546632D01*
X125730000Y-102372240D01*
X125846525Y-102546632D01*
X126053368Y-102753475D01*
X126296589Y-102915990D01*
X126566842Y-103027932D01*
X126853740Y-103085000D01*
X127146260Y-103085000D01*
X127433158Y-103027932D01*
X127703411Y-102915990D01*
X127946632Y-102753475D01*
X128153475Y-102546632D01*
X128270000Y-102372240D01*
X128386525Y-102546632D01*
X128593368Y-102753475D01*
X128836589Y-102915990D01*
X129106842Y-103027932D01*
X129393740Y-103085000D01*
X129686260Y-103085000D01*
X129973158Y-103027932D01*
X130243411Y-102915990D01*
X130486632Y-102753475D01*
X130693475Y-102546632D01*
X130810000Y-102372240D01*
X130926525Y-102546632D01*
X131133368Y-102753475D01*
X131376589Y-102915990D01*
X131646842Y-103027932D01*
X131933740Y-103085000D01*
X132226260Y-103085000D01*
X132513158Y-103027932D01*
X132783411Y-102915990D01*
X133026632Y-102753475D01*
X133233475Y-102546632D01*
X133350000Y-102372240D01*
X133466525Y-102546632D01*
X133673368Y-102753475D01*
X133916589Y-102915990D01*
X134186842Y-103027932D01*
X134473740Y-103085000D01*
X134766260Y-103085000D01*
X135053158Y-103027932D01*
X135323411Y-102915990D01*
X135566632Y-102753475D01*
X135773475Y-102546632D01*
X135890000Y-102372240D01*
X136006525Y-102546632D01*
X136213368Y-102753475D01*
X136456589Y-102915990D01*
X136726842Y-103027932D01*
X137013740Y-103085000D01*
X137306260Y-103085000D01*
X137593158Y-103027932D01*
X137863411Y-102915990D01*
X138106632Y-102753475D01*
X138313475Y-102546632D01*
X138430000Y-102372240D01*
X138546525Y-102546632D01*
X138753368Y-102753475D01*
X138996589Y-102915990D01*
X139266842Y-103027932D01*
X139553740Y-103085000D01*
X139846260Y-103085000D01*
X139965000Y-103061381D01*
X139965000Y-103101939D01*
X140004774Y-103301898D01*
X140020556Y-103340000D01*
X106979444Y-103340000D01*
X106995226Y-103301898D01*
X107035000Y-103101939D01*
X107035000Y-102898061D01*
X106995226Y-102698102D01*
X106917205Y-102509744D01*
X106877286Y-102450000D01*
X107731928Y-102450000D01*
X107744188Y-102574482D01*
X107780498Y-102694180D01*
X107839463Y-102804494D01*
X107918815Y-102901185D01*
X108015506Y-102980537D01*
X108125820Y-103039502D01*
X108245518Y-103075812D01*
X108370000Y-103088072D01*
X108934250Y-103085000D01*
X109093000Y-102926250D01*
X109093000Y-101727000D01*
X109347000Y-101727000D01*
X109347000Y-102926250D01*
X109505750Y-103085000D01*
X110070000Y-103088072D01*
X110194482Y-103075812D01*
X110314180Y-103039502D01*
X110424494Y-102980537D01*
X110521185Y-102901185D01*
X110600537Y-102804494D01*
X110659502Y-102694180D01*
X110683966Y-102613534D01*
X110759731Y-102697588D01*
X110993080Y-102871641D01*
X111255901Y-102996825D01*
X111403110Y-103041476D01*
X111633000Y-102920155D01*
X111633000Y-101727000D01*
X111887000Y-101727000D01*
X111887000Y-102920155D01*
X112116890Y-103041476D01*
X112264099Y-102996825D01*
X112526920Y-102871641D01*
X112760269Y-102697588D01*
X112955178Y-102481355D01*
X113030000Y-102355745D01*
X113104822Y-102481355D01*
X113299731Y-102697588D01*
X113533080Y-102871641D01*
X113795901Y-102996825D01*
X113943110Y-103041476D01*
X114173000Y-102920155D01*
X114173000Y-101727000D01*
X111887000Y-101727000D01*
X111633000Y-101727000D01*
X109347000Y-101727000D01*
X109093000Y-101727000D01*
X107893750Y-101727000D01*
X107735000Y-101885750D01*
X107731928Y-102450000D01*
X106877286Y-102450000D01*
X106803937Y-102340226D01*
X106659774Y-102196063D01*
X106490256Y-102082795D01*
X106301898Y-102004774D01*
X106101939Y-101965000D01*
X105898061Y-101965000D01*
X105698102Y-102004774D01*
X105660000Y-102020556D01*
X105660000Y-95005802D01*
X105696063Y-95059774D01*
X105840226Y-95203937D01*
X106009744Y-95317205D01*
X106198102Y-95395226D01*
X106398061Y-95435000D01*
X106601939Y-95435000D01*
X106801898Y-95395226D01*
X106990256Y-95317205D01*
X107159774Y-95203937D01*
X107303937Y-95059774D01*
X107417205Y-94890256D01*
X107495226Y-94701898D01*
X107535000Y-94501939D01*
X107535000Y-94298061D01*
X118265000Y-94298061D01*
X118265000Y-94501939D01*
X118304774Y-94701898D01*
X118382795Y-94890256D01*
X118496063Y-95059774D01*
X118640226Y-95203937D01*
X118809744Y-95317205D01*
X118998102Y-95395226D01*
X119198061Y-95435000D01*
X119401939Y-95435000D01*
X119601898Y-95395226D01*
X119790256Y-95317205D01*
X119959774Y-95203937D01*
X120103937Y-95059774D01*
X120217205Y-94890256D01*
X120295226Y-94701898D01*
X120333397Y-94510000D01*
X120444703Y-94510000D01*
X120610853Y-94476951D01*
X120767363Y-94412122D01*
X120908218Y-94318005D01*
X121028005Y-94198218D01*
X121122122Y-94057363D01*
X121186951Y-93900853D01*
X121220000Y-93734703D01*
X121220000Y-93565297D01*
X121186951Y-93399147D01*
X121152219Y-93315297D01*
X128420000Y-93315297D01*
X128420000Y-93484703D01*
X128453049Y-93650853D01*
X128517878Y-93807363D01*
X128611995Y-93948218D01*
X128731782Y-94068005D01*
X128872637Y-94162122D01*
X129029147Y-94226951D01*
X129195297Y-94260000D01*
X129364703Y-94260000D01*
X129530853Y-94226951D01*
X129687363Y-94162122D01*
X129828218Y-94068005D01*
X129948005Y-93948218D01*
X130042122Y-93807363D01*
X130106951Y-93650853D01*
X130140000Y-93484703D01*
X130140000Y-93315297D01*
X130106951Y-93149147D01*
X130042122Y-92992637D01*
X129948005Y-92851782D01*
X129828218Y-92731995D01*
X129687363Y-92637878D01*
X129530853Y-92573049D01*
X129364703Y-92540000D01*
X129195297Y-92540000D01*
X129029147Y-92573049D01*
X128872637Y-92637878D01*
X128731782Y-92731995D01*
X128611995Y-92851782D01*
X128517878Y-92992637D01*
X128453049Y-93149147D01*
X128420000Y-93315297D01*
X121152219Y-93315297D01*
X121122122Y-93242637D01*
X121028005Y-93101782D01*
X120908218Y-92981995D01*
X120907833Y-92981738D01*
X120916028Y-92976262D01*
X121046262Y-92846028D01*
X121148586Y-92692889D01*
X121219068Y-92522729D01*
X121255000Y-92342089D01*
X121255000Y-92157911D01*
X121219068Y-91977271D01*
X121148586Y-91807111D01*
X121046262Y-91653972D01*
X120916028Y-91523738D01*
X120762889Y-91421414D01*
X120592729Y-91350932D01*
X120412089Y-91315000D01*
X120227911Y-91315000D01*
X120047271Y-91350932D01*
X119877111Y-91421414D01*
X119723972Y-91523738D01*
X119593738Y-91653972D01*
X119491414Y-91807111D01*
X119420932Y-91977271D01*
X119385000Y-92157911D01*
X119385000Y-92342089D01*
X119420932Y-92522729D01*
X119491414Y-92692889D01*
X119593738Y-92846028D01*
X119723972Y-92976262D01*
X119780047Y-93013730D01*
X119691995Y-93101782D01*
X119597878Y-93242637D01*
X119536136Y-93391693D01*
X119401939Y-93365000D01*
X119198061Y-93365000D01*
X118998102Y-93404774D01*
X118809744Y-93482795D01*
X118640226Y-93596063D01*
X118496063Y-93740226D01*
X118382795Y-93909744D01*
X118304774Y-94098102D01*
X118265000Y-94298061D01*
X107535000Y-94298061D01*
X107495226Y-94098102D01*
X107417205Y-93909744D01*
X107303937Y-93740226D01*
X107159774Y-93596063D01*
X106990256Y-93482795D01*
X106801898Y-93404774D01*
X106601939Y-93365000D01*
X106398061Y-93365000D01*
X106198102Y-93404774D01*
X106009744Y-93482795D01*
X105840226Y-93596063D01*
X105696063Y-93740226D01*
X105660000Y-93794198D01*
X105660000Y-92895453D01*
X105686841Y-92928159D01*
X105848247Y-93060622D01*
X106032393Y-93159050D01*
X106232204Y-93219662D01*
X106387934Y-93235000D01*
X107492066Y-93235000D01*
X107647796Y-93219662D01*
X107847607Y-93159050D01*
X108031753Y-93060622D01*
X108193159Y-92928159D01*
X108325622Y-92766753D01*
X108424050Y-92582607D01*
X108484662Y-92382796D01*
X108505128Y-92175000D01*
X108484662Y-91967204D01*
X108424050Y-91767393D01*
X108325622Y-91583247D01*
X108193159Y-91421841D01*
X108031753Y-91289378D01*
X107847607Y-91190950D01*
X107647796Y-91130338D01*
X107492066Y-91115000D01*
X106387934Y-91115000D01*
X106232204Y-91130338D01*
X106032393Y-91190950D01*
X105848247Y-91289378D01*
X105686841Y-91421841D01*
X105660000Y-91454547D01*
X105660000Y-90184749D01*
X105660270Y-90184929D01*
X105852268Y-90264457D01*
X106056092Y-90305000D01*
X106185833Y-90305000D01*
X106225071Y-90399730D01*
X106340528Y-90572523D01*
X106487477Y-90719472D01*
X106660270Y-90834929D01*
X106852268Y-90914457D01*
X107056092Y-90955000D01*
X107263908Y-90955000D01*
X107467732Y-90914457D01*
X107659730Y-90834929D01*
X107832523Y-90719472D01*
X107979472Y-90572523D01*
X108094929Y-90399730D01*
X108170178Y-90218061D01*
X109345000Y-90218061D01*
X109345000Y-90421939D01*
X109384774Y-90621898D01*
X109462795Y-90810256D01*
X109576063Y-90979774D01*
X109720226Y-91123937D01*
X109889744Y-91237205D01*
X110078102Y-91315226D01*
X110278061Y-91355000D01*
X110481939Y-91355000D01*
X110681898Y-91315226D01*
X110870256Y-91237205D01*
X111039774Y-91123937D01*
X111183937Y-90979774D01*
X111297205Y-90810256D01*
X111375226Y-90621898D01*
X111415000Y-90421939D01*
X111415000Y-90218061D01*
X111375226Y-90018102D01*
X111297205Y-89829744D01*
X111183937Y-89660226D01*
X111039774Y-89516063D01*
X110870256Y-89402795D01*
X110737756Y-89347911D01*
X117185000Y-89347911D01*
X117185000Y-89532089D01*
X117220932Y-89712729D01*
X117291414Y-89882889D01*
X117393738Y-90036028D01*
X117523972Y-90166262D01*
X117677111Y-90268586D01*
X117847271Y-90339068D01*
X118027911Y-90375000D01*
X118212089Y-90375000D01*
X118392729Y-90339068D01*
X118562889Y-90268586D01*
X118716028Y-90166262D01*
X118846262Y-90036028D01*
X118846750Y-90035297D01*
X121020000Y-90035297D01*
X121020000Y-90204703D01*
X121053049Y-90370853D01*
X121117878Y-90527363D01*
X121211995Y-90668218D01*
X121325231Y-90781454D01*
X121293049Y-90859147D01*
X121260000Y-91025297D01*
X121260000Y-91194703D01*
X121293049Y-91360853D01*
X121357878Y-91517363D01*
X121451995Y-91658218D01*
X121452166Y-91658389D01*
X121397878Y-91739637D01*
X121333049Y-91896147D01*
X121300000Y-92062297D01*
X121300000Y-92231703D01*
X121333049Y-92397853D01*
X121397878Y-92554363D01*
X121491995Y-92695218D01*
X121611782Y-92815005D01*
X121752637Y-92909122D01*
X121909147Y-92973951D01*
X122075297Y-93007000D01*
X122244703Y-93007000D01*
X122410853Y-92973951D01*
X122567363Y-92909122D01*
X122708218Y-92815005D01*
X122828005Y-92695218D01*
X122922122Y-92554363D01*
X122986951Y-92397853D01*
X123020000Y-92231703D01*
X123020000Y-92062297D01*
X122986951Y-91896147D01*
X122922122Y-91739637D01*
X122828005Y-91598782D01*
X122827834Y-91598611D01*
X122882122Y-91517363D01*
X122946951Y-91360853D01*
X122980000Y-91194703D01*
X122980000Y-91025297D01*
X122954692Y-90898061D01*
X126965000Y-90898061D01*
X126965000Y-91101939D01*
X127004774Y-91301898D01*
X127082795Y-91490256D01*
X127196063Y-91659774D01*
X127340226Y-91803937D01*
X127509744Y-91917205D01*
X127698102Y-91995226D01*
X127898061Y-92035000D01*
X128101939Y-92035000D01*
X128301898Y-91995226D01*
X128490256Y-91917205D01*
X128659774Y-91803937D01*
X128803937Y-91659774D01*
X128900473Y-91515297D01*
X132610000Y-91515297D01*
X132610000Y-91684703D01*
X132643049Y-91850853D01*
X132707878Y-92007363D01*
X132801995Y-92148218D01*
X132921782Y-92268005D01*
X133062637Y-92362122D01*
X133219147Y-92426951D01*
X133385297Y-92460000D01*
X133554703Y-92460000D01*
X133720853Y-92426951D01*
X133877363Y-92362122D01*
X134018218Y-92268005D01*
X134138005Y-92148218D01*
X134232122Y-92007363D01*
X134296951Y-91850853D01*
X134330000Y-91684703D01*
X134330000Y-91515297D01*
X134296951Y-91349147D01*
X134232122Y-91192637D01*
X134138005Y-91051782D01*
X134018218Y-90931995D01*
X133967433Y-90898061D01*
X135465000Y-90898061D01*
X135465000Y-91101939D01*
X135504774Y-91301898D01*
X135582795Y-91490256D01*
X135696063Y-91659774D01*
X135840226Y-91803937D01*
X136009744Y-91917205D01*
X136198102Y-91995226D01*
X136398061Y-92035000D01*
X136601939Y-92035000D01*
X136801898Y-91995226D01*
X136990256Y-91917205D01*
X137159774Y-91803937D01*
X137303937Y-91659774D01*
X137417205Y-91490256D01*
X137495226Y-91301898D01*
X137535000Y-91101939D01*
X137535000Y-90898061D01*
X137495226Y-90698102D01*
X137417205Y-90509744D01*
X137303937Y-90340226D01*
X137159774Y-90196063D01*
X136990256Y-90082795D01*
X136801898Y-90004774D01*
X136601939Y-89965000D01*
X136398061Y-89965000D01*
X136198102Y-90004774D01*
X136009744Y-90082795D01*
X135840226Y-90196063D01*
X135696063Y-90340226D01*
X135582795Y-90509744D01*
X135504774Y-90698102D01*
X135465000Y-90898061D01*
X133967433Y-90898061D01*
X133877363Y-90837878D01*
X133720853Y-90773049D01*
X133554703Y-90740000D01*
X133385297Y-90740000D01*
X133219147Y-90773049D01*
X133062637Y-90837878D01*
X132921782Y-90931995D01*
X132801995Y-91051782D01*
X132707878Y-91192637D01*
X132643049Y-91349147D01*
X132610000Y-91515297D01*
X128900473Y-91515297D01*
X128917205Y-91490256D01*
X128995226Y-91301898D01*
X129035000Y-91101939D01*
X129035000Y-90898061D01*
X128995226Y-90698102D01*
X128917205Y-90509744D01*
X128820689Y-90365297D01*
X130970000Y-90365297D01*
X130970000Y-90534703D01*
X131003049Y-90700853D01*
X131067878Y-90857363D01*
X131161995Y-90998218D01*
X131281782Y-91118005D01*
X131422637Y-91212122D01*
X131579147Y-91276951D01*
X131745297Y-91310000D01*
X131914703Y-91310000D01*
X132080853Y-91276951D01*
X132237363Y-91212122D01*
X132378218Y-91118005D01*
X132498005Y-90998218D01*
X132592122Y-90857363D01*
X132656951Y-90700853D01*
X132690000Y-90534703D01*
X132690000Y-90365297D01*
X132656951Y-90199147D01*
X132592122Y-90042637D01*
X132498005Y-89901782D01*
X132378218Y-89781995D01*
X132237363Y-89687878D01*
X132080853Y-89623049D01*
X131914703Y-89590000D01*
X131745297Y-89590000D01*
X131579147Y-89623049D01*
X131422637Y-89687878D01*
X131281782Y-89781995D01*
X131161995Y-89901782D01*
X131067878Y-90042637D01*
X131003049Y-90199147D01*
X130970000Y-90365297D01*
X128820689Y-90365297D01*
X128803937Y-90340226D01*
X128659774Y-90196063D01*
X128490256Y-90082795D01*
X128301898Y-90004774D01*
X128101939Y-89965000D01*
X127898061Y-89965000D01*
X127698102Y-90004774D01*
X127509744Y-90082795D01*
X127340226Y-90196063D01*
X127196063Y-90340226D01*
X127082795Y-90509744D01*
X127004774Y-90698102D01*
X126965000Y-90898061D01*
X122954692Y-90898061D01*
X122946951Y-90859147D01*
X122882122Y-90702637D01*
X122788005Y-90561782D01*
X122674769Y-90448546D01*
X122706951Y-90370853D01*
X122740000Y-90204703D01*
X122740000Y-90035297D01*
X122710981Y-89889408D01*
X122726951Y-89850853D01*
X122760000Y-89684703D01*
X122760000Y-89515297D01*
X122726951Y-89349147D01*
X122662122Y-89192637D01*
X122568005Y-89051782D01*
X122448218Y-88931995D01*
X122307363Y-88837878D01*
X122150853Y-88773049D01*
X121984703Y-88740000D01*
X121815297Y-88740000D01*
X121649147Y-88773049D01*
X121492637Y-88837878D01*
X121351782Y-88931995D01*
X121231995Y-89051782D01*
X121137878Y-89192637D01*
X121073049Y-89349147D01*
X121040000Y-89515297D01*
X121040000Y-89684703D01*
X121069019Y-89830592D01*
X121053049Y-89869147D01*
X121020000Y-90035297D01*
X118846750Y-90035297D01*
X118948586Y-89882889D01*
X119019068Y-89712729D01*
X119055000Y-89532089D01*
X119055000Y-89347911D01*
X119019068Y-89167271D01*
X118948586Y-88997111D01*
X118846262Y-88843972D01*
X118716028Y-88713738D01*
X118562889Y-88611414D01*
X118392729Y-88540932D01*
X118212089Y-88505000D01*
X118027911Y-88505000D01*
X117847271Y-88540932D01*
X117677111Y-88611414D01*
X117523972Y-88713738D01*
X117393738Y-88843972D01*
X117291414Y-88997111D01*
X117220932Y-89167271D01*
X117185000Y-89347911D01*
X110737756Y-89347911D01*
X110681898Y-89324774D01*
X110481939Y-89285000D01*
X110278061Y-89285000D01*
X110078102Y-89324774D01*
X109889744Y-89402795D01*
X109720226Y-89516063D01*
X109576063Y-89660226D01*
X109462795Y-89829744D01*
X109384774Y-90018102D01*
X109345000Y-90218061D01*
X108170178Y-90218061D01*
X108174457Y-90207732D01*
X108215000Y-90003908D01*
X108215000Y-89796092D01*
X108174457Y-89592268D01*
X108094929Y-89400270D01*
X107994521Y-89250000D01*
X108094929Y-89099730D01*
X108174457Y-88907732D01*
X108215000Y-88703908D01*
X108215000Y-88496092D01*
X108174457Y-88292268D01*
X108104454Y-88123266D01*
X108247111Y-88218586D01*
X108417271Y-88289068D01*
X108597911Y-88325000D01*
X108782089Y-88325000D01*
X108962729Y-88289068D01*
X109132889Y-88218586D01*
X109286028Y-88116262D01*
X109416262Y-87986028D01*
X109518586Y-87832889D01*
X109589068Y-87662729D01*
X109625000Y-87482089D01*
X109625000Y-87297911D01*
X109606578Y-87205297D01*
X111610000Y-87205297D01*
X111610000Y-87374703D01*
X111643049Y-87540853D01*
X111707878Y-87697363D01*
X111801995Y-87838218D01*
X111921782Y-87958005D01*
X112062637Y-88052122D01*
X112219147Y-88116951D01*
X112385297Y-88150000D01*
X112554703Y-88150000D01*
X112720853Y-88116951D01*
X112877363Y-88052122D01*
X113018218Y-87958005D01*
X113138005Y-87838218D01*
X113232122Y-87697363D01*
X113296951Y-87540853D01*
X113330000Y-87374703D01*
X113330000Y-87205297D01*
X113308670Y-87098061D01*
X115255000Y-87098061D01*
X115255000Y-87301939D01*
X115294774Y-87501898D01*
X115372795Y-87690256D01*
X115486063Y-87859774D01*
X115630226Y-88003937D01*
X115799744Y-88117205D01*
X115988102Y-88195226D01*
X116188061Y-88235000D01*
X116391939Y-88235000D01*
X116591898Y-88195226D01*
X116780256Y-88117205D01*
X116836149Y-88079858D01*
X117018102Y-88155226D01*
X117218061Y-88195000D01*
X117421939Y-88195000D01*
X117621898Y-88155226D01*
X117810256Y-88077205D01*
X117979774Y-87963937D01*
X118123937Y-87819774D01*
X118237205Y-87650256D01*
X118315226Y-87461898D01*
X118330462Y-87385297D01*
X118620000Y-87385297D01*
X118620000Y-87554703D01*
X118653049Y-87720853D01*
X118717878Y-87877363D01*
X118811995Y-88018218D01*
X118931782Y-88138005D01*
X119072637Y-88232122D01*
X119229147Y-88296951D01*
X119395297Y-88330000D01*
X119564703Y-88330000D01*
X119730853Y-88296951D01*
X119887363Y-88232122D01*
X120028218Y-88138005D01*
X120148005Y-88018218D01*
X120242122Y-87877363D01*
X120306951Y-87720853D01*
X120340000Y-87554703D01*
X120340000Y-87385297D01*
X120306951Y-87219147D01*
X120242122Y-87062637D01*
X120217173Y-87025297D01*
X121360000Y-87025297D01*
X121360000Y-87194703D01*
X121393049Y-87360853D01*
X121457878Y-87517363D01*
X121551995Y-87658218D01*
X121671782Y-87778005D01*
X121812637Y-87872122D01*
X121969147Y-87936951D01*
X122135297Y-87970000D01*
X122304703Y-87970000D01*
X122470853Y-87936951D01*
X122627363Y-87872122D01*
X122768218Y-87778005D01*
X122888005Y-87658218D01*
X122982122Y-87517363D01*
X123046951Y-87360853D01*
X123080000Y-87194703D01*
X123080000Y-87025297D01*
X123046951Y-86859147D01*
X122982122Y-86702637D01*
X122888005Y-86561782D01*
X122768218Y-86441995D01*
X122627363Y-86347878D01*
X122470853Y-86283049D01*
X122304703Y-86250000D01*
X122135297Y-86250000D01*
X121969147Y-86283049D01*
X121812637Y-86347878D01*
X121671782Y-86441995D01*
X121551995Y-86561782D01*
X121457878Y-86702637D01*
X121393049Y-86859147D01*
X121360000Y-87025297D01*
X120217173Y-87025297D01*
X120148005Y-86921782D01*
X120028218Y-86801995D01*
X119887363Y-86707878D01*
X119730853Y-86643049D01*
X119564703Y-86610000D01*
X119395297Y-86610000D01*
X119229147Y-86643049D01*
X119072637Y-86707878D01*
X118931782Y-86801995D01*
X118811995Y-86921782D01*
X118717878Y-87062637D01*
X118653049Y-87219147D01*
X118620000Y-87385297D01*
X118330462Y-87385297D01*
X118335519Y-87359878D01*
X118390256Y-87337205D01*
X118559774Y-87223937D01*
X118703937Y-87079774D01*
X118817205Y-86910256D01*
X118895226Y-86721898D01*
X118935000Y-86521939D01*
X118935000Y-86318061D01*
X118895226Y-86118102D01*
X118817205Y-85929744D01*
X118703937Y-85760226D01*
X118698711Y-85755000D01*
X118703937Y-85749774D01*
X118733655Y-85705297D01*
X125060000Y-85705297D01*
X125060000Y-85874703D01*
X125093049Y-86040853D01*
X125157878Y-86197363D01*
X125251995Y-86338218D01*
X125371782Y-86458005D01*
X125512637Y-86552122D01*
X125669147Y-86616951D01*
X125675177Y-86618150D01*
X125721995Y-86688218D01*
X125841782Y-86808005D01*
X125860350Y-86820412D01*
X125709744Y-86882795D01*
X125540226Y-86996063D01*
X125396063Y-87140226D01*
X125282795Y-87309744D01*
X125204774Y-87498102D01*
X125165000Y-87698061D01*
X125165000Y-87901939D01*
X125204774Y-88101898D01*
X125282795Y-88290256D01*
X125396063Y-88459774D01*
X125540226Y-88603937D01*
X125709744Y-88717205D01*
X125898102Y-88795226D01*
X126098061Y-88835000D01*
X126301939Y-88835000D01*
X126501898Y-88795226D01*
X126690256Y-88717205D01*
X126859774Y-88603937D01*
X127003937Y-88459774D01*
X127117205Y-88290256D01*
X127195226Y-88101898D01*
X127235000Y-87901939D01*
X127235000Y-87898061D01*
X127965000Y-87898061D01*
X127965000Y-88101939D01*
X128004774Y-88301898D01*
X128082795Y-88490256D01*
X128196063Y-88659774D01*
X128340226Y-88803937D01*
X128509744Y-88917205D01*
X128698102Y-88995226D01*
X128898061Y-89035000D01*
X129101939Y-89035000D01*
X129301898Y-88995226D01*
X129490256Y-88917205D01*
X129659774Y-88803937D01*
X129803937Y-88659774D01*
X129917205Y-88490256D01*
X129995226Y-88301898D01*
X130035000Y-88101939D01*
X130035000Y-87898061D01*
X129995226Y-87698102D01*
X129917205Y-87509744D01*
X129803937Y-87340226D01*
X129659774Y-87196063D01*
X129490256Y-87082795D01*
X129301898Y-87004774D01*
X129101939Y-86965000D01*
X128898061Y-86965000D01*
X128698102Y-87004774D01*
X128509744Y-87082795D01*
X128340226Y-87196063D01*
X128196063Y-87340226D01*
X128082795Y-87509744D01*
X128004774Y-87698102D01*
X127965000Y-87898061D01*
X127235000Y-87898061D01*
X127235000Y-87698061D01*
X127195226Y-87498102D01*
X127117205Y-87309744D01*
X127003937Y-87140226D01*
X126859774Y-86996063D01*
X126749100Y-86922113D01*
X126797363Y-86902122D01*
X126938218Y-86808005D01*
X127058005Y-86688218D01*
X127152122Y-86547363D01*
X127216951Y-86390853D01*
X127250000Y-86224703D01*
X127250000Y-86055297D01*
X127216951Y-85889147D01*
X127152122Y-85732637D01*
X127058005Y-85591782D01*
X127001520Y-85535297D01*
X128740000Y-85535297D01*
X128740000Y-85704703D01*
X128773049Y-85870853D01*
X128837878Y-86027363D01*
X128931995Y-86168218D01*
X129051782Y-86288005D01*
X129192637Y-86382122D01*
X129349147Y-86446951D01*
X129515297Y-86480000D01*
X129684703Y-86480000D01*
X129850853Y-86446951D01*
X129918774Y-86418817D01*
X129967878Y-86537363D01*
X130061995Y-86678218D01*
X130181782Y-86798005D01*
X130322637Y-86892122D01*
X130479147Y-86956951D01*
X130645297Y-86990000D01*
X130814703Y-86990000D01*
X130980853Y-86956951D01*
X131137363Y-86892122D01*
X131241456Y-86822569D01*
X131253049Y-86880853D01*
X131317878Y-87037363D01*
X131411995Y-87178218D01*
X131531782Y-87298005D01*
X131672637Y-87392122D01*
X131829147Y-87456951D01*
X131894749Y-87470000D01*
X131745297Y-87470000D01*
X131579147Y-87503049D01*
X131422637Y-87567878D01*
X131281782Y-87661995D01*
X131161995Y-87781782D01*
X131067878Y-87922637D01*
X131003049Y-88079147D01*
X130970000Y-88245297D01*
X130970000Y-88414703D01*
X131003049Y-88580853D01*
X131067878Y-88737363D01*
X131161995Y-88878218D01*
X131281782Y-88998005D01*
X131422637Y-89092122D01*
X131579147Y-89156951D01*
X131745297Y-89190000D01*
X131914703Y-89190000D01*
X132080853Y-89156951D01*
X132237363Y-89092122D01*
X132378218Y-88998005D01*
X132498005Y-88878218D01*
X132592122Y-88737363D01*
X132656951Y-88580853D01*
X132690000Y-88414703D01*
X132690000Y-88245297D01*
X132656951Y-88079147D01*
X132592122Y-87922637D01*
X132498005Y-87781782D01*
X132378218Y-87661995D01*
X132237363Y-87567878D01*
X132080853Y-87503049D01*
X132015251Y-87490000D01*
X132164703Y-87490000D01*
X132330853Y-87456951D01*
X132487363Y-87392122D01*
X132628218Y-87298005D01*
X132748005Y-87178218D01*
X132842122Y-87037363D01*
X132906951Y-86880853D01*
X132940000Y-86714703D01*
X132940000Y-86545297D01*
X132906951Y-86379147D01*
X132842122Y-86222637D01*
X132748005Y-86081782D01*
X132628218Y-85961995D01*
X132487363Y-85867878D01*
X132330853Y-85803049D01*
X132164703Y-85770000D01*
X131995297Y-85770000D01*
X131829147Y-85803049D01*
X131672637Y-85867878D01*
X131568544Y-85937431D01*
X131556951Y-85879147D01*
X131492122Y-85722637D01*
X131398005Y-85581782D01*
X131371520Y-85555297D01*
X132760000Y-85555297D01*
X132760000Y-85724703D01*
X132793049Y-85890853D01*
X132857878Y-86047363D01*
X132951995Y-86188218D01*
X133071782Y-86308005D01*
X133212637Y-86402122D01*
X133369147Y-86466951D01*
X133535297Y-86500000D01*
X133704703Y-86500000D01*
X133870853Y-86466951D01*
X134027363Y-86402122D01*
X134168218Y-86308005D01*
X134288005Y-86188218D01*
X134382122Y-86047363D01*
X134446951Y-85890853D01*
X134480000Y-85724703D01*
X134480000Y-85555297D01*
X134446951Y-85389147D01*
X134382122Y-85232637D01*
X134288005Y-85091782D01*
X134168218Y-84971995D01*
X134027363Y-84877878D01*
X133870853Y-84813049D01*
X133704703Y-84780000D01*
X133535297Y-84780000D01*
X133369147Y-84813049D01*
X133212637Y-84877878D01*
X133071782Y-84971995D01*
X132951995Y-85091782D01*
X132857878Y-85232637D01*
X132793049Y-85389147D01*
X132760000Y-85555297D01*
X131371520Y-85555297D01*
X131278218Y-85461995D01*
X131226803Y-85427641D01*
X131320427Y-85466421D01*
X131486577Y-85499470D01*
X131655983Y-85499470D01*
X131822133Y-85466421D01*
X131978643Y-85401592D01*
X132119498Y-85307475D01*
X132239285Y-85187688D01*
X132333402Y-85046833D01*
X132398231Y-84890323D01*
X132431280Y-84724173D01*
X132431280Y-84554767D01*
X132398231Y-84388617D01*
X132333402Y-84232107D01*
X132239285Y-84091252D01*
X132119498Y-83971465D01*
X131978643Y-83877348D01*
X131822133Y-83812519D01*
X131655983Y-83779470D01*
X131486577Y-83779470D01*
X131320427Y-83812519D01*
X131163917Y-83877348D01*
X131023062Y-83971465D01*
X130903275Y-84091252D01*
X130809158Y-84232107D01*
X130744329Y-84388617D01*
X130711280Y-84554767D01*
X130711280Y-84724173D01*
X130744329Y-84890323D01*
X130809158Y-85046833D01*
X130903275Y-85187688D01*
X131023062Y-85307475D01*
X131074477Y-85341829D01*
X130980853Y-85303049D01*
X130814703Y-85270000D01*
X130645297Y-85270000D01*
X130479147Y-85303049D01*
X130411226Y-85331183D01*
X130362122Y-85212637D01*
X130268005Y-85071782D01*
X130148218Y-84951995D01*
X130007363Y-84857878D01*
X129850853Y-84793049D01*
X129684703Y-84760000D01*
X129515297Y-84760000D01*
X129349147Y-84793049D01*
X129192637Y-84857878D01*
X129051782Y-84951995D01*
X128931995Y-85071782D01*
X128837878Y-85212637D01*
X128773049Y-85369147D01*
X128740000Y-85535297D01*
X127001520Y-85535297D01*
X126938218Y-85471995D01*
X126797363Y-85377878D01*
X126640853Y-85313049D01*
X126634823Y-85311850D01*
X126588005Y-85241782D01*
X126508950Y-85162727D01*
X126519147Y-85166951D01*
X126685297Y-85200000D01*
X126854703Y-85200000D01*
X127020853Y-85166951D01*
X127140000Y-85117598D01*
X127259147Y-85166951D01*
X127425297Y-85200000D01*
X127594703Y-85200000D01*
X127760853Y-85166951D01*
X127917363Y-85102122D01*
X128058218Y-85008005D01*
X128178005Y-84888218D01*
X128256287Y-84771061D01*
X128362637Y-84842122D01*
X128519147Y-84906951D01*
X128685297Y-84940000D01*
X128854703Y-84940000D01*
X129020853Y-84906951D01*
X129177363Y-84842122D01*
X129318218Y-84748005D01*
X129438005Y-84628218D01*
X129532122Y-84487363D01*
X129596951Y-84330853D01*
X129630000Y-84164703D01*
X129630000Y-83995297D01*
X129596951Y-83829147D01*
X129532122Y-83672637D01*
X129438005Y-83531782D01*
X129318218Y-83411995D01*
X129177363Y-83317878D01*
X129020853Y-83253049D01*
X128854703Y-83220000D01*
X128685297Y-83220000D01*
X128519147Y-83253049D01*
X128362637Y-83317878D01*
X128221782Y-83411995D01*
X128101995Y-83531782D01*
X128023713Y-83648939D01*
X127917363Y-83577878D01*
X127760853Y-83513049D01*
X127594703Y-83480000D01*
X127425297Y-83480000D01*
X127259147Y-83513049D01*
X127140000Y-83562402D01*
X127020853Y-83513049D01*
X126854703Y-83480000D01*
X126685297Y-83480000D01*
X126519147Y-83513049D01*
X126362637Y-83577878D01*
X126221782Y-83671995D01*
X126101995Y-83791782D01*
X126007878Y-83932637D01*
X125943049Y-84089147D01*
X125910000Y-84255297D01*
X125910000Y-84424703D01*
X125943049Y-84590853D01*
X126007878Y-84747363D01*
X126101995Y-84888218D01*
X126181050Y-84967273D01*
X126170853Y-84963049D01*
X126004703Y-84930000D01*
X125835297Y-84930000D01*
X125669147Y-84963049D01*
X125512637Y-85027878D01*
X125371782Y-85121995D01*
X125251995Y-85241782D01*
X125157878Y-85382637D01*
X125093049Y-85539147D01*
X125060000Y-85705297D01*
X118733655Y-85705297D01*
X118817205Y-85580256D01*
X118895226Y-85391898D01*
X118935000Y-85191939D01*
X118935000Y-84988061D01*
X118895226Y-84788102D01*
X118817205Y-84599744D01*
X118703937Y-84430226D01*
X118559774Y-84286063D01*
X118528696Y-84265297D01*
X121900000Y-84265297D01*
X121900000Y-84434703D01*
X121933049Y-84600853D01*
X121997878Y-84757363D01*
X122091995Y-84898218D01*
X122211782Y-85018005D01*
X122352637Y-85112122D01*
X122425841Y-85142444D01*
X122427878Y-85147363D01*
X122521995Y-85288218D01*
X122641782Y-85408005D01*
X122782637Y-85502122D01*
X122939147Y-85566951D01*
X123105297Y-85600000D01*
X123274703Y-85600000D01*
X123440853Y-85566951D01*
X123597363Y-85502122D01*
X123738218Y-85408005D01*
X123858005Y-85288218D01*
X123952122Y-85147363D01*
X124016951Y-84990853D01*
X124050000Y-84824703D01*
X124050000Y-84655297D01*
X124016951Y-84489147D01*
X123952122Y-84332637D01*
X123858005Y-84191782D01*
X123738218Y-84071995D01*
X123697817Y-84045000D01*
X123742089Y-84045000D01*
X123922729Y-84009068D01*
X124092889Y-83938586D01*
X124246028Y-83836262D01*
X124376262Y-83706028D01*
X124478586Y-83552889D01*
X124549068Y-83382729D01*
X124585000Y-83202089D01*
X124585000Y-83017911D01*
X124549068Y-82837271D01*
X124478586Y-82667111D01*
X124376262Y-82513972D01*
X124246028Y-82383738D01*
X124092889Y-82281414D01*
X123922729Y-82210932D01*
X123742089Y-82175000D01*
X123557911Y-82175000D01*
X123377271Y-82210932D01*
X123207111Y-82281414D01*
X123053972Y-82383738D01*
X122923738Y-82513972D01*
X122821414Y-82667111D01*
X122750932Y-82837271D01*
X122715000Y-83017911D01*
X122715000Y-83202089D01*
X122750932Y-83382729D01*
X122795365Y-83490000D01*
X122675297Y-83490000D01*
X122509147Y-83523049D01*
X122352637Y-83587878D01*
X122211782Y-83681995D01*
X122091995Y-83801782D01*
X121997878Y-83942637D01*
X121933049Y-84099147D01*
X121900000Y-84265297D01*
X118528696Y-84265297D01*
X118390256Y-84172795D01*
X118201898Y-84094774D01*
X118001939Y-84055000D01*
X117798061Y-84055000D01*
X117598102Y-84094774D01*
X117409744Y-84172795D01*
X117240226Y-84286063D01*
X117096063Y-84430226D01*
X116982795Y-84599744D01*
X116904774Y-84788102D01*
X116865000Y-84988061D01*
X116865000Y-85191939D01*
X116904774Y-85391898D01*
X116982795Y-85580256D01*
X117096063Y-85749774D01*
X117101289Y-85755000D01*
X117096063Y-85760226D01*
X116982795Y-85929744D01*
X116904774Y-86118102D01*
X116884481Y-86220122D01*
X116829744Y-86242795D01*
X116773851Y-86280142D01*
X116591898Y-86204774D01*
X116391939Y-86165000D01*
X116188061Y-86165000D01*
X115988102Y-86204774D01*
X115799744Y-86282795D01*
X115630226Y-86396063D01*
X115486063Y-86540226D01*
X115372795Y-86709744D01*
X115294774Y-86898102D01*
X115255000Y-87098061D01*
X113308670Y-87098061D01*
X113296951Y-87039147D01*
X113232122Y-86882637D01*
X113138005Y-86741782D01*
X113018218Y-86621995D01*
X112877363Y-86527878D01*
X112720853Y-86463049D01*
X112554703Y-86430000D01*
X112385297Y-86430000D01*
X112219147Y-86463049D01*
X112062637Y-86527878D01*
X111921782Y-86621995D01*
X111801995Y-86741782D01*
X111707878Y-86882637D01*
X111643049Y-87039147D01*
X111610000Y-87205297D01*
X109606578Y-87205297D01*
X109589068Y-87117271D01*
X109518586Y-86947111D01*
X109416262Y-86793972D01*
X109286028Y-86663738D01*
X109132889Y-86561414D01*
X108962729Y-86490932D01*
X108782089Y-86455000D01*
X108597911Y-86455000D01*
X108417271Y-86490932D01*
X108247111Y-86561414D01*
X108160621Y-86619205D01*
X108110537Y-86525506D01*
X108031185Y-86428815D01*
X107934494Y-86349463D01*
X107824180Y-86290498D01*
X107704482Y-86254188D01*
X107580000Y-86241928D01*
X106740000Y-86241928D01*
X106615518Y-86254188D01*
X106495820Y-86290498D01*
X106385506Y-86349463D01*
X106288815Y-86428815D01*
X106209463Y-86525506D01*
X106150498Y-86635820D01*
X106114188Y-86755518D01*
X106101928Y-86880000D01*
X106101928Y-86895000D01*
X106056092Y-86895000D01*
X105852268Y-86935543D01*
X105660270Y-87015071D01*
X105660000Y-87015251D01*
X105660000Y-85745453D01*
X105686841Y-85778159D01*
X105848247Y-85910622D01*
X106032393Y-86009050D01*
X106232204Y-86069662D01*
X106387934Y-86085000D01*
X107492066Y-86085000D01*
X107647796Y-86069662D01*
X107847607Y-86009050D01*
X108031753Y-85910622D01*
X108193159Y-85778159D01*
X108325622Y-85616753D01*
X108424050Y-85432607D01*
X108484662Y-85232796D01*
X108505128Y-85025000D01*
X108484662Y-84817204D01*
X108424050Y-84617393D01*
X108325622Y-84433247D01*
X108193159Y-84271841D01*
X108031753Y-84139378D01*
X107847607Y-84040950D01*
X107647796Y-83980338D01*
X107492066Y-83965000D01*
X106387934Y-83965000D01*
X106232204Y-83980338D01*
X106032393Y-84040950D01*
X105848247Y-84139378D01*
X105686841Y-84271841D01*
X105660000Y-84304547D01*
X105660000Y-82782910D01*
X112295000Y-82782910D01*
X112295000Y-82967088D01*
X112330932Y-83147728D01*
X112401414Y-83317888D01*
X112503738Y-83471027D01*
X112633972Y-83601261D01*
X112787111Y-83703585D01*
X112957271Y-83774067D01*
X113137911Y-83809999D01*
X113322089Y-83809999D01*
X113502729Y-83774067D01*
X113672889Y-83703585D01*
X113826028Y-83601261D01*
X113912246Y-83515043D01*
X114012637Y-83582122D01*
X114169147Y-83646951D01*
X114335297Y-83680000D01*
X114504703Y-83680000D01*
X114670853Y-83646951D01*
X114827363Y-83582122D01*
X114968218Y-83488005D01*
X115088005Y-83368218D01*
X115182122Y-83227363D01*
X115246951Y-83070853D01*
X115280000Y-82904703D01*
X115280000Y-82735297D01*
X115246951Y-82569147D01*
X115182122Y-82412637D01*
X115179065Y-82408061D01*
X116255000Y-82408061D01*
X116255000Y-82611939D01*
X116294774Y-82811898D01*
X116372795Y-83000256D01*
X116486063Y-83169774D01*
X116630226Y-83313937D01*
X116799744Y-83427205D01*
X116988102Y-83505226D01*
X117188061Y-83545000D01*
X117391939Y-83545000D01*
X117591898Y-83505226D01*
X117780256Y-83427205D01*
X117949774Y-83313937D01*
X118093937Y-83169774D01*
X118207205Y-83000256D01*
X118285226Y-82811898D01*
X118325000Y-82611939D01*
X118325000Y-82408061D01*
X118285226Y-82208102D01*
X118207205Y-82019744D01*
X118093937Y-81850226D01*
X117949774Y-81706063D01*
X117780256Y-81592795D01*
X117591898Y-81514774D01*
X117391939Y-81475000D01*
X117188061Y-81475000D01*
X116988102Y-81514774D01*
X116799744Y-81592795D01*
X116630226Y-81706063D01*
X116486063Y-81850226D01*
X116372795Y-82019744D01*
X116294774Y-82208102D01*
X116255000Y-82408061D01*
X115179065Y-82408061D01*
X115088005Y-82271782D01*
X114968218Y-82151995D01*
X114827363Y-82057878D01*
X114670853Y-81993049D01*
X114504703Y-81960000D01*
X114335297Y-81960000D01*
X114169147Y-81993049D01*
X114012637Y-82057878D01*
X113871782Y-82151995D01*
X113850534Y-82173243D01*
X113826028Y-82148737D01*
X113672889Y-82046413D01*
X113502729Y-81975931D01*
X113322089Y-81939999D01*
X113137911Y-81939999D01*
X112957271Y-81975931D01*
X112787111Y-82046413D01*
X112633972Y-82148737D01*
X112503738Y-82278971D01*
X112401414Y-82432110D01*
X112330932Y-82602270D01*
X112295000Y-82782910D01*
X105660000Y-82782910D01*
X105660000Y-82383880D01*
X105808102Y-82445226D01*
X106008061Y-82485000D01*
X106211939Y-82485000D01*
X106411898Y-82445226D01*
X106600256Y-82367205D01*
X106769774Y-82253937D01*
X106913937Y-82109774D01*
X107027205Y-81940256D01*
X107105226Y-81751898D01*
X107145000Y-81551939D01*
X107145000Y-81348061D01*
X107105226Y-81148102D01*
X107027205Y-80959744D01*
X106913937Y-80790226D01*
X106769774Y-80646063D01*
X106600256Y-80532795D01*
X106411898Y-80454774D01*
X106211939Y-80415000D01*
X106008061Y-80415000D01*
X105808102Y-80454774D01*
X105660000Y-80516120D01*
X105660000Y-75979444D01*
X105698102Y-75995226D01*
X105898061Y-76035000D01*
X106101939Y-76035000D01*
X106301898Y-75995226D01*
X106490256Y-75917205D01*
X106659774Y-75803937D01*
X106803937Y-75659774D01*
X106917205Y-75490256D01*
X106995226Y-75301898D01*
X107035000Y-75101939D01*
X107035000Y-74898061D01*
X106995226Y-74698102D01*
X106979444Y-74660000D01*
X140020556Y-74660000D01*
X140004774Y-74698102D01*
%TA.AperFunction,Conductor*%
D19*
G36*
X140004774Y-74698102D02*
G01*
X139995508Y-74744687D01*
X139846260Y-74715000D01*
X139553740Y-74715000D01*
X139266842Y-74772068D01*
X138996589Y-74884010D01*
X138753368Y-75046525D01*
X138546525Y-75253368D01*
X138430000Y-75427760D01*
X138313475Y-75253368D01*
X138106632Y-75046525D01*
X137863411Y-74884010D01*
X137593158Y-74772068D01*
X137306260Y-74715000D01*
X137013740Y-74715000D01*
X136726842Y-74772068D01*
X136456589Y-74884010D01*
X136213368Y-75046525D01*
X136006525Y-75253368D01*
X135890000Y-75427760D01*
X135773475Y-75253368D01*
X135566632Y-75046525D01*
X135323411Y-74884010D01*
X135053158Y-74772068D01*
X134766260Y-74715000D01*
X134473740Y-74715000D01*
X134186842Y-74772068D01*
X133916589Y-74884010D01*
X133673368Y-75046525D01*
X133466525Y-75253368D01*
X133350000Y-75427760D01*
X133233475Y-75253368D01*
X133026632Y-75046525D01*
X132783411Y-74884010D01*
X132513158Y-74772068D01*
X132226260Y-74715000D01*
X131933740Y-74715000D01*
X131646842Y-74772068D01*
X131376589Y-74884010D01*
X131133368Y-75046525D01*
X130926525Y-75253368D01*
X130810000Y-75427760D01*
X130693475Y-75253368D01*
X130486632Y-75046525D01*
X130243411Y-74884010D01*
X129973158Y-74772068D01*
X129686260Y-74715000D01*
X129393740Y-74715000D01*
X129106842Y-74772068D01*
X128836589Y-74884010D01*
X128593368Y-75046525D01*
X128386525Y-75253368D01*
X128270000Y-75427760D01*
X128153475Y-75253368D01*
X127946632Y-75046525D01*
X127703411Y-74884010D01*
X127433158Y-74772068D01*
X127146260Y-74715000D01*
X126853740Y-74715000D01*
X126566842Y-74772068D01*
X126296589Y-74884010D01*
X126053368Y-75046525D01*
X125846525Y-75253368D01*
X125730000Y-75427760D01*
X125613475Y-75253368D01*
X125406632Y-75046525D01*
X125163411Y-74884010D01*
X124893158Y-74772068D01*
X124606260Y-74715000D01*
X124313740Y-74715000D01*
X124026842Y-74772068D01*
X123756589Y-74884010D01*
X123513368Y-75046525D01*
X123306525Y-75253368D01*
X123190000Y-75427760D01*
X123073475Y-75253368D01*
X122866632Y-75046525D01*
X122623411Y-74884010D01*
X122353158Y-74772068D01*
X122066260Y-74715000D01*
X121773740Y-74715000D01*
X121486842Y-74772068D01*
X121216589Y-74884010D01*
X120973368Y-75046525D01*
X120766525Y-75253368D01*
X120650000Y-75427760D01*
X120533475Y-75253368D01*
X120326632Y-75046525D01*
X120083411Y-74884010D01*
X119813158Y-74772068D01*
X119526260Y-74715000D01*
X119233740Y-74715000D01*
X118946842Y-74772068D01*
X118676589Y-74884010D01*
X118433368Y-75046525D01*
X118226525Y-75253368D01*
X118110000Y-75427760D01*
X117993475Y-75253368D01*
X117786632Y-75046525D01*
X117543411Y-74884010D01*
X117273158Y-74772068D01*
X116986260Y-74715000D01*
X116693740Y-74715000D01*
X116406842Y-74772068D01*
X116136589Y-74884010D01*
X115893368Y-75046525D01*
X115686525Y-75253368D01*
X115570000Y-75427760D01*
X115453475Y-75253368D01*
X115246632Y-75046525D01*
X115003411Y-74884010D01*
X114733158Y-74772068D01*
X114446260Y-74715000D01*
X114153740Y-74715000D01*
X113866842Y-74772068D01*
X113596589Y-74884010D01*
X113353368Y-75046525D01*
X113146525Y-75253368D01*
X113030000Y-75427760D01*
X112913475Y-75253368D01*
X112706632Y-75046525D01*
X112463411Y-74884010D01*
X112193158Y-74772068D01*
X111906260Y-74715000D01*
X111613740Y-74715000D01*
X111326842Y-74772068D01*
X111056589Y-74884010D01*
X110813368Y-75046525D01*
X110606525Y-75253368D01*
X110490000Y-75427760D01*
X110373475Y-75253368D01*
X110166632Y-75046525D01*
X109923411Y-74884010D01*
X109653158Y-74772068D01*
X109366260Y-74715000D01*
X109073740Y-74715000D01*
X108786842Y-74772068D01*
X108516589Y-74884010D01*
X108273368Y-75046525D01*
X108066525Y-75253368D01*
X107904010Y-75496589D01*
X107792068Y-75766842D01*
X107735000Y-76053740D01*
X107735000Y-76346260D01*
X107792068Y-76633158D01*
X107904010Y-76903411D01*
X108066525Y-77146632D01*
X108198380Y-77278487D01*
X108125820Y-77300498D01*
X108015506Y-77359463D01*
X107918815Y-77438815D01*
X107839463Y-77535506D01*
X107780498Y-77645820D01*
X107744188Y-77765518D01*
X107731928Y-77890000D01*
X107731928Y-79590000D01*
X107744188Y-79714482D01*
X107780498Y-79834180D01*
X107839463Y-79944494D01*
X107918815Y-80041185D01*
X108015506Y-80120537D01*
X108125820Y-80179502D01*
X108245518Y-80215812D01*
X108370000Y-80228072D01*
X110070000Y-80228072D01*
X110194482Y-80215812D01*
X110314180Y-80179502D01*
X110424494Y-80120537D01*
X110521185Y-80041185D01*
X110600537Y-79944494D01*
X110659502Y-79834180D01*
X110683966Y-79753534D01*
X110759731Y-79837588D01*
X110993080Y-80011641D01*
X111255901Y-80136825D01*
X111403110Y-80181476D01*
X111633000Y-80060155D01*
X111633000Y-78867000D01*
X111613000Y-78867000D01*
X111613000Y-78613000D01*
X111633000Y-78613000D01*
X111633000Y-78593000D01*
X111887000Y-78593000D01*
X111887000Y-78613000D01*
X111907000Y-78613000D01*
X111907000Y-78867000D01*
X111887000Y-78867000D01*
X111887000Y-80060155D01*
X112116890Y-80181476D01*
X112264099Y-80136825D01*
X112526920Y-80011641D01*
X112760269Y-79837588D01*
X112955178Y-79621355D01*
X113024805Y-79504466D01*
X113146525Y-79686632D01*
X113247335Y-79787442D01*
X113219147Y-79793049D01*
X113062637Y-79857878D01*
X112921782Y-79951995D01*
X112801995Y-80071782D01*
X112707878Y-80212637D01*
X112643049Y-80369147D01*
X112610000Y-80535297D01*
X112610000Y-80704703D01*
X112643049Y-80870853D01*
X112707878Y-81027363D01*
X112801995Y-81168218D01*
X112921782Y-81288005D01*
X113062637Y-81382122D01*
X113219147Y-81446951D01*
X113385297Y-81480000D01*
X113554703Y-81480000D01*
X113720853Y-81446951D01*
X113863387Y-81387911D01*
X118575000Y-81387911D01*
X118575000Y-81572089D01*
X118610932Y-81752729D01*
X118681414Y-81922889D01*
X118783738Y-82076028D01*
X118913972Y-82206262D01*
X119067111Y-82308586D01*
X119237271Y-82379068D01*
X119417911Y-82415000D01*
X119602089Y-82415000D01*
X119782729Y-82379068D01*
X119952889Y-82308586D01*
X120106028Y-82206262D01*
X120236262Y-82076028D01*
X120245188Y-82062668D01*
X125382629Y-82062668D01*
X125382629Y-82232074D01*
X125415678Y-82398224D01*
X125480507Y-82554734D01*
X125574624Y-82695589D01*
X125694411Y-82815376D01*
X125835266Y-82909493D01*
X125991776Y-82974322D01*
X126157926Y-83007371D01*
X126327332Y-83007371D01*
X126493482Y-82974322D01*
X126649992Y-82909493D01*
X126790847Y-82815376D01*
X126910634Y-82695589D01*
X126938629Y-82653692D01*
X127003057Y-82696742D01*
X127159567Y-82761571D01*
X127325717Y-82794620D01*
X127495123Y-82794620D01*
X127661273Y-82761571D01*
X127756400Y-82722168D01*
X127821857Y-82749281D01*
X127988007Y-82782330D01*
X128157413Y-82782330D01*
X128323563Y-82749281D01*
X128480073Y-82684452D01*
X128620928Y-82590335D01*
X128740715Y-82470548D01*
X128834832Y-82329693D01*
X128899661Y-82173183D01*
X128929077Y-82025297D01*
X132400000Y-82025297D01*
X132400000Y-82194703D01*
X132433049Y-82360853D01*
X132497878Y-82517363D01*
X132591995Y-82658218D01*
X132711782Y-82778005D01*
X132852637Y-82872122D01*
X133009147Y-82936951D01*
X133175297Y-82970000D01*
X133344703Y-82970000D01*
X133510853Y-82936951D01*
X133667363Y-82872122D01*
X133808218Y-82778005D01*
X133928005Y-82658218D01*
X134022122Y-82517363D01*
X134086951Y-82360853D01*
X134120000Y-82194703D01*
X134120000Y-82025297D01*
X134102618Y-81937911D01*
X134445000Y-81937911D01*
X134445000Y-82122089D01*
X134480932Y-82302729D01*
X134551414Y-82472889D01*
X134653738Y-82626028D01*
X134783972Y-82756262D01*
X134937111Y-82858586D01*
X135107271Y-82929068D01*
X135287911Y-82965000D01*
X135472089Y-82965000D01*
X135652729Y-82929068D01*
X135822889Y-82858586D01*
X135976028Y-82756262D01*
X136106262Y-82626028D01*
X136208586Y-82472889D01*
X136279068Y-82302729D01*
X136315000Y-82122089D01*
X136315000Y-81937911D01*
X136279068Y-81757271D01*
X136208586Y-81587111D01*
X136106262Y-81433972D01*
X135976028Y-81303738D01*
X135822889Y-81201414D01*
X135652729Y-81130932D01*
X135472089Y-81095000D01*
X135287911Y-81095000D01*
X135107271Y-81130932D01*
X134937111Y-81201414D01*
X134783972Y-81303738D01*
X134653738Y-81433972D01*
X134551414Y-81587111D01*
X134480932Y-81757271D01*
X134445000Y-81937911D01*
X134102618Y-81937911D01*
X134086951Y-81859147D01*
X134022122Y-81702637D01*
X133928005Y-81561782D01*
X133808218Y-81441995D01*
X133667363Y-81347878D01*
X133510853Y-81283049D01*
X133344703Y-81250000D01*
X133175297Y-81250000D01*
X133009147Y-81283049D01*
X132852637Y-81347878D01*
X132711782Y-81441995D01*
X132591995Y-81561782D01*
X132497878Y-81702637D01*
X132433049Y-81859147D01*
X132400000Y-82025297D01*
X128929077Y-82025297D01*
X128932710Y-82007033D01*
X128932710Y-81837627D01*
X128899661Y-81671477D01*
X128834832Y-81514967D01*
X128740715Y-81374112D01*
X128620928Y-81254325D01*
X128480073Y-81160208D01*
X128323563Y-81095379D01*
X128157413Y-81062330D01*
X127988007Y-81062330D01*
X127821857Y-81095379D01*
X127726730Y-81134782D01*
X127661273Y-81107669D01*
X127495123Y-81074620D01*
X127325717Y-81074620D01*
X127159567Y-81107669D01*
X127003057Y-81172498D01*
X126862202Y-81266615D01*
X126742415Y-81386402D01*
X126714420Y-81428299D01*
X126649992Y-81385249D01*
X126493482Y-81320420D01*
X126327332Y-81287371D01*
X126157926Y-81287371D01*
X125991776Y-81320420D01*
X125835266Y-81385249D01*
X125694411Y-81479366D01*
X125574624Y-81599153D01*
X125480507Y-81740008D01*
X125415678Y-81896518D01*
X125382629Y-82062668D01*
X120245188Y-82062668D01*
X120338586Y-81922889D01*
X120409068Y-81752729D01*
X120445000Y-81572089D01*
X120445000Y-81387911D01*
X120409068Y-81207271D01*
X120338586Y-81037111D01*
X120236262Y-80883972D01*
X120106028Y-80753738D01*
X119952889Y-80651414D01*
X119782729Y-80580932D01*
X119602089Y-80545000D01*
X119417911Y-80545000D01*
X119237271Y-80580932D01*
X119067111Y-80651414D01*
X118913972Y-80753738D01*
X118783738Y-80883972D01*
X118681414Y-81037111D01*
X118610932Y-81207271D01*
X118575000Y-81387911D01*
X113863387Y-81387911D01*
X113877363Y-81382122D01*
X114018218Y-81288005D01*
X114138005Y-81168218D01*
X114232122Y-81027363D01*
X114296951Y-80870853D01*
X114330000Y-80704703D01*
X114330000Y-80535297D01*
X114296951Y-80369147D01*
X114237243Y-80225000D01*
X114446260Y-80225000D01*
X114480114Y-80218266D01*
X114471297Y-80262592D01*
X114471297Y-80431998D01*
X114504346Y-80598148D01*
X114569175Y-80754658D01*
X114663292Y-80895513D01*
X114783079Y-81015300D01*
X114923934Y-81109417D01*
X115080444Y-81174246D01*
X115246594Y-81207295D01*
X115416000Y-81207295D01*
X115582150Y-81174246D01*
X115738660Y-81109417D01*
X115879515Y-81015300D01*
X115999302Y-80895513D01*
X116093419Y-80754658D01*
X116158248Y-80598148D01*
X116191297Y-80431998D01*
X116191297Y-80262592D01*
X116158248Y-80096442D01*
X116142508Y-80058442D01*
X116406842Y-80167932D01*
X116693740Y-80225000D01*
X116986260Y-80225000D01*
X117273158Y-80167932D01*
X117543411Y-80055990D01*
X117786632Y-79893475D01*
X117993475Y-79686632D01*
X118110000Y-79512240D01*
X118226525Y-79686632D01*
X118433368Y-79893475D01*
X118676589Y-80055990D01*
X118946842Y-80167932D01*
X119233740Y-80225000D01*
X119526260Y-80225000D01*
X119813158Y-80167932D01*
X120083411Y-80055990D01*
X120326632Y-79893475D01*
X120533475Y-79686632D01*
X120650000Y-79512240D01*
X120766525Y-79686632D01*
X120973368Y-79893475D01*
X121216589Y-80055990D01*
X121486842Y-80167932D01*
X121773740Y-80225000D01*
X122066260Y-80225000D01*
X122353158Y-80167932D01*
X122623411Y-80055990D01*
X122866632Y-79893475D01*
X123073475Y-79686632D01*
X123190000Y-79512240D01*
X123306525Y-79686632D01*
X123513368Y-79893475D01*
X123756589Y-80055990D01*
X124026842Y-80167932D01*
X124313740Y-80225000D01*
X124606260Y-80225000D01*
X124893158Y-80167932D01*
X125163411Y-80055990D01*
X125406632Y-79893475D01*
X125613475Y-79686632D01*
X125730000Y-79512240D01*
X125846525Y-79686632D01*
X126053368Y-79893475D01*
X126296589Y-80055990D01*
X126566842Y-80167932D01*
X126853740Y-80225000D01*
X127146260Y-80225000D01*
X127433158Y-80167932D01*
X127703411Y-80055990D01*
X127946632Y-79893475D01*
X128153475Y-79686632D01*
X128270000Y-79512240D01*
X128386525Y-79686632D01*
X128593368Y-79893475D01*
X128836589Y-80055990D01*
X129106842Y-80167932D01*
X129393740Y-80225000D01*
X129686260Y-80225000D01*
X129973158Y-80167932D01*
X130243411Y-80055990D01*
X130486632Y-79893475D01*
X130693475Y-79686632D01*
X130810000Y-79512240D01*
X130926525Y-79686632D01*
X131133368Y-79893475D01*
X131376589Y-80055990D01*
X131646842Y-80167932D01*
X131933740Y-80225000D01*
X132226260Y-80225000D01*
X132513158Y-80167932D01*
X132783411Y-80055990D01*
X133026632Y-79893475D01*
X133233475Y-79686632D01*
X133350000Y-79512240D01*
X133466525Y-79686632D01*
X133673368Y-79893475D01*
X133916589Y-80055990D01*
X134186842Y-80167932D01*
X134473740Y-80225000D01*
X134766260Y-80225000D01*
X135053158Y-80167932D01*
X135323411Y-80055990D01*
X135566632Y-79893475D01*
X135773475Y-79686632D01*
X135890000Y-79512240D01*
X136006525Y-79686632D01*
X136213368Y-79893475D01*
X136456589Y-80055990D01*
X136726842Y-80167932D01*
X137013740Y-80225000D01*
X137306260Y-80225000D01*
X137593158Y-80167932D01*
X137863411Y-80055990D01*
X138106632Y-79893475D01*
X138313475Y-79686632D01*
X138430000Y-79512240D01*
X138546525Y-79686632D01*
X138753368Y-79893475D01*
X138996589Y-80055990D01*
X139266842Y-80167932D01*
X139553740Y-80225000D01*
X139846260Y-80225000D01*
X140133158Y-80167932D01*
X140403411Y-80055990D01*
X140646632Y-79893475D01*
X140853475Y-79686632D01*
X141015990Y-79443411D01*
X141127932Y-79173158D01*
X141185000Y-78886260D01*
X141185000Y-78593740D01*
X141127932Y-78306842D01*
X141015990Y-78036589D01*
X140853475Y-77793368D01*
X140646632Y-77586525D01*
X140472240Y-77470000D01*
X140646632Y-77353475D01*
X140853475Y-77146632D01*
X141015990Y-76903411D01*
X141127932Y-76633158D01*
X141185000Y-76346260D01*
X141185000Y-76053740D01*
X141178253Y-76019820D01*
X141301898Y-75995226D01*
X141340000Y-75979443D01*
X141340001Y-89020557D01*
X141301898Y-89004774D01*
X141101939Y-88965000D01*
X140898061Y-88965000D01*
X140698102Y-89004774D01*
X140509744Y-89082795D01*
X140340226Y-89196063D01*
X140196063Y-89340226D01*
X140082795Y-89509744D01*
X140004774Y-89698102D01*
X139965000Y-89898061D01*
X139965000Y-90101939D01*
X140004774Y-90301898D01*
X140082795Y-90490256D01*
X140196063Y-90659774D01*
X140340226Y-90803937D01*
X140509744Y-90917205D01*
X140698102Y-90995226D01*
X140722103Y-91000000D01*
X140698102Y-91004774D01*
X140509744Y-91082795D01*
X140340226Y-91196063D01*
X140196063Y-91340226D01*
X140082795Y-91509744D01*
X140004774Y-91698102D01*
X139965000Y-91898061D01*
X139965000Y-92101939D01*
X140004774Y-92301898D01*
X140082795Y-92490256D01*
X140196063Y-92659774D01*
X140340226Y-92803937D01*
X140509744Y-92917205D01*
X140698102Y-92995226D01*
X140898061Y-93035000D01*
X141101939Y-93035000D01*
X141301898Y-92995226D01*
X141340001Y-92979443D01*
X141340001Y-94020557D01*
X141301898Y-94004774D01*
X141101939Y-93965000D01*
X140898061Y-93965000D01*
X140698102Y-94004774D01*
X140509744Y-94082795D01*
X140340226Y-94196063D01*
X140196063Y-94340226D01*
X140082795Y-94509744D01*
X140004774Y-94698102D01*
X139965000Y-94898061D01*
X139965000Y-95101939D01*
X140004774Y-95301898D01*
X140082795Y-95490256D01*
X140196063Y-95659774D01*
X140340226Y-95803937D01*
X140509744Y-95917205D01*
X140698102Y-95995226D01*
X140898061Y-96035000D01*
X141101939Y-96035000D01*
X141301898Y-95995226D01*
X141340001Y-95979443D01*
X141340001Y-102020557D01*
X141301898Y-102004774D01*
X141139984Y-101972568D01*
X141185000Y-101746260D01*
X141185000Y-101453740D01*
X141127932Y-101166842D01*
X141015990Y-100896589D01*
X140853475Y-100653368D01*
X140646632Y-100446525D01*
X140472240Y-100330000D01*
X140646632Y-100213475D01*
X140853475Y-100006632D01*
X141015990Y-99763411D01*
X141127932Y-99493158D01*
X141185000Y-99206260D01*
X141185000Y-98913740D01*
X141127932Y-98626842D01*
X141015990Y-98356589D01*
X140853475Y-98113368D01*
X140646632Y-97906525D01*
X140403411Y-97744010D01*
X140133158Y-97632068D01*
X139846260Y-97575000D01*
X139553740Y-97575000D01*
X139266842Y-97632068D01*
X138996589Y-97744010D01*
X138753368Y-97906525D01*
X138546525Y-98113368D01*
X138430000Y-98287760D01*
X138313475Y-98113368D01*
X138226345Y-98026238D01*
X138317205Y-97890256D01*
X138395226Y-97701898D01*
X138435000Y-97501939D01*
X138435000Y-97298061D01*
X138395226Y-97098102D01*
X138317205Y-96909744D01*
X138203937Y-96740226D01*
X138059774Y-96596063D01*
X137890256Y-96482795D01*
X137701898Y-96404774D01*
X137501939Y-96365000D01*
X137298061Y-96365000D01*
X137098102Y-96404774D01*
X136909744Y-96482795D01*
X136740226Y-96596063D01*
X136596063Y-96740226D01*
X136482795Y-96909744D01*
X136404774Y-97098102D01*
X136365000Y-97298061D01*
X136365000Y-97501939D01*
X136404774Y-97701898D01*
X136429668Y-97761998D01*
X136213368Y-97906525D01*
X136006525Y-98113368D01*
X135890000Y-98287760D01*
X135773475Y-98113368D01*
X135566632Y-97906525D01*
X135323411Y-97744010D01*
X135053158Y-97632068D01*
X134766260Y-97575000D01*
X134473740Y-97575000D01*
X134186842Y-97632068D01*
X133916589Y-97744010D01*
X133673368Y-97906525D01*
X133466525Y-98113368D01*
X133350000Y-98287760D01*
X133233475Y-98113368D01*
X133026632Y-97906525D01*
X132783411Y-97744010D01*
X132513158Y-97632068D01*
X132226260Y-97575000D01*
X131933740Y-97575000D01*
X131646842Y-97632068D01*
X131376589Y-97744010D01*
X131133368Y-97906525D01*
X130926525Y-98113368D01*
X130810000Y-98287760D01*
X130693475Y-98113368D01*
X130486632Y-97906525D01*
X130243411Y-97744010D01*
X129973158Y-97632068D01*
X129686260Y-97575000D01*
X129393740Y-97575000D01*
X129106842Y-97632068D01*
X128836589Y-97744010D01*
X128593368Y-97906525D01*
X128386525Y-98113368D01*
X128270000Y-98287760D01*
X128153475Y-98113368D01*
X127946632Y-97906525D01*
X127703411Y-97744010D01*
X127433158Y-97632068D01*
X127146260Y-97575000D01*
X126853740Y-97575000D01*
X126566842Y-97632068D01*
X126296589Y-97744010D01*
X126053368Y-97906525D01*
X125846525Y-98113368D01*
X125730000Y-98287760D01*
X125613475Y-98113368D01*
X125406632Y-97906525D01*
X125163411Y-97744010D01*
X124893158Y-97632068D01*
X124606260Y-97575000D01*
X124313740Y-97575000D01*
X124026842Y-97632068D01*
X123756589Y-97744010D01*
X123513368Y-97906525D01*
X123306525Y-98113368D01*
X123190000Y-98287760D01*
X123073475Y-98113368D01*
X122866632Y-97906525D01*
X122623411Y-97744010D01*
X122353158Y-97632068D01*
X122066260Y-97575000D01*
X121773740Y-97575000D01*
X121486842Y-97632068D01*
X121216589Y-97744010D01*
X120973368Y-97906525D01*
X120766525Y-98113368D01*
X120650000Y-98287760D01*
X120580286Y-98183425D01*
X120703937Y-98059774D01*
X120817205Y-97890256D01*
X120895226Y-97701898D01*
X120935000Y-97501939D01*
X120935000Y-97298061D01*
X120895226Y-97098102D01*
X120817205Y-96909744D01*
X120703937Y-96740226D01*
X120559774Y-96596063D01*
X120390256Y-96482795D01*
X120201898Y-96404774D01*
X120001939Y-96365000D01*
X119798061Y-96365000D01*
X119598102Y-96404774D01*
X119409744Y-96482795D01*
X119240226Y-96596063D01*
X119096063Y-96740226D01*
X118982795Y-96909744D01*
X118904774Y-97098102D01*
X118865000Y-97298061D01*
X118865000Y-97501939D01*
X118895144Y-97653482D01*
X118676589Y-97744010D01*
X118433368Y-97906525D01*
X118226525Y-98113368D01*
X118110000Y-98287760D01*
X117993475Y-98113368D01*
X117786632Y-97906525D01*
X117543411Y-97744010D01*
X117273158Y-97632068D01*
X116986260Y-97575000D01*
X116693740Y-97575000D01*
X116406842Y-97632068D01*
X116136589Y-97744010D01*
X115893368Y-97906525D01*
X115686525Y-98113368D01*
X115570000Y-98287760D01*
X115453475Y-98113368D01*
X115246632Y-97906525D01*
X115003411Y-97744010D01*
X114733158Y-97632068D01*
X114446260Y-97575000D01*
X114153740Y-97575000D01*
X113866842Y-97632068D01*
X113596589Y-97744010D01*
X113353368Y-97906525D01*
X113146525Y-98113368D01*
X113030000Y-98287760D01*
X112913475Y-98113368D01*
X112706632Y-97906525D01*
X112463411Y-97744010D01*
X112193158Y-97632068D01*
X111906260Y-97575000D01*
X111613740Y-97575000D01*
X111326842Y-97632068D01*
X111056589Y-97744010D01*
X110813368Y-97906525D01*
X110606525Y-98113368D01*
X110490000Y-98287760D01*
X110373475Y-98113368D01*
X110166632Y-97906525D01*
X109923411Y-97744010D01*
X109653158Y-97632068D01*
X109366260Y-97575000D01*
X109073740Y-97575000D01*
X108786842Y-97632068D01*
X108516589Y-97744010D01*
X108273368Y-97906525D01*
X108066525Y-98113368D01*
X107904010Y-98356589D01*
X107792068Y-98626842D01*
X107735000Y-98913740D01*
X107735000Y-99206260D01*
X107792068Y-99493158D01*
X107904010Y-99763411D01*
X108066525Y-100006632D01*
X108198380Y-100138487D01*
X108125820Y-100160498D01*
X108015506Y-100219463D01*
X107918815Y-100298815D01*
X107839463Y-100395506D01*
X107780498Y-100505820D01*
X107744188Y-100625518D01*
X107731928Y-100750000D01*
X107735000Y-101314250D01*
X107893750Y-101473000D01*
X109093000Y-101473000D01*
X109093000Y-101453000D01*
X109347000Y-101453000D01*
X109347000Y-101473000D01*
X111633000Y-101473000D01*
X111633000Y-101453000D01*
X111887000Y-101453000D01*
X111887000Y-101473000D01*
X114173000Y-101473000D01*
X114173000Y-101453000D01*
X114427000Y-101453000D01*
X114427000Y-101473000D01*
X114447000Y-101473000D01*
X114447000Y-101727000D01*
X114427000Y-101727000D01*
X114427000Y-102920155D01*
X114656890Y-103041476D01*
X114804099Y-102996825D01*
X115066920Y-102871641D01*
X115300269Y-102697588D01*
X115495178Y-102481355D01*
X115564805Y-102364466D01*
X115686525Y-102546632D01*
X115893368Y-102753475D01*
X116136589Y-102915990D01*
X116406842Y-103027932D01*
X116693740Y-103085000D01*
X116986260Y-103085000D01*
X117273158Y-103027932D01*
X117543411Y-102915990D01*
X117786632Y-102753475D01*
X117993475Y-102546632D01*
X118110000Y-102372240D01*
X118226525Y-102546632D01*
X118433368Y-102753475D01*
X118676589Y-102915990D01*
X118946842Y-103027932D01*
X119233740Y-103085000D01*
X119526260Y-103085000D01*
X119813158Y-103027932D01*
X120083411Y-102915990D01*
X120326632Y-102753475D01*
X120533475Y-102546632D01*
X120650000Y-102372240D01*
X120766525Y-102546632D01*
X120973368Y-102753475D01*
X121216589Y-102915990D01*
X121486842Y-103027932D01*
X121773740Y-103085000D01*
X122066260Y-103085000D01*
X122353158Y-103027932D01*
X122623411Y-102915990D01*
X122866632Y-102753475D01*
X123073475Y-102546632D01*
X123190000Y-102372240D01*
X123306525Y-102546632D01*
X123513368Y-102753475D01*
X123756589Y-102915990D01*
X124026842Y-103027932D01*
X124313740Y-103085000D01*
X124606260Y-103085000D01*
X124893158Y-103027932D01*
X125163411Y-102915990D01*
X125406632Y-102753475D01*
X125613475Y-102546632D01*
X125730000Y-102372240D01*
X125846525Y-102546632D01*
X126053368Y-102753475D01*
X126296589Y-102915990D01*
X126566842Y-103027932D01*
X126853740Y-103085000D01*
X127146260Y-103085000D01*
X127433158Y-103027932D01*
X127703411Y-102915990D01*
X127946632Y-102753475D01*
X128153475Y-102546632D01*
X128270000Y-102372240D01*
X128386525Y-102546632D01*
X128593368Y-102753475D01*
X128836589Y-102915990D01*
X129106842Y-103027932D01*
X129393740Y-103085000D01*
X129686260Y-103085000D01*
X129973158Y-103027932D01*
X130243411Y-102915990D01*
X130486632Y-102753475D01*
X130693475Y-102546632D01*
X130810000Y-102372240D01*
X130926525Y-102546632D01*
X131133368Y-102753475D01*
X131376589Y-102915990D01*
X131646842Y-103027932D01*
X131933740Y-103085000D01*
X132226260Y-103085000D01*
X132513158Y-103027932D01*
X132783411Y-102915990D01*
X133026632Y-102753475D01*
X133233475Y-102546632D01*
X133350000Y-102372240D01*
X133466525Y-102546632D01*
X133673368Y-102753475D01*
X133916589Y-102915990D01*
X134186842Y-103027932D01*
X134473740Y-103085000D01*
X134766260Y-103085000D01*
X135053158Y-103027932D01*
X135323411Y-102915990D01*
X135566632Y-102753475D01*
X135773475Y-102546632D01*
X135890000Y-102372240D01*
X136006525Y-102546632D01*
X136213368Y-102753475D01*
X136456589Y-102915990D01*
X136726842Y-103027932D01*
X137013740Y-103085000D01*
X137306260Y-103085000D01*
X137593158Y-103027932D01*
X137863411Y-102915990D01*
X138106632Y-102753475D01*
X138313475Y-102546632D01*
X138430000Y-102372240D01*
X138546525Y-102546632D01*
X138753368Y-102753475D01*
X138996589Y-102915990D01*
X139266842Y-103027932D01*
X139553740Y-103085000D01*
X139846260Y-103085000D01*
X139965000Y-103061381D01*
X139965000Y-103101939D01*
X140004774Y-103301898D01*
X140020556Y-103340000D01*
X106979444Y-103340000D01*
X106995226Y-103301898D01*
X107035000Y-103101939D01*
X107035000Y-102898061D01*
X106995226Y-102698102D01*
X106917205Y-102509744D01*
X106877286Y-102450000D01*
X107731928Y-102450000D01*
X107744188Y-102574482D01*
X107780498Y-102694180D01*
X107839463Y-102804494D01*
X107918815Y-102901185D01*
X108015506Y-102980537D01*
X108125820Y-103039502D01*
X108245518Y-103075812D01*
X108370000Y-103088072D01*
X108934250Y-103085000D01*
X109093000Y-102926250D01*
X109093000Y-101727000D01*
X109347000Y-101727000D01*
X109347000Y-102926250D01*
X109505750Y-103085000D01*
X110070000Y-103088072D01*
X110194482Y-103075812D01*
X110314180Y-103039502D01*
X110424494Y-102980537D01*
X110521185Y-102901185D01*
X110600537Y-102804494D01*
X110659502Y-102694180D01*
X110683966Y-102613534D01*
X110759731Y-102697588D01*
X110993080Y-102871641D01*
X111255901Y-102996825D01*
X111403110Y-103041476D01*
X111633000Y-102920155D01*
X111633000Y-101727000D01*
X111887000Y-101727000D01*
X111887000Y-102920155D01*
X112116890Y-103041476D01*
X112264099Y-102996825D01*
X112526920Y-102871641D01*
X112760269Y-102697588D01*
X112955178Y-102481355D01*
X113030000Y-102355745D01*
X113104822Y-102481355D01*
X113299731Y-102697588D01*
X113533080Y-102871641D01*
X113795901Y-102996825D01*
X113943110Y-103041476D01*
X114173000Y-102920155D01*
X114173000Y-101727000D01*
X111887000Y-101727000D01*
X111633000Y-101727000D01*
X109347000Y-101727000D01*
X109093000Y-101727000D01*
X107893750Y-101727000D01*
X107735000Y-101885750D01*
X107731928Y-102450000D01*
X106877286Y-102450000D01*
X106803937Y-102340226D01*
X106659774Y-102196063D01*
X106490256Y-102082795D01*
X106301898Y-102004774D01*
X106101939Y-101965000D01*
X105898061Y-101965000D01*
X105698102Y-102004774D01*
X105660000Y-102020556D01*
X105660000Y-95005802D01*
X105696063Y-95059774D01*
X105840226Y-95203937D01*
X106009744Y-95317205D01*
X106198102Y-95395226D01*
X106398061Y-95435000D01*
X106601939Y-95435000D01*
X106801898Y-95395226D01*
X106990256Y-95317205D01*
X107159774Y-95203937D01*
X107303937Y-95059774D01*
X107417205Y-94890256D01*
X107495226Y-94701898D01*
X107535000Y-94501939D01*
X107535000Y-94298061D01*
X118265000Y-94298061D01*
X118265000Y-94501939D01*
X118304774Y-94701898D01*
X118382795Y-94890256D01*
X118496063Y-95059774D01*
X118640226Y-95203937D01*
X118809744Y-95317205D01*
X118998102Y-95395226D01*
X119198061Y-95435000D01*
X119401939Y-95435000D01*
X119601898Y-95395226D01*
X119790256Y-95317205D01*
X119959774Y-95203937D01*
X120103937Y-95059774D01*
X120217205Y-94890256D01*
X120295226Y-94701898D01*
X120333397Y-94510000D01*
X120444703Y-94510000D01*
X120610853Y-94476951D01*
X120767363Y-94412122D01*
X120908218Y-94318005D01*
X121028005Y-94198218D01*
X121122122Y-94057363D01*
X121186951Y-93900853D01*
X121220000Y-93734703D01*
X121220000Y-93565297D01*
X121186951Y-93399147D01*
X121152219Y-93315297D01*
X128420000Y-93315297D01*
X128420000Y-93484703D01*
X128453049Y-93650853D01*
X128517878Y-93807363D01*
X128611995Y-93948218D01*
X128731782Y-94068005D01*
X128872637Y-94162122D01*
X129029147Y-94226951D01*
X129195297Y-94260000D01*
X129364703Y-94260000D01*
X129530853Y-94226951D01*
X129687363Y-94162122D01*
X129828218Y-94068005D01*
X129948005Y-93948218D01*
X130042122Y-93807363D01*
X130106951Y-93650853D01*
X130140000Y-93484703D01*
X130140000Y-93315297D01*
X130106951Y-93149147D01*
X130042122Y-92992637D01*
X129948005Y-92851782D01*
X129828218Y-92731995D01*
X129687363Y-92637878D01*
X129530853Y-92573049D01*
X129364703Y-92540000D01*
X129195297Y-92540000D01*
X129029147Y-92573049D01*
X128872637Y-92637878D01*
X128731782Y-92731995D01*
X128611995Y-92851782D01*
X128517878Y-92992637D01*
X128453049Y-93149147D01*
X128420000Y-93315297D01*
X121152219Y-93315297D01*
X121122122Y-93242637D01*
X121028005Y-93101782D01*
X120908218Y-92981995D01*
X120907833Y-92981738D01*
X120916028Y-92976262D01*
X121046262Y-92846028D01*
X121148586Y-92692889D01*
X121219068Y-92522729D01*
X121255000Y-92342089D01*
X121255000Y-92157911D01*
X121219068Y-91977271D01*
X121148586Y-91807111D01*
X121046262Y-91653972D01*
X120916028Y-91523738D01*
X120762889Y-91421414D01*
X120592729Y-91350932D01*
X120412089Y-91315000D01*
X120227911Y-91315000D01*
X120047271Y-91350932D01*
X119877111Y-91421414D01*
X119723972Y-91523738D01*
X119593738Y-91653972D01*
X119491414Y-91807111D01*
X119420932Y-91977271D01*
X119385000Y-92157911D01*
X119385000Y-92342089D01*
X119420932Y-92522729D01*
X119491414Y-92692889D01*
X119593738Y-92846028D01*
X119723972Y-92976262D01*
X119780047Y-93013730D01*
X119691995Y-93101782D01*
X119597878Y-93242637D01*
X119536136Y-93391693D01*
X119401939Y-93365000D01*
X119198061Y-93365000D01*
X118998102Y-93404774D01*
X118809744Y-93482795D01*
X118640226Y-93596063D01*
X118496063Y-93740226D01*
X118382795Y-93909744D01*
X118304774Y-94098102D01*
X118265000Y-94298061D01*
X107535000Y-94298061D01*
X107495226Y-94098102D01*
X107417205Y-93909744D01*
X107303937Y-93740226D01*
X107159774Y-93596063D01*
X106990256Y-93482795D01*
X106801898Y-93404774D01*
X106601939Y-93365000D01*
X106398061Y-93365000D01*
X106198102Y-93404774D01*
X106009744Y-93482795D01*
X105840226Y-93596063D01*
X105696063Y-93740226D01*
X105660000Y-93794198D01*
X105660000Y-92895453D01*
X105686841Y-92928159D01*
X105848247Y-93060622D01*
X106032393Y-93159050D01*
X106232204Y-93219662D01*
X106387934Y-93235000D01*
X107492066Y-93235000D01*
X107647796Y-93219662D01*
X107847607Y-93159050D01*
X108031753Y-93060622D01*
X108193159Y-92928159D01*
X108325622Y-92766753D01*
X108424050Y-92582607D01*
X108484662Y-92382796D01*
X108505128Y-92175000D01*
X108484662Y-91967204D01*
X108424050Y-91767393D01*
X108325622Y-91583247D01*
X108193159Y-91421841D01*
X108031753Y-91289378D01*
X107847607Y-91190950D01*
X107647796Y-91130338D01*
X107492066Y-91115000D01*
X106387934Y-91115000D01*
X106232204Y-91130338D01*
X106032393Y-91190950D01*
X105848247Y-91289378D01*
X105686841Y-91421841D01*
X105660000Y-91454547D01*
X105660000Y-90184749D01*
X105660270Y-90184929D01*
X105852268Y-90264457D01*
X106056092Y-90305000D01*
X106185833Y-90305000D01*
X106225071Y-90399730D01*
X106340528Y-90572523D01*
X106487477Y-90719472D01*
X106660270Y-90834929D01*
X106852268Y-90914457D01*
X107056092Y-90955000D01*
X107263908Y-90955000D01*
X107467732Y-90914457D01*
X107659730Y-90834929D01*
X107832523Y-90719472D01*
X107979472Y-90572523D01*
X108094929Y-90399730D01*
X108170178Y-90218061D01*
X109345000Y-90218061D01*
X109345000Y-90421939D01*
X109384774Y-90621898D01*
X109462795Y-90810256D01*
X109576063Y-90979774D01*
X109720226Y-91123937D01*
X109889744Y-91237205D01*
X110078102Y-91315226D01*
X110278061Y-91355000D01*
X110481939Y-91355000D01*
X110681898Y-91315226D01*
X110870256Y-91237205D01*
X111039774Y-91123937D01*
X111183937Y-90979774D01*
X111297205Y-90810256D01*
X111375226Y-90621898D01*
X111415000Y-90421939D01*
X111415000Y-90218061D01*
X111375226Y-90018102D01*
X111297205Y-89829744D01*
X111183937Y-89660226D01*
X111039774Y-89516063D01*
X110870256Y-89402795D01*
X110737756Y-89347911D01*
X117185000Y-89347911D01*
X117185000Y-89532089D01*
X117220932Y-89712729D01*
X117291414Y-89882889D01*
X117393738Y-90036028D01*
X117523972Y-90166262D01*
X117677111Y-90268586D01*
X117847271Y-90339068D01*
X118027911Y-90375000D01*
X118212089Y-90375000D01*
X118392729Y-90339068D01*
X118562889Y-90268586D01*
X118716028Y-90166262D01*
X118846262Y-90036028D01*
X118846750Y-90035297D01*
X121020000Y-90035297D01*
X121020000Y-90204703D01*
X121053049Y-90370853D01*
X121117878Y-90527363D01*
X121211995Y-90668218D01*
X121325231Y-90781454D01*
X121293049Y-90859147D01*
X121260000Y-91025297D01*
X121260000Y-91194703D01*
X121293049Y-91360853D01*
X121357878Y-91517363D01*
X121451995Y-91658218D01*
X121452166Y-91658389D01*
X121397878Y-91739637D01*
X121333049Y-91896147D01*
X121300000Y-92062297D01*
X121300000Y-92231703D01*
X121333049Y-92397853D01*
X121397878Y-92554363D01*
X121491995Y-92695218D01*
X121611782Y-92815005D01*
X121752637Y-92909122D01*
X121909147Y-92973951D01*
X122075297Y-93007000D01*
X122244703Y-93007000D01*
X122410853Y-92973951D01*
X122567363Y-92909122D01*
X122708218Y-92815005D01*
X122828005Y-92695218D01*
X122922122Y-92554363D01*
X122986951Y-92397853D01*
X123020000Y-92231703D01*
X123020000Y-92062297D01*
X122986951Y-91896147D01*
X122922122Y-91739637D01*
X122828005Y-91598782D01*
X122827834Y-91598611D01*
X122882122Y-91517363D01*
X122946951Y-91360853D01*
X122980000Y-91194703D01*
X122980000Y-91025297D01*
X122954692Y-90898061D01*
X126965000Y-90898061D01*
X126965000Y-91101939D01*
X127004774Y-91301898D01*
X127082795Y-91490256D01*
X127196063Y-91659774D01*
X127340226Y-91803937D01*
X127509744Y-91917205D01*
X127698102Y-91995226D01*
X127898061Y-92035000D01*
X128101939Y-92035000D01*
X128301898Y-91995226D01*
X128490256Y-91917205D01*
X128659774Y-91803937D01*
X128803937Y-91659774D01*
X128900473Y-91515297D01*
X132610000Y-91515297D01*
X132610000Y-91684703D01*
X132643049Y-91850853D01*
X132707878Y-92007363D01*
X132801995Y-92148218D01*
X132921782Y-92268005D01*
X133062637Y-92362122D01*
X133219147Y-92426951D01*
X133385297Y-92460000D01*
X133554703Y-92460000D01*
X133720853Y-92426951D01*
X133877363Y-92362122D01*
X134018218Y-92268005D01*
X134138005Y-92148218D01*
X134232122Y-92007363D01*
X134296951Y-91850853D01*
X134330000Y-91684703D01*
X134330000Y-91515297D01*
X134296951Y-91349147D01*
X134232122Y-91192637D01*
X134138005Y-91051782D01*
X134018218Y-90931995D01*
X133967433Y-90898061D01*
X135465000Y-90898061D01*
X135465000Y-91101939D01*
X135504774Y-91301898D01*
X135582795Y-91490256D01*
X135696063Y-91659774D01*
X135840226Y-91803937D01*
X136009744Y-91917205D01*
X136198102Y-91995226D01*
X136398061Y-92035000D01*
X136601939Y-92035000D01*
X136801898Y-91995226D01*
X136990256Y-91917205D01*
X137159774Y-91803937D01*
X137303937Y-91659774D01*
X137417205Y-91490256D01*
X137495226Y-91301898D01*
X137535000Y-91101939D01*
X137535000Y-90898061D01*
X137495226Y-90698102D01*
X137417205Y-90509744D01*
X137303937Y-90340226D01*
X137159774Y-90196063D01*
X136990256Y-90082795D01*
X136801898Y-90004774D01*
X136601939Y-89965000D01*
X136398061Y-89965000D01*
X136198102Y-90004774D01*
X136009744Y-90082795D01*
X135840226Y-90196063D01*
X135696063Y-90340226D01*
X135582795Y-90509744D01*
X135504774Y-90698102D01*
X135465000Y-90898061D01*
X133967433Y-90898061D01*
X133877363Y-90837878D01*
X133720853Y-90773049D01*
X133554703Y-90740000D01*
X133385297Y-90740000D01*
X133219147Y-90773049D01*
X133062637Y-90837878D01*
X132921782Y-90931995D01*
X132801995Y-91051782D01*
X132707878Y-91192637D01*
X132643049Y-91349147D01*
X132610000Y-91515297D01*
X128900473Y-91515297D01*
X128917205Y-91490256D01*
X128995226Y-91301898D01*
X129035000Y-91101939D01*
X129035000Y-90898061D01*
X128995226Y-90698102D01*
X128917205Y-90509744D01*
X128820689Y-90365297D01*
X130970000Y-90365297D01*
X130970000Y-90534703D01*
X131003049Y-90700853D01*
X131067878Y-90857363D01*
X131161995Y-90998218D01*
X131281782Y-91118005D01*
X131422637Y-91212122D01*
X131579147Y-91276951D01*
X131745297Y-91310000D01*
X131914703Y-91310000D01*
X132080853Y-91276951D01*
X132237363Y-91212122D01*
X132378218Y-91118005D01*
X132498005Y-90998218D01*
X132592122Y-90857363D01*
X132656951Y-90700853D01*
X132690000Y-90534703D01*
X132690000Y-90365297D01*
X132656951Y-90199147D01*
X132592122Y-90042637D01*
X132498005Y-89901782D01*
X132378218Y-89781995D01*
X132237363Y-89687878D01*
X132080853Y-89623049D01*
X131914703Y-89590000D01*
X131745297Y-89590000D01*
X131579147Y-89623049D01*
X131422637Y-89687878D01*
X131281782Y-89781995D01*
X131161995Y-89901782D01*
X131067878Y-90042637D01*
X131003049Y-90199147D01*
X130970000Y-90365297D01*
X128820689Y-90365297D01*
X128803937Y-90340226D01*
X128659774Y-90196063D01*
X128490256Y-90082795D01*
X128301898Y-90004774D01*
X128101939Y-89965000D01*
X127898061Y-89965000D01*
X127698102Y-90004774D01*
X127509744Y-90082795D01*
X127340226Y-90196063D01*
X127196063Y-90340226D01*
X127082795Y-90509744D01*
X127004774Y-90698102D01*
X126965000Y-90898061D01*
X122954692Y-90898061D01*
X122946951Y-90859147D01*
X122882122Y-90702637D01*
X122788005Y-90561782D01*
X122674769Y-90448546D01*
X122706951Y-90370853D01*
X122740000Y-90204703D01*
X122740000Y-90035297D01*
X122710981Y-89889408D01*
X122726951Y-89850853D01*
X122760000Y-89684703D01*
X122760000Y-89515297D01*
X122726951Y-89349147D01*
X122662122Y-89192637D01*
X122568005Y-89051782D01*
X122448218Y-88931995D01*
X122307363Y-88837878D01*
X122150853Y-88773049D01*
X121984703Y-88740000D01*
X121815297Y-88740000D01*
X121649147Y-88773049D01*
X121492637Y-88837878D01*
X121351782Y-88931995D01*
X121231995Y-89051782D01*
X121137878Y-89192637D01*
X121073049Y-89349147D01*
X121040000Y-89515297D01*
X121040000Y-89684703D01*
X121069019Y-89830592D01*
X121053049Y-89869147D01*
X121020000Y-90035297D01*
X118846750Y-90035297D01*
X118948586Y-89882889D01*
X119019068Y-89712729D01*
X119055000Y-89532089D01*
X119055000Y-89347911D01*
X119019068Y-89167271D01*
X118948586Y-88997111D01*
X118846262Y-88843972D01*
X118716028Y-88713738D01*
X118562889Y-88611414D01*
X118392729Y-88540932D01*
X118212089Y-88505000D01*
X118027911Y-88505000D01*
X117847271Y-88540932D01*
X117677111Y-88611414D01*
X117523972Y-88713738D01*
X117393738Y-88843972D01*
X117291414Y-88997111D01*
X117220932Y-89167271D01*
X117185000Y-89347911D01*
X110737756Y-89347911D01*
X110681898Y-89324774D01*
X110481939Y-89285000D01*
X110278061Y-89285000D01*
X110078102Y-89324774D01*
X109889744Y-89402795D01*
X109720226Y-89516063D01*
X109576063Y-89660226D01*
X109462795Y-89829744D01*
X109384774Y-90018102D01*
X109345000Y-90218061D01*
X108170178Y-90218061D01*
X108174457Y-90207732D01*
X108215000Y-90003908D01*
X108215000Y-89796092D01*
X108174457Y-89592268D01*
X108094929Y-89400270D01*
X107994521Y-89250000D01*
X108094929Y-89099730D01*
X108174457Y-88907732D01*
X108215000Y-88703908D01*
X108215000Y-88496092D01*
X108174457Y-88292268D01*
X108104454Y-88123266D01*
X108247111Y-88218586D01*
X108417271Y-88289068D01*
X108597911Y-88325000D01*
X108782089Y-88325000D01*
X108962729Y-88289068D01*
X109132889Y-88218586D01*
X109286028Y-88116262D01*
X109416262Y-87986028D01*
X109518586Y-87832889D01*
X109589068Y-87662729D01*
X109625000Y-87482089D01*
X109625000Y-87297911D01*
X109606578Y-87205297D01*
X111610000Y-87205297D01*
X111610000Y-87374703D01*
X111643049Y-87540853D01*
X111707878Y-87697363D01*
X111801995Y-87838218D01*
X111921782Y-87958005D01*
X112062637Y-88052122D01*
X112219147Y-88116951D01*
X112385297Y-88150000D01*
X112554703Y-88150000D01*
X112720853Y-88116951D01*
X112877363Y-88052122D01*
X113018218Y-87958005D01*
X113138005Y-87838218D01*
X113232122Y-87697363D01*
X113296951Y-87540853D01*
X113330000Y-87374703D01*
X113330000Y-87205297D01*
X113308670Y-87098061D01*
X115255000Y-87098061D01*
X115255000Y-87301939D01*
X115294774Y-87501898D01*
X115372795Y-87690256D01*
X115486063Y-87859774D01*
X115630226Y-88003937D01*
X115799744Y-88117205D01*
X115988102Y-88195226D01*
X116188061Y-88235000D01*
X116391939Y-88235000D01*
X116591898Y-88195226D01*
X116780256Y-88117205D01*
X116836149Y-88079858D01*
X117018102Y-88155226D01*
X117218061Y-88195000D01*
X117421939Y-88195000D01*
X117621898Y-88155226D01*
X117810256Y-88077205D01*
X117979774Y-87963937D01*
X118123937Y-87819774D01*
X118237205Y-87650256D01*
X118315226Y-87461898D01*
X118330462Y-87385297D01*
X118620000Y-87385297D01*
X118620000Y-87554703D01*
X118653049Y-87720853D01*
X118717878Y-87877363D01*
X118811995Y-88018218D01*
X118931782Y-88138005D01*
X119072637Y-88232122D01*
X119229147Y-88296951D01*
X119395297Y-88330000D01*
X119564703Y-88330000D01*
X119730853Y-88296951D01*
X119887363Y-88232122D01*
X120028218Y-88138005D01*
X120148005Y-88018218D01*
X120242122Y-87877363D01*
X120306951Y-87720853D01*
X120340000Y-87554703D01*
X120340000Y-87385297D01*
X120306951Y-87219147D01*
X120242122Y-87062637D01*
X120217173Y-87025297D01*
X121360000Y-87025297D01*
X121360000Y-87194703D01*
X121393049Y-87360853D01*
X121457878Y-87517363D01*
X121551995Y-87658218D01*
X121671782Y-87778005D01*
X121812637Y-87872122D01*
X121969147Y-87936951D01*
X122135297Y-87970000D01*
X122304703Y-87970000D01*
X122470853Y-87936951D01*
X122627363Y-87872122D01*
X122768218Y-87778005D01*
X122888005Y-87658218D01*
X122982122Y-87517363D01*
X123046951Y-87360853D01*
X123080000Y-87194703D01*
X123080000Y-87025297D01*
X123046951Y-86859147D01*
X122982122Y-86702637D01*
X122888005Y-86561782D01*
X122768218Y-86441995D01*
X122627363Y-86347878D01*
X122470853Y-86283049D01*
X122304703Y-86250000D01*
X122135297Y-86250000D01*
X121969147Y-86283049D01*
X121812637Y-86347878D01*
X121671782Y-86441995D01*
X121551995Y-86561782D01*
X121457878Y-86702637D01*
X121393049Y-86859147D01*
X121360000Y-87025297D01*
X120217173Y-87025297D01*
X120148005Y-86921782D01*
X120028218Y-86801995D01*
X119887363Y-86707878D01*
X119730853Y-86643049D01*
X119564703Y-86610000D01*
X119395297Y-86610000D01*
X119229147Y-86643049D01*
X119072637Y-86707878D01*
X118931782Y-86801995D01*
X118811995Y-86921782D01*
X118717878Y-87062637D01*
X118653049Y-87219147D01*
X118620000Y-87385297D01*
X118330462Y-87385297D01*
X118335519Y-87359878D01*
X118390256Y-87337205D01*
X118559774Y-87223937D01*
X118703937Y-87079774D01*
X118817205Y-86910256D01*
X118895226Y-86721898D01*
X118935000Y-86521939D01*
X118935000Y-86318061D01*
X118895226Y-86118102D01*
X118817205Y-85929744D01*
X118703937Y-85760226D01*
X118698711Y-85755000D01*
X118703937Y-85749774D01*
X118733655Y-85705297D01*
X125060000Y-85705297D01*
X125060000Y-85874703D01*
X125093049Y-86040853D01*
X125157878Y-86197363D01*
X125251995Y-86338218D01*
X125371782Y-86458005D01*
X125512637Y-86552122D01*
X125669147Y-86616951D01*
X125675177Y-86618150D01*
X125721995Y-86688218D01*
X125841782Y-86808005D01*
X125860350Y-86820412D01*
X125709744Y-86882795D01*
X125540226Y-86996063D01*
X125396063Y-87140226D01*
X125282795Y-87309744D01*
X125204774Y-87498102D01*
X125165000Y-87698061D01*
X125165000Y-87901939D01*
X125204774Y-88101898D01*
X125282795Y-88290256D01*
X125396063Y-88459774D01*
X125540226Y-88603937D01*
X125709744Y-88717205D01*
X125898102Y-88795226D01*
X126098061Y-88835000D01*
X126301939Y-88835000D01*
X126501898Y-88795226D01*
X126690256Y-88717205D01*
X126859774Y-88603937D01*
X127003937Y-88459774D01*
X127117205Y-88290256D01*
X127195226Y-88101898D01*
X127235000Y-87901939D01*
X127235000Y-87898061D01*
X127965000Y-87898061D01*
X127965000Y-88101939D01*
X128004774Y-88301898D01*
X128082795Y-88490256D01*
X128196063Y-88659774D01*
X128340226Y-88803937D01*
X128509744Y-88917205D01*
X128698102Y-88995226D01*
X128898061Y-89035000D01*
X129101939Y-89035000D01*
X129301898Y-88995226D01*
X129490256Y-88917205D01*
X129659774Y-88803937D01*
X129803937Y-88659774D01*
X129917205Y-88490256D01*
X129995226Y-88301898D01*
X130035000Y-88101939D01*
X130035000Y-87898061D01*
X129995226Y-87698102D01*
X129917205Y-87509744D01*
X129803937Y-87340226D01*
X129659774Y-87196063D01*
X129490256Y-87082795D01*
X129301898Y-87004774D01*
X129101939Y-86965000D01*
X128898061Y-86965000D01*
X128698102Y-87004774D01*
X128509744Y-87082795D01*
X128340226Y-87196063D01*
X128196063Y-87340226D01*
X128082795Y-87509744D01*
X128004774Y-87698102D01*
X127965000Y-87898061D01*
X127235000Y-87898061D01*
X127235000Y-87698061D01*
X127195226Y-87498102D01*
X127117205Y-87309744D01*
X127003937Y-87140226D01*
X126859774Y-86996063D01*
X126749100Y-86922113D01*
X126797363Y-86902122D01*
X126938218Y-86808005D01*
X127058005Y-86688218D01*
X127152122Y-86547363D01*
X127216951Y-86390853D01*
X127250000Y-86224703D01*
X127250000Y-86055297D01*
X127216951Y-85889147D01*
X127152122Y-85732637D01*
X127058005Y-85591782D01*
X127001520Y-85535297D01*
X128740000Y-85535297D01*
X128740000Y-85704703D01*
X128773049Y-85870853D01*
X128837878Y-86027363D01*
X128931995Y-86168218D01*
X129051782Y-86288005D01*
X129192637Y-86382122D01*
X129349147Y-86446951D01*
X129515297Y-86480000D01*
X129684703Y-86480000D01*
X129850853Y-86446951D01*
X129918774Y-86418817D01*
X129967878Y-86537363D01*
X130061995Y-86678218D01*
X130181782Y-86798005D01*
X130322637Y-86892122D01*
X130479147Y-86956951D01*
X130645297Y-86990000D01*
X130814703Y-86990000D01*
X130980853Y-86956951D01*
X131137363Y-86892122D01*
X131241456Y-86822569D01*
X131253049Y-86880853D01*
X131317878Y-87037363D01*
X131411995Y-87178218D01*
X131531782Y-87298005D01*
X131672637Y-87392122D01*
X131829147Y-87456951D01*
X131894749Y-87470000D01*
X131745297Y-87470000D01*
X131579147Y-87503049D01*
X131422637Y-87567878D01*
X131281782Y-87661995D01*
X131161995Y-87781782D01*
X131067878Y-87922637D01*
X131003049Y-88079147D01*
X130970000Y-88245297D01*
X130970000Y-88414703D01*
X131003049Y-88580853D01*
X131067878Y-88737363D01*
X131161995Y-88878218D01*
X131281782Y-88998005D01*
X131422637Y-89092122D01*
X131579147Y-89156951D01*
X131745297Y-89190000D01*
X131914703Y-89190000D01*
X132080853Y-89156951D01*
X132237363Y-89092122D01*
X132378218Y-88998005D01*
X132498005Y-88878218D01*
X132592122Y-88737363D01*
X132656951Y-88580853D01*
X132690000Y-88414703D01*
X132690000Y-88245297D01*
X132656951Y-88079147D01*
X132592122Y-87922637D01*
X132498005Y-87781782D01*
X132378218Y-87661995D01*
X132237363Y-87567878D01*
X132080853Y-87503049D01*
X132015251Y-87490000D01*
X132164703Y-87490000D01*
X132330853Y-87456951D01*
X132487363Y-87392122D01*
X132628218Y-87298005D01*
X132748005Y-87178218D01*
X132842122Y-87037363D01*
X132906951Y-86880853D01*
X132940000Y-86714703D01*
X132940000Y-86545297D01*
X132906951Y-86379147D01*
X132842122Y-86222637D01*
X132748005Y-86081782D01*
X132628218Y-85961995D01*
X132487363Y-85867878D01*
X132330853Y-85803049D01*
X132164703Y-85770000D01*
X131995297Y-85770000D01*
X131829147Y-85803049D01*
X131672637Y-85867878D01*
X131568544Y-85937431D01*
X131556951Y-85879147D01*
X131492122Y-85722637D01*
X131398005Y-85581782D01*
X131371520Y-85555297D01*
X132760000Y-85555297D01*
X132760000Y-85724703D01*
X132793049Y-85890853D01*
X132857878Y-86047363D01*
X132951995Y-86188218D01*
X133071782Y-86308005D01*
X133212637Y-86402122D01*
X133369147Y-86466951D01*
X133535297Y-86500000D01*
X133704703Y-86500000D01*
X133870853Y-86466951D01*
X134027363Y-86402122D01*
X134168218Y-86308005D01*
X134288005Y-86188218D01*
X134382122Y-86047363D01*
X134446951Y-85890853D01*
X134480000Y-85724703D01*
X134480000Y-85555297D01*
X134446951Y-85389147D01*
X134382122Y-85232637D01*
X134288005Y-85091782D01*
X134168218Y-84971995D01*
X134027363Y-84877878D01*
X133870853Y-84813049D01*
X133704703Y-84780000D01*
X133535297Y-84780000D01*
X133369147Y-84813049D01*
X133212637Y-84877878D01*
X133071782Y-84971995D01*
X132951995Y-85091782D01*
X132857878Y-85232637D01*
X132793049Y-85389147D01*
X132760000Y-85555297D01*
X131371520Y-85555297D01*
X131278218Y-85461995D01*
X131226803Y-85427641D01*
X131320427Y-85466421D01*
X131486577Y-85499470D01*
X131655983Y-85499470D01*
X131822133Y-85466421D01*
X131978643Y-85401592D01*
X132119498Y-85307475D01*
X132239285Y-85187688D01*
X132333402Y-85046833D01*
X132398231Y-84890323D01*
X132431280Y-84724173D01*
X132431280Y-84554767D01*
X132398231Y-84388617D01*
X132333402Y-84232107D01*
X132239285Y-84091252D01*
X132119498Y-83971465D01*
X131978643Y-83877348D01*
X131822133Y-83812519D01*
X131655983Y-83779470D01*
X131486577Y-83779470D01*
X131320427Y-83812519D01*
X131163917Y-83877348D01*
X131023062Y-83971465D01*
X130903275Y-84091252D01*
X130809158Y-84232107D01*
X130744329Y-84388617D01*
X130711280Y-84554767D01*
X130711280Y-84724173D01*
X130744329Y-84890323D01*
X130809158Y-85046833D01*
X130903275Y-85187688D01*
X131023062Y-85307475D01*
X131074477Y-85341829D01*
X130980853Y-85303049D01*
X130814703Y-85270000D01*
X130645297Y-85270000D01*
X130479147Y-85303049D01*
X130411226Y-85331183D01*
X130362122Y-85212637D01*
X130268005Y-85071782D01*
X130148218Y-84951995D01*
X130007363Y-84857878D01*
X129850853Y-84793049D01*
X129684703Y-84760000D01*
X129515297Y-84760000D01*
X129349147Y-84793049D01*
X129192637Y-84857878D01*
X129051782Y-84951995D01*
X128931995Y-85071782D01*
X128837878Y-85212637D01*
X128773049Y-85369147D01*
X128740000Y-85535297D01*
X127001520Y-85535297D01*
X126938218Y-85471995D01*
X126797363Y-85377878D01*
X126640853Y-85313049D01*
X126634823Y-85311850D01*
X126588005Y-85241782D01*
X126508950Y-85162727D01*
X126519147Y-85166951D01*
X126685297Y-85200000D01*
X126854703Y-85200000D01*
X127020853Y-85166951D01*
X127140000Y-85117598D01*
X127259147Y-85166951D01*
X127425297Y-85200000D01*
X127594703Y-85200000D01*
X127760853Y-85166951D01*
X127917363Y-85102122D01*
X128058218Y-85008005D01*
X128178005Y-84888218D01*
X128256287Y-84771061D01*
X128362637Y-84842122D01*
X128519147Y-84906951D01*
X128685297Y-84940000D01*
X128854703Y-84940000D01*
X129020853Y-84906951D01*
X129177363Y-84842122D01*
X129318218Y-84748005D01*
X129438005Y-84628218D01*
X129532122Y-84487363D01*
X129596951Y-84330853D01*
X129630000Y-84164703D01*
X129630000Y-83995297D01*
X129596951Y-83829147D01*
X129532122Y-83672637D01*
X129438005Y-83531782D01*
X129318218Y-83411995D01*
X129177363Y-83317878D01*
X129020853Y-83253049D01*
X128854703Y-83220000D01*
X128685297Y-83220000D01*
X128519147Y-83253049D01*
X128362637Y-83317878D01*
X128221782Y-83411995D01*
X128101995Y-83531782D01*
X128023713Y-83648939D01*
X127917363Y-83577878D01*
X127760853Y-83513049D01*
X127594703Y-83480000D01*
X127425297Y-83480000D01*
X127259147Y-83513049D01*
X127140000Y-83562402D01*
X127020853Y-83513049D01*
X126854703Y-83480000D01*
X126685297Y-83480000D01*
X126519147Y-83513049D01*
X126362637Y-83577878D01*
X126221782Y-83671995D01*
X126101995Y-83791782D01*
X126007878Y-83932637D01*
X125943049Y-84089147D01*
X125910000Y-84255297D01*
X125910000Y-84424703D01*
X125943049Y-84590853D01*
X126007878Y-84747363D01*
X126101995Y-84888218D01*
X126181050Y-84967273D01*
X126170853Y-84963049D01*
X126004703Y-84930000D01*
X125835297Y-84930000D01*
X125669147Y-84963049D01*
X125512637Y-85027878D01*
X125371782Y-85121995D01*
X125251995Y-85241782D01*
X125157878Y-85382637D01*
X125093049Y-85539147D01*
X125060000Y-85705297D01*
X118733655Y-85705297D01*
X118817205Y-85580256D01*
X118895226Y-85391898D01*
X118935000Y-85191939D01*
X118935000Y-84988061D01*
X118895226Y-84788102D01*
X118817205Y-84599744D01*
X118703937Y-84430226D01*
X118559774Y-84286063D01*
X118528696Y-84265297D01*
X121900000Y-84265297D01*
X121900000Y-84434703D01*
X121933049Y-84600853D01*
X121997878Y-84757363D01*
X122091995Y-84898218D01*
X122211782Y-85018005D01*
X122352637Y-85112122D01*
X122425841Y-85142444D01*
X122427878Y-85147363D01*
X122521995Y-85288218D01*
X122641782Y-85408005D01*
X122782637Y-85502122D01*
X122939147Y-85566951D01*
X123105297Y-85600000D01*
X123274703Y-85600000D01*
X123440853Y-85566951D01*
X123597363Y-85502122D01*
X123738218Y-85408005D01*
X123858005Y-85288218D01*
X123952122Y-85147363D01*
X124016951Y-84990853D01*
X124050000Y-84824703D01*
X124050000Y-84655297D01*
X124016951Y-84489147D01*
X123952122Y-84332637D01*
X123858005Y-84191782D01*
X123738218Y-84071995D01*
X123697817Y-84045000D01*
X123742089Y-84045000D01*
X123922729Y-84009068D01*
X124092889Y-83938586D01*
X124246028Y-83836262D01*
X124376262Y-83706028D01*
X124478586Y-83552889D01*
X124549068Y-83382729D01*
X124585000Y-83202089D01*
X124585000Y-83017911D01*
X124549068Y-82837271D01*
X124478586Y-82667111D01*
X124376262Y-82513972D01*
X124246028Y-82383738D01*
X124092889Y-82281414D01*
X123922729Y-82210932D01*
X123742089Y-82175000D01*
X123557911Y-82175000D01*
X123377271Y-82210932D01*
X123207111Y-82281414D01*
X123053972Y-82383738D01*
X122923738Y-82513972D01*
X122821414Y-82667111D01*
X122750932Y-82837271D01*
X122715000Y-83017911D01*
X122715000Y-83202089D01*
X122750932Y-83382729D01*
X122795365Y-83490000D01*
X122675297Y-83490000D01*
X122509147Y-83523049D01*
X122352637Y-83587878D01*
X122211782Y-83681995D01*
X122091995Y-83801782D01*
X121997878Y-83942637D01*
X121933049Y-84099147D01*
X121900000Y-84265297D01*
X118528696Y-84265297D01*
X118390256Y-84172795D01*
X118201898Y-84094774D01*
X118001939Y-84055000D01*
X117798061Y-84055000D01*
X117598102Y-84094774D01*
X117409744Y-84172795D01*
X117240226Y-84286063D01*
X117096063Y-84430226D01*
X116982795Y-84599744D01*
X116904774Y-84788102D01*
X116865000Y-84988061D01*
X116865000Y-85191939D01*
X116904774Y-85391898D01*
X116982795Y-85580256D01*
X117096063Y-85749774D01*
X117101289Y-85755000D01*
X117096063Y-85760226D01*
X116982795Y-85929744D01*
X116904774Y-86118102D01*
X116884481Y-86220122D01*
X116829744Y-86242795D01*
X116773851Y-86280142D01*
X116591898Y-86204774D01*
X116391939Y-86165000D01*
X116188061Y-86165000D01*
X115988102Y-86204774D01*
X115799744Y-86282795D01*
X115630226Y-86396063D01*
X115486063Y-86540226D01*
X115372795Y-86709744D01*
X115294774Y-86898102D01*
X115255000Y-87098061D01*
X113308670Y-87098061D01*
X113296951Y-87039147D01*
X113232122Y-86882637D01*
X113138005Y-86741782D01*
X113018218Y-86621995D01*
X112877363Y-86527878D01*
X112720853Y-86463049D01*
X112554703Y-86430000D01*
X112385297Y-86430000D01*
X112219147Y-86463049D01*
X112062637Y-86527878D01*
X111921782Y-86621995D01*
X111801995Y-86741782D01*
X111707878Y-86882637D01*
X111643049Y-87039147D01*
X111610000Y-87205297D01*
X109606578Y-87205297D01*
X109589068Y-87117271D01*
X109518586Y-86947111D01*
X109416262Y-86793972D01*
X109286028Y-86663738D01*
X109132889Y-86561414D01*
X108962729Y-86490932D01*
X108782089Y-86455000D01*
X108597911Y-86455000D01*
X108417271Y-86490932D01*
X108247111Y-86561414D01*
X108160621Y-86619205D01*
X108110537Y-86525506D01*
X108031185Y-86428815D01*
X107934494Y-86349463D01*
X107824180Y-86290498D01*
X107704482Y-86254188D01*
X107580000Y-86241928D01*
X106740000Y-86241928D01*
X106615518Y-86254188D01*
X106495820Y-86290498D01*
X106385506Y-86349463D01*
X106288815Y-86428815D01*
X106209463Y-86525506D01*
X106150498Y-86635820D01*
X106114188Y-86755518D01*
X106101928Y-86880000D01*
X106101928Y-86895000D01*
X106056092Y-86895000D01*
X105852268Y-86935543D01*
X105660270Y-87015071D01*
X105660000Y-87015251D01*
X105660000Y-85745453D01*
X105686841Y-85778159D01*
X105848247Y-85910622D01*
X106032393Y-86009050D01*
X106232204Y-86069662D01*
X106387934Y-86085000D01*
X107492066Y-86085000D01*
X107647796Y-86069662D01*
X107847607Y-86009050D01*
X108031753Y-85910622D01*
X108193159Y-85778159D01*
X108325622Y-85616753D01*
X108424050Y-85432607D01*
X108484662Y-85232796D01*
X108505128Y-85025000D01*
X108484662Y-84817204D01*
X108424050Y-84617393D01*
X108325622Y-84433247D01*
X108193159Y-84271841D01*
X108031753Y-84139378D01*
X107847607Y-84040950D01*
X107647796Y-83980338D01*
X107492066Y-83965000D01*
X106387934Y-83965000D01*
X106232204Y-83980338D01*
X106032393Y-84040950D01*
X105848247Y-84139378D01*
X105686841Y-84271841D01*
X105660000Y-84304547D01*
X105660000Y-82782910D01*
X112295000Y-82782910D01*
X112295000Y-82967088D01*
X112330932Y-83147728D01*
X112401414Y-83317888D01*
X112503738Y-83471027D01*
X112633972Y-83601261D01*
X112787111Y-83703585D01*
X112957271Y-83774067D01*
X113137911Y-83809999D01*
X113322089Y-83809999D01*
X113502729Y-83774067D01*
X113672889Y-83703585D01*
X113826028Y-83601261D01*
X113912246Y-83515043D01*
X114012637Y-83582122D01*
X114169147Y-83646951D01*
X114335297Y-83680000D01*
X114504703Y-83680000D01*
X114670853Y-83646951D01*
X114827363Y-83582122D01*
X114968218Y-83488005D01*
X115088005Y-83368218D01*
X115182122Y-83227363D01*
X115246951Y-83070853D01*
X115280000Y-82904703D01*
X115280000Y-82735297D01*
X115246951Y-82569147D01*
X115182122Y-82412637D01*
X115179065Y-82408061D01*
X116255000Y-82408061D01*
X116255000Y-82611939D01*
X116294774Y-82811898D01*
X116372795Y-83000256D01*
X116486063Y-83169774D01*
X116630226Y-83313937D01*
X116799744Y-83427205D01*
X116988102Y-83505226D01*
X117188061Y-83545000D01*
X117391939Y-83545000D01*
X117591898Y-83505226D01*
X117780256Y-83427205D01*
X117949774Y-83313937D01*
X118093937Y-83169774D01*
X118207205Y-83000256D01*
X118285226Y-82811898D01*
X118325000Y-82611939D01*
X118325000Y-82408061D01*
X118285226Y-82208102D01*
X118207205Y-82019744D01*
X118093937Y-81850226D01*
X117949774Y-81706063D01*
X117780256Y-81592795D01*
X117591898Y-81514774D01*
X117391939Y-81475000D01*
X117188061Y-81475000D01*
X116988102Y-81514774D01*
X116799744Y-81592795D01*
X116630226Y-81706063D01*
X116486063Y-81850226D01*
X116372795Y-82019744D01*
X116294774Y-82208102D01*
X116255000Y-82408061D01*
X115179065Y-82408061D01*
X115088005Y-82271782D01*
X114968218Y-82151995D01*
X114827363Y-82057878D01*
X114670853Y-81993049D01*
X114504703Y-81960000D01*
X114335297Y-81960000D01*
X114169147Y-81993049D01*
X114012637Y-82057878D01*
X113871782Y-82151995D01*
X113850534Y-82173243D01*
X113826028Y-82148737D01*
X113672889Y-82046413D01*
X113502729Y-81975931D01*
X113322089Y-81939999D01*
X113137911Y-81939999D01*
X112957271Y-81975931D01*
X112787111Y-82046413D01*
X112633972Y-82148737D01*
X112503738Y-82278971D01*
X112401414Y-82432110D01*
X112330932Y-82602270D01*
X112295000Y-82782910D01*
X105660000Y-82782910D01*
X105660000Y-82383880D01*
X105808102Y-82445226D01*
X106008061Y-82485000D01*
X106211939Y-82485000D01*
X106411898Y-82445226D01*
X106600256Y-82367205D01*
X106769774Y-82253937D01*
X106913937Y-82109774D01*
X107027205Y-81940256D01*
X107105226Y-81751898D01*
X107145000Y-81551939D01*
X107145000Y-81348061D01*
X107105226Y-81148102D01*
X107027205Y-80959744D01*
X106913937Y-80790226D01*
X106769774Y-80646063D01*
X106600256Y-80532795D01*
X106411898Y-80454774D01*
X106211939Y-80415000D01*
X106008061Y-80415000D01*
X105808102Y-80454774D01*
X105660000Y-80516120D01*
X105660000Y-75979444D01*
X105698102Y-75995226D01*
X105898061Y-76035000D01*
X106101939Y-76035000D01*
X106301898Y-75995226D01*
X106490256Y-75917205D01*
X106659774Y-75803937D01*
X106803937Y-75659774D01*
X106917205Y-75490256D01*
X106995226Y-75301898D01*
X107035000Y-75101939D01*
X107035000Y-74898061D01*
X106995226Y-74698102D01*
X106979444Y-74660000D01*
X140020556Y-74660000D01*
X140004774Y-74698102D01*
G37*
%TD.AperFunction*%
%TD*%
M02*
