M48
; DRILL file {KiCad (5.1.8-0-10_14)} date Thursday, December 03, 2020 at 02:34:08 PM
; FORMAT={-:-/ absolute / inch / decimal}
; #@! TF.CreationDate,2020-12-03T14:34:08+01:00
; #@! TF.GenerationSoftware,Kicad,Pcbnew,(5.1.8-0-10_14)
FMAT,2
INCH
T1C0.0079
T2C0.0157
T3C0.0236
T4C0.0315
T5C0.0394
T6C0.1260
%
G90
G05
T1
X5.0285Y-3.2592
X5.0295Y-3.2819
X5.0412Y-2.6801
X5.0567Y-3.4748
X5.0717Y-3.2894
X5.0727Y-2.6718
X5.0805Y-3.4577
X5.0886Y-4.085
X5.1083Y-3.2973
X5.1114Y-4.1106
X5.1138Y-4.1409
X5.1264Y-2.9567
X5.1264Y-3.0197
X5.1299Y-3.8587
X5.1433Y-3.9717
X5.1587Y-2.6524
X5.1598Y-2.6297
X5.1618Y-3.9094
X5.1669Y-3.4224
X5.1669Y-3.4528
X5.176Y-3.9843
X5.1806Y-3.8874
X5.1818Y-3.6587
X5.2428Y-3.4588
X5.2437Y-3.4815
X5.2453Y-2.6913
X5.2453Y-3.3248
X5.2461Y-2.714
X5.2649Y-2.557
X5.3534Y-2.4919
X5.4777Y-2.4731
X5.6181Y-2.5106
X5.922Y-2.5331
X6.0953Y-2.4919
X6.2094Y-2.4846
X6.3665Y-2.4965
T2
X4.0205Y-2.4134
X4.0232Y-2.4591
X4.1035Y-2.4232
X4.1116Y-2.4588
X4.1929Y-2.4657
X4.1933Y-2.3272
X4.272Y-2.3437
X4.2795Y-3.7205
X4.2874Y-2.9606
X4.3106Y-3.6449
X4.3299Y-2.2717
X4.4398Y-4.187
X4.5846Y-2.5059
X4.6831Y-4.1783
X4.685Y-4.148
X4.6965Y-4.2547
X4.7496Y-4.211
X4.7504Y-4.2386
X4.8937Y-3.5787
X4.9012Y-2.8394
X5.022Y-3.715
X5.026Y-3.3732
X5.026Y-3.4567
X5.0323Y-3.7843
X5.1161Y-3.1406
X5.1303Y-3.9433
X5.1531Y-4.1453
X5.1539Y-2.8382
X5.1555Y-2.5567
X5.198Y-3.3197
X5.198Y-3.3483
X5.1988Y-3.2874
X5.2003Y-2.5547
X5.2003Y-2.7571
X5.2035Y-3.2059
X5.2276Y-3.7854
X5.2287Y-4.2602
X5.2331Y-3.5618
X5.3646Y-3.1417
X5.5307Y-4.2374
X5.9882Y-3.7835
X5.9921Y-3.0157
T3
X3.5728Y-2.6772
X3.5728Y-2.7559
X3.5728Y-2.8346
X3.5728Y-2.9134
X3.5728Y-3.0709
X3.5728Y-3.1496
X3.5728Y-3.2283
X3.5728Y-3.3071
X3.5728Y-3.435
X3.5728Y-3.5138
X3.5728Y-3.5925
X3.5728Y-3.6713
X3.5728Y-3.8386
X3.5728Y-3.9173
X3.5728Y-3.9961
X3.5728Y-4.0748
X3.7894Y-4.0748
X3.8189Y-3.435
X3.8189Y-3.5925
X3.8287Y-2.6772
X3.8287Y-2.8346
X3.8287Y-3.8386
X3.8287Y-3.9961
X3.8386Y-3.0709
X3.8386Y-3.2283
X3.8583Y-3.5138
X3.8583Y-3.6713
X3.8681Y-2.7559
X3.8681Y-2.9134
X3.8681Y-3.9173
X3.8681Y-4.0748
X3.878Y-3.1496
X3.878Y-3.3071
X3.8976Y-3.435
X3.8976Y-3.5925
X3.9075Y-2.6772
X3.9075Y-2.8346
X3.9075Y-3.8386
X3.9075Y-3.9961
X3.9272Y-3.0709
X3.9272Y-3.2283
X3.937Y-3.5138
X3.937Y-3.6713
X3.9469Y-2.7559
X3.9469Y-2.9134
X3.9469Y-3.9173
X3.9469Y-4.0748
X3.9665Y-3.1496
X3.9665Y-3.3071
X3.9764Y-3.435
X3.9764Y-3.5925
X3.9862Y-2.6772
X3.9862Y-2.8346
X3.9862Y-3.8386
X3.9862Y-3.9961
X4.0157Y-3.0709
X4.0157Y-3.2283
X4.0157Y-3.5138
X4.0157Y-3.6713
X4.0256Y-2.7559
X4.0256Y-2.9134
X4.0256Y-3.9173
X4.0256Y-4.0748
X4.0551Y-3.1496
X4.0551Y-3.3071
X4.0551Y-3.435
X4.0551Y-3.5925
X4.065Y-2.6772
X4.065Y-2.8346
X4.065Y-3.8386
X4.065Y-3.9961
X4.0945Y-3.5138
X4.0945Y-3.6713
X4.1043Y-2.7559
X4.1043Y-2.9134
X4.1043Y-3.0709
X4.1043Y-3.2283
X4.1043Y-3.9173
X4.1043Y-4.0748
X4.1339Y-3.435
X4.1339Y-3.5925
X4.1437Y-2.6772
X4.1437Y-2.8346
X4.1437Y-3.1496
X4.1437Y-3.3071
X4.1437Y-3.8386
X4.1437Y-3.9961
X4.1732Y-3.5138
X4.1732Y-3.6713
X4.1831Y-2.7559
X4.1831Y-2.9134
X4.1831Y-3.9173
X4.1831Y-4.0748
X4.1929Y-3.0709
X4.1929Y-3.2283
X4.2126Y-3.435
X4.2126Y-3.5925
X4.2224Y-2.6772
X4.2224Y-2.8346
X4.2224Y-3.8386
X4.2224Y-3.9961
X4.2323Y-3.1496
X4.2323Y-3.3071
X4.252Y-3.5138
X4.2618Y-2.7559
X4.2913Y-3.435
X4.2913Y-3.5925
X4.3012Y-2.6772
X4.3012Y-2.8346
X4.3307Y-3.5138
X4.3406Y-2.7559
X4.3602Y-3.0413
X4.3602Y-3.1988
X4.3602Y-3.7992
X4.3602Y-3.9567
X4.3701Y-3.435
X4.3701Y-3.5925
X4.3799Y-2.6772
X4.3799Y-2.8346
X4.3996Y-2.9626
X4.3996Y-3.1201
X4.3996Y-3.7205
X4.3996Y-3.878
X4.3996Y-4.0354
X4.4094Y-3.5138
X4.4193Y-2.7559
X4.439Y-3.0413
X4.439Y-3.1988
X4.439Y-3.7992
X4.439Y-3.9567
X4.4488Y-3.435
X4.4488Y-3.5925
X4.4587Y-2.6772
X4.4587Y-2.8346
X4.4783Y-2.9626
X4.4783Y-3.1201
X4.4783Y-3.2776
X4.4783Y-3.7205
X4.4783Y-3.878
X4.4783Y-4.0354
X4.4882Y-3.5138
X4.498Y-2.7559
X4.5177Y-3.0413
X4.5177Y-3.1988
X4.5177Y-3.7992
X4.5177Y-3.9567
X4.5276Y-3.435
X4.5276Y-3.5925
X4.5374Y-2.6772
X4.5374Y-2.8346
X4.5571Y-2.9626
X4.5571Y-3.1201
X4.5571Y-3.2776
X4.5571Y-3.7205
X4.5571Y-3.878
X4.5571Y-4.0354
X4.5669Y-3.5138
X4.5768Y-2.7559
X4.5965Y-3.0413
X4.5965Y-3.1988
X4.5965Y-3.7992
X4.5965Y-3.9567
X4.6063Y-3.435
X4.6063Y-3.5925
X4.6161Y-2.6772
X4.6161Y-2.8346
X4.6358Y-2.9626
X4.6358Y-3.1201
X4.6358Y-3.2776
X4.6358Y-3.7205
X4.6358Y-3.878
X4.6358Y-4.0354
X4.6752Y-3.0413
X4.6752Y-3.1988
X4.6752Y-3.7992
X4.6752Y-3.9567
X4.7146Y-2.9626
X4.7146Y-3.1201
X4.7146Y-3.2776
X4.7146Y-3.7205
X4.7146Y-3.878
X4.7146Y-4.0354
X4.7539Y-3.0413
X4.7539Y-3.1988
X4.7539Y-3.7992
X4.7539Y-3.9567
X4.7933Y-2.9626
X4.7933Y-3.1201
X4.7933Y-3.2776
X4.7933Y-3.7205
X4.7933Y-3.878
X4.7933Y-4.0354
X4.8327Y-3.0413
X4.8327Y-3.1988
X4.8327Y-3.7992
X4.8327Y-3.9567
X4.872Y-2.9626
X4.872Y-3.1201
X4.872Y-3.2776
X4.872Y-3.7205
X4.872Y-3.878
X4.872Y-4.0354
X5.3937Y-3.4646
X5.3937Y-3.622
X5.3937Y-3.7795
X5.4035Y-2.687
X5.4035Y-2.8445
X5.4035Y-3.002
X5.4331Y-3.5433
X5.4331Y-3.7008
X5.4429Y-2.7657
X5.4429Y-2.9232
X5.4724Y-3.4646
X5.4724Y-3.622
X5.4724Y-3.7795
X5.4823Y-2.687
X5.4823Y-2.8445
X5.4823Y-3.002
X5.5118Y-3.5433
X5.5118Y-3.7008
X5.5217Y-2.7657
X5.5217Y-2.9232
X5.5512Y-3.4646
X5.5512Y-3.622
X5.5512Y-3.7795
X5.561Y-2.687
X5.561Y-2.8445
X5.561Y-3.002
X5.5906Y-3.5433
X5.5906Y-3.7008
X5.6004Y-2.7657
X5.6004Y-2.9232
X5.6299Y-3.4646
X5.6299Y-3.622
X5.6299Y-3.7795
X5.6398Y-2.687
X5.6398Y-2.8445
X5.6398Y-3.002
X5.6594Y-3.1299
X5.6594Y-3.2874
X5.6693Y-3.5433
X5.6693Y-3.7008
X5.6693Y-3.8976
X5.6693Y-4.0551
X5.6791Y-2.7657
X5.6791Y-2.9232
X5.6988Y-3.2087
X5.7087Y-3.4646
X5.7087Y-3.622
X5.7087Y-3.7795
X5.7087Y-3.9764
X5.7185Y-2.687
X5.7185Y-2.8445
X5.7185Y-3.002
X5.7382Y-3.1299
X5.7382Y-3.2874
X5.748Y-3.5433
X5.748Y-3.7008
X5.748Y-3.8976
X5.748Y-4.0551
X5.7579Y-2.7657
X5.7579Y-2.9232
X5.7776Y-3.2087
X5.7874Y-3.4646
X5.7874Y-3.622
X5.7874Y-3.7795
X5.7874Y-3.9764
X5.7972Y-2.687
X5.7972Y-2.8445
X5.7972Y-3.002
X5.8169Y-3.1299
X5.8169Y-3.2874
X5.8268Y-3.5433
X5.8268Y-3.7008
X5.8268Y-3.8976
X5.8268Y-4.0551
X5.8366Y-2.7657
X5.8366Y-2.9232
X5.8563Y-3.2087
X5.8661Y-3.4646
X5.8661Y-3.622
X5.8661Y-3.7795
X5.8661Y-3.9764
X5.876Y-2.687
X5.876Y-2.8445
X5.8957Y-3.1299
X5.8957Y-3.2874
X5.9055Y-3.5433
X5.9055Y-3.7008
X5.9055Y-3.8976
X5.9055Y-4.0551
X5.9154Y-2.7657
X5.9154Y-2.9232
X5.935Y-3.2087
X5.9449Y-3.9764
X5.9744Y-3.1299
X5.9744Y-3.2874
X5.9843Y-3.8976
X5.9843Y-4.0551
X6.0138Y-3.2087
X6.0236Y-3.9764
X6.0433Y-2.6673
X6.0433Y-2.8248
X6.0433Y-3.435
X6.0433Y-3.5925
X6.0531Y-3.1299
X6.0531Y-3.2874
X6.063Y-3.8976
X6.063Y-4.0551
X6.0827Y-2.7461
X6.0827Y-2.9035
X6.0827Y-3.5138
X6.0827Y-3.6713
X6.0925Y-3.2087
X6.1024Y-3.8386
X6.1024Y-3.9764
X6.1122Y-3.435
X6.1122Y-3.5925
X6.1319Y-3.1299
X6.1319Y-3.2874
X6.1417Y-2.6673
X6.1417Y-2.8248
X6.1417Y-3.8976
X6.1417Y-4.0551
X6.1516Y-3.5138
X6.1516Y-3.6713
X6.1713Y-3.0512
X6.1713Y-3.2087
X6.1811Y-2.7461
X6.1811Y-2.9035
X6.1811Y-3.435
X6.1811Y-3.5925
X6.1811Y-3.8386
X6.1811Y-3.9764
X6.2106Y-3.1299
X6.2106Y-3.2874
X6.2205Y-3.5138
X6.2205Y-3.6713
X6.2205Y-3.8976
X6.2205Y-4.0551
X6.2303Y-2.6673
X6.2303Y-2.8248
X6.25Y-3.0512
X6.25Y-3.2087
X6.25Y-3.435
X6.25Y-3.5925
X6.2598Y-3.8386
X6.2598Y-3.9764
X6.2697Y-2.7461
X6.2697Y-2.9035
X6.2894Y-3.1299
X6.2894Y-3.2874
X6.2894Y-3.5138
X6.2894Y-3.6713
X6.2992Y-3.8976
X6.2992Y-4.0551
X6.3091Y-2.6673
X6.3091Y-2.8248
X6.3189Y-3.435
X6.3189Y-3.5925
X6.3287Y-3.0512
X6.3287Y-3.2087
X6.3386Y-3.8386
X6.3386Y-3.9764
X6.3484Y-2.7461
X6.3484Y-2.9035
X6.3583Y-3.5138
X6.3583Y-3.6713
X6.3681Y-3.1299
X6.3681Y-3.2874
X6.378Y-3.8976
X6.378Y-4.0551
X6.3878Y-3.435
X6.3878Y-3.5925
X6.3976Y-2.6673
X6.3976Y-2.8248
X6.4075Y-3.0512
X6.4075Y-3.2087
X6.4173Y-3.8386
X6.4173Y-3.9764
X6.4272Y-3.5138
X6.4272Y-3.6713
X6.437Y-2.7461
X6.437Y-2.9035
X6.4469Y-3.1299
X6.4469Y-3.2874
X6.4567Y-3.435
X6.4567Y-3.5925
X6.4567Y-3.8976
X6.4567Y-4.0551
X6.6929Y-3.0512
X6.6929Y-3.1299
X6.6929Y-3.2087
X6.6929Y-3.2874
X6.6929Y-3.435
X6.6929Y-3.5138
X6.6929Y-3.5925
X6.6929Y-3.6713
X6.6929Y-3.8386
X6.6929Y-3.8976
X6.6929Y-3.9764
X6.6929Y-4.0551
T5
X4.9114Y-4.1535
X4.9114Y-4.2535
X4.7268Y-2.515
X4.8268Y-2.515
X4.9268Y-2.515
X5.0268Y-2.515
X4.6268Y-2.315
X4.6268Y-2.415
X4.7268Y-2.315
X4.7268Y-2.415
X4.8268Y-2.315
X4.8268Y-2.415
X4.9268Y-2.315
X4.9268Y-2.415
X5.0268Y-2.315
X5.0268Y-2.415
X5.1268Y-2.315
X5.1268Y-2.415
X5.2268Y-2.315
X5.2268Y-2.415
X5.3268Y-2.315
X5.3268Y-2.415
X5.4268Y-2.315
X5.4268Y-2.415
X5.5268Y-2.315
X5.5268Y-2.415
X5.6268Y-2.315
X5.6268Y-2.415
X5.7268Y-2.315
X5.7268Y-2.415
X5.8268Y-2.315
X5.8268Y-2.415
X5.9268Y-2.315
X5.9268Y-2.415
X6.0268Y-2.315
X6.0268Y-2.415
X6.1268Y-2.315
X6.1268Y-2.415
X6.2268Y-2.315
X6.2268Y-2.415
X6.3268Y-2.315
X6.3268Y-2.415
X6.4268Y-2.315
X6.4268Y-2.415
X6.5268Y-2.315
X6.5268Y-2.415
X5.7488Y-4.2898
X5.8472Y-4.2898
T6
X6.1516Y-4.2913
X4.3996Y-2.4803
T4
G00X3.7087Y-2.7953
M15
G01X3.7087Y-2.8346
M16
G05
G00X3.7087Y-3.1693
M15
G01X3.7087Y-3.2087
M16
G05
G00X3.7087Y-3.5433
M15
G01X3.7087Y-3.5827
M16
G05
G00X3.7087Y-3.9173
M15
G01X3.7087Y-3.9567
M16
G05
G00X6.563Y-2.8307
M15
G01X6.563Y-2.7913
M16
G05
G00X6.563Y-3.2047
M15
G01X6.563Y-3.1654
M16
G05
G00X6.563Y-3.5787
M15
G01X6.563Y-3.5394
M16
G05
G00X6.563Y-3.9528
M15
G01X6.563Y-3.9134
M16
G05
T0
M30
