%TF.GenerationSoftware,KiCad,Pcbnew,(5.1.8-0-10_14)*%
%TF.CreationDate,2020-12-03T14:34:03+01:00*%
%TF.ProjectId,SH-ESP32-PowerFET,53482d45-5350-4333-922d-506f77657246,0.1.0*%
%TF.SameCoordinates,Original*%
%TF.FileFunction,Legend,Bot*%
%TF.FilePolarity,Positive*%
%FSLAX46Y46*%
G04 Gerber Fmt 4.6, Leading zero omitted, Abs format (unit mm)*
G04 Created by KiCad (PCBNEW (5.1.8-0-10_14)) date 2020-12-03 14:34:03*
%MOMM*%
%LPD*%
G01*
G04 APERTURE LIST*
%ADD10C,0.200000*%
%ADD11C,0.160000*%
%TA.AperFunction,Profile*%
%ADD12C,0.050000*%
%TD*%
%ADD13C,0.120000*%
%ADD14C,0.100000*%
%ADD15C,0.300000*%
%ADD16C,0.010000*%
G04 APERTURE END LIST*
D10*
X137857142Y-111452380D02*
X137857142Y-110452380D01*
X137428571Y-111452380D02*
X137428571Y-110928571D01*
X137476190Y-110833333D01*
X137571428Y-110785714D01*
X137714285Y-110785714D01*
X137809523Y-110833333D01*
X137857142Y-110880952D01*
X137095238Y-110785714D02*
X136714285Y-110785714D01*
X136952380Y-110452380D02*
X136952380Y-111309523D01*
X136904761Y-111404761D01*
X136809523Y-111452380D01*
X136714285Y-111452380D01*
X136523809Y-110785714D02*
X136142857Y-110785714D01*
X136380952Y-110452380D02*
X136380952Y-111309523D01*
X136333333Y-111404761D01*
X136238095Y-111452380D01*
X136142857Y-111452380D01*
X135857142Y-111404761D02*
X135761904Y-111452380D01*
X135571428Y-111452380D01*
X135476190Y-111404761D01*
X135428571Y-111309523D01*
X135428571Y-111261904D01*
X135476190Y-111166666D01*
X135571428Y-111119047D01*
X135714285Y-111119047D01*
X135809523Y-111071428D01*
X135857142Y-110976190D01*
X135857142Y-110928571D01*
X135809523Y-110833333D01*
X135714285Y-110785714D01*
X135571428Y-110785714D01*
X135476190Y-110833333D01*
X135000000Y-111357142D02*
X134952380Y-111404761D01*
X135000000Y-111452380D01*
X135047619Y-111404761D01*
X135000000Y-111357142D01*
X135000000Y-111452380D01*
X135000000Y-110833333D02*
X134952380Y-110880952D01*
X135000000Y-110928571D01*
X135047619Y-110880952D01*
X135000000Y-110833333D01*
X135000000Y-110928571D01*
X133809523Y-110404761D02*
X134666666Y-111690476D01*
X132761904Y-110404761D02*
X133619047Y-111690476D01*
X132000000Y-110785714D02*
X132000000Y-111595238D01*
X132047619Y-111690476D01*
X132095238Y-111738095D01*
X132190476Y-111785714D01*
X132333333Y-111785714D01*
X132428571Y-111738095D01*
X132000000Y-111404761D02*
X132095238Y-111452380D01*
X132285714Y-111452380D01*
X132380952Y-111404761D01*
X132428571Y-111357142D01*
X132476190Y-111261904D01*
X132476190Y-110976190D01*
X132428571Y-110880952D01*
X132380952Y-110833333D01*
X132285714Y-110785714D01*
X132095238Y-110785714D01*
X132000000Y-110833333D01*
X131523809Y-111452380D02*
X131523809Y-110785714D01*
X131523809Y-110452380D02*
X131571428Y-110500000D01*
X131523809Y-110547619D01*
X131476190Y-110500000D01*
X131523809Y-110452380D01*
X131523809Y-110547619D01*
X131190476Y-110785714D02*
X130809523Y-110785714D01*
X131047619Y-110452380D02*
X131047619Y-111309523D01*
X131000000Y-111404761D01*
X130904761Y-111452380D01*
X130809523Y-111452380D01*
X130476190Y-111452380D02*
X130476190Y-110452380D01*
X130047619Y-111452380D02*
X130047619Y-110928571D01*
X130095238Y-110833333D01*
X130190476Y-110785714D01*
X130333333Y-110785714D01*
X130428571Y-110833333D01*
X130476190Y-110880952D01*
X129142857Y-110785714D02*
X129142857Y-111452380D01*
X129571428Y-110785714D02*
X129571428Y-111309523D01*
X129523809Y-111404761D01*
X129428571Y-111452380D01*
X129285714Y-111452380D01*
X129190476Y-111404761D01*
X129142857Y-111357142D01*
X128666666Y-111452380D02*
X128666666Y-110452380D01*
X128666666Y-110833333D02*
X128571428Y-110785714D01*
X128380952Y-110785714D01*
X128285714Y-110833333D01*
X128238095Y-110880952D01*
X128190476Y-110976190D01*
X128190476Y-111261904D01*
X128238095Y-111357142D01*
X128285714Y-111404761D01*
X128380952Y-111452380D01*
X128571428Y-111452380D01*
X128666666Y-111404761D01*
X127761904Y-111357142D02*
X127714285Y-111404761D01*
X127761904Y-111452380D01*
X127809523Y-111404761D01*
X127761904Y-111357142D01*
X127761904Y-111452380D01*
X126857142Y-111404761D02*
X126952380Y-111452380D01*
X127142857Y-111452380D01*
X127238095Y-111404761D01*
X127285714Y-111357142D01*
X127333333Y-111261904D01*
X127333333Y-110976190D01*
X127285714Y-110880952D01*
X127238095Y-110833333D01*
X127142857Y-110785714D01*
X126952380Y-110785714D01*
X126857142Y-110833333D01*
X126285714Y-111452380D02*
X126380952Y-111404761D01*
X126428571Y-111357142D01*
X126476190Y-111261904D01*
X126476190Y-110976190D01*
X126428571Y-110880952D01*
X126380952Y-110833333D01*
X126285714Y-110785714D01*
X126142857Y-110785714D01*
X126047619Y-110833333D01*
X126000000Y-110880952D01*
X125952380Y-110976190D01*
X125952380Y-111261904D01*
X126000000Y-111357142D01*
X126047619Y-111404761D01*
X126142857Y-111452380D01*
X126285714Y-111452380D01*
X125523809Y-111452380D02*
X125523809Y-110785714D01*
X125523809Y-110880952D02*
X125476190Y-110833333D01*
X125380952Y-110785714D01*
X125238095Y-110785714D01*
X125142857Y-110833333D01*
X125095238Y-110928571D01*
X125095238Y-111452380D01*
X125095238Y-110928571D02*
X125047619Y-110833333D01*
X124952380Y-110785714D01*
X124809523Y-110785714D01*
X124714285Y-110833333D01*
X124666666Y-110928571D01*
X124666666Y-111452380D01*
X123476190Y-110404761D02*
X124333333Y-111690476D01*
X123142857Y-111452380D02*
X123142857Y-110785714D01*
X123142857Y-110880952D02*
X123095238Y-110833333D01*
X123000000Y-110785714D01*
X122857142Y-110785714D01*
X122761904Y-110833333D01*
X122714285Y-110928571D01*
X122714285Y-111452380D01*
X122714285Y-110928571D02*
X122666666Y-110833333D01*
X122571428Y-110785714D01*
X122428571Y-110785714D01*
X122333333Y-110833333D01*
X122285714Y-110928571D01*
X122285714Y-111452380D01*
X121380952Y-111452380D02*
X121380952Y-110928571D01*
X121428571Y-110833333D01*
X121523809Y-110785714D01*
X121714285Y-110785714D01*
X121809523Y-110833333D01*
X121380952Y-111404761D02*
X121476190Y-111452380D01*
X121714285Y-111452380D01*
X121809523Y-111404761D01*
X121857142Y-111309523D01*
X121857142Y-111214285D01*
X121809523Y-111119047D01*
X121714285Y-111071428D01*
X121476190Y-111071428D01*
X121380952Y-111023809D01*
X120904761Y-111452380D02*
X120904761Y-110785714D01*
X120904761Y-110976190D02*
X120857142Y-110880952D01*
X120809523Y-110833333D01*
X120714285Y-110785714D01*
X120619047Y-110785714D01*
X120285714Y-111452380D02*
X120285714Y-110452380D01*
X120190476Y-111071428D02*
X119904761Y-111452380D01*
X119904761Y-110785714D02*
X120285714Y-111166666D01*
X119619047Y-110785714D02*
X119238095Y-110785714D01*
X119476190Y-111452380D02*
X119476190Y-110595238D01*
X119428571Y-110500000D01*
X119333333Y-110452380D01*
X119238095Y-110452380D01*
X118476190Y-111452380D02*
X118476190Y-110928571D01*
X118523809Y-110833333D01*
X118619047Y-110785714D01*
X118809523Y-110785714D01*
X118904761Y-110833333D01*
X118476190Y-111404761D02*
X118571428Y-111452380D01*
X118809523Y-111452380D01*
X118904761Y-111404761D01*
X118952380Y-111309523D01*
X118952380Y-111214285D01*
X118904761Y-111119047D01*
X118809523Y-111071428D01*
X118571428Y-111071428D01*
X118476190Y-111023809D01*
X118000000Y-111452380D02*
X118000000Y-110785714D01*
X118000000Y-110976190D02*
X117952380Y-110880952D01*
X117904761Y-110833333D01*
X117809523Y-110785714D01*
X117714285Y-110785714D01*
X117380952Y-110785714D02*
X117380952Y-111452380D01*
X117380952Y-110880952D02*
X117333333Y-110833333D01*
X117238095Y-110785714D01*
X117095238Y-110785714D01*
X117000000Y-110833333D01*
X116952380Y-110928571D01*
X116952380Y-111452380D01*
X116047619Y-111452380D02*
X116047619Y-110928571D01*
X116095238Y-110833333D01*
X116190476Y-110785714D01*
X116380952Y-110785714D01*
X116476190Y-110833333D01*
X116047619Y-111404761D02*
X116142857Y-111452380D01*
X116380952Y-111452380D01*
X116476190Y-111404761D01*
X116523809Y-111309523D01*
X116523809Y-111214285D01*
X116476190Y-111119047D01*
X116380952Y-111071428D01*
X116142857Y-111071428D01*
X116047619Y-111023809D01*
X115571428Y-110785714D02*
X115571428Y-111452380D01*
X115571428Y-110880952D02*
X115523809Y-110833333D01*
X115428571Y-110785714D01*
X115285714Y-110785714D01*
X115190476Y-110833333D01*
X115142857Y-110928571D01*
X115142857Y-111452380D01*
D11*
X127609523Y-107600000D02*
X127685714Y-107561904D01*
X127800000Y-107561904D01*
X127914285Y-107600000D01*
X127990476Y-107676190D01*
X128028571Y-107752380D01*
X128066666Y-107904761D01*
X128066666Y-108019047D01*
X128028571Y-108171428D01*
X127990476Y-108247619D01*
X127914285Y-108323809D01*
X127800000Y-108361904D01*
X127723809Y-108361904D01*
X127609523Y-108323809D01*
X127571428Y-108285714D01*
X127571428Y-108019047D01*
X127723809Y-108019047D01*
X127228571Y-108361904D02*
X127228571Y-107561904D01*
X126771428Y-108361904D01*
X126771428Y-107561904D01*
X126390476Y-108361904D02*
X126390476Y-107561904D01*
X126200000Y-107561904D01*
X126085714Y-107600000D01*
X126009523Y-107676190D01*
X125971428Y-107752380D01*
X125933333Y-107904761D01*
X125933333Y-108019047D01*
X125971428Y-108171428D01*
X126009523Y-108247619D01*
X126085714Y-108323809D01*
X126200000Y-108361904D01*
X126390476Y-108361904D01*
X128757142Y-105861904D02*
X128757142Y-105061904D01*
X128490476Y-105633333D01*
X128223809Y-105061904D01*
X128223809Y-105861904D01*
X127842857Y-105861904D02*
X127842857Y-105061904D01*
X127538095Y-105061904D01*
X127461904Y-105100000D01*
X127423809Y-105138095D01*
X127385714Y-105214285D01*
X127385714Y-105328571D01*
X127423809Y-105404761D01*
X127461904Y-105442857D01*
X127538095Y-105480952D01*
X127842857Y-105480952D01*
X127042857Y-105861904D02*
X127042857Y-105061904D01*
X126852380Y-105061904D01*
X126738095Y-105100000D01*
X126661904Y-105176190D01*
X126623809Y-105252380D01*
X126585714Y-105404761D01*
X126585714Y-105519047D01*
X126623809Y-105671428D01*
X126661904Y-105747619D01*
X126738095Y-105823809D01*
X126852380Y-105861904D01*
X127042857Y-105861904D01*
X126242857Y-105861904D02*
X126242857Y-105061904D01*
X128154761Y-67714285D02*
X128202380Y-67571428D01*
X128202380Y-67333333D01*
X128154761Y-67238095D01*
X128107142Y-67190476D01*
X128011904Y-67142857D01*
X127916666Y-67142857D01*
X127821428Y-67190476D01*
X127773809Y-67238095D01*
X127726190Y-67333333D01*
X127678571Y-67523809D01*
X127630952Y-67619047D01*
X127583333Y-67666666D01*
X127488095Y-67714285D01*
X127392857Y-67714285D01*
X127297619Y-67666666D01*
X127250000Y-67619047D01*
X127202380Y-67523809D01*
X127202380Y-67285714D01*
X127250000Y-67142857D01*
X128202380Y-66714285D02*
X127202380Y-66714285D01*
X127202380Y-66476190D01*
X127250000Y-66333333D01*
X127345238Y-66238095D01*
X127440476Y-66190476D01*
X127630952Y-66142857D01*
X127773809Y-66142857D01*
X127964285Y-66190476D01*
X128059523Y-66238095D01*
X128154761Y-66333333D01*
X128202380Y-66476190D01*
X128202380Y-66714285D01*
X127916666Y-65761904D02*
X127916666Y-65285714D01*
X128202380Y-65857142D02*
X127202380Y-65523809D01*
X128202380Y-65190476D01*
X125654761Y-67690476D02*
X125702380Y-67547619D01*
X125702380Y-67309523D01*
X125654761Y-67214285D01*
X125607142Y-67166666D01*
X125511904Y-67119047D01*
X125416666Y-67119047D01*
X125321428Y-67166666D01*
X125273809Y-67214285D01*
X125226190Y-67309523D01*
X125178571Y-67500000D01*
X125130952Y-67595238D01*
X125083333Y-67642857D01*
X124988095Y-67690476D01*
X124892857Y-67690476D01*
X124797619Y-67642857D01*
X124750000Y-67595238D01*
X124702380Y-67500000D01*
X124702380Y-67261904D01*
X124750000Y-67119047D01*
X125607142Y-66119047D02*
X125654761Y-66166666D01*
X125702380Y-66309523D01*
X125702380Y-66404761D01*
X125654761Y-66547619D01*
X125559523Y-66642857D01*
X125464285Y-66690476D01*
X125273809Y-66738095D01*
X125130952Y-66738095D01*
X124940476Y-66690476D01*
X124845238Y-66642857D01*
X124750000Y-66547619D01*
X124702380Y-66404761D01*
X124702380Y-66309523D01*
X124750000Y-66166666D01*
X124797619Y-66119047D01*
X125702380Y-65214285D02*
X125702380Y-65690476D01*
X124702380Y-65690476D01*
X122202380Y-67738095D02*
X122202380Y-67119047D01*
X122583333Y-67452380D01*
X122583333Y-67309523D01*
X122630952Y-67214285D01*
X122678571Y-67166666D01*
X122773809Y-67119047D01*
X123011904Y-67119047D01*
X123107142Y-67166666D01*
X123154761Y-67214285D01*
X123202380Y-67309523D01*
X123202380Y-67595238D01*
X123154761Y-67690476D01*
X123107142Y-67738095D01*
X122202380Y-66833333D02*
X123202380Y-66500000D01*
X122202380Y-66166666D01*
X122202380Y-65928571D02*
X122202380Y-65309523D01*
X122583333Y-65642857D01*
X122583333Y-65500000D01*
X122630952Y-65404761D01*
X122678571Y-65357142D01*
X122773809Y-65309523D01*
X123011904Y-65309523D01*
X123107142Y-65357142D01*
X123154761Y-65404761D01*
X123202380Y-65500000D01*
X123202380Y-65785714D01*
X123154761Y-65880952D01*
X123107142Y-65928571D01*
X119750000Y-67261904D02*
X119702380Y-67357142D01*
X119702380Y-67500000D01*
X119750000Y-67642857D01*
X119845238Y-67738095D01*
X119940476Y-67785714D01*
X120130952Y-67833333D01*
X120273809Y-67833333D01*
X120464285Y-67785714D01*
X120559523Y-67738095D01*
X120654761Y-67642857D01*
X120702380Y-67500000D01*
X120702380Y-67404761D01*
X120654761Y-67261904D01*
X120607142Y-67214285D01*
X120273809Y-67214285D01*
X120273809Y-67404761D01*
X120702380Y-66785714D02*
X119702380Y-66785714D01*
X120702380Y-66214285D01*
X119702380Y-66214285D01*
X120702380Y-65738095D02*
X119702380Y-65738095D01*
X119702380Y-65500000D01*
X119750000Y-65357142D01*
X119845238Y-65261904D01*
X119940476Y-65214285D01*
X120130952Y-65166666D01*
X120273809Y-65166666D01*
X120464285Y-65214285D01*
X120559523Y-65261904D01*
X120654761Y-65357142D01*
X120702380Y-65500000D01*
X120702380Y-65738095D01*
X145452380Y-107238095D02*
X146452380Y-106904761D01*
X145452380Y-106571428D01*
X146547619Y-106476190D02*
X146547619Y-105714285D01*
X145500000Y-104952380D02*
X145452380Y-105047619D01*
X145452380Y-105190476D01*
X145500000Y-105333333D01*
X145595238Y-105428571D01*
X145690476Y-105476190D01*
X145880952Y-105523809D01*
X146023809Y-105523809D01*
X146214285Y-105476190D01*
X146309523Y-105428571D01*
X146404761Y-105333333D01*
X146452380Y-105190476D01*
X146452380Y-105095238D01*
X146404761Y-104952380D01*
X146357142Y-104904761D01*
X146023809Y-104904761D01*
X146023809Y-105095238D01*
X146452380Y-104476190D02*
X145452380Y-104476190D01*
X146452380Y-103904761D01*
X145452380Y-103904761D01*
X146452380Y-103428571D02*
X145452380Y-103428571D01*
X145452380Y-103190476D01*
X145500000Y-103047619D01*
X145595238Y-102952380D01*
X145690476Y-102904761D01*
X145880952Y-102857142D01*
X146023809Y-102857142D01*
X146214285Y-102904761D01*
X146309523Y-102952380D01*
X146404761Y-103047619D01*
X146452380Y-103190476D01*
X146452380Y-103428571D01*
X152285714Y-86928571D02*
X152357142Y-86857142D01*
X152428571Y-86642857D01*
X152428571Y-86500000D01*
X152357142Y-86285714D01*
X152214285Y-86142857D01*
X152071428Y-86071428D01*
X151785714Y-86000000D01*
X151571428Y-86000000D01*
X151285714Y-86071428D01*
X151142857Y-86142857D01*
X151000000Y-86285714D01*
X150928571Y-86500000D01*
X150928571Y-86642857D01*
X151000000Y-86857142D01*
X151071428Y-86928571D01*
X152428571Y-87571428D02*
X150928571Y-87571428D01*
X152428571Y-88214285D02*
X151642857Y-88214285D01*
X151500000Y-88142857D01*
X151428571Y-88000000D01*
X151428571Y-87785714D01*
X151500000Y-87642857D01*
X151571428Y-87571428D01*
X152428571Y-89571428D02*
X151642857Y-89571428D01*
X151500000Y-89500000D01*
X151428571Y-89357142D01*
X151428571Y-89071428D01*
X151500000Y-88928571D01*
X152357142Y-89571428D02*
X152428571Y-89428571D01*
X152428571Y-89071428D01*
X152357142Y-88928571D01*
X152214285Y-88857142D01*
X152071428Y-88857142D01*
X151928571Y-88928571D01*
X151857142Y-89071428D01*
X151857142Y-89428571D01*
X151785714Y-89571428D01*
X151428571Y-90285714D02*
X152428571Y-90285714D01*
X151571428Y-90285714D02*
X151500000Y-90357142D01*
X151428571Y-90500000D01*
X151428571Y-90714285D01*
X151500000Y-90857142D01*
X151642857Y-90928571D01*
X152428571Y-90928571D01*
X151428571Y-91642857D02*
X152428571Y-91642857D01*
X151571428Y-91642857D02*
X151500000Y-91714285D01*
X151428571Y-91857142D01*
X151428571Y-92071428D01*
X151500000Y-92214285D01*
X151642857Y-92285714D01*
X152428571Y-92285714D01*
X152357142Y-93571428D02*
X152428571Y-93428571D01*
X152428571Y-93142857D01*
X152357142Y-93000000D01*
X152214285Y-92928571D01*
X151642857Y-92928571D01*
X151500000Y-93000000D01*
X151428571Y-93142857D01*
X151428571Y-93428571D01*
X151500000Y-93571428D01*
X151642857Y-93642857D01*
X151785714Y-93642857D01*
X151928571Y-92928571D01*
X152428571Y-94500000D02*
X152357142Y-94357142D01*
X152214285Y-94285714D01*
X150928571Y-94285714D01*
X152428571Y-97000000D02*
X152428571Y-96142857D01*
X152428571Y-96571428D02*
X150928571Y-96571428D01*
X151142857Y-96428571D01*
X151285714Y-96285714D01*
X151357142Y-96142857D01*
X152285714Y-67928571D02*
X152357142Y-67857142D01*
X152428571Y-67642857D01*
X152428571Y-67500000D01*
X152357142Y-67285714D01*
X152214285Y-67142857D01*
X152071428Y-67071428D01*
X151785714Y-67000000D01*
X151571428Y-67000000D01*
X151285714Y-67071428D01*
X151142857Y-67142857D01*
X151000000Y-67285714D01*
X150928571Y-67500000D01*
X150928571Y-67642857D01*
X151000000Y-67857142D01*
X151071428Y-67928571D01*
X152428571Y-68571428D02*
X150928571Y-68571428D01*
X152428571Y-69214285D02*
X151642857Y-69214285D01*
X151500000Y-69142857D01*
X151428571Y-69000000D01*
X151428571Y-68785714D01*
X151500000Y-68642857D01*
X151571428Y-68571428D01*
X152428571Y-70571428D02*
X151642857Y-70571428D01*
X151500000Y-70500000D01*
X151428571Y-70357142D01*
X151428571Y-70071428D01*
X151500000Y-69928571D01*
X152357142Y-70571428D02*
X152428571Y-70428571D01*
X152428571Y-70071428D01*
X152357142Y-69928571D01*
X152214285Y-69857142D01*
X152071428Y-69857142D01*
X151928571Y-69928571D01*
X151857142Y-70071428D01*
X151857142Y-70428571D01*
X151785714Y-70571428D01*
X151428571Y-71285714D02*
X152428571Y-71285714D01*
X151571428Y-71285714D02*
X151500000Y-71357142D01*
X151428571Y-71500000D01*
X151428571Y-71714285D01*
X151500000Y-71857142D01*
X151642857Y-71928571D01*
X152428571Y-71928571D01*
X151428571Y-72642857D02*
X152428571Y-72642857D01*
X151571428Y-72642857D02*
X151500000Y-72714285D01*
X151428571Y-72857142D01*
X151428571Y-73071428D01*
X151500000Y-73214285D01*
X151642857Y-73285714D01*
X152428571Y-73285714D01*
X152357142Y-74571428D02*
X152428571Y-74428571D01*
X152428571Y-74142857D01*
X152357142Y-74000000D01*
X152214285Y-73928571D01*
X151642857Y-73928571D01*
X151500000Y-74000000D01*
X151428571Y-74142857D01*
X151428571Y-74428571D01*
X151500000Y-74571428D01*
X151642857Y-74642857D01*
X151785714Y-74642857D01*
X151928571Y-73928571D01*
X152428571Y-75500000D02*
X152357142Y-75357142D01*
X152214285Y-75285714D01*
X150928571Y-75285714D01*
X151071428Y-77142857D02*
X151000000Y-77214285D01*
X150928571Y-77357142D01*
X150928571Y-77714285D01*
X151000000Y-77857142D01*
X151071428Y-77928571D01*
X151214285Y-78000000D01*
X151357142Y-78000000D01*
X151571428Y-77928571D01*
X152428571Y-77071428D01*
X152428571Y-78000000D01*
X108464285Y-103321428D02*
X108392857Y-103392857D01*
X108321428Y-103607142D01*
X108321428Y-103750000D01*
X108392857Y-103964285D01*
X108535714Y-104107142D01*
X108678571Y-104178571D01*
X108964285Y-104250000D01*
X109178571Y-104250000D01*
X109464285Y-104178571D01*
X109607142Y-104107142D01*
X109750000Y-103964285D01*
X109821428Y-103750000D01*
X109821428Y-103607142D01*
X109750000Y-103392857D01*
X109678571Y-103321428D01*
X108321428Y-102678571D02*
X109821428Y-102678571D01*
X108321428Y-102035714D02*
X109107142Y-102035714D01*
X109250000Y-102107142D01*
X109321428Y-102250000D01*
X109321428Y-102464285D01*
X109250000Y-102607142D01*
X109178571Y-102678571D01*
X108321428Y-100678571D02*
X109107142Y-100678571D01*
X109250000Y-100750000D01*
X109321428Y-100892857D01*
X109321428Y-101178571D01*
X109250000Y-101321428D01*
X108392857Y-100678571D02*
X108321428Y-100821428D01*
X108321428Y-101178571D01*
X108392857Y-101321428D01*
X108535714Y-101392857D01*
X108678571Y-101392857D01*
X108821428Y-101321428D01*
X108892857Y-101178571D01*
X108892857Y-100821428D01*
X108964285Y-100678571D01*
X109321428Y-99964285D02*
X108321428Y-99964285D01*
X109178571Y-99964285D02*
X109250000Y-99892857D01*
X109321428Y-99750000D01*
X109321428Y-99535714D01*
X109250000Y-99392857D01*
X109107142Y-99321428D01*
X108321428Y-99321428D01*
X109321428Y-98607142D02*
X108321428Y-98607142D01*
X109178571Y-98607142D02*
X109250000Y-98535714D01*
X109321428Y-98392857D01*
X109321428Y-98178571D01*
X109250000Y-98035714D01*
X109107142Y-97964285D01*
X108321428Y-97964285D01*
X108392857Y-96678571D02*
X108321428Y-96821428D01*
X108321428Y-97107142D01*
X108392857Y-97250000D01*
X108535714Y-97321428D01*
X109107142Y-97321428D01*
X109250000Y-97250000D01*
X109321428Y-97107142D01*
X109321428Y-96821428D01*
X109250000Y-96678571D01*
X109107142Y-96607142D01*
X108964285Y-96607142D01*
X108821428Y-97321428D01*
X108321428Y-95750000D02*
X108392857Y-95892857D01*
X108535714Y-95964285D01*
X109821428Y-95964285D01*
X109321428Y-93392857D02*
X108321428Y-93392857D01*
X109892857Y-93750000D02*
X108821428Y-94107142D01*
X108821428Y-93178571D01*
X108714285Y-84321428D02*
X108642857Y-84392857D01*
X108571428Y-84607142D01*
X108571428Y-84750000D01*
X108642857Y-84964285D01*
X108785714Y-85107142D01*
X108928571Y-85178571D01*
X109214285Y-85250000D01*
X109428571Y-85250000D01*
X109714285Y-85178571D01*
X109857142Y-85107142D01*
X110000000Y-84964285D01*
X110071428Y-84750000D01*
X110071428Y-84607142D01*
X110000000Y-84392857D01*
X109928571Y-84321428D01*
X108571428Y-83678571D02*
X110071428Y-83678571D01*
X108571428Y-83035714D02*
X109357142Y-83035714D01*
X109500000Y-83107142D01*
X109571428Y-83250000D01*
X109571428Y-83464285D01*
X109500000Y-83607142D01*
X109428571Y-83678571D01*
X108571428Y-81678571D02*
X109357142Y-81678571D01*
X109500000Y-81750000D01*
X109571428Y-81892857D01*
X109571428Y-82178571D01*
X109500000Y-82321428D01*
X108642857Y-81678571D02*
X108571428Y-81821428D01*
X108571428Y-82178571D01*
X108642857Y-82321428D01*
X108785714Y-82392857D01*
X108928571Y-82392857D01*
X109071428Y-82321428D01*
X109142857Y-82178571D01*
X109142857Y-81821428D01*
X109214285Y-81678571D01*
X109571428Y-80964285D02*
X108571428Y-80964285D01*
X109428571Y-80964285D02*
X109500000Y-80892857D01*
X109571428Y-80750000D01*
X109571428Y-80535714D01*
X109500000Y-80392857D01*
X109357142Y-80321428D01*
X108571428Y-80321428D01*
X109571428Y-79607142D02*
X108571428Y-79607142D01*
X109428571Y-79607142D02*
X109500000Y-79535714D01*
X109571428Y-79392857D01*
X109571428Y-79178571D01*
X109500000Y-79035714D01*
X109357142Y-78964285D01*
X108571428Y-78964285D01*
X108642857Y-77678571D02*
X108571428Y-77821428D01*
X108571428Y-78107142D01*
X108642857Y-78250000D01*
X108785714Y-78321428D01*
X109357142Y-78321428D01*
X109500000Y-78250000D01*
X109571428Y-78107142D01*
X109571428Y-77821428D01*
X109500000Y-77678571D01*
X109357142Y-77607142D01*
X109214285Y-77607142D01*
X109071428Y-78321428D01*
X108571428Y-76750000D02*
X108642857Y-76892857D01*
X108785714Y-76964285D01*
X110071428Y-76964285D01*
X110071428Y-75178571D02*
X110071428Y-74250000D01*
X109500000Y-74750000D01*
X109500000Y-74535714D01*
X109428571Y-74392857D01*
X109357142Y-74321428D01*
X109214285Y-74250000D01*
X108857142Y-74250000D01*
X108714285Y-74321428D01*
X108642857Y-74392857D01*
X108571428Y-74535714D01*
X108571428Y-74964285D01*
X108642857Y-75107142D01*
X108714285Y-75178571D01*
X169252380Y-98437619D02*
X170252380Y-98770952D01*
X169252380Y-99104285D01*
X170252380Y-99437619D02*
X169252380Y-99437619D01*
X170252380Y-99913809D02*
X169252380Y-99913809D01*
X170252380Y-100485238D01*
X169252380Y-100485238D01*
X170252380Y-102247142D02*
X170252380Y-101675714D01*
X170252380Y-101961428D02*
X169252380Y-101961428D01*
X169395238Y-101866190D01*
X169490476Y-101770952D01*
X169538095Y-101675714D01*
X169312380Y-88120952D02*
X170312380Y-88454285D01*
X169312380Y-88787619D01*
X169312380Y-89311428D02*
X169312380Y-89501904D01*
X169360000Y-89597142D01*
X169455238Y-89692380D01*
X169645714Y-89740000D01*
X169979047Y-89740000D01*
X170169523Y-89692380D01*
X170264761Y-89597142D01*
X170312380Y-89501904D01*
X170312380Y-89311428D01*
X170264761Y-89216190D01*
X170169523Y-89120952D01*
X169979047Y-89073333D01*
X169645714Y-89073333D01*
X169455238Y-89120952D01*
X169360000Y-89216190D01*
X169312380Y-89311428D01*
X169312380Y-90168571D02*
X170121904Y-90168571D01*
X170217142Y-90216190D01*
X170264761Y-90263809D01*
X170312380Y-90359047D01*
X170312380Y-90549523D01*
X170264761Y-90644761D01*
X170217142Y-90692380D01*
X170121904Y-90740000D01*
X169312380Y-90740000D01*
X169312380Y-91073333D02*
X169312380Y-91644761D01*
X170312380Y-91359047D02*
X169312380Y-91359047D01*
X170312380Y-93263809D02*
X170312380Y-92692380D01*
X170312380Y-92978095D02*
X169312380Y-92978095D01*
X169455238Y-92882857D01*
X169550476Y-92787619D01*
X169598095Y-92692380D01*
X169362380Y-79027619D02*
X170362380Y-79360952D01*
X169362380Y-79694285D01*
X170362380Y-80027619D02*
X169362380Y-80027619D01*
X170362380Y-80503809D02*
X169362380Y-80503809D01*
X170362380Y-81075238D01*
X169362380Y-81075238D01*
X169457619Y-82265714D02*
X169410000Y-82313333D01*
X169362380Y-82408571D01*
X169362380Y-82646666D01*
X169410000Y-82741904D01*
X169457619Y-82789523D01*
X169552857Y-82837142D01*
X169648095Y-82837142D01*
X169790952Y-82789523D01*
X170362380Y-82218095D01*
X170362380Y-82837142D01*
X169422380Y-68710952D02*
X170422380Y-69044285D01*
X169422380Y-69377619D01*
X169422380Y-69901428D02*
X169422380Y-70091904D01*
X169470000Y-70187142D01*
X169565238Y-70282380D01*
X169755714Y-70330000D01*
X170089047Y-70330000D01*
X170279523Y-70282380D01*
X170374761Y-70187142D01*
X170422380Y-70091904D01*
X170422380Y-69901428D01*
X170374761Y-69806190D01*
X170279523Y-69710952D01*
X170089047Y-69663333D01*
X169755714Y-69663333D01*
X169565238Y-69710952D01*
X169470000Y-69806190D01*
X169422380Y-69901428D01*
X169422380Y-70758571D02*
X170231904Y-70758571D01*
X170327142Y-70806190D01*
X170374761Y-70853809D01*
X170422380Y-70949047D01*
X170422380Y-71139523D01*
X170374761Y-71234761D01*
X170327142Y-71282380D01*
X170231904Y-71330000D01*
X169422380Y-71330000D01*
X169422380Y-71663333D02*
X169422380Y-72234761D01*
X170422380Y-71949047D02*
X169422380Y-71949047D01*
X169517619Y-73282380D02*
X169470000Y-73330000D01*
X169422380Y-73425238D01*
X169422380Y-73663333D01*
X169470000Y-73758571D01*
X169517619Y-73806190D01*
X169612857Y-73853809D01*
X169708095Y-73853809D01*
X169850952Y-73806190D01*
X170422380Y-73234761D01*
X170422380Y-73853809D01*
X91357619Y-91912380D02*
X90357619Y-91579047D01*
X91357619Y-91245714D01*
X90357619Y-90912380D02*
X91357619Y-90912380D01*
X90357619Y-90436190D02*
X91357619Y-90436190D01*
X90357619Y-89864761D01*
X91357619Y-89864761D01*
X91024285Y-88198095D02*
X90357619Y-88198095D01*
X91405238Y-88436190D02*
X90690952Y-88674285D01*
X90690952Y-88055238D01*
X91297619Y-102229047D02*
X90297619Y-101895714D01*
X91297619Y-101562380D01*
X91297619Y-101038571D02*
X91297619Y-100848095D01*
X91250000Y-100752857D01*
X91154761Y-100657619D01*
X90964285Y-100610000D01*
X90630952Y-100610000D01*
X90440476Y-100657619D01*
X90345238Y-100752857D01*
X90297619Y-100848095D01*
X90297619Y-101038571D01*
X90345238Y-101133809D01*
X90440476Y-101229047D01*
X90630952Y-101276666D01*
X90964285Y-101276666D01*
X91154761Y-101229047D01*
X91250000Y-101133809D01*
X91297619Y-101038571D01*
X91297619Y-100181428D02*
X90488095Y-100181428D01*
X90392857Y-100133809D01*
X90345238Y-100086190D01*
X90297619Y-99990952D01*
X90297619Y-99800476D01*
X90345238Y-99705238D01*
X90392857Y-99657619D01*
X90488095Y-99610000D01*
X91297619Y-99610000D01*
X91297619Y-99276666D02*
X91297619Y-98705238D01*
X90297619Y-98990952D02*
X91297619Y-98990952D01*
X90964285Y-97181428D02*
X90297619Y-97181428D01*
X91345238Y-97419523D02*
X90630952Y-97657619D01*
X90630952Y-97038571D01*
X91397619Y-83879047D02*
X90397619Y-83545714D01*
X91397619Y-83212380D01*
X91397619Y-82688571D02*
X91397619Y-82498095D01*
X91350000Y-82402857D01*
X91254761Y-82307619D01*
X91064285Y-82260000D01*
X90730952Y-82260000D01*
X90540476Y-82307619D01*
X90445238Y-82402857D01*
X90397619Y-82498095D01*
X90397619Y-82688571D01*
X90445238Y-82783809D01*
X90540476Y-82879047D01*
X90730952Y-82926666D01*
X91064285Y-82926666D01*
X91254761Y-82879047D01*
X91350000Y-82783809D01*
X91397619Y-82688571D01*
X91397619Y-81831428D02*
X90588095Y-81831428D01*
X90492857Y-81783809D01*
X90445238Y-81736190D01*
X90397619Y-81640952D01*
X90397619Y-81450476D01*
X90445238Y-81355238D01*
X90492857Y-81307619D01*
X90588095Y-81260000D01*
X91397619Y-81260000D01*
X91397619Y-80926666D02*
X91397619Y-80355238D01*
X90397619Y-80640952D02*
X91397619Y-80640952D01*
X91397619Y-79355238D02*
X91397619Y-78736190D01*
X91016666Y-79069523D01*
X91016666Y-78926666D01*
X90969047Y-78831428D01*
X90921428Y-78783809D01*
X90826190Y-78736190D01*
X90588095Y-78736190D01*
X90492857Y-78783809D01*
X90445238Y-78831428D01*
X90397619Y-78926666D01*
X90397619Y-79212380D01*
X90445238Y-79307619D01*
X90492857Y-79355238D01*
X91457619Y-73562380D02*
X90457619Y-73229047D01*
X91457619Y-72895714D01*
X90457619Y-72562380D02*
X91457619Y-72562380D01*
X90457619Y-72086190D02*
X91457619Y-72086190D01*
X90457619Y-71514761D01*
X91457619Y-71514761D01*
X91457619Y-70371904D02*
X91457619Y-69752857D01*
X91076666Y-70086190D01*
X91076666Y-69943333D01*
X91029047Y-69848095D01*
X90981428Y-69800476D01*
X90886190Y-69752857D01*
X90648095Y-69752857D01*
X90552857Y-69800476D01*
X90505238Y-69848095D01*
X90457619Y-69943333D01*
X90457619Y-70229047D01*
X90505238Y-70324285D01*
X90552857Y-70371904D01*
D12*
X89000000Y-105978147D02*
G75*
G02*
X97400000Y-112500000I0J-8670432D01*
G01*
X97400000Y-112500000D02*
X127000000Y-112500000D01*
X89000000Y-103000000D02*
X89000000Y-105978147D01*
X153000000Y-112500000D02*
X169891435Y-112499765D01*
X171989592Y-63010408D02*
X172000000Y-109000000D01*
X153000000Y-112500000D02*
X153000000Y-112500000D01*
X127000000Y-112500000D02*
X153000000Y-112500000D01*
X169891436Y-112499765D02*
G75*
G02*
X172000000Y-109000000I8108564J-2500235D01*
G01*
X171989592Y-63010408D02*
G75*
G02*
X169500000Y-57000000I6010408J6010408D01*
G01*
X97500000Y-57000000D02*
G75*
G02*
X89000000Y-65500000I-8500000J0D01*
G01*
X169500000Y-57000000D02*
X97500000Y-57000000D01*
X89000000Y-65500000D02*
X89000000Y-103000000D01*
D13*
X167000000Y-62500000D02*
X149250000Y-62500000D01*
X167000000Y-57500000D02*
X167000000Y-62500000D01*
X149250000Y-57500000D02*
X167000000Y-57500000D01*
X149250000Y-62500000D02*
X149250000Y-57500000D01*
X129000000Y-57500000D02*
X129000000Y-60000000D01*
X144250000Y-57500000D02*
X129000000Y-57500000D01*
X144250000Y-60000000D02*
X144250000Y-57500000D01*
X129000000Y-60000000D02*
X144250000Y-60000000D01*
X128750000Y-60000000D02*
X118750000Y-60000000D01*
X128750000Y-62500000D02*
X128750000Y-60000000D01*
X118750000Y-62500000D02*
X128750000Y-62500000D01*
X118750000Y-60000000D02*
X118750000Y-62500000D01*
X167000000Y-62750000D02*
X149250000Y-62750000D01*
X144250000Y-63000000D02*
X129000000Y-63000000D01*
D14*
X178000000Y-65485281D02*
G75*
G02*
X172000000Y-63000000I0J8485281D01*
G01*
D11*
X174850000Y-88507142D02*
X174850000Y-87792857D01*
X174421428Y-88650000D02*
X175921428Y-88150000D01*
X174421428Y-87650000D01*
X174421428Y-87150000D02*
X175921428Y-87150000D01*
X174421428Y-86292857D01*
X175921428Y-86292857D01*
X175921428Y-85792857D02*
X175921428Y-84935714D01*
X174421428Y-85364285D02*
X175921428Y-85364285D01*
X175207142Y-84435714D02*
X175207142Y-83935714D01*
X174421428Y-83721428D02*
X174421428Y-84435714D01*
X175921428Y-84435714D01*
X175921428Y-83721428D01*
X174421428Y-83078571D02*
X175921428Y-83078571D01*
X174421428Y-82221428D01*
X175921428Y-82221428D01*
X174421428Y-81507142D02*
X175921428Y-81507142D01*
X174421428Y-80650000D01*
X175921428Y-80650000D01*
X174850000Y-80007142D02*
X174850000Y-79292857D01*
X174421428Y-80150000D02*
X175921428Y-79650000D01*
X174421428Y-79150000D01*
X174992857Y-78650000D02*
X174992857Y-77507142D01*
X174421428Y-76792857D02*
X175921428Y-76792857D01*
X174421428Y-75935714D02*
X175278571Y-76578571D01*
X175921428Y-75935714D02*
X175064285Y-76792857D01*
X175207142Y-75292857D02*
X175207142Y-74792857D01*
X174421428Y-74578571D02*
X174421428Y-75292857D01*
X175921428Y-75292857D01*
X175921428Y-74578571D01*
X175207142Y-73935714D02*
X175207142Y-73435714D01*
X174421428Y-73221428D02*
X174421428Y-73935714D01*
X175921428Y-73935714D01*
X175921428Y-73221428D01*
X174421428Y-72578571D02*
X175921428Y-72578571D01*
X175921428Y-72007142D01*
X175850000Y-71864285D01*
X175778571Y-71792857D01*
X175635714Y-71721428D01*
X175421428Y-71721428D01*
X175278571Y-71792857D01*
X175207142Y-71864285D01*
X175135714Y-72007142D01*
X175135714Y-72578571D01*
X175921428Y-69650000D02*
X175921428Y-69364285D01*
X175850000Y-69221428D01*
X175707142Y-69078571D01*
X175421428Y-69007142D01*
X174921428Y-69007142D01*
X174635714Y-69078571D01*
X174492857Y-69221428D01*
X174421428Y-69364285D01*
X174421428Y-69650000D01*
X174492857Y-69792857D01*
X174635714Y-69935714D01*
X174921428Y-70007142D01*
X175421428Y-70007142D01*
X175707142Y-69935714D01*
X175850000Y-69792857D01*
X175921428Y-69650000D01*
X175921428Y-68364285D02*
X174707142Y-68364285D01*
X174564285Y-68292857D01*
X174492857Y-68221428D01*
X174421428Y-68078571D01*
X174421428Y-67792857D01*
X174492857Y-67650000D01*
X174564285Y-67578571D01*
X174707142Y-67507142D01*
X175921428Y-67507142D01*
X175921428Y-67007142D02*
X175921428Y-66150000D01*
X174421428Y-66578571D02*
X175921428Y-66578571D01*
D13*
X172000000Y-89000000D02*
X173000000Y-90000000D01*
X172000000Y-87000000D02*
X175000000Y-90000000D01*
X172000000Y-85000000D02*
X177000000Y-90000000D01*
X172000000Y-83000000D02*
X178000000Y-89000000D01*
X172000000Y-81000000D02*
X178000000Y-87000000D01*
X172000000Y-79000000D02*
X178000000Y-85000000D01*
X172000000Y-77000000D02*
X178000000Y-83000000D01*
X172000000Y-75000000D02*
X178000000Y-81000000D01*
X172000000Y-73000000D02*
X178000000Y-79000000D01*
X172000000Y-71000000D02*
X178000000Y-77000000D01*
X172000000Y-69000000D02*
X178000000Y-75000000D01*
X172000000Y-67000000D02*
X178000000Y-73000000D01*
X172000000Y-65000000D02*
X178000000Y-71000000D01*
X172000000Y-63000000D02*
X178000000Y-69000000D01*
X176350000Y-65350000D02*
X178000000Y-67000000D01*
X178000000Y-90000000D02*
X178000000Y-65550000D01*
X172000000Y-90000000D02*
X178000000Y-90000000D01*
X172000000Y-63000000D02*
X172000000Y-90000000D01*
D10*
X114428571Y-105585714D02*
X114428571Y-106252380D01*
X114666666Y-105204761D02*
X114904761Y-105919047D01*
X114285714Y-105919047D01*
X112571428Y-106157142D02*
X112619047Y-106204761D01*
X112761904Y-106252380D01*
X112857142Y-106252380D01*
X113000000Y-106204761D01*
X113095238Y-106109523D01*
X113142857Y-106014285D01*
X113190476Y-105823809D01*
X113190476Y-105680952D01*
X113142857Y-105490476D01*
X113095238Y-105395238D01*
X113000000Y-105300000D01*
X112857142Y-105252380D01*
X112761904Y-105252380D01*
X112619047Y-105300000D01*
X112571428Y-105347619D01*
X112142857Y-106252380D02*
X112142857Y-105252380D01*
X111714285Y-106252380D02*
X111714285Y-105728571D01*
X111761904Y-105633333D01*
X111857142Y-105585714D01*
X112000000Y-105585714D01*
X112095238Y-105633333D01*
X112142857Y-105680952D01*
X110809523Y-106252380D02*
X110809523Y-105728571D01*
X110857142Y-105633333D01*
X110952380Y-105585714D01*
X111142857Y-105585714D01*
X111238095Y-105633333D01*
X110809523Y-106204761D02*
X110904761Y-106252380D01*
X111142857Y-106252380D01*
X111238095Y-106204761D01*
X111285714Y-106109523D01*
X111285714Y-106014285D01*
X111238095Y-105919047D01*
X111142857Y-105871428D01*
X110904761Y-105871428D01*
X110809523Y-105823809D01*
X110333333Y-105585714D02*
X110333333Y-106252380D01*
X110333333Y-105680952D02*
X110285714Y-105633333D01*
X110190476Y-105585714D01*
X110047619Y-105585714D01*
X109952380Y-105633333D01*
X109904761Y-105728571D01*
X109904761Y-106252380D01*
X109428571Y-105585714D02*
X109428571Y-106252380D01*
X109428571Y-105680952D02*
X109380952Y-105633333D01*
X109285714Y-105585714D01*
X109142857Y-105585714D01*
X109047619Y-105633333D01*
X109000000Y-105728571D01*
X109000000Y-106252380D01*
X108142857Y-106204761D02*
X108238095Y-106252380D01*
X108428571Y-106252380D01*
X108523809Y-106204761D01*
X108571428Y-106109523D01*
X108571428Y-105728571D01*
X108523809Y-105633333D01*
X108428571Y-105585714D01*
X108238095Y-105585714D01*
X108142857Y-105633333D01*
X108095238Y-105728571D01*
X108095238Y-105823809D01*
X108571428Y-105919047D01*
X107523809Y-106252380D02*
X107619047Y-106204761D01*
X107666666Y-106109523D01*
X107666666Y-105252380D01*
X106380952Y-106252380D02*
X106380952Y-105252380D01*
X106000000Y-105252380D01*
X105904761Y-105300000D01*
X105857142Y-105347619D01*
X105809523Y-105442857D01*
X105809523Y-105585714D01*
X105857142Y-105680952D01*
X105904761Y-105728571D01*
X106000000Y-105776190D01*
X106380952Y-105776190D01*
X105238095Y-106252380D02*
X105333333Y-106204761D01*
X105380952Y-106157142D01*
X105428571Y-106061904D01*
X105428571Y-105776190D01*
X105380952Y-105680952D01*
X105333333Y-105633333D01*
X105238095Y-105585714D01*
X105095238Y-105585714D01*
X105000000Y-105633333D01*
X104952380Y-105680952D01*
X104904761Y-105776190D01*
X104904761Y-106061904D01*
X104952380Y-106157142D01*
X105000000Y-106204761D01*
X105095238Y-106252380D01*
X105238095Y-106252380D01*
X104571428Y-105585714D02*
X104380952Y-106252380D01*
X104190476Y-105776190D01*
X104000000Y-106252380D01*
X103809523Y-105585714D01*
X103047619Y-106204761D02*
X103142857Y-106252380D01*
X103333333Y-106252380D01*
X103428571Y-106204761D01*
X103476190Y-106109523D01*
X103476190Y-105728571D01*
X103428571Y-105633333D01*
X103333333Y-105585714D01*
X103142857Y-105585714D01*
X103047619Y-105633333D01*
X103000000Y-105728571D01*
X103000000Y-105823809D01*
X103476190Y-105919047D01*
X102571428Y-106252380D02*
X102571428Y-105585714D01*
X102571428Y-105776190D02*
X102523809Y-105680952D01*
X102476190Y-105633333D01*
X102380952Y-105585714D01*
X102285714Y-105585714D01*
X100857142Y-105728571D02*
X101190476Y-105728571D01*
X101190476Y-106252380D02*
X101190476Y-105252380D01*
X100714285Y-105252380D01*
X100333333Y-105728571D02*
X100000000Y-105728571D01*
X99857142Y-106252380D02*
X100333333Y-106252380D01*
X100333333Y-105252380D01*
X99857142Y-105252380D01*
X99571428Y-105252380D02*
X99000000Y-105252380D01*
X99285714Y-106252380D02*
X99285714Y-105252380D01*
X115261904Y-106952380D02*
X114690476Y-106952380D01*
X114976190Y-107952380D02*
X114976190Y-106952380D01*
X114214285Y-107952380D02*
X114309523Y-107904761D01*
X114357142Y-107857142D01*
X114404761Y-107761904D01*
X114404761Y-107476190D01*
X114357142Y-107380952D01*
X114309523Y-107333333D01*
X114214285Y-107285714D01*
X114071428Y-107285714D01*
X113976190Y-107333333D01*
X113928571Y-107380952D01*
X113880952Y-107476190D01*
X113880952Y-107761904D01*
X113928571Y-107857142D01*
X113976190Y-107904761D01*
X114071428Y-107952380D01*
X114214285Y-107952380D01*
X113452380Y-107285714D02*
X113452380Y-108285714D01*
X113452380Y-107333333D02*
X113357142Y-107285714D01*
X113166666Y-107285714D01*
X113071428Y-107333333D01*
X113023809Y-107380952D01*
X112976190Y-107476190D01*
X112976190Y-107761904D01*
X113023809Y-107857142D01*
X113071428Y-107904761D01*
X113166666Y-107952380D01*
X113357142Y-107952380D01*
X113452380Y-107904761D01*
X112547619Y-107952380D02*
X112547619Y-106952380D01*
X112547619Y-107428571D02*
X111976190Y-107428571D01*
X111976190Y-107952380D02*
X111976190Y-106952380D01*
X111071428Y-107952380D02*
X111071428Y-107428571D01*
X111119047Y-107333333D01*
X111214285Y-107285714D01*
X111404761Y-107285714D01*
X111500000Y-107333333D01*
X111071428Y-107904761D02*
X111166666Y-107952380D01*
X111404761Y-107952380D01*
X111500000Y-107904761D01*
X111547619Y-107809523D01*
X111547619Y-107714285D01*
X111500000Y-107619047D01*
X111404761Y-107571428D01*
X111166666Y-107571428D01*
X111071428Y-107523809D01*
X110738095Y-107285714D02*
X110357142Y-107285714D01*
X110595238Y-106952380D02*
X110595238Y-107809523D01*
X110547619Y-107904761D01*
X110452380Y-107952380D01*
X110357142Y-107952380D01*
X109404761Y-107285714D02*
X109023809Y-107285714D01*
X109261904Y-107952380D02*
X109261904Y-107095238D01*
X109214285Y-107000000D01*
X109119047Y-106952380D01*
X109023809Y-106952380D01*
X108547619Y-107952380D02*
X108642857Y-107904761D01*
X108690476Y-107857142D01*
X108738095Y-107761904D01*
X108738095Y-107476190D01*
X108690476Y-107380952D01*
X108642857Y-107333333D01*
X108547619Y-107285714D01*
X108404761Y-107285714D01*
X108309523Y-107333333D01*
X108261904Y-107380952D01*
X108214285Y-107476190D01*
X108214285Y-107761904D01*
X108261904Y-107857142D01*
X108309523Y-107904761D01*
X108404761Y-107952380D01*
X108547619Y-107952380D01*
X107785714Y-107952380D02*
X107785714Y-107285714D01*
X107785714Y-107476190D02*
X107738095Y-107380952D01*
X107690476Y-107333333D01*
X107595238Y-107285714D01*
X107500000Y-107285714D01*
X106452380Y-107904761D02*
X106309523Y-107952380D01*
X106071428Y-107952380D01*
X105976190Y-107904761D01*
X105928571Y-107857142D01*
X105880952Y-107761904D01*
X105880952Y-107666666D01*
X105928571Y-107571428D01*
X105976190Y-107523809D01*
X106071428Y-107476190D01*
X106261904Y-107428571D01*
X106357142Y-107380952D01*
X106404761Y-107333333D01*
X106452380Y-107238095D01*
X106452380Y-107142857D01*
X106404761Y-107047619D01*
X106357142Y-107000000D01*
X106261904Y-106952380D01*
X106023809Y-106952380D01*
X105880952Y-107000000D01*
X105452380Y-107952380D02*
X105452380Y-106952380D01*
X105452380Y-107428571D02*
X104880952Y-107428571D01*
X104880952Y-107952380D02*
X104880952Y-106952380D01*
X104404761Y-107571428D02*
X103642857Y-107571428D01*
X103166666Y-107428571D02*
X102833333Y-107428571D01*
X102690476Y-107952380D02*
X103166666Y-107952380D01*
X103166666Y-106952380D01*
X102690476Y-106952380D01*
X102309523Y-107904761D02*
X102166666Y-107952380D01*
X101928571Y-107952380D01*
X101833333Y-107904761D01*
X101785714Y-107857142D01*
X101738095Y-107761904D01*
X101738095Y-107666666D01*
X101785714Y-107571428D01*
X101833333Y-107523809D01*
X101928571Y-107476190D01*
X102119047Y-107428571D01*
X102214285Y-107380952D01*
X102261904Y-107333333D01*
X102309523Y-107238095D01*
X102309523Y-107142857D01*
X102261904Y-107047619D01*
X102214285Y-107000000D01*
X102119047Y-106952380D01*
X101880952Y-106952380D01*
X101738095Y-107000000D01*
X101309523Y-107952380D02*
X101309523Y-106952380D01*
X100928571Y-106952380D01*
X100833333Y-107000000D01*
X100785714Y-107047619D01*
X100738095Y-107142857D01*
X100738095Y-107285714D01*
X100785714Y-107380952D01*
X100833333Y-107428571D01*
X100928571Y-107476190D01*
X101309523Y-107476190D01*
X100404761Y-106952380D02*
X99785714Y-106952380D01*
X100119047Y-107333333D01*
X99976190Y-107333333D01*
X99880952Y-107380952D01*
X99833333Y-107428571D01*
X99785714Y-107523809D01*
X99785714Y-107761904D01*
X99833333Y-107857142D01*
X99880952Y-107904761D01*
X99976190Y-107952380D01*
X100261904Y-107952380D01*
X100357142Y-107904761D01*
X100404761Y-107857142D01*
X99404761Y-107047619D02*
X99357142Y-107000000D01*
X99261904Y-106952380D01*
X99023809Y-106952380D01*
X98928571Y-107000000D01*
X98880952Y-107047619D01*
X98833333Y-107142857D01*
X98833333Y-107238095D01*
X98880952Y-107380952D01*
X99452380Y-107952380D01*
X98833333Y-107952380D01*
X112357142Y-109128571D02*
X112214285Y-109176190D01*
X112166666Y-109223809D01*
X112119047Y-109319047D01*
X112119047Y-109461904D01*
X112166666Y-109557142D01*
X112214285Y-109604761D01*
X112309523Y-109652380D01*
X112690476Y-109652380D01*
X112690476Y-108652380D01*
X112357142Y-108652380D01*
X112261904Y-108700000D01*
X112214285Y-108747619D01*
X112166666Y-108842857D01*
X112166666Y-108938095D01*
X112214285Y-109033333D01*
X112261904Y-109080952D01*
X112357142Y-109128571D01*
X112690476Y-109128571D01*
X111785714Y-108985714D02*
X111547619Y-109652380D01*
X111309523Y-108985714D02*
X111547619Y-109652380D01*
X111642857Y-109890476D01*
X111690476Y-109938095D01*
X111785714Y-109985714D01*
X110166666Y-109652380D02*
X110166666Y-108652380D01*
X109833333Y-109366666D01*
X109500000Y-108652380D01*
X109500000Y-109652380D01*
X108595238Y-109652380D02*
X108595238Y-109128571D01*
X108642857Y-109033333D01*
X108738095Y-108985714D01*
X108928571Y-108985714D01*
X109023809Y-109033333D01*
X108595238Y-109604761D02*
X108690476Y-109652380D01*
X108928571Y-109652380D01*
X109023809Y-109604761D01*
X109071428Y-109509523D01*
X109071428Y-109414285D01*
X109023809Y-109319047D01*
X108928571Y-109271428D01*
X108690476Y-109271428D01*
X108595238Y-109223809D01*
X108119047Y-109652380D02*
X108119047Y-108985714D01*
X108119047Y-109176190D02*
X108071428Y-109080952D01*
X108023809Y-109033333D01*
X107928571Y-108985714D01*
X107833333Y-108985714D01*
X107500000Y-109652380D02*
X107500000Y-108652380D01*
X107404761Y-109271428D02*
X107119047Y-109652380D01*
X107119047Y-108985714D02*
X107500000Y-109366666D01*
X105595238Y-109128571D02*
X105928571Y-109128571D01*
X105928571Y-109652380D02*
X105928571Y-108652380D01*
X105452380Y-108652380D01*
X104642857Y-109652380D02*
X104642857Y-109128571D01*
X104690476Y-109033333D01*
X104785714Y-108985714D01*
X104976190Y-108985714D01*
X105071428Y-109033333D01*
X104642857Y-109604761D02*
X104738095Y-109652380D01*
X104976190Y-109652380D01*
X105071428Y-109604761D01*
X105119047Y-109509523D01*
X105119047Y-109414285D01*
X105071428Y-109319047D01*
X104976190Y-109271428D01*
X104738095Y-109271428D01*
X104642857Y-109223809D01*
X104166666Y-109652380D02*
X104166666Y-108985714D01*
X104166666Y-109176190D02*
X104119047Y-109080952D01*
X104071428Y-109033333D01*
X103976190Y-108985714D01*
X103880952Y-108985714D01*
X103547619Y-108985714D02*
X103547619Y-109652380D01*
X103547619Y-109080952D02*
X103500000Y-109033333D01*
X103404761Y-108985714D01*
X103261904Y-108985714D01*
X103166666Y-109033333D01*
X103119047Y-109128571D01*
X103119047Y-109652380D01*
X102214285Y-109652380D02*
X102214285Y-109128571D01*
X102261904Y-109033333D01*
X102357142Y-108985714D01*
X102547619Y-108985714D01*
X102642857Y-109033333D01*
X102214285Y-109604761D02*
X102309523Y-109652380D01*
X102547619Y-109652380D01*
X102642857Y-109604761D01*
X102690476Y-109509523D01*
X102690476Y-109414285D01*
X102642857Y-109319047D01*
X102547619Y-109271428D01*
X102309523Y-109271428D01*
X102214285Y-109223809D01*
X101738095Y-108985714D02*
X101738095Y-109652380D01*
X101738095Y-109080952D02*
X101690476Y-109033333D01*
X101595238Y-108985714D01*
X101452380Y-108985714D01*
X101357142Y-109033333D01*
X101309523Y-109128571D01*
X101309523Y-109652380D01*
D11*
X112071428Y-111452380D02*
X112404761Y-110976190D01*
X112642857Y-111452380D02*
X112642857Y-110452380D01*
X112261904Y-110452380D01*
X112166666Y-110500000D01*
X112119047Y-110547619D01*
X112071428Y-110642857D01*
X112071428Y-110785714D01*
X112119047Y-110880952D01*
X112166666Y-110928571D01*
X112261904Y-110976190D01*
X112642857Y-110976190D01*
X111261904Y-111404761D02*
X111357142Y-111452380D01*
X111547619Y-111452380D01*
X111642857Y-111404761D01*
X111690476Y-111309523D01*
X111690476Y-110928571D01*
X111642857Y-110833333D01*
X111547619Y-110785714D01*
X111357142Y-110785714D01*
X111261904Y-110833333D01*
X111214285Y-110928571D01*
X111214285Y-111023809D01*
X111690476Y-111119047D01*
X110880952Y-110785714D02*
X110642857Y-111452380D01*
X110404761Y-110785714D01*
X110023809Y-111452380D02*
X110023809Y-110785714D01*
X110023809Y-110452380D02*
X110071428Y-110500000D01*
X110023809Y-110547619D01*
X109976190Y-110500000D01*
X110023809Y-110452380D01*
X110023809Y-110547619D01*
X109595238Y-111404761D02*
X109500000Y-111452380D01*
X109309523Y-111452380D01*
X109214285Y-111404761D01*
X109166666Y-111309523D01*
X109166666Y-111261904D01*
X109214285Y-111166666D01*
X109309523Y-111119047D01*
X109452380Y-111119047D01*
X109547619Y-111071428D01*
X109595238Y-110976190D01*
X109595238Y-110928571D01*
X109547619Y-110833333D01*
X109452380Y-110785714D01*
X109309523Y-110785714D01*
X109214285Y-110833333D01*
X108738095Y-111452380D02*
X108738095Y-110785714D01*
X108738095Y-110452380D02*
X108785714Y-110500000D01*
X108738095Y-110547619D01*
X108690476Y-110500000D01*
X108738095Y-110452380D01*
X108738095Y-110547619D01*
X108119047Y-111452380D02*
X108214285Y-111404761D01*
X108261904Y-111357142D01*
X108309523Y-111261904D01*
X108309523Y-110976190D01*
X108261904Y-110880952D01*
X108214285Y-110833333D01*
X108119047Y-110785714D01*
X107976190Y-110785714D01*
X107880952Y-110833333D01*
X107833333Y-110880952D01*
X107785714Y-110976190D01*
X107785714Y-111261904D01*
X107833333Y-111357142D01*
X107880952Y-111404761D01*
X107976190Y-111452380D01*
X108119047Y-111452380D01*
X107357142Y-110785714D02*
X107357142Y-111452380D01*
X107357142Y-110880952D02*
X107309523Y-110833333D01*
X107214285Y-110785714D01*
X107071428Y-110785714D01*
X106976190Y-110833333D01*
X106928571Y-110928571D01*
X106928571Y-111452380D01*
X105500000Y-110452380D02*
X105404761Y-110452380D01*
X105309523Y-110500000D01*
X105261904Y-110547619D01*
X105214285Y-110642857D01*
X105166666Y-110833333D01*
X105166666Y-111071428D01*
X105214285Y-111261904D01*
X105261904Y-111357142D01*
X105309523Y-111404761D01*
X105404761Y-111452380D01*
X105500000Y-111452380D01*
X105595238Y-111404761D01*
X105642857Y-111357142D01*
X105690476Y-111261904D01*
X105738095Y-111071428D01*
X105738095Y-110833333D01*
X105690476Y-110642857D01*
X105642857Y-110547619D01*
X105595238Y-110500000D01*
X105500000Y-110452380D01*
X104738095Y-111357142D02*
X104690476Y-111404761D01*
X104738095Y-111452380D01*
X104785714Y-111404761D01*
X104738095Y-111357142D01*
X104738095Y-111452380D01*
X103738095Y-111452380D02*
X104309523Y-111452380D01*
X104023809Y-111452380D02*
X104023809Y-110452380D01*
X104119047Y-110595238D01*
X104214285Y-110690476D01*
X104309523Y-110738095D01*
X103309523Y-111357142D02*
X103261904Y-111404761D01*
X103309523Y-111452380D01*
X103357142Y-111404761D01*
X103309523Y-111357142D01*
X103309523Y-111452380D01*
X102642857Y-110452380D02*
X102547619Y-110452380D01*
X102452380Y-110500000D01*
X102404761Y-110547619D01*
X102357142Y-110642857D01*
X102309523Y-110833333D01*
X102309523Y-111071428D01*
X102357142Y-111261904D01*
X102404761Y-111357142D01*
X102452380Y-111404761D01*
X102547619Y-111452380D01*
X102642857Y-111452380D01*
X102738095Y-111404761D01*
X102785714Y-111357142D01*
X102833333Y-111261904D01*
X102880952Y-111071428D01*
X102880952Y-110833333D01*
X102833333Y-110642857D01*
X102785714Y-110547619D01*
X102738095Y-110500000D01*
X102642857Y-110452380D01*
D15*
X107678571Y-64678571D02*
X107678571Y-65750000D01*
X107750000Y-65964285D01*
X107892857Y-66107142D01*
X108107142Y-66178571D01*
X108250000Y-66178571D01*
X106250000Y-66178571D02*
X106964285Y-66178571D01*
X106964285Y-64678571D01*
X104892857Y-66035714D02*
X104964285Y-66107142D01*
X105178571Y-66178571D01*
X105321428Y-66178571D01*
X105535714Y-66107142D01*
X105678571Y-65964285D01*
X105750000Y-65821428D01*
X105821428Y-65535714D01*
X105821428Y-65321428D01*
X105750000Y-65035714D01*
X105678571Y-64892857D01*
X105535714Y-64750000D01*
X105321428Y-64678571D01*
X105178571Y-64678571D01*
X104964285Y-64750000D01*
X104892857Y-64821428D01*
X103821428Y-64678571D02*
X103821428Y-65750000D01*
X103892857Y-65964285D01*
X104035714Y-66107142D01*
X104250000Y-66178571D01*
X104392857Y-66178571D01*
X102392857Y-66178571D02*
X103107142Y-66178571D01*
X103107142Y-64678571D01*
X101035714Y-66035714D02*
X101107142Y-66107142D01*
X101321428Y-66178571D01*
X101464285Y-66178571D01*
X101678571Y-66107142D01*
X101821428Y-65964285D01*
X101892857Y-65821428D01*
X101964285Y-65535714D01*
X101964285Y-65321428D01*
X101892857Y-65035714D01*
X101821428Y-64892857D01*
X101678571Y-64750000D01*
X101464285Y-64678571D01*
X101321428Y-64678571D01*
X101107142Y-64750000D01*
X101035714Y-64821428D01*
X99964285Y-64678571D02*
X99964285Y-65750000D01*
X100035714Y-65964285D01*
X100178571Y-66107142D01*
X100392857Y-66178571D01*
X100535714Y-66178571D01*
X98535714Y-66178571D02*
X99250000Y-66178571D01*
X99250000Y-64678571D01*
X97178571Y-66035714D02*
X97250000Y-66107142D01*
X97464285Y-66178571D01*
X97607142Y-66178571D01*
X97821428Y-66107142D01*
X97964285Y-65964285D01*
X98035714Y-65821428D01*
X98107142Y-65535714D01*
X98107142Y-65321428D01*
X98035714Y-65035714D01*
X97964285Y-64892857D01*
X97821428Y-64750000D01*
X97607142Y-64678571D01*
X97464285Y-64678571D01*
X97250000Y-64750000D01*
X97178571Y-64821428D01*
X96107142Y-64678571D02*
X96107142Y-65750000D01*
X96178571Y-65964285D01*
X96321428Y-66107142D01*
X96535714Y-66178571D01*
X96678571Y-66178571D01*
X94678571Y-66178571D02*
X95392857Y-66178571D01*
X95392857Y-64678571D01*
X93321428Y-66035714D02*
X93392857Y-66107142D01*
X93607142Y-66178571D01*
X93750000Y-66178571D01*
X93964285Y-66107142D01*
X94107142Y-65964285D01*
X94178571Y-65821428D01*
X94250000Y-65535714D01*
X94250000Y-65321428D01*
X94178571Y-65035714D01*
X94107142Y-64892857D01*
X93964285Y-64750000D01*
X93750000Y-64678571D01*
X93607142Y-64678571D01*
X93392857Y-64750000D01*
X93321428Y-64821428D01*
D16*
%TO.C,LOGO_CC*%
G36*
X132857931Y-68263256D02*
G01*
X132623786Y-68305735D01*
X132397134Y-68372464D01*
X132178079Y-68463414D01*
X131966724Y-68578561D01*
X131884808Y-68631089D01*
X131695640Y-68772688D01*
X131524474Y-68931382D01*
X131372041Y-69105644D01*
X131239072Y-69293946D01*
X131126295Y-69494760D01*
X131034442Y-69706559D01*
X130964242Y-69927814D01*
X130916426Y-70156999D01*
X130891724Y-70392585D01*
X130890866Y-70633045D01*
X130895063Y-70701907D01*
X130925162Y-70946073D01*
X130977754Y-71178720D01*
X131052673Y-71399521D01*
X131149755Y-71608148D01*
X131268833Y-71804273D01*
X131409742Y-71987568D01*
X131572316Y-72157705D01*
X131676650Y-72250377D01*
X131874635Y-72400170D01*
X132083120Y-72527075D01*
X132301291Y-72630752D01*
X132528332Y-72710866D01*
X132763429Y-72767079D01*
X132999754Y-72798561D01*
X133076230Y-72804518D01*
X133136848Y-72807913D01*
X133190421Y-72808739D01*
X133245763Y-72806993D01*
X133311687Y-72802669D01*
X133365839Y-72798354D01*
X133514111Y-72779922D01*
X133670044Y-72749537D01*
X133820579Y-72709938D01*
X133882183Y-72690148D01*
X134103932Y-72601407D01*
X134313384Y-72491952D01*
X134509227Y-72363238D01*
X134690152Y-72216720D01*
X134854849Y-72053852D01*
X135002007Y-71876089D01*
X135130317Y-71684885D01*
X135238467Y-71481695D01*
X135325148Y-71267974D01*
X135389050Y-71045175D01*
X135397172Y-71008313D01*
X135435266Y-70768351D01*
X135448358Y-70529900D01*
X135447064Y-70503421D01*
X135039124Y-70503421D01*
X135038152Y-70604180D01*
X135034113Y-70698139D01*
X135027001Y-70777370D01*
X135024055Y-70798450D01*
X134978430Y-71008612D01*
X134909080Y-71210759D01*
X134816796Y-71403525D01*
X134702368Y-71585544D01*
X134566585Y-71755451D01*
X134410238Y-71911879D01*
X134350000Y-71963859D01*
X134214023Y-72068030D01*
X134075581Y-72155704D01*
X133930395Y-72228742D01*
X133774182Y-72289005D01*
X133602661Y-72338354D01*
X133411553Y-72378649D01*
X133384800Y-72383362D01*
X133342925Y-72387587D01*
X133282190Y-72389889D01*
X133209054Y-72390392D01*
X133129975Y-72389219D01*
X133051412Y-72386494D01*
X132979823Y-72382340D01*
X132921665Y-72376881D01*
X132902200Y-72374132D01*
X132679990Y-72326498D01*
X132472866Y-72258765D01*
X132279616Y-72170315D01*
X132099028Y-72060529D01*
X131929891Y-71928790D01*
X131813592Y-71819051D01*
X131672765Y-71661182D01*
X131555831Y-71497708D01*
X131461769Y-71326387D01*
X131389562Y-71144977D01*
X131338191Y-70951235D01*
X131306639Y-70742919D01*
X131302058Y-70692454D01*
X131295987Y-70468463D01*
X131313883Y-70250896D01*
X131355351Y-70040870D01*
X131419995Y-69839503D01*
X131507418Y-69647911D01*
X131617227Y-69467211D01*
X131749023Y-69298520D01*
X131824970Y-69217075D01*
X131927041Y-69118064D01*
X132021918Y-69035927D01*
X132115883Y-68966010D01*
X132215219Y-68903658D01*
X132326208Y-68844215D01*
X132332234Y-68841207D01*
X132458959Y-68782803D01*
X132580344Y-68737494D01*
X132703754Y-68703277D01*
X132836554Y-68678146D01*
X132986112Y-68660098D01*
X133003870Y-68658462D01*
X133168664Y-68651752D01*
X133340335Y-68659495D01*
X133511203Y-68680771D01*
X133673587Y-68714660D01*
X133803900Y-68754375D01*
X133986559Y-68833333D01*
X134162625Y-68935380D01*
X134329748Y-69058562D01*
X134485578Y-69200925D01*
X134627764Y-69360514D01*
X134753955Y-69535376D01*
X134765938Y-69554157D01*
X134836201Y-69679464D01*
X134900584Y-69820851D01*
X134955840Y-69969687D01*
X134998723Y-70117338D01*
X135023683Y-70239650D01*
X135031884Y-70313227D01*
X135037032Y-70403794D01*
X135039124Y-70503421D01*
X135447064Y-70503421D01*
X135436843Y-70294328D01*
X135401117Y-70062999D01*
X135341577Y-69837279D01*
X135258619Y-69618535D01*
X135152640Y-69408131D01*
X135024036Y-69207434D01*
X134873202Y-69017809D01*
X134794927Y-68933087D01*
X134700176Y-68838435D01*
X134613065Y-68758968D01*
X134526783Y-68688980D01*
X134434520Y-68622766D01*
X134386679Y-68591018D01*
X134193278Y-68478758D01*
X133992987Y-68389255D01*
X133783504Y-68321753D01*
X133562527Y-68275501D01*
X133348289Y-68251154D01*
X133099467Y-68245054D01*
X132857931Y-68263256D01*
G37*
X132857931Y-68263256D02*
X132623786Y-68305735D01*
X132397134Y-68372464D01*
X132178079Y-68463414D01*
X131966724Y-68578561D01*
X131884808Y-68631089D01*
X131695640Y-68772688D01*
X131524474Y-68931382D01*
X131372041Y-69105644D01*
X131239072Y-69293946D01*
X131126295Y-69494760D01*
X131034442Y-69706559D01*
X130964242Y-69927814D01*
X130916426Y-70156999D01*
X130891724Y-70392585D01*
X130890866Y-70633045D01*
X130895063Y-70701907D01*
X130925162Y-70946073D01*
X130977754Y-71178720D01*
X131052673Y-71399521D01*
X131149755Y-71608148D01*
X131268833Y-71804273D01*
X131409742Y-71987568D01*
X131572316Y-72157705D01*
X131676650Y-72250377D01*
X131874635Y-72400170D01*
X132083120Y-72527075D01*
X132301291Y-72630752D01*
X132528332Y-72710866D01*
X132763429Y-72767079D01*
X132999754Y-72798561D01*
X133076230Y-72804518D01*
X133136848Y-72807913D01*
X133190421Y-72808739D01*
X133245763Y-72806993D01*
X133311687Y-72802669D01*
X133365839Y-72798354D01*
X133514111Y-72779922D01*
X133670044Y-72749537D01*
X133820579Y-72709938D01*
X133882183Y-72690148D01*
X134103932Y-72601407D01*
X134313384Y-72491952D01*
X134509227Y-72363238D01*
X134690152Y-72216720D01*
X134854849Y-72053852D01*
X135002007Y-71876089D01*
X135130317Y-71684885D01*
X135238467Y-71481695D01*
X135325148Y-71267974D01*
X135389050Y-71045175D01*
X135397172Y-71008313D01*
X135435266Y-70768351D01*
X135448358Y-70529900D01*
X135447064Y-70503421D01*
X135039124Y-70503421D01*
X135038152Y-70604180D01*
X135034113Y-70698139D01*
X135027001Y-70777370D01*
X135024055Y-70798450D01*
X134978430Y-71008612D01*
X134909080Y-71210759D01*
X134816796Y-71403525D01*
X134702368Y-71585544D01*
X134566585Y-71755451D01*
X134410238Y-71911879D01*
X134350000Y-71963859D01*
X134214023Y-72068030D01*
X134075581Y-72155704D01*
X133930395Y-72228742D01*
X133774182Y-72289005D01*
X133602661Y-72338354D01*
X133411553Y-72378649D01*
X133384800Y-72383362D01*
X133342925Y-72387587D01*
X133282190Y-72389889D01*
X133209054Y-72390392D01*
X133129975Y-72389219D01*
X133051412Y-72386494D01*
X132979823Y-72382340D01*
X132921665Y-72376881D01*
X132902200Y-72374132D01*
X132679990Y-72326498D01*
X132472866Y-72258765D01*
X132279616Y-72170315D01*
X132099028Y-72060529D01*
X131929891Y-71928790D01*
X131813592Y-71819051D01*
X131672765Y-71661182D01*
X131555831Y-71497708D01*
X131461769Y-71326387D01*
X131389562Y-71144977D01*
X131338191Y-70951235D01*
X131306639Y-70742919D01*
X131302058Y-70692454D01*
X131295987Y-70468463D01*
X131313883Y-70250896D01*
X131355351Y-70040870D01*
X131419995Y-69839503D01*
X131507418Y-69647911D01*
X131617227Y-69467211D01*
X131749023Y-69298520D01*
X131824970Y-69217075D01*
X131927041Y-69118064D01*
X132021918Y-69035927D01*
X132115883Y-68966010D01*
X132215219Y-68903658D01*
X132326208Y-68844215D01*
X132332234Y-68841207D01*
X132458959Y-68782803D01*
X132580344Y-68737494D01*
X132703754Y-68703277D01*
X132836554Y-68678146D01*
X132986112Y-68660098D01*
X133003870Y-68658462D01*
X133168664Y-68651752D01*
X133340335Y-68659495D01*
X133511203Y-68680771D01*
X133673587Y-68714660D01*
X133803900Y-68754375D01*
X133986559Y-68833333D01*
X134162625Y-68935380D01*
X134329748Y-69058562D01*
X134485578Y-69200925D01*
X134627764Y-69360514D01*
X134753955Y-69535376D01*
X134765938Y-69554157D01*
X134836201Y-69679464D01*
X134900584Y-69820851D01*
X134955840Y-69969687D01*
X134998723Y-70117338D01*
X135023683Y-70239650D01*
X135031884Y-70313227D01*
X135037032Y-70403794D01*
X135039124Y-70503421D01*
X135447064Y-70503421D01*
X135436843Y-70294328D01*
X135401117Y-70062999D01*
X135341577Y-69837279D01*
X135258619Y-69618535D01*
X135152640Y-69408131D01*
X135024036Y-69207434D01*
X134873202Y-69017809D01*
X134794927Y-68933087D01*
X134700176Y-68838435D01*
X134613065Y-68758968D01*
X134526783Y-68688980D01*
X134434520Y-68622766D01*
X134386679Y-68591018D01*
X134193278Y-68478758D01*
X133992987Y-68389255D01*
X133783504Y-68321753D01*
X133562527Y-68275501D01*
X133348289Y-68251154D01*
X133099467Y-68245054D01*
X132857931Y-68263256D01*
G36*
X127781304Y-68251869D02*
G01*
X127562599Y-68276878D01*
X127358449Y-68318586D01*
X127163080Y-68378467D01*
X126970717Y-68457993D01*
X126968277Y-68459131D01*
X126780633Y-68560013D01*
X126599781Y-68683032D01*
X126428588Y-68825232D01*
X126269918Y-68983654D01*
X126126636Y-69155341D01*
X126001607Y-69337337D01*
X125897698Y-69526684D01*
X125865430Y-69597428D01*
X125786560Y-69811621D01*
X125729424Y-70035965D01*
X125694144Y-70267267D01*
X125680842Y-70502335D01*
X125689639Y-70737973D01*
X125720659Y-70970990D01*
X125774022Y-71198193D01*
X125801013Y-71284826D01*
X125884980Y-71496852D01*
X125991229Y-71697127D01*
X126119905Y-71885849D01*
X126271155Y-72063213D01*
X126445128Y-72229418D01*
X126600969Y-72354631D01*
X126797151Y-72486427D01*
X127002289Y-72596307D01*
X127214218Y-72683350D01*
X127430768Y-72746636D01*
X127599950Y-72778693D01*
X127717429Y-72792165D01*
X127846233Y-72800934D01*
X127976565Y-72804656D01*
X128098624Y-72802991D01*
X128171450Y-72798645D01*
X128399313Y-72766893D01*
X128622255Y-72710872D01*
X128838640Y-72631499D01*
X129046832Y-72529689D01*
X129245196Y-72406360D01*
X129432096Y-72262429D01*
X129605895Y-72098813D01*
X129764957Y-71916429D01*
X129780140Y-71897000D01*
X129915513Y-71701723D01*
X130027877Y-71496040D01*
X130116966Y-71280852D01*
X130182518Y-71057060D01*
X130224266Y-70825563D01*
X130241947Y-70587262D01*
X130239408Y-70491635D01*
X129835919Y-70491635D01*
X129828381Y-70695423D01*
X129799391Y-70896266D01*
X129749343Y-71091534D01*
X129678628Y-71278599D01*
X129587639Y-71454829D01*
X129476769Y-71617596D01*
X129465697Y-71631661D01*
X129310394Y-71809791D01*
X129147377Y-71963836D01*
X128976186Y-72094049D01*
X128796366Y-72200685D01*
X128607459Y-72283998D01*
X128409007Y-72344244D01*
X128200553Y-72381677D01*
X128101600Y-72391275D01*
X128040759Y-72395009D01*
X127984692Y-72397265D01*
X127941207Y-72397788D01*
X127923800Y-72397114D01*
X127890018Y-72394438D01*
X127840369Y-72390764D01*
X127784329Y-72386790D01*
X127771400Y-72385898D01*
X127586609Y-72361282D01*
X127399990Y-72313496D01*
X127215642Y-72244070D01*
X127037662Y-72154533D01*
X126878881Y-72052720D01*
X126829619Y-72015000D01*
X126769781Y-71965571D01*
X126706740Y-71910699D01*
X126647866Y-71856650D01*
X126644921Y-71853849D01*
X126498421Y-71699943D01*
X126375722Y-71539356D01*
X126275937Y-71370217D01*
X126198179Y-71190653D01*
X126141564Y-70998795D01*
X126105203Y-70792770D01*
X126095014Y-70692454D01*
X126088596Y-70467469D01*
X126105726Y-70250061D01*
X126146197Y-70041085D01*
X126209801Y-69841397D01*
X126296331Y-69651855D01*
X126381063Y-69509400D01*
X126512043Y-69332464D01*
X126658464Y-69173544D01*
X126818710Y-69033786D01*
X126991164Y-68914337D01*
X127174212Y-68816345D01*
X127366237Y-68740958D01*
X127523750Y-68698022D01*
X127722800Y-68665008D01*
X127925875Y-68652231D01*
X128128956Y-68659259D01*
X128328026Y-68685660D01*
X128519066Y-68731001D01*
X128698057Y-68794851D01*
X128781050Y-68833216D01*
X128954039Y-68933306D01*
X129118695Y-69054678D01*
X129272237Y-69194220D01*
X129411880Y-69348822D01*
X129534840Y-69515373D01*
X129638334Y-69690764D01*
X129719577Y-69871884D01*
X129725898Y-69888897D01*
X129785071Y-70085742D01*
X129821613Y-70287532D01*
X129835919Y-70491635D01*
X130239408Y-70491635D01*
X130235552Y-70346419D01*
X130205188Y-70107433D01*
X130150836Y-69876531D01*
X130072797Y-69654360D01*
X129971370Y-69441571D01*
X129846855Y-69238811D01*
X129699553Y-69046730D01*
X129568930Y-68904636D01*
X129391485Y-68743170D01*
X129201685Y-68603698D01*
X129000445Y-68486552D01*
X128788677Y-68392067D01*
X128567294Y-68320574D01*
X128337212Y-68272409D01*
X128099341Y-68247905D01*
X127854597Y-68247395D01*
X127781304Y-68251869D01*
G37*
X127781304Y-68251869D02*
X127562599Y-68276878D01*
X127358449Y-68318586D01*
X127163080Y-68378467D01*
X126970717Y-68457993D01*
X126968277Y-68459131D01*
X126780633Y-68560013D01*
X126599781Y-68683032D01*
X126428588Y-68825232D01*
X126269918Y-68983654D01*
X126126636Y-69155341D01*
X126001607Y-69337337D01*
X125897698Y-69526684D01*
X125865430Y-69597428D01*
X125786560Y-69811621D01*
X125729424Y-70035965D01*
X125694144Y-70267267D01*
X125680842Y-70502335D01*
X125689639Y-70737973D01*
X125720659Y-70970990D01*
X125774022Y-71198193D01*
X125801013Y-71284826D01*
X125884980Y-71496852D01*
X125991229Y-71697127D01*
X126119905Y-71885849D01*
X126271155Y-72063213D01*
X126445128Y-72229418D01*
X126600969Y-72354631D01*
X126797151Y-72486427D01*
X127002289Y-72596307D01*
X127214218Y-72683350D01*
X127430768Y-72746636D01*
X127599950Y-72778693D01*
X127717429Y-72792165D01*
X127846233Y-72800934D01*
X127976565Y-72804656D01*
X128098624Y-72802991D01*
X128171450Y-72798645D01*
X128399313Y-72766893D01*
X128622255Y-72710872D01*
X128838640Y-72631499D01*
X129046832Y-72529689D01*
X129245196Y-72406360D01*
X129432096Y-72262429D01*
X129605895Y-72098813D01*
X129764957Y-71916429D01*
X129780140Y-71897000D01*
X129915513Y-71701723D01*
X130027877Y-71496040D01*
X130116966Y-71280852D01*
X130182518Y-71057060D01*
X130224266Y-70825563D01*
X130241947Y-70587262D01*
X130239408Y-70491635D01*
X129835919Y-70491635D01*
X129828381Y-70695423D01*
X129799391Y-70896266D01*
X129749343Y-71091534D01*
X129678628Y-71278599D01*
X129587639Y-71454829D01*
X129476769Y-71617596D01*
X129465697Y-71631661D01*
X129310394Y-71809791D01*
X129147377Y-71963836D01*
X128976186Y-72094049D01*
X128796366Y-72200685D01*
X128607459Y-72283998D01*
X128409007Y-72344244D01*
X128200553Y-72381677D01*
X128101600Y-72391275D01*
X128040759Y-72395009D01*
X127984692Y-72397265D01*
X127941207Y-72397788D01*
X127923800Y-72397114D01*
X127890018Y-72394438D01*
X127840369Y-72390764D01*
X127784329Y-72386790D01*
X127771400Y-72385898D01*
X127586609Y-72361282D01*
X127399990Y-72313496D01*
X127215642Y-72244070D01*
X127037662Y-72154533D01*
X126878881Y-72052720D01*
X126829619Y-72015000D01*
X126769781Y-71965571D01*
X126706740Y-71910699D01*
X126647866Y-71856650D01*
X126644921Y-71853849D01*
X126498421Y-71699943D01*
X126375722Y-71539356D01*
X126275937Y-71370217D01*
X126198179Y-71190653D01*
X126141564Y-70998795D01*
X126105203Y-70792770D01*
X126095014Y-70692454D01*
X126088596Y-70467469D01*
X126105726Y-70250061D01*
X126146197Y-70041085D01*
X126209801Y-69841397D01*
X126296331Y-69651855D01*
X126381063Y-69509400D01*
X126512043Y-69332464D01*
X126658464Y-69173544D01*
X126818710Y-69033786D01*
X126991164Y-68914337D01*
X127174212Y-68816345D01*
X127366237Y-68740958D01*
X127523750Y-68698022D01*
X127722800Y-68665008D01*
X127925875Y-68652231D01*
X128128956Y-68659259D01*
X128328026Y-68685660D01*
X128519066Y-68731001D01*
X128698057Y-68794851D01*
X128781050Y-68833216D01*
X128954039Y-68933306D01*
X129118695Y-69054678D01*
X129272237Y-69194220D01*
X129411880Y-69348822D01*
X129534840Y-69515373D01*
X129638334Y-69690764D01*
X129719577Y-69871884D01*
X129725898Y-69888897D01*
X129785071Y-70085742D01*
X129821613Y-70287532D01*
X129835919Y-70491635D01*
X130239408Y-70491635D01*
X130235552Y-70346419D01*
X130205188Y-70107433D01*
X130150836Y-69876531D01*
X130072797Y-69654360D01*
X129971370Y-69441571D01*
X129846855Y-69238811D01*
X129699553Y-69046730D01*
X129568930Y-68904636D01*
X129391485Y-68743170D01*
X129201685Y-68603698D01*
X129000445Y-68486552D01*
X128788677Y-68392067D01*
X128567294Y-68320574D01*
X128337212Y-68272409D01*
X128099341Y-68247905D01*
X127854597Y-68247395D01*
X127781304Y-68251869D01*
G36*
X122482470Y-68258846D02*
G01*
X122282921Y-68287895D01*
X122266329Y-68291172D01*
X122053085Y-68346862D01*
X121841101Y-68427384D01*
X121631704Y-68532168D01*
X121464757Y-68634534D01*
X121362245Y-68709855D01*
X121253512Y-68802329D01*
X121143954Y-68906521D01*
X121038966Y-69016995D01*
X120943941Y-69128317D01*
X120864275Y-69235049D01*
X120854832Y-69249050D01*
X120742416Y-69433145D01*
X120651887Y-69615931D01*
X120581610Y-69802211D01*
X120529951Y-69996787D01*
X120495278Y-70204461D01*
X120481180Y-70347332D01*
X120474883Y-70570282D01*
X120488845Y-70793152D01*
X120522305Y-71011994D01*
X120574504Y-71222858D01*
X120644681Y-71421796D01*
X120718391Y-71579500D01*
X120840014Y-71782732D01*
X120982210Y-71972351D01*
X121143183Y-72146776D01*
X121321137Y-72304425D01*
X121514278Y-72443720D01*
X121720809Y-72563079D01*
X121938935Y-72660921D01*
X121953274Y-72666423D01*
X122121844Y-72720620D01*
X122306362Y-72762297D01*
X122500208Y-72790588D01*
X122696762Y-72804628D01*
X122889402Y-72803550D01*
X122964450Y-72798645D01*
X123190099Y-72767155D01*
X123410572Y-72711854D01*
X123624143Y-72634094D01*
X123829088Y-72535229D01*
X124023680Y-72416612D01*
X124206195Y-72279595D01*
X124374906Y-72125531D01*
X124528089Y-71955775D01*
X124664018Y-71771677D01*
X124780968Y-71574593D01*
X124877212Y-71365874D01*
X124912403Y-71271144D01*
X124959823Y-71119139D01*
X124993990Y-70973545D01*
X125017224Y-70823041D01*
X125028552Y-70704380D01*
X125031089Y-70601651D01*
X124627093Y-70601651D01*
X124622232Y-70678716D01*
X124594081Y-70888807D01*
X124546754Y-71084197D01*
X124479074Y-71267451D01*
X124389865Y-71441132D01*
X124277951Y-71607804D01*
X124142154Y-71770031D01*
X124101843Y-71812779D01*
X123944207Y-71962008D01*
X123781573Y-72087384D01*
X123611407Y-72190332D01*
X123431176Y-72272279D01*
X123238346Y-72334653D01*
X123129181Y-72360470D01*
X123067910Y-72371208D01*
X122994254Y-72380982D01*
X122915510Y-72389145D01*
X122838971Y-72395047D01*
X122771933Y-72398042D01*
X122721693Y-72397480D01*
X122716800Y-72397114D01*
X122683018Y-72394438D01*
X122633369Y-72390764D01*
X122577329Y-72386790D01*
X122564400Y-72385898D01*
X122376199Y-72360616D01*
X122188598Y-72311553D01*
X122004082Y-72240262D01*
X121825132Y-72148292D01*
X121654231Y-72037193D01*
X121493862Y-71908516D01*
X121346506Y-71763812D01*
X121214648Y-71604631D01*
X121139674Y-71496087D01*
X121053667Y-71339949D01*
X120984064Y-71167478D01*
X120931692Y-70982406D01*
X120897378Y-70788464D01*
X120881950Y-70589382D01*
X120886234Y-70388891D01*
X120888321Y-70362469D01*
X120916569Y-70149487D01*
X120964039Y-69951337D01*
X121031773Y-69765908D01*
X121120815Y-69591088D01*
X121232207Y-69424764D01*
X121366994Y-69264824D01*
X121491733Y-69140639D01*
X121659768Y-69000355D01*
X121835879Y-68884032D01*
X122019908Y-68791757D01*
X122211696Y-68723614D01*
X122316067Y-68697391D01*
X122507215Y-68666069D01*
X122702859Y-68653046D01*
X122898737Y-68657883D01*
X123090588Y-68680140D01*
X123274150Y-68719377D01*
X123445162Y-68775154D01*
X123558907Y-68825700D01*
X123732536Y-68926260D01*
X123899301Y-69048713D01*
X124055984Y-69189814D01*
X124199368Y-69346318D01*
X124326236Y-69514982D01*
X124433370Y-69692561D01*
X124449692Y-69724000D01*
X124516603Y-69879603D01*
X124568834Y-70050899D01*
X124605350Y-70232159D01*
X124625115Y-70417654D01*
X124627093Y-70601651D01*
X125031089Y-70601651D01*
X125034564Y-70460968D01*
X125015992Y-70222603D01*
X124973352Y-69990446D01*
X124907161Y-69765657D01*
X124817936Y-69549396D01*
X124706192Y-69342824D01*
X124572446Y-69147101D01*
X124417216Y-68963386D01*
X124241017Y-68792840D01*
X124140085Y-68708802D01*
X124012660Y-68617353D01*
X123868350Y-68529683D01*
X123715657Y-68450375D01*
X123563083Y-68384015D01*
X123485150Y-68355654D01*
X123302866Y-68305019D01*
X123105783Y-68269721D01*
X122899574Y-68250060D01*
X122689912Y-68246335D01*
X122482470Y-68258846D01*
G37*
X122482470Y-68258846D02*
X122282921Y-68287895D01*
X122266329Y-68291172D01*
X122053085Y-68346862D01*
X121841101Y-68427384D01*
X121631704Y-68532168D01*
X121464757Y-68634534D01*
X121362245Y-68709855D01*
X121253512Y-68802329D01*
X121143954Y-68906521D01*
X121038966Y-69016995D01*
X120943941Y-69128317D01*
X120864275Y-69235049D01*
X120854832Y-69249050D01*
X120742416Y-69433145D01*
X120651887Y-69615931D01*
X120581610Y-69802211D01*
X120529951Y-69996787D01*
X120495278Y-70204461D01*
X120481180Y-70347332D01*
X120474883Y-70570282D01*
X120488845Y-70793152D01*
X120522305Y-71011994D01*
X120574504Y-71222858D01*
X120644681Y-71421796D01*
X120718391Y-71579500D01*
X120840014Y-71782732D01*
X120982210Y-71972351D01*
X121143183Y-72146776D01*
X121321137Y-72304425D01*
X121514278Y-72443720D01*
X121720809Y-72563079D01*
X121938935Y-72660921D01*
X121953274Y-72666423D01*
X122121844Y-72720620D01*
X122306362Y-72762297D01*
X122500208Y-72790588D01*
X122696762Y-72804628D01*
X122889402Y-72803550D01*
X122964450Y-72798645D01*
X123190099Y-72767155D01*
X123410572Y-72711854D01*
X123624143Y-72634094D01*
X123829088Y-72535229D01*
X124023680Y-72416612D01*
X124206195Y-72279595D01*
X124374906Y-72125531D01*
X124528089Y-71955775D01*
X124664018Y-71771677D01*
X124780968Y-71574593D01*
X124877212Y-71365874D01*
X124912403Y-71271144D01*
X124959823Y-71119139D01*
X124993990Y-70973545D01*
X125017224Y-70823041D01*
X125028552Y-70704380D01*
X125031089Y-70601651D01*
X124627093Y-70601651D01*
X124622232Y-70678716D01*
X124594081Y-70888807D01*
X124546754Y-71084197D01*
X124479074Y-71267451D01*
X124389865Y-71441132D01*
X124277951Y-71607804D01*
X124142154Y-71770031D01*
X124101843Y-71812779D01*
X123944207Y-71962008D01*
X123781573Y-72087384D01*
X123611407Y-72190332D01*
X123431176Y-72272279D01*
X123238346Y-72334653D01*
X123129181Y-72360470D01*
X123067910Y-72371208D01*
X122994254Y-72380982D01*
X122915510Y-72389145D01*
X122838971Y-72395047D01*
X122771933Y-72398042D01*
X122721693Y-72397480D01*
X122716800Y-72397114D01*
X122683018Y-72394438D01*
X122633369Y-72390764D01*
X122577329Y-72386790D01*
X122564400Y-72385898D01*
X122376199Y-72360616D01*
X122188598Y-72311553D01*
X122004082Y-72240262D01*
X121825132Y-72148292D01*
X121654231Y-72037193D01*
X121493862Y-71908516D01*
X121346506Y-71763812D01*
X121214648Y-71604631D01*
X121139674Y-71496087D01*
X121053667Y-71339949D01*
X120984064Y-71167478D01*
X120931692Y-70982406D01*
X120897378Y-70788464D01*
X120881950Y-70589382D01*
X120886234Y-70388891D01*
X120888321Y-70362469D01*
X120916569Y-70149487D01*
X120964039Y-69951337D01*
X121031773Y-69765908D01*
X121120815Y-69591088D01*
X121232207Y-69424764D01*
X121366994Y-69264824D01*
X121491733Y-69140639D01*
X121659768Y-69000355D01*
X121835879Y-68884032D01*
X122019908Y-68791757D01*
X122211696Y-68723614D01*
X122316067Y-68697391D01*
X122507215Y-68666069D01*
X122702859Y-68653046D01*
X122898737Y-68657883D01*
X123090588Y-68680140D01*
X123274150Y-68719377D01*
X123445162Y-68775154D01*
X123558907Y-68825700D01*
X123732536Y-68926260D01*
X123899301Y-69048713D01*
X124055984Y-69189814D01*
X124199368Y-69346318D01*
X124326236Y-69514982D01*
X124433370Y-69692561D01*
X124449692Y-69724000D01*
X124516603Y-69879603D01*
X124568834Y-70050899D01*
X124605350Y-70232159D01*
X124625115Y-70417654D01*
X124627093Y-70601651D01*
X125031089Y-70601651D01*
X125034564Y-70460968D01*
X125015992Y-70222603D01*
X124973352Y-69990446D01*
X124907161Y-69765657D01*
X124817936Y-69549396D01*
X124706192Y-69342824D01*
X124572446Y-69147101D01*
X124417216Y-68963386D01*
X124241017Y-68792840D01*
X124140085Y-68708802D01*
X124012660Y-68617353D01*
X123868350Y-68529683D01*
X123715657Y-68450375D01*
X123563083Y-68384015D01*
X123485150Y-68355654D01*
X123302866Y-68305019D01*
X123105783Y-68269721D01*
X122899574Y-68250060D01*
X122689912Y-68246335D01*
X122482470Y-68258846D01*
G36*
X133760330Y-69817589D02*
G01*
X133709052Y-69823670D01*
X133671326Y-69829590D01*
X133545804Y-69859556D01*
X133436057Y-69905360D01*
X133344868Y-69965813D01*
X133337003Y-69972508D01*
X133304382Y-70004345D01*
X133270446Y-70042870D01*
X133239839Y-70082083D01*
X133217206Y-70115988D01*
X133207191Y-70138584D01*
X133207058Y-70140338D01*
X133217557Y-70148809D01*
X133245688Y-70166081D01*
X133286453Y-70189416D01*
X133334857Y-70216079D01*
X133385900Y-70243332D01*
X133434587Y-70268439D01*
X133475920Y-70288665D01*
X133488253Y-70294320D01*
X133499588Y-70286956D01*
X133519571Y-70263893D01*
X133535851Y-70241611D01*
X133590263Y-70183620D01*
X133658613Y-70143267D01*
X133735129Y-70122502D01*
X133814042Y-70123274D01*
X133855980Y-70133453D01*
X133925627Y-70167002D01*
X133979517Y-70216566D01*
X134018523Y-70283682D01*
X134043516Y-70369886D01*
X134055368Y-70476714D01*
X134055750Y-70485569D01*
X134054770Y-70596608D01*
X134041797Y-70688057D01*
X134016062Y-70763114D01*
X133976794Y-70824976D01*
X133972828Y-70829704D01*
X133912630Y-70885991D01*
X133846226Y-70919194D01*
X133768771Y-70931593D01*
X133755884Y-70931800D01*
X133668577Y-70920705D01*
X133592572Y-70887171D01*
X133527266Y-70830820D01*
X133475239Y-70756970D01*
X133464390Y-70753167D01*
X133439886Y-70759581D01*
X133399169Y-70777181D01*
X133339681Y-70806934D01*
X133330223Y-70811856D01*
X133194334Y-70882822D01*
X133231253Y-70936481D01*
X133312469Y-71032768D01*
X133410068Y-71111681D01*
X133520660Y-71171794D01*
X133640855Y-71211678D01*
X133767263Y-71229905D01*
X133896495Y-71225047D01*
X133911251Y-71222964D01*
X134029228Y-71196778D01*
X134130348Y-71155506D01*
X134219829Y-71096623D01*
X134274816Y-71047116D01*
X134341801Y-70970308D01*
X134392011Y-70888709D01*
X134427274Y-70797611D01*
X134449421Y-70692304D01*
X134460203Y-70569850D01*
X134459659Y-70436862D01*
X134444497Y-70321384D01*
X134413353Y-70219257D01*
X134364859Y-70126321D01*
X134297650Y-70038418D01*
X134279014Y-70018063D01*
X134202165Y-69946696D01*
X134121712Y-69894109D01*
X134031044Y-69856902D01*
X133923550Y-69831675D01*
X133913207Y-69829938D01*
X133851678Y-69820707D01*
X133804295Y-69816596D01*
X133760330Y-69817589D01*
G37*
X133760330Y-69817589D02*
X133709052Y-69823670D01*
X133671326Y-69829590D01*
X133545804Y-69859556D01*
X133436057Y-69905360D01*
X133344868Y-69965813D01*
X133337003Y-69972508D01*
X133304382Y-70004345D01*
X133270446Y-70042870D01*
X133239839Y-70082083D01*
X133217206Y-70115988D01*
X133207191Y-70138584D01*
X133207058Y-70140338D01*
X133217557Y-70148809D01*
X133245688Y-70166081D01*
X133286453Y-70189416D01*
X133334857Y-70216079D01*
X133385900Y-70243332D01*
X133434587Y-70268439D01*
X133475920Y-70288665D01*
X133488253Y-70294320D01*
X133499588Y-70286956D01*
X133519571Y-70263893D01*
X133535851Y-70241611D01*
X133590263Y-70183620D01*
X133658613Y-70143267D01*
X133735129Y-70122502D01*
X133814042Y-70123274D01*
X133855980Y-70133453D01*
X133925627Y-70167002D01*
X133979517Y-70216566D01*
X134018523Y-70283682D01*
X134043516Y-70369886D01*
X134055368Y-70476714D01*
X134055750Y-70485569D01*
X134054770Y-70596608D01*
X134041797Y-70688057D01*
X134016062Y-70763114D01*
X133976794Y-70824976D01*
X133972828Y-70829704D01*
X133912630Y-70885991D01*
X133846226Y-70919194D01*
X133768771Y-70931593D01*
X133755884Y-70931800D01*
X133668577Y-70920705D01*
X133592572Y-70887171D01*
X133527266Y-70830820D01*
X133475239Y-70756970D01*
X133464390Y-70753167D01*
X133439886Y-70759581D01*
X133399169Y-70777181D01*
X133339681Y-70806934D01*
X133330223Y-70811856D01*
X133194334Y-70882822D01*
X133231253Y-70936481D01*
X133312469Y-71032768D01*
X133410068Y-71111681D01*
X133520660Y-71171794D01*
X133640855Y-71211678D01*
X133767263Y-71229905D01*
X133896495Y-71225047D01*
X133911251Y-71222964D01*
X134029228Y-71196778D01*
X134130348Y-71155506D01*
X134219829Y-71096623D01*
X134274816Y-71047116D01*
X134341801Y-70970308D01*
X134392011Y-70888709D01*
X134427274Y-70797611D01*
X134449421Y-70692304D01*
X134460203Y-70569850D01*
X134459659Y-70436862D01*
X134444497Y-70321384D01*
X134413353Y-70219257D01*
X134364859Y-70126321D01*
X134297650Y-70038418D01*
X134279014Y-70018063D01*
X134202165Y-69946696D01*
X134121712Y-69894109D01*
X134031044Y-69856902D01*
X133923550Y-69831675D01*
X133913207Y-69829938D01*
X133851678Y-69820707D01*
X133804295Y-69816596D01*
X133760330Y-69817589D01*
G36*
X132301138Y-69837583D02*
G01*
X132186623Y-69871666D01*
X132084390Y-69922454D01*
X132031111Y-69960504D01*
X131996339Y-69992619D01*
X131961105Y-70031069D01*
X131929347Y-70070694D01*
X131905003Y-70106331D01*
X131892013Y-70132821D01*
X131891753Y-70143109D01*
X131904282Y-70152069D01*
X131933902Y-70169886D01*
X131975222Y-70193588D01*
X132022856Y-70220206D01*
X132071415Y-70246767D01*
X132115510Y-70270302D01*
X132149753Y-70287839D01*
X132168756Y-70296407D01*
X132170500Y-70296800D01*
X132179171Y-70287414D01*
X132197795Y-70263248D01*
X132214206Y-70240806D01*
X132270754Y-70181549D01*
X132338381Y-70141840D01*
X132412493Y-70122085D01*
X132488495Y-70122691D01*
X132561793Y-70144066D01*
X132627790Y-70186617D01*
X132644609Y-70202665D01*
X132688721Y-70260084D01*
X132718729Y-70327989D01*
X132735914Y-70410554D01*
X132741554Y-70511952D01*
X132741552Y-70519050D01*
X132733265Y-70635876D01*
X132709485Y-70734228D01*
X132670668Y-70813485D01*
X132617273Y-70873026D01*
X132549757Y-70912230D01*
X132468576Y-70930478D01*
X132437134Y-70931800D01*
X132349632Y-70920705D01*
X132274047Y-70888135D01*
X132212459Y-70835158D01*
X132189588Y-70804519D01*
X132149568Y-70742759D01*
X132011913Y-70811795D01*
X131874258Y-70880832D01*
X131899540Y-70923681D01*
X131929266Y-70963861D01*
X131973523Y-71011643D01*
X132025595Y-71060708D01*
X132078765Y-71104740D01*
X132126318Y-71137420D01*
X132127500Y-71138109D01*
X132233989Y-71186575D01*
X132352523Y-71217709D01*
X132475348Y-71230092D01*
X132590451Y-71222964D01*
X132707556Y-71197076D01*
X132807914Y-71156330D01*
X132897082Y-71098024D01*
X132955854Y-71045278D01*
X133029082Y-70954529D01*
X133084934Y-70847691D01*
X133122677Y-70727863D01*
X133141578Y-70598144D01*
X133140904Y-70461634D01*
X133123368Y-70337539D01*
X133086187Y-70215422D01*
X133028509Y-70105786D01*
X132952389Y-70010857D01*
X132859886Y-69932863D01*
X132753056Y-69874030D01*
X132668123Y-69844705D01*
X132546912Y-69823190D01*
X132422909Y-69821120D01*
X132301138Y-69837583D01*
G37*
X132301138Y-69837583D02*
X132186623Y-69871666D01*
X132084390Y-69922454D01*
X132031111Y-69960504D01*
X131996339Y-69992619D01*
X131961105Y-70031069D01*
X131929347Y-70070694D01*
X131905003Y-70106331D01*
X131892013Y-70132821D01*
X131891753Y-70143109D01*
X131904282Y-70152069D01*
X131933902Y-70169886D01*
X131975222Y-70193588D01*
X132022856Y-70220206D01*
X132071415Y-70246767D01*
X132115510Y-70270302D01*
X132149753Y-70287839D01*
X132168756Y-70296407D01*
X132170500Y-70296800D01*
X132179171Y-70287414D01*
X132197795Y-70263248D01*
X132214206Y-70240806D01*
X132270754Y-70181549D01*
X132338381Y-70141840D01*
X132412493Y-70122085D01*
X132488495Y-70122691D01*
X132561793Y-70144066D01*
X132627790Y-70186617D01*
X132644609Y-70202665D01*
X132688721Y-70260084D01*
X132718729Y-70327989D01*
X132735914Y-70410554D01*
X132741554Y-70511952D01*
X132741552Y-70519050D01*
X132733265Y-70635876D01*
X132709485Y-70734228D01*
X132670668Y-70813485D01*
X132617273Y-70873026D01*
X132549757Y-70912230D01*
X132468576Y-70930478D01*
X132437134Y-70931800D01*
X132349632Y-70920705D01*
X132274047Y-70888135D01*
X132212459Y-70835158D01*
X132189588Y-70804519D01*
X132149568Y-70742759D01*
X132011913Y-70811795D01*
X131874258Y-70880832D01*
X131899540Y-70923681D01*
X131929266Y-70963861D01*
X131973523Y-71011643D01*
X132025595Y-71060708D01*
X132078765Y-71104740D01*
X132126318Y-71137420D01*
X132127500Y-71138109D01*
X132233989Y-71186575D01*
X132352523Y-71217709D01*
X132475348Y-71230092D01*
X132590451Y-71222964D01*
X132707556Y-71197076D01*
X132807914Y-71156330D01*
X132897082Y-71098024D01*
X132955854Y-71045278D01*
X133029082Y-70954529D01*
X133084934Y-70847691D01*
X133122677Y-70727863D01*
X133141578Y-70598144D01*
X133140904Y-70461634D01*
X133123368Y-70337539D01*
X133086187Y-70215422D01*
X133028509Y-70105786D01*
X132952389Y-70010857D01*
X132859886Y-69932863D01*
X132753056Y-69874030D01*
X132668123Y-69844705D01*
X132546912Y-69823190D01*
X132422909Y-69821120D01*
X132301138Y-69837583D01*
G36*
X127874197Y-69812757D02*
G01*
X127773789Y-69813782D01*
X127679944Y-69815565D01*
X127596211Y-69818109D01*
X127526140Y-69821412D01*
X127473283Y-69825475D01*
X127441189Y-69830297D01*
X127436102Y-69831908D01*
X127415665Y-69840556D01*
X127398852Y-69849411D01*
X127385310Y-69860874D01*
X127374686Y-69877348D01*
X127366625Y-69901236D01*
X127360775Y-69934940D01*
X127356781Y-69980862D01*
X127354290Y-70041405D01*
X127352948Y-70118972D01*
X127352402Y-70215965D01*
X127352297Y-70334785D01*
X127352300Y-70401225D01*
X127352300Y-70893700D01*
X127606300Y-70893700D01*
X127606300Y-71998600D01*
X127958725Y-71998601D01*
X128311150Y-71998603D01*
X128311150Y-70900050D01*
X128441325Y-70896430D01*
X128571500Y-70892811D01*
X128571500Y-70400781D01*
X128571483Y-70270528D01*
X128571196Y-70163271D01*
X128570283Y-70076606D01*
X128568392Y-70008131D01*
X128565168Y-69955441D01*
X128560258Y-69916133D01*
X128553306Y-69887803D01*
X128543960Y-69868048D01*
X128531864Y-69854465D01*
X128516665Y-69844649D01*
X128498009Y-69836196D01*
X128487699Y-69831908D01*
X128462595Y-69826856D01*
X128415652Y-69822563D01*
X128350422Y-69819029D01*
X128270453Y-69816256D01*
X128179296Y-69814242D01*
X128080501Y-69812987D01*
X127977618Y-69812492D01*
X127874197Y-69812757D01*
G37*
X127874197Y-69812757D02*
X127773789Y-69813782D01*
X127679944Y-69815565D01*
X127596211Y-69818109D01*
X127526140Y-69821412D01*
X127473283Y-69825475D01*
X127441189Y-69830297D01*
X127436102Y-69831908D01*
X127415665Y-69840556D01*
X127398852Y-69849411D01*
X127385310Y-69860874D01*
X127374686Y-69877348D01*
X127366625Y-69901236D01*
X127360775Y-69934940D01*
X127356781Y-69980862D01*
X127354290Y-70041405D01*
X127352948Y-70118972D01*
X127352402Y-70215965D01*
X127352297Y-70334785D01*
X127352300Y-70401225D01*
X127352300Y-70893700D01*
X127606300Y-70893700D01*
X127606300Y-71998600D01*
X127958725Y-71998601D01*
X128311150Y-71998603D01*
X128311150Y-70900050D01*
X128441325Y-70896430D01*
X128571500Y-70892811D01*
X128571500Y-70400781D01*
X128571483Y-70270528D01*
X128571196Y-70163271D01*
X128570283Y-70076606D01*
X128568392Y-70008131D01*
X128565168Y-69955441D01*
X128560258Y-69916133D01*
X128553306Y-69887803D01*
X128543960Y-69868048D01*
X128531864Y-69854465D01*
X128516665Y-69844649D01*
X128498009Y-69836196D01*
X128487699Y-69831908D01*
X128462595Y-69826856D01*
X128415652Y-69822563D01*
X128350422Y-69819029D01*
X128270453Y-69816256D01*
X128179296Y-69814242D01*
X128080501Y-69812987D01*
X127977618Y-69812492D01*
X127874197Y-69812757D01*
G36*
X127900235Y-69059642D02*
G01*
X127856391Y-69063536D01*
X127822844Y-69071543D01*
X127792066Y-69084903D01*
X127787290Y-69087410D01*
X127729435Y-69132119D01*
X127685745Y-69194759D01*
X127657727Y-69271242D01*
X127646889Y-69357479D01*
X127654447Y-69447827D01*
X127679220Y-69531650D01*
X127719043Y-69595621D01*
X127774690Y-69640895D01*
X127788628Y-69648217D01*
X127851104Y-69669129D01*
X127926537Y-69680615D01*
X128003975Y-69681823D01*
X128072466Y-69671899D01*
X128076978Y-69670671D01*
X128152116Y-69639007D01*
X128208813Y-69591180D01*
X128248102Y-69525869D01*
X128271018Y-69441758D01*
X128274105Y-69419421D01*
X128275346Y-69327972D01*
X128258240Y-69243932D01*
X128224476Y-69171374D01*
X128175740Y-69114368D01*
X128136511Y-69087410D01*
X128105504Y-69073152D01*
X128072841Y-69064432D01*
X128030995Y-69060007D01*
X127972441Y-69058638D01*
X127961900Y-69058620D01*
X127900235Y-69059642D01*
G37*
X127900235Y-69059642D02*
X127856391Y-69063536D01*
X127822844Y-69071543D01*
X127792066Y-69084903D01*
X127787290Y-69087410D01*
X127729435Y-69132119D01*
X127685745Y-69194759D01*
X127657727Y-69271242D01*
X127646889Y-69357479D01*
X127654447Y-69447827D01*
X127679220Y-69531650D01*
X127719043Y-69595621D01*
X127774690Y-69640895D01*
X127788628Y-69648217D01*
X127851104Y-69669129D01*
X127926537Y-69680615D01*
X128003975Y-69681823D01*
X128072466Y-69671899D01*
X128076978Y-69670671D01*
X128152116Y-69639007D01*
X128208813Y-69591180D01*
X128248102Y-69525869D01*
X128271018Y-69441758D01*
X128274105Y-69419421D01*
X128275346Y-69327972D01*
X128258240Y-69243932D01*
X128224476Y-69171374D01*
X128175740Y-69114368D01*
X128136511Y-69087410D01*
X128105504Y-69073152D01*
X128072841Y-69064432D01*
X128030995Y-69060007D01*
X127972441Y-69058638D01*
X127961900Y-69058620D01*
X127900235Y-69059642D01*
G36*
X122683861Y-69334015D02*
G01*
X122567205Y-69343293D01*
X122462230Y-69360626D01*
X122431050Y-69368248D01*
X122271713Y-69423717D01*
X122126658Y-69499752D01*
X121996887Y-69595266D01*
X121883401Y-69709175D01*
X121787203Y-69840392D01*
X121709294Y-69987832D01*
X121650675Y-70150408D01*
X121628704Y-70237992D01*
X121617806Y-70307392D01*
X121610397Y-70394231D01*
X121606475Y-70491697D01*
X121606041Y-70592981D01*
X121609094Y-70691271D01*
X121615632Y-70779755D01*
X121625656Y-70851623D01*
X121628762Y-70866437D01*
X121676563Y-71023923D01*
X121744485Y-71172191D01*
X121830428Y-71308948D01*
X121932294Y-71431901D01*
X122047984Y-71538759D01*
X122175398Y-71627227D01*
X122312438Y-71695013D01*
X122420135Y-71730864D01*
X122495972Y-71747671D01*
X122582435Y-71761450D01*
X122672609Y-71771591D01*
X122759574Y-71777483D01*
X122836415Y-71778515D01*
X122896213Y-71774077D01*
X122900950Y-71773315D01*
X123006166Y-71753548D01*
X123091475Y-71733384D01*
X123162350Y-71711350D01*
X123222769Y-71686665D01*
X123357183Y-71611059D01*
X123476497Y-71516176D01*
X123578561Y-71404145D01*
X123661223Y-71277091D01*
X123685143Y-71229531D01*
X123708325Y-71174399D01*
X123729638Y-71113784D01*
X123747885Y-71052557D01*
X123761871Y-70995590D01*
X123770400Y-70947755D01*
X123772274Y-70913922D01*
X123766318Y-70898971D01*
X123749554Y-70897389D01*
X123711408Y-70896302D01*
X123655890Y-70895742D01*
X123587016Y-70895743D01*
X123508796Y-70896340D01*
X123486545Y-70896608D01*
X123221896Y-70900050D01*
X123197961Y-70994335D01*
X123181420Y-71054056D01*
X123164760Y-71097171D01*
X123143479Y-71132095D01*
X123113075Y-71167240D01*
X123096380Y-71184213D01*
X123029914Y-71234087D01*
X122943488Y-71272471D01*
X122840443Y-71297985D01*
X122809894Y-71302529D01*
X122692395Y-71307897D01*
X122587156Y-71291538D01*
X122492362Y-71252873D01*
X122406199Y-71191320D01*
X122377478Y-71163989D01*
X122306075Y-71073915D01*
X122249363Y-70965013D01*
X122207904Y-70839558D01*
X122182257Y-70699827D01*
X122172981Y-70548096D01*
X122180636Y-70386642D01*
X122182311Y-70370452D01*
X122204465Y-70232325D01*
X122239166Y-70115195D01*
X122287256Y-70017520D01*
X122349577Y-69937754D01*
X122426969Y-69874355D01*
X122465010Y-69851784D01*
X122503845Y-69831952D01*
X122536804Y-69818993D01*
X122571705Y-69811150D01*
X122616362Y-69806668D01*
X122678591Y-69803792D01*
X122678700Y-69803788D01*
X122808366Y-69807815D01*
X122920254Y-69829937D01*
X123014475Y-69870216D01*
X123091137Y-69928711D01*
X123150347Y-70005483D01*
X123187235Y-70085717D01*
X123205331Y-70140484D01*
X123212316Y-70175902D01*
X123206652Y-70196151D01*
X123186801Y-70205411D01*
X123151222Y-70207859D01*
X123142250Y-70207900D01*
X123103993Y-70209489D01*
X123078621Y-70213589D01*
X123072400Y-70217565D01*
X123081017Y-70228887D01*
X123105206Y-70255466D01*
X123142476Y-70294702D01*
X123190338Y-70343994D01*
X123246301Y-70400741D01*
X123285264Y-70439817D01*
X123498127Y-70652403D01*
X123710714Y-70439540D01*
X123770466Y-70379354D01*
X123823727Y-70325027D01*
X123868008Y-70279151D01*
X123900826Y-70244317D01*
X123919694Y-70223116D01*
X123923300Y-70217894D01*
X123911744Y-70212763D01*
X123881633Y-70208135D01*
X123844862Y-70205331D01*
X123766424Y-70201550D01*
X123744313Y-70098548D01*
X123699063Y-69943512D01*
X123633592Y-69803392D01*
X123548887Y-69679194D01*
X123445937Y-69571922D01*
X123325727Y-69482583D01*
X123189246Y-69412182D01*
X123037482Y-69361722D01*
X123015133Y-69356321D01*
X122916705Y-69340348D01*
X122803321Y-69332973D01*
X122683861Y-69334015D01*
G37*
X122683861Y-69334015D02*
X122567205Y-69343293D01*
X122462230Y-69360626D01*
X122431050Y-69368248D01*
X122271713Y-69423717D01*
X122126658Y-69499752D01*
X121996887Y-69595266D01*
X121883401Y-69709175D01*
X121787203Y-69840392D01*
X121709294Y-69987832D01*
X121650675Y-70150408D01*
X121628704Y-70237992D01*
X121617806Y-70307392D01*
X121610397Y-70394231D01*
X121606475Y-70491697D01*
X121606041Y-70592981D01*
X121609094Y-70691271D01*
X121615632Y-70779755D01*
X121625656Y-70851623D01*
X121628762Y-70866437D01*
X121676563Y-71023923D01*
X121744485Y-71172191D01*
X121830428Y-71308948D01*
X121932294Y-71431901D01*
X122047984Y-71538759D01*
X122175398Y-71627227D01*
X122312438Y-71695013D01*
X122420135Y-71730864D01*
X122495972Y-71747671D01*
X122582435Y-71761450D01*
X122672609Y-71771591D01*
X122759574Y-71777483D01*
X122836415Y-71778515D01*
X122896213Y-71774077D01*
X122900950Y-71773315D01*
X123006166Y-71753548D01*
X123091475Y-71733384D01*
X123162350Y-71711350D01*
X123222769Y-71686665D01*
X123357183Y-71611059D01*
X123476497Y-71516176D01*
X123578561Y-71404145D01*
X123661223Y-71277091D01*
X123685143Y-71229531D01*
X123708325Y-71174399D01*
X123729638Y-71113784D01*
X123747885Y-71052557D01*
X123761871Y-70995590D01*
X123770400Y-70947755D01*
X123772274Y-70913922D01*
X123766318Y-70898971D01*
X123749554Y-70897389D01*
X123711408Y-70896302D01*
X123655890Y-70895742D01*
X123587016Y-70895743D01*
X123508796Y-70896340D01*
X123486545Y-70896608D01*
X123221896Y-70900050D01*
X123197961Y-70994335D01*
X123181420Y-71054056D01*
X123164760Y-71097171D01*
X123143479Y-71132095D01*
X123113075Y-71167240D01*
X123096380Y-71184213D01*
X123029914Y-71234087D01*
X122943488Y-71272471D01*
X122840443Y-71297985D01*
X122809894Y-71302529D01*
X122692395Y-71307897D01*
X122587156Y-71291538D01*
X122492362Y-71252873D01*
X122406199Y-71191320D01*
X122377478Y-71163989D01*
X122306075Y-71073915D01*
X122249363Y-70965013D01*
X122207904Y-70839558D01*
X122182257Y-70699827D01*
X122172981Y-70548096D01*
X122180636Y-70386642D01*
X122182311Y-70370452D01*
X122204465Y-70232325D01*
X122239166Y-70115195D01*
X122287256Y-70017520D01*
X122349577Y-69937754D01*
X122426969Y-69874355D01*
X122465010Y-69851784D01*
X122503845Y-69831952D01*
X122536804Y-69818993D01*
X122571705Y-69811150D01*
X122616362Y-69806668D01*
X122678591Y-69803792D01*
X122678700Y-69803788D01*
X122808366Y-69807815D01*
X122920254Y-69829937D01*
X123014475Y-69870216D01*
X123091137Y-69928711D01*
X123150347Y-70005483D01*
X123187235Y-70085717D01*
X123205331Y-70140484D01*
X123212316Y-70175902D01*
X123206652Y-70196151D01*
X123186801Y-70205411D01*
X123151222Y-70207859D01*
X123142250Y-70207900D01*
X123103993Y-70209489D01*
X123078621Y-70213589D01*
X123072400Y-70217565D01*
X123081017Y-70228887D01*
X123105206Y-70255466D01*
X123142476Y-70294702D01*
X123190338Y-70343994D01*
X123246301Y-70400741D01*
X123285264Y-70439817D01*
X123498127Y-70652403D01*
X123710714Y-70439540D01*
X123770466Y-70379354D01*
X123823727Y-70325027D01*
X123868008Y-70279151D01*
X123900826Y-70244317D01*
X123919694Y-70223116D01*
X123923300Y-70217894D01*
X123911744Y-70212763D01*
X123881633Y-70208135D01*
X123844862Y-70205331D01*
X123766424Y-70201550D01*
X123744313Y-70098548D01*
X123699063Y-69943512D01*
X123633592Y-69803392D01*
X123548887Y-69679194D01*
X123445937Y-69571922D01*
X123325727Y-69482583D01*
X123189246Y-69412182D01*
X123037482Y-69361722D01*
X123015133Y-69356321D01*
X122916705Y-69340348D01*
X122803321Y-69332973D01*
X122683861Y-69334015D01*
%TO.C,OSHW*%
G36*
X134078100Y-91611903D02*
G01*
X133966550Y-91667522D01*
X133868092Y-91769931D01*
X133840977Y-91807864D01*
X133811438Y-91857500D01*
X133792272Y-91911412D01*
X133781307Y-91983364D01*
X133776371Y-92087122D01*
X133775287Y-92224101D01*
X133780182Y-92411815D01*
X133797196Y-92552758D01*
X133829823Y-92657908D01*
X133881558Y-92738243D01*
X133955896Y-92804741D01*
X133961358Y-92808678D01*
X134034620Y-92848953D01*
X134122840Y-92868880D01*
X134235038Y-92873793D01*
X134417433Y-92873793D01*
X134417509Y-93050857D01*
X134419207Y-93149470D01*
X134429550Y-93207314D01*
X134456578Y-93242006D01*
X134508332Y-93271164D01*
X134520761Y-93277121D01*
X134578923Y-93305039D01*
X134623956Y-93322672D01*
X134657441Y-93324194D01*
X134680962Y-93303781D01*
X134696100Y-93255607D01*
X134704437Y-93173846D01*
X134707556Y-93052672D01*
X134707040Y-92886260D01*
X134704471Y-92668785D01*
X134703668Y-92603736D01*
X134700778Y-92379502D01*
X134698188Y-92232821D01*
X134417586Y-92232821D01*
X134416009Y-92357326D01*
X134409000Y-92438787D01*
X134393142Y-92492515D01*
X134365019Y-92533823D01*
X134345925Y-92553971D01*
X134267865Y-92612921D01*
X134198753Y-92617720D01*
X134127440Y-92569038D01*
X134125632Y-92567241D01*
X134096617Y-92529618D01*
X134078967Y-92478484D01*
X134070064Y-92399738D01*
X134067291Y-92279276D01*
X134067241Y-92252588D01*
X134073942Y-92086583D01*
X134095752Y-91971505D01*
X134135235Y-91901254D01*
X134194956Y-91869729D01*
X134229472Y-91866552D01*
X134311389Y-91881460D01*
X134367579Y-91930548D01*
X134401402Y-92020362D01*
X134416220Y-92157445D01*
X134417586Y-92232821D01*
X134698188Y-92232821D01*
X134697713Y-92205952D01*
X134693753Y-92075382D01*
X134688174Y-91980087D01*
X134680254Y-91912364D01*
X134669269Y-91864507D01*
X134654499Y-91828813D01*
X134635218Y-91797578D01*
X134626951Y-91785824D01*
X134517288Y-91674797D01*
X134378635Y-91611847D01*
X134218246Y-91594297D01*
X134078100Y-91611903D01*
G37*
X134078100Y-91611903D02*
X133966550Y-91667522D01*
X133868092Y-91769931D01*
X133840977Y-91807864D01*
X133811438Y-91857500D01*
X133792272Y-91911412D01*
X133781307Y-91983364D01*
X133776371Y-92087122D01*
X133775287Y-92224101D01*
X133780182Y-92411815D01*
X133797196Y-92552758D01*
X133829823Y-92657908D01*
X133881558Y-92738243D01*
X133955896Y-92804741D01*
X133961358Y-92808678D01*
X134034620Y-92848953D01*
X134122840Y-92868880D01*
X134235038Y-92873793D01*
X134417433Y-92873793D01*
X134417509Y-93050857D01*
X134419207Y-93149470D01*
X134429550Y-93207314D01*
X134456578Y-93242006D01*
X134508332Y-93271164D01*
X134520761Y-93277121D01*
X134578923Y-93305039D01*
X134623956Y-93322672D01*
X134657441Y-93324194D01*
X134680962Y-93303781D01*
X134696100Y-93255607D01*
X134704437Y-93173846D01*
X134707556Y-93052672D01*
X134707040Y-92886260D01*
X134704471Y-92668785D01*
X134703668Y-92603736D01*
X134700778Y-92379502D01*
X134698188Y-92232821D01*
X134417586Y-92232821D01*
X134416009Y-92357326D01*
X134409000Y-92438787D01*
X134393142Y-92492515D01*
X134365019Y-92533823D01*
X134345925Y-92553971D01*
X134267865Y-92612921D01*
X134198753Y-92617720D01*
X134127440Y-92569038D01*
X134125632Y-92567241D01*
X134096617Y-92529618D01*
X134078967Y-92478484D01*
X134070064Y-92399738D01*
X134067291Y-92279276D01*
X134067241Y-92252588D01*
X134073942Y-92086583D01*
X134095752Y-91971505D01*
X134135235Y-91901254D01*
X134194956Y-91869729D01*
X134229472Y-91866552D01*
X134311389Y-91881460D01*
X134367579Y-91930548D01*
X134401402Y-92020362D01*
X134416220Y-92157445D01*
X134417586Y-92232821D01*
X134698188Y-92232821D01*
X134697713Y-92205952D01*
X134693753Y-92075382D01*
X134688174Y-91980087D01*
X134680254Y-91912364D01*
X134669269Y-91864507D01*
X134654499Y-91828813D01*
X134635218Y-91797578D01*
X134626951Y-91785824D01*
X134517288Y-91674797D01*
X134378635Y-91611847D01*
X134218246Y-91594297D01*
X134078100Y-91611903D01*
G36*
X131832571Y-91627719D02*
G01*
X131738877Y-91681914D01*
X131673736Y-91735707D01*
X131626093Y-91792066D01*
X131593272Y-91860987D01*
X131572594Y-91952468D01*
X131561380Y-92076506D01*
X131556951Y-92243098D01*
X131556437Y-92362851D01*
X131556437Y-92803659D01*
X131680517Y-92859283D01*
X131804598Y-92914907D01*
X131819195Y-92432095D01*
X131825227Y-92251779D01*
X131831555Y-92120901D01*
X131839394Y-92030511D01*
X131849963Y-91971664D01*
X131864477Y-91935413D01*
X131884152Y-91912810D01*
X131890465Y-91907917D01*
X131986112Y-91869706D01*
X132082793Y-91884827D01*
X132140345Y-91924943D01*
X132163755Y-91953370D01*
X132179961Y-91990672D01*
X132190259Y-92047223D01*
X132195951Y-92133394D01*
X132198336Y-92259558D01*
X132198736Y-92391042D01*
X132198814Y-92555999D01*
X132201639Y-92672761D01*
X132211093Y-92751510D01*
X132231060Y-92802431D01*
X132265424Y-92835706D01*
X132318068Y-92861520D01*
X132388383Y-92888344D01*
X132465180Y-92917542D01*
X132456038Y-92399346D01*
X132452357Y-92212539D01*
X132448050Y-92074490D01*
X132441877Y-91975568D01*
X132432598Y-91906145D01*
X132418973Y-91856590D01*
X132399761Y-91817273D01*
X132376598Y-91782584D01*
X132264848Y-91671770D01*
X132128487Y-91607689D01*
X131980175Y-91592339D01*
X131832571Y-91627719D01*
G37*
X131832571Y-91627719D02*
X131738877Y-91681914D01*
X131673736Y-91735707D01*
X131626093Y-91792066D01*
X131593272Y-91860987D01*
X131572594Y-91952468D01*
X131561380Y-92076506D01*
X131556951Y-92243098D01*
X131556437Y-92362851D01*
X131556437Y-92803659D01*
X131680517Y-92859283D01*
X131804598Y-92914907D01*
X131819195Y-92432095D01*
X131825227Y-92251779D01*
X131831555Y-92120901D01*
X131839394Y-92030511D01*
X131849963Y-91971664D01*
X131864477Y-91935413D01*
X131884152Y-91912810D01*
X131890465Y-91907917D01*
X131986112Y-91869706D01*
X132082793Y-91884827D01*
X132140345Y-91924943D01*
X132163755Y-91953370D01*
X132179961Y-91990672D01*
X132190259Y-92047223D01*
X132195951Y-92133394D01*
X132198336Y-92259558D01*
X132198736Y-92391042D01*
X132198814Y-92555999D01*
X132201639Y-92672761D01*
X132211093Y-92751510D01*
X132231060Y-92802431D01*
X132265424Y-92835706D01*
X132318068Y-92861520D01*
X132388383Y-92888344D01*
X132465180Y-92917542D01*
X132456038Y-92399346D01*
X132452357Y-92212539D01*
X132448050Y-92074490D01*
X132441877Y-91975568D01*
X132432598Y-91906145D01*
X132418973Y-91856590D01*
X132399761Y-91817273D01*
X132376598Y-91782584D01*
X132264848Y-91671770D01*
X132128487Y-91607689D01*
X131980175Y-91592339D01*
X131832571Y-91627719D01*
G36*
X135201779Y-91616015D02*
G01*
X135064939Y-91687968D01*
X134963949Y-91803766D01*
X134928075Y-91878213D01*
X134900161Y-91989992D01*
X134885871Y-92131227D01*
X134884516Y-92285371D01*
X134895405Y-92435879D01*
X134917847Y-92566205D01*
X134951150Y-92659803D01*
X134961385Y-92675922D01*
X135082618Y-92796249D01*
X135226613Y-92868317D01*
X135382861Y-92889408D01*
X135540852Y-92856802D01*
X135584820Y-92837253D01*
X135670444Y-92777012D01*
X135745592Y-92697135D01*
X135752694Y-92687004D01*
X135781561Y-92638181D01*
X135800643Y-92585990D01*
X135811916Y-92517285D01*
X135817355Y-92418918D01*
X135818938Y-92277744D01*
X135818965Y-92246092D01*
X135818893Y-92236019D01*
X135527011Y-92236019D01*
X135525313Y-92369256D01*
X135518628Y-92457674D01*
X135504575Y-92514785D01*
X135480771Y-92554102D01*
X135468621Y-92567241D01*
X135398764Y-92617172D01*
X135330941Y-92614895D01*
X135262365Y-92571584D01*
X135221465Y-92525346D01*
X135197242Y-92457857D01*
X135183639Y-92351433D01*
X135182706Y-92339020D01*
X135180384Y-92146147D01*
X135204650Y-92002900D01*
X135255176Y-91910160D01*
X135331632Y-91868807D01*
X135358924Y-91866552D01*
X135430589Y-91877893D01*
X135479610Y-91917184D01*
X135509582Y-91992326D01*
X135524101Y-92111222D01*
X135527011Y-92236019D01*
X135818893Y-92236019D01*
X135817878Y-92095659D01*
X135813312Y-91990549D01*
X135803312Y-91917714D01*
X135785921Y-91864108D01*
X135759184Y-91816681D01*
X135753276Y-91807864D01*
X135653968Y-91689007D01*
X135545758Y-91620008D01*
X135414019Y-91592619D01*
X135369283Y-91591281D01*
X135201779Y-91616015D01*
G37*
X135201779Y-91616015D02*
X135064939Y-91687968D01*
X134963949Y-91803766D01*
X134928075Y-91878213D01*
X134900161Y-91989992D01*
X134885871Y-92131227D01*
X134884516Y-92285371D01*
X134895405Y-92435879D01*
X134917847Y-92566205D01*
X134951150Y-92659803D01*
X134961385Y-92675922D01*
X135082618Y-92796249D01*
X135226613Y-92868317D01*
X135382861Y-92889408D01*
X135540852Y-92856802D01*
X135584820Y-92837253D01*
X135670444Y-92777012D01*
X135745592Y-92697135D01*
X135752694Y-92687004D01*
X135781561Y-92638181D01*
X135800643Y-92585990D01*
X135811916Y-92517285D01*
X135817355Y-92418918D01*
X135818938Y-92277744D01*
X135818965Y-92246092D01*
X135818893Y-92236019D01*
X135527011Y-92236019D01*
X135525313Y-92369256D01*
X135518628Y-92457674D01*
X135504575Y-92514785D01*
X135480771Y-92554102D01*
X135468621Y-92567241D01*
X135398764Y-92617172D01*
X135330941Y-92614895D01*
X135262365Y-92571584D01*
X135221465Y-92525346D01*
X135197242Y-92457857D01*
X135183639Y-92351433D01*
X135182706Y-92339020D01*
X135180384Y-92146147D01*
X135204650Y-92002900D01*
X135255176Y-91910160D01*
X135331632Y-91868807D01*
X135358924Y-91866552D01*
X135430589Y-91877893D01*
X135479610Y-91917184D01*
X135509582Y-91992326D01*
X135524101Y-92111222D01*
X135527011Y-92236019D01*
X135818893Y-92236019D01*
X135817878Y-92095659D01*
X135813312Y-91990549D01*
X135803312Y-91917714D01*
X135785921Y-91864108D01*
X135759184Y-91816681D01*
X135753276Y-91807864D01*
X135653968Y-91689007D01*
X135545758Y-91620008D01*
X135414019Y-91592619D01*
X135369283Y-91591281D01*
X135201779Y-91616015D01*
G36*
X132934448Y-91634676D02*
G01*
X132819342Y-91712111D01*
X132730389Y-91823949D01*
X132677251Y-91966265D01*
X132666503Y-92071015D01*
X132667724Y-92114726D01*
X132677944Y-92148194D01*
X132706039Y-92178179D01*
X132760884Y-92211440D01*
X132851355Y-92254738D01*
X132986328Y-92314833D01*
X132987011Y-92315134D01*
X133111249Y-92372037D01*
X133213127Y-92422565D01*
X133282233Y-92461280D01*
X133308154Y-92482740D01*
X133308161Y-92482913D01*
X133285315Y-92529644D01*
X133231891Y-92581154D01*
X133170558Y-92618261D01*
X133139485Y-92625632D01*
X133054711Y-92600138D01*
X132981707Y-92536291D01*
X132946087Y-92466094D01*
X132911820Y-92414343D01*
X132844697Y-92355409D01*
X132765792Y-92304496D01*
X132696179Y-92276809D01*
X132681623Y-92275287D01*
X132665237Y-92300321D01*
X132664250Y-92364311D01*
X132676292Y-92450593D01*
X132698993Y-92542501D01*
X132729986Y-92623369D01*
X132731552Y-92626509D01*
X132824819Y-92756734D01*
X132945696Y-92845311D01*
X133082973Y-92888786D01*
X133225440Y-92883706D01*
X133361888Y-92826616D01*
X133367955Y-92822602D01*
X133475290Y-92725326D01*
X133545868Y-92598409D01*
X133584926Y-92431526D01*
X133590168Y-92384639D01*
X133599452Y-92163329D01*
X133588322Y-92060124D01*
X133308161Y-92060124D01*
X133304521Y-92124503D01*
X133284611Y-92143291D01*
X133234974Y-92129235D01*
X133156733Y-92096009D01*
X133069274Y-92054359D01*
X133067101Y-92053256D01*
X132992970Y-92014265D01*
X132963219Y-91988244D01*
X132970555Y-91960965D01*
X133001447Y-91925121D01*
X133080040Y-91873251D01*
X133164677Y-91869439D01*
X133240597Y-91907189D01*
X133293035Y-91980001D01*
X133308161Y-92060124D01*
X133588322Y-92060124D01*
X133580356Y-91986261D01*
X133531366Y-91845829D01*
X133463164Y-91747447D01*
X133340065Y-91648030D01*
X133204472Y-91598711D01*
X133066045Y-91595568D01*
X132934448Y-91634676D01*
G37*
X132934448Y-91634676D02*
X132819342Y-91712111D01*
X132730389Y-91823949D01*
X132677251Y-91966265D01*
X132666503Y-92071015D01*
X132667724Y-92114726D01*
X132677944Y-92148194D01*
X132706039Y-92178179D01*
X132760884Y-92211440D01*
X132851355Y-92254738D01*
X132986328Y-92314833D01*
X132987011Y-92315134D01*
X133111249Y-92372037D01*
X133213127Y-92422565D01*
X133282233Y-92461280D01*
X133308154Y-92482740D01*
X133308161Y-92482913D01*
X133285315Y-92529644D01*
X133231891Y-92581154D01*
X133170558Y-92618261D01*
X133139485Y-92625632D01*
X133054711Y-92600138D01*
X132981707Y-92536291D01*
X132946087Y-92466094D01*
X132911820Y-92414343D01*
X132844697Y-92355409D01*
X132765792Y-92304496D01*
X132696179Y-92276809D01*
X132681623Y-92275287D01*
X132665237Y-92300321D01*
X132664250Y-92364311D01*
X132676292Y-92450593D01*
X132698993Y-92542501D01*
X132729986Y-92623369D01*
X132731552Y-92626509D01*
X132824819Y-92756734D01*
X132945696Y-92845311D01*
X133082973Y-92888786D01*
X133225440Y-92883706D01*
X133361888Y-92826616D01*
X133367955Y-92822602D01*
X133475290Y-92725326D01*
X133545868Y-92598409D01*
X133584926Y-92431526D01*
X133590168Y-92384639D01*
X133599452Y-92163329D01*
X133588322Y-92060124D01*
X133308161Y-92060124D01*
X133304521Y-92124503D01*
X133284611Y-92143291D01*
X133234974Y-92129235D01*
X133156733Y-92096009D01*
X133069274Y-92054359D01*
X133067101Y-92053256D01*
X132992970Y-92014265D01*
X132963219Y-91988244D01*
X132970555Y-91960965D01*
X133001447Y-91925121D01*
X133080040Y-91873251D01*
X133164677Y-91869439D01*
X133240597Y-91907189D01*
X133293035Y-91980001D01*
X133308161Y-92060124D01*
X133588322Y-92060124D01*
X133580356Y-91986261D01*
X133531366Y-91845829D01*
X133463164Y-91747447D01*
X133340065Y-91648030D01*
X133204472Y-91598711D01*
X133066045Y-91595568D01*
X132934448Y-91634676D01*
G36*
X130505402Y-91473857D02*
G01*
X130496846Y-91593188D01*
X130487019Y-91663506D01*
X130473401Y-91694179D01*
X130453473Y-91694571D01*
X130447011Y-91690910D01*
X130361060Y-91664398D01*
X130249255Y-91665946D01*
X130135586Y-91693199D01*
X130064490Y-91728455D01*
X129991595Y-91784778D01*
X129938307Y-91848519D01*
X129901725Y-91929510D01*
X129878950Y-92037586D01*
X129867081Y-92182580D01*
X129863218Y-92374326D01*
X129863149Y-92411109D01*
X129863103Y-92824288D01*
X129955046Y-92856339D01*
X130020348Y-92878144D01*
X130056176Y-92888297D01*
X130057230Y-92888391D01*
X130060758Y-92860860D01*
X130063761Y-92784923D01*
X130066010Y-92670565D01*
X130067276Y-92527769D01*
X130067471Y-92440951D01*
X130067877Y-92269773D01*
X130069968Y-92147088D01*
X130075053Y-92063000D01*
X130084440Y-92007614D01*
X130099439Y-91971032D01*
X130121358Y-91943359D01*
X130135043Y-91930032D01*
X130229051Y-91876328D01*
X130331636Y-91872307D01*
X130424710Y-91917725D01*
X130441922Y-91934123D01*
X130467168Y-91964957D01*
X130484680Y-92001531D01*
X130495858Y-92054415D01*
X130502104Y-92134177D01*
X130504818Y-92251385D01*
X130505402Y-92412991D01*
X130505402Y-92824288D01*
X130597345Y-92856339D01*
X130662647Y-92878144D01*
X130698475Y-92888297D01*
X130699529Y-92888391D01*
X130702225Y-92860448D01*
X130704655Y-92781630D01*
X130706722Y-92659453D01*
X130708329Y-92501432D01*
X130709377Y-92315083D01*
X130709769Y-92107920D01*
X130709770Y-92098706D01*
X130709770Y-91309020D01*
X130614885Y-91268997D01*
X130520000Y-91228973D01*
X130505402Y-91473857D01*
G37*
X130505402Y-91473857D02*
X130496846Y-91593188D01*
X130487019Y-91663506D01*
X130473401Y-91694179D01*
X130453473Y-91694571D01*
X130447011Y-91690910D01*
X130361060Y-91664398D01*
X130249255Y-91665946D01*
X130135586Y-91693199D01*
X130064490Y-91728455D01*
X129991595Y-91784778D01*
X129938307Y-91848519D01*
X129901725Y-91929510D01*
X129878950Y-92037586D01*
X129867081Y-92182580D01*
X129863218Y-92374326D01*
X129863149Y-92411109D01*
X129863103Y-92824288D01*
X129955046Y-92856339D01*
X130020348Y-92878144D01*
X130056176Y-92888297D01*
X130057230Y-92888391D01*
X130060758Y-92860860D01*
X130063761Y-92784923D01*
X130066010Y-92670565D01*
X130067276Y-92527769D01*
X130067471Y-92440951D01*
X130067877Y-92269773D01*
X130069968Y-92147088D01*
X130075053Y-92063000D01*
X130084440Y-92007614D01*
X130099439Y-91971032D01*
X130121358Y-91943359D01*
X130135043Y-91930032D01*
X130229051Y-91876328D01*
X130331636Y-91872307D01*
X130424710Y-91917725D01*
X130441922Y-91934123D01*
X130467168Y-91964957D01*
X130484680Y-92001531D01*
X130495858Y-92054415D01*
X130502104Y-92134177D01*
X130504818Y-92251385D01*
X130505402Y-92412991D01*
X130505402Y-92824288D01*
X130597345Y-92856339D01*
X130662647Y-92878144D01*
X130698475Y-92888297D01*
X130699529Y-92888391D01*
X130702225Y-92860448D01*
X130704655Y-92781630D01*
X130706722Y-92659453D01*
X130708329Y-92501432D01*
X130709377Y-92315083D01*
X130709769Y-92107920D01*
X130709770Y-92098706D01*
X130709770Y-91309020D01*
X130614885Y-91268997D01*
X130520000Y-91228973D01*
X130505402Y-91473857D01*
G36*
X129170056Y-91674360D02*
G01*
X129055657Y-91716842D01*
X129054348Y-91717658D01*
X128983597Y-91769730D01*
X128931364Y-91830584D01*
X128894629Y-91909887D01*
X128870366Y-92017309D01*
X128855555Y-92162517D01*
X128847171Y-92355179D01*
X128846436Y-92382628D01*
X128835880Y-92796521D01*
X128924709Y-92842456D01*
X128988982Y-92873498D01*
X129027790Y-92888206D01*
X129029585Y-92888391D01*
X129036300Y-92861250D01*
X129041635Y-92788041D01*
X129044917Y-92681081D01*
X129045632Y-92594469D01*
X129045649Y-92454162D01*
X129052063Y-92366051D01*
X129074420Y-92324025D01*
X129122268Y-92321975D01*
X129205151Y-92353790D01*
X129330287Y-92412272D01*
X129422303Y-92460845D01*
X129469629Y-92502986D01*
X129483542Y-92548916D01*
X129483563Y-92551189D01*
X129460605Y-92630311D01*
X129392630Y-92673055D01*
X129288602Y-92679246D01*
X129213670Y-92678172D01*
X129174161Y-92699753D01*
X129149522Y-92751591D01*
X129135341Y-92817632D01*
X129155777Y-92855104D01*
X129163472Y-92860467D01*
X129235917Y-92882006D01*
X129337367Y-92885055D01*
X129441843Y-92870778D01*
X129515875Y-92844688D01*
X129618228Y-92757785D01*
X129676409Y-92636816D01*
X129687931Y-92542308D01*
X129679138Y-92457062D01*
X129647320Y-92387476D01*
X129584316Y-92325672D01*
X129481969Y-92263772D01*
X129332118Y-92193897D01*
X129322988Y-92189948D01*
X129188003Y-92127588D01*
X129104706Y-92076446D01*
X129069003Y-92030488D01*
X129076797Y-91983683D01*
X129123993Y-91929998D01*
X129138106Y-91917644D01*
X129232641Y-91869741D01*
X129330594Y-91871758D01*
X129415903Y-91918724D01*
X129472504Y-92005669D01*
X129477763Y-92022734D01*
X129528977Y-92105504D01*
X129593963Y-92145372D01*
X129687931Y-92184882D01*
X129687931Y-92082658D01*
X129659347Y-91934072D01*
X129574505Y-91797784D01*
X129530355Y-91752191D01*
X129429995Y-91693674D01*
X129302365Y-91667184D01*
X129170056Y-91674360D01*
G37*
X129170056Y-91674360D02*
X129055657Y-91716842D01*
X129054348Y-91717658D01*
X128983597Y-91769730D01*
X128931364Y-91830584D01*
X128894629Y-91909887D01*
X128870366Y-92017309D01*
X128855555Y-92162517D01*
X128847171Y-92355179D01*
X128846436Y-92382628D01*
X128835880Y-92796521D01*
X128924709Y-92842456D01*
X128988982Y-92873498D01*
X129027790Y-92888206D01*
X129029585Y-92888391D01*
X129036300Y-92861250D01*
X129041635Y-92788041D01*
X129044917Y-92681081D01*
X129045632Y-92594469D01*
X129045649Y-92454162D01*
X129052063Y-92366051D01*
X129074420Y-92324025D01*
X129122268Y-92321975D01*
X129205151Y-92353790D01*
X129330287Y-92412272D01*
X129422303Y-92460845D01*
X129469629Y-92502986D01*
X129483542Y-92548916D01*
X129483563Y-92551189D01*
X129460605Y-92630311D01*
X129392630Y-92673055D01*
X129288602Y-92679246D01*
X129213670Y-92678172D01*
X129174161Y-92699753D01*
X129149522Y-92751591D01*
X129135341Y-92817632D01*
X129155777Y-92855104D01*
X129163472Y-92860467D01*
X129235917Y-92882006D01*
X129337367Y-92885055D01*
X129441843Y-92870778D01*
X129515875Y-92844688D01*
X129618228Y-92757785D01*
X129676409Y-92636816D01*
X129687931Y-92542308D01*
X129679138Y-92457062D01*
X129647320Y-92387476D01*
X129584316Y-92325672D01*
X129481969Y-92263772D01*
X129332118Y-92193897D01*
X129322988Y-92189948D01*
X129188003Y-92127588D01*
X129104706Y-92076446D01*
X129069003Y-92030488D01*
X129076797Y-91983683D01*
X129123993Y-91929998D01*
X129138106Y-91917644D01*
X129232641Y-91869741D01*
X129330594Y-91871758D01*
X129415903Y-91918724D01*
X129472504Y-92005669D01*
X129477763Y-92022734D01*
X129528977Y-92105504D01*
X129593963Y-92145372D01*
X129687931Y-92184882D01*
X129687931Y-92082658D01*
X129659347Y-91934072D01*
X129574505Y-91797784D01*
X129530355Y-91752191D01*
X129429995Y-91693674D01*
X129302365Y-91667184D01*
X129170056Y-91674360D01*
G36*
X128184057Y-91671920D02*
G01*
X128051435Y-91720859D01*
X127943990Y-91807419D01*
X127901968Y-91868352D01*
X127856157Y-91980161D01*
X127857109Y-92061006D01*
X127905192Y-92115378D01*
X127922983Y-92124624D01*
X127999796Y-92153450D01*
X128039024Y-92146065D01*
X128052311Y-92097658D01*
X128052988Y-92070920D01*
X128077314Y-91972548D01*
X128140719Y-91903734D01*
X128228846Y-91870498D01*
X128327337Y-91878861D01*
X128407398Y-91922296D01*
X128434439Y-91947072D01*
X128453606Y-91977129D01*
X128466554Y-92022565D01*
X128474936Y-92093476D01*
X128480407Y-92199960D01*
X128484622Y-92352112D01*
X128485713Y-92400287D01*
X128489693Y-92565095D01*
X128494219Y-92681088D01*
X128501005Y-92757833D01*
X128511769Y-92804893D01*
X128528227Y-92831835D01*
X128552094Y-92848223D01*
X128567374Y-92855463D01*
X128632267Y-92880220D01*
X128670466Y-92888391D01*
X128683088Y-92861103D01*
X128690792Y-92778603D01*
X128693620Y-92639941D01*
X128691614Y-92444162D01*
X128690989Y-92413965D01*
X128686579Y-92235349D01*
X128681365Y-92104923D01*
X128673945Y-92012492D01*
X128662918Y-91947858D01*
X128646883Y-91900825D01*
X128624439Y-91861196D01*
X128612698Y-91844215D01*
X128545381Y-91769080D01*
X128470090Y-91710638D01*
X128460872Y-91705536D01*
X128325867Y-91665260D01*
X128184057Y-91671920D01*
G37*
X128184057Y-91671920D02*
X128051435Y-91720859D01*
X127943990Y-91807419D01*
X127901968Y-91868352D01*
X127856157Y-91980161D01*
X127857109Y-92061006D01*
X127905192Y-92115378D01*
X127922983Y-92124624D01*
X127999796Y-92153450D01*
X128039024Y-92146065D01*
X128052311Y-92097658D01*
X128052988Y-92070920D01*
X128077314Y-91972548D01*
X128140719Y-91903734D01*
X128228846Y-91870498D01*
X128327337Y-91878861D01*
X128407398Y-91922296D01*
X128434439Y-91947072D01*
X128453606Y-91977129D01*
X128466554Y-92022565D01*
X128474936Y-92093476D01*
X128480407Y-92199960D01*
X128484622Y-92352112D01*
X128485713Y-92400287D01*
X128489693Y-92565095D01*
X128494219Y-92681088D01*
X128501005Y-92757833D01*
X128511769Y-92804893D01*
X128528227Y-92831835D01*
X128552094Y-92848223D01*
X128567374Y-92855463D01*
X128632267Y-92880220D01*
X128670466Y-92888391D01*
X128683088Y-92861103D01*
X128690792Y-92778603D01*
X128693620Y-92639941D01*
X128691614Y-92444162D01*
X128690989Y-92413965D01*
X128686579Y-92235349D01*
X128681365Y-92104923D01*
X128673945Y-92012492D01*
X128662918Y-91947858D01*
X128646883Y-91900825D01*
X128624439Y-91861196D01*
X128612698Y-91844215D01*
X128545381Y-91769080D01*
X128470090Y-91710638D01*
X128460872Y-91705536D01*
X128325867Y-91665260D01*
X128184057Y-91671920D01*
G36*
X126856086Y-91904455D02*
G01*
X126856457Y-92122661D01*
X126857892Y-92290519D01*
X126860998Y-92416070D01*
X126866378Y-92507355D01*
X126874638Y-92572415D01*
X126886384Y-92619291D01*
X126902219Y-92656024D01*
X126914210Y-92676991D01*
X127013510Y-92790694D01*
X127139412Y-92861965D01*
X127278709Y-92887538D01*
X127418195Y-92864150D01*
X127501257Y-92822119D01*
X127588455Y-92749411D01*
X127647883Y-92660612D01*
X127683739Y-92544320D01*
X127700219Y-92389135D01*
X127702553Y-92275287D01*
X127702239Y-92267106D01*
X127498276Y-92267106D01*
X127497030Y-92397657D01*
X127491322Y-92484080D01*
X127478196Y-92540618D01*
X127454694Y-92581514D01*
X127426614Y-92612362D01*
X127332312Y-92671905D01*
X127231060Y-92676992D01*
X127135364Y-92627279D01*
X127127916Y-92620543D01*
X127096126Y-92585502D01*
X127076192Y-92543811D01*
X127065400Y-92481762D01*
X127061035Y-92385644D01*
X127060345Y-92279379D01*
X127061841Y-92145880D01*
X127068036Y-92056822D01*
X127081486Y-91998293D01*
X127104749Y-91956382D01*
X127123825Y-91934123D01*
X127212437Y-91877985D01*
X127314492Y-91871235D01*
X127411905Y-91914114D01*
X127430704Y-91930032D01*
X127462707Y-91965382D01*
X127482682Y-92007502D01*
X127493407Y-92070251D01*
X127497661Y-92167487D01*
X127498276Y-92267106D01*
X127702239Y-92267106D01*
X127695496Y-92091947D01*
X127671528Y-91954195D01*
X127626452Y-91850632D01*
X127556072Y-91769856D01*
X127501257Y-91728455D01*
X127401624Y-91683728D01*
X127286145Y-91662967D01*
X127178801Y-91668525D01*
X127118736Y-91690943D01*
X127095165Y-91697323D01*
X127079523Y-91673535D01*
X127068605Y-91609788D01*
X127060345Y-91512687D01*
X127051301Y-91404541D01*
X127038739Y-91339475D01*
X127015881Y-91302268D01*
X126975949Y-91277699D01*
X126950862Y-91266819D01*
X126855977Y-91227072D01*
X126856086Y-91904455D01*
G37*
X126856086Y-91904455D02*
X126856457Y-92122661D01*
X126857892Y-92290519D01*
X126860998Y-92416070D01*
X126866378Y-92507355D01*
X126874638Y-92572415D01*
X126886384Y-92619291D01*
X126902219Y-92656024D01*
X126914210Y-92676991D01*
X127013510Y-92790694D01*
X127139412Y-92861965D01*
X127278709Y-92887538D01*
X127418195Y-92864150D01*
X127501257Y-92822119D01*
X127588455Y-92749411D01*
X127647883Y-92660612D01*
X127683739Y-92544320D01*
X127700219Y-92389135D01*
X127702553Y-92275287D01*
X127702239Y-92267106D01*
X127498276Y-92267106D01*
X127497030Y-92397657D01*
X127491322Y-92484080D01*
X127478196Y-92540618D01*
X127454694Y-92581514D01*
X127426614Y-92612362D01*
X127332312Y-92671905D01*
X127231060Y-92676992D01*
X127135364Y-92627279D01*
X127127916Y-92620543D01*
X127096126Y-92585502D01*
X127076192Y-92543811D01*
X127065400Y-92481762D01*
X127061035Y-92385644D01*
X127060345Y-92279379D01*
X127061841Y-92145880D01*
X127068036Y-92056822D01*
X127081486Y-91998293D01*
X127104749Y-91956382D01*
X127123825Y-91934123D01*
X127212437Y-91877985D01*
X127314492Y-91871235D01*
X127411905Y-91914114D01*
X127430704Y-91930032D01*
X127462707Y-91965382D01*
X127482682Y-92007502D01*
X127493407Y-92070251D01*
X127497661Y-92167487D01*
X127498276Y-92267106D01*
X127702239Y-92267106D01*
X127695496Y-92091947D01*
X127671528Y-91954195D01*
X127626452Y-91850632D01*
X127556072Y-91769856D01*
X127501257Y-91728455D01*
X127401624Y-91683728D01*
X127286145Y-91662967D01*
X127178801Y-91668525D01*
X127118736Y-91690943D01*
X127095165Y-91697323D01*
X127079523Y-91673535D01*
X127068605Y-91609788D01*
X127060345Y-91512687D01*
X127051301Y-91404541D01*
X127038739Y-91339475D01*
X127015881Y-91302268D01*
X126975949Y-91277699D01*
X126950862Y-91266819D01*
X126855977Y-91227072D01*
X126856086Y-91904455D01*
G36*
X125669876Y-91689840D02*
G01*
X125665421Y-91766653D01*
X125661929Y-91883391D01*
X125659685Y-92030821D01*
X125658965Y-92185455D01*
X125658965Y-92708727D01*
X125751355Y-92801117D01*
X125815022Y-92858047D01*
X125870911Y-92881107D01*
X125947298Y-92879647D01*
X125977620Y-92875934D01*
X126072390Y-92865126D01*
X126150778Y-92858933D01*
X126169885Y-92858361D01*
X126234301Y-92862102D01*
X126326429Y-92871494D01*
X126362150Y-92875934D01*
X126449886Y-92882801D01*
X126508847Y-92867885D01*
X126567310Y-92821835D01*
X126588415Y-92801117D01*
X126680805Y-92708727D01*
X126680805Y-91729947D01*
X126606442Y-91696066D01*
X126542410Y-91670970D01*
X126504948Y-91662184D01*
X126495343Y-91689950D01*
X126486365Y-91767530D01*
X126478614Y-91886348D01*
X126472686Y-92037828D01*
X126469827Y-92165805D01*
X126461839Y-92669425D01*
X126392152Y-92679278D01*
X126328771Y-92672389D01*
X126297714Y-92650083D01*
X126289033Y-92608379D01*
X126281622Y-92519544D01*
X126276069Y-92394834D01*
X126272964Y-92245507D01*
X126272516Y-92168661D01*
X126272069Y-91726287D01*
X126180126Y-91694235D01*
X126115051Y-91672443D01*
X126079653Y-91662281D01*
X126078632Y-91662184D01*
X126075080Y-91689809D01*
X126071177Y-91766411D01*
X126067249Y-91882579D01*
X126063624Y-92028904D01*
X126061092Y-92165805D01*
X126053103Y-92669425D01*
X125877931Y-92669425D01*
X125869893Y-92209965D01*
X125861854Y-91750505D01*
X125776457Y-91706344D01*
X125713407Y-91676019D01*
X125676090Y-91662258D01*
X125675013Y-91662184D01*
X125669876Y-91689840D01*
G37*
X125669876Y-91689840D02*
X125665421Y-91766653D01*
X125661929Y-91883391D01*
X125659685Y-92030821D01*
X125658965Y-92185455D01*
X125658965Y-92708727D01*
X125751355Y-92801117D01*
X125815022Y-92858047D01*
X125870911Y-92881107D01*
X125947298Y-92879647D01*
X125977620Y-92875934D01*
X126072390Y-92865126D01*
X126150778Y-92858933D01*
X126169885Y-92858361D01*
X126234301Y-92862102D01*
X126326429Y-92871494D01*
X126362150Y-92875934D01*
X126449886Y-92882801D01*
X126508847Y-92867885D01*
X126567310Y-92821835D01*
X126588415Y-92801117D01*
X126680805Y-92708727D01*
X126680805Y-91729947D01*
X126606442Y-91696066D01*
X126542410Y-91670970D01*
X126504948Y-91662184D01*
X126495343Y-91689950D01*
X126486365Y-91767530D01*
X126478614Y-91886348D01*
X126472686Y-92037828D01*
X126469827Y-92165805D01*
X126461839Y-92669425D01*
X126392152Y-92679278D01*
X126328771Y-92672389D01*
X126297714Y-92650083D01*
X126289033Y-92608379D01*
X126281622Y-92519544D01*
X126276069Y-92394834D01*
X126272964Y-92245507D01*
X126272516Y-92168661D01*
X126272069Y-91726287D01*
X126180126Y-91694235D01*
X126115051Y-91672443D01*
X126079653Y-91662281D01*
X126078632Y-91662184D01*
X126075080Y-91689809D01*
X126071177Y-91766411D01*
X126067249Y-91882579D01*
X126063624Y-92028904D01*
X126061092Y-92165805D01*
X126053103Y-92669425D01*
X125877931Y-92669425D01*
X125869893Y-92209965D01*
X125861854Y-91750505D01*
X125776457Y-91706344D01*
X125713407Y-91676019D01*
X125676090Y-91662258D01*
X125675013Y-91662184D01*
X125669876Y-91689840D01*
G36*
X124935594Y-91685156D02*
G01*
X124851531Y-91723393D01*
X124785550Y-91769726D01*
X124737206Y-91821532D01*
X124703828Y-91888363D01*
X124682747Y-91979769D01*
X124671293Y-92105301D01*
X124666797Y-92274508D01*
X124666322Y-92385933D01*
X124666322Y-92820627D01*
X124740684Y-92854509D01*
X124799254Y-92879272D01*
X124828270Y-92888391D01*
X124833821Y-92861257D01*
X124838225Y-92788094D01*
X124840922Y-92681263D01*
X124841494Y-92596437D01*
X124843954Y-92473887D01*
X124850588Y-92376668D01*
X124860274Y-92317134D01*
X124867968Y-92304483D01*
X124919689Y-92317402D01*
X125000883Y-92350539D01*
X125094898Y-92395461D01*
X125185083Y-92443735D01*
X125254785Y-92486928D01*
X125287352Y-92516608D01*
X125287481Y-92516929D01*
X125284680Y-92571857D01*
X125259561Y-92624292D01*
X125215459Y-92666881D01*
X125151091Y-92681126D01*
X125096079Y-92679466D01*
X125018165Y-92678245D01*
X124977268Y-92696498D01*
X124952705Y-92744726D01*
X124949608Y-92753820D01*
X124938960Y-92822598D01*
X124967435Y-92864360D01*
X125041656Y-92884263D01*
X125121832Y-92887944D01*
X125266110Y-92860658D01*
X125340797Y-92821690D01*
X125433037Y-92730148D01*
X125481957Y-92617782D01*
X125486346Y-92499051D01*
X125444999Y-92388411D01*
X125382803Y-92319080D01*
X125320706Y-92280265D01*
X125223105Y-92231125D01*
X125109368Y-92181292D01*
X125090410Y-92173677D01*
X124965479Y-92118545D01*
X124893461Y-92069954D01*
X124870300Y-92021647D01*
X124891936Y-91967370D01*
X124929080Y-91924943D01*
X125016873Y-91872702D01*
X125113470Y-91868784D01*
X125202056Y-91909041D01*
X125265814Y-91989326D01*
X125274183Y-92010040D01*
X125322904Y-92086225D01*
X125394035Y-92142785D01*
X125483793Y-92189201D01*
X125483793Y-92057584D01*
X125478510Y-91977168D01*
X125455858Y-91913786D01*
X125405633Y-91846163D01*
X125357418Y-91794076D01*
X125282446Y-91720322D01*
X125224194Y-91680702D01*
X125161628Y-91664810D01*
X125090807Y-91662184D01*
X124935594Y-91685156D01*
G37*
X124935594Y-91685156D02*
X124851531Y-91723393D01*
X124785550Y-91769726D01*
X124737206Y-91821532D01*
X124703828Y-91888363D01*
X124682747Y-91979769D01*
X124671293Y-92105301D01*
X124666797Y-92274508D01*
X124666322Y-92385933D01*
X124666322Y-92820627D01*
X124740684Y-92854509D01*
X124799254Y-92879272D01*
X124828270Y-92888391D01*
X124833821Y-92861257D01*
X124838225Y-92788094D01*
X124840922Y-92681263D01*
X124841494Y-92596437D01*
X124843954Y-92473887D01*
X124850588Y-92376668D01*
X124860274Y-92317134D01*
X124867968Y-92304483D01*
X124919689Y-92317402D01*
X125000883Y-92350539D01*
X125094898Y-92395461D01*
X125185083Y-92443735D01*
X125254785Y-92486928D01*
X125287352Y-92516608D01*
X125287481Y-92516929D01*
X125284680Y-92571857D01*
X125259561Y-92624292D01*
X125215459Y-92666881D01*
X125151091Y-92681126D01*
X125096079Y-92679466D01*
X125018165Y-92678245D01*
X124977268Y-92696498D01*
X124952705Y-92744726D01*
X124949608Y-92753820D01*
X124938960Y-92822598D01*
X124967435Y-92864360D01*
X125041656Y-92884263D01*
X125121832Y-92887944D01*
X125266110Y-92860658D01*
X125340797Y-92821690D01*
X125433037Y-92730148D01*
X125481957Y-92617782D01*
X125486346Y-92499051D01*
X125444999Y-92388411D01*
X125382803Y-92319080D01*
X125320706Y-92280265D01*
X125223105Y-92231125D01*
X125109368Y-92181292D01*
X125090410Y-92173677D01*
X124965479Y-92118545D01*
X124893461Y-92069954D01*
X124870300Y-92021647D01*
X124891936Y-91967370D01*
X124929080Y-91924943D01*
X125016873Y-91872702D01*
X125113470Y-91868784D01*
X125202056Y-91909041D01*
X125265814Y-91989326D01*
X125274183Y-92010040D01*
X125322904Y-92086225D01*
X125394035Y-92142785D01*
X125483793Y-92189201D01*
X125483793Y-92057584D01*
X125478510Y-91977168D01*
X125455858Y-91913786D01*
X125405633Y-91846163D01*
X125357418Y-91794076D01*
X125282446Y-91720322D01*
X125224194Y-91680702D01*
X125161628Y-91664810D01*
X125090807Y-91662184D01*
X124935594Y-91685156D01*
G36*
X123914310Y-91690018D02*
G01*
X123879415Y-91705269D01*
X123796123Y-91771235D01*
X123724897Y-91866618D01*
X123680847Y-91968406D01*
X123673678Y-92018587D01*
X123697715Y-92088647D01*
X123750439Y-92125717D01*
X123806969Y-92148164D01*
X123832854Y-92152300D01*
X123845458Y-92122283D01*
X123870346Y-92056961D01*
X123881265Y-92027445D01*
X123942492Y-91925348D01*
X124031139Y-91874423D01*
X124144807Y-91875989D01*
X124153226Y-91877994D01*
X124213912Y-91906767D01*
X124258526Y-91962859D01*
X124288998Y-92053163D01*
X124307256Y-92184571D01*
X124315229Y-92363974D01*
X124315977Y-92459433D01*
X124316348Y-92609913D01*
X124318777Y-92712495D01*
X124325240Y-92777672D01*
X124337712Y-92815938D01*
X124358167Y-92837785D01*
X124388581Y-92853707D01*
X124390339Y-92854509D01*
X124448909Y-92879272D01*
X124477925Y-92888391D01*
X124482384Y-92860822D01*
X124486201Y-92784620D01*
X124489101Y-92669541D01*
X124490809Y-92525341D01*
X124491149Y-92419814D01*
X124489412Y-92215613D01*
X124482618Y-92060697D01*
X124468393Y-91946024D01*
X124444362Y-91862551D01*
X124408152Y-91801236D01*
X124357388Y-91753034D01*
X124307261Y-91719393D01*
X124186725Y-91674619D01*
X124046443Y-91664521D01*
X123914310Y-91690018D01*
G37*
X123914310Y-91690018D02*
X123879415Y-91705269D01*
X123796123Y-91771235D01*
X123724897Y-91866618D01*
X123680847Y-91968406D01*
X123673678Y-92018587D01*
X123697715Y-92088647D01*
X123750439Y-92125717D01*
X123806969Y-92148164D01*
X123832854Y-92152300D01*
X123845458Y-92122283D01*
X123870346Y-92056961D01*
X123881265Y-92027445D01*
X123942492Y-91925348D01*
X124031139Y-91874423D01*
X124144807Y-91875989D01*
X124153226Y-91877994D01*
X124213912Y-91906767D01*
X124258526Y-91962859D01*
X124288998Y-92053163D01*
X124307256Y-92184571D01*
X124315229Y-92363974D01*
X124315977Y-92459433D01*
X124316348Y-92609913D01*
X124318777Y-92712495D01*
X124325240Y-92777672D01*
X124337712Y-92815938D01*
X124358167Y-92837785D01*
X124388581Y-92853707D01*
X124390339Y-92854509D01*
X124448909Y-92879272D01*
X124477925Y-92888391D01*
X124482384Y-92860822D01*
X124486201Y-92784620D01*
X124489101Y-92669541D01*
X124490809Y-92525341D01*
X124491149Y-92419814D01*
X124489412Y-92215613D01*
X124482618Y-92060697D01*
X124468393Y-91946024D01*
X124444362Y-91862551D01*
X124408152Y-91801236D01*
X124357388Y-91753034D01*
X124307261Y-91719393D01*
X124186725Y-91674619D01*
X124046443Y-91664521D01*
X123914310Y-91690018D01*
G36*
X122906561Y-91706540D02*
G01*
X122791050Y-91782034D01*
X122735336Y-91849617D01*
X122691196Y-91972255D01*
X122687691Y-92069298D01*
X122695632Y-92199056D01*
X122994885Y-92330039D01*
X123140389Y-92396958D01*
X123235463Y-92450790D01*
X123284899Y-92497416D01*
X123293489Y-92542720D01*
X123266028Y-92592582D01*
X123235747Y-92625632D01*
X123147637Y-92678633D01*
X123051804Y-92682347D01*
X122963788Y-92641041D01*
X122899131Y-92558983D01*
X122887567Y-92530008D01*
X122832175Y-92439509D01*
X122768447Y-92400940D01*
X122681034Y-92367946D01*
X122681034Y-92493034D01*
X122688762Y-92578156D01*
X122719034Y-92649938D01*
X122782482Y-92732356D01*
X122791912Y-92743066D01*
X122862487Y-92816391D01*
X122923153Y-92855742D01*
X122999050Y-92873845D01*
X123061970Y-92879774D01*
X123174513Y-92881251D01*
X123254630Y-92862535D01*
X123304610Y-92834747D01*
X123383162Y-92773641D01*
X123437537Y-92707554D01*
X123471948Y-92624441D01*
X123490612Y-92512254D01*
X123497744Y-92358946D01*
X123498313Y-92281136D01*
X123496378Y-92187853D01*
X123320101Y-92187853D01*
X123318056Y-92237896D01*
X123312961Y-92246092D01*
X123279334Y-92234958D01*
X123206970Y-92205493D01*
X123110253Y-92163601D01*
X123090027Y-92154597D01*
X122967797Y-92092442D01*
X122900453Y-92037815D01*
X122885652Y-91986649D01*
X122921053Y-91934876D01*
X122950289Y-91912000D01*
X123055784Y-91866250D01*
X123154524Y-91873808D01*
X123237188Y-91929651D01*
X123294452Y-92028753D01*
X123312812Y-92107414D01*
X123320101Y-92187853D01*
X123496378Y-92187853D01*
X123494541Y-92099351D01*
X123480641Y-91964853D01*
X123453106Y-91866916D01*
X123408428Y-91794811D01*
X123343099Y-91737813D01*
X123314617Y-91719393D01*
X123185237Y-91671422D01*
X123043588Y-91668403D01*
X122906561Y-91706540D01*
G37*
X122906561Y-91706540D02*
X122791050Y-91782034D01*
X122735336Y-91849617D01*
X122691196Y-91972255D01*
X122687691Y-92069298D01*
X122695632Y-92199056D01*
X122994885Y-92330039D01*
X123140389Y-92396958D01*
X123235463Y-92450790D01*
X123284899Y-92497416D01*
X123293489Y-92542720D01*
X123266028Y-92592582D01*
X123235747Y-92625632D01*
X123147637Y-92678633D01*
X123051804Y-92682347D01*
X122963788Y-92641041D01*
X122899131Y-92558983D01*
X122887567Y-92530008D01*
X122832175Y-92439509D01*
X122768447Y-92400940D01*
X122681034Y-92367946D01*
X122681034Y-92493034D01*
X122688762Y-92578156D01*
X122719034Y-92649938D01*
X122782482Y-92732356D01*
X122791912Y-92743066D01*
X122862487Y-92816391D01*
X122923153Y-92855742D01*
X122999050Y-92873845D01*
X123061970Y-92879774D01*
X123174513Y-92881251D01*
X123254630Y-92862535D01*
X123304610Y-92834747D01*
X123383162Y-92773641D01*
X123437537Y-92707554D01*
X123471948Y-92624441D01*
X123490612Y-92512254D01*
X123497744Y-92358946D01*
X123498313Y-92281136D01*
X123496378Y-92187853D01*
X123320101Y-92187853D01*
X123318056Y-92237896D01*
X123312961Y-92246092D01*
X123279334Y-92234958D01*
X123206970Y-92205493D01*
X123110253Y-92163601D01*
X123090027Y-92154597D01*
X122967797Y-92092442D01*
X122900453Y-92037815D01*
X122885652Y-91986649D01*
X122921053Y-91934876D01*
X122950289Y-91912000D01*
X123055784Y-91866250D01*
X123154524Y-91873808D01*
X123237188Y-91929651D01*
X123294452Y-92028753D01*
X123312812Y-92107414D01*
X123320101Y-92187853D01*
X123496378Y-92187853D01*
X123494541Y-92099351D01*
X123480641Y-91964853D01*
X123453106Y-91866916D01*
X123408428Y-91794811D01*
X123343099Y-91737813D01*
X123314617Y-91719393D01*
X123185237Y-91671422D01*
X123043588Y-91668403D01*
X122906561Y-91706540D01*
G36*
X129040986Y-82202998D02*
G01*
X128882994Y-82203863D01*
X128768653Y-82206205D01*
X128690593Y-82210762D01*
X128641446Y-82218270D01*
X128613841Y-82229466D01*
X128600408Y-82245088D01*
X128593779Y-82265873D01*
X128593135Y-82268563D01*
X128583065Y-82317113D01*
X128564425Y-82412905D01*
X128539155Y-82545743D01*
X128509193Y-82705431D01*
X128476478Y-82881774D01*
X128475336Y-82887967D01*
X128442567Y-83060782D01*
X128411907Y-83213469D01*
X128385336Y-83336871D01*
X128364833Y-83421831D01*
X128352374Y-83459190D01*
X128351780Y-83459852D01*
X128315081Y-83478095D01*
X128239414Y-83508497D01*
X128141122Y-83544493D01*
X128140575Y-83544685D01*
X128016767Y-83591222D01*
X127870804Y-83650504D01*
X127733219Y-83710109D01*
X127726707Y-83713056D01*
X127502610Y-83814765D01*
X127006381Y-83475897D01*
X126854154Y-83372592D01*
X126716259Y-83280237D01*
X126600685Y-83204084D01*
X126515421Y-83149385D01*
X126468456Y-83121393D01*
X126463996Y-83119317D01*
X126429866Y-83128560D01*
X126366119Y-83173156D01*
X126270269Y-83255209D01*
X126139831Y-83376821D01*
X126006672Y-83506205D01*
X125878306Y-83633702D01*
X125763419Y-83750046D01*
X125668927Y-83848052D01*
X125601747Y-83920536D01*
X125568794Y-83960313D01*
X125567568Y-83962361D01*
X125563926Y-83989656D01*
X125577650Y-84034234D01*
X125612131Y-84102112D01*
X125670761Y-84199311D01*
X125756930Y-84331851D01*
X125871800Y-84502476D01*
X125973746Y-84652655D01*
X126064877Y-84787350D01*
X126139927Y-84898740D01*
X126193631Y-84979005D01*
X126220720Y-85020325D01*
X126222426Y-85023130D01*
X126219118Y-85062721D01*
X126194047Y-85139669D01*
X126152202Y-85239432D01*
X126137288Y-85271291D01*
X126072214Y-85413226D01*
X126002788Y-85574273D01*
X125946391Y-85713621D01*
X125905753Y-85817044D01*
X125873474Y-85895642D01*
X125854822Y-85936720D01*
X125852503Y-85939885D01*
X125818197Y-85945128D01*
X125737331Y-85959494D01*
X125620657Y-85980937D01*
X125478925Y-86007413D01*
X125322890Y-86036877D01*
X125163302Y-86067283D01*
X125010915Y-86096588D01*
X124876479Y-86122745D01*
X124770748Y-86143710D01*
X124704474Y-86157439D01*
X124688218Y-86161320D01*
X124671427Y-86170900D01*
X124658751Y-86192536D01*
X124649622Y-86233531D01*
X124643469Y-86301189D01*
X124639720Y-86402812D01*
X124637808Y-86545703D01*
X124637160Y-86737165D01*
X124637126Y-86815645D01*
X124637126Y-87453906D01*
X124790402Y-87484160D01*
X124875678Y-87500564D01*
X125002930Y-87524509D01*
X125156685Y-87553107D01*
X125321466Y-87583467D01*
X125367011Y-87591806D01*
X125519068Y-87621370D01*
X125651532Y-87650442D01*
X125753286Y-87676329D01*
X125813212Y-87696337D01*
X125823195Y-87702301D01*
X125847707Y-87744534D01*
X125882852Y-87826370D01*
X125921827Y-87931683D01*
X125929558Y-87954368D01*
X125980640Y-88095018D01*
X126044046Y-88253714D01*
X126106096Y-88396225D01*
X126106402Y-88396886D01*
X126209733Y-88620440D01*
X125530039Y-89620232D01*
X125966379Y-90057300D01*
X126098351Y-90187381D01*
X126218721Y-90302048D01*
X126320727Y-90395181D01*
X126397609Y-90460658D01*
X126442607Y-90492357D01*
X126449062Y-90494368D01*
X126486960Y-90478529D01*
X126564292Y-90434496D01*
X126672611Y-90367490D01*
X126803468Y-90282734D01*
X126944948Y-90187816D01*
X127088539Y-90090998D01*
X127216565Y-90006751D01*
X127320895Y-89940258D01*
X127393400Y-89896702D01*
X127425842Y-89881264D01*
X127465424Y-89894328D01*
X127540481Y-89928750D01*
X127635532Y-89977380D01*
X127645608Y-89982785D01*
X127773609Y-90046980D01*
X127861382Y-90078463D01*
X127915972Y-90078798D01*
X127944425Y-90049548D01*
X127944590Y-90049138D01*
X127958812Y-90014498D01*
X127992731Y-89932269D01*
X128043716Y-89808814D01*
X128109138Y-89650498D01*
X128186366Y-89463686D01*
X128272771Y-89254742D01*
X128356449Y-89052446D01*
X128448412Y-88829200D01*
X128532850Y-88622392D01*
X128607231Y-88438362D01*
X128669026Y-88283451D01*
X128715703Y-88163996D01*
X128744732Y-88086339D01*
X128753678Y-88057356D01*
X128731244Y-88024110D01*
X128672561Y-87971123D01*
X128594311Y-87912704D01*
X128371466Y-87727952D01*
X128197282Y-87516182D01*
X128073846Y-87281856D01*
X128003246Y-87029434D01*
X127987569Y-86763377D01*
X127998964Y-86640575D01*
X128061050Y-86385793D01*
X128167977Y-86160801D01*
X128313111Y-85967817D01*
X128489822Y-85809061D01*
X128691478Y-85686750D01*
X128911446Y-85603105D01*
X129143094Y-85560344D01*
X129379791Y-85560687D01*
X129614905Y-85606352D01*
X129841804Y-85699559D01*
X130053856Y-85842527D01*
X130142364Y-85923383D01*
X130312111Y-86131007D01*
X130430301Y-86357895D01*
X130497722Y-86597433D01*
X130515160Y-86843007D01*
X130483402Y-87088003D01*
X130403235Y-87325808D01*
X130275445Y-87549807D01*
X130100820Y-87753387D01*
X129905688Y-87912704D01*
X129824409Y-87973602D01*
X129766991Y-88026015D01*
X129746322Y-88057406D01*
X129757144Y-88091639D01*
X129787923Y-88173419D01*
X129836126Y-88296407D01*
X129899222Y-88454263D01*
X129974678Y-88640649D01*
X130059962Y-88849226D01*
X130143781Y-89052496D01*
X130236255Y-89275933D01*
X130321911Y-89482984D01*
X130398118Y-89667286D01*
X130462247Y-89822475D01*
X130511668Y-89942188D01*
X130543752Y-90020061D01*
X130555641Y-90049138D01*
X130583726Y-90078677D01*
X130638051Y-90078591D01*
X130725605Y-90047326D01*
X130853381Y-89983329D01*
X130854392Y-89982785D01*
X130950598Y-89933121D01*
X131028369Y-89896945D01*
X131072223Y-89881408D01*
X131074158Y-89881264D01*
X131107171Y-89897024D01*
X131180054Y-89940850D01*
X131284678Y-90007557D01*
X131412910Y-90091964D01*
X131555052Y-90187816D01*
X131699767Y-90284867D01*
X131830196Y-90369270D01*
X131937890Y-90435801D01*
X132014402Y-90479238D01*
X132050938Y-90494368D01*
X132084582Y-90474482D01*
X132152224Y-90418903D01*
X132247107Y-90333754D01*
X132362470Y-90225153D01*
X132491555Y-90099221D01*
X132533771Y-90057149D01*
X132970261Y-89619931D01*
X132638023Y-89132340D01*
X132537054Y-88982605D01*
X132448438Y-88848220D01*
X132377146Y-88736969D01*
X132328150Y-88656639D01*
X132306422Y-88615014D01*
X132305785Y-88612053D01*
X132317240Y-88572818D01*
X132348051Y-88493895D01*
X132392884Y-88388509D01*
X132424353Y-88317954D01*
X132483192Y-88182876D01*
X132538604Y-88046409D01*
X132581564Y-87931103D01*
X132593234Y-87895977D01*
X132626389Y-87802174D01*
X132658799Y-87729694D01*
X132676601Y-87702301D01*
X132715886Y-87685536D01*
X132801626Y-87661770D01*
X132922697Y-87633697D01*
X133067973Y-87604009D01*
X133132988Y-87591806D01*
X133298087Y-87561468D01*
X133456448Y-87532093D01*
X133592596Y-87506569D01*
X133691057Y-87487785D01*
X133709598Y-87484160D01*
X133862873Y-87453906D01*
X133862873Y-86815645D01*
X133862529Y-86605770D01*
X133861116Y-86446980D01*
X133858064Y-86331973D01*
X133852803Y-86253446D01*
X133844763Y-86204096D01*
X133833373Y-86176619D01*
X133818063Y-86163713D01*
X133811782Y-86161320D01*
X133773896Y-86152833D01*
X133690195Y-86135900D01*
X133571433Y-86112566D01*
X133428361Y-86084875D01*
X133271732Y-86054873D01*
X133112297Y-86024604D01*
X132960809Y-85996115D01*
X132828019Y-85971449D01*
X132724681Y-85952651D01*
X132661545Y-85941767D01*
X132647497Y-85939885D01*
X132634770Y-85914704D01*
X132606600Y-85847622D01*
X132568252Y-85751333D01*
X132553609Y-85713621D01*
X132494548Y-85567921D01*
X132425000Y-85406951D01*
X132362712Y-85271291D01*
X132316879Y-85167561D01*
X132286387Y-85082326D01*
X132276208Y-85030126D01*
X132277831Y-85023130D01*
X132299343Y-84990102D01*
X132348465Y-84916643D01*
X132419923Y-84810577D01*
X132508445Y-84679726D01*
X132608759Y-84531912D01*
X132628594Y-84502734D01*
X132744988Y-84329863D01*
X132830548Y-84198226D01*
X132888684Y-84101761D01*
X132922808Y-84034408D01*
X132936331Y-83990106D01*
X132932664Y-83962794D01*
X132932570Y-83962620D01*
X132903707Y-83926746D01*
X132839867Y-83857391D01*
X132747969Y-83761745D01*
X132634933Y-83646999D01*
X132507679Y-83520341D01*
X132493328Y-83506205D01*
X132332957Y-83350903D01*
X132209195Y-83236870D01*
X132119555Y-83162002D01*
X132061552Y-83124196D01*
X132036004Y-83119317D01*
X131998718Y-83140603D01*
X131921343Y-83189773D01*
X131811867Y-83261575D01*
X131678280Y-83350755D01*
X131528570Y-83452063D01*
X131493618Y-83475897D01*
X130997390Y-83814765D01*
X130773293Y-83713056D01*
X130637011Y-83653783D01*
X130490724Y-83594170D01*
X130364965Y-83546640D01*
X130359425Y-83544685D01*
X130261057Y-83508677D01*
X130185229Y-83478229D01*
X130148282Y-83459905D01*
X130148220Y-83459852D01*
X130136496Y-83426729D01*
X130116568Y-83345267D01*
X130090413Y-83224625D01*
X130060010Y-83073959D01*
X130027337Y-82902428D01*
X130024664Y-82887967D01*
X129991890Y-82711235D01*
X129961802Y-82550810D01*
X129936339Y-82416888D01*
X129917441Y-82319663D01*
X129907047Y-82269332D01*
X129906865Y-82268563D01*
X129900539Y-82247153D01*
X129888239Y-82230988D01*
X129862594Y-82219331D01*
X129816235Y-82211445D01*
X129741792Y-82206593D01*
X129631895Y-82204039D01*
X129479175Y-82203045D01*
X129276262Y-82202874D01*
X129250000Y-82202874D01*
X129040986Y-82202998D01*
G37*
X129040986Y-82202998D02*
X128882994Y-82203863D01*
X128768653Y-82206205D01*
X128690593Y-82210762D01*
X128641446Y-82218270D01*
X128613841Y-82229466D01*
X128600408Y-82245088D01*
X128593779Y-82265873D01*
X128593135Y-82268563D01*
X128583065Y-82317113D01*
X128564425Y-82412905D01*
X128539155Y-82545743D01*
X128509193Y-82705431D01*
X128476478Y-82881774D01*
X128475336Y-82887967D01*
X128442567Y-83060782D01*
X128411907Y-83213469D01*
X128385336Y-83336871D01*
X128364833Y-83421831D01*
X128352374Y-83459190D01*
X128351780Y-83459852D01*
X128315081Y-83478095D01*
X128239414Y-83508497D01*
X128141122Y-83544493D01*
X128140575Y-83544685D01*
X128016767Y-83591222D01*
X127870804Y-83650504D01*
X127733219Y-83710109D01*
X127726707Y-83713056D01*
X127502610Y-83814765D01*
X127006381Y-83475897D01*
X126854154Y-83372592D01*
X126716259Y-83280237D01*
X126600685Y-83204084D01*
X126515421Y-83149385D01*
X126468456Y-83121393D01*
X126463996Y-83119317D01*
X126429866Y-83128560D01*
X126366119Y-83173156D01*
X126270269Y-83255209D01*
X126139831Y-83376821D01*
X126006672Y-83506205D01*
X125878306Y-83633702D01*
X125763419Y-83750046D01*
X125668927Y-83848052D01*
X125601747Y-83920536D01*
X125568794Y-83960313D01*
X125567568Y-83962361D01*
X125563926Y-83989656D01*
X125577650Y-84034234D01*
X125612131Y-84102112D01*
X125670761Y-84199311D01*
X125756930Y-84331851D01*
X125871800Y-84502476D01*
X125973746Y-84652655D01*
X126064877Y-84787350D01*
X126139927Y-84898740D01*
X126193631Y-84979005D01*
X126220720Y-85020325D01*
X126222426Y-85023130D01*
X126219118Y-85062721D01*
X126194047Y-85139669D01*
X126152202Y-85239432D01*
X126137288Y-85271291D01*
X126072214Y-85413226D01*
X126002788Y-85574273D01*
X125946391Y-85713621D01*
X125905753Y-85817044D01*
X125873474Y-85895642D01*
X125854822Y-85936720D01*
X125852503Y-85939885D01*
X125818197Y-85945128D01*
X125737331Y-85959494D01*
X125620657Y-85980937D01*
X125478925Y-86007413D01*
X125322890Y-86036877D01*
X125163302Y-86067283D01*
X125010915Y-86096588D01*
X124876479Y-86122745D01*
X124770748Y-86143710D01*
X124704474Y-86157439D01*
X124688218Y-86161320D01*
X124671427Y-86170900D01*
X124658751Y-86192536D01*
X124649622Y-86233531D01*
X124643469Y-86301189D01*
X124639720Y-86402812D01*
X124637808Y-86545703D01*
X124637160Y-86737165D01*
X124637126Y-86815645D01*
X124637126Y-87453906D01*
X124790402Y-87484160D01*
X124875678Y-87500564D01*
X125002930Y-87524509D01*
X125156685Y-87553107D01*
X125321466Y-87583467D01*
X125367011Y-87591806D01*
X125519068Y-87621370D01*
X125651532Y-87650442D01*
X125753286Y-87676329D01*
X125813212Y-87696337D01*
X125823195Y-87702301D01*
X125847707Y-87744534D01*
X125882852Y-87826370D01*
X125921827Y-87931683D01*
X125929558Y-87954368D01*
X125980640Y-88095018D01*
X126044046Y-88253714D01*
X126106096Y-88396225D01*
X126106402Y-88396886D01*
X126209733Y-88620440D01*
X125530039Y-89620232D01*
X125966379Y-90057300D01*
X126098351Y-90187381D01*
X126218721Y-90302048D01*
X126320727Y-90395181D01*
X126397609Y-90460658D01*
X126442607Y-90492357D01*
X126449062Y-90494368D01*
X126486960Y-90478529D01*
X126564292Y-90434496D01*
X126672611Y-90367490D01*
X126803468Y-90282734D01*
X126944948Y-90187816D01*
X127088539Y-90090998D01*
X127216565Y-90006751D01*
X127320895Y-89940258D01*
X127393400Y-89896702D01*
X127425842Y-89881264D01*
X127465424Y-89894328D01*
X127540481Y-89928750D01*
X127635532Y-89977380D01*
X127645608Y-89982785D01*
X127773609Y-90046980D01*
X127861382Y-90078463D01*
X127915972Y-90078798D01*
X127944425Y-90049548D01*
X127944590Y-90049138D01*
X127958812Y-90014498D01*
X127992731Y-89932269D01*
X128043716Y-89808814D01*
X128109138Y-89650498D01*
X128186366Y-89463686D01*
X128272771Y-89254742D01*
X128356449Y-89052446D01*
X128448412Y-88829200D01*
X128532850Y-88622392D01*
X128607231Y-88438362D01*
X128669026Y-88283451D01*
X128715703Y-88163996D01*
X128744732Y-88086339D01*
X128753678Y-88057356D01*
X128731244Y-88024110D01*
X128672561Y-87971123D01*
X128594311Y-87912704D01*
X128371466Y-87727952D01*
X128197282Y-87516182D01*
X128073846Y-87281856D01*
X128003246Y-87029434D01*
X127987569Y-86763377D01*
X127998964Y-86640575D01*
X128061050Y-86385793D01*
X128167977Y-86160801D01*
X128313111Y-85967817D01*
X128489822Y-85809061D01*
X128691478Y-85686750D01*
X128911446Y-85603105D01*
X129143094Y-85560344D01*
X129379791Y-85560687D01*
X129614905Y-85606352D01*
X129841804Y-85699559D01*
X130053856Y-85842527D01*
X130142364Y-85923383D01*
X130312111Y-86131007D01*
X130430301Y-86357895D01*
X130497722Y-86597433D01*
X130515160Y-86843007D01*
X130483402Y-87088003D01*
X130403235Y-87325808D01*
X130275445Y-87549807D01*
X130100820Y-87753387D01*
X129905688Y-87912704D01*
X129824409Y-87973602D01*
X129766991Y-88026015D01*
X129746322Y-88057406D01*
X129757144Y-88091639D01*
X129787923Y-88173419D01*
X129836126Y-88296407D01*
X129899222Y-88454263D01*
X129974678Y-88640649D01*
X130059962Y-88849226D01*
X130143781Y-89052496D01*
X130236255Y-89275933D01*
X130321911Y-89482984D01*
X130398118Y-89667286D01*
X130462247Y-89822475D01*
X130511668Y-89942188D01*
X130543752Y-90020061D01*
X130555641Y-90049138D01*
X130583726Y-90078677D01*
X130638051Y-90078591D01*
X130725605Y-90047326D01*
X130853381Y-89983329D01*
X130854392Y-89982785D01*
X130950598Y-89933121D01*
X131028369Y-89896945D01*
X131072223Y-89881408D01*
X131074158Y-89881264D01*
X131107171Y-89897024D01*
X131180054Y-89940850D01*
X131284678Y-90007557D01*
X131412910Y-90091964D01*
X131555052Y-90187816D01*
X131699767Y-90284867D01*
X131830196Y-90369270D01*
X131937890Y-90435801D01*
X132014402Y-90479238D01*
X132050938Y-90494368D01*
X132084582Y-90474482D01*
X132152224Y-90418903D01*
X132247107Y-90333754D01*
X132362470Y-90225153D01*
X132491555Y-90099221D01*
X132533771Y-90057149D01*
X132970261Y-89619931D01*
X132638023Y-89132340D01*
X132537054Y-88982605D01*
X132448438Y-88848220D01*
X132377146Y-88736969D01*
X132328150Y-88656639D01*
X132306422Y-88615014D01*
X132305785Y-88612053D01*
X132317240Y-88572818D01*
X132348051Y-88493895D01*
X132392884Y-88388509D01*
X132424353Y-88317954D01*
X132483192Y-88182876D01*
X132538604Y-88046409D01*
X132581564Y-87931103D01*
X132593234Y-87895977D01*
X132626389Y-87802174D01*
X132658799Y-87729694D01*
X132676601Y-87702301D01*
X132715886Y-87685536D01*
X132801626Y-87661770D01*
X132922697Y-87633697D01*
X133067973Y-87604009D01*
X133132988Y-87591806D01*
X133298087Y-87561468D01*
X133456448Y-87532093D01*
X133592596Y-87506569D01*
X133691057Y-87487785D01*
X133709598Y-87484160D01*
X133862873Y-87453906D01*
X133862873Y-86815645D01*
X133862529Y-86605770D01*
X133861116Y-86446980D01*
X133858064Y-86331973D01*
X133852803Y-86253446D01*
X133844763Y-86204096D01*
X133833373Y-86176619D01*
X133818063Y-86163713D01*
X133811782Y-86161320D01*
X133773896Y-86152833D01*
X133690195Y-86135900D01*
X133571433Y-86112566D01*
X133428361Y-86084875D01*
X133271732Y-86054873D01*
X133112297Y-86024604D01*
X132960809Y-85996115D01*
X132828019Y-85971449D01*
X132724681Y-85952651D01*
X132661545Y-85941767D01*
X132647497Y-85939885D01*
X132634770Y-85914704D01*
X132606600Y-85847622D01*
X132568252Y-85751333D01*
X132553609Y-85713621D01*
X132494548Y-85567921D01*
X132425000Y-85406951D01*
X132362712Y-85271291D01*
X132316879Y-85167561D01*
X132286387Y-85082326D01*
X132276208Y-85030126D01*
X132277831Y-85023130D01*
X132299343Y-84990102D01*
X132348465Y-84916643D01*
X132419923Y-84810577D01*
X132508445Y-84679726D01*
X132608759Y-84531912D01*
X132628594Y-84502734D01*
X132744988Y-84329863D01*
X132830548Y-84198226D01*
X132888684Y-84101761D01*
X132922808Y-84034408D01*
X132936331Y-83990106D01*
X132932664Y-83962794D01*
X132932570Y-83962620D01*
X132903707Y-83926746D01*
X132839867Y-83857391D01*
X132747969Y-83761745D01*
X132634933Y-83646999D01*
X132507679Y-83520341D01*
X132493328Y-83506205D01*
X132332957Y-83350903D01*
X132209195Y-83236870D01*
X132119555Y-83162002D01*
X132061552Y-83124196D01*
X132036004Y-83119317D01*
X131998718Y-83140603D01*
X131921343Y-83189773D01*
X131811867Y-83261575D01*
X131678280Y-83350755D01*
X131528570Y-83452063D01*
X131493618Y-83475897D01*
X130997390Y-83814765D01*
X130773293Y-83713056D01*
X130637011Y-83653783D01*
X130490724Y-83594170D01*
X130364965Y-83546640D01*
X130359425Y-83544685D01*
X130261057Y-83508677D01*
X130185229Y-83478229D01*
X130148282Y-83459905D01*
X130148220Y-83459852D01*
X130136496Y-83426729D01*
X130116568Y-83345267D01*
X130090413Y-83224625D01*
X130060010Y-83073959D01*
X130027337Y-82902428D01*
X130024664Y-82887967D01*
X129991890Y-82711235D01*
X129961802Y-82550810D01*
X129936339Y-82416888D01*
X129917441Y-82319663D01*
X129907047Y-82269332D01*
X129906865Y-82268563D01*
X129900539Y-82247153D01*
X129888239Y-82230988D01*
X129862594Y-82219331D01*
X129816235Y-82211445D01*
X129741792Y-82206593D01*
X129631895Y-82204039D01*
X129479175Y-82203045D01*
X129276262Y-82202874D01*
X129250000Y-82202874D01*
X129040986Y-82202998D01*
%TD*%
M02*
