%TF.GenerationSoftware,KiCad,Pcbnew,(5.1.8-0-10_14)*%
%TF.CreationDate,2020-12-03T14:34:03+01:00*%
%TF.ProjectId,SH-ESP32-PowerFET,53482d45-5350-4333-922d-506f77657246,0.1.0*%
%TF.SameCoordinates,Original*%
%TF.FileFunction,Soldermask,Bot*%
%TF.FilePolarity,Negative*%
%FSLAX46Y46*%
G04 Gerber Fmt 4.6, Leading zero omitted, Abs format (unit mm)*
G04 Created by KiCad (PCBNEW (5.1.8-0-10_14)) date 2020-12-03 14:34:03*
%MOMM*%
%LPD*%
G01*
G04 APERTURE LIST*
%TA.AperFunction,Profile*%
%ADD10C,0.050000*%
%TD*%
%ADD11O,1.800000X2.100000*%
%ADD12O,1.800000X1.800000*%
%ADD13O,4.100000X6.100000*%
%ADD14C,6.400000*%
%ADD15C,0.200000*%
%ADD16C,0.100000*%
G04 APERTURE END LIST*
D10*
X89000000Y-105978147D02*
G75*
G02*
X97400000Y-112500000I0J-8670432D01*
G01*
X97400000Y-112500000D02*
X127000000Y-112500000D01*
X89000000Y-103000000D02*
X89000000Y-105978147D01*
X153000000Y-112500000D02*
X169891435Y-112499765D01*
X171989592Y-63010408D02*
X172000000Y-109000000D01*
X153000000Y-112500000D02*
X153000000Y-112500000D01*
X127000000Y-112500000D02*
X153000000Y-112500000D01*
X169891436Y-112499765D02*
G75*
G02*
X172000000Y-109000000I8108564J-2500235D01*
G01*
X171989592Y-63010408D02*
G75*
G02*
X169500000Y-57000000I6010408J6010408D01*
G01*
X97500000Y-57000000D02*
G75*
G02*
X89000000Y-65500000I-8500000J0D01*
G01*
X169500000Y-57000000D02*
X97500000Y-57000000D01*
X89000000Y-65500000D02*
X89000000Y-103000000D01*
D11*
%TO.C,J301*%
X146020000Y-108960000D03*
G36*
G01*
X149420000Y-108174705D02*
X149420000Y-109745295D01*
G75*
G02*
X149155295Y-110010000I-264705J0D01*
G01*
X147884705Y-110010000D01*
G75*
G02*
X147620000Y-109745295I0J264705D01*
G01*
X147620000Y-108174705D01*
G75*
G02*
X147884705Y-107910000I264705J0D01*
G01*
X149155295Y-107910000D01*
G75*
G02*
X149420000Y-108174705I0J-264705D01*
G01*
G37*
%TD*%
D12*
%TO.C,J106*%
X127680000Y-63880000D03*
X125140000Y-63880000D03*
X122600000Y-63880000D03*
G36*
G01*
X120910000Y-64780000D02*
X119210000Y-64780000D01*
G75*
G02*
X119160000Y-64730000I0J50000D01*
G01*
X119160000Y-63030000D01*
G75*
G02*
X119210000Y-62980000I50000J0D01*
G01*
X120910000Y-62980000D01*
G75*
G02*
X120960000Y-63030000I0J-50000D01*
G01*
X120960000Y-64730000D01*
G75*
G02*
X120910000Y-64780000I-50000J0D01*
G01*
G37*
%TD*%
D13*
%TO.C,J102*%
X94200000Y-100000000D03*
X94200000Y-90500000D03*
X94200000Y-81000000D03*
X94200000Y-71500000D03*
%TD*%
%TO.C,J101*%
X166700000Y-71400000D03*
X166700000Y-80900000D03*
X166700000Y-90400000D03*
X166700000Y-99900000D03*
%TD*%
D14*
%TO.C,H202*%
X156250000Y-109000000D03*
%TD*%
%TO.C,H201*%
X111750000Y-63000000D03*
%TD*%
D12*
%TO.C,J105*%
X124750000Y-108040000D03*
G36*
G01*
X123850000Y-106350000D02*
X123850000Y-104650000D01*
G75*
G02*
X123900000Y-104600000I50000J0D01*
G01*
X125600000Y-104600000D01*
G75*
G02*
X125650000Y-104650000I0J-50000D01*
G01*
X125650000Y-106350000D01*
G75*
G02*
X125600000Y-106400000I-50000J0D01*
G01*
X123900000Y-106400000D01*
G75*
G02*
X123850000Y-106350000I0J50000D01*
G01*
G37*
%TD*%
%TO.C,J103*%
X117520000Y-61340000D03*
X117520000Y-58800000D03*
X120060000Y-61340000D03*
X120060000Y-58800000D03*
X122600000Y-61340000D03*
X122600000Y-58800000D03*
X125140000Y-61340000D03*
X125140000Y-58800000D03*
X127680000Y-61340000D03*
X127680000Y-58800000D03*
X130220000Y-61340000D03*
X130220000Y-58800000D03*
X132760000Y-61340000D03*
X132760000Y-58800000D03*
X135300000Y-61340000D03*
X135300000Y-58800000D03*
X137840000Y-61340000D03*
X137840000Y-58800000D03*
X140380000Y-61340000D03*
X140380000Y-58800000D03*
X142920000Y-61340000D03*
X142920000Y-58800000D03*
X145460000Y-61340000D03*
X145460000Y-58800000D03*
X148000000Y-61340000D03*
X148000000Y-58800000D03*
X150540000Y-61340000D03*
X150540000Y-58800000D03*
X153080000Y-61340000D03*
X153080000Y-58800000D03*
X155620000Y-61340000D03*
X155620000Y-58800000D03*
X158160000Y-61340000D03*
X158160000Y-58800000D03*
X160700000Y-61340000D03*
X160700000Y-58800000D03*
X163240000Y-61340000D03*
X163240000Y-58800000D03*
X165780000Y-61340000D03*
G36*
G01*
X164930000Y-57900000D02*
X166630000Y-57900000D01*
G75*
G02*
X166680000Y-57950000I0J-50000D01*
G01*
X166680000Y-59650000D01*
G75*
G02*
X166630000Y-59700000I-50000J0D01*
G01*
X164930000Y-59700000D01*
G75*
G02*
X164880000Y-59650000I0J50000D01*
G01*
X164880000Y-57950000D01*
G75*
G02*
X164930000Y-57900000I50000J0D01*
G01*
G37*
%TD*%
D15*
X117900000Y-73400000D02*
X94350000Y-73400000D01*
X94350000Y-68600000D01*
X117900000Y-68600000D01*
X117900000Y-73400000D01*
D16*
G36*
X117900000Y-73400000D02*
G01*
X94350000Y-73400000D01*
X94350000Y-68600000D01*
X117900000Y-68600000D01*
X117900000Y-73400000D01*
G37*
D15*
X117752271Y-92900000D02*
X94202271Y-92900000D01*
X94202271Y-88100000D01*
X117752271Y-88100000D01*
X117752271Y-92900000D01*
D16*
G36*
X117752271Y-92900000D02*
G01*
X94202271Y-92900000D01*
X94202271Y-88100000D01*
X117752271Y-88100000D01*
X117752271Y-92900000D01*
G37*
D15*
X166988403Y-102650000D02*
X143438403Y-102650000D01*
X143438403Y-97850000D01*
X166988403Y-97850000D01*
X166988403Y-102650000D01*
D16*
G36*
X166988403Y-102650000D02*
G01*
X143438403Y-102650000D01*
X143438403Y-97850000D01*
X166988403Y-97850000D01*
X166988403Y-102650000D01*
G37*
D15*
X166556985Y-83150000D02*
X143006985Y-83150000D01*
X143006985Y-78350000D01*
X166556985Y-78350000D01*
X166556985Y-83150000D01*
D16*
G36*
X166556985Y-83150000D02*
G01*
X143006985Y-83150000D01*
X143006985Y-78350000D01*
X166556985Y-78350000D01*
X166556985Y-83150000D01*
G37*
D15*
X107900000Y-83400000D02*
X94037152Y-83400000D01*
X94037152Y-78600000D01*
X107900000Y-78600000D01*
X107900000Y-83400000D01*
D16*
G36*
X107900000Y-83400000D02*
G01*
X94037152Y-83400000D01*
X94037152Y-78600000D01*
X107900000Y-78600000D01*
X107900000Y-83400000D01*
G37*
D15*
X107900000Y-102547171D02*
X94037152Y-102547171D01*
X94037152Y-97747171D01*
X107900000Y-97747171D01*
X107900000Y-102547171D01*
D16*
G36*
X107900000Y-102547171D02*
G01*
X94037152Y-102547171D01*
X94037152Y-97747171D01*
X107900000Y-97747171D01*
X107900000Y-102547171D01*
G37*
D15*
X166712848Y-92650000D02*
X152850000Y-92650000D01*
X152850000Y-87850000D01*
X166712848Y-87850000D01*
X166712848Y-92650000D01*
D16*
G36*
X166712848Y-92650000D02*
G01*
X152850000Y-92650000D01*
X152850000Y-87850000D01*
X166712848Y-87850000D01*
X166712848Y-92650000D01*
G37*
D15*
X166712848Y-73650000D02*
X152850000Y-73650000D01*
X152850000Y-68850000D01*
X166712848Y-68850000D01*
X166712848Y-73650000D01*
D16*
G36*
X166712848Y-73650000D02*
G01*
X152850000Y-73650000D01*
X152850000Y-68850000D01*
X166712848Y-68850000D01*
X166712848Y-73650000D01*
G37*
D15*
X124150000Y-103400000D02*
X110100000Y-103400000D01*
X110100000Y-93850000D01*
X124150000Y-93850000D01*
X124150000Y-103400000D01*
D16*
G36*
X124150000Y-103400000D02*
G01*
X110100000Y-103400000D01*
X110100000Y-93850000D01*
X124150000Y-93850000D01*
X124150000Y-103400000D01*
G37*
D15*
X124424262Y-83900000D02*
X110374262Y-83900000D01*
X110374262Y-74350000D01*
X124424262Y-74350000D01*
X124424262Y-83900000D01*
D16*
G36*
X124424262Y-83900000D02*
G01*
X110374262Y-83900000D01*
X110374262Y-74350000D01*
X124424262Y-74350000D01*
X124424262Y-83900000D01*
G37*
D15*
X150650000Y-77260889D02*
X136600000Y-77260889D01*
X136600000Y-67710889D01*
X150650000Y-67710889D01*
X150650000Y-77260889D01*
D16*
G36*
X150650000Y-77260889D02*
G01*
X136600000Y-77260889D01*
X136600000Y-67710889D01*
X150650000Y-67710889D01*
X150650000Y-77260889D01*
G37*
D15*
X150650000Y-96854844D02*
X136600000Y-96854844D01*
X136600000Y-87304844D01*
X150650000Y-87304844D01*
X150650000Y-96854844D01*
D16*
G36*
X150650000Y-96854844D02*
G01*
X136600000Y-96854844D01*
X136600000Y-87304844D01*
X150650000Y-87304844D01*
X150650000Y-96854844D01*
G37*
M02*
